<svg id="Layer_1" enable-background="new 0 0 55 55" viewBox="0 0 55 55" xmlns="http://www.w3.org/2000/svg"><g><g><g><path d="m51.5 47.6-45.4-10.5-.1-8 45.5 10.5v-3.4z" fill="#efc348"/><path d="m6 25.7v3.4l45.5 10.5v-3.4z" fill="#efc348"/><path d="m15.9 15.7c-4.6 2.7-7.9 6-9.9 10l45.4 10.5-18-26.3c-7.1 1.3-12.9 3.2-17.5 5.8z" fill="#ffd651"/><path d="m33.8 12.4c-6.8 1.2-12.4 3.1-16.6 5.5-4.1 2.4-7.1 5.4-8.9 8.9-.5.9-1.3 1.4-2.3 1.4-.4 0-.8-.1-1.1-.3-1.2-.6-1.7-2-1.2-3.2 0-.1.1-.1.1-.2 2.3-4.4 5.9-8.1 10.9-11 4.8-2.8 10.9-4.8 18.3-6.1 1.1-.2 2.2.4 2.7 1.3.1.2.2.5.3.7.1 1.4-.8 2.7-2.2 3z" fill="#cea03a"/><path d="m35.6 8.7c-.3.8-1 1.4-1.9 1.6-6.8 1.2-12.4 3.1-16.6 5.5-4.1 2.4-7.1 5.4-8.9 8.9-.4.9-1.3 1.4-2.3 1.4-.4 0-.8-.1-1.1-.3-.5-.2-.9-.6-1.1-1.1 0-.1.1-.1.1-.2 2.3-4.4 5.9-8.1 10.9-11 4.8-2.8 10.9-4.8 18.3-6.1 1.1-.2 2.1.4 2.6 1.3z" fill="#ddb040"/><g><g enable-background="new"><g><path d="m18.8 23v.8c0 .3-.2.6-.6.8-.8.5-2.1.5-2.9 0-.4-.2-.6-.5-.6-.8v-.8c0 .3.2.6.6.8.8.5 2.1.5 2.9 0 .4-.2.6-.5.6-.8z" fill="#383736"/></g><g><path d="m18.2 23.8c-.7.4-1.7.4-2.4.2v.8c.8.3 1.8.2 2.4-.2.4-.2.6-.5.6-.8v-.8c0 .3-.2.6-.6.8z" fill="#2d2c2b"/></g><g><path d="m18.2 23.8s-.1 0-.1.1v.8s.1 0 .1-.1c.4-.2.6-.5.6-.8v-.8c0 .3-.2.6-.6.8z" fill="#21201f"/></g><g><path d="m18.2 22.2c.8.5.8 1.2 0 1.7s-2.1.5-2.9 0-.8-1.2 0-1.7 2.1-.5 2.9 0z" fill="#434240"/></g></g><g><path d="m16.1 23.2c.2.1.2.3 0 .4s-.5.1-.6 0c-.2-.1-.2-.3 0-.4s.5-.1.6 0z" fill="#cfd2d3"/></g><g><path d="m18.1 23.2c.2.1.2.3 0 .4s-.5.1-.6 0c-.2-.1-.2-.3 0-.4.1-.1.4-.1.6 0z" fill="#cfd2d3"/></g><g><path d="m16.9 22.1c.2.1.2.3 0 .4s-.5.1-.6 0c-.2-.1-.2-.3 0-.4s.4-.1.6 0z" fill="#cfd2d3"/></g></g><g><g enable-background="new"><g><path d="m38.3 22.5v1.2c0 .4-.3.9-.9 1.2-1.1.7-3 .7-4.2 0-.6-.3-.9-.8-.9-1.2v-1.2c0 .4.3.9.9 1.2 1.2.7 3 .7 4.2 0 .6-.3.9-.7.9-1.2z" fill="#383736"/></g><g><path d="m37.4 23.7c-1 .6-2.4.6-3.5.3v1.2c1.1.4 2.6.3 3.5-.3.6-.3.9-.8.9-1.2v-1.2c0 .5-.3.9-.9 1.2z" fill="#2d2c2b"/></g><g><path d="m37.4 23.7c-.1 0-.1.1-.2.1v1.2c.1 0 .1-.1.2-.1.6-.3.9-.8.9-1.2v-1.2c0 .5-.3.9-.9 1.2z" fill="#21201f"/></g><g><path d="m37.4 21.3c1.2.7 1.2 1.7 0 2.4s-3 .7-4.2 0-1.2-1.7 0-2.4c1.2-.6 3.1-.6 4.2 0z" fill="#434240"/></g></g><g><path d="m34.5 22.8c.3.1.3.4 0 .5s-.7.1-.9 0c-.3-.1-.3-.4 0-.5.2-.2.6-.2.9 0z" fill="#cfd2d3"/></g><g><path d="m37.3 22.9c.3.1.3.4 0 .5s-.7.1-.9 0c-.3-.1-.3-.4 0-.5.2-.2.6-.2.9 0z" fill="#cfd2d3"/></g><g><path d="m35.6 21.2c.3.1.3.4 0 .5s-.7.1-.9 0c-.3-.1-.3-.4 0-.5.2-.1.6-.1.9 0z" fill="#cfd2d3"/></g></g><g><g enable-background="new"><g><path d="m22.5 24.2v1.3c0 .5.3.9.9 1.3 1.2.7 3.2.7 4.5 0 .6-.4.9-.8.9-1.3v-1.3c0 .5-.3.9-.9 1.3-1.2.7-3.2.7-4.5 0-.5-.4-.9-.9-.9-1.3z" fill="#6dcb60"/></g><g><path d="m23.5 25.4c1 .6 2.6.7 3.8.3v1.3c-1.2.4-2.8.3-3.8-.3-.6-.4-.9-.8-.9-1.3v-1.3c-.1.5.3 1 .9 1.3z" fill="#3db542"/></g><g><path d="m23.5 25.4c.1 0 .1.1.2.1v1.3c-.1 0-.1-.1-.2-.1-.6-.4-.9-.8-.9-1.3v-1.3c-.1.5.3 1 .9 1.3z" fill="#2c9a2c"/></g><g><path d="m23.5 22.8c-1.2.7-1.2 1.9 0 2.6s3.2.7 4.5 0c1.2-.7 1.2-1.9 0-2.6-1.3-.7-3.3-.7-4.5 0z" fill="#81d672"/></g></g><g><path d="m24.7 24.3c.3.2.3.4 0 .6s-.7.2-1 0-.3-.4 0-.6c.3-.1.8-.1 1 0z" fill="#ffe2a9"/></g><g><path d="m27.6 24.5c.3.2.3.4 0 .6s-.7.2-1 0-.3-.4 0-.6.8-.2 1 0z" fill="#ffe2a9"/></g><g><path d="m25.9 22.8c.3.2.3.4 0 .6s-.7.2-1 0-.3-.4 0-.6.7-.2 1 0z" fill="#ffe2a9"/></g></g><g><g enable-background="new"><g><path d="m26.1 18.1v1c0 .4-.2.7-.7 1-1 .6-2.5.6-3.5 0-.5-.3-.7-.6-.7-1v-1c0 .4.2.7.7 1 1 .6 2.5.6 3.5 0 .5-.3.7-.6.7-1z" fill="#006cb5"/></g><g><path d="m25.4 19.1c-.8.5-2 .5-3 .2v1c.9.3 2.2.2 3-.2.5-.3.7-.6.7-1v-1c0 .4-.2.7-.7 1z" fill="#00649b"/></g><g><path d="m25.4 19.1c-.1 0-.1.1-.2.1v1c.1 0 .1 0 .2-.1.5-.3.7-.6.7-1v-1c0 .4-.2.7-.7 1z" fill="#005e87"/></g><g><path d="m25.4 17.1c1 .6 1 1.5 0 2-1 .6-2.5.6-3.5 0s-1-1.5 0-2c1-.6 2.5-.6 3.5 0z" fill="#0074d1"/></g></g><g><g><path d="m23 18.3c.2.1.2.3 0 .4s-.6.1-.8 0-.2-.3 0-.4.5-.1.8 0z" fill="#ffe2a9"/></g><g><path d="m25.3 18.4c.2.1.2.3 0 .4s-.6.1-.8 0-.2-.3 0-.4.6-.1.8 0z" fill="#ffe2a9"/></g><g><path d="m23.9 17c.2.1.2.3 0 .4s-.6.1-.8 0-.2-.3 0-.4.6-.1.8 0z" fill="#ffe2a9"/></g></g></g><g><g enable-background="new"><g><path d="m43.3 29.2v1.2c0 .4-.3.8-.8 1.1-1.1.6-2.8.6-3.9 0-.5-.3-.8-.7-.8-1.1v-1.2c0 .4.3.8.8 1.1 1.1.6 2.9.6 3.9 0 .5-.3.8-.7.8-1.1z" fill="#006cb5"/></g><g><path d="m42.5 30.3c-.9.5-2.3.6-3.4.3v1.2c1.1.4 2.4.3 3.3-.3.5-.3.8-.7.8-1.1v-1.2c.1.4-.2.8-.7 1.1z" fill="#00649b"/></g><g><path d="m42.5 30.3c-.1 0-.1.1-.2.1v1.2c.1 0 .1-.1.2-.1.5-.3.8-.7.8-1.1v-1.2c0 .4-.3.8-.8 1.1z" fill="#005e87"/></g><g><path d="m42.4 28c1.1.6 1.1 1.7 0 2.3s-2.8.6-3.9 0-1.1-1.7 0-2.3 2.9-.6 3.9 0z" fill="#0074d1"/></g></g><g><g><path d="m39.7 29.4c.2.1.2.4 0 .5s-.6.1-.9 0c-.2-.1-.2-.4 0-.5s.6-.1.9 0z" fill="#ffe2a9"/></g><g><path d="m42.3 29.5c.2.1.2.4 0 .5s-.6.1-.9 0c-.2-.1-.2-.4 0-.5s.7-.1.9 0z" fill="#ffe2a9"/></g><g><path d="m40.7 28c.2.1.2.4 0 .5s-.6.1-.9 0c-.2-.1-.2-.4 0-.5.3-.2.7-.2.9 0z" fill="#ffe2a9"/></g></g></g><g><g enable-background="new"><g><path d="m36.2 15.8v1.4c0 .5-.3 1-.9 1.3-1.3.7-3.3.7-4.6 0-.6-.4-1-.9-1-1.3v-1.4c0 .5.3 1 1 1.3 1.3.7 3.3.7 4.6 0 .5-.3.9-.8.9-1.3z" fill="#dd4a4a"/></g><g><path d="m35.2 17.2c-1.1.6-2.7.7-3.9.3v1.4c1.2.4 2.9.3 3.9-.3.6-.4.9-.8.9-1.3v-1.4c.1.4-.3.9-.9 1.3z" fill="#cc4848"/></g><g><path d="m35.2 17.2c-.1 0-.1.1-.2.1v1.3c.1 0 .1-.1.2-.1.6-.4.9-.8.9-1.3v-1.4c.1.5-.3 1-.9 1.4z" fill="#c44141"/></g><g><path d="m35.2 14.5c1.3.7 1.3 1.9 0 2.7-1.3.7-3.3.7-4.6 0s-1.3-1.9 0-2.7 3.3-.8 4.6 0z" fill="#f25a5a"/></g></g><g><g><path d="m32.2 16c.3.2.3.4 0 .5-.3.2-.7.2-.9 0-.3-.2-.3-.4 0-.5.2-.1.6-.1.9 0z" fill="#ffe2a9"/></g><g><path d="m35.1 16.2c.3.2.3.4 0 .5s-.7.2-.9 0c-.3-.2-.3-.4 0-.5.2-.2.6-.2.9 0z" fill="#ffe2a9"/></g><g><path d="m33.3 14.5c.3.2.3.4 0 .5-.3.2-.7.2-.9 0-.3-.2-.3-.4 0-.5.2-.2.7-.2.9 0z" fill="#ffe2a9"/></g></g></g></g><path d="m14.9 27.5c.2.1.2.3 0 .4-.6.2-1 .5-1.4.9s-.7.9-.9 1.4c-.1.2-.3.2-.4 0-.4-1.1-1.2-2-2.3-2.3-.2-.1-.2-.3 0-.4.6-.2 1-.5 1.4-.9s.7-.9.9-1.4c.1-.2.3-.2.4 0 .2.6.5 1 .9 1.4.3.4.8.7 1.4.9z" fill="#fff"/></g></g></svg>