<svg id="Layer_1" enable-background="new 0 0 75 75" viewBox="0 0 75 75" xmlns="http://www.w3.org/2000/svg"><g id="_x31_2"><g><ellipse cx="40.741" cy="67.096" fill="#451326" rx="17.055" ry="2.404"/></g><g><path d="m34.5273857 63.6709633c-1.7856979 2.7125664-1.8749542 2.7915382-1.9377441 3.0986214-.0453682.2218628.0097008.4797134.1925468.6133118s.4960136.071106.5627899-.1452789c-.2791595.260849-.2485886.7765503.059433 1.002594.3080254.2260437.8091469.1005249.9742584-.2440262-.2173271.2610474-.1280365.7141647.1720772.8732376.3001099.1590805.7252274-.0213699.8192787-.3477554-.1685791.169281-.092289.506752.1327133.587059.2250023.0803146.4977341-.132576.4744492-.3703384.3553619.3053131.943428.1507187 1.2466202-.2064514.303196-.3571777.3898849-.8461227.4413795-1.3117981.195385-1.7669601.0439491-3.5715981-.4431725-5.2812881" fill="#fed8be"/></g><g><path d="m45.5850754 58.4705544c.5469284.8308144 2.1724129 6.1552773 2.7193451 6.9860878.1245155.1891479.2515831.3843155.2969513.6061783.0453644.2218628-.0097008.4797134-.1925468.6133118s-.4960136.071106-.5627899-.1452789c.2791595.260849.2485886.7765503-.0594368 1.002594-.3080215.2260437-.8091469.1005249-.9742546-.2440262.2173233.2610474.1280327.7141571-.1720772.8732376-.3001137.1590805-.7252312-.0213699-.8192787-.3477554.1685753.169281.092289.506752-.1327133.587059-.2250023.0803146-.4977341-.132576-.4744492-.3703384-.3553619.3053131-.943428.1507187-1.246624-.206459-.3031921-.3571701-.3898811-.8461151-.4413757-1.3117905-.195385-1.7669601-.0439529-3.5716019.4431725-5.2812881" fill="#fed8be"/></g><g><path d="m35.7864647 7.4037333c-2.0758209 2.1125164-2.7833328 5.2523756-2.6951866 8.21278.1826401 6.1337023 2.5588226 8.895566 1.2942772 16.6359406-.2131233 1.3036652.1427956 1.3264465 1.4632759 1.4417229 4.201416.366787 8.9642258-.030571 13.5387726-1.3565178 1.5509987-6.8966846.8996887-14.2847843-1.6615829-20.8733902-.6422234-1.6520576-1.6728058-3.4667182-3.4253845-3.7316842" fill="#451326"/></g><g><path d="m34.5541458 41.8996429c1.2867279-2.418396 1.609005-4.8753891 2.0293541-7.5286064.1886177-1.190567-.256031-2.1856155-.6148415-3.3254147-.4404526-1.3991375-.880909-2.7982731-1.3213615-4.1974106-.2307281-.732935-.4541283-1.5623341-.0891533-2.2385159.3392296-.6284809 1.0906372-.9166145 1.7993126-1.0051708.7086754-.0885582 1.4369087-.0300713 2.1300087-.2024193 1.7631187-.4384365 1.2403336-1.462431 1.0601768-2.7620106 1.0198784-.2977486 2.1391296-.4085331 3.189312-.5989399-.3270912 1.1597424.4409981 2.5122433 1.6045723 2.8254318.8913727.2399254 1.901001-.0634289 2.7273636.3479519.7768936.3867531 1.1540146 1.3226547 1.1309013 2.1901875-.020359.7640934-.409977 1.4537506-.4234009 2.2101078-.0110588.6233025.1727753 1.287487.2293549 1.9100456.485405 5.3409576 1.9826775 10.3530846 4.9468651 15.1863899" fill="#fed8be"/></g><g><g><path d="m29.1516113 58.1255684c.8617573-2.6786461 1.8028736-5.8046188 3.2685547-8.0234375.0935555-.1373711.2996826.001461.2089844.1386719-1.4497433 2.193367-2.3802624 5.2907906-3.2392578 7.9609375-.0205593.0646171-.2889233.0816421-.2382813-.0761719z" fill="#451326"/></g><g><path d="m57.2064781 61.3627052c.0288467-.2794838.2045517-3.5225754.0514069-3.4365387-.7507591.4217796-1.4467888 2.1834335-2.048645 2.964592-1.4682121 1.9056244-3.2506332 3.4737282-5.2093582 4.5865059-.8535538.4849167-3.0382004 1.5630341-2.7742615-.0773544.1339149-.832283.4560127-1.6380959.5807762-2.4826622.0444794-.3010902-.0059509-2.0747643.1640778-2.2032051-2.5859642 1.9534645-5.3984146 3.6064682-8.3618927 4.9181747-1.2685356.5614853-2.3871231.8943481-3.7385902 1.1029892-1.7435722.2691727-.8793068-.5794067-.2530022-1.4863586.381958-.5531082.730648-1.1292267 1.0434074-1.7242126.1977806-.3762589.4569283-1.4570618.7724495-1.6930695-1.4918556 1.1159058-3.1249046 2.0417366-4.8455009 2.755661-1.3251095.5498199-3.5984402 1.6152725-5.0297451 1.3700562.0749531-.8647079 1.5918598-2.1412964 2.0459747-2.9611015.3263683-.5891876.6053886-1.2047195.8321915-1.8389511.1150188-.32164.2369041-1.4756508.4655781-1.6666107-2.2309456 1.863018-4.7692966 3.3556366-7.4804192 4.4029922-1.3580818.5246468-2.7059574 1.0525017-4.1100311 1.4507637-1.331831.3777695-3.0238018.3815002-4.2754297.9023285 4.6400824-1.9308395 8.6316729-5.9599228 10.9743433-11.0774345-3.3554516 4.0906029-8.3926849 6.1529007-13.1671419 5.3907661 5.6336851-2.2103043 10.2458544-6.5852699 14.3098249-10.9417229 3.2976036-3.5349312 6.2362041-7.4129982 8.6540089-11.6046524 1.3258781.3660011 2.689846.6937332 4.06493.8263855 2.9303131.2826843 6.140461-.3596344 8.338398-1.3170509.0480461-.0112419.0960884-.034008.1441307-.0681572.1680107-.1194229.633709-.3499451.8358803-.3775444.3427086-.0467834.4250984.1053543.7087631.3615799.4615326.4168892.9219666.8350143 1.3779716 1.2579498 3.9182396 3.6340752 7.1726913 7.2876396 8.3195305 12.4813118.2383766 1.0795212.5757866 2.3432159.48592 3.4442635-.1965027 2.4073143-.933815 4.864399-1.9161987 7.0631371-.4285166.959091-1.0597422.649906-.959347-.3228304z" fill="#04bf73"/></g><g><path d="m28.3928986 59.1773186c4.1116791-2.5885429 4.6847687-12.7943573 8.9506645-14.8588638-2.0665474 1.1769218-2.5838356 6.4847488-3.6713524 9.1355362-1.1734314 2.860218-3.3537197 4.3399124-5.2793121 5.7233276z" fill="#049e5c"/></g><g><path d="m47.6045036 40.4902649c-1.6559105 1.4797401-2.8691025 4.2171326-3.2124939 7.2485313-.2448463 2.1614761-.0668297 4.3973427-.2510109 6.5748177-.3700485 4.3748474-2.3156357 8.29599-4.8594627 9.7937698 1.5091629-.0113983 2.9515495-.8513107 4.10672-2.4374809 1.1551743-1.5861702 1.9558334-3.8465195 2.2219353-6.272747.2362823-2.1543655.0616531-4.3707352.1655083-6.5528107.1399039-2.9395828.7510642-5.9886971 1.8288039-8.3540802z" fill="#049e5c"/></g><g><path d="m46.9604454 56.2607803c-.9320068-3.646225 2.4225655-8.9741364 1.3838005-12.5663376.0861778 2.0566139-.7652931 4.3324699-1.3067703 6.4946098s-.7785492 4.4685479-.0770302 6.0717278z" fill="#049e5c"/></g></g><g><ellipse cx="40.857" cy="14.681" fill="#fed8be" rx="6.157" ry="7.445"/></g><g><path d="m47.2123222 23.2855358c1.350502.1281643 2.1514893 1.3431721 3.1335831 2.1193771 1.2826385 1.0137444 2.565197 2.0275917 3.8477936 3.0413857 1.062973-2.6208324 2.0330658-5.2609596 2.9890213-7.9227276.8030434.2417526 1.6060867.4835033 2.4091301.7252541-.6870079 2.905838-1.3740158 5.8116741-2.0610237 8.7175121-.6048317 2.5582523-1.9171333 3.4358959-4.9401588 1.5061092-2.5503845-1.6280746-5.1007729-3.2561493-7.6511612-4.884222" fill="#fed8be"/></g><g><path d="m37.1935997 27.8976955c-2.6627502 1.0966434-5.3255024 2.193285-7.9882526 3.2899265 1.5729446 2.2014503 3.2498493 4.293602 4.9428425 6.4051857-.6259384.558136-1.2518806 1.1162758-1.8778229 1.6744156-2.1178226-2.1049232-4.2356434-4.2098465-6.3534641-6.3147697-1.8644943-1.8531418-1.9264946-3.4306564 1.2990799-4.9985924 2.7212696-1.3227959 5.4425411-2.6455898 8.1638088-3.9683857" fill="#fed8be"/></g><g><path d="m57.3490982 20.9272213c-1.1609268-1.1240368-1.3260307-1.2488461-1.4436836-1.5383053-.092617-.2278538-.0723038-.5208054.1141472-.6812134.1967888-.1692982.5097618-.131319.7232704.0163364.2135048.1476574.3507881.3793564.4814034.603693-.1674461-.9086208-.1450768-1.872633.0094795-2.7835331.0511284-.3013229.1471291-.6370802.4186935-.7773037.203743-.1052046.4751205-.057313.6305428.1112766.155426.1685886.1811447.4429569.0597572.6374931-.1596756-.414093.2351112-.9286852.6764297-.8817091s.7189331.6331415.475666 1.004344c-.1440582-.1964397.0089531-.5135784.2475243-.5628262s.4856453.1318245.5577927.3644981c.0721512.2326717-.0050774.492651-.1518593.687067-.0661163-.2052231.1478958-.4245014.3632431-.4138451s.3926659.1920948.4629021.3959465c.0702324.2038517.05439.4263535.0295639.6405296-.1266441 1.0925465-.467701 2.1598263-.998085 3.1233559-.1568375.2849197-.3355255.5670605-.5925255.7663784-.2570038.1993179-.6076279.3038826-.9148026.1970062" fill="#fed8be"/></g><g><path d="m32.5358391 36.5714111c1.6143799.0705872 1.8207169.054409 2.100811.1928902.2204819.1090088.3996735.3416557.3666191.5853806-.0348816.2572365-.2942276.4364967-.5519371.4677048-.2577057.0312042-.5141563-.0510406-.7607346-.1322021.7281876.5686569 1.3511276 1.3047028 1.8399277 2.0887337.1616936.2593536.312664.5742455.2025452.8593483-.0826187.2139015-.317421.3581429-.5455666.3351517-.2281456-.022995-.4294472-.2111931-.4677162-.4372787.3942299.203846.4403381.8507843.0790024 1.1084785s-.9579773.0033798-1.0222969-.4357491c.2381248.0513725.3340912.3901634.1882858.5853119s-.450798.223629-.6591644.097435-.323101-.3719406-.3422928-.6147842c.1856384.1096611.171032.4157181.0028534.5506401s-.4212303.1168442-.6090431.0109406c-.187809-.1059036-.323597-.2828751-.4471416-.4595833-.6302147-.9014015-1.0832558-1.9261742-1.3258114-2.9989548-.0717258-.3172302-.1252594-.6468735-.0652466-.966526.0600128-.3196487.252943-.6305351.5536671-.754406" fill="#fed8be"/></g><g><path d="m42.0599136 8.1153231c-.0600853.656743-.5353889 1.2098818-1.0835266 1.5765791-.5481377.3666964-1.1775513.5902433-1.7624855.8948355-1.7949219.9346733-3.1483154 2.6784534-3.6083374 4.6491756-.4600258 1.9707212-.0185356 4.1334791 1.1770782 5.7662306-3.049736-2.6220989-4.3887367-6.9218378-2.980587-10.6892529.6843758-1.8310051 1.978363-3.4921598 3.7536812-4.3102021s4.0440674-.6603508 5.5034065.640141c.482769-.3138747 1.148716-.244235 1.6791229-.0200715.530407.2241631.9642258.6277442 1.3495255 1.055675 2.3485641 2.6084146 3.2083549 6.4736185 2.1869888 9.8316526-.2431564-3.9229802-2.6758575-7.684699-6.2148666-9.3947629z" fill="#451326"/></g><g><path d="m29.5785465 36.5383377c-.886137-.3690834-1.772274-.7381668-2.658411-1.1072502 1.0391006.0240021 2.0564384.271637 2.9190617.7105522-.273325-.8227425-.5466499-1.6454849-.8199749-2.4682274.5481071.6595879 1.0962162 1.3191719 1.6443253 1.9787598-.1619377-.8648376.0970993-1.7913132.710865-2.5424881.1039619.7789993.2079239 1.5579948.3118858 2.3369942.2482872-.8881302 1.2624435-1.6263847 2.37957-1.7322083-.3936577.0372887-.8291512.981987-.9176979 1.2339592-.1762123.5014496-.1434364.9962845.0004082 1.4854202-.8220062-.2099571-1.4289532.0597839-1.9111023.611187-.3084488.3527527-.2858047.6008682-.8807507.5735016-.7525959-.0346146-1.2474136-.9764366-3.2460442-.743763.7660847-.2867965 1.6464806-.3907623 2.467865-.3364372z" fill="#04bf73"/></g><g><path d="m59.5098381 22.6703205c.3730011.8844948.7460022 1.7689877 1.1190071 2.6534824-.7240295-.7457142-1.2757301-1.6356144-1.583004-2.5534077-.382019.7782478-.7640381 1.5564976-1.1460571 2.3347473.071701-.8545971.1434021-1.7091923.2151031-2.5637894-.4909515.7301579-1.3252716 1.2090836-2.2895851 1.3142929.4720993-.6283054.9441986-1.2566128 1.4162941-1.8849182-.7997665.4591236-2.040493.274374-2.9111824-.4334869.3068161.2494373 1.2797241-.1187496 1.5195351-.2363167.4772453-.2339649.8008461-.6097527 1.0412598-1.0593586.438858.7260723 1.0607376.9593353 1.7911339.9042721.4672623-.0352249.6250916-.2280045 1.0300903.2086735.5123138.5523891.2047157 1.5708485 1.7928467 2.8063641-.7472993-.3326874-1.4479066-.8758812-1.9954415-1.4905548z" fill="#04bf73"/></g><g><path d="m44.3479004 26.7173653c-.0625 0-.1166992-.046875-.1240234-.1103516-.1484375-1.2412109.1577148-2.5546875.8398438-3.6025391.0390625-.0585938.1171875-.0732422.1733398-.0361328.0576172.0371094.0742188.1152344.0366211.1728516-.6513672.9990234-.9433594 2.2519531-.8017578 3.4365234.0083008.0683594-.0405273.1308594-.109375.1386719-.0048829.0009766-.0097657.0009766-.0146485.0009766z" fill="#e6033a"/></g><g><path d="m38.8044434 27.775959c-.0004883 0-.0004883 0-.0009766 0-.0688477-.0009766-.1245117-.0566406-.1240234-.1259766.0112305-1.4951172-.6450195-2.9853516-1.7563477-3.9863281-.1224861-.1096554.0424423-.2957268.1669922-.1855469 1.1635742 1.0478516 1.8515625 2.6083984 1.8393555 4.1738281-.0004883.0683595-.0566407.1240235-.125.1240235z" fill="#e6033a"/></g><g><path d="m35.7337761 30.2994957c.5559692-.114996.811367-.0695839 1.3673401-.1845798.1525269-1.1898899.620594-2.3319054 1.6301308-2.9799328 1.2511711.0405235 2.4105682.8258801 2.7856216 2.0202007.4445267-.101532.8465347-.1629391 1.2910576-.2644691-.0357323-1.1142254.5753708-2.176712 1.6071053-2.5989628 1.1049538.2239304 2.0483627.9338226 2.31007 2.0304413.4807129-.084219.6404343.2058105 1.121151.1215916.0086823.2550068.1233521.5547371.1320343.8097458-.4054947-.0128574-.83144-.042305-1.2369385-.0551605-.2996445.536747-.6770363.9968395-1.255825 1.2039337-.5787926.2070961-1.23246.197031-1.8045959-.0277843-.2604256-.1023312-.5311432-.2866554-.5643044-.5644894-.5087662.1091881-1.0038414.2341671-1.5126076.3433552-.7470932 1.6597843-3.1193504 2.0435905-4.3220177.521471-.4502525.1109028-.928196.1640282-1.3784485.2749329" fill="#ff0041"/></g><g><path d="m57.6813965 12.642169-.7646484-1.8017578c-.0645142-.1524897.1662178-.2495241.2304688-.0976563l.7646484 1.8017578c.0268555.0634766-.0029297.1367188-.0664063.1640625-.0620384.0263196-.1361618-.0013027-.1640625-.0664062z" fill="#734c59"/></g><g><path d="m60.5651855 13.0992002 1.362793-1.9521484c.0934563-.1378489.2997742.0070152.2050552.1425781l-1.3627701 1.9521484c-.0947685.1364671-.2994537-.0074214-.2050781-.1425781z" fill="#734c59"/></g><g><path d="m32.8781738 41.6001778-.9438477-1.7753906c-.0778275-.146225.1434708-.2624359.2207031-.1171875l.9438477 1.7753906c.0772934.1452179-.1423606.2636528-.2207031.1171875z" fill="#ffa96d"/></g><g><path d="m33.8327637 41.5005684-.980957-1.7871094c-.0797119-.1453552.1403122-.2663231.2187271-.1210938l.9809799 1.7871094c.079647.1452408-.1396103.2656098-.21875.1210938z" fill="#ffa96d"/></g><g><path d="m34.5612793 40.8990059-.9785156-1.3271484c-.0987473-.1340141.1044502-.2812881.2011719-.1484375l.9785156 1.3271484c.0984077.1335525-.1034394.281353-.2011719.1484375z" fill="#ffa96d"/></g><g><path d="m58.2155762 17.9956856c-.0024414 0-.0048828 0-.0078125 0-.0688477-.0048828-.1210938-.0634766-.1171875-.1328125l.109375-1.7871094c.012455-.1768274.2588158-.1408453.25.015625l-.109375 1.7871094c-.0043946.0664062-.0595703.1171875-.125.1171875z" fill="#ffa96d"/></g><g><path d="m59.1916504 18.1704903c-.0073242 0-.0146484-.0009766-.0219727-.0019531-.0678711-.0117188-.1132813-.0771484-.1010742-.1445313l.2875977-1.6142578c.0274925-.1603756.2758141-.1210861.2460938.0429688l-.2875977 1.6142578c-.0107422.0605468-.0634766.1035156-.1230469.1035156z" fill="#ffa96d"/></g><g><path d="m59.713623 18.4117012.5288086-1.4960938c.0224609-.0644531.0932617-.0996094.1591797-.0761719.0654297.0234375.0991211.0947266.0761719.1601563l-.5288086 1.4960938c-.0551147.1549129-.290451.0731125-.2353516-.0839844z" fill="#ffa96d"/></g><g><path d="m47.7663574 28.4995918-.7504883-1.0361328c-.0973701-.1337376.1056786-.2813091.2021484-.1464844l.7504883 1.0361328c.0405273.0556641.0283203.1337891-.027832.1748047-.0558967.0397492-.1339721.028162-.1743164-.0283203z" fill="#ffa96d"/></g><g><path d="m35.2849121 28.9624825c-.0151367 0-.0302734-.0029297-.0454102-.0087891-.0644531-.0244141-.0961914-.0976563-.0712891-.1611328l.5820313-1.4970703c.0594788-.1532707.2931404-.0647793.2333984.0898438l-.5820313 1.4970703c-.0195311.0498046-.0668944.0800781-.1166991.0800781z" fill="#ffa96d"/></g><g><path d="m42.6481934 14.1011534c-.0141602 0-.0283203-.0019531-.0424805-.0078125-.0649414-.0234375-.0986328-.0947266-.0751953-.1601563.2006836-.5537109.7734375-.9589844 1.3623047-.9628906h.0092773c.5859375 0 1.1591797.3955078 1.3662109.9443359.0239258.0644531-.0083008.1367188-.0732422.1611328-.0629883.0205078-.137207-.0097656-.1611328-.0732422-.1713867-.4541016-.6464844-.7822266-1.1313477-.7822266-.0029297 0-.0053711 0-.0078125 0-.4882813.0039063-.9628906.3388672-1.1289063.7988281-.0185545.0507814-.0664061.0820314-.1176756.0820314z" fill="#451326"/></g><g><path d="m37.036377 14.6636534c-.0161133 0-.0327148-.0029297-.0488281-.0097656-.0634766-.0273438-.0932617-.1005859-.0664063-.1640625.2124023-.5019531.6757813-.8808594 1.2094727-.9882813.5341797-.1113281 1.1074219.0605469 1.4990234.4404297.0493164.0488281.050293.1279297.0024414.1767578-.0478516.0507813-.1269531.0517578-.1772461.0029297-.3320313-.3232422-.8193359-.4628906-1.2744141-.3759766-.4541016.0927734-.8486328.4150391-1.0288086.8417969-.0205078.0478516-.0664062.0761719-.1152343.0761719z" fill="#451326"/></g><g><path d="m42.7634277 13.7427549c-.015625 0-.03125-.0029297-.046875-.0087891l-.7915039-.3212891c-.0639648-.0263672-.0947266-.0996094-.0688477-.1630859.0253906-.0644531.0986328-.0927734.1625977-.0693359l.7915039.3212891c.0639648.0263672.0947266.0986328.0688477.1630859-.0195313.0488282-.0664063.078125-.1157227.078125z" fill="#451326"/></g><g><path d="m43.7023926 13.1597471c-.0087891 0-.0180664-.0009766-.0273438-.0029297-.0673828-.0146484-.1098633-.0820313-.0947266-.1494141l.1601563-.7138672c.0151367-.0673828.0800552-.1113281.1494141-.0947266.0673828.0146484.1098633.0820313.0947266.1494141l-.1601563.7138672c-.0131836.0576173-.0649414.0976563-.1220703.0976563z" fill="#451326"/></g><g><path d="m44.8596191 13.5581846c-.0307617 0-.0610352-.0107422-.0854492-.0332031-.050293-.0478516-.0532227-.1269531-.0058594-.1767578l.5551758-.5947266c.046875-.0507813.1259766-.0537109.1767578-.0068359.050293.0478516.0532227.1269531.0058594.1767578l-.5551758.5947266c-.024414.0263671-.0581054.040039-.0913086.040039z" fill="#451326"/></g><g><path d="m37.1271973 14.1128721c-.0234375 0-.046875-.0068359-.0678711-.0195313l-.5546875-.3564453c-.0581055-.0371094-.0751953-.1142578-.0380859-.1728516.0375977-.0576172.1157227-.0751953.1728516-.0380859l.5556641.3564453c.0576172.0380859.074707.1152344.0371094.1728516-.0239259.0371094-.063965.0576172-.1049806.0576172z" fill="#451326"/></g><g><path d="m38.1916504 13.6363096c-.0029297 0-.0053711 0-.0083008 0-.0688477-.0048828-.1210938-.0644531-.1162109-.1337891l.0351563-.515625c.0043945-.0683594.0722656-.1074219.1328125-.1162109.0688477.0048828.1210938.0644531.1162109.1337891l-.0351563.515625c-.0043945.0654297-.059082.1162109-.1245117.1162109z" fill="#451326"/></g><g><path d="m39.1394043 13.7505674c-.0214844 0-.0429688-.0048828-.0625-.0166016-.0595703-.0341797-.0800781-.1113281-.0458984-.1708984l.3193359-.5546875c.0351563-.0605469.1113281-.0820313.1708984-.0458984.0595703.0341797.0800781.1113281.0458984.1708984l-.3193359.5546875c-.0234375.0400391-.0654297.0625-.1083984.0625z" fill="#451326"/></g><g><path d="m44.6003418 30.1079903c-1.3666573-.1162262-2.0242462-2.0466442-.2319336-3.5019531.0532227-.0449219.1318359-.0361328.1757813.0175781.043457.0537109.0351563.1328125-.0185547.1757813-1.5973701 1.297966-1.0598907 2.9637089.0952148 3.0585938.5068359.0478516 1.0224609-.2783203 1.2260742-.7626953.4400406-1.044014-.6876411-2.444315-1.5004883-1.4189453-.1826172.2304688-.2768555.5-.2651367.7568359.0297737.6389885.6863289.9517021 1.0742188.6201172.2873535-.2454319.2157898-.7823849-.2250977-.7958984-.0043945 0-.0087891 0-.0131836 0-.1113281 0-.2099609.0410156-.2724609.1132813-.043457.0537109-.1230469.0605469-.1757813.0136719-.2470016-.2104092.5719299-.6533585.9731445-.1298828.2211914.2900391.1640625.7431641-.1245117.9882813-.2641602.2255859-.6835938.2519531-.9956055.0625-.543457-.3270035-.6863785-1.1337852-.171875-1.7832031.9917374-1.2518291 2.4859238.3453426 1.9272461 1.6708984-.2452735.5822045-.8673476.9644734-1.4770507.9150388z" fill="#c50241"/></g><g><path d="m39.4064941 31.0601387c-1.4366798 0-2.1885376-2.0051651-.340332-3.5058594.1259842-.1063366.2871857.0893917.1572266.1933594-1.6273766 1.3223457-1.0397301 2.9653664.0952148 3.0585938.5048828.0458984 1.0224609-.2783203 1.2260742-.7626953.3564339-.8456516-.2871819-1.7783203-.8681641-1.7783203-.0009766 0-.0014648 0-.0019531 0-.4823837 0-.9190636.6102791-.8950195 1.1162109.0290222.6477833.6936607.9455967 1.0737305.6201172.2858467-.2441444.215889-.7824192-.2255859-.7958984-.1206055-.0146484-.2202148.0380859-.2851563.1132813-.1044121.1276169-.2980423-.0369968-.1894531-.1621094.1132813-.1328125.2822266-.2080078.4819336-.2011719.6659813.0193024.8476639.8384285.3803711 1.2353516-.5524483.4706039-1.4479141.045681-1.4858398-.7978516-.0297699-.6450672.5142975-1.3779297 1.1445313-1.3779297h.0029297c.7752419 0 1.5172768 1.1315174 1.0981445 2.1259766-.2299806.5458983-.7934571.9189452-1.3686525.9189452z" fill="#c50241"/></g><g><path d="m44.4445648 15.7433224c.0720901.7945576-.1283531 1.6349087-.5207939 2.3496304-.2645264.500248-.621479.937439-1.0463524 1.2545853-.8977585.6696301-2.0974693.8459435-3.1382294.4756355 0 0-.0078583-.0071182-.0072289.0005894-.1495247-.0504513-.2924309-.1094894-.4294586-.1846199-1.1386261-.5898323-1.7180367-1.9001331-1.8208122-3.2493114.3147545.1155224.6354713.2149448.9615097.290369 1.637413.3764324 3.3634491.2356396 4.9182091-.4011765.3732491-.1481744.7366791-.3269673 1.0831566-.5357018z" fill="#451326"/></g><g><path d="m43.3614082 16.2790241c.0128784.3363285.0264473.6805515.0327415 1.0253677-1.4226494.8300781-3.104763.9751415-4.6756554.5225887-.0895805-.3850574-.1784821-.7623138-.2752953-1.14678 1.6374132.3764325 3.3634493.2356396 4.9182092-.4011764z" fill="#fff"/></g><g><path d="m43.9237709 18.0929527c-.2645264.500248-.621479.937439-1.0463524 1.2545853-.8977585.6696301-2.0974693.8459435-3.1382294.4756355.012558-.0244942.0191498-.0328865.0329285-.0418644.7165794-.662611 1.5446701-1.2952347 2.4572296-1.605032.5380669-.177328 1.1387749-.2107143 1.6944237-.0833244z" fill="#ff8fb8"/></g><g><path d="m33.1031799 45.6567497c-4.7021751 5.2856407-6.7495823 14.1851654-12.7515392 17.7881393 3.3907375-1.4595642 6.3702602-4.2240372 8.3768787-7.7722626 2.0567627-3.636898 3.0768242-7.9845886 5.7720032-11.127327 1.5806198-1.8430939 2.3418694-1.7302399 2.9216499-2.3469887-1.5681381.5814172-3.1412887 2.1345979-4.3189926 3.458439z" fill="#049e5c"/></g><g><path d="m39.6042938 47.4091873c.5860634-2.3399467 1.6368675-4.696331 3.4664803-5.8230209-3.5949593 3.199276-2.9405403 9.693882-4.7331085 14.1349144-.8124695 2.0128708-2.1451378 3.7202377-3.7597809 4.8672905-.2116013.150322-.9599838.8016434-1.1772652.5473824-.2247086-.2629547.6692543-.7846718.8442917-.9384766.7795372-.6849823 1.4845581-1.488884 2.0934982-2.3836937 2.3712769-3.484478 2.3568459-6.7749138 3.2658844-10.4043961z" fill="#049e5c"/></g><g><path d="m49.7707558 43.5614929c.4989738 1.616703 1.4101791 3.0600357 1.8195534 4.7446175.4013977 1.6517677.5966415 3.3530579.5899506 5.0526161-.0115891 2.945034-.5064201 7.3968697-2.4844856 9.7340813-.8221779-.6622581.4561996-3.2392044.6568146-4.1373444.3748093-1.678009.6054268-3.3878784.6908379-5.1050644.1725233-3.4686394-.2480585-6.9690933-1.2726709-10.2889061z" fill="#049e5c"/></g><g><path d="m50.1585808 40.4165573c4.2239418 2.8915939 6.7893486 8.1361313 5.8849602 13.7314224-.1819763 1.1258774-.428936 3.2389908-1.5660553 3.8203468-.0251045-1.4096985.4845886-2.9777031.5007782-4.4613953.0518684-4.753559-1.6300774-9.5508727-4.8196831-13.0903739z" fill="#049e5c"/></g><g><path d="m56.7372131 46.4263306c.759903 2.5177841 2.0363808 5.540638.8686523 8.1892929.0158006-2.8058014-.0460433-5.4637337-.8686523-8.1892929z" fill="#049e5c"/></g><g><path d="m30.5246582 59.4644356c3.3950195-2.4208984 5.6181641-6.5117188 5.8017578-10.6777344.0086212-.1724052.2567978-.1491356.25.0117188-.1870117 4.2402344-2.4501953 8.4052734-5.90625 10.8691406-.1346493.0957489-.2800979-.1071549-.1455078-.203125z" fill="#068249"/></g><g><path d="m37.2697754 61.8745918c3.2597656-3.9414063 4.7080078-9.3076172 3.8735352-14.3544922-.0272026-.1655884.2199516-.1992073.2470703-.0410156.8457031 5.1171875-.6225586 10.5585938-3.9282227 14.5556641-.1052475.126297-.2977791-.0313416-.1923828-.1601563z" fill="#068249"/></g><g><path d="m47.9118652 61.2173653c-.0229492 0-.0458984-.0058594-.0664063-.0185547-.0585938-.0371094-.0761719-.1142578-.0395508-.1728516 1.8422852-2.9462891 2.5668945-6.6005859 1.9882813-10.0263672-.028389-.1632462.2196312-.202095.2460938-.0410156.5893555 3.4853516-.1479492 7.203125-2.0224609 10.2001953-.0239258.038086-.0644532.0585938-.1059571.0585938z" fill="#068249"/></g><g><path d="m56.7468262 58.0240059c-.012207 0-.0244141-.0019531-.0366211-.0058594-.065918-.0195313-.1030273-.0898438-.0830078-.15625.4980469-1.6230469.6235352-3.3671875.362793-5.0449219-.0247345-.1574097.2208939-.2110901.2470703-.0390625.2666016 1.7158203.1381836 3.4990234-.3706055 5.1582031-.0166016.053711-.065918.0878907-.1196289.0878907z" fill="#068249"/></g><g opacity=".52"><path d="m53.0720215 47.3745918c-.4536133 0-.8642578-.3105469-.9726563-.7714844-.4799805-2.0410156-1.878418-3.8349609-3.7397461-4.7988281-.4907227-.2539063-.6826172-.8564453-.4287109-1.3476563.253418-.4892578.8574219-.6826172 1.3476563-.4277344 2.3735352 1.2275391 4.1557617 3.5146484 4.7680664 6.1171875.1476402.6270333-.3289071 1.2285157-.9746094 1.2285157z" fill="#fff"/></g><g><path d="m42.9191895 38.2456856c-.0024414 0-.0048828 0-.0078125 0-.1637917-.0023232-.1626167-.25.0019531-.25h.0058594c.3988647 0 .6203232-.6882782.0698242-.7890625-.1450195-.0244141-.2802734.0117188-.3652344.1015625-.1105385.119751-.2968254-.0507545-.1816406-.171875.1425781-.1503906.3666992-.2158203.5913086-.1757813.4838791.08741.6897163.5770836.4150391.9833984-.1269532.1894532-.3247071.3017579-.5292969.3017579z" fill="#f78c4c"/></g></g></svg>