<svg width="24" height="24" viewBox="0 0 24 24" fill="none" xmlns="http://www.w3.org/2000/svg">
<path d="M14.264 21.201L14.2604 22.0934C14.2591 22.5418 13.9656 22.9886 13.3804 23.3287C12.1902 24.0203 10.256 24.0203 9.058 23.3287C8.46138 22.9842 8.16278 22.5302 8.16407 22.0759L8.16763 21.1836C8.16636 21.6378 8.46496 22.0919 9.06158 22.4363C10.2596 23.128 12.1938 23.128 13.384 22.4363C13.9692 22.0963 14.2627 21.6494 14.264 21.201Z" fill="#9E6E46"/>
<path d="M13.3604 19.9363C14.5584 20.628 14.5647 21.7484 13.3843 22.4343C12.1941 23.126 10.2599 23.126 9.06191 22.4343C7.87383 21.7484 7.86755 20.628 9.05774 19.9364C10.2381 19.2504 12.1723 19.2504 13.3604 19.9363Z" fill="#B27E4B"/>
<path d="M12.0159 0.804688C6.83672 0.804688 2.63672 5.00469 2.63672 10.1839C2.63672 13.9807 4.90233 17.2639 8.16152 18.7327C9.33753 19.2703 10.6431 19.5679 12.0159 19.5679C13.3791 19.5679 14.6703 19.2751 15.8367 18.7519C19.1103 17.2879 21.3951 13.9951 21.3951 10.1839C21.3951 5.00469 17.1951 0.804688 12.0159 0.804688ZM19.2351 9.58868C19.1103 9.67508 18.7935 9.56946 18.7551 9.42066C18.6927 9.17108 18.4815 9.23349 18.3567 9.27667C18.1695 9.31988 18.3135 9.46388 18.3567 9.56946C18.3759 9.67508 18.3759 9.79027 18.3759 9.92469C18.2751 9.92469 18.1695 9.94388 18.0831 9.94388C17.8959 9.90066 17.7903 10.0063 17.8143 10.1839C17.8143 10.2991 17.8575 10.4143 17.8335 10.5007C17.7903 10.6111 17.6895 10.7791 17.6271 10.7791C17.4159 10.7263 17.2287 10.6639 17.0175 10.8031C16.9983 10.8031 16.9167 10.7167 16.8735 10.6639C16.7295 10.5727 16.5807 10.4671 16.3743 10.3231V10.6447C16.2687 10.5823 16.1199 10.4671 16.0815 10.4863C15.7743 10.7599 15.3807 10.4671 15.0639 10.6351V10.8031C14.9295 10.8655 14.8143 10.8943 14.7519 11.0095C14.6175 11.1151 14.5215 11.1775 14.3583 11.1775C14.1375 11.1247 13.7487 11.5231 13.6863 11.7295C13.6671 11.8351 13.5615 11.9695 13.4559 11.9839C12.9759 12.0847 12.4767 12.2527 12.0159 12.4831C11.8719 12.5647 11.7663 12.6943 11.8719 12.8815C11.9535 13.0495 12.0783 13.2127 12.1839 13.3807C12.2463 13.5055 12.3279 13.6543 12.3519 13.7791C12.3711 14.0095 12.4143 14.2159 12.5151 14.4031C12.5391 14.4703 12.5823 14.5327 12.6447 14.5951C12.6639 14.5951 12.6639 14.6143 12.6831 14.6143C12.7695 14.6767 12.8703 14.6959 12.9999 14.7295C13.0191 14.7295 13.0191 14.7583 13.0383 14.7583C13.1631 14.8015 13.3119 14.8639 13.4175 14.9503C13.4799 14.9887 13.5423 15.0943 13.5183 15.1567C13.4799 15.3871 13.6479 15.4927 13.7727 15.6079C13.8255 15.6703 13.9071 15.7231 13.9359 15.7855C13.9791 15.9007 14.0415 15.9823 14.1279 16.0639C14.2191 16.1503 14.3583 16.2127 14.5215 16.2031H14.5839C14.5647 16.2943 14.5839 16.3807 14.6079 16.4431V16.4623C14.6463 16.6111 14.7615 16.6735 14.9823 16.6735C15.1599 16.6735 15.2943 16.7119 15.3087 16.9039H15.6111C15.5775 16.9663 15.5343 17.0047 15.5247 17.0287L12.5199 18.7711L12.2895 18.9055C11.1519 18.8527 10.0671 18.5983 9.07354 18.1711C8.08474 17.7487 7.17272 17.1631 6.38552 16.4431C6.38552 16.4335 6.36633 16.4335 6.36633 16.3999C6.13594 16.2031 5.92474 15.9823 5.72792 15.7519V15.7423C5.64633 15.6607 5.55993 15.5743 5.49753 15.4687C5.50714 15.4399 5.50714 15.4063 5.53113 15.3871C5.57912 15.3055 5.67513 15.2095 5.67513 15.1279C5.66552 14.7583 5.89594 14.4703 6.03993 14.1343C6.13594 13.8847 6.15513 13.6303 5.90552 13.4047C5.89594 13.3615 5.82393 13.2751 5.84312 13.2559C5.98714 12.9439 5.92474 12.5455 6.21753 12.3151C6.51993 12.0847 6.43834 11.8351 6.35191 11.5759C6.32312 11.4991 6.30393 11.4079 6.35191 11.3743C6.40474 11.3215 6.52954 11.2927 6.57272 11.3455C6.75032 11.4271 6.83672 11.3455 6.92792 11.2111C6.99032 11.1247 7.17753 11.0431 7.26393 11.0959C7.57594 11.2399 7.88792 11.2735 8.24312 11.2591C8.28633 11.2591 8.34873 11.2591 8.37272 11.2735C8.51672 11.4607 8.64152 11.3455 8.74714 11.2399C8.79032 11.1871 8.80954 11.1775 8.85272 11.1247C9.01594 10.9471 9.16474 10.7263 9.36152 10.6111C9.47672 10.5487 9.56312 10.4671 9.59191 10.3855L9.62552 10.3615C9.67834 10.2559 9.70714 10.1743 9.66393 10.0927C9.64474 10.0495 9.62552 10.0063 9.62552 9.96787C9.51032 9.69427 9.59191 9.42066 9.53912 9.15187C9.50071 8.85907 9.30873 8.54709 8.99672 8.39829C8.89113 8.33589 8.79032 8.21108 8.76633 8.08628C8.70393 7.79349 8.47353 7.62547 8.22393 7.58229C7.97432 7.51988 7.70071 7.48147 7.45113 7.41907H7.43191L6.99032 7.35187C6.86552 7.35187 6.72152 7.34229 6.59672 7.31349C6.49113 7.28946 6.32312 7.31349 6.24152 7.37589C6.20792 7.41907 6.24152 7.58229 6.24152 7.75027C5.98714 7.85589 5.72792 7.99988 5.41594 8.08628C5.32954 8.12946 5.19513 8.04307 5.09912 8.02388C4.99834 7.98066 4.86873 7.87508 4.78714 7.87508C4.41273 7.91829 4.05753 7.98066 3.67834 8.04307C3.61594 8.04307 3.55354 8.04307 3.49113 8.02388C3.53432 7.83667 3.57753 7.62547 3.61594 7.43829C4.13912 7.43829 4.18233 7.35187 4.41273 6.86229C4.49432 6.89589 4.58071 6.94868 4.65273 6.97748C4.53753 7.27027 4.53753 7.31349 4.84954 7.39508C5.01753 7.17427 5.13272 6.91508 5.32954 6.72787C5.50714 6.55027 5.74714 6.41589 5.97753 6.25748C5.98714 6.30066 6.01113 6.32946 6.04954 6.38229C5.82393 6.55027 5.61272 6.71829 5.41594 6.89589C5.43513 6.95829 5.47834 7.03988 5.49753 7.11187C5.66552 6.99667 5.84312 6.89589 6.01113 6.79988C6.09272 6.74709 6.20792 6.69427 6.24152 6.63187C6.46714 6.25748 6.75032 6.74709 6.99032 6.56946C7.01432 6.56946 7.09594 6.63187 7.15834 6.66547C7.32633 6.86229 7.51354 7.06388 7.70071 7.26066C7.76312 7.31349 7.86873 7.34228 7.95032 7.37589L8.26714 7.43829C8.34873 7.41907 8.41113 7.35187 8.51672 7.34229C8.70393 7.27027 8.79032 7.18868 8.70393 6.97748C8.70393 6.97748 8.70393 6.95829 8.70393 6.94868C8.68474 6.87187 8.68474 6.80946 8.70393 6.74709C8.70393 6.71829 8.70393 6.69427 8.68474 6.66547C8.68474 6.55027 8.59834 6.49748 8.47354 6.49748C8.30552 6.49748 8.11834 6.55027 7.97432 6.51667C7.86873 6.49748 7.74393 6.41589 7.72474 6.35349C7.72474 6.26709 7.78714 6.15187 7.86873 6.07027C7.91191 6.02709 7.99354 6.00787 8.11834 5.94547C7.82552 5.85907 7.59513 5.78709 7.30714 5.71508C7.63834 5.60946 7.95032 5.77748 8.18071 5.50388C8.09912 5.40307 8.03672 5.33589 7.95032 5.21108C8.07993 5.19187 8.16152 5.17268 8.26714 5.12946C8.28633 5.23508 8.26714 5.33589 8.30552 5.37907C8.43513 5.46547 8.57912 5.50388 8.70393 5.55667C8.74714 5.46547 8.80954 5.33589 8.76633 5.27349C8.68474 5.17268 8.53594 5.12946 8.43513 5.06709C8.41113 5.06709 8.39191 5.04787 8.37272 5.02388C8.39191 4.94229 8.41113 4.87988 8.43513 4.81748C8.34873 4.77427 8.24312 4.71187 8.16152 4.71187C8.05594 4.69268 7.84954 4.75508 7.82552 4.79349C7.82552 5.11027 7.51354 5.21108 7.36954 5.44147C7.26393 5.60946 7.15834 5.54709 7.03354 5.47508C6.86552 5.42229 6.69753 5.31667 6.52954 5.23508C6.59672 4.96147 6.55354 4.89907 6.24152 4.91829C6.28954 5.12946 6.17912 5.21108 5.97753 5.21108C5.66552 5.19187 5.36312 5.21108 5.04633 5.21108C5.04633 4.89907 4.93594 4.77427 4.68152 4.81748C4.80633 4.58709 4.95513 4.35667 5.12312 4.14547C5.21432 4.18868 5.32954 4.23187 5.49753 4.29427C5.36312 4.37589 5.30071 4.41907 5.24792 4.48147C5.55993 5.00469 5.64633 5.04787 6.04954 5.02388C6.09272 4.89907 6.15513 4.77427 6.20792 4.64946C6.24152 4.66868 6.26071 4.64946 6.28954 4.66868C6.40474 4.79349 6.57272 4.85589 6.72152 4.75508C6.80312 4.66868 6.88474 4.48147 6.86552 4.37589C6.84633 4.27027 6.67834 4.18868 6.57272 4.12628C6.35191 3.95829 6.12633 3.83349 5.89594 3.66547C5.80954 3.60307 5.72792 3.54066 5.64633 3.47829C5.66552 3.45907 5.67513 3.41589 5.69432 3.39667C5.87191 3.20469 6.04954 3.03187 6.21753 2.85427C6.24152 2.83027 6.24152 2.83027 6.26071 2.81108C6.32312 2.76787 6.36633 2.72469 6.43834 2.71508C6.52954 2.59988 6.63513 2.53748 6.75032 2.45589H6.75993C7.11513 2.20628 7.47032 2.00469 7.86873 1.80787C8.07993 1.71187 8.26714 1.63027 8.47354 1.54388H8.49753C8.76633 1.40946 9.03993 1.32787 9.33272 1.24147C9.53912 1.17907 9.75032 1.12628 9.95672 1.08787C10.6143 0.929463 11.3055 0.857481 12.0159 0.857481C14.0847 0.857481 16.0047 1.52469 17.5407 2.64307C17.5215 2.66229 17.5215 2.66229 17.5023 2.68628C17.5407 2.68628 17.5839 2.71508 17.6271 2.71508C17.7279 2.80147 17.8143 2.85427 17.8959 2.93589C17.5839 2.76787 17.2287 2.81108 16.8735 2.95508C16.6863 3.03187 16.4991 3.07988 16.3215 3.14229C16.1199 3.18547 15.8703 3.16628 15.8079 3.45907C15.8079 3.47829 15.7455 3.47829 15.7023 3.49748C15.5247 3.55988 15.3087 3.64628 15.1311 3.70868C15.2943 4.08307 15.5583 3.75187 15.7887 3.83349L15.4719 4.14547C15.4959 4.16946 15.5247 4.20787 15.5343 4.23187C15.7887 4.20787 16.0383 4.16946 16.2879 4.12628C16.5375 4.08307 16.7919 4.06388 17.0415 4.02066C17.1039 4.00147 17.1471 3.95829 17.1855 3.93907C17.1471 3.89589 17.1231 3.83349 17.0607 3.81427C16.8927 3.75187 16.7295 3.70868 16.5615 3.64628C16.5615 3.60307 16.5807 3.55988 16.5807 3.52147C16.7295 3.55988 16.8543 3.60307 17.0175 3.64628C16.9983 3.54066 16.9791 3.47829 16.9359 3.37268H17.6463C17.5839 3.47829 17.5407 3.54066 17.4783 3.66547C17.7087 3.68946 17.8959 3.70868 18.1455 3.75187C17.8959 3.85268 17.6655 3.93907 17.4591 4.02066V4.08307C17.6655 4.08307 17.8575 4.06388 18.1263 4.04469C18.1263 4.04469 18.1695 3.98229 18.2319 3.91508C18.2943 3.95829 18.3567 4.00147 18.4191 4.02066C18.6063 4.10709 18.7935 4.18868 18.9855 4.31349C18.9951 4.31349 19.0479 4.33748 19.0671 4.35667C19.1295 4.39988 19.1919 4.43829 19.1919 4.50066C19.2111 4.56307 19.1631 4.64946 19.0479 4.69268C18.7311 4.83667 18.3999 4.96147 18.0639 5.02388C17.9823 5.04787 17.8959 5.04787 17.8335 5.06709C17.6895 5.12946 17.5839 5.21108 17.5407 5.37907C17.5215 5.40307 17.5023 5.42229 17.5023 5.44147C17.4783 5.47508 17.3967 5.50388 17.3343 5.50388C17.3343 5.50388 17.3343 5.50388 17.3103 5.50388C17.2719 5.50388 17.2479 5.40307 17.2479 5.35988C17.2479 5.31667 17.2719 5.29748 17.2719 5.24469C17.2911 5.19187 17.2911 5.14868 17.3103 5.11027C17.2095 5.04787 17.0847 5.02388 17.0415 4.96147C16.9983 4.91829 17.0847 4.79349 17.1231 4.71187C17.2479 4.54388 17.1231 4.23187 16.8927 4.23187C16.6431 4.25108 16.3743 4.33748 16.1007 4.37589C16.0383 4.75508 15.9327 4.77427 15.5583 4.48147C15.5247 4.52469 15.4719 4.54388 15.4431 4.58709C15.3807 4.62547 15.3087 4.69268 15.2415 4.73108C14.9631 4.96147 14.6799 5.17268 14.4207 5.40307C14.4495 5.47508 14.5023 5.59027 14.5359 5.67187C14.3775 5.77748 14.2191 5.85907 14.0847 5.95508C14.1039 5.98388 14.1279 6.00787 14.1375 6.02709H14.8479C14.8383 6.00787 14.8383 5.98388 14.8143 5.95508C14.7855 5.92147 14.7615 5.86868 14.7519 5.83988C14.6799 5.72469 14.6463 5.64307 14.5647 5.52787C14.7519 5.60946 14.9007 5.69108 15.0447 5.72469C15.1503 5.78709 15.2223 5.82066 15.3087 5.85907C15.3567 5.82066 15.3903 5.77748 15.4431 5.75829C15.5343 5.67187 15.6399 5.67187 15.7887 5.77748C15.8511 5.82066 15.9231 5.86868 16.0047 5.95508C15.8511 5.92147 15.7743 5.86868 15.6927 5.86868C15.6207 5.86868 15.5247 5.92147 15.4959 5.94547C15.4959 5.95508 15.4959 5.98388 15.4719 6.00787C15.4095 6.20469 15.2415 6.18547 15.0783 6.18547C15.0159 6.18547 14.9823 6.25748 14.9007 6.31988C14.9631 6.32946 15.0159 6.35349 15.0639 6.38229C15.2223 6.43508 15.3279 6.48787 15.4095 6.49748H15.4431C15.6639 6.57907 15.6927 6.55027 15.7887 6.40147C16.0191 6.46388 16.3215 6.41589 16.2255 6.86229C16.6863 6.69427 16.6863 7.17427 16.8927 7.31349C16.9359 7.41907 16.9983 7.54388 17.0847 7.62547C17.1855 7.73108 17.3103 7.83667 17.4591 7.89907C17.6031 7.99988 17.6031 8.08628 17.5407 8.23027C17.4783 8.39829 17.4591 8.56628 17.4159 8.73427C17.4591 8.75349 17.5023 8.77268 17.5215 8.79667C17.6271 8.67187 17.7087 8.52307 17.7903 8.41748C17.8575 8.33589 17.9199 8.27349 17.9823 8.23027C18.3759 8.02388 18.7935 8.37907 19.1919 8.27349C19.2111 8.27349 19.2351 8.29268 19.2447 8.31667C19.6095 8.44147 19.5567 8.75349 19.5903 9.02709C19.6095 9.29589 19.4415 9.46388 19.2351 9.58868Z" fill="#84DBFF"/>
<path d="M3.49219 8.02535C3.55486 8.04626 3.61753 8.04626 3.68021 8.04626C4.05625 7.98359 4.41144 7.92091 4.78749 7.87915C4.87107 7.87915 4.99642 7.98359 5.10086 8.02535C5.1949 8.04626 5.3307 8.12984 5.41422 8.08802C5.72759 8.0045 5.98874 7.85824 6.2395 7.75374C6.2395 7.58663 6.20813 7.41952 6.2395 7.3777C6.32303 7.31502 6.4902 7.29417 6.59463 7.31502C6.71998 7.34639 6.86624 7.35685 6.99159 7.35685L7.4303 7.41952H7.45122C7.70191 7.4822 7.97352 7.52396 8.22421 7.58663C8.47491 7.62839 8.70475 7.79556 8.76743 8.08802C8.78834 8.21337 8.89278 8.33878 8.99721 8.40145C9.31064 8.54765 9.49866 8.86108 9.54043 9.15354C9.59264 9.42514 9.50912 9.69675 9.62401 9.96836C9.62401 10.0101 9.64486 10.0519 9.66577 10.0937C9.7076 10.1772 9.67623 10.2608 9.62401 10.3653L9.59264 10.3862C9.56134 10.4697 9.47775 10.5533 9.36286 10.616C9.16438 10.7309 9.01812 10.9503 8.85101 11.1279C8.80919 11.1801 8.78834 11.1905 8.74652 11.2427C8.64208 11.3472 8.51673 11.4621 8.37047 11.2741C8.34956 11.2637 8.28689 11.2637 8.24513 11.2637C7.88993 11.2741 7.57656 11.2427 7.26319 11.0965C7.17961 11.0443 6.99159 11.1279 6.92891 11.2114C6.83493 11.3472 6.75135 11.4308 6.57378 11.3472C6.53196 11.295 6.40661 11.3263 6.35439 11.3785C6.30218 11.4099 6.32303 11.5039 6.35439 11.577C6.43798 11.8382 6.5215 12.0889 6.21859 12.3187C5.92607 12.5485 5.98874 12.9455 5.84255 13.2588C5.82164 13.2797 5.89477 13.3633 5.90522 13.4051C6.15592 13.6349 6.135 13.8856 6.04103 14.1363C5.89477 14.4706 5.66492 14.7631 5.67538 15.1287C5.67538 15.2122 5.5814 15.3063 5.52918 15.3899C5.50827 15.4107 5.50827 15.4421 5.49781 15.4734C5.56048 15.5779 5.64407 15.6614 5.72759 15.745V15.7554C5.92607 15.9852 6.135 16.2046 6.36485 16.4031C6.36485 16.4345 6.3857 16.4345 6.3857 16.4449C7.97352 17.8864 10.021 18.8057 12.2877 18.9102L15.526 17.0298C15.5364 17.009 15.5783 16.9672 15.6096 16.9045H15.3067C15.2962 16.7165 15.1604 16.6747 14.9828 16.6747C14.7634 16.6747 14.6486 16.612 14.6067 16.4658V16.4449C14.5859 16.3822 14.565 16.2987 14.5859 16.2046H14.5232C14.356 16.2151 14.2202 16.1524 14.1263 16.0688C14.0427 15.9852 13.98 15.9017 13.9382 15.7867C13.9069 15.7241 13.8233 15.6719 13.7711 15.6092C13.6457 15.4943 13.4786 15.3899 13.5204 15.16C13.5413 15.0973 13.4786 14.9929 13.4159 14.9511C13.3114 14.8676 13.1652 14.8048 13.0398 14.7631C13.019 14.7631 13.019 14.7318 12.9981 14.7318C12.8727 14.7004 12.7683 14.6795 12.6847 14.6168C12.6638 14.6168 12.6638 14.5959 12.6429 14.5959C12.5803 14.5333 12.5384 14.4706 12.5175 14.4079C12.4131 14.2198 12.3713 14.011 12.3504 13.7811C12.3295 13.6558 12.246 13.5095 12.1833 13.3842C12.0788 13.2171 11.9535 13.0499 11.8699 12.8828C11.7654 12.6948 11.8699 12.5694 12.0161 12.4858C12.4758 12.256 12.9772 12.0889 13.4577 11.9844C13.5621 11.974 13.6666 11.8382 13.6875 11.7337C13.7502 11.5248 14.1367 11.1279 14.356 11.1801C14.5232 11.1801 14.6172 11.1174 14.753 11.013C14.8157 10.898 14.9306 10.8667 15.0664 10.804V10.6369C15.3798 10.4697 15.7767 10.7622 16.0797 10.4907C16.1214 10.4697 16.2677 10.5846 16.3721 10.6473V10.3235C16.581 10.4697 16.7273 10.5742 16.8736 10.6682C16.9153 10.7204 16.9989 10.804 17.0198 10.804C17.2287 10.6682 17.4167 10.7309 17.6257 10.7831C17.6883 10.7831 17.7928 10.616 17.8346 10.5011C17.8555 10.4175 17.8137 10.3026 17.8137 10.1877C17.7928 10.0101 17.8973 9.90569 18.0853 9.94745C18.1689 9.94745 18.2733 9.92653 18.3778 9.92653C18.3778 9.79073 18.3778 9.67584 18.3569 9.5714C18.3151 9.46691 18.1689 9.32065 18.3569 9.27888C18.4822 9.23712 18.6912 9.17445 18.7538 9.42514C18.7956 9.5714 19.109 9.67584 19.2344 9.59225C19.4433 9.46691 19.6104 9.2998 19.5895 9.02819C19.5582 8.75658 19.6104 8.44321 19.2448 8.31787C19.2344 8.29695 19.2135 8.27604 19.1926 8.27604C18.7956 8.38054 18.3778 8.02535 17.9808 8.23428C17.9182 8.27604 17.8555 8.33878 17.7928 8.4223C17.7092 8.5268 17.6257 8.673 17.5212 8.79834C17.5003 8.7775 17.4585 8.75658 17.4167 8.73567C17.4585 8.56856 17.4794 8.40145 17.5421 8.23428C17.6048 8.08802 17.6048 8.0045 17.4585 7.9C17.3123 7.83733 17.1869 7.73289 17.0825 7.62839C16.9989 7.54487 16.9362 7.41952 16.8944 7.31502C16.6855 7.17922 16.6855 6.69874 16.2259 6.86585C16.3199 6.41668 16.017 6.4689 15.7871 6.40622C15.6932 6.55248 15.6618 6.58379 15.4425 6.50026H15.4111C15.3275 6.48981 15.2231 6.43759 15.0664 6.38531C15.0141 6.354 14.9619 6.33309 14.8993 6.32264C14.9828 6.25996 15.0141 6.18683 15.0768 6.18683C15.244 6.18683 15.4111 6.20775 15.4738 6.00927C15.4947 5.98842 15.4947 5.95705 15.4947 5.94659C15.526 5.92568 15.62 5.87346 15.6932 5.87346C15.7767 5.87346 15.8498 5.92568 16.0065 5.95705C15.9229 5.87346 15.8498 5.82125 15.7871 5.77949C15.6409 5.67499 15.5364 5.67499 15.4425 5.75857C15.3902 5.77949 15.3589 5.82125 15.3067 5.86301C15.2231 5.82125 15.1499 5.78994 15.0455 5.72727C14.8993 5.6959 14.753 5.61231 14.565 5.52879C14.6486 5.64368 14.6799 5.72727 14.753 5.84216C14.7634 5.87346 14.7844 5.92568 14.8157 5.95705C14.8366 5.98842 14.8366 6.00927 14.847 6.03018H14.1367C14.1263 6.00927 14.1053 5.98842 14.0844 5.95705C14.2202 5.86301 14.3769 5.77949 14.5337 5.67499C14.5023 5.59146 14.4501 5.47651 14.4187 5.40338C14.6799 5.1736 14.9619 4.96466 15.244 4.73488C15.3067 4.69306 15.3798 4.63038 15.4425 4.58862C15.4738 4.54686 15.526 4.52595 15.5574 4.48419C15.9334 4.77664 16.0379 4.75573 16.1006 4.37969C16.3721 4.33793 16.6437 4.25434 16.8944 4.23343C17.1243 4.23343 17.2496 4.54686 17.1243 4.71397C17.0825 4.79755 16.9989 4.9229 17.0407 4.96466C17.0825 5.02734 17.2079 5.04825 17.3123 5.11092C17.2914 5.15268 17.2914 5.19451 17.2705 5.24673C17.2705 5.29894 17.2496 5.31986 17.2496 5.36162C17.2496 5.40338 17.2705 5.50788 17.3123 5.50788H17.3332C17.3959 5.50788 17.4794 5.47651 17.5003 5.4452C17.5003 5.42429 17.5212 5.40338 17.5421 5.38253C17.5839 5.21536 17.6883 5.13184 17.8346 5.06916C17.8973 5.04825 17.9808 5.04825 18.0644 5.02734C18.3987 4.96466 18.7329 4.83932 19.0463 4.69306C19.1613 4.65129 19.2135 4.56771 19.1926 4.50503C19.1926 4.44236 19.1299 4.4006 19.0672 4.35877C19.0463 4.33793 18.9941 4.31701 18.9836 4.31701C18.7956 4.19167 18.6076 4.10808 18.4196 4.02456C18.3569 4.00364 18.2942 3.96188 18.2315 3.92006C18.1689 3.98273 18.1271 4.04541 18.1271 4.04541C17.8555 4.06632 17.6675 4.08723 17.4585 4.08723V4.02456C17.6675 3.94097 17.8973 3.85738 18.148 3.75295C17.8973 3.71112 17.7092 3.69028 17.4794 3.66936C17.5421 3.54402 17.5839 3.48134 17.6466 3.37691H16.9362C16.978 3.48134 16.9989 3.54402 17.0198 3.64845C16.8527 3.60669 16.7273 3.56493 16.581 3.5231C16.581 3.56493 16.5602 3.60669 16.5602 3.64845C16.7273 3.71112 16.8944 3.75295 17.0616 3.81562C17.1243 3.83647 17.1452 3.89921 17.1869 3.94097C17.1452 3.96188 17.1034 4.00364 17.0407 4.02456C16.79 4.06632 16.5393 4.08723 16.2886 4.12899C16.0379 4.17075 15.7871 4.21258 15.5364 4.23343C15.526 4.21258 15.4947 4.17075 15.4738 4.1499L15.7871 3.83647C15.5574 3.75295 15.2962 4.08723 15.129 3.71112C15.3067 3.64845 15.526 3.56493 15.7036 3.50225C15.7454 3.48134 15.8081 3.48134 15.8081 3.46043C15.8707 3.16797 16.1214 3.18882 16.3199 3.14706C16.4975 3.08439 16.6855 3.03217 16.8736 2.95904C17.2287 2.81278 17.5839 2.77102 17.8973 2.93813C17.8137 2.85461 17.7302 2.80232 17.6257 2.7188C17.5839 2.7188 17.5421 2.68743 17.5003 2.68743C17.5212 2.66652 17.5212 2.66652 17.5421 2.64567C16.0065 1.52794 14.0844 0.859375 12.0161 0.859375C11.3058 0.859375 10.6164 0.932505 9.95829 1.08922C9.74936 1.13098 9.54043 1.1832 9.33149 1.24587C9.03904 1.32946 8.76743 1.41305 8.49582 1.54885C8.49582 1.54885 8.49582 1.54885 8.47491 1.54885C8.26604 1.63237 8.07795 1.71596 7.86908 1.81C7.47213 2.00841 7.11693 2.20689 6.7618 2.45765H6.75135C6.63646 2.54117 6.53196 2.60385 6.43798 2.7188C6.36485 2.72919 6.32303 2.77102 6.26035 2.81278C6.2395 2.83369 6.2395 2.83369 6.21859 2.85461C6.05148 3.03217 5.87385 3.20974 5.69629 3.39776C5.67538 3.41867 5.66492 3.46043 5.64407 3.48134C5.72759 3.54402 5.81118 3.60669 5.89477 3.66936C6.12455 3.83647 6.35439 3.96188 6.57378 4.12899C6.67822 4.19167 6.84533 4.27525 6.86624 4.37969C6.88715 4.48419 6.80357 4.67221 6.71998 4.75573C6.57378 4.86023 6.40661 4.79755 6.29172 4.67221C6.26035 4.65129 6.2395 4.67221 6.20813 4.65129C6.15592 4.77664 6.09324 4.90199 6.05148 5.02734C5.64407 5.04825 5.56048 5.00649 5.24712 4.48419C5.29933 4.42151 5.36201 4.37969 5.49781 4.2961C5.3307 4.23343 5.21575 4.19167 5.12177 4.1499C4.9546 4.35877 4.8084 4.58862 4.68299 4.8184C4.93375 4.77664 5.04864 4.90199 5.04864 5.21536C5.36201 5.21536 5.66492 5.19451 5.97835 5.21536C6.17683 5.21536 6.29172 5.13184 6.2395 4.9229C6.55287 4.90199 6.59463 4.96466 6.53196 5.23627C6.69913 5.31986 6.86624 5.42429 7.03335 5.47651C7.15876 5.54964 7.26319 5.61231 7.36763 5.4452C7.51389 5.21536 7.82726 5.11092 7.82726 4.79755C7.84817 4.75573 8.0571 4.69306 8.16154 4.71397C8.24513 4.71397 8.34956 4.77664 8.43315 4.8184C8.41223 4.88108 8.39139 4.94381 8.37047 5.02734C8.39139 5.04825 8.41223 5.06916 8.43315 5.06916C8.53758 5.13184 8.68384 5.1736 8.76743 5.27803C8.80919 5.34071 8.74652 5.46612 8.70475 5.5601C8.57941 5.50788 8.43315 5.46612 8.3078 5.38253C8.26604 5.34071 8.28689 5.23627 8.26604 5.13184C8.16154 5.1736 8.07795 5.19451 7.95261 5.21536C8.03619 5.34071 8.09887 5.40338 8.18245 5.50788C7.95261 5.77949 7.63924 5.61231 7.30496 5.71681C7.59748 5.78994 7.82726 5.86301 8.11978 5.94659C7.99443 6.00927 7.91084 6.03018 7.86908 6.07194C7.7855 6.15553 7.72282 6.27042 7.72282 6.354C7.74374 6.41668 7.86908 6.50026 7.97352 6.52111C8.11978 6.55248 8.3078 6.50026 8.47491 6.50026C8.60026 6.50026 8.68384 6.55248 8.68384 6.66737C8.70475 6.69874 8.70475 6.71959 8.70475 6.75096C8.68384 6.81363 8.68384 6.87631 8.70475 6.94944V6.98074C8.78834 7.18968 8.70475 7.27326 8.51673 7.34639C8.41223 7.35685 8.34956 7.41952 8.26604 7.44037L7.95261 7.3777C7.86908 7.34639 7.76458 7.31502 7.70191 7.26281C7.51389 7.06433 7.32587 6.86585 7.15876 6.66737C7.09609 6.63607 7.0125 6.57339 6.99159 6.57339C6.75135 6.75096 6.46928 6.25996 6.2395 6.63607C6.20813 6.69874 6.09324 6.75096 6.00966 6.80318C5.84255 6.89722 5.66492 7.00165 5.49781 7.11655C5.4769 7.04342 5.43514 6.95989 5.41422 6.89722C5.6127 6.71959 5.82164 6.55248 6.05148 6.38531C6.00966 6.33309 5.98874 6.30179 5.97835 6.25996C5.74851 6.41668 5.50827 6.55248 5.3307 6.73005C5.13222 6.91807 5.01727 7.17922 4.85016 7.39861C4.53679 7.31502 4.53679 7.27326 4.65168 6.98074C4.57855 6.94944 4.49497 6.89722 4.41144 6.86585C4.1816 7.35685 4.13984 7.44037 3.61753 7.44037C3.57571 7.62839 3.53395 7.83733 3.49219 8.02535Z" fill="#84DBFF"/>
<path d="M4.97077 16.3649V16.3857C5.17918 16.6148 5.38771 16.8443 5.61698 17.0527C5.63785 17.0527 5.63785 17.0736 5.65859 17.0736C7.13869 18.4495 9.07733 19.3457 11.2245 19.5126L12.2877 18.908L15.5187 17.0318L16.5819 16.4066L20.48 14.1551C21.5986 11.9181 21.5157 9.0548 21.1471 8.13063C21.1471 7.80528 20.6042 5.95847 19.3543 4.42027C19.3127 4.33681 19.271 4.27421 19.2084 4.21161C18.8123 3.7322 18.3746 3.31538 17.8952 2.94005C17.8117 2.85684 17.7284 2.79424 17.6242 2.71078C17.6033 2.68991 17.5825 2.66904 17.5407 2.64818C15.9982 1.52242 14.0804 0.855469 12.0167 0.855469C11.3078 0.855469 10.6199 0.938933 9.95282 1.08474C9.74441 1.12647 9.536 1.18907 9.32747 1.25167C9.03572 1.33514 8.76472 1.41835 8.49371 1.54329C8.49371 1.54329 8.49371 1.54329 8.47285 1.54329C8.26431 1.62675 8.07677 1.71022 7.86824 1.81455C7.47229 2.00209 7.11782 2.2105 6.76348 2.46064H6.74261C6.63841 2.54385 6.5342 2.60644 6.43 2.71078C6.3308 2.74384 5.55835 3.3266 4.97077 4.04494C4.92904 4.0658 4.90817 4.10728 4.86656 4.12815C4.76368 4.28247 3.18105 5.92724 2.76112 8.71438C2.29916 10.5566 2.7829 13.8956 4.97077 16.3649Z" fill="#2EBF69"/>
<path d="M16.206 14.5934C16.2478 14.927 16.3104 15.2397 16.3728 15.5525C16.4354 15.8443 16.5346 16.5543 16.5972 16.8465L20.4795 14.1557C21.084 12.9467 21.3967 11.6126 21.3967 10.1952V10.0909C21.3967 9.96568 21.3967 9.84048 21.3759 9.73641C21.355 9.44453 21.3341 9.17353 21.2924 8.90252C21.2091 8.96512 21.1257 9.02772 21.0423 9.06945C21.0215 9.06945 21.0215 9.04859 21.0007 9.02772C21.084 8.90252 21.1673 8.77758 21.2508 8.63177C21.2508 8.56917 21.2299 8.52744 21.2299 8.46484C21.1882 8.50658 21.1257 8.54831 21.084 8.59004C20.9589 8.71498 20.8547 8.81906 20.7713 8.94426C20.7297 8.96512 20.7088 9.00686 20.6879 9.02772C20.6671 9.04859 20.6255 9.06945 20.6046 9.09032V9.11119C20.4587 9.73641 19.8749 9.73641 19.4788 9.98655C19.4372 10.0074 19.3955 9.96568 19.3538 9.96568C19.2496 9.96568 19.1454 9.96568 19.0412 10.0074C18.8744 10.07 18.6867 10.1535 18.52 10.2576C18.3949 10.3202 18.2906 10.4242 18.1655 10.5286C17.978 10.6746 17.7695 10.8204 17.5819 10.9871H17.5193C17.3943 10.8413 17.2901 10.7996 17.165 11.008C17.0399 11.2581 17.0399 11.4457 17.2276 11.6543C17.2483 11.6752 17.2692 11.7169 17.2901 11.7378C17.4777 11.8419 17.5611 11.9668 17.4777 12.1963C17.4569 12.2381 17.5193 12.3213 17.5193 12.3839C17.5402 12.4671 17.5402 12.5505 17.4986 12.6131C17.3318 12.905 17.1441 13.2177 16.9566 13.5094C16.8731 13.6346 16.7689 13.7598 16.6438 13.8224C16.2269 14.0514 16.1436 14.1557 16.206 14.5934Z" fill="#84DBFF"/>
<path d="M16.8125 9.41617C17.1955 9.29941 17.5038 9.20543 17.7903 9.11806C17.5816 8.97924 17.2171 9.0641 16.8125 9.41617Z" fill="#748BFD"/>
<path d="M16.0078 9.68604C16.2244 9.66329 16.4019 9.64466 16.6043 9.62341C16.4021 9.37982 16.1601 9.39485 16.0078 9.68604Z" fill="#748BFD"/>
<path d="M3.49219 8.02535C3.55486 8.04626 3.61753 8.04626 3.68021 8.04626C4.05625 7.98359 4.41144 7.92091 4.78749 7.87915C4.87107 7.87915 4.99642 7.98359 5.10086 8.02535C5.1949 8.04626 5.3307 8.12984 5.41422 8.08802C5.72759 8.0045 5.98874 7.85824 6.2395 7.75374C6.2395 7.58663 6.20813 7.41952 6.2395 7.3777C6.32303 7.31502 6.4902 7.29417 6.59463 7.31502C6.71998 7.34639 6.86624 7.35685 6.99159 7.35685L7.4303 7.41952H7.45122C7.70191 7.4822 7.97352 7.52396 8.22421 7.58663C8.47491 7.62839 8.70475 7.79556 8.76743 8.08802C8.78834 8.21337 8.89278 8.33878 8.99721 8.40145C9.31064 8.54765 9.49866 8.86108 9.54043 9.15354C9.59264 9.42514 9.50912 9.69675 9.62401 9.96836C9.62401 10.0101 9.64486 10.0519 9.66577 10.0937C9.7076 10.1772 9.67623 10.2608 9.62401 10.3652L9.59264 10.3862C9.56134 10.4697 9.47775 10.5533 9.36286 10.616C9.16438 10.7309 9.01812 10.9503 8.85101 11.1279C8.80919 11.1801 8.78834 11.1905 8.74652 11.2427C8.64208 11.3472 8.51673 11.4621 8.37047 11.2741C8.34956 11.2637 8.28689 11.2637 8.24513 11.2637C7.88993 11.2741 7.57656 11.2427 7.26319 11.0965C7.17961 11.0443 6.99159 11.1279 6.92891 11.2114C6.83493 11.3472 6.75135 11.4308 6.57378 11.3472C6.53196 11.295 6.40661 11.3263 6.35439 11.3785C6.30218 11.4099 6.32303 11.5039 6.35439 11.577C6.43798 11.8382 6.5215 12.0889 6.21859 12.3187C5.92607 12.5485 5.98874 12.9455 5.84255 13.2588C5.82164 13.2797 5.89477 13.3633 5.90522 13.4051C6.15592 13.6349 6.135 13.8856 6.04103 14.1363C5.89477 14.4706 5.66492 14.7631 5.67538 15.1287C5.67538 15.2122 5.5814 15.3063 5.52918 15.3899C5.50827 15.4107 5.50827 15.4421 5.49781 15.4734C5.56048 15.5779 5.64407 15.6614 5.72759 15.745V15.7554C5.92607 15.9852 6.135 16.2046 6.36485 16.4031C6.36485 16.4345 6.3857 16.4345 6.3857 16.4449C7.97352 17.8864 10.3958 18.8763 12.6626 18.9808L15.7728 17.3968C15.7832 17.376 15.5783 16.9672 15.6096 16.9045H15.3067C15.2962 16.7165 15.1604 16.6747 14.9828 16.6747C14.7634 16.6747 14.6486 16.612 14.6067 16.4658V16.4449C14.5859 16.3822 14.565 16.2987 14.5859 16.2046H14.5232C14.356 16.2151 14.2202 16.1524 14.1263 16.0688C14.0427 15.9852 13.98 15.9017 13.9382 15.7867C13.9069 15.7241 13.8233 15.6719 13.7711 15.6092C13.6457 15.4943 13.4786 15.3899 13.5204 15.16C13.5413 15.0973 13.4786 14.9929 13.4159 14.9511C13.3114 14.8676 13.1652 14.8048 13.0398 14.7631C13.019 14.7631 13.019 14.7318 12.9981 14.7318C12.8727 14.7004 12.7683 14.6795 12.6847 14.6168C12.6638 14.6168 12.6638 14.5959 12.6429 14.5959C12.5803 14.5333 12.5384 14.4706 12.5175 14.4079C12.4131 14.2198 12.3713 14.011 12.3504 13.7811C12.3295 13.6558 12.246 13.5095 12.1833 13.3842C12.0788 13.2171 11.9535 13.0499 11.8699 12.8828C11.7654 12.6948 11.8699 12.5694 12.0161 12.4858C12.4758 12.256 12.9772 12.0889 13.4577 11.9844C13.5621 11.974 13.6666 11.8382 13.6875 11.7337C13.7502 11.5248 14.1367 11.1279 14.356 11.1801C14.5232 11.1801 14.6172 11.1174 14.753 11.013C14.8157 10.898 14.9306 10.8667 15.0664 10.804V10.6369C15.3798 10.4697 15.7767 10.7622 16.0797 10.4907C16.1214 10.4697 16.2677 10.5846 16.3721 10.6473V10.3235C16.581 10.4697 16.7273 10.5742 16.8736 10.6682C16.9153 10.7204 16.9989 10.804 17.0198 10.804C17.2287 10.6682 17.4167 10.7309 17.6257 10.7831C17.6883 10.7831 17.7928 10.616 17.8346 10.5011C17.8555 10.4175 17.8137 10.3026 17.8137 10.1877C17.7928 10.0101 17.8973 9.90569 18.0853 9.94745C18.1689 9.94745 18.2733 9.92653 18.3778 9.92653C18.3778 9.79073 18.3778 9.67584 18.3569 9.5714C18.3151 9.46691 18.1689 9.32065 18.3569 9.27888C18.4822 9.23712 18.6912 9.17445 18.7538 9.42514C18.7956 9.5714 19.109 9.67584 19.2344 9.59225C19.4433 9.46691 19.6104 9.2998 19.5895 9.02819C19.5582 8.75658 19.6104 8.44321 19.2448 8.31787C19.2344 8.29695 19.2135 8.27604 19.1926 8.27604C18.7956 8.38054 18.3778 8.02535 17.9808 8.23428C17.9182 8.27604 17.8555 8.33878 17.7928 8.4223C17.7092 8.5268 17.6257 8.673 17.5212 8.79834C17.5003 8.77749 17.4585 8.75658 17.4167 8.73567C17.4585 8.56856 17.4794 8.40145 17.5421 8.23428C17.6048 8.08802 17.6048 8.0045 17.4585 7.9C17.3123 7.83733 17.1869 7.73289 17.0825 7.62839C16.9989 7.54487 16.9362 7.41952 16.8944 7.31502C16.6855 7.17922 16.6855 6.69874 16.2259 6.86585C16.3199 6.41668 16.017 6.4689 15.7871 6.40622C15.6932 6.55248 15.6618 6.58379 15.4425 6.50026H15.4111C15.3275 6.48981 15.2231 6.43759 15.0664 6.38531C15.0141 6.354 14.9619 6.33309 14.8993 6.32264C14.9828 6.25996 15.0141 6.18683 15.0768 6.18683C15.244 6.18683 15.4111 6.20774 15.4738 6.00927C15.4947 5.98842 15.4947 5.95705 15.4947 5.94659C15.526 5.92568 15.62 5.87346 15.6932 5.87346C15.7767 5.87346 15.8498 5.92568 16.0065 5.95705C15.9229 5.87346 15.8498 5.82125 15.7871 5.77948C15.6409 5.67499 15.5364 5.67499 15.4425 5.75857C15.3902 5.77948 15.3589 5.82125 15.3067 5.86301C15.2231 5.82125 15.1499 5.78994 15.0455 5.72727C14.8993 5.6959 14.753 5.61231 14.565 5.52879C14.6486 5.64368 14.6799 5.72727 14.753 5.84216C14.7634 5.87346 14.7844 5.92568 14.8157 5.95705C14.8366 5.98842 14.8366 6.00927 14.847 6.03018H14.1367C14.1263 6.00927 14.1053 5.98842 14.0844 5.95705C14.2202 5.86301 14.3769 5.77948 14.5337 5.67499C14.5023 5.59146 14.4501 5.47651 14.4187 5.40338C14.6799 5.1736 14.9619 4.96466 15.244 4.73488C15.3067 4.69306 15.3798 4.63038 15.4425 4.58862C15.4738 4.54686 15.526 4.52595 15.5574 4.48419C15.9334 4.77664 16.0379 4.75573 16.1006 4.37969C16.3721 4.33793 16.6437 4.25434 16.8944 4.23343C17.1243 4.23343 17.2496 4.54686 17.1243 4.71397C17.0825 4.79755 16.9989 4.9229 17.0407 4.96466C17.0825 5.02734 17.2079 5.04825 17.3123 5.11092C17.2914 5.15268 17.2914 5.19451 17.2705 5.24673C17.2705 5.29894 17.2496 5.31986 17.2496 5.36162C17.2496 5.40338 17.2705 5.50788 17.3123 5.50788H17.3332C17.3959 5.50788 17.4794 5.47651 17.5003 5.4452C17.5003 5.42429 17.5212 5.40338 17.5421 5.38253C17.5839 5.21536 17.6883 5.13183 17.8346 5.06916C17.8973 5.04825 17.9808 5.04825 18.0644 5.02734C18.3987 4.96466 18.7329 4.83932 19.0463 4.69306C19.1613 4.65129 19.2135 4.56771 19.1926 4.50503C19.1926 4.44236 19.1299 4.4006 19.0672 4.35877C19.0463 4.33793 18.9941 4.31701 18.9836 4.31701C18.7956 4.19167 18.6076 4.10808 18.4196 4.02456C18.3569 4.00364 18.2942 3.96188 18.2315 3.92006C18.1689 3.98273 18.1271 4.04541 18.1271 4.04541C17.8555 4.06632 17.6675 4.08723 17.4585 4.08723V4.02456C17.6675 3.94097 17.8973 3.85738 18.148 3.75295C17.8973 3.71112 17.7092 3.69028 17.4794 3.66936C17.5421 3.54402 17.5839 3.48134 17.6466 3.37691H16.9362C16.978 3.48134 16.9989 3.54402 17.0198 3.64845C16.8527 3.60669 16.7273 3.56493 16.581 3.5231C16.581 3.56493 16.5602 3.60669 16.5602 3.64845C16.7273 3.71112 16.8944 3.75295 17.0616 3.81562C17.1243 3.83647 17.1452 3.89921 17.1869 3.94097C17.1452 3.96188 17.1034 4.00364 17.0407 4.02456C16.79 4.06632 16.5393 4.08723 16.2886 4.12899C16.0379 4.17075 15.7871 4.21258 15.5364 4.23343C15.526 4.21258 15.4947 4.17075 15.4738 4.1499L15.7871 3.83647C15.5574 3.75295 15.2962 4.08723 15.129 3.71112C15.3067 3.64845 15.526 3.56493 15.7036 3.50225C15.7454 3.48134 15.8081 3.48134 15.8081 3.46043C15.8707 3.16797 16.1214 3.18882 16.3199 3.14706C16.4975 3.08439 16.6855 3.03217 16.8736 2.95904C17.2287 2.81278 17.5839 2.77102 17.8973 2.93813C17.8137 2.85461 17.7302 2.80232 17.6257 2.7188C17.5839 2.7188 17.5421 2.68743 17.5003 2.68743C17.5212 2.66652 17.5212 2.66652 17.5421 2.64567C16.0065 1.52794 14.0844 0.859375 12.0161 0.859375C11.3058 0.859375 10.6164 0.932505 9.95829 1.08922C9.74936 1.13098 9.54043 1.1832 9.33149 1.24587C9.03904 1.32946 8.76743 1.41305 8.49582 1.54885C8.49582 1.54885 8.49582 1.54885 8.47491 1.54885C8.26604 1.63237 8.07795 1.71596 7.86908 1.81C7.47213 2.00841 7.11693 2.20689 6.7618 2.45765H6.75135C6.63646 2.54117 6.53196 2.60385 6.43798 2.7188C6.36485 2.72919 6.32303 2.77102 6.26035 2.81278C6.2395 2.83369 6.2395 2.83369 6.21859 2.85461C6.05148 3.03217 5.87385 3.20973 5.69629 3.39776C5.67538 3.41867 5.66492 3.46043 5.64407 3.48134C5.72759 3.54402 5.81118 3.60669 5.89477 3.66936C6.12455 3.83647 6.35439 3.96188 6.57378 4.12899C6.67822 4.19167 6.84533 4.27525 6.86624 4.37969C6.88715 4.48419 6.80357 4.67221 6.71998 4.75573C6.57378 4.86023 6.40661 4.79755 6.29172 4.67221C6.26035 4.65129 6.2395 4.67221 6.20813 4.65129C6.15592 4.77664 6.09324 4.90199 6.05148 5.02734C5.64407 5.04825 5.56048 5.00649 5.24712 4.48419C5.29933 4.42151 5.36201 4.37969 5.49781 4.2961C5.3307 4.23343 5.21575 4.19167 5.12177 4.1499C4.9546 4.35877 4.8084 4.58862 4.68299 4.8184C4.93375 4.77664 5.04864 4.90199 5.04864 5.21536C5.36201 5.21536 5.66492 5.19451 5.97835 5.21536C6.17683 5.21536 6.29172 5.13183 6.2395 4.9229C6.55287 4.90199 6.59463 4.96466 6.53196 5.23627C6.69913 5.31986 6.86624 5.42429 7.03335 5.47651C7.15876 5.54964 7.26319 5.61231 7.36763 5.4452C7.51389 5.21536 7.82726 5.11092 7.82726 4.79755C7.84817 4.75573 8.0571 4.69306 8.16154 4.71397C8.24513 4.71397 8.34956 4.77664 8.43315 4.8184C8.41223 4.88108 8.39139 4.94381 8.37047 5.02734C8.39139 5.04825 8.41223 5.06916 8.43315 5.06916C8.53758 5.13183 8.68384 5.1736 8.76743 5.27803C8.80919 5.34071 8.74652 5.46612 8.70475 5.56009C8.57941 5.50788 8.43315 5.46612 8.3078 5.38253C8.26604 5.34071 8.28689 5.23627 8.26604 5.13183C8.16154 5.1736 8.07795 5.19451 7.95261 5.21536C8.03619 5.34071 8.09887 5.40338 8.18245 5.50788C7.95261 5.77948 7.63924 5.61231 7.30496 5.71681C7.59748 5.78994 7.82726 5.86301 8.11978 5.94659C7.99443 6.00927 7.91084 6.03018 7.86908 6.07194C7.7855 6.15553 7.72282 6.27042 7.72282 6.354C7.74374 6.41668 7.86908 6.50026 7.97352 6.52111C8.11978 6.55248 8.3078 6.50026 8.47491 6.50026C8.60026 6.50026 8.68384 6.55248 8.68384 6.66737C8.70475 6.69874 8.70475 6.71959 8.70475 6.75096C8.68384 6.81363 8.68384 6.87631 8.70475 6.94944V6.98074C8.78834 7.18968 8.70475 7.27326 8.51673 7.34639C8.41223 7.35685 8.34956 7.41952 8.26604 7.44037L7.95261 7.3777C7.86908 7.34639 7.76458 7.31502 7.70191 7.26281C7.51389 7.06433 7.32587 6.86585 7.15876 6.66737C7.09609 6.63607 7.0125 6.57339 6.99159 6.57339C6.75135 6.75096 6.46928 6.25996 6.2395 6.63607C6.20813 6.69874 6.09324 6.75096 6.00966 6.80318C5.84255 6.89722 5.66492 7.00165 5.49781 7.11655C5.4769 7.04342 5.43514 6.95989 5.41422 6.89722C5.6127 6.71959 5.82164 6.55248 6.05148 6.38531C6.00966 6.33309 5.98874 6.30179 5.97835 6.25996C5.74851 6.41668 5.50827 6.55248 5.3307 6.73005C5.13222 6.91807 5.01727 7.17922 4.85016 7.39861C4.53679 7.31502 4.53679 7.27326 4.65168 6.98074C4.57855 6.94944 4.49497 6.89722 4.41144 6.86585C4.1816 7.35685 4.13984 7.44037 3.61753 7.44037C3.57571 7.62839 3.53395 7.83733 3.49219 8.02535ZM9.22706 3.83647C9.36286 3.81562 9.44645 3.7738 9.54043 3.75295H10.2194C10.2717 3.75295 10.3239 3.79471 10.3866 3.79471C10.3656 3.83647 10.3552 3.89921 10.3239 3.94097C10.3239 3.96188 10.303 3.98273 10.303 3.98273L10.2926 4.00364C9.93738 4.17075 9.59264 4.1499 9.22706 3.83647ZM9.10171 1.55924C9.3524 1.44435 9.54043 1.46526 9.74936 1.61152C10.021 1.81 10.1359 1.75772 10.2194 1.44435C10.2717 1.24587 10.3239 1.01609 10.6059 1.01609C11.3058 1.0474 12.037 1.0474 12.7474 1.0474C13.0398 1.0474 13.3533 1.01609 13.5204 1.36076C13.604 1.29809 13.6666 1.23542 13.7293 1.21457C13.8964 1.58015 13.8964 1.55924 14.356 1.52794C14.5859 1.49657 14.9306 1.47572 15.0768 1.61152C15.2648 1.78909 15.5364 1.75772 15.7036 2.01887C15.8081 2.20689 16.1632 2.25917 16.393 2.35315C16.3199 2.40537 16.1841 2.45765 16.0797 2.54117C16.0379 2.56209 15.9752 2.583 15.9334 2.583C15.7454 2.56209 15.5574 2.54117 15.3902 2.52032C14.8366 2.49941 14.5023 2.68743 14.356 3.14706C14.2516 3.12615 14.1367 3.08439 14.0427 3.06348C14.1263 3.18882 14.2516 3.31417 14.2516 3.37691C14.168 3.60669 14.0009 3.83647 13.8756 4.04541C13.6875 4.37969 13.3114 4.4006 12.9981 4.50503C12.9772 4.52595 12.8936 4.46327 12.8518 4.42151C12.7474 4.31701 12.622 4.23343 12.6011 4.08723C12.4967 3.79471 12.2668 3.81562 12.037 3.79471C11.9325 3.7738 11.8281 3.73204 11.7237 3.69028C11.6192 3.64845 11.5147 3.58578 11.3894 3.56493C11.0134 3.5231 10.6164 3.41867 10.2926 3.23065C10.303 3.16797 10.3239 3.08439 10.3552 3.03217C10.3552 2.97995 10.3656 2.95904 10.3656 2.91728C10.303 2.89637 10.2403 2.87545 10.1881 2.87545C10.1568 2.87545 10.1568 2.87545 10.1359 2.87545C9.95829 2.85461 9.74936 2.54117 9.87471 2.40537C9.9896 2.25917 9.90601 2.17559 9.82249 2.092C9.66577 1.97711 9.49866 1.87267 9.3524 1.75772C9.26882 1.71596 9.20614 1.64283 9.10171 1.55924Z" fill="#84DBFF"/>
<path d="M12.2901 2.43703C12.2373 2.47063 12.1749 2.49463 12.1125 2.51385C11.8341 2.60982 11.4885 2.60024 11.2245 2.49463C11.1861 2.48024 11.1477 2.46102 11.1141 2.44183C10.7925 2.24982 10.7877 1.94745 11.1141 1.76024C11.1477 1.74102 11.1813 1.72183 11.2197 1.70745C11.4789 1.60183 11.8293 1.59223 12.1077 1.68343C12.1701 1.70265 12.2325 1.72664 12.2853 1.76024C12.6117 1.94745 12.6117 2.24982 12.2901 2.43703Z" fill="#2E9959"/>
<path d="M11.6716 18.3774L11.6812 20.7629C11.6812 21.0078 11.4796 21.2093 11.2348 21.2093C10.99 21.2093 10.7932 21.0126 10.7884 20.7678L10.7836 19.0926C8.91637 19.9278 7.16436 19.947 5.79637 19.131C4.25079 18.2141 3.39637 16.3517 3.38676 13.8893C3.37238 8.92136 6.88118 2.84457 11.2012 0.348566L11.4412 0.214152C11.5756 0.13256 11.7436 0.13256 11.8828 0.209347C12.022 0.290968 12.1036 0.434962 12.1036 0.593371L12.1084 1.68295L12.1132 2.51337C11.8348 2.60935 11.4892 2.59977 11.2252 2.49415L11.2204 1.70697V1.37577C7.34196 3.87175 4.26517 9.36295 4.27478 13.8893C4.28436 16.0254 4.98517 17.6141 6.25238 18.3678C7.49556 19.107 9.18998 18.9726 11.014 17.9886C11.1532 17.9166 11.3212 17.9166 11.4556 17.9982C11.59 18.075 11.6716 18.219 11.6716 18.3774Z" fill="#9E6E46"/>
<path d="M12.2734 18.0032C12.4921 18.5917 12.2962 19.1037 11.8414 19.568C11.1431 19.5279 10.4862 19.4779 10.0846 19.3664C9.58175 19.2823 8.96188 19.0587 8.30859 18.7952L10.5454 17.168L12.2734 18.0032Z" fill="#84DBFF"/>
<path d="M15.8354 18.7554C14.669 19.2786 13.3778 19.5714 12.0146 19.5714C10.6417 19.5714 9.33616 19.2738 8.16016 18.7362L9.07217 18.1746L9.10973 18.1484C10.9711 18.9719 13.1522 19.147 15.5858 18.7938C15.6722 18.7794 15.7538 18.765 15.8354 18.7554Z" fill="#2EBF69"/>
</svg>
