<svg id="Layer_1" enable-background="new 0 0 38 38" height="512" viewBox="0 0 38 38" width="512" xmlns="http://www.w3.org/2000/svg"><g id="Tissue_Roll"><g><g><g><g><g><path d="m16.3321075 32.2167282c-.0147305.6359978-.2064953 2.7630692-.2064953 2.7630692h-6.1513671c.1393347-.5990143.6180439-1.4476089.9096537-1.9284744.1364584-.2255287.2319908-.3698921.2319908-.3698921.1008396-.0691566 5.5242777-3.7885494 5.4234304-3.7194042.6018848 1.4874724-.1892567 2.4894179-.2072125 3.2547015z" fill="#f4d6d4"/></g><g><path d="m16.3321075 32.2167282c-.0147305.6359978-.2064953 2.7630692-.2064953 2.7630692h-2.2789736c.3490639-.311718.8076611-.7451744 1.248661-1.2364502.7200289-.8019142.6176844-3.2740955.5541201-4.1711769.1000481-.0685959.9899483-.6787395.8899002-.6101437.6018849 1.4874725-.1892566 2.489418-.2072124 3.2547016z" fill="#f5c9c6"/></g><g opacity=".14"><path d="m16.6143703 30.3198566s.0416641.2452774-.2215748.8916931c-.263237.6464157-.6643715 1.4185238-1.4005671 2.0351353-.5003729.4198875-1.0134792.4343376-1.4806519.031601-.0053825-.0046654-.0107746-.0093346-.0157986-.0136452-.210619-.1860542-.1830311.385994-1.1868935.4661369-.7900639.073616-.6658096-.1928482-.9225769-.4262733-.1229935-.1128578-.344923-.2012253-.502409-.2531815.1364584-.2255287.2319908-.3698921.2319908-.3698921l5.388238-3.6953468c.2815439.7042351.110243 1.3337726.110243 1.3337726z" fill="#111d33"/></g><g><path d="m16.5536804 29.9970093s.0416641.2452774-.2215729.8916931c-.2632389.6464157-.6643724 1.4185219-1.400569 2.0351334-.5004368.4199028-1.0134783.4343414-1.4806509.0316048-.0053835-.0046692-.0107756-.0093384-.0157986-.013649-.210619-.1860542-.1830311.385994-1.1868935.4661369-.8843555.0824051-.6270294-.2668915-1.0335484-.5081558-.4103594-.2462158-1.0491247-.3205833-1.1491842-.3411636-.4675751.0150833-.6453371-.14077-.7128563-.2596436-.0538683-.0948067-.1281996-.1763229-.2226524-.2305527-.5451422-.3113575-1.1132727-.6995678-1.1294308-.9042645-.0179563-.2273216-.1555018-.3831825-.3709741-.6884346-.2154717-.3052521-.3113542-1.2087955-.197516-1.8972301.1134877-.6884346.7958155-.7782135 1.2210083-.4370499.0502815.0405807.0951719.0930157.1350288.1547832.0003595.0003586.0003595.0003586.0003595.0003586.2943249.4536572.3029556 1.3012238.3192625 1.4012871.1077366-.3174648.0915689-.7871914-.061408-1.3707619-.1084544-.4162197-.4140746-.7139301-.7986905-.8762531h-.0007191c-.1540556-.0653629-.3210511-.1088142-.493422-.1292839-.5419149-.064642-1.4350505-.3156662-1.7007961-.9272442 0 0 0-.0003605 0-.0007191-.0290904-.0664406-.0506325-.137188-.0632052-.2122421-.1300058-.7674389.4984546-.8978004.4984546-.8978004.7584653-.1662712 1.6196342.1379013 1.7460456.3232079.1346693.1975174.7092619.1885395.7092619.1885395 1.0324697-.0448914 2.9537621.4937897 2.9537621.4937897.0143604.0053883.2226524.0721836 2.5497513.781086 1.4898014.4539127 2.0982332 1.3551598 2.1536417 2.2962151.0115869.1817587.0060022.393524-.0466883.6306132z" fill="#f4d6d4"/></g><g opacity=".11"><path d="m10.927351 31.8734112c-.0003595.3328991-.2585649.5641766-.6198416.7250652-.1443663-.0276527-.2420464-.0398674-.2420464-.0398674-.4675751.0150833-.6453371-.14077-.7128563-.2596436-.0538683-.0948067-.1281996-.1763229-.2226524-.2305527-.5451422-.3113575-1.1132727-.6995678-1.1294308-.9042645-.0179563-.2273216-.1555018-.3831825-.3709741-.6884346-.2154717-.3052521-.3113542-1.2087955-.197516-1.8972301.1134877-.6884346.7958155-.7782135 1.2210083-.4370499.0502815.0405807.0951719.0930157.1350288.1547832.0003595.0003586.0003595.0003586.0003595.0003586.2962742.4575195.3192625 1.4012871.3192625 1.4012871.1077366-.3174648.0915689-.7871914-.061408-1.3707619-.1084545-.4162196-.4140747-.71393-.7986906-.876253 0 0 .9857912.0456085 2.1647758.8177166 1.1786346.7721081.8195143 1.014513 1.7262926 1.328743.9067774.31423-1.2113113 1.1689377-1.2113113 2.276104z" fill="#fff"/></g><g opacity=".46"><path d="m16.5565567 29.985878c-.0017967.0075397-.0028763.0111313-.0028763.0111313s.0416641.2452774-.2215729.8916931c-.2632389.6464157-.6643724 1.4185219-1.400569 2.0351334-.5004368.4199028-1.0134783.4343414-1.4806509.0316048-.0053835-.0046692-.0107756-.0093384-.0157986-.013649-.210619-.1860542-.1830311.385994-1.1868935.4661369-.8843555.0824051-.6270294-.2668915-1.0335484-.5081558-.4103594-.2462158-1.0491247-.3205833-1.1491842-.3411636-.4675751.0150833-.6453371-.14077-.7128563-.2596436-.0538683-.0948067-.1281996-.1763229-.2226524-.2305527-.5451422-.3113575-1.1132727-.6995678-1.1294308-.9042645-.0179563-.2273216-.1555018-.3831825-.3709741-.6884346-.2154717-.3052521-.3113542-1.2087955-.197516-1.8972301.1134877-.6884346.7958155-.7782135 1.2210083-.4370499.0502815.0405807.0951719.0930157.1350288.1547832.0003595.0003586.0003595.0003586.0003595.0003586.1619358.2495995.2184811.6011124.243844.7092628 0 0-.7631302-1.0425262-1.1132717-.3961105-.350142.6464157-.0269341 1.2579975.2064934 1.526619.233428.26898.2693405.9635181.6823282 1.0877762.4129877.1238937 1.6304016.3670197 2.4808035.9502316.8500347.58321 1.7388563.3415222 2.1967344 0 .4578781-.3415241 1.2658978-.2165527 1.8315115-.5979366.4291468-.2890892 1.0568886-1.469162 1.279541-2.2653275.020718.2690811.0005287.5052032-.0398575.6747875z" fill="#f5c9c6"/></g><g><path d="m16.5536804 29.9970093s.0416641.2452774-.2215729.8916931c-.2632389.6464157-.6643724 1.4185219-1.400569 2.0351334-.5004368.4199028-1.0134783.4343414-1.4806509.0316048-.0053835-.0046692-.0107756-.0093384-.0157986-.013649-.210619-.1860542-.1830311.385994-1.1868935.4661369-.8843555.0824051-.6270294-.2668915-1.0335484-.5081558-.4190903-.2513847-1.1491842-.3411636-1.1491842-.3411636-.4675751.0150833-.6453371-.14077-.7128563-.2596436-.0538683-.0948067-.1281996-.1763229-.2226524-.2305527-.5451422-.3113575-1.1132727-.6995678-1.1294308-.9042645-.0179563-.2273216-.1555018-.3831825-.3709741-.6884346-.2154717-.3052521-.3113542-1.2087955-.197516-1.8972301.1134877-.6884346.7958155-.7782135 1.2210083-.4370499.0502815.0405807.0951719.0930157.1350288.1547832-.030879-.0193939-1.3980513-.8758945-1.2867208 1.1168613 0 0 .0581732.8934917.6780143 1.5039959 0 0 .1167145.1558571.0851154.3070488-.0312471.1508293 1.2885189.6812496 1.4544363.9502316.1662683.2689781.6241465.0937271 1.1089582.3318253s1.2734385 1.3405914 2.425498.2244492c0 0 .1436481-.161602.5939856.2377396.4395628.3900032 2.3996325-1.3298244 2.7530107-3.6019726.0236992.3716831-.0466877.6306133-.0466877.6306133z" fill="#f5c9c6"/></g><g><path d="m8.1597166 29.2174416s-.6243601-.0801544-.5104566-.5737362.6332917-.3305378.8577924-.1687469c.2517128.1814021.4626456.91123-.3473358.7424831z" fill="#f5c9c6"/></g><g><path d="m8.1725464 29.1274433s-.6243601-.0801544-.5104566-.5737362.6332917-.3305359.8577924-.168745c.2517128.1814003.4626455.9112282-.3473358.7424812z" fill="#f1f6fa"/></g><g><g><path d="m9.0549793 29.9110947c.1783342-.1887226.5164652.0752277.3539906.292841l-.0139837.0032749c-.0514822-.1462173-.1492081-.2572441-.3403139-.2817554z" fill="#f5c9c6"/></g><g><path d="m9.1150398 29.6985645c.0713921.5053501-.1635256 1.196331-.6798639 1.1749039-.2099333-.0208759-.3844404-.0638027-.5501127-.1975288-.0744019-.0650787-.1408601-.1415749-.1690388-.2354889l.0125461-.0070057c.1428914.2157173.4457383.2969799.7091308.3044319.4155188.0052891.6056395-.6314125.663065-1.0409222z" fill="#f5c9c6"/></g><g><path d="m14.3857489 31.7137222c.3037729-.2451191.8642607.0403118.7860479.4580956l-.0134754.0049744c-.0337639-.0733528-.0695009-.1462135-.1219311-.2070961-.0999432-.1367702-.3527422-.2735977-.6482134-.2418137z" fill="#f5c9c6"/></g><g><path d="m14.2242146 31.4924946c-.0267057-.1600914-.0017014-.3246727.0641346-.478632.2186546-.534853.8699141-.5927219 1.2867823-.1973534l-.0061369.012989c-.5938187-.2657604-1.0626831-.1643696-1.2735167.4462528-.0247955.071022-.0451708.1443443-.0569983.2184753z" fill="#f5c9c6"/></g><g><path d="m12.6038523 31.6059036c.3031883-.1590748.7555313.1625519.6563931.5257378l-.0137119.0042953c-.0978165-.2421017-.2457876-.4141598-.5376015-.4923458-.0346937-.0104828-.0705795-.0184574-.1061144-.0233612z" fill="#f5c9c6"/></g><g><path d="m10.6642532 30.8710213c.0818281-.055994.1706085-.073267.2586794-.073328.3421373.0054359.5743361.316946.4697666.5526257l-.0163784.0037823c-.0875854-.3065872-.4003334-.4436512-.7123919-.4662724z" fill="#f5c9c6"/></g><g><path d="m8.2401762 25.6030445c.3510981.3138542.4439468.9526806.0969696 1.3342896-.1108751.1233025-.2516556.2110138-.4044399.2504673l-.0078206-.0120468c.5752902-.4254227.6103597-1.016098.3030248-1.5652313z" fill="#f5c9c6"/></g></g><g opacity=".4"><path d="m16.5565567 29.985878c-.0172367-.045969-.0326862-.1041508-.0466881-.1756153-.2524624-1.3043213-.3311062-.7426567-1.4443789-1.8092422-1.1132717-1.0669479-3.6540461-1.5460129-4.9648333-1.6627274-1.3107882-.1167126-.6464167-.0448895-2.4330382-.7315273-1.7614851-.676939-1.6192751.7462482-1.6149616.7868347-.0290904-.0664406-.0506325-.137188-.0632052-.2122421-.1300058-.7674389.4984546-.8978004.4984546-.8978004.7584653-.1662712 1.6196342.1379013 1.7460456.3232079.1346693.1975174.7092619.1885395.7092619.1885395 1.0324697-.0448914 2.9537621.4937897 2.9537621.4937897.0143604.0053883.2226524.0721836 2.5497513.781086 1.7420912.5307751 2.1098299 1.6070614 2.1536417 2.2962151.020832.3267934-.0312387.5666883-.0438119.6194818z" fill="#fff"/></g><g><path d="m14.6593227 33.1116562c-.58321.3167419-1.0209751.0053864-1.2084351-.1562157-.1282587-.2146912-.18081-.4874229-.1935701-.7361984-.0359125-.6916637.1702309-1.0550938.5609493-1.0328293.4407206.0256481.802022.6715298.8482456 1.167141.0236989.2546158.0272847.5311393-.0071897.7581024z" fill="#f5c9c6"/></g><g opacity=".4"><path d="m14.4399061 32.4839134c-.009531.4387016-.5578356.6107712-1.0841818.266468-.0477657-.1328773-.0869131-.3070488-.0984068-.5311394-.0359125-.6916637.1702309-1.0550938.5609493-1.0328293.1357489.0079002.2732859.081522.3971891.1982365.0211821.0377083.0412951.0764885.0596104.116354l.0003595.0003586c.1066123.2302552.1751844.4928589.1644803.9825516z" fill="#fff"/></g><g><path d="m14.4399061 32.4839134c-.0098.4510994-.568531.5893593-1.055459.2847862-.0330362-.1170731-.0581732-.2600021-.0671511-.4327431-.0359116-.6916656.1702232-1.0550938.5609407-1.0328293.1357489.0079002.2729349.081522.3968296.197876l.0003595.0003586c.1066123.2302552.1751844.4928589.1644803.9825516z" fill="#f4d6d4"/></g><g><path d="m13.8805294 32.1297836s-.446394-.0285645-.4697971-.3735771.7720165-.2927742.8032026-.0978088c.0311851.1949653-.0435581.4675483-.3334055.4713859z" fill="#f5c9c6"/></g><g><path d="m13.8816166 32.0457535s-.446394-.0285606-.4697971-.3735733.7720165-.2927761.8032026-.0978088c.0311851.1949653-.0435581.4675483-.3334055.4713821z" fill="#f1f6fa"/></g><g><path d="m12.2481956 33.4079285c-.7900639.073616-.6658096-.1928482-.9225864-.4262733-.0150156-.0384178-.0430927-.1102524-.0599699-.1537056 0 0-.0754099-.2962723-.0750504-.5207253 0 0-.0237074-1.328743.2995005-1.5262585.2205048-.1346703.6191225-.1774025.9013948.0639248.131794.1120453.2380924.2858582.2894526.5408363.1612444.8004761.3120728 1.9112358-.4327412 2.0222016z" fill="#f5c9c6"/></g><g opacity=".4"><path d="m12.0384665 33.1206322c-.4894762.0456085-.6281004-.0391426-.7236233-.1659126-.0161676-.0409393-.0323267-.0833168-.0492039-.12677-.0470638-.2044067-.0753193-.3764534-.0750504-.5207253 0 0-.0237074-1.328743.2995005-1.5262585.1400537-.085535.3519611-.1339836.5602741-.0961132.2098436.0381489.3774128.2017803.4202595.4107151.1391468.6785164.347126 1.9088421-.4321565 2.0250645z" fill="#fff"/></g><g><path d="m12.0384665 33.1206322c-.4894762.0456085-.6281004-.0391426-.7236233-.1659126-.0092411-.0233994-.0472612-.1184692-.0531492-.1429291-.0486555-.3342476-.0191441-1.5758686.2804747-1.7589684.148839-.0909042.3788404-.1399212.599432-.0879517.1877069.0442238.33535.1939907.3767996.3823299.0001917.0008698.0003824.0017414.0005732.002615.1346701.7638474.188897 1.6709824-.480507 1.7708169z" fill="#f4d6d4"/></g><g><path d="m11.4270611 31.3560486c-.0484447-.3753948.5132637-.3102493.6643763-.2981491.1511116.0121021.4751081.1635303.2494783.4752579-.304656.4209098-.8548832.27985-.9138546-.1771088z" fill="#f5c9c6"/></g><g><path d="m11.4300566 31.2693481c-.0484447-.3753948.5132637-.3102493.6643763-.2981472.1511116.0121002.4751081.1635303.2494783.475256-.3046561.4209099-.8548842.2798519-.9138546-.1771088z" fill="#f1f6fa"/></g><g><path d="m10.7837029 31.4873562c-.0761375.7677975-.3526583 1.1157856-.74086 1.0719738-.3878517-.0438118-.7045975-.0215492-.7674437-.5422707 0 0-.0761375-.3458347-.1106119-.7642097 0-.0007191 0-.0014324-.0003595-.0017929-.0222607-.2700596-.0272932-.5706463.0168781-.8274136.1340647-.7841625.922266-.9857712 1.2849321-.5390396.2653942.3257236.3799515.975008.3174649 1.6027527z" fill="#f5c9c6"/></g><g opacity=".4"><path d="m9.9491091 32.3294907c-.2305613-.0287285-.4338198-.0290871-.563817-.1677094-.0707541-.0750503-.1203089-.1910515-.1404219-.3745613 0 0-.0456085-.2262459-.0800829-.5343704 0-.0007191 0-.0014324-.0003595-.0017929-.0222607-.2700596-.0272932-.5706463.0168781-.8274136.1120491-.6553936.6823273-.9067783 1.086338-.7049522.1469784.0734806.2143335.1843834.2607212.3390102.220047.718935.1647835 2.3633957-.579256 2.2717896z" fill="#fff"/></g><g><path d="m9.9491091 32.3294907c-.2305613-.0287285-.4338198-.0290871-.563817-.1677094-.0372629-.1465378-.0904436-.5785694-.1052284-.6787338-.0222607-.2700596-.0272847-.5706425.0168866-.8274136.1302919-.7621593.8700542-.9592934 1.2314148-.5979328.220047.718935.1647835 2.3633957-.579256 2.2717896z" fill="#f4d6d4"/></g><g><path d="m10.1457605 30.8289108c-.37924.1601582-.8215904-.0801163-.763895-.4783306.0682783-.4712563.9056311-.2614727 1.0310354-.0963726.1075678.1416187.1161242.4128456-.2671404.5747032z" fill="#f5c9c6"/></g><g><path d="m9.5555725 30.6774483c-.1149254-.0833473-.2086802-.2154217-.1788082-.4215965.0682783-.4712543.9056301-.2614727 1.0310345-.0963707.2852716.3755722-.4127741.8366718-.8522263.5179672z" fill="#f1f6fa"/></g></g><g><g><path d="m21.7483501 32.2167282c.0147285.6359978.2064934 2.7630692.2064934 2.7630692h6.1513672c-.1393337-.5990143-.6180439-1.4476089-.9096546-1.9284744-.1364574-.2255287-.2319889-.3698921-.2319889-.3698921-.1008415-.0691566-5.5242786-3.7885494-5.4234314-3.7194042-.6018849 1.4874724.1892567 2.4894179.2072143 3.2547015z" fill="#f4d6d4"/></g><g><path d="m21.7483501 32.2167282c.0147285.6359978.2064934 2.7630692.2064934 2.7630692h2.2789745c-.3490639-.311718-.8076611-.7451744-1.248661-1.2364502-.7200298-.8019142-.6176853-3.2740955-.554121-4.1711769-.1000481-.0685959-.9899483-.6787395-.8899002-.6101437-.6018849 1.4874725.1892567 2.489418.2072143 3.2547016z" fill="#f5c9c6"/></g><g opacity=".14"><path d="m21.4660854 30.3198566s-.0416622.2452774.2215748.8916931.6643715 1.4185238 1.400568 2.0351353c.5003719.4198875 1.0134792.4343376 1.4806499.031601.0053844-.0046692.0107765-.0093346.0158005-.0136452.2106171-.1860542.1830311.385994 1.1868935.4661369.8843536.0824013.6270294-.2668915 1.0335484-.5081558.1145573-.0685883.2521019-.1253319.3914356-.171299-.1364574-.2255287-.2319889-.3698921-.2319889-.3698921l-5.388237-3.6953468c-.2815457.7042351-.1102448 1.3337726-.1102448 1.3337726z" fill="#111d33"/></g><g><path d="m21.5267754 29.9970093s-.0416641.2452774.2215748.8916931c.263237.6464157.6643715 1.4185219 1.4005661 2.0351334.5004368.4199028 1.0134792.4343414 1.4806519.0316048.0053825-.0046692.0107746-.0093384.0157986-.013649.210619-.1860542.1830311.385994 1.1868935.4661369.8843555.0824051.6270294-.2668915 1.0335484-.5081558.4103603-.2462158 1.0491257-.3205833 1.1491852-.3411636.4675732.0150833.6453362-.14077.7128563-.2596436.0538673-.0948067.1281986-.1763229.2226524-.2305527.5451412-.3113575 1.1132717-.6995678 1.1294308-.9042645.0179558-.2273216.1555004-.3831825.3709736-.6884346.2154713-.3052521.3113537-1.2087955.1975155-1.8972301-.1134872-.6884346-.7958145-.7782135-1.2210083-.4370499-.0502815.0405807-.095171.0930157-.1350288.1547832-.0003586.0003586-.0003586.0003586-.0003586.0003586-.2943249.4536572-.3029556 1.3012238-.3192635 1.4012871-.1077366-.3174648-.091568-.7871914.061409-1.3707619.1084538-.4162197.4140739-.7139301.7986908-.8762531h.0007191c.1540546-.0653629.3210506-.1088142.4934216-.1292839.541914-.064642 1.435051-.3156662 1.7007942-.9272442 0 0 0-.0003605 0-.0007191.0290909-.0664406.0506325-.137188.0632057-.2122421.1300087-.7674389-.4984531-.8978004-.4984531-.8978004-.7584648-.1662712-1.6196346.1379013-1.7460461.3232079-.1346703.1975174-.7092609.1885395-.7092609.1885395-1.0324707-.0448914-2.9537621.4937897-2.9537621.4937897-.0143623.0053883-.2226524.0721836-2.5497513.781086-1.4898014.4539127-2.0982323 1.3551598-2.1536427 2.2962151-.0115855.1817587-.0060026.393524.0466879.6306132z" fill="#f4d6d4"/></g><g opacity=".11"><path d="m27.1531048 31.8734112c.0003605.3328991.258564.5641766.6198406.7250652.1443672-.0276527.2420483-.0398674.2420483-.0398674.4675732.0150833.6453362-.14077.7128563-.2596436.0538673-.0948067.1281986-.1763229.2226524-.2305527.5451412-.3113575 1.1132717-.6995678 1.1294308-.9042645.0179558-.2273216.1555004-.3831825.3709736-.6884346.2154713-.3052521.3113537-1.2087955.1975155-1.8972301-.1134872-.6884346-.7958145-.7782135-1.2210083-.4370499-.0502815.0405807-.095171.0930157-.1350288.1547832-.0003586.0003586-.0003586.0003586-.0003586.0003586-.2962742.4575195-.3192635 1.4012871-.3192635 1.4012871-.1077366-.3174648-.091568-.7871914.061409-1.3707619.1084538-.4162197.4140739-.7139301.7986908-.8762531 0 0-.9857922.0456085-2.1647758.8177166-1.1786346.7721081-.8195152 1.014513-1.7262936 1.328743s1.2113113 1.1689378 1.2113113 2.2761041z" fill="#fff"/></g><g opacity=".46"><path d="m21.5238991 29.985878c.0017967.0075397.0028763.0111313.0028763.0111313s-.0416641.2452774.2215748.8916931c.263237.6464157.6643715 1.4185219 1.4005661 2.0351334.5004368.4199028 1.0134792.4343414 1.4806519.0316048.0053825-.0046692.0107746-.0093384.0157986-.013649.210619-.1860542.1830311.385994 1.1868935.4661369.7900639.073616.6658096-.1928482.9225864-.4262733.2180214-.2001114.7261963-.3278999 1.0180988-.3831787.1443672-.0276527.2420483-.0398674.2420483-.0398674.4675732.0150833.6453362-.14077.7128563-.2596436.0538673-.0948067.1281986-.1763229.2226524-.2305527.5451412-.3113575 1.1132717-.6995678 1.1294308-.9042645.0179558-.2273216.1555004-.3831825.3709736-.6884346.2154713-.3052521.3113537-1.2087955.1975155-1.8972301-.1134872-.6884346-.7958145-.7782135-1.2210083-.4370499-.0502815.0405807-.095171.0930157-.1350288.1547832-.0003586.0003586-.0003586.0003586-.0003586.0003586-.1619358.2495995-.2184811.6011124-.243845.7092628 0 0 .7631302-1.0425262 1.1132717-.3961105s.0269337 1.2579975-.2064934 1.526619c-.233429.26898-.2693405.9635181-.6823273 1.0877762-.4129887.1238937-1.6304016.3670197-2.4808044.9502316-.8500347.58321-1.7388554.3415222-2.1967335 0-.4578781-.3415241-1.2658978-.2165527-1.8315125-.5979366-.4291458-.2890892-1.0568886-1.469162-1.279541-2.2653275-.0207177.2690811-.0005284.5052032.0398578.6747875z" fill="#f5c9c6"/></g><g><path d="m21.5267754 29.9970093s-.0416641.2452774.2215748.8916931c.263237.6464157.6643715 1.4185219 1.4005661 2.0351334.5004368.4199028 1.0134792.4343414 1.4806519.0316048.0053825-.0046692.0107746-.0093384.0157986-.013649.210619-.1860542.1830311.385994 1.1868935.4661369.8843555.0824051.6270294-.2668915 1.0335484-.5081558.4190903-.2513847 1.1491852-.3411636 1.1491852-.3411636.4675732.0150833.6453362-.14077.7128563-.2596436.0538673-.0948067.1281986-.1763229.2226524-.2305527.5451412-.3113575 1.1132717-.6995678 1.1294308-.9042645.0179558-.2273216.1555004-.3831825.3709736-.6884346.2154713-.3052521.3113537-1.2087955.1975155-1.8972301-.1134872-.6884346-.7958145-.7782135-1.2210083-.4370499-.0502815.0405807-.095171.0930157-.1350288.1547832.03088-.0193939 1.3980522-.8758945 1.2867203 1.1168613 0 0-.0581722.8934917-.6780128 1.5039959 0 0-.1167145.1558571-.0851173.3070488.0312481.1508293-1.288517.6812496-1.4544353.9502316-.1662674.2689781-.6241455.0937271-1.1089573.3318253s-1.2734394 1.3405914-2.425499.2244492c0 0-.1436481-.161602-.5939846.2377396-.4395638.3900032-2.3996334-1.3298244-2.7530117-3.6019726-.0236992.3716831.0466877.6306133.0466877.6306133z" fill="#f5c9c6"/></g><g><path d="m29.9207401 29.2174416s.6243591-.0801544.5104561-.5737362-.6332932-.3305378-.8577919-.1687469c-.2517128.1814021-.4626465.91123.3473358.7424831z" fill="#f5c9c6"/></g><g><path d="m29.9079094 29.1274433s.624361-.0801544.5104561-.5737362c-.113903-.4935818-.6332912-.3305359-.8577919-.168745-.2517128.1814003-.4626446.9112282.3473358.7424812z" fill="#f1f6fa"/></g><g><g><path d="m29.0254765 29.9110947c-.1783333-.1887226-.5164642.0752277-.3539906.292841l.0139847.0032749c.0514812-.1462173.1492081-.2572441.340313-.2817554z" fill="#f5c9c6"/></g><g><path d="m28.965416 29.6985645c-.0711708.5037861.1623592 1.1963806.6798649 1.1749039.2099323-.0208759.3844395-.0638027.5501118-.1975288.0744019-.0650787.1408596-.1415749.1690388-.2354889l-.0125465-.0070057c-.1428909.2157173-.4457378.2969799-.7091293.3044319-.4157448.0052929-.6058178-.6326733-.6630669-1.0409222z" fill="#f5c9c6"/></g><g><path d="m23.6947079 31.7137222c-.3021564-.2438126-.8651409.0356159-.7860489.4580956l.0134754.0049744c.0337639-.0733528.0695019-.1462135.1219311-.2070961.1078815-.1476345.3652687-.2722511.6482143-.2418137z" fill="#f5c9c6"/></g><g><path d="m23.8562412 31.4924946c.0267067-.1600914.0017014-.3246727-.0641346-.478632-.2210255-.5406532-.8745327-.5883408-1.2867813-.1973534l.0061359.012989c.5938187-.2657604 1.0626831-.1643696 1.2735176.4462528.0247936.071022.0451698.1443443.0569973.2184753z" fill="#f5c9c6"/></g><g><path d="m25.4766045 31.6059036c-.3046303-.159832-.7553158.1633453-.656395.5257378l.0137138.0042953c.0597229-.1478195.086031-.181839.166811-.2771645.1327915-.1229305.2715759-.2101994.4769039-.2385426z" fill="#f5c9c6"/></g><g><path d="m27.4162025 30.8710213c-.0818272-.055994-.1706085-.073267-.2586784-.073328-.3421383.0054359-.574337.316946-.4697666.5526257l.0163765.0037823c.0875874-.3065872.4003353-.4436512.7123928-.4662724z" fill="#f5c9c6"/></g><g><path d="m29.8402805 25.6030445c-.1190987.1064644-.2011108.2456188-.2546368.3965092-.1938972.5374985.0923996 1.0669537.5621071 1.1882477l.0078201-.0120468c-.249033-.1841583-.4302635-.3756618-.4790344-.7111683-.045639-.2895641.0498447-.6286373.1760082-.854063z" fill="#f5c9c6"/></g></g><g opacity=".4"><path d="m21.5238991 29.985878c.0172367-.045969.0326862-.1041508.0466881-.1756153.2524624-1.3043213.3311062-.7426567 1.4443798-1.8092422 1.1132717-1.0669479 3.6540451-1.5460129 4.9648323-1.6627274 1.3107891-.1167126.6464157-.0448895 2.4330387-.7315273 1.7614861-.676939 1.6192741.7462482 1.6149597.7868347.0290909-.0664406.0506325-.137188.0632057-.2122421.1300087-.7674389-.4984531-.8978004-.4984531-.8978004-.7584648-.1662712-1.6196346.1379013-1.7460461.3232079-.1346703.1975174-.7092609.1885395-.7092609.1885395-1.0324707-.0448914-2.9537621.4937897-2.9537621.4937897-.0143623.0053883-.2226524.0721836-2.5497513.781086-1.7420921.5307751-2.1098309 1.6070614-2.1536427 2.2962151-.020832.3267934.0312386.5666883.0438119.6194818z" fill="#fff"/></g><g><path d="m23.421133 33.1116562c.58321.3167419 1.0209751.0053864 1.2084351-.1562157.1282597-.2146912.1808109-.4874229.1935711-.7361984.0359116-.6916637-.1702309-1.0550938-.5609493-1.0328293-.4407215.0256481-.8020229.6715298-.8482456 1.167141-.0236989.2546158-.0272847.5311393.0071887.7581024z" fill="#f5c9c6"/></g><g opacity=".4"><path d="m23.6405506 32.4839134c.0092945.4278488.5514278.6149597 1.0841808.266468.0477657-.1328773.0869122-.3070488.0984077-.5311394.0359116-.6916637-.1702309-1.0550938-.5609493-1.0328293-.1357498.0079002-.2732868.081522-.3971901.1982365-.0211811.0377083-.0412941.0764885-.0596104.116354l-.0003586.0003586c-.106613.2302552-.1751841.4928589-.1644801.9825516z" fill="#fff"/></g><g><path d="m23.6405506 32.4839134c.0098.4510994.5685291.5893593 1.0554581.2847862.0330372-.1170731.0581722-.2600021.0671501-.4327431.0359135-.6916656-.1702213-1.0550938-.5609398-1.0328293-.1357479.0079002-.272934.081522-.3968296.197876l-.0003586.0003586c-.1066131.2302552-.1751842.4928589-.1644802.9825516z" fill="#f4d6d4"/></g><g><path d="m24.1999264 32.1297836s.446394-.0285645.4697971-.3735771-.7720165-.2927742-.8032017-.0978088.0435582.4675483.3334046.4713859z" fill="#f5c9c6"/></g><g><path d="m24.1988392 32.0457535s.446394-.0285606.4697971-.3735733-.7720165-.2927761-.8032017-.0978088c-.0311851.1949653.0435582.4675483.3334046.4713821z" fill="#f1f6fa"/></g><g><path d="m25.8322601 33.4079285c.7900639.073616.6658096-.1928482.9225864-.4262733.0150146-.0384178.0430927-.1102524.0599709-.1537056 0 0 .0754089-.2962723.0750504-.5207253 0 0 .0237064-1.328743-.2995014-1.5262585-.2205048-.1346703-.6191216-.1774025-.9013939.0639248-.131794.1120453-.2380924.2858582-.2894535.5408363-.1612435.8004761-.3120728 1.9112358.4327411 2.0222016z" fill="#f5c9c6"/></g><g opacity=".4"><path d="m26.0419903 33.1206322c.4894753.0456085.6280994-.0391426.7236233-.1659126.0161667-.0409393.0323257-.0833168.0492039-.12677.0470638-.2044067.0753174-.3764534.0750504-.5207253 0 0 .0237064-1.328743-.2995014-1.5262585-.1400528-.085535-.3519611-.1339836-.5602741-.0961132-.2098427.0381489-.3774128.2017803-.4202595.4107151-.1541063.7514629-.326008 1.9119892.4321574 2.0250645z" fill="#fff"/></g><g><path d="m26.0419903 33.1206322c.4894753.0456085.6280994-.0391426.7236233-.1659126.0092392-.0233994.0472603-.1184692.0531483-.1429291.0486565-.3342476.0191441-1.5758686-.2804737-1.7589684-.14884-.0909042-.3788414-.1399212-.599432-.0879517-.1877079.0442238-.33535.1939907-.3768005.3823299-.0001907.0008698-.0003834.0017414-.0005722.002615-.1346704.7638474-.1888982 1.6709824.4805068 1.7708169z" fill="#f4d6d4"/></g><g><path d="m26.6533947 31.3560486c.0484447-.3753948-.5132637-.3102493-.6643753-.2981491-.1511116.0121021-.4751091.1635303-.2494793.4752579.304657.4209098.8548832.27985.9138546-.1771088z" fill="#f5c9c6"/></g><g><path d="m26.6504002 31.2693481c.0484447-.3753948-.5132637-.3102493-.6643772-.2981472-.1511116.0121002-.4751072.1635303-.2494793.475256.3046569.4209099.8548851.2798519.9138565-.1771088z" fill="#f1f6fa"/></g><g><path d="m27.2967529 31.4873562c.0761375.7677975.3526573 1.1157856.74086 1.0719738.3878517-.0438118.7045975-.0215492.7674446-.5422707 0 0 .0761375-.3458347.110611-.7642097 0-.0007191 0-.0014324.0003605-.0017929.0222607-.2700596.0272923-.5706463-.0168781-.8274136-.1340656-.7841625-.9222679-.9857712-1.2849331-.5390396-.2653943.3257236-.3799515.975008-.3174649 1.6027527z" fill="#f5c9c6"/></g><g opacity=".4"><path d="m28.1313477 32.3294907c.2305603-.0287285.4338188-.0290871.5638161-.1677094.070755-.0750504.1203098-.1910515.1404209-.3745613 0 0 .0456104-.2262459.0800838-.5343704 0-.0007191 0-.0014324.0003605-.0017929.0222607-.2700596.0272923-.5706463-.0168781-.8274136-.1120491-.6553936-.6823292-.9067783-1.086338-.7049522-.1469784.0734806-.2143345.1843834-.2607212.3390102-.2200471.718935-.1647836 2.3633957.579256 2.2717896z" fill="#fff"/></g><g><path d="m28.1313477 32.3294907c.2305603-.0287285.4338188-.0290871.5638161-.1677094.0372639-.1465378.0904427-.5785694.1052284-.6787338.0222607-.2700596.0272846-.5706425-.0168858-.8274136-.1302929-.7621593-.8700542-.9592934-1.2314148-.5979328-.220047.718935-.1647835 2.3633957.5792561 2.2717896z" fill="#f4d6d4"/></g><g><path d="m28.519783 30.7721748c.1149254-.0833473.2086792-.2154217.1788082-.4215946-.0682793-.4712563-.905632-.2614727-1.0310364-.0963726-.2852706.3755722.4127751.8366737.8522282.5179672z" fill="#f5c9c6"/></g><g><path d="m28.5248833 30.6774483c.1149254-.0833473.2086811-.2154217.1788082-.4215965-.0682774-.4712543-.9056301-.2614727-1.0310345-.0963707-.2852707.3755722.4127751.8366718.8522263.5179672z" fill="#f1f6fa"/></g></g></g><g><path d="m27.1965561 5.5889883c-.0919189.1009126-.2226448.2046986-.405798.3066874-1.2995968.7252359-5.1905251 1.6375685-8.0769653 1.5068684-.1587372-.0068235-.2815533-.1411338-.2743721-.2995071.0068302-.15873.1407814-.2804723.299509-.2743659 3.3212357.1467767 7.3287048-1.0264044 7.9756889-1.5707927.1630422.1066598.323927.2172693.4819375.3311099z" fill="#b28afd"/></g><g><g><path d="m30.1575069 8.491396c-1.2111301 1.0170622-6.9722176 1.4058771-8.7542686 1.5840778-3.8468971.3846188-10.5972652-.5182095-12.4481716-1.4433031-.2388201-.1192284-.4126368-.2276812-.5386801-.3235674 2.5432968-3.2688823 6.4698963-5.2884016 10.8008852-5.2884016 2.7649384 0 5.3630867.8287945 7.4973469 2.2376764-.6644287.5598237-4.7283554 1.7143037-7.975689 1.5707929-.279768-.0107632-.4058361.3388672-.1932106.5103083.0071793.0057468.01437.0111327.0219097.016161h.0003586c.0420151.0280123.091938.0452495.1458054.0474038 2.8568554.1293607 6.7615223-.772789 8.0769653-1.5068684.146019-.081264.2935009-.1830463.405798-.3066874 1.0660973.7661018 2.0925941 1.7463875 2.9609508 2.9024077z" fill="#566df9"/></g><g><path d="m19.8385506 18.7485809c.0438137.0358505.0994816.0591831.1612434.0635643 3.0554409.2049847 9.8165417-.1321373 12.8557777-1.1567249-.4971504 7.1138382-6.4212627 12.7088966-13.6382999 12.7088966-4.3015194 0-8.1450071-1.9881458-10.6511345-5.099144 1.7241192.4738636 4.8019943.9105663 7.7217979.8493195.1570797-.0025501.2846642-.1325188.2815456-.2926846-.0032272-.1587315-.1350212-.2844238-.2926807-.2815475-2.3251886.0457077-6.1855831-.3051796-8.2949524-1.0550995-.7660904-1.1035938-1.3542953-2.2956867-1.7546554-3.5175781.000351 0 .0007105.0003586.00107.0003586 2.6502619.9016495 7.4476852 1.66325 12.1960764 1.5075855.0650043-.0021572.1242542-.025856.1713009-.0639248.2145615-.1734886.083046-.5202637-.1896152-.5103073-4.0745745.1296406-7.4869328-.4104729-9.1582785-.7440968-1.4544363-.2901707-2.5109644-.599369-3.2256184-.8730221-.6338491-2.3322277-.6177778-4.7719536-.0592513-6.9575882h.0003595v.0003576c.0002861.0001621-.0038176-.0020266.035912.0204697 2.0454845 1.1846552 10.1063395 1.7810287 12.4280596 1.6821194.0642834-.0025139.1224651-.0262146.1687927-.0639248.2151489-.1732569.0817986-.5230751-.1932106-.5099478-2.842432.1206636-10.1383104-.6205606-11.879323-1.478858-.1637607-.0808029-.2955637-.1565762-.4015026-.2266054.418448-1.3883476 1.0597172-2.7276602 1.9514608-3.9808435.1254292.0451651.7921352.9645405 6.2415075 1.6401005 2.1634264.2682428 4.9865046.4541521 7.1454096.2377367 3.4110794-.3418045 7.721386-.653491 9.0318584-1.6896591 1.5597591 2.2459641 2.4673748 5.0848389 2.392828 8.0823536-2.8473606 1.0499229-9.8081055 1.4040928-12.846447 1.1987438-.2780869-.0196381-.4180042.3333301-.2000305.5099506z" fill="#566df9"/></g></g><g><path d="m28.7282162 9.093998c-1.9537067.5141716-5.280323.7770157-7.3249779.9814758-3.8468971.3846188-10.5972652-.5182095-12.4481716-1.4433031-.2388201-.1192284-.4126368-.2276812-.5386801-.3235674 2.543499-3.2692728 6.4705296-5.2884016 10.8008852-5.2884016.8256245 0 1.6343632.073262 2.419754.2133174 1.7098026.3052871 3.3667965.9725826 4.4635124 1.6436927 1.0923615 1.1648109 2.0150281 2.5945976 2.627678 4.2167862z" fill="#748bfd"/></g><g><path d="m8.9550667 8.6321707c-.2388201-.1192284-.4126368-.2276812-.5386801-.3235674 2.543499-3.2692728 6.4705296-5.2884016 10.8008852-5.2884016.8256245 0 1.6343632.073262 2.419754.2133174 1.9708557 1.5812061 3.3768063 3.8375576 3.8666515 6.4185524-1.4028912.172657-2.8085804.294219-4.1004391.4234018-3.846897.3846192-10.5972651-.518209-12.4481715-1.4433026z" fill="#8fabfe"/></g><g><path d="m29.5498524 13.6109133c0 9.2912683-9.6674404 15.5174837-18.1170731 11.6251707-2.0473948-.9487495-3.8051786-2.4068642-5.1035223-4.2346268 2.4933167.8313866 6.9361105 1.5981941 12.0946693 1.4781075.159771-.0099964.2796135-.1397152.2796135-.2995472-.0099354-.1398373-.1098461-.2596798-.2496834-.2796745-.1530418-.0069351-3.946826.2164822-8.6390228-.6392059-.8099957-.1158142-2.6398301-.5293713-3.7951822-.9787407-.610033-2.2723141-.6450686-4.6325264-.0599213-6.9511585.0998487.0499859.199698.1098461.3096051.1597099l.2496839-.5093641c-.1598315-.0898523-.2896719-.1597099-.3995185-.2296896.405849-1.3075218.9744754-2.6119804 1.9575429-3.9849443.1697683.1298409.3695278.2596807.6192112.3795242.9488106.4694986 3.0461302.9488716 5.6228848 1.2584162 2.1441545.2666235 5.0438128.472518 7.1409197.239687 1.8297634-.1563358 5.6863708-.5191898 7.4605846-1.0086107.4094553 1.2582939.6292086 2.5865677.6292086 3.9749468z" fill="#748bfd"/></g><g><path d="m16.5694809 25.8218079c.0032349.1587334-.1228161.2898083-.2815456.2926846-2.7513628.057909-5.8328876-.3418884-7.7217979-.8493195-.203618-.2528229-.3986263-.512825-.5842891-.7800121 1.6253772.5778275 5.1752734 1.1165066 8.2949524 1.0550995.157659-.0028764.289453.122816.2926802.2815475z" fill="#b28afd"/></g><g><path d="m18.7022991 22.1792526c.005024.1587334-.1195908.2912502-.2779598.2962742-4.8582668.1546211-9.5980549-.6254215-12.1971464-1.5079441-.0743403-.2251701-.1425781-.4528503-.2050648-.6834068.714654.273653 1.7711821.5828514 3.2256184.8730221 1.6713457.3336239 5.083704.8737373 9.1582785.7440968.1572894-.0057431.2912406.1192302.2962741.2779578z" fill="#748bfd"/></g><g><path d="m30.4922009 8.9575329c-1.3810806 1.0911236-6.1332035 1.3992014-9.0318584 1.6896591-3.7530576.3761568-10.6962625-.4686193-12.7620517-1.5011206-.2474298-.1238975-.4553613-.2488699-.6248655-.3767166.1109715-.155859.2255287-.3095617.3429613-.4607515.1260433.0958862.29986.204339.5386801.3235674 1.8509064.9250937 8.6012745 1.8279219 12.4481716 1.4433031 2.2293148-.2229261 7.5777321-.5970602 8.7542686-1.5840778.1149254.1529855.2266064.3081254.334694.4661369z" fill="#b28afd"/></g><g><path d="m27.9019146 18.2430439c0 .1710663.1467514.3053474.3168068.2867737 1.5819283-.172781 3.3687077-.4470596 4.6368198-.8744659.014389-.2038422.0244446-.4093933.0295067-.6154308-1.0035343.3698826-2.633482.6889038-4.7242908.917717-.1458378.0159587-.2588425.1386966-.2588425.285406z" fill="#dedffb"/></g><g opacity=".3"><g><g><path d="m12.3416033 22.4542618c-2.8847342-.6805763-5.3319607-2.5426464-6.791388-5.0035515 0-.1698284-.0099969-.3495331-.0099969-.5193615 0-1.1685648.1498346-2.2871437.4195127-3.3657341.0998487.0499859.199698.1098471.3096051.1597099l.2496839-.5093641c-.1598315-.0797329-.2896719-.1597099-.3995185-.2296896.4498711-1.3987179.9612322-2.5934849 1.9575429-3.9849443.1697683.1299629.3695278.2596807.6192112.3796463.9488106.4693766 3.0461302.9487495 5.6228848 1.2682915 2.2021971.2738409 4.9847078.4449434 7.1409197.2398081.6381226-.0729914 2.6050034-.2485905 4.134779-.4295092 1.0729484 7.3562898-5.6915151 13.7690324-13.2532359 11.9946985z" fill="#8fabfe"/></g><g><path d="m30.7083912 9.282896c-1.2528648 1.2532606-6.9236126 1.5834703-9.1981354 1.8106823-2.1731339.2170706-4.9894657.031436-7.1683893-.2377377-2.5806398-.3188982-4.6865158-.7911396-5.6345978-1.2633839-.2819967-.1407965-.5950899-.3244027-.8227405-.5408343.0891709-.1322346.1231537-.188242.1936789-.2883129.1698627.1278467.3809128.2588644.6290617.382762.948082.4722433 3.0539579.9444847 5.6345978 1.2633839 2.1599112.2668915 4.9924536.4548178 7.1683893.2377367 3.2271423-.3223734 7.6128445-.6741381 8.98526-1.6864109.0688075.1000003.1740531.2605485.2128753.3221148z" fill="#111d33"/></g></g><g><g><path d="m27.4314213 5.7624435c-.0843296.2561769-.3372097.448349-.5738735.579618-1.3180733.7332654-5.227705 1.6365657-8.1028194 1.5068684-.2544746-.0109148-.3673592-.3210855-.1870995-.4937897h.0003586c.0420151.0280123.091938.0452495.1458054.0474038 2.8568554.1293607 6.7615223-.772789 8.0769653-1.5068684.146019-.081264.2935009-.1830463.405798-.3066874.0991153.0712253.1932181.1414176.2348651.1734553z" fill="#111d33"/></g></g><g><g><path d="m11.6257734 14.8044481c0-.1116447-.0835829-.2055683-.1943598-.2194567-2.2435207-.2812853-4.2955489-.6678762-5.1605535-1.092824-.1102729-.0542526-.2129259-.1094809-.3077154-.1655626-.0327349.1292315-.0637622.2591934-.0929003.3898878.100359.0635338.2417307.1438398.4006157.2220087.8579245.421587 2.8835206.8052168 5.1055026 1.0858965.1321736.016696.2494107-.0867261.2494107-.2199497z" fill="#111d33"/></g></g><g><g><path d="m28.2246437 18.529108c-.1576443.0170422-.2770729.1495972-.2770729.3081608.0000019.0935192.0797768.1669121.1727829.1571217 1.5752716-.1658173 3.3826485-.431881 4.6921577-.8501568.0000725-.0000896.0001259-.0001564.0001984-.000248.0171242-.1617565.0314255-.3247814.0428314-.4886341-1.336853.4507924-3.2343673.7227993-4.6308975.8737564z" fill="#111d33"/></g></g><g><g><path d="m16.3212643 26.5608768c-2.4271917.0509853-5.2583256-.2576714-7.2605-.7275791-.167161-.1849422-.3292818-.3741989-.486002-.5681248 1.9097643.5113964 5.0051174.9068336 7.7465019.8493195.0666542-.0010777.1275368-.0247822.1754475-.0635643.2077332.167284.0935994.5050965-.1754474.5099487z" fill="#111d33"/></g></g></g><g><g><g><path d="m30.4922009 8.9575329c-1.3810806 1.0911236-6.1332035 1.3992014-9.0318584 1.6896591-3.7530576.3761568-10.6962625-.4686193-12.7620517-1.5011206-.2474298-.1238975-.4553613-.2488699-.6248655-.3767166-.8138051-.6119108-.7017989-1.3340816.0470381-1.7384991.4647083-.2506671 1.1739702-.3759995 1.6149702-.1881804-.1641197.1576542-.3242855.3196177-.4801474.4858903-.243125-.0050282-.5796156.0553036-.8618879.2079296-.1953592.1055813-.3109942.2323518-.3091974.3393688.0039205.2897883.6114006.626772.8708658.7563067 1.8509064.9250937 8.6012745 1.8279219 12.4481716 1.4433031 1.3553753-.1355343 9.1128159-.6565113 8.9726162-1.9805479-.0326862-.0904961-.2391796-.5548382-1.0263672-.5821319-.1684246-.1860237-.3418827-.3673811-.5203743-.5429893.0014381-.0007186.0032444-.0007186.0046825-.0010781 1.4020061-.1957211 1.9873638.5613046 2.101202.9886584l.0061035.029448c.0619279.3954283-.1341953.7228085-.4489001.9706999z" fill="#dedffb"/></g></g><g><g><path d="m26.7907581 5.8956757c-1.2995968.7252359-5.1905251 1.6375685-8.0769653 1.5068684-.1587372-.0068235-.2815533-.1411338-.2743721-.2995071.0068302-.15873.1407814-.2804723.299509-.2743659 3.3212357.1467767 7.3287048-1.0264044 7.9756889-1.5707927.093008-.0779281.1030731-.1238947.1030731-.1246133-.0093288-.0430951-.1659184-.1799197-.4955788-.2521033-.1027222-.0226245-.1950092-.0326786-.2747421-.035193-.2309017-.1335936-.4661369-.2603617-.7052975-.3803091.2147522-.1777625.5735035-.2391729 1.0073242-.164475 1.0876505.1873145 1.4717886 1.0207018.4413606 1.594491z" fill="#dedffb"/></g></g><g><g><path d="m11.6343079 14.2859783c0-.1451168-.1084585-.267189-.2524204-.2854595-2.1385241-.2714043-4.0696979-.6349077-4.8584175-1.0238123-.163794-.0807085-.2955852-.1565399-.4015298-.2265196-.4111614-.2711411-.4366422-.4549904-.4366422-.4959545.0003657-.1249638.1766562-.220911.2309089-.247489.1529436-.0749779.336854-.1080179.4891267-.0965576.068212-.1838493.1407518-.3659916.2168884-.5458174-.6374311-.1407566-1.5100999.2296028-1.5115137.8891325-.0005488.5695295.6480212.9864988 1.1588721 1.2386665.8489561.4184055 2.8449416.7995825 5.040772 1.0796299.1718177.0219126.3239555-.1126088.3239555-.285819z" fill="#dedffb"/></g></g><g><g><path d="m16.5694809 25.8218079c.0032349.1587334-.1228161.2898083-.2815456.2926846-2.7513628.057909-5.8328876-.3418884-7.7217979-.8493195-.753006-.2025356-2.1376176-.6057758-2.0688939-1.3854828.0323257-.3670254.3853436-.6162567.6532459-.7541523.0904989.1698627.1845837.3372097.2819037.5024071-.1957188.0987587-.3562441.2273216-.3627062.3020172-.0025163.030529.0531492.1450863.340086.3063316.1468744.0825977.339726.1662712.5720754.248867 1.6253772.5778275 5.1752734 1.1165066 8.2949524 1.0550995.157659-.0028763.289453.1228161.2926802.2815476z" fill="#dedffb"/></g></g></g><g><g><path d="m15.1546068 7.0026236c1.605073.7839718 1.4977007.9149628-.1077137.1854835.8121443 2.3412576.5502672 2.453609-.3219833.1158967-.7830372 1.6062813-.9292679 1.5312901-.2012167-.0742846-2.3340635.8054562-2.4382677.5205493-.1248531-.3468657-1.5839205-.7730608-1.5198517-.9240942.107604-.1857891-.8183861-2.359251-.5433226-2.4349961.3219824-.1158972.7766895-1.5932651.9347115-1.5440164.2013264.0745902 2.341875-.8081622 2.4297561-.5173464.124854.3468662z" fill="#fff"/></g></g></g><g opacity=".4"><path d="m24.8849373 14.1316519v9.1916437c0 .6397381-.5212345 1.1618652-1.1618652 1.1618652h-9.1916428c-.6398258 0-1.1618652-.5197353-1.1618652-1.1618652v-9.1916437c0-.6454287.5269804-1.1618652 1.1618652-1.1618652h9.1916428c.6452884-.0000001 1.1618652.5259599 1.1618652 1.1618652z" fill="#111d33"/></g><g><g><g><path d="m24.3055153 13.405756v9.1916428c0 .63974-.5212364 1.1618652-1.1618652 1.1618652h-9.1916447c-.6398258 0-1.1618652-.5197353-1.1618652-1.1618652v-9.1916428c0-.6454287.5269804-1.1618652 1.1618652-1.1618652h9.1916447c.6452884 0 1.1618652.5259599 1.1618652 1.1618652z" fill="#f3a250"/></g><g><path d="m23.989481 12.6105289-1.6121387 1.7680874h-7.6424894l-1.6194-1.7773914c.2106886-.2199802.5081396-.3573341.8365526-.3573341h9.1916447c.3335818 0 .6341341.1404552.8458308.3666381z" fill="#ffb961"/></g><g><path d="m23.9688301 23.4132767c-.2096539.2137909-.501936.3459873-.8251801.3459873h-9.1916447c-.3181009 0-.6062469-.1280613-.8148689-.3346157l1.4944391-1.438652 7.6775885-.3779984z" fill="#ffb961"/></g><g><path d="m14.0294628 21.8056107v-7.6080656c0-.3945141.3198175-.7143316.7143326-.7143316h7.6080646c.3945141 0 .7143326.3198175.7143326.7143316v7.6080656c0 .3945141-.3198185.7143307-.7143326.7143307h-7.6080647c-.3945149-.0000001-.7143325-.3198167-.7143325-.7143307z" fill="#ffd475"/></g></g><g><path d="m15.0020113 20.4127102c1.997613-4.6536407 1.8761511-4.5694351 2.078126-4.7304688.0722656-.0576172.1611328-.0859375.2666016-.0859375h.0742188c.2051678 0 .3513184.119832.4345703.3066406l1.9101563 4.5097656c.1975899.4635773-.4346886.6762848-.6220703.2773438l-.4863281-1.1689453h-2.546875l-.4873056 1.1689453c-.1816647.399664-.8187449.1863766-.621094-.2773437zm1.3710947-1.5136719h2.0214844l-1.0107422-2.4335938z"/><path d="m21.0020123 20.8023586c-.0654297-.0654297-.0976563-.1455078-.0976563-.2402344v-4.6210938c0-.3158522.3683701-.4558477.5800781-.2441406.0673828.0673828.1015625.1494141.1015625.2441406v4.6210938c0 .3053475-.3771629.4470559-.5839843.2402344z"/></g></g></g></g></svg>