<svg id="Layer_1" enable-background="new 0 0 500 500" viewBox="0 0 500 500" xmlns="http://www.w3.org/2000/svg"><g><path d="m309.645 475-220.094-127.068.002-184.162 220.094 127.068z" fill="#e09c51"/><path d="m254.363 276.315v147.037l-150.924-87.147.038-146.998 9.644 5.566z" fill="#c48847"/><path d="m254.363 276.315v136.477l-16.266-6.159-120.887-73.024c-2.538-1.465-4.125-4.15-4.184-7.081l-2.301-113.843 2.396-17.913z" fill="#c6d6a5"/><path d="m235.795 272.665-113.781-65.689c-6.252-3.609-11.32-.683-11.32 6.535l-.002 106.769c0 7.219 5.068 15.997 11.32 19.606l113.781 65.689c6.252 3.61 11.32.683 11.32-6.535l.001-106.769c.001-7.219-5.067-15.997-11.319-19.606z" fill="#b5ebda"/><path d="m116.868 236.025c.977-3.604.94-8.054 4.346-10.441 6.452-4.522 17.057 1.521 22.915 4.271 3.727 1.75 9.849 5.563 14.578 5.146l-33.052-19.082c-6.252-3.609-11.32-.683-11.32 6.535v18.046c.594.598 1.423-.38 2.533-4.475z" fill="#ccffef"/><path d="m293.609 405.366-23.875-13.784c-1.386-.8-2.509-2.745-2.509-4.346s1.123-2.249 2.509-1.449l23.875 13.784c1.387.8 2.509 2.745 2.509 4.346s-1.123 2.25-2.509 1.449zm9.119 10.209c0-1.601-1.123-3.546-2.509-4.346l-37.094-21.415c-1.386-.8-2.509-.152-2.509 1.448 0 1.601 1.123 3.546 2.509 4.346l37.094 21.416c1.386.801 2.509.152 2.509-1.449zm2.736 9.393c0-1.601-1.123-3.546-2.509-4.346l-42.566-24.575c-1.386-.8-2.509-.152-2.509 1.449s1.123 3.546 2.509 4.346l42.566 24.575c1.386.8 2.509.152 2.509-1.449zm.395 8.07c0-1.601-1.123-3.546-2.509-4.346l-43.356-25.031c-1.386-.8-2.509-.152-2.509 1.449s1.123 3.546 2.509 4.346l43.356 25.031c1.386.8 2.509.152 2.509-1.449zm-1.815 6.794c0-1.601-1.123-3.546-2.509-4.346l-39.727-22.936c-1.386-.8-2.509-.152-2.509 1.449s1.123 3.546 2.509 4.346l39.726 22.935c1.387.801 2.51.153 2.51-1.448zm-4.767 5.061c0-1.601-1.123-3.546-2.509-4.346l-30.168-17.417c-1.386-.8-2.509-.152-2.509 1.449s1.123 3.546 2.509 4.346l30.168 17.417c1.386.8 2.509.152 2.509-1.449z" fill="#7d572d"/><g fill="#3b2915"><path d="m296.768 440.547-30.168-17.417-.004-.001-.001.004c0 1.601 1.123 3.546 2.509 4.346l30.168 17.417.004.001.001-.004c0-1.601-1.123-3.546-2.509-4.346z"/><path d="m262.893 400.396 42.566 24.575.003.001.001-.004c0-1.601-1.123-3.546-2.509-4.346l-42.566-24.575-.004-.001v.004c0 1.6 1.123 3.545 2.509 4.346z"/><path d="m303.349 428.692-43.356-25.031c-.001-.001-.003-.001-.003-.001s-.002.002-.002.003c0 1.601 1.123 3.546 2.509 4.346l43.356 25.031c.001.001.002.001.004.001 0-.001.001-.002.001-.002.001-1.602-1.122-3.547-2.509-4.347z"/><path d="m301.535 435.486-39.727-22.935c-.001-.001-.002 0-.002 0s-.003.002-.003.003c0 1.601 1.123 3.546 2.509 4.346l39.726 22.935.004.002v-.004c.002-1.602-1.121-3.547-2.507-4.347z"/><path d="m272.239 390.136 23.875 13.784.004.002s0-.003 0-.004c0-1.601-1.123-3.546-2.509-4.347l-23.875-13.784s-.003 0-.004-.001v.004c0 1.601 1.123 3.546 2.509 4.346z"/><path d="m265.63 394.162 37.094 21.416s.002 0 .004.001c0-.001 0-.003 0-.003 0-1.602-1.123-3.547-2.509-4.348l-37.094-21.415c-.001-.001-.003-.001-.003-.001 0 .001-.001.002-.001.002 0 1.603 1.122 3.548 2.509 4.348z"/></g><g fill="#d6bd80"><path d="m277.455 355.716c-3.013-1.739-7.698-6.111-11.084-4.203-3.754 2.117-2.75 10.197.409 12.583 2.506 1.892 7.907 5.9 10.906 4.306 1.57-.834 2.148-1.507 2.257-3.379.177-3.024.578-7.536-2.488-9.307z"/><path d="m277.455 339.489c-3.012-1.739-7.699-6.112-11.084-4.203-3.755 2.117-2.749 10.198.41 12.583 2.506 1.892 7.906 5.9 10.905 4.306 1.57-.834 2.148-1.506 2.258-3.379.176-3.025.577-7.537-2.489-9.307z"/><path d="m277.454 371.944c-3.012-1.739-7.698-6.112-11.083-4.203-3.755 2.116-2.75 10.197.409 12.583 2.505 1.892 7.906 5.9 10.906 4.306 1.57-.834 2.148-1.507 2.257-3.379.177-3.025.578-7.537-2.489-9.307z"/><path d="m296.789 366.879c-3.013-1.74-7.698-6.112-11.084-4.203-3.754 2.117-2.749 10.198.409 12.583 2.506 1.892 7.906 5.9 10.906 4.306 1.57-.834 2.148-1.506 2.257-3.379.177-3.025.579-7.536-2.488-9.307z"/><path d="m296.79 350.652c-3.012-1.739-7.699-6.112-11.084-4.203-3.755 2.117-2.75 10.198.409 12.583 2.506 1.893 7.906 5.9 10.906 4.306 1.57-.834 2.148-1.506 2.257-3.379.177-3.025.578-7.537-2.488-9.307z"/><path d="m296.789 383.107c-3.012-1.739-7.699-6.112-11.084-4.203-3.754 2.117-2.75 10.198.409 12.583 2.505 1.892 7.906 5.9 10.906 4.306 1.57-.834 2.148-1.506 2.257-3.379.177-3.025.579-7.537-2.488-9.307z"/><path d="m293.113 334.506c5.224-2.936 7.567-7.044 7.313-13.289-.394-9.69-5.95-19.729-13.419-25.79-5.359-4.349-11.435-6.051-17.424-2.294-8.066 5.06-5.462 16.912-2.181 24.14 3.591 7.913 15.26 23.447 25.711 17.233z"/></g><path d="m297.959 323.667c0 10.735-7.537 15.086-16.834 9.719s-16.833-18.421-16.833-29.156 7.536-15.086 16.833-9.719c9.298 5.367 16.834 18.421 16.834 29.156zm-22.993 17.259-8.186-4.726c-1.374-.793-2.488-.15-2.488 1.437v5.922c0 1.587 1.115 3.517 2.489 4.31l8.186 4.726c1.374.794 2.488.15 2.488-1.437v-5.922c0-1.587-1.115-3.516-2.489-4.31zm19.335 11.163-8.185-4.726c-1.375-.793-2.489-.15-2.489 1.437v5.922c0 1.587 1.114 3.517 2.488 4.31l8.186 4.726c1.374.794 2.489.15 2.489-1.437v-5.922c0-1.587-1.114-3.517-2.489-4.31zm-19.335 5.064-8.185-4.726c-1.375-.794-2.489-.15-2.489 1.437v5.922c0 1.587 1.114 3.517 2.488 4.31l8.186 4.726c1.374.793 2.489.15 2.489-1.437v-5.922c0-1.586-1.115-3.516-2.489-4.31zm19.335 11.163-8.186-4.726c-1.374-.793-2.488-.15-2.488 1.437v5.922c0 1.587 1.115 3.517 2.489 4.311l8.186 4.726c1.374.794 2.488.151 2.488-1.436v-5.922c-.001-1.589-1.115-3.519-2.489-4.312zm-19.335 5.065-8.186-4.726c-1.374-.794-2.488-.15-2.488 1.436v5.922c0 1.587 1.114 3.517 2.488 4.31l8.186 4.726c1.374.793 2.488.15 2.488-1.437v-5.922c0-1.586-1.114-3.516-2.488-4.309zm19.335 11.163-8.185-4.726c-1.375-.793-2.489-.15-2.489 1.437v5.922c0 1.587 1.114 3.517 2.488 4.31l8.186 4.726c1.374.794 2.489.151 2.489-1.436v-5.922c-.001-1.588-1.115-3.518-2.489-4.311z" fill="#ebdcbb"/><path d="m288.595 300.837-18.865 20.73 4.937 6.617 19.238-19.467c-1.61-3.208-3.245-6.083-5.31-7.88z" fill="#d6bd80"/><path d="m282.127 306.976-18.865 20.73 3.694 4.088 19.238-19.467c-1.61-3.208-2.002-3.554-4.067-5.351z" fill="#ebdcbb"/><path d="m282.127 306.976-18.865 20.73 19.295-20.235 6.037-6.634z" fill="#ffefcb"/><path d="m293.905 308.717-7.712 3.61-19.237 19.467 7.711-3.61z" fill="#d6bd80"/><path d="m410.447 416.803-100.802 58.197.002-184.162 100.802-58.196z" fill="#c48847"/><path d="m410.449 232.642-100.802 58.196-220.094-127.068 100.802-58.196z" fill="#f5aa59"/><path d="m287.806 176.379c20.879 12.055 20.879 31.6 0 43.655s-54.731 12.055-75.61 0-20.879-31.6 0-43.655 54.731-12.055 75.61 0z" fill="#b2b78d"/><path d="m288.132 167.209c20.758 16.7 20.574 37.724-.49 48.825s-55.074 10.68-75.88-.669c-20.805-11.349-20.862-32.568.197-49.039s55.415-15.817 76.173.883z" fill="#ced4a3"/><path d="m391.073 102.1c-.397 2.814-16.381 10.508-19.148 12.284-6.383 4.094-12.766 8.189-19.148 12.283-13.141 8.43-26.282 16.859-39.422 25.289-11.77 7.55-23.321 15.418-34.848 23.145-9.309 6.24-17.941 15.828-7.57 25.792 10.555 10.132 24.366-4.627 31.857-11.049 10.152-8.702 20.304-17.405 30.455-26.108 17.907-15.351 35.814-30.702 53.721-46.052.331-.285 6.448-5.626 6.5-5.572-.005-.005-3.375-3.514-3.375-3.514s.978-6.496.978-6.498z" fill="#b2b78d"/><path d="m400.899 97.104c5.307 4.32 6.189 12.023 1.971 17.205-4.218 5.181-11.941 5.88-17.247 1.559-5.307-4.32-6.189-12.023-1.971-17.205s11.94-5.88 17.247-1.559z" fill="#ced4a3"/><path d="m169.348 38.262c2.633 1.068 6.217 18.442 7.267 21.557 2.422 7.186 4.845 14.372 7.268 21.557 4.987 14.794 9.975 29.588 14.962 44.383 4.467 13.251 9.296 26.366 13.993 39.424 1.462 4.066 1.721 6.641 6.559 6.116 3.296-.357 6.792-1.548 9.773-2.99 3.741-1.809 8.891-3.976 9.862-8.569.934-4.418-4.027-10.599-5.996-14.538-5.978-11.961-11.956-23.921-17.934-35.883-10.544-21.098-21.089-42.196-31.633-63.293-.195-.391-3.892-7.621-3.828-7.658-.006.004-4.228 2.421-4.228 2.421z" fill="#b2b78d"/><path d="m166.886 27.517c5.479-4.099 13.166-3.085 17.169 2.265 4.002 5.35 2.805 13.01-2.674 17.11-5.48 4.099-13.166 3.085-17.169-2.265s-2.805-13.01 2.674-17.11z" fill="#ced4a3"/></g></svg>