<svg id="Layer_1" enable-background="new 0 0 512 512" viewBox="0 0 512 512" xmlns="http://www.w3.org/2000/svg"><g clip-rule="evenodd" fill-rule="evenodd"><path d="m31.566 314.93h448.869v67.556h-448.869z" fill="#aeafb0"/><g fill="#818181"><path d="m122.662 382.486c-7.256 0-14.35 0-21.605 0 0-13.544 0-14.511 0-28.054 0-5.965 4.837-10.802 10.803-10.802 5.965 0 10.802 4.837 10.802 10.802zm-29.989 0c-7.256 0-14.511 0-21.605 0 0-13.544 0-14.511 0-28.054 0-5.965 4.837-10.802 10.802-10.802 5.805 0 10.803 4.837 10.803 10.802zm-30.151 0c-7.094 0-14.35 0-21.444 0 0-13.544 0-14.511 0-28.054 0-5.965 4.837-10.802 10.641-10.802 5.966 0 10.803 4.837 10.803 10.802zm8.545-60.3h21.605v10.48c-7.256 0-14.511 0-21.605 0 0-3.547 0-6.933 0-10.48zm29.99 0h21.605v10.48h-21.605zm-59.979 0h21.444v10.48h-21.444z"/><path d="m25.6 382.486h460.8v9.513h-460.8z"/><path d="m26.084 307.191h459.832v7.739h-459.832z"/></g><path d="m131.529 291.713h249.103v90.773h-249.103z" fill="#c3c4c4"/><path d="m127.982 280.104h256.036v11.609h-256.036z" fill="#aeafb0"/><path d="m174.095 291.713h163.811v90.773h-163.811z" fill="#d8d9d9"/><path d="m189.089 251.889h133.822v28.216h-133.822z" fill="#d8d9d9"/><path d="m186.832 246.891h138.498v4.998h-138.498z" fill="#aeafb0"/><path d="m186.832 237.055h138.498v4.837h-138.498z" fill="#aeafb0"/><path d="m189.089 241.892h133.983v4.998h-133.983z" fill="#c3c4c4"/><path d="m197.312 218.353h117.538v18.702h-117.538z" fill="#d8d9d9"/><path d="m195.538 213.677h120.924v4.676h-120.924z" fill="#aeafb0"/><path d="m242.134 163.373c-26.603 10.157-34.342 28.86-36.116 50.304h99.964c-1.774-21.444-9.513-40.147-35.955-50.304z" fill="#d8d9d9"/><path d="m214.241 213.677h7.739v-14.511c0-2.257-1.774-4.031-3.87-4.031-2.096 0-3.869 1.774-3.869 4.031zm12.576 0h7.901v-26.603c0-2.096-1.774-3.87-4.031-3.87-2.096 0-3.869 1.774-3.869 3.87v26.603zm12.738 0h7.739v-32.408c0-2.096-1.774-3.869-3.869-3.869-2.096 0-3.869 1.774-3.869 3.869v32.408zm12.576 0h7.739v-38.212c0-2.096-1.774-3.869-3.87-3.869-2.096 0-3.869 1.774-3.869 3.869zm12.737 0h7.74v-32.408c0-2.096-1.774-3.869-3.87-3.869-2.257 0-3.87 1.774-3.87 3.869zm12.576 0h7.739v-26.603c0-2.096-1.774-3.87-3.87-3.87-2.096 0-3.87 1.774-3.87 3.87v26.603zm12.576 0h7.739v-14.511c0-2.257-1.613-4.031-3.87-4.031-2.096 0-3.87 1.774-3.87 4.031v14.511z" fill="#c3c4c4"/><path d="m240.683 159.342h30.796v4.031h-30.796z" fill="#c3c4c4"/><path d="m245.682 142.573h20.799v16.768h-20.799z" fill="#d8d9d9"/><path d="m244.069 138.543h23.862v4.031h-23.862z" fill="#c3c4c4"/><path d="m471.405 382.486c-7.094 0-14.35 0-21.444 0 0-13.544 0-14.511 0-28.054 0-5.965 4.837-10.802 10.803-10.802 5.804 0 10.641 4.837 10.641 10.802zm-29.988 0c-7.094 0-14.35 0-21.605 0 0-13.544 0-14.511 0-28.054 0-5.965 4.998-10.802 10.802-10.802 5.966 0 10.803 4.837 10.803 10.802zm-29.99 0c-7.255 0-14.35 0-21.605 0 0-13.544 0-14.511 0-28.054 0-5.965 4.837-10.802 10.802-10.802 5.966 0 10.802 4.837 10.802 10.802.001 13.544.001 14.511.001 28.054zm8.385-60.3h21.605v10.48c-7.094 0-14.35 0-21.605 0 0-3.547 0-6.933 0-10.48zm30.15 0h21.444v10.48h-21.444zm-60.14 0h21.605v10.48h-21.605z" fill="#818181"/><path d="m222.142 251.889h8.062v28.216c-2.741 0-5.321 0-8.062 0 0-9.352 0-18.704 0-28.216zm19.992 0h7.9v28.216c-2.58 0-5.32 0-7.9 0 0-9.352 0-18.704 0-28.216zm19.832 0h8.062v28.216c-2.741 0-5.32 0-8.062 0 0-9.352 0-18.704 0-28.216zm19.993 0h8.061v28.216c-2.741 0-5.482 0-8.061 0 0-9.352 0-18.704 0-28.216zm19.831 0h8.062v28.216h-8.062zm-99.641 0h8.062v28.216h-8.062z" fill="#c3c4c4"/><path d="m216.66 218.353h5.804v18.702c-1.935 0-3.869 0-5.804 0 0-6.287 0-12.414 0-18.702zm12.253 0h5.804v18.702c-1.935 0-3.869 0-5.804 0 0-6.287 0-12.414 0-18.702zm12.093 0h5.804v18.702c-1.935 0-3.869 0-5.804 0 0-6.287 0-12.414 0-18.702zm12.092 0h5.805v18.702c-1.935 0-3.87 0-5.805 0 0-6.287 0-12.414 0-18.702zm12.254 0h5.804v18.702c-1.935 0-3.87 0-5.804 0 0-6.287 0-12.414 0-18.702zm12.092 0h5.804v18.702c-1.935 0-3.869 0-5.804 0 0-6.287 0-12.414 0-18.702zm12.093 0h5.804v18.702c-1.935 0-3.869 0-5.804 0 0-6.287 0-12.414 0-18.702zm12.092 0h5.966v18.702h-5.966zm-97.061 0h5.804v18.702h-5.804z" fill="#c3c4c4"/><path d="m180.544 374.909h19.671v7.578h-19.671z" fill="#c3c4c4"/><path d="m185.22 299.452h10.319v75.457h-10.319z" fill="#aeafb0"/><path d="m180.544 291.713h19.671v7.739h-19.671z" fill="#c3c4c4"/><path d="m310.98 374.909h19.67v7.578h-19.67z" fill="#c3c4c4"/><path d="m315.656 299.452h10.319v75.457h-10.319z" fill="#aeafb0"/><path d="m310.98 291.713h19.67v7.739h-19.67z" fill="#c3c4c4"/><path d="m284.861 374.909h19.67v7.578c-6.449 0-13.059 0-19.67 0 0-2.58 0-4.999 0-7.578z" fill="#c3c4c4"/><path d="m289.698 374.909h10.157c0-25.152 0-50.304 0-75.457-3.386 0-6.772 0-10.157 0z" fill="#aeafb0"/><path d="m284.861 291.713h19.67v7.739c-6.449 0-13.059 0-19.67 0 0-2.58 0-5.159 0-7.739z" fill="#c3c4c4"/><path d="m258.903 374.909h19.509v7.578c-6.45 0-13.06 0-19.509 0 0-2.58 0-4.999 0-7.578z" fill="#c3c4c4"/><path d="m263.578 374.909h10.157c0-25.152 0-50.304 0-75.457-3.386 0-6.771 0-10.157 0z" fill="#aeafb0"/><path d="m258.903 291.713h19.509v7.739c-6.45 0-13.06 0-19.509 0 0-2.58 0-5.159 0-7.739z" fill="#c3c4c4"/><path d="m232.783 374.909h19.67v7.578c-6.61 0-13.221 0-19.67 0 0-2.58 0-4.999 0-7.578z" fill="#c3c4c4"/><path d="m237.458 374.909h10.158c0-25.152 0-50.304 0-75.457-3.386 0-6.772 0-10.158 0z" fill="#aeafb0"/><path d="m232.783 291.713h19.67v7.739c-6.61 0-13.221 0-19.67 0 0-2.58 0-5.159 0-7.739z" fill="#c3c4c4"/><path d="m206.663 374.909h19.671v7.578c-6.611 0-13.221 0-19.671 0 0-2.58 0-4.999 0-7.578z" fill="#c3c4c4"/><path d="m211.339 374.909h10.158c0-25.152 0-50.304 0-75.457-3.386 0-6.772 0-10.158 0z" fill="#aeafb0"/><path d="m206.663 291.713h19.671v7.739c-6.611 0-13.221 0-19.671 0 0-2.58 0-5.159 0-7.739z" fill="#c3c4c4"/><path d="m153.296 303.805c5.32 0 9.674 4.353 9.674 9.674v39.502h-19.187v-39.502c0-5.321 4.354-9.674 9.513-9.674zm-9.513 56.754h19.187v14.672h-19.187z" fill="#aeafb0"/><path d="m359.027 303.805c5.32 0 9.513 4.353 9.513 9.674v39.502h-19.026v-39.502c0-5.321 4.192-9.674 9.513-9.674zm-9.513 56.754h19.026v14.672h-19.026z" fill="#aeafb0"/><path d="m256 120.001-9.512 18.542h9.512 9.513z" fill="#989898"/></g></svg>