<svg id="Layer_1" enable-background="new 0 0 500 500" viewBox="0 0 500 500" xmlns="http://www.w3.org/2000/svg"><g><path d="m475 250.035c-2.028 49.842-11.781 103.956-69.174 162.299-6.559 6.689-31.113 29.732-71.677 46.433-34.177 14.068-63.133 15.406-80.437 16.226-22.44-.475-47.857-1.036-84.019-14.715-41.254-15.621-68.484-41.254-71.462-44.146-13.507-13.032-48.116-46.562-64.427-103.654-5.006-17.348-8.285-36.939-8.76-58.774-.044-1.252-.044-2.547-.044-3.798.906-21.879 2.978-73.144 36.033-122.166 27.575-40.823 62.788-69.951 104.776-86.522 51.568-20.368 106.674-21.188 156.3-4.445 34.35 11.565 66.067 31.588 92.089 59.335 26.841 28.611 59.206 77.891 60.759 150.13 0 1.294.043 2.546.043 3.797z" fill="#f7deb2"/><g fill="#fce9c5"><path d="m331.973 276.819c-2.692 14.119-3.612 24.366-16.503 32.492-8.592 5.416-19.98 9.198-29.404 13.261-12.76 5.501-26.754 7.986-40.012 12.031-3.429 1.046-7.753 1.906-11.317 1.242-5.112-.952-8.385-4.57-12.533-7.392-13.613-9.258-28.808-15.458-42.076-25.623-7.751-5.939-15.349-10.875-17.316-20.835-3.665-18.557-1.006-37.883 2.055-56.325 2.832-17.054 7.503-31.302 22.825-41.385 15.59-10.258 33.788-15.746 50.945-22.036 7.752-2.842 18.755-6.012 27.286-4.474 7.222 1.301 13.303 7.02 19.246 11.275 6.598 4.725 13.522 8.833 20.401 13.16 6.57 4.134 10.645 8.679 15.182 14.386 4.12 5.182 10.25 8.68 13.969 14.126 5.782 8.468 2.272 22.122 1.39 31.775-1.065 11.673-1.952 22.861-4.138 34.322z"/><path d="m435.999 221.467c-6.477-4.884-6.423-18.635-7.275-25.877-1.667-14.161-6.179-28.418-5.32-42.775 7.937 9.941 10.706 23.365 12.447 35.658.41 2.891.762 32.259.148 32.994z"/><path d="m373.331 378.329c-6.171 6.257-29.258 27.92-67.363 43.628-15.395 6.344-38.365 15.564-55.472 13.835-21.196-2.142-15.516-18.145-11.559-32.896 3.423-12.763 4.029-33.422 14.423-42.782 13.841-12.465 35.564-17.461 51.064-28.185 8.407-5.817 19.818-14.826 30.684-14.355 10.721.464 17.549 7.394 26.796 11.853 8.375 4.038 22.311 6.01 27.486 14.642 7.704 12.85-8.219 26.289-16.059 34.26z"/><path d="m79.533 346.664c1.375 4.207 1.976 8.391 3.052 14.339 1.357 7.503 7.996 14.212 7.115 22.013-10.141-.101-21.301-17.09-27.089-24.188-11.531-14.141-21.29-29.718-28.808-46.35-5.456-12.071-6.085-27.524 8.686-33.33 3.028 10.118 10.922 20.092 16.272 29.303 5.493 9.455 10.371 18.986 16.059 28.308 2.303 3.773 3.713 6.845 4.713 9.905z"/><path d="m382.272 93.363c-9.106-6.179-19.313-11.237-28.652-15.302-8.03-3.495-16.966-2.231-25.581-1.79-16.043.823-32.984-3.379-48.565 2.141-9.577 3.393-10.242 7.818-10.718 17.404-.486 9.785-1.3 19.683-.712 29.485.9 14.949 15.92 23.784 26.786 31.556 9.953 7.119 19.067 15.327 28.739 22.781 8.767 6.757 19.382 19.713 31.043 20.087 6.739.215 11.09-3.398 17.078-5.4 5.836-1.95 12.852-3.078 18.992-4.605 5.234-1.303 12.6-1.538 17.347-4.265 2.738-1.573 1.596.677 3.611-3.089 6.42-12.001 3.589-26.645.48-39.173-3.088-12.445-5.271-26.514-14.09-36.395-4.438-4.972-9.868-9.438-15.758-13.435z"/><path d="m322.109 36.773c9.711 4.885 14.637 9.902 8.967 21.271-14.29-.561-28.567.676-42.731 2.481-12.006 1.529-25.071 5.252-37.204 3.471-17.141-2.517-34.054-6.372-51.194-8.892-5.849-.86-37.856.844-33.027-12.616 1.465-4.086 11.316-5.81 14.842-6.917 15.522-4.871 31.554-8.111 47.755-9.605 15.863-1.462 31.878-1.25 47.695.652 14.177 1.704 31.987 3.662 44.897 10.155z"/><path d="m154.358 59.637c-.257.488-.549.921-.877 1.276-14.668 15.922-29.439 31.705-41.993 49.72-3.947 5.664-7.287 9.19-12.828 12.94-12.266 8.302-24.147 19.485-35.021 29.798-2.493 2.364-12.957 17.518-16.398 16.962-13.615-2.198 10.739-38.065 13.793-42.595 14.883-22.033 32.965-41.972 54.187-58.058 7.374-5.589 14.391-11.82 22.657-16.11 6.457-3.352 23.811-7.866 16.48 6.067z"/></g><path d="m277.703 107.776c6.338 10.099 16.052 31.908 8.724 43.663-5.076-2.419-12.505-7.832-15.466-12.658-3.677-5.994-3.117-13.387-2.646-20.094.192-2.732 2.297-20.763.926-21.388 4.14 1.887 6.181 6.842 8.462 10.477z" fill="#fec"/><path d="m259.427 153.32c9.018-2.145 12.945 8.97 17.553 14.307 2.519 2.918 3.701 4.46 3.448 8.063-1.726 24.587-24.873 44.058-44.14 56.148-16.068 10.084-34.516 16.535-53.481 17.888-6.445.46-17.236 2.82-19.01-4.724-1.723-7.326.529-19.484 1.332-27.08 1.572-14.858 3.318-26.843 18.799-31.667 18.572-5.787 35.408-15.439 53.113-23.149 4.705-2.049 9.721-3.63 14.298-5.956 2.796-1.423 5.365-3.182 8.088-3.83z" fill="#fec"/><path d="m106.563 215.173c-7.423-11.829-10.977-25.695-10.728-39.621.203-11.296 2.338-31.496 11.52-39.598-1.416 1.25 35.918 44.547 39.882 49.104 5.536 6.367 4.36 15.476 5.238 23.216 1.135 10.016 2.21 21.665-1.869 31.171-7.43 17.314-38.906-16.085-44.043-24.272z" fill="#fec"/><path d="m79.632 318.06c11.403 4.56 25.93-6.659 34.757-12.528 9.844-6.545 24.977-12.209 29.415-24.04 3.549-9.459 4.739-23.665 5.367-33.674 1.084-17.289 6.015-37.474 3.666-54.838-1.396-10.317-42.679-65.966-48.809-55.151-5.532 1.45-11.37 9.156-14.991 13.348-5.547 6.421-11.52 12.295-17.434 18.333-3.502 3.575-8.171 6.643-10.316 11.369-5.458 12.023-4.741 25.41-5.328 38.292-.307 6.735-.401 13.326-.732 19.951-.777 15.537-3.189 31.962 2.939 46.496 3.93 9.32 11.111 28.3 21.466 32.442z" fill="#fce9c5"/><path d="m421.649 193.595 1.407-.306-.114-1.436c-1.855-23.315-4.387-47.121-6.836-70.143l-1.3-12.252-.521-.429c-23.725-19.529-46.939-33.55-73.053-44.121l-.378-.153-.406.041c-10.401 1.052-21.016 1.992-31.282 2.9-16.421 1.453-33.4 2.956-50.172 4.975l-1.589.191.144 1.594c2.017 22.37 2.702 44.986 3.365 66.856l.076 2.481c-35.383 10.994-66.98 23.142-96.508 37.104-16.91-16.498-34.408-34.003-54.982-55.006l-1.021-1.043-3.133 2.398c-19.546 14.95-41.7 31.894-54.916 56.187l-.174.32-.023.363c-1.617 25.361-2.935 53.007-4.032 84.514l-.009.261.072.251c7.68 26.792 21.663 49.392 35.63 69.824l.946 1.383 1.368-.967c21.906-15.496 44.341-30.57 66.702-44.821 23.481 18.223 54.377 41.409 87.31 61.223-6.244 25.249-12.701 51.357-19.812 77.109l-.425 1.537 1.522.476c21.057 6.588 48.99 14.659 78.318 18.624l.308.042.302-.073c27.275-6.607 53.825-16.21 83.555-30.225l.543-.256.251-.545c12.219-26.513 20.277-53.054 28.125-80.177l.387-1.337-14.343-6.932c-18.261-8.82-37.128-17.936-55.625-27.176 4-30.232 7.059-61.866 9.34-96.615 24.059-5.868 47.609-11.554 70.983-16.641zm-83.632 113.129c-2.496 1.268-4.958 2.505-7.429 3.749-1.698.855-3.416 1.729-5.102 2.573-2.64 1.321-5.245 2.607-7.858 3.901-1.622.803-3.263 1.625-4.875 2.419-2.734 1.346-5.434 2.655-8.141 3.973-1.461.711-2.94 1.44-4.395 2.144-4.133 1.998-8.236 3.965-12.314 5.901-1.057.502-2.099.985-3.152 1.483-3.022 1.428-6.043 2.855-9.039 4.25-1.568.73-3.118 1.436-4.68 2.158-2.465 1.139-4.937 2.286-7.387 3.405-1.638.747-3.26 1.472-4.892 2.211-2.357 1.067-4.72 2.142-7.066 3.191-1.655.74-3.299 1.459-4.949 2.19-2.172.963-4.347 1.931-6.512 2.878-32.993-19.82-63.995-43.106-87.501-61.352.087-.946.176-1.894.264-2.842.102-1.096.203-2.191.307-3.289.092-.967.187-1.937.281-2.906.119-1.228.236-2.456.358-3.687.083-.839.169-1.681.253-2.521.136-1.359.271-2.718.411-4.081.074-.725.152-1.453.227-2.18.153-1.474.305-2.948.461-4.427.066-.628.136-1.26.203-1.889.169-1.581.338-3.163.512-4.75.051-.464.104-.931.155-1.395.193-1.753.387-3.507.586-5.267.025-.218.05-.438.076-.656.964-8.502 1.994-17.092 3.095-25.797.017-.139.034-.276.052-.415.196-1.547.397-3.103.598-4.657.095-.742.189-1.481.285-2.225.172-1.324.35-2.657.525-3.987.13-.987.258-1.971.39-2.962.163-1.22.33-2.449.495-3.674.149-1.105.296-2.206.447-3.315.161-1.182.327-2.373.491-3.561.16-1.162.319-2.319.481-3.486.167-1.196.338-2.401.508-3.602.164-1.16.326-2.317.492-3.483.171-1.199.347-2.408.521-3.613.151-1.049.301-2.095.454-3.148 29.577-14 61.248-26.171 96.757-37.185.9.604 1.792 1.206 2.687 1.809.952.641 1.908 1.282 2.853 1.923.978.663 1.944 1.324 2.916 1.987.953.649 1.911 1.299 2.858 1.948.983.674 1.954 1.347 2.93 2.02.921.635 1.846 1.27 2.761 1.906.984.683 1.956 1.365 2.933 2.048.899.628 1.804 1.257 2.698 1.885.957.673 1.903 1.346 2.854 2.018.901.637 1.807 1.274 2.703 1.911.957.681 1.904 1.363 2.855 2.044.877.628 1.76 1.257 2.632 1.885.993.716 1.976 1.432 2.962 2.148 1.283.931 2.563 1.863 3.835 2.795 1.322.968 2.644 1.936 3.955 2.906.737.544 1.464 1.09 2.197 1.635 1.035.77 2.074 1.539 3.103 2.31.775.581 1.542 1.163 2.313 1.745.977.737 1.958 1.473 2.929 2.21.791.601 1.573 1.203 2.361 1.804.941.719 1.886 1.438 2.822 2.158.773.595 1.538 1.191 2.307 1.787.947.733 1.896 1.465 2.837 2.199.734.573 1.462 1.147 2.192 1.721.965.757 1.932 1.513 2.891 2.271.738.583 1.469 1.169 2.203 1.753.942.749 1.887 1.498 2.823 2.249.745.597 1.484 1.197 2.226 1.795.92.742 1.842 1.483 2.758 2.227.744.605 1.483 1.212 2.224 1.818.792.647 1.585 1.294 2.374 1.943-2.289 34.94-5.36 66.709-9.385 97.068zm-28.561-235.744c10.142-.898 20.625-1.825 30.916-2.863 25.451 10.347 48.132 24.035 71.297 43.03l1.158 10.91c2.396 22.528 4.873 45.809 6.713 68.622-23.071 5.043-46.299 10.654-70.028 16.442-.726-.597-1.459-1.191-2.187-1.788-.82-.67-1.636-1.341-2.459-2.009-.856-.696-1.719-1.389-2.58-2.083-.803-.647-1.602-1.295-2.408-1.941-.903-.724-1.813-1.445-2.721-2.167-.771-.614-1.54-1.229-2.314-1.841-.93-.735-1.867-1.468-2.801-2.201-.766-.601-1.528-1.203-2.297-1.803-.967-.755-1.944-1.507-2.917-2.261-.741-.573-1.477-1.147-2.221-1.72-1.042-.803-2.095-1.604-3.144-2.405-.685-.523-1.366-1.047-2.054-1.57-1.23-.935-2.471-1.867-3.71-2.8-.513-.386-1.02-.772-1.534-1.157-3.533-2.648-7.105-5.29-10.72-7.929-.176-.129-.355-.257-.532-.386-1.628-1.187-3.262-2.374-4.908-3.56-.5-.36-1.006-.719-1.507-1.079-1.328-.954-2.656-1.907-3.995-2.861-.643-.457-1.293-.914-1.938-1.371-1.208-.856-2.415-1.712-3.633-2.568-.714-.502-1.438-1.005-2.156-1.507-1.161-.812-2.319-1.624-3.489-2.436-.738-.512-1.486-1.025-2.228-1.537-1.164-.804-2.326-1.608-3.498-2.413-.762-.522-1.533-1.045-2.299-1.567-1.16-.792-2.316-1.582-3.485-2.374-.8-.542-1.609-1.084-2.413-1.626-1.021-.688-2.036-1.376-3.063-2.065l-.088-2.883c-.649-21.4-1.318-43.511-3.235-65.456 16.202-1.921 32.6-3.372 48.478-4.777zm-225.784 264.74c-13.45-19.775-26.773-41.604-34.167-67.237 1.088-31.217 2.395-58.634 3.995-83.794 12.902-23.506 34.651-40.142 53.848-54.825l.816-.624c20.239 20.649 37.515 37.925 54.229 54.228-.177 1.217-.349 2.423-.523 3.634-.148 1.03-.299 2.064-.445 3.09-.198 1.386-.391 2.763-.585 4.141-.14.992-.282 1.988-.42 2.976-.204 1.463-.404 2.917-.604 4.372-.122.885-.246 1.775-.366 2.657-.22 1.613-.435 3.217-.651 4.821-.097.72-.196 1.445-.292 2.164-.253 1.902-.501 3.795-.748 5.685-.054.41-.109.823-.162 1.232-2.111 16.233-3.979 32.044-5.624 47.604-.017.163-.034.325-.051.488-.215 2.037-.427 4.071-.634 6.1-.047.453-.091.905-.137 1.358-.176 1.742-.352 3.483-.523 5.219-.06.613-.118 1.225-.178 1.838-.153 1.566-.305 3.131-.454 4.693-.076.802-.149 1.602-.224 2.403-.114 1.215-.23 2.431-.34 3.644-22.038 14.039-44.15 28.879-65.76 44.133zm323.679 6.995c-7.637 26.346-15.53 52.141-27.315 77.83-29.192 13.726-55.299 23.164-82.079 29.674-28.272-3.852-55.275-11.553-75.947-17.988 6.961-25.312 13.294-50.922 19.423-75.706l.084-.338c1.875-.821 3.762-1.665 5.642-2.497 1.968-.87 3.931-1.73 5.906-2.614 2.023-.904 4.061-1.833 6.092-2.75 1.959-.885 3.91-1.759 5.878-2.656 2.062-.942 4.144-1.91 6.216-2.865 1.957-.902 3.904-1.791 5.87-2.707 2.389-1.112 4.803-2.256 7.209-3.389 2.332-1.099 4.667-2.199 7.015-3.317 3.416-1.627 6.841-3.263 10.296-4.934 1.645-.796 3.317-1.62 4.972-2.426 2.524-1.229 5.039-2.448 7.586-3.702 1.783-.877 3.596-1.785 5.391-2.675 2.448-1.214 4.884-2.415 7.356-3.652 1.891-.946 3.816-1.925 5.721-2.885 2.291-1.154 4.564-2.292 6.877-3.468 18.615 9.302 37.601 18.472 55.972 27.345z" fill="#9c8c6f"/><path d="m150.998 292.544c-23.829 15.147-46.404 30.361-67.708 45.412 11.155 31.518 24.161 62.05 40.019 91.078 31.038 5.32 62.63 5.679 96.546 4.139 7.273-26.115 13.774-52.2 20.256-78.17-30.844-18.465-60.412-40.162-89.113-62.459z" fill="#4a3527"/><path d="m164.605 59.727c-24.199 16.131-40.801 42.192-56.136 67.197 18.11 18.58 36.571 37.239 55.677 55.951 31.647-15.06 64.636-27.402 98.528-37.882-.839-23.461-1.528-47.047-3.879-70.72-31.771-5.774-63.342-10.731-94.19-14.546z" fill="#4a3527"/><path d="m421.181 191.812c-24.108 5.321-48.064 11.184-72.081 17.107-2.161 33.242-5.11 66.202-9.564 98.885 23.232 11.664 46.587 22.894 69.881 34.218 16.8-21.769 28.758-45.632 35.591-70.911-5.611-26.559-14.083-52.821-23.827-79.299z" fill="#4a3527"/><path d="m39.604 170.268c6.827 7.816 12.269 13.951 12.269 13.951l-4.024 84.465-20.767 11.532c-1.33-9.883-2.012-19.976-2.012-30.222.001-28.067 5.146-54.946 14.534-79.726z" fill="#4a3527"/><path d="m381.279 421.783 15.271-1.034c-31.354 26.924-70.217 45.371-113.016 51.748l14.512-20.602z" fill="#4a3527"/><path d="m427.684 111.924-14.445-1.627-72.625-43.865-4.507-24.362c36.289 15.028 67.797 39.291 91.577 69.854z" fill="#4a3527"/><path d="m157.765 44.763c-.506.22-1 .44-1.495.681l6.838 14.963 1.495-.681 1.507-.682-6.838-14.962c-.506.22-1.012.451-1.507.681z" fill="#9c8c6f"/><path d="m445.01 269.464v3.298h28.881c.066-.549.11-1.099.154-1.649.066-.55.11-1.1.154-1.649z" fill="#9c8c6f"/><path d="m122.036 427.983-3.672 4.453c.451.33.901.649 1.352.967.451.319.891.638 1.341.957l3.529-4.277-1.275-1.044z" fill="#9c8c6f"/><path d="m97.209 353.141c-5.316.533-6.264-7.023-5.189-11.075 2.439-9.191 16.654-16.345 23.9-20.889 7.035-4.412 22.078-18.981 30.61-10.992 11.483 10.75-26.266 25.407-32.923 30.941-3.8 3.158-10.168 13.474-16.398 12.015z" fill="#5e4838"/><path d="m30.06 235.099c.047-9.247 1.431-17.619 3.188-26.772 1.35-7.036 1.256-18.4 9.426-21.245 1.806 6.391.466 13.126-.085 19.596-.66 7.76.231 15.696-.673 23.402-.374 3.191-4.214 18.12-11.856 5.019z" fill="#5e4838"/><path d="m133.435 140.47c-8.623-11.077-13.634-20.972-2.303-33.81 6.548-7.418 15.7-30.427 28.153-29.087 4.93 13.362-12.051 30.371-15.039 42.892-2.057 8.621-.124 12.255 3.508 19.384 1.986 3.899 6.091 11.329.612 14.35-4.604 2.539-7.322-4.336-10.162-7.809-1.654-2.024-3.266-3.99-4.769-5.92z" fill="#5e4838"/><path d="m346.722 292.353c-.283-6.519 1.937-13.494 2.827-19.966 1.459-10.594 2.06-21.778 5.303-32.031 3.142-9.931 8.237-28.134 21.665-26.512 4.011 8.976-5.714 26.366-8.603 35.111-4.464 13.51-7.241 27.608-9.475 41.653-.648 4.073-.038 8.742-4.084 10.754-3.258 1.619-6.448 1.045-7.633-9.009z" fill="#5e4838"/></g></svg>