<svg id="Layer_1" enable-background="new 0 0 68 68" height="512" viewBox="0 0 68 68" width="512" xmlns="http://www.w3.org/2000/svg"><g id="_x35_5"><g><g fill="#b0b8cf"><path d="m6.8 19.5c-.8-.8-.8-2-.2-2.6l2.9-2.9c-.1.1-.2.2-.2.3-.4.6-.4 1.6.4 2.3l2.4 2.4c-.3.5-.5 1.1-.7 1.6l-2.8 2.9c.2-.5.5-1.1.7-1.6z"/><path d="m2.3 31.6c0-1.2.9-1.4 3.3-4.1-.3.3-.5.7-.5 1.2 0 .8.5 1.7 1.5 2l3.1 1c.1.6.1 1.2.2 1.8l-2.8 2.9c-.1-.6-.1-1.2-.2-1.8l-3.1-1c-1-.3-1.5-1.2-1.5-2z"/><path d="m11.7 18c.4-.4.7-.9 1.1-1.3l-1.8-2.8c-.5-.9-.3-1.7.1-2.2l2.9-3c-.5.5-.7 1.3-.1 2.2l1.8 2.8c-.4.4-.8.9-1.1 1.3z"/><path d="m17.8 12.8-1-3.1c-.2-.7 0-1.3.3-1.7l2.8-3c-.4.4-.6 1-.3 1.7l1 3.1z"/><path d="m36.2 62.4c.2-.1.3-.2.5-.3l-2.8 2.9c-.9 1-2.9.4-3.3-1.3l-.6-3.2c-.3-.1-.6-.1-.8-.2l-2.7 2.8c-1.1 1.1-3.4.1-3.3-1.8l.2-3.1c-.6-.3-1.1-.6-1.7-.9l-2.1 2.1c-.6.6-1.6.6-2.3.1s-1.2-1.4-.8-2.3l1-2.8c-.5-.4-1-.9-1.5-1.3l-2.6 1.4c-1 .4-1.8.1-2.4-.5-.5-.6-.8-1.6-.2-2.4l1.8-2.4c-.4-.5-.7-1-1.1-1.6l-3 .6c-1 .2-1.8-.4-2.2-1.1-.3-.6-.4-1.5.2-2.1l2.4-2.5c-.2-.4-.3-.8-.5-1.2l-3.2-.2c-1.1-.1-1.7-.9-1.9-1.6-.1-.5-.1-1.2.4-1.6l2.8-2.9c-.5.4-.5 1-.4 1.6.2.7.9 1.5 1.9 1.6l3.2.2c.2.6.4 1.2.7 1.8l-2.8 2.8c-.1-.1-.1-.2-.2-.3-.2.5-.1 1 .2 1.5.4.7 1.2 1.3 2.2 1.1l3-.6c.4.6.7 1.1 1.1 1.6l-1.8 2.4c-.6.8-.3 1.8.2 2.4s1.4 1 2.4.5l2.6-1.4c.5.4 1 .9 1.5 1.3l-1 2.8c-.4 1 .2 1.8.8 2.3.7.5 1.7.6 2.3-.1l2.1-2.1c.6.3 1.1.6 1.7.9l-.2 3.1c-.1 1.7 2 2.8 3.1 1.9-.3-.1-.6-.2-1-.3l2.8-2.9c.6.2 1.2.3 1.8.5l.6 3.2c.4 1.4 1.8 2 2.9 1.6z"/><path d="m26.6 7.5-2.8 2.9-.2-3.2c0-.6.1-1 .4-1.3l2.8-2.9c-.3.3-.5.7-.4 1.3z"/><path d="m7.2 23.3c-1-.6-1.2-1.6-1-2.3.1-.3.2-.5.4-.7l-2.8 2.9c-.7.8-.6 2.2.6 3l2.8 1.8c-.1.5-.2 1.1-.2 1.8l2.8-2.9c.1-.7.1-1.2.3-1.8z"/><path d="m43.5 62.3c.2-.1.4-.2.5-.3l-2.8 2.9c-.8.8-2.5.6-3.1-.8l-1.4-3c-.6 0-1.2 0-1.8 0l2.8-2.9h1.8l1.4 3c.5 1.2 1.7 1.5 2.6 1.1z"/><path d="m50.9 60.1-2.8 2.9c-.7.7-2 .7-2.9-.3l-2.1-2.7c-.6.2-1.1.4-1.7.5l2.8-2.9c.6-.1 1.1-.3 1.7-.5l2.1 2.6c.9 1.1 2.2 1.1 2.9.4z"/><path d="m61.3 51.1-2.8 2.9c-.5.5-1.2.7-2 .3l-3-1.4 2.8-2.9 3 1.4c.8.4 1.6.2 2-.3z"/><path d="m65.3 37.6-2.8 2.9c-.1.1-.3.2-.5.3s-.4.1-.6.1l-3.1.2 2.8-2.9 3.1-.2c.4 0 .8-.1 1.1-.4z"/><path d="m64.2 44.7-2.8 2.9c-.1.1-.3.2-.5.3-.3.1-.6.2-1.1.1l-3.2-.6 2.8-2.9 3.2.6c.6.2 1.2 0 1.6-.4z"/><path d="m37.9 10 1.9-2 1.4-2.7c.1-.1.2-.3.3-.4l-2.8 2.9c-.1.1-.2.2-.3.4l-.9 1.7c-2.3-.5-4.6-.6-6.9-.4l2.5-2.6.6-3c.1-.3.2-.6.4-.8l-2.7 2.9c-.2.2-.3.5-.4.8l-.6 2.7c-12.1 1.2 19.4 3.2 7.5.5z"/><path d="m63.9 30.5-3 1.1-2.2 2.3c-.1-2.2-.6-4.5-1.4-6.8l1.3-1c.1-.1.1-.1.2-.2l2.8-2.9c-.1.1-.1.1-.2.2l-2.5 1.8-1.8 1.9c-.4-1.1-.9-2.2-1.5-3.2-.1-.2-.2-.3-.3-.5 1.1 2.2 1.6 4.5 1.5 7.1.1 2.2-.3 4.3-1.1 6.3v.5l2.8-.8c0-.7 0-1.3 0-2l2.4-.9c.2-.1.4-.2.5-.3l2.8-2.9c0 .1-.1.2-.3.3z"/><path d="m56.8 56.4c-2.5 2.6-2.8 2.9-2.9 3-.6.5-1.5.6-2.4-.1l-2.6-2.1c-.5.3-1 .7-1.5.9l2.8-2.9c.5-.3 1-.6 1.5-.9l2.6 2.1c.9.7 1.9.5 2.5 0z"/></g><g><g enable-background="new"><g><path d="m49.7 27.9c-5.4-10-17.4-14.8-26.9-10.6.9-1 1.9-1.9 2.8-2.9 9.5-4.2 21.6.6 27 10.6-1 1-1.9 1.9-2.9 2.9z" fill="#b0b8cf"/></g><g><path d="m22.8 17.3c-2 .9-3.7 2.1-5.2 3.6 2.1-2 3.8-4.6 8-6.5-3.2 3.4-2.7 2.8-2.8 2.9z" fill="#b0b8cf"/></g><g><path d="m44 39.4-5.4 2c2.2-2.2 2.6-5.8.9-9-2.8-5.2-9.5-6.5-13.1-2.8l3.7-5c.6-.6 1.3-1.1 2.1-1.5 3.9-1.7 12.4 3.6 14.5 7.7 1.8 3.2-.5 6.4-2.7 8.6z" fill="#4c5c75"/></g><g><path d="m47.5 50c5.3-5.4 6.5-14.2 2.2-22.1.9-1 1.9-1.9 2.8-2.9 4.2 7.9 3.1 16.7-2.2 22.1-.8.9-1.9 2-2.8 2.9z" fill="#b0b8cf"/></g><g><path d="m50.4 47.1-2.9 2.9c-8.8 9-25.3 5.7-32.1-7-4.2-7.9-3.1-16.7 2.2-22.1l2.8-2.9c-5.3 5.4-6.4 14.2-2.2 22.1 6.9 12.7 23.4 16 32.2 7z" fill="#606060"/></g><g><path d="m53 49.7-2.8 2.9c-1.7 1.7-3.7 3.2-6.1 4.2-11.2 4.9-25.4-.7-31.7-12.5-5-9.3-3.6-19.7 2.6-26.1l2.8-2.9c-6.2 6.4-7.6 16.8-2.6 26.1 6.3 11.8 20.5 17.4 31.7 12.5 2.4-1 4.4-2.4 6.1-4.2z" fill="#b0b8cf"/></g><g><path d="m23.9 11.1c11.2-4.9 25.4.7 31.7 12.5 6.4 11.8 2.5 25.4-8.7 30.3s-25.4-.7-31.7-12.5c-6.3-11.7-2.4-25.3 8.7-30.3zm17.8 33.1c6.1-2.7 8.2-10.1 4.8-16.5-3.5-6.4-11.2-9.5-17.3-6.8s-8.2 10.1-4.8 16.5c3.5 6.4 11.2 9.5 17.3 6.8" fill="#9ea9c9"/></g><g><path d="m25.7 14.4c9.4-4.2 21.5.6 26.9 10.6s2.1 21.5-7.4 25.7-21.5-.6-26.9-10.6-2.1-21.5 7.4-25.7zm13.7 25.5c3.9-1.7 5.2-6.4 3-10.5s-7.1-6-10.9-4.3c-3.9 1.7-5.2 6.4-3 10.5 2.1 4.1 7 6 10.9 4.3" fill="#e3e7f0"/></g><g><path d="m23.9 11.1c-11.2 4.9-15.1 18.5-8.7 30.3 6.3 11.8 20.5 17.4 31.7 12.5s15.1-18.5 8.7-30.3c-6.3-11.8-20.5-17.4-31.7-12.5z" fill="none"/><path d="m64.2 34.4-3.1-1c0-.6-.1-1.2-.2-1.8l3-1.1c.9-.4 1-1.2.8-1.9-.2-.8-.9-1.6-1.9-1.6l-3.2-.2c-.2-.6-.4-1.2-.7-1.8l2.4-1.8c.8-.6.8-1.6.4-2.3s-1.2-1.3-2.2-1.1l-3 .6c-.3-.5-.7-1-1.1-1.6l1.8-2.4c.6-.8.3-1.8-.2-2.4s-1.4-1-2.4-.5l-2.6 1.5c-.5-.4-1-.9-1.5-1.3l1-2.9c.3-.9-.2-1.8-.8-2.3-.7-.5-1.6-.5-2.3.1l-2.1 2.1c-.6-.3-1.2-.6-1.7-.9l.2-3.1c.1-1-.6-1.8-1.4-2.1s-1.7-.1-2.2.7l-1.3 2.7c-.6-.2-1.2-.3-1.8-.5l-.6-3.2c-.2-1.1-1.1-1.6-1.8-1.7-.8-.1-1.6.3-1.8 1.3l-.6 3c-.6 0-1.2 0-1.8 0l-1.4-3c-.9-1.9-3.7-1.5-3.5.5l.2 3.2c-.8.1-1.4.2-1.9.4l-2.1-2.7c-.7-.9-1.7-1-2.3-.7-.7.3-1.2 1.1-.9 2.1l1 3.1c-.5.3-1 .6-1.5.9l-2.6-2.1c-1.7-1.4-3.7.4-2.6 2.2l1.8 2.8c-.4.4-.8.9-1.1 1.3l-3-1.4c-1-.4-1.8-.1-2.2.6-.4.6-.4 1.6.4 2.3l2.2 2.6c-.3.5-.5 1.1-.7 1.6l-3.2-.6c-1-.2-1.7.3-1.9 1.1-.2.7 0 1.7 1 2.3l2.9 1.8c-.1.5-.2 1.1-.3 1.8l-3.1.2c-1 .1-1.5.8-1.5 1.6s.5 1.7 1.5 2l3.1 1c.1.6.1 1.2.2 1.8l-3 1.1c-.8.4-1 1.2-.9 1.9.2.7.9 1.5 1.9 1.6l3.2.2c.2.6.4 1.2.7 1.8l-2.4 1.8c-.8.6-.8 1.6-.4 2.3s1.2 1.3 2.2 1.1l3-.6c.4.6.7 1.1 1.1 1.6l-1.8 2.4c-.6.8-.3 1.8.2 2.4s1.4 1 2.4.5l2.6-1.4c.5.4 1 .9 1.5 1.3l-1 2.8c-.4 1 .2 1.8.8 2.3.7.5 1.7.6 2.3-.1l2.1-2.1c.6.3 1.1.6 1.7.9l-.2 3c-.1 2 2.6 3.1 3.5 1.4l1.4-2.7c.6.2 1.2.3 1.8.5l.6 3.2c.3 1.4 1.7 2.1 2.8 1.6.4-.2.8-.5.9-1.1l.6-3h1.8l1.4 3c.5 1.1 1.8 1.5 2.6 1.1.5-.2 1-.8.9-1.6l-.2-3.2c.6-.1 1.1-.3 1.7-.5l2.1 2.6c1.3 1.7 3.8.6 3.2-1.4l-1-3.1 1.5-.9 2.6 2.1c1.7 1.4 3.7-.4 2.6-2.2l-1.7-2.8c.4-.4.8-.9 1.1-1.3l3 1.4c1.9.9 3.4-1.4 1.9-2.9l-2.4-2.4c.3-.6.5-1.1.7-1.6l3.2.6c1 .2 1.7-.3 1.9-1.1.2-.7 0-1.7-1-2.3l-2.7-1.8c.1-.6.2-1.2.3-1.8l3.1-.2c1-.1 1.5-.8 1.5-1.6 0-.7-.4-1.7-1.5-2zm-17.3 19.5c-11.2 4.9-25.4-.7-31.7-12.5s-2.4-25.4 8.7-30.3c11.2-4.9 25.4.7 31.7 12.5 6.4 11.8 2.5 25.4-8.7 30.3z" fill="#e3e7f0"/></g></g></g></g><g><path d="m38 17.6c5.1 1.9 8.5 4.4 11.8 9.3-.8-5.3-6.4-9.7-11.8-9.3z" fill="#fff"/></g></g></svg>