<svg id="Layer_1" enable-background="new 0 0 512 512" height="512" viewBox="0 0 512 512" width="512" xmlns="http://www.w3.org/2000/svg"><g><g fill="#0bdaff"><path d="m383.888 287.456c-.015.471-.015.928-.029 1.399-1.605.147-3.21.309-4.814.471-6.876.721-13.766 1.59-20.656 2.267l-11.352 1.148c-4.034.427-8.068.869-12.102 1.34-.294-3.401-.618-6.773-.839-10.07-.309-4.638-.662-9.305-1.104-13.928 2.945.221 5.889.427 8.819.633 2.547.191 5.094.368 7.626.56.78.044 1.56.103 2.341.162 1.207.089 2.4.177 3.592.265 5.065.398 10.203.986 15.356 1.575.869.103 1.738.206 2.606.295 2.459.28 4.903.545 7.347.78 1.089.103 2.164.191 3.254.28.043 4.283.029 8.538-.045 12.823z"/><path d="m147.82 330.55s-.029.618-.074 1.752c-.029.869-.118 1.958-.28 3.298-.059.486-.133.972-.206 1.517-.324 2.046-.78 4.549-1.708 7.273-.913 2.709-2.209 5.713-4.226 8.525-.471.721-1.089 1.354-1.649 2.046-.309.309-.633.618-.942.928l-.486.471-.53.412c-.574.486-1.192.913-1.84 1.266-.927.515-1.899.898-2.915 1.134-.088.015-.177.044-.265.074-.353.088-.707.162-1.06.147l-.545.03h-.118l-.015.015-.294.029h-.044l-.059-.015-.191-.015c-.515-.059-1.104-.089-1.59-.177-.397-.133-.795-.25-1.207-.353-1.752-.633-3.431-1.782-4.873-3.239-1.045-1.016-1.973-2.223-2.783-3.519-.339-.53-.662-1.089-.972-1.649-1.09-1.899-1.884-4.034-2.606-6.184-1.34-4.373-1.973-9.055-1.973-13.737.044-1.075.029-2.429.118-3.548.118-1.148.147-2.267.368-3.416l.25-1.737.353-1.679c.221-1.148.589-2.238.883-3.342.707-2.164 1.516-4.285 2.606-6.184.206-.368.412-.736.618-1.104.898-1.517 1.914-2.93 3.121-4.078 1.457-1.458 3.106-2.606 4.888-3.239.206-.059.412-.118.603-.162.25-.074.501-.147.736-.206.456-.074.913-.103 1.369-.147l.162-.029h.088l.029-.015.324.015.78.059c.088.015.191.015.28.015h.103c.147.015.265.029.383.059l.103.015.501.147c.383.088.795.147 1.207.368.221.103.456.177.677.265.191.088.383.162.559.265.191.103.383.221.574.324.191.118.398.236.604.353.368.25.707.545 1.075.81l.53.412.471.471c.339.309.648.618.972.927.545.707 1.163 1.325 1.634 2.047 2.017 2.812 3.313 5.816 4.226 8.539.294.869.53 1.723.736 2.532.456 1.752.751 3.342.987 4.741.044.28.074.56.103.825.206 1.678.324 3.018.353 3.99.048.971.063 1.545.077 1.678z"/></g><g><path d="m145.774 361.748c2.812-3.916 4.623-8.112 5.904-11.896 1.281-3.813 1.929-7.288 2.385-10.159.103-.751.191-1.443.28-2.105.221-1.87.353-3.401.383-4.608.074-1.59.103-2.444.103-2.444-.015-.191-.044-.986-.088-2.341-.044-1.354-.206-3.239-.501-5.58-.044-.368-.088-.751-.147-1.148-.471-2.856-1.119-6.331-2.4-10.144-1.281-3.799-3.092-7.994-5.904-11.925-.663-1.001-1.517-1.87-2.282-2.856-.442-.427-.883-.854-1.34-1.296l-.663-.648-.751-.574c-.501-.368-.972-.795-1.502-1.134-.28-.162-.559-.324-.839-.486-.265-.147-.53-.309-.795-.457-.545-.324-1.148-.486-1.723-.751-.589-.294-1.148-.383-1.693-.515l-.707-.191-.132-.029c-.162-.044-.339-.059-.545-.074h-.133l-4.225.133c-.633.177-1.251.339-1.885.515-2.473.883-4.785 2.488-6.817 4.52-2.076 2.002-3.769 4.549-5.227 7.229-1.516 2.665-2.635 5.624-3.637 8.643-.412 1.546-.928 3.062-1.222 4.652l-.501 2.355-.353 2.415c-.295 1.605-.353 3.18-.515 4.77-.118 1.561-.103 3.46-.162 4.962.015 6.537.898 13.074 2.753 19.169 1.016 3.004 2.12 5.977 3.651 8.628 1.458 2.68 3.151 5.212 5.227 7.214 2.017 2.032 4.358 3.637 6.802 4.52.574.147 1.134.309 1.693.501.677.118 1.487.147 2.208.236l.854-.015h.162l.751-.044c.501.015 1.001-.088 1.487-.206.118-.029.25-.074.368-.103 1.414-.324 2.783-.869 4.064-1.59.913-.486 1.781-1.089 2.576-1.767l.736-.559.677-.662c.442-.427.884-.869 1.325-1.296.769-.975 1.637-1.844 2.3-2.859zm-3.843-4.8c-.353.383-.707.751-1.06 1.119l-.56.574-.604.515c-.074.059-.147.118-.206.177-1.06.913-2.282 1.708-3.651 2.312-.648.309-1.354.559-2.061.751-.353.103-.707.206-1.075.265-.221.059-.456.088-.707.088l-.545.074-.147.015-.221.015-.442.03c0 .015-.236 0-.221 0h-.059l-.088-.015h-.206c-.545-.059-1.045-.059-1.634-.147-.648-.133-1.31-.294-1.973-.457-2.415-.78-4.549-2.208-6.36-3.931-3.666-3.46-5.992-8.053-7.568-12.809-1.516-4.8-2.267-9.865-2.297-14.944.059-1.34.059-2.429.162-3.74.132-1.281.206-2.591.427-3.813l.309-1.87.397-1.855c.25-1.237.663-2.444 1.001-3.651 1.576-4.756 3.916-9.334 7.568-12.794 1.811-1.723 3.96-3.151 6.36-3.931l1.841-.442c.604-.088 1.237-.118 1.855-.162h.236l.118-.015h.059c-.015-.015.133 0 .191 0l.398.044.736.088h.059c.206.029.383.029.604.059.074.015.147.015.221.044l.928.236c.824.221 1.575.501 2.297.839 1.163.53 2.208 1.193 3.136 1.958.191.147.368.294.545.456l.618.515.545.574c.353.368.707.736 1.06 1.119.604.81 1.266 1.561 1.782 2.37 2.12 3.224 3.401 6.478 4.299 9.423.206.692.383 1.369.53 2.017.53 2.135.824 4.049 1.045 5.713.221 2.164.339 3.872.324 5.035.015 1.163.044 1.782.044 1.782v.03s-.015.618-.029 1.752c0 1.119-.103 2.871-.339 5.065-.191 1.458-.442 3.151-.854 4.991-.191.883-.427 1.781-.707 2.738-.898 2.93-2.179 6.184-4.314 9.423-.501.809-1.163 1.56-1.767 2.37z" fill="#ffd363"/><path d="m205.873 329.563s-.029.839-.074 2.444c-.029 1.619-.221 3.843-.574 6.728-.368 2.547-.883 5.595-1.884 8.937-.118.412-.25.839-.398 1.266-1.266 3.813-3.033 8.053-5.86 12.029-.663 1.016-1.531 1.899-2.297 2.886-.442.442-.898.883-1.34 1.325l-.677.663-.751.589c-1.943 1.649-4.284 2.871-6.787 3.475-.618.162-1.251.324-1.899.324l-2.267.029h-.103l-10.615.118-27.12.324c.088-.074.191-.147.28-.236l.854-.721.765-.795c.501-.53 1.001-1.045 1.487-1.561.839-1.134 1.767-2.179 2.473-3.327 1.458-2.208 2.621-4.417 3.578-6.581 1.016-2.267 1.796-4.476 2.429-6.566.398-1.325.721-2.591 1.001-3.813.574-2.577.927-4.932 1.192-6.979.324-3.048.471-5.492.456-7.052.029-1.59.044-2.444.044-2.444v-.044s-.029-.869-.059-2.488c.015-1.634-.147-4.019-.456-7.038-.309-2.312-.707-4.991-1.443-7.965-.206-.913-.456-1.855-.751-2.827-1.237-4.034-3.003-8.525-5.904-12.956-.029-.059-.059-.118-.103-.177-.707-1.148-1.634-2.194-2.474-3.327-.501-.515-.986-1.045-1.487-1.561l-.765-.795-.854-.721c-.25-.221-.486-.427-.751-.633l27.002-.81.074-.015 11.175-.324.236-.015 1.045-.029 1.104.088c.354.044.78.015 1.06.103l.883.236c2.341.559 4.785 1.796 6.699 3.445l.751.589.677.663c.442.442.898.883 1.34 1.325.074.103.162.206.236.295h.015c.692.869 1.458 1.678 2.047 2.606 2.827 3.975 4.594 8.201 5.86 12.028 1.266 3.828 1.87 7.332 2.282 10.203.368 2.886.56 5.168.574 6.728.044 1.353.059 2.163.074 2.354z" fill="#ffc01f"/></g><g fill="#ff94fe"><path d="m315.956 95.218-.412-.015c-.633-.044-1.266-.044-1.914 0h-.103c-2.179.118-4.372.618-6.463 1.502-4.299 1.811-8.142 5.065-11.366 8.952-1.03 1.251-2.002 2.562-2.915 3.931 2.429 7.42 4.108 15.047 5.153 22.762 1.398-5.168 3.18-10.203 5.403-15.003 2.356-5.035 5.182-9.835 8.701-14.046 2.326-2.768 4.977-5.33 7.98-7.332.383-.265.766-.501 1.163-.736z"/><path d="m312.04 230.772c-3.519-4.211-6.345-9.01-8.701-14.046-2.341-5.065-4.196-10.38-5.624-15.842-1.06-3.946-1.899-7.965-2.547-12.014-1.09 4.432-2.429 8.819-4.064 13.104-1.31 3.504-2.856 6.92-4.594 10.247-.044.088-.088.162-.147.25 2.429 5.86 5.477 11.322 9.305 15.974.398.501.825.972 1.237 1.428.398.442.825.898 1.296 1.369.795.81 1.678 1.605 2.562 2.326 5.374.707 10.748 1.413 16.122 2.12-1.753-1.485-3.372-3.149-4.845-4.916z"/><path d="m241.547 74.297c-.133.074-.28.162-.427.236-.147.088-.309.177-.471.265-4.976 3.269-9.01 7.685-12.294 12.456-2.061 3.003-3.857 6.154-5.462 9.393-.972 1.944-1.855 3.916-2.694 5.904-2.164 5.359-3.857 10.866-5.241 16.445-1.266 5.595-2.356 11.248-2.93 16.961-.707 5.698-.898 11.499-1.001 17.137.044 5.801.28 11.499.913 17.211.618 5.33 1.457 10.63 2.635 15.871.074.368.162.736.25 1.104 1.34 5.595 3.018 11.101 5.168 16.46 2.15 5.344 4.755 10.542 8.039 15.356.868 1.178 1.619 2.385 2.591 3.519.957 1.119 1.87 2.356 2.886 3.327l.928.942c-1.708.206-3.416.398-5.124.589-2.886.324-5.757.648-8.642.972-.442-.324-.883-.662-1.311-1.001-.029-.029-.147-.118-.147-.118l-.177-.177-.412-.353-.81-.721c-.515-.501-1.104-.972-1.575-1.472-.913-1.016-1.884-1.943-2.768-3.062-3.607-4.358-6.581-9.393-9.054-14.752-2.474-5.359-4.432-11.057-5.948-16.932-.736-2.871-1.384-5.786-1.958-8.731-.574-3.048-1.045-6.139-1.428-9.261-.692-6.095-1.031-12.264-1.045-18.448.044-12.338 1.339-24.72 4.446-36.439 1.517-5.86 3.489-11.558 5.948-16.917 1.782-3.872 3.828-7.597 6.198-10.998.898-1.295 1.84-2.547 2.841-3.754 3.607-4.329 7.877-8.024 12.75-10.026 2.474-1.045 5.094-1.62 7.685-1.708 2.061-.088 4.108.118 6.081.633.5.03 1.03.059 1.56.089z"/></g><g fill="#f983f8"><path d="m370.785 167.022s-.015 1.414-.074 4.064c-.118 2.606-.294 6.463-.883 11.322-.589 4.858-1.546 10.748-3.328 17.314-1.752 6.552-4.358 13.84-8.48 21.01-2.091 3.548-4.579 7.067-7.641 10.174-3.077 3.062-6.743 5.772-10.983 7.067-.589.177-1.178.339-1.796.456-2.841-.368-5.668-.736-8.51-1.104-.692-.103-1.399-.191-2.091-.28-.618-.088-1.252-.162-1.87-.25-.294-.133-.589-.28-.883-.442-1.664-.898-3.254-2.017-4.756-3.313-1.634-1.384-3.165-2.974-4.579-4.667-3.239-3.902-5.904-8.436-8.112-13.251-1.295-2.827-2.429-5.757-3.431-8.76-.707-2.12-1.34-4.284-1.914-6.478-2.046-7.803-3.239-15.96-3.71-24.146.442-2.915.78-5.845 1.045-8.79.191-2.253.339-4.505.427-6.758.103-2.238.147-4.534.147-6.758v-.015l-.295-7.582c.604-3.931 1.399-7.818 2.4-11.646 1.369-5.286 3.136-10.395 5.345-15.224 1.443-3.151 3.092-6.184 4.947-8.996.986-1.487 2.032-2.915 3.151-4.255 2.709-3.254 5.83-6.081 9.305-7.95.663-.368 1.34-.692 2.032-.971.648-.265 1.296-.501 1.958-.707 1.531-.471 3.092-.736 4.638-.81h1.679l.927.044.78.103c1.001.118 2.12.383 3.165.707 1.016.309 1.987.692 2.945 1.149 3.003 1.457 5.683 3.592 8.024 5.904 3.062 3.107 5.551 6.611 7.641 10.174 4.122 7.17 6.728 14.443 8.48 20.995 1.781 6.566 2.739 12.456 3.327 17.314.589 4.858.766 8.716.884 11.337.059 2.473.089 3.857.089 4.019z"/><path d="m296.419 153.403c0 2.253-.029 4.432-.177 6.655-.133 2.223-.324 4.431-.545 6.625-.412 4.005-1.001 7.98-1.752 11.94-.074.397-.147.78-.221 1.178v.029l-.029.294v-.147c-1.428 7.082-3.386 14.031-6.051 20.686-.942 2.37-1.988 4.682-3.121 6.949-.471.942-.957 1.87-1.457 2.783-.294.515-.589 1.045-.898 1.561-.589 1.031-1.222 2.061-1.855 3.018-.972 1.487-2.002 2.93-3.092 4.299-2.179 2.753-4.608 5.271-7.302 7.361-1.163.898-2.459 1.767-3.74 2.473-.81-.103-1.62-.206-2.429-.309-3.062-.383-6.139-.751-9.202-1.119-.633-.074-1.251-.147-1.884-.221-.78-.088-1.561-.191-2.341-.28-1.988-.236-3.975-.471-5.963-.692-1.06-.118-2.135-.236-3.21-.353 0 0 0 0-.015 0-.044 0-.103.015-.147.015s-.103.015-.147.015c-.339-.265-.677-.545-1.001-.839-.456-.397-1.016-.927-1.34-1.281l-1.457-1.546c-1.06-1.045-1.693-2.032-2.532-3.018-.81-.972-1.531-2.164-2.312-3.239-2.945-4.476-5.33-9.393-7.288-14.487-1.973-5.079-3.578-10.35-4.829-15.709-1.222-5.374-2.076-10.836-2.68-16.328-.589-5.462-.78-11.13-.795-16.49l.118-4.255c.015-1.428.029-2.856.147-4.196.162-2.724.309-5.433.648-8.201.53-5.507 1.546-10.939 2.724-16.313 1.295-5.344 2.9-10.6 4.903-15.68 2.105-5.02 4.476-9.923 7.45-14.369 2.945-4.461 6.522-8.437 10.733-11.307 1.075-.589 2.12-1.251 3.224-1.84.015-.015.029-.015.044-.029 1.119-.545 2.267-.986 3.445-1.325.074-.015.147-.044.221-.059 1.104-.309 2.238-.53 3.372-.633.309-.029.604-.059.913-.074l.456-.015h.309l2.12.103c.707.029 1.148.191 1.737.265.28.044.56.074.854.132l.883.265c1.207.28 2.37.795 3.534 1.281 2.267 1.119 4.49 2.473 6.478 4.196.398.324.795.663 1.178 1.045.015.015.015.015.015.015 3.534 3.165 6.522 7.126 9.114 11.293 2.886 4.667 5.241 9.702 7.185 14.914.088.236.177.471.25.707.56 1.502 1.075 3.018 1.56 4.549 2.812 8.819 4.564 18.036 5.492 27.311v.059l.015.044v.029l.029.633z"/></g><path d="m241.031 254.888c.118-5.948.456-11.867.456-17.771v-.707c0-.265 0-.545-.015-.81 0-.515 0-1.031-.015-1.531 0-.501-.015-.986-.044-1.487v-.103c0-.088 0-.191-.015-.28-.015-.486-.029-.987-.059-1.472 0-.088-.015-.191-.015-.28-.118.015-.221.015-.339.029-.736.074-1.487.147-2.223.221-3.975.368-7.936.751-11.911 1.134-1.222.118-2.429.236-3.651.353-.839.088-1.693.162-2.532.25-4.417.427-8.819.869-13.236 1.325-.766.074-1.546.147-2.312.236-17.932 1.87-35.865 3.769-53.798 5.609-4.461.456-8.907.913-13.369 1.369 0 8.966-.074 17.903.088 26.722.103 5.978.206 11.94.28 17.918l2.4-.029 40.532-.604.309-.029h.162l.074-.015.236.015.56.059 1.119.103c.383.059.692.044 1.134.147l1.252.324c3.313.884 5.978 2.459 8.215 4.432l.839.692.766.78c.486.53.986 1.031 1.472 1.546.839 1.119 1.767 2.15 2.459 3.283 2.959 4.446 4.785 8.966 6.051 13.015.294 1.031.559 2.017.839 2.974.236.972.412 1.914.618 2.797.427 1.796.589 3.475.839 4.976.353 3.018.545 5.403.545 7.023.044 1.634.074 2.503.074 2.503v.044s-.029.839-.074 2.444c0 1.561-.191 3.99-.545 7.023-.25 1.502-.412 3.195-.839 4.976-.206.898-.383 1.84-.618 2.797-.28.957-.545 1.944-.839 2.974-1.266 4.064-3.092 8.569-6.051 13.015-.692 1.134-1.619 2.164-2.459 3.283-.486.515-.986 1.031-1.472 1.546l-.766.78-.839.707c-2.194 1.958-4.991 3.563-8.142 4.402-.78.221-1.575.442-2.415.486l-1.251.118-.589.059s-.015 0-.029 0c-.074 0-.25 0-.25-.015h-.074l-.133-.015-36.91 1.001-6.405.177c-.088 12.043-.177 24.057-.294 36.101 4.535 1.001 9.055 2.017 13.575 3.048 7.759 1.767 15.503 3.548 23.233 5.359 13.427 3.136 26.825 6.64 40.179 10.218 8.495 2.282 16.99 4.579 25.471 6.832.324.088.648.177.972.25-.589-30.329-.898-60.629-.928-90.988 0-20.111-.133-40.238.103-60.349.133-10.319.413-20.654.604-30.99zm-13.162 162.615c-.795.162-1.576.236-2.312.206-7.523-.206-11.837-9.334-7.729-15.93 2.518-4.049 7.17-5.02 11.013-3.475 1.914.765 3.622 2.15 4.785 4.063 3.371 5.552 1.045 13.753-5.757 15.136z" fill="#ae74ff"/><g fill="#a26cee"><path d="m383.844 269.008c-4.166-.456-8.362-1.163-12.455-1.575-7.7-.824-15.43-1.517-23.189-2.047-5.256-.383-10.512-.677-15.783-.942-.515-.015-1.031-.044-1.531-.059-2.002-.103-3.975-.206-5.977-.295.177 1.311.353 2.606.501 3.916.059.5.118 1.001.177 1.487 1.001 8.466 1.708 16.946 2.135 25.456.015.353.029.721.044 1.089.707 15.886.353 31.772-1.251 47.408 9.393-2.886 18.86-5.492 28.327-7.965 7.568-1.988 15.135-3.828 22.732-5.536 2.724-.604 5.477-1.369 8.259-2.017.677-7.818 1.472-15.621 1.826-23.41.191-4.638.353-9.305.501-13.943.029-.707.044-1.413.074-2.105.133-4.505.25-8.996.383-13.501.03-.824.044-1.649.074-2.488.029-1.001.059-2.017.103-3.033-1.222-.074-2.444-.162-3.681-.294-.43-.043-.842-.087-1.269-.146zm1.59 5.771c.206 4.255.265 8.525.206 12.794 0 .368-.015.736-.015 1.104-.015.721-.015 1.443-.029 2.179-.604.074-1.222.133-1.826.191-9.216.972-18.536 1.576-27.768 2.488-6.964.692-13.943 1.354-20.951 1.928-.927.088-1.855.162-2.768.236-.015-.442-.029-.869-.059-1.31-.103-2.562-.191-5.138-.353-7.641-.353-5.609-.677-11.219-.854-16.814-.015-.589-.044-1.148-.044-1.737.604.03 1.222.059 1.84.103 8.024.383 16.004.957 23.998 1.59 8.863.707 18.065.986 27.076 1.987.471.044.942.103 1.398.162.061.915.105 1.813.149 2.74z"/><path d="m403.47 250.427c-21.201-2.738-42.402-5.492-63.603-8.23-.56-.074-1.104-.147-1.664-.206-.633-.088-1.281-.177-1.914-.25-3.99-.515-7.965-1.016-11.955-1.531-.265-.029-.515-.059-.781-.088-.721-.103-1.443-.191-2.164-.28-2.253-.28-4.505-.559-6.773-.854-.015 0-.015 0-.029 0-.294 0-.619-.015-.928-.029h.383c-1.266-.177-2.665-.353-3.946-.53-2.488-.309-4.976-.633-7.465-.942-1.06-.133-2.135-.265-3.195-.412-10.453-1.31-20.892-2.65-31.33-4.049-.839-.118-1.693-.221-2.533-.339-2.282-.309-4.564-.604-6.831-.913-2.562-.353-5.123-.721-7.685-1.09-.707-.088-1.414-.191-2.12-.294l-1.899-.265c-.25-.029-.515-.074-.766-.118-.736-.103-1.457-.206-2.194-.309-.029.162-.029.339-.044.501-.015.339-.044.663-.044 1.001-.029.353-.044.707-.059 1.045v.103c-.015.28-.029.545-.029.824 0 .236-.015.457-.015.692-.015.294-.015.604-.015.898-.015.53-.029 1.075-.029 1.605v.751c-.015 6.463.383 12.942.515 19.405.191 10.336.486 20.656.589 30.992.177 19.567.088 39.148.088 58.715-.015 16.328-.118 32.641-.309 48.954-.147 14.031-.353 28.047-.618 42.078 0 .236-.015.486-.015.721v.25c32.523-13 65.164-25.677 98.025-37.971 19.788-7.405 39.59-14.811 59.393-22.217.088-1.487.177-2.974.25-4.461.133-2.783.265-5.58.398-8.362.81-18.08 1.311-36.174 1.605-54.269.324-20.214.118-40.37-.294-60.526zm-78.886 11.219c2.091 0 4.167.015 6.272.059.412 0 .824.015 1.266.029 5.374.103 10.733.324 16.078.648 11.248.662 23.91.662 35.571 2.797.339.044.677.118 1.016.191 1.399.265 2.768.574 4.108.898.618.147 1.222.309 1.84.486.088.927.162 1.84.236 2.783.088 1.104.147 2.209.221 3.342.044.736.074 1.472.118 2.223.221 4.373.339 8.745.339 13.118 0 .633 0 1.266-.015 1.899-.015 5.359-.206 10.704-.515 16.048-.383 6.832-.751 13.899-1.428 20.907-.118 1.104-.236 2.238-.368 3.342-1.251.265-2.503.5-3.754.721-2.93.545-5.845 1.03-8.657 1.649-7.141 1.575-14.296 3.224-21.466 4.932-9.717 2.312-19.39 4.859-29.107 7.435-.898.236-1.811.486-2.709.721-.015-.515-.029-1.001-.044-1.516-.486-15.989-.736-31.978-.898-47.967-.015-.28-.015-.545-.015-.81-.103-8.79-.162-17.564-.236-26.339-.015-.427-.015-.883-.015-1.31-.015-1.325-.03-2.635-.044-3.946 0-.78-.015-1.56-.015-2.326.749-.029 1.47-.029 2.221-.014z"/></g><path d="m229.297 415.251c-.427.221-.883.412-1.384.545-.78.221-1.516.324-2.223.324-6.037.044-9.378-7.155-6.228-12.5.044-.059.074-.133.118-.191 1.708-2.768 4.417-4.211 7.038-4.078 2.179.103 4.299 1.325 5.742 3.769 2.37 4.033 1.163 9.952-3.063 12.131z" fill="#ff1b1b"/><g fill="#544646"><path d="m356.813 269.891c-7.994-.633-15.974-1.207-23.998-1.59-.618-.044-1.237-.074-1.84-.103 0 .589.029 1.148.044 1.737.177 5.595.501 11.204.854 16.814.162 2.503.25 5.08.353 7.641.029.442.044.869.059 1.31.913-.074 1.841-.147 2.768-.236 7.008-.574 13.987-1.236 20.951-1.928 9.231-.913 18.551-1.517 27.768-2.488.604-.059 1.222-.118 1.826-.191.015-.736.015-1.458.029-2.179 0-.368.015-.736.015-1.104.059-4.269 0-8.539-.206-12.794-.044-.928-.088-1.825-.147-2.738-.456-.059-.927-.118-1.398-.162-9.013-1.002-18.215-1.282-27.078-1.989zm27.075 17.565c-.015.471-.015.928-.029 1.399-8.48.78-16.976 1.899-25.471 2.738-7.803.78-15.636 1.575-23.454 2.488-.294-3.401-.618-6.773-.839-10.07-.309-4.638-.662-9.305-1.104-13.928 7.479.559 14.944 1.06 22.379 1.619 9.408.736 19.066 2.164 28.563 2.93.043 4.284.029 8.539-.045 12.824z"/><path d="m391.191 272.88c-.074-1.133-.133-2.238-.221-3.342-.074-.942-.147-1.855-.236-2.783-.618-.177-1.222-.339-1.84-.486-1.34-.324-2.709-.633-4.108-.898-.339-.074-.677-.147-1.016-.191-11.66-2.135-24.322-2.135-35.571-2.797-5.345-.324-10.704-.545-16.078-.648-.442-.015-.854-.029-1.266-.029-2.105-.044-4.181-.059-6.272-.059-.751-.015-1.472-.015-2.223.015 0 .766.015 1.546.015 2.326.015 1.31.029 2.621.044 3.946 0 .427 0 .883.015 1.31.074 8.775.133 17.55.236 26.339 0 .265 0 .53.015.81.162 15.989.412 31.978.898 47.967.015.515.029 1.001.044 1.516.898-.236 1.811-.486 2.709-.721 9.717-2.576 19.39-5.123 29.107-7.435 7.17-1.708 14.325-3.357 21.466-4.932 2.812-.618 5.727-1.104 8.657-1.649 1.252-.221 2.503-.456 3.754-.721.133-1.104.25-2.238.368-3.342.677-7.008 1.045-14.075 1.428-20.907.309-5.345.5-10.689.515-16.048.015-.633.015-1.266.015-1.899 0-4.373-.118-8.745-.339-13.118-.043-.752-.072-1.488-.116-2.224zm-2.503-.398c-.029.839-.044 1.664-.074 2.488-.133 4.505-.25 8.996-.383 13.501-.029.692-.044 1.399-.074 2.105-.147 4.638-.309 9.305-.501 13.943-.353 7.788-1.148 15.592-1.826 23.41-2.783.648-5.536 1.413-8.259 2.017-7.597 1.708-15.165 3.548-22.732 5.536-9.467 2.473-18.934 5.079-28.327 7.965 1.605-15.636 1.958-31.522 1.251-47.408-.015-.368-.029-.736-.044-1.089-.427-8.51-1.134-16.99-2.135-25.456-.059-.486-.118-.987-.177-1.487-.147-1.31-.324-2.606-.501-3.916 2.002.088 3.975.191 5.977.295.501.015 1.016.044 1.531.059 5.271.265 10.527.559 15.783.942 7.759.53 15.488 1.222 23.189 2.047 4.093.412 8.289 1.119 12.455 1.575.427.059.839.103 1.266.147 1.237.133 2.459.221 3.681.294-.041 1.015-.071 2.031-.1 3.032z"/><path d="m408.49 251.075c-.059-1.148-.103-2.311-.177-3.475-1.649-.221-3.283-.427-4.932-.648-19.434-2.518-38.883-5.021-58.303-7.553 2.974-1.649 5.551-3.799 7.789-6.066 3.298-3.416 5.918-7.17 8.083-10.924 4.27-7.582 6.876-15.12 8.642-21.878 1.781-6.773 2.694-12.809 3.268-17.785.559-4.976.721-8.907.81-11.616.044-2.65.059-4.078.059-4.078v-.015s-.015-1.428-.059-4.108c-.088-2.694-.25-6.625-.81-11.602-.574-4.976-1.487-11.013-3.268-17.785-1.767-6.758-4.373-14.296-8.642-21.878-2.164-3.754-4.785-7.509-8.083-10.924-3.328-3.357-7.391-6.478-12.367-8.039-.604-.236-1.252-.368-1.885-.53s-1.31-.265-1.988-.353l-1.001-.132-.928-.059-.942-.044-17.991.059h-2.047c-2.724.088-5.462.648-8.024 1.737-5.035 2.105-9.29 5.742-12.794 9.923-.559.677-1.104 1.355-1.619 2.061-1.782-4.8-3.931-9.467-6.552-13.899-2.974-4.962-6.478-9.732-10.954-13.575-2.194-1.973-4.711-3.592-7.362-4.976-2.68-1.296-5.624-2.164-8.687-2.532l-2.135-.132h-1.031l-19.523-.015s0 0-.015.015c-3.401-.044-6.861.618-10.07 1.958-5.551 2.267-10.218 6.331-14.075 10.924-3.872 4.638-6.993 9.923-9.585 15.474-2.576 5.58-4.623 11.44-6.213 17.476-3.21 12.058-4.623 24.72-4.667 37.338.044 6.316.412 12.632 1.134 18.89.795 6.243 1.973 12.426 3.548 18.448 1.575 6.036 3.622 11.911 6.213 17.476 2.591 5.551 5.713 10.836 9.585 15.474.942 1.178 2.061 2.267 3.092 3.386.692.663 1.355 1.252 2.061 1.87-4.623.515-9.216 1.016-13.825 1.487-21.422 2.238-42.859 4.446-64.28 6.758-1.34.133-2.68.28-4.005.427-.015 1.251-.015 2.503-.015 3.74 0 8.834.059 17.638-.088 26.325-.103 6.007-.206 11.999-.28 17.991l-.854.015h-.074l-1.031-.118-.559-.059c-.088 0-.28-.015-.265 0h-.088l-.162.015-.324.015c-.854.059-1.737.088-2.591.221l-2.562.618c-3.357 1.09-6.346 3.077-8.878 5.477-5.094 4.829-8.377 11.219-10.571 17.874-.471 1.679-1.045 3.357-1.384 5.079l-.56 2.591-.427 2.606c-.324 1.723-.427 3.548-.604 5.33-.147 1.826-.147 3.342-.221 5.227.044 7.082 1.09 14.149 3.195 20.848 2.194 6.64 5.447 13.059 10.556 17.888 2.547 2.4 5.521 4.387 8.893 5.477.913.236 1.84.456 2.738.648.825.118 1.531.118 2.297.191l.28.015.133.015h.074c-.015 0 .309.015.309 0l.618-.044.309-.029.206-.015 1.752-.044c.088 11.719.177 23.454.295 35.159 0 .294 0 .574.015.868.015 2.061.029 4.137.059 6.198 1.207.28 2.4.545 3.607.825 11.676 2.68 23.366 5.33 35.041 8.024 21.584 4.991 43.344 9.29 64.972 14.149.015 0 .015 0 .029.015 1.178.25 2.385.53 3.563.81.28.059.559.118.839.191.618-.206 1.237-.427 1.855-.648.324-.118.633-.221.957-.339 33.406-11.675 66.68-23.66 99.866-36.086 18.757-7.023 37.529-14.046 56.286-21.069 1.944-.736 3.887-1.457 5.83-2.194.088-1.649.191-3.298.294-4.932.015-.206.03-.427.044-.633 1.34-21.628 2.164-43.241 2.267-64.913.107-19.821-.173-39.859-1.086-59.882zm-82.242-154.282c.648-.265 1.296-.501 1.958-.707 1.531-.471 3.092-.736 4.638-.81h.221 1.458l.927.044.78.103c1.001.118 2.12.383 3.165.707 4.226 1.281 7.891 4.005 10.969 7.052 3.062 3.107 5.551 6.611 7.641 10.174 4.122 7.17 6.728 14.443 8.48 20.995 1.781 6.566 2.739 12.456 3.327 17.314.589 4.858.766 8.716.884 11.337.059 2.473.088 3.858.088 4.019 0 0-.015 1.414-.074 4.064-.118 2.606-.294 6.463-.883 11.322-.589 4.858-1.546 10.748-3.328 17.314-1.752 6.552-4.358 13.84-8.48 21.01-2.091 3.548-4.579 7.067-7.641 10.174-3.077 3.062-6.743 5.772-10.983 7.067-.589.177-1.178.339-1.796.456-2.841-.368-5.668-.736-8.51-1.104-.692-.103-1.399-.191-2.091-.28-.618-.088-1.252-.162-1.87-.25-.294-.133-.589-.28-.883-.442-3.489-1.87-6.625-4.726-9.334-7.98-3.239-3.902-5.904-8.436-8.112-13.251-2.208-4.829-3.975-9.953-5.344-15.238-2.046-7.803-3.239-15.96-3.71-24.146.442-2.915.78-5.845 1.045-8.79.191-2.253.339-4.505.427-6.758.103-2.238.147-4.534.147-6.758v-.015l-.295-7.582c.604-3.931 1.399-7.818 2.4-11.646 1.369-5.286 3.136-10.395 5.345-15.224 2.208-4.814 4.873-9.349 8.098-13.251 2.709-3.254 5.83-6.081 9.305-7.95.662-.366 1.339-.69 2.031-.97zm-39.885 115.679c.059-.088.103-.162.147-.25 1.737-3.327 3.283-6.743 4.594-10.247 1.634-4.284 2.974-8.672 4.064-13.104.648 4.049 1.487 8.068 2.547 12.014 1.428 5.462 3.283 10.777 5.624 15.842 2.356 5.035 5.182 9.835 8.701 14.046 1.473 1.767 3.092 3.43 4.844 4.917-5.374-.707-10.748-1.413-16.122-2.12-.883-.721-1.767-1.517-2.562-2.326-.471-.471-.898-.927-1.296-1.369-.412-.456-.839-.928-1.237-1.428-3.827-4.653-6.874-10.116-9.304-15.975zm8.289 20.288c-7.332-.986-14.664-1.929-21.996-2.842 2.959-2.4 5.536-5.182 7.818-8.156 1.295-1.693 2.488-3.475 3.607-5.286 2.37 5.153 5.256 9.982 8.804 14.296.56.677 1.149 1.34 1.767 1.988zm1.046-127.103c3.224-3.887 7.067-7.141 11.366-8.952 2.091-.883 4.285-1.384 6.463-1.502h.103c.648-.044 1.281-.044 1.914 0l.412.015 5.227.015c-.397.236-.78.471-1.163.736-3.004 2.002-5.654 4.564-7.98 7.332-3.519 4.211-6.345 9.011-8.701 14.046-2.223 4.8-4.005 9.835-5.403 15.003-1.045-7.715-2.724-15.342-5.153-22.762.912-1.37 1.884-2.68 2.915-3.931zm-49.145-28.592c.015-.015.029-.015.044-.029 1.119-.545 2.267-.986 3.445-1.325.074-.015.147-.044.221-.059 1.104-.309 2.238-.53 3.372-.633.309-.029.604-.059.913-.074l.456-.015h.309l2.12.103c.707.029 1.148.191 1.737.265.28.044.56.074.854.132l.883.265c1.207.28 2.37.795 3.534 1.281 2.267 1.119 4.49 2.473 6.478 4.196 4.064 3.357 7.42 7.729 10.306 12.353 2.886 4.667 5.241 9.702 7.185 14.914.088.236.177.471.25.707.56 1.502 1.075 3.018 1.56 4.549 2.812 8.819 4.564 18.036 5.492 27.311v.059l.015.044v.029l.029.633.662 11.631c0 2.253-.029 4.432-.177 6.655-.133 2.223-.324 4.431-.545 6.625-.412 4.005-1.001 7.98-1.752 11.94-.074.397-.147.78-.221 1.178v.029l-.029.294v-.147c-1.428 7.082-3.386 14.031-6.051 20.686-.942 2.37-1.988 4.682-3.121 6.949-.471.942-.957 1.87-1.457 2.783-.294.515-.589 1.045-.898 1.561-.589 1.031-1.222 2.061-1.855 3.018-.972 1.487-2.002 2.93-3.092 4.299-2.179 2.753-4.608 5.271-7.302 7.361-1.163.898-2.459 1.767-3.74 2.473-3.872-.501-7.759-.972-11.631-1.428-.633-.074-1.251-.147-1.884-.221-.78-.088-1.561-.191-2.341-.28-1.988-.236-3.975-.471-5.963-.692-1.06-.118-2.135-.236-3.21-.353 0 0 0 0-.015 0-.044 0-.103.015-.147.015s-.103.015-.147.015c-.339-.265-.677-.545-1.001-.839-.456-.397-1.016-.927-1.34-1.281l-1.457-1.546c-1.06-1.045-1.693-2.032-2.532-3.018-.81-.972-1.531-2.164-2.312-3.239-2.945-4.476-5.33-9.393-7.288-14.487-1.973-5.079-3.578-10.35-4.829-15.709-1.222-5.374-2.076-10.836-2.68-16.328-.589-5.462-.78-11.13-.795-16.49l.118-4.255c.015-1.428.029-2.856.147-4.196.162-2.724.309-5.433.648-8.201.53-5.507 1.546-10.939 2.724-16.313 1.295-5.344 2.9-10.6 4.903-15.68 2.105-5.02 4.476-9.923 7.45-14.369 2.945-4.461 6.522-8.437 10.733-11.307 1.074-.588 2.119-1.25 3.224-1.839zm-33.083 144.476c-3.607-4.358-6.581-9.393-9.054-14.752-2.474-5.359-4.432-11.057-5.948-16.932-1.516-5.86-2.635-11.881-3.386-17.991-.692-6.095-1.031-12.264-1.045-18.448.044-12.338 1.339-24.72 4.446-36.439 1.517-5.86 3.489-11.558 5.948-16.917s5.433-10.409 9.04-14.752c3.607-4.329 7.877-8.024 12.75-10.026 2.474-1.045 5.094-1.62 7.685-1.708 2.061-.088 4.108.118 6.081.633.501.029 1.031.059 1.561.088-.133.074-.28.162-.427.236-.147.088-.309.177-.471.265-4.976 3.269-9.01 7.685-12.294 12.456-3.298 4.8-5.933 9.982-8.157 15.297-2.164 5.359-3.857 10.866-5.241 16.445-1.266 5.595-2.356 11.248-2.93 16.961-.707 5.698-.898 11.499-1.001 17.137.044 5.801.28 11.499.913 17.211.663 5.698 1.575 11.381 2.886 16.976 1.34 5.595 3.018 11.101 5.168 16.46 2.15 5.344 4.755 10.542 8.039 15.356.868 1.178 1.619 2.385 2.591 3.519.957 1.119 1.87 2.356 2.886 3.327l.928.942c-1.708.206-3.416.398-5.124.589-2.886.324-5.757.648-8.642.972-.442-.324-.883-.662-1.311-1.001-.029-.029-.147-.118-.147-.118l-.177-.177-.412-.353-.81-.721c-.515-.501-1.104-.972-1.575-1.472-.915-1.017-1.886-1.944-2.77-3.063zm-79.74 149.04c-.486.118-.986.221-1.487.206l-.751.044h-.162l-.854.015c-.721-.088-1.531-.118-2.208-.236-.559-.191-1.119-.353-1.693-.501-2.444-.883-4.785-2.488-6.802-4.52-2.076-2.002-3.769-4.535-5.227-7.214-1.531-2.65-2.635-5.624-3.651-8.628-1.855-6.095-2.739-12.632-2.753-19.169.059-1.502.044-3.401.162-4.962.162-1.59.221-3.165.515-4.77l.353-2.415.501-2.355c.294-1.59.81-3.107 1.222-4.652 1.001-3.018 2.12-5.978 3.637-8.643 1.458-2.68 3.151-5.227 5.227-7.229 2.032-2.032 4.343-3.637 6.817-4.52.633-.177 1.252-.339 1.885-.515l4.225-.133h.133c.206.015.383.029.545.074l.132.029.707.191c.545.133 1.104.221 1.693.515.574.265 1.178.427 1.723.751.265.147.53.309.795.457.28.162.559.324.839.486.53.339 1.001.765 1.502 1.134l.751.574.663.648c.456.442.898.869 1.34 1.296.765.987 1.619 1.855 2.282 2.856 2.812 3.931 4.623 8.127 5.904 11.925 1.281 3.813 1.929 7.288 2.4 10.144.059.397.103.78.147 1.148.294 2.341.456 4.226.501 5.58.044 1.355.074 2.15.088 2.341 0 0-.029.854-.103 2.444-.029 1.207-.162 2.739-.383 4.608-.088.662-.177 1.355-.28 2.105-.456 2.871-1.104 6.346-2.385 10.159-1.281 3.784-3.092 7.98-5.904 11.896-.663 1.016-1.531 1.884-2.297 2.856-.442.427-.883.869-1.325 1.296l-.677.662-.736.559c-.795.677-1.664 1.281-2.576 1.767-1.281.721-2.65 1.266-4.064 1.59-.12.033-.253.077-.371.106zm23.999-42.49c.015-1.634-.147-4.019-.456-7.038-.309-2.312-.707-4.991-1.443-7.965-.206-.913-.456-1.855-.751-2.827-1.251-4.093-3.048-8.642-6.007-13.133-.707-1.148-1.634-2.194-2.474-3.327-.501-.515-.986-1.045-1.487-1.561l-.765-.795-.854-.721c-.25-.221-.486-.427-.751-.633l27.002-.81.074-.015 11.175-.324.236-.015 1.045-.029 1.104.088c.354.044.78.015 1.06.103l.883.236c2.341.559 4.785 1.796 6.699 3.445l.751.589.677.663c.442.442.898.883 1.34 1.325.766.986 1.634 1.87 2.297 2.901 2.827 3.975 4.594 8.201 5.86 12.028 1.266 3.828 1.87 7.332 2.282 10.203.368 2.886.56 5.168.574 6.728.044 1.354.059 2.164.074 2.356 0 0-.029.839-.074 2.444-.029 1.619-.221 3.843-.574 6.728-.412 2.871-1.016 6.36-2.282 10.203-1.266 3.813-3.033 8.053-5.86 12.029-.663 1.016-1.531 1.899-2.297 2.886-.442.442-.898.883-1.34 1.325l-.677.663-.751.589c-1.943 1.649-4.284 2.871-6.787 3.475-.618.162-1.251.324-1.899.324l-2.267.029h-.103l-10.615.118-27.12.324c.088-.074.191-.147.28-.236l.854-.721.765-.795c.501-.53 1.001-1.045 1.487-1.561.839-1.134 1.767-2.179 2.473-3.327 2.974-4.505 4.77-9.055 6.007-13.147.398-1.325.721-2.591 1.001-3.813.574-2.577.927-4.932 1.192-6.979.324-3.048.471-5.492.456-7.052.029-1.59.044-2.444.044-2.444v-.044c.001-.002-.029-.871-.058-2.49zm82.552 108.876c-21.82-5.801-43.683-11.911-65.65-17.049-12.25-2.856-24.514-5.683-36.808-8.407.118-12.043.206-24.057.294-36.101l43.315-1.178.133.015h.074c0 .015.177.015.25.015h.029l.589-.059 1.251-.118c.839-.044 1.634-.265 2.415-.486 3.151-.839 5.948-2.444 8.142-4.402l.839-.707.766-.78c.486-.515.986-1.031 1.472-1.546.839-1.119 1.767-2.15 2.459-3.283 2.959-4.446 4.785-8.951 6.051-13.015.294-1.03.559-2.017.839-2.974.236-.957.412-1.899.618-2.797.427-1.781.589-3.475.839-4.976.353-3.033.545-5.462.545-7.023.044-1.605.074-2.444.074-2.444v-.044s-.029-.869-.074-2.503c0-1.62-.191-4.005-.545-7.023-.25-1.502-.412-3.18-.839-4.976-.206-.883-.383-1.826-.618-2.797-.28-.957-.545-1.943-.839-2.974-1.266-4.049-3.092-8.569-6.051-13.015-.692-1.134-1.619-2.164-2.459-3.283-.486-.515-.986-1.016-1.472-1.546l-.766-.78-.839-.692c-2.238-1.973-4.903-3.548-8.215-4.432l-1.252-.324c-.442-.103-.751-.088-1.134-.147l-1.119-.103-.56-.059-.236-.015-.074.015h-.162l-.309.029-42.932.633c-.074-5.977-.177-11.94-.28-17.918-.162-8.819-.088-17.756-.088-26.722 22.394-2.267 44.773-4.638 67.166-6.979 5.183-.545 10.365-1.06 15.548-1.561.839-.088 1.693-.162 2.532-.25 1.222-.118 2.429-.236 3.651-.353 3.975-.383 7.936-.766 11.911-1.134.736-.074 1.487-.147 2.223-.221.118-.015.221-.015.339-.029 0 .088.015.191.015.28.029.486.044.986.059 1.472.015.088.015.191.015.28v.103c.029.501.044.987.044 1.487.015.501.015 1.016.015 1.531.015.265.015.545.015.81v.707c0 5.904-.339 11.823-.456 17.771-.191 10.335-.471 20.671-.604 30.992-.236 20.112-.103 40.238-.103 60.349.029 30.359.339 60.659.928 90.988-.324-.075-.648-.164-.971-.252zm163.483-126.014c-.339 20.892-.957 41.769-2.002 62.631-.074 1.487-.162 2.974-.25 4.461-19.803 7.406-39.605 14.811-59.393 22.217-32.862 12.294-65.502 24.97-98.025 37.971v-.25c0-.236.015-.486.015-.721.574-30.344.898-60.659.927-91.032 0-19.567.088-39.148-.088-58.715-.103-10.335-.397-20.656-.589-30.992-.133-6.463-.53-12.941-.515-19.405 0-.25 0-.501 0-.751 0-.53.015-1.075.029-1.605 0-.294 0-.604.015-.898 0-.236.015-.457.015-.692 0-.28.015-.545.029-.824v-.103c.015-.339.029-.692.059-1.045 0-.339.029-.663.044-1.001.015-.162.015-.339.044-.501.736.103 1.458.206 2.194.309.25.044.515.088.766.118l1.899.265c.707.103 1.413.206 2.12.294 2.562.368 5.123.736 7.685 1.09 2.267.309 4.549.604 6.831.913.839.118 1.693.221 2.533.339 10.439 1.398 20.877 2.738 31.33 4.049 1.06.147 2.135.28 3.195.412 2.488.309 4.976.633 7.465.942 1.281.177 2.68.353 3.946.53h-.383c.309.015.633.029.928.029h.029c2.268.294 4.52.574 6.773.854.721.088 1.443.177 2.164.28.265.029.515.059.781.088 3.99.515 7.965 1.016 11.955 1.531.633.074 1.281.162 1.914.25.56.059 1.104.133 1.664.206 21.201 2.739 42.402 5.492 63.603 8.23.411 20.156.617 40.312.293 60.526z"/><path d="m217.828 401.779c-4.52 7.244 1.134 17.55 10.041 15.724 6.802-1.384 9.128-9.585 5.756-15.135-3.533-5.815-12.043-6.64-15.797-.589zm10.085 14.017c-7.376 2.076-11.97-6.198-8.451-12.176 3.062-5.227 9.673-5.978 12.897-.501 2.621 4.446.869 11.189-4.446 12.677z"/><path d="m139.502 359.333c.059-.059.133-.118.206-.177l.604-.515.56-.574c.353-.368.707-.736 1.06-1.119.604-.81 1.266-1.561 1.767-2.37 2.135-3.239 3.416-6.493 4.314-9.423.28-.957.515-1.855.707-2.738.412-1.84.663-3.534.854-4.991.236-2.194.339-3.946.339-5.065.015-1.134.029-1.752.029-1.752v-.03s-.029-.618-.044-1.782c.015-1.163-.103-2.871-.324-5.035-.221-1.664-.515-3.578-1.045-5.713-.147-.648-.324-1.325-.53-2.017-.898-2.945-2.179-6.198-4.299-9.423-.515-.81-1.178-1.56-1.782-2.37-.353-.383-.707-.751-1.06-1.119l-.545-.574-.618-.515c-.177-.162-.353-.309-.545-.456-.928-.766-1.973-1.428-3.136-1.958-.721-.339-1.472-.618-2.297-.839l-.928-.236c-.074-.03-.147-.03-.221-.044-.221-.029-.398-.029-.604-.059h-.059l-.736-.088-.398-.044c-.059 0-.206-.015-.191 0h-.059l-.118.015h-.236c-.618.044-1.251.074-1.855.162l-1.841.442c-2.4.78-4.549 2.209-6.36 3.931-3.651 3.46-5.992 8.038-7.568 12.794-.339 1.207-.751 2.414-1.001 3.651l-.397 1.855-.309 1.87c-.221 1.222-.295 2.532-.427 3.813-.103 1.31-.103 2.4-.162 3.74.029 5.079.78 10.144 2.297 14.944 1.576 4.755 3.902 9.349 7.568 12.809 1.811 1.723 3.946 3.151 6.36 3.931.663.162 1.325.324 1.973.457.589.088 1.09.088 1.634.147h.206l.088.015h.059c-.015 0 .221.015.221 0l.442-.03.221-.015.147-.015.545-.074c.25 0 .486-.029.707-.088.368-.059.721-.162 1.075-.265.707-.191 1.413-.442 2.061-.751 1.369-.604 2.591-1.399 3.651-2.312zm-6.537-.162c-.088.015-.177.044-.265.074-.353.088-.707.162-1.06.147l-.545.03h-.118l-.015.015-.294.029h-.044l-.059-.015-.191-.015c-.515-.059-1.104-.089-1.59-.177-.397-.133-.795-.25-1.207-.353-1.752-.633-3.431-1.782-4.873-3.239-1.487-1.428-2.709-3.254-3.754-5.168-1.09-1.899-1.884-4.034-2.606-6.184-1.34-4.373-1.973-9.055-1.973-13.737.044-1.075.029-2.429.118-3.548.118-1.148.147-2.267.368-3.416l.25-1.737.353-1.679c.221-1.148.589-2.238.883-3.342.707-2.164 1.516-4.285 2.606-6.184 1.045-1.929 2.253-3.754 3.74-5.183 1.457-1.458 3.106-2.606 4.888-3.239.456-.133.898-.25 1.34-.368.456-.074.913-.103 1.369-.147l.162-.029h.088l.029-.015.324.015.78.059c.088.015.191.015.28.015h.103c.147.015.265.029.383.059l.103.015.501.147c.383.088.795.147 1.207.368.412.191.854.309 1.237.53.191.103.383.221.574.324.191.118.398.236.604.353.368.25.707.545 1.075.81l.53.412.471.471c.339.309.648.618.972.927.545.707 1.163 1.325 1.634 2.047 2.017 2.812 3.313 5.816 4.226 8.539.913 2.738 1.384 5.227 1.723 7.273.044.28.074.56.103.825.206 1.678.324 3.018.353 3.99.044.972.059 1.546.074 1.678 0 0-.029.618-.074 1.752-.029.869-.118 1.958-.28 3.298-.059.486-.133.972-.206 1.517-.324 2.046-.78 4.549-1.708 7.273-.913 2.709-2.209 5.713-4.226 8.525-.471.721-1.089 1.354-1.649 2.046-.309.309-.633.618-.942.928l-.486.471-.53.412c-.574.486-1.192.913-1.84 1.266-.928.517-1.9.9-2.916 1.135z"/></g><path d="m402.159 365.222c-.133 2.783-.265 5.58-.398 8.362-.074 1.487-.162 2.974-.25 4.461-19.803 7.406-39.605 14.811-59.393 22.217-32.862 12.294-65.502 24.97-98.025 37.971v-.25c0-.236.015-.486.015-.721.265-14.031.471-28.047.618-42.078 6.346 7.2 16.284 11.395 26.045 12.279 12.75 1.163 25.426-2.282 37.764-5.698 15.783-4.358 31.566-8.731 47.349-13.089 11.97-3.313 24.146-6.714 34.628-13.398 4.315-2.753 8.32-6.14 11.647-10.056z" opacity=".25"/><path d="m203.341 347.673c-.118.412-.25.839-.398 1.266-1.266 3.813-3.033 8.053-5.86 12.029-.663 1.016-1.531 1.899-2.297 2.886-.442.442-.898.883-1.34 1.325l-.677.663-.751.589c-1.943 1.649-4.284 2.871-6.787 3.475-.618.162-1.251.324-1.899.324l-2.267.029h-.103l-10.615.118-27.12.324c.088-.074.191-.147.28-.236l.854-.721.765-.795c.501-.53 1.001-1.045 1.487-1.561.839-1.134 1.767-2.179 2.473-3.327 1.458-2.208 2.621-4.417 3.578-6.581 9.702 4.741 21.216 5.816 31.537 2.621 7.361-2.285 14.001-6.687 19.14-12.428z" opacity=".25"/><path d="m195.022 295.642c-3.165-1.193-6.537-1.973-9.894-2.385-7.685-.942-15.474-.177-23.174.648-3.504.383-7.067.78-10.306 2.12-.854.353-1.693.78-2.474 1.281-.029-.059-.059-.118-.103-.177-.707-1.148-1.634-2.194-2.474-3.327-.501-.515-.986-1.045-1.487-1.561l-.765-.795-.854-.721c-.25-.221-.486-.427-.751-.633l27.002-.81.074-.015 11.175-.324.236-.015 1.045-.029 1.104.088c.354.044.78.015 1.06.103l.883.236c2.341.559 4.785 1.796 6.699 3.445l.751.589.677.663c.442.442.898.883 1.34 1.325.074.102.163.205.236.294z" opacity=".25"/><g fill="#fff"><path d="m146.304 319.316-14.664 40.076-.545.03h-.118l-.015.015-.294.029h-.044l-.059-.015-.191-.015c-.515-.059-1.104-.089-1.59-.177-.397-.133-.795-.25-1.207-.353-1.752-.633-3.431-1.782-4.873-3.239-1.045-1.016-1.973-2.223-2.783-3.519l-.353-42.579c.898-1.517 1.914-2.93 3.121-4.078 1.457-1.458 3.106-2.606 4.888-3.239.206-.059.412-.118.603-.162l-.824 38.795 7.568-38.25c.191.088.383.162.559.265.191.103.383.221.574.324.191.118.398.236.604.353.368.25.707.545 1.075.81l.53.412.471.471c.339.309.648.618.972.927.545.707 1.163 1.325 1.634 2.047 2.017 2.812 3.313 5.816 4.226 8.539.293.869.529 1.723.735 2.533z" opacity=".5"/><path d="m380.679 274.352-1.634 14.973c-6.876.721-13.766 1.59-20.656 2.267l-11.352 1.148c-1.546-7.052-3.651-16.283-5.226-22.026 2.547.191 5.094.368 7.626.56l2.68 12.691-.339-12.529c1.207.089 2.4.177 3.592.265 5.065.398 10.203.986 15.356 1.575l1.517 11.175 1.089-10.88c2.459.281 4.903.546 7.347.781z" opacity=".5"/><g opacity=".5"><path d="m229.297 415.251c-.427.221-.883.412-1.384.545-.78.221-1.516.324-2.223.324-1.222-.78-2.326-1.767-3.313-3.004-2.15-2.694-3.239-6.302-2.797-9.688 1.708-2.768 4.417-4.211 7.038-4.078-1.266 3.268-1.414 6.964-.383 10.321.633 2.046 1.678 3.945 3.062 5.58z" opacity=".35"/><path d="m240.428 285.88c-.236 20.112-.103 40.238-.103 60.349.029 30.359.339 60.659.928 90.988-.324-.074-.648-.162-.972-.25-8.48-2.253-16.976-4.549-25.471-6.832 4.373-2.223 7.965-6.287 10.056-10.807.25-.53.486-1.075.692-1.62.736.029 1.517-.044 2.312-.206 6.802-1.384 9.128-9.585 5.756-15.135-1.163-1.914-2.871-3.298-4.785-4.063.015-.427.044-.839.059-1.266 2.135-42.225 4.255-84.613.81-126.75-.78-9.482-2.061-19.508-8.024-26.914-3.71-4.623-8.701-7.597-14.252-9.614 4.417-.456 8.819-.898 13.236-1.325.839-.088 1.693-.162 2.532-.25 1.222-.118 2.429-.236 3.651-.353 3.975-.383 7.936-.766 11.911-1.134.736-.074 1.487-.147 2.223-.221.118-.015.221-.015.339-.029 0 .088.015.191.015.28.029.486.044.986.059 1.472.015.088.015.191.015.28v.103c.029.501.044.987.044 1.487.015.501.015 1.016.015 1.531.015.265.015.545.015.81v.707c0 5.904-.339 11.823-.456 17.771-.193 10.335-.473 20.67-.605 30.991z" opacity=".35"/><path d="m151.398 414.559c-4.52-1.031-9.04-2.047-13.575-3.048.118-12.043.206-24.057.294-36.101l6.405-.177c.147 3.607.309 7.214.456 10.821.413 9.821 1.223 20.525 6.42 28.505z" opacity=".35"/><path d="m138.044 267.697c-.162-8.819-.088-17.756-.088-26.722 4.461-.456 8.907-.913 13.369-1.369-4.726 5.256-7.759 12.102-9.275 19.081-1.914 8.79-1.708 17.888-1.325 26.899l-2.4.029c-.075-5.977-.178-11.94-.281-17.918z" opacity=".35"/><path d="m222.893 96.646c-.972 1.944-1.855 3.916-2.694 5.904-2.164 5.359-3.857 10.866-5.241 16.445-1.266 5.595-2.356 11.248-2.93 16.961-.707 5.698-.898 11.499-1.001 17.137.044 5.801.28 11.499.913 17.211.618 5.33 1.457 10.63 2.635 15.871-4.211 1.737-9.29 1.031-13.28-1.252-1.781-1.031-3.372-2.326-4.785-3.798-.574-3.048-1.045-6.139-1.428-9.261-.692-6.095-1.031-12.264-1.045-18.448.044-12.338 1.339-24.72 4.446-36.439 1.517-5.86 3.489-11.558 5.948-16.917 1.782-3.872 3.828-7.597 6.198-10.998 5.123-.293 9.275 3.02 12.264 7.584z" opacity=".35"/></g></g><path d="m296.419 153.403c0 2.253-.029 4.432-.177 6.655-.133 2.223-.324 4.431-.545 6.625-.412 4.005-1.001 7.98-1.752 11.94-.074.397-.147.78-.221 1.207l-.029.294v-.147c-1.428 7.082-3.386 14.031-6.051 20.686-.942 2.37-1.988 4.682-3.121 6.949-.471.942-.957 1.87-1.457 2.783-.294.515-.589 1.045-.898 1.561-.589 1.031-1.222 2.061-1.855 3.018-.972 1.487-2.002 2.93-3.092 4.299-2.179 2.753-4.608 5.271-7.302 7.361-1.163.898-2.459 1.767-3.74 2.473-.81-.103-1.62-.206-2.429-.309 17.631-18.733 24.521-45.18 24.847-70.355.167-12.914.064-49.298-16.485-76.212 6.886 4.687 14.355 20.995 16.298 26.207.088.236.177.471.25.707.56 1.502 1.075 3.018 1.56 4.549 2.812 8.819 4.564 18.036 5.492 27.311v.059s.015.044.015.074l.029.633z" opacity=".25"/><path d="m370.785 167.022s-.015 1.414-.074 4.064c-.118 2.606-.294 6.463-.883 11.322-.589 4.858-1.546 10.748-3.328 17.314-1.752 6.552-4.358 13.84-8.48 21.01-2.091 3.548-4.579 7.067-7.641 10.174-3.077 3.062-6.743 5.772-10.983 7.067-.589.177-1.178.339-1.796.456-2.841-.368-5.668-.736-8.51-1.104-.692-.103-1.399-.191-2.091-.28-.618-.088-1.252-.162-1.87-.25-.294-.133-.589-.28-.883-.442-1.664-.898-3.254-2.017-4.756-3.313-.044-.456-.059-.913-.059-1.384 15.461 8.755 27.765-8.289 33.213-19.907 7.179-15.311 10.819-32.267 10.604-49.173-.286-22.492-5.157-48.311-20.908-65.296 3.003 1.457 5.683 3.592 8.024 5.904 3.062 3.107 5.551 6.611 7.641 10.174 4.122 7.17 6.728 14.443 8.48 20.995 1.781 6.566 2.739 12.456 3.327 17.314.589 4.858.766 8.716.884 11.337.059 2.472.089 3.856.089 4.018z" opacity=".25"/></g></svg>