<svg id="Layer_1" enable-background="new 0 0 500 500" viewBox="0 0 500 500" xmlns="http://www.w3.org/2000/svg"><g><g><g><g><path d="m396.928 312.181c.951 4.35 1.461 9.158 1.461 14.404 0 38.196-26.818 84.631-59.889 103.737-4.773 2.747-9.403 4.79-13.859 6.129l-6.304 10.829-20.832-12.044c-11.64-5.899-18.895-19.617-18.895-39.497 0-38.195 26.801-84.63 59.89-103.719 16.288-9.403 31.044-10.425 41.84-4.473l1.443.828 21.696 12.537z" fill="#419ae8"/></g></g></g><g><g><g><path d="m426.438 320.922c1.048 4.792 1.611 10.092 1.611 15.874 0 42.096-29.557 93.272-66.005 114.329-5.259 3.027-10.363 5.279-15.274 6.753l-6.947 11.936-22.959-13.275c-12.828-6.502-20.824-21.62-20.824-43.53 0-42.095 29.537-93.271 66.003-114.309 17.952-10.363 34.215-11.489 46.112-4.93l1.591.913 23.91 13.818z" fill="#69c3fa"/></g></g></g><g><g><g><g><path d="m453.791 351.663c0 42.092-29.552 93.276-66.005 114.322-36.454 21.046-66.005 3.986-66.005-38.105 0-42.092 29.552-93.276 66.005-114.322s66.005-3.986 66.005 38.105z" fill="#419ae8"/></g></g></g><g><g><g><path d="m440.766 359.183c0 33.786-23.72 74.87-52.98 91.763-29.261 16.894-52.981 3.2-52.981-30.586s23.72-74.87 52.981-91.763c29.261-16.894 52.98-3.2 52.98 30.586z" fill="#3376bf"/></g></g></g><g><g><g><path d="m433.547 363.351c0 29.182-20.488 64.668-45.761 79.259-25.274 14.592-45.762 2.764-45.762-26.418s20.488-64.668 45.762-79.259c25.273-14.592 45.761-2.764 45.761 26.418z" fill="#419ae8"/></g></g></g></g><g><g><g><path d="m176.606 176.669c1.048 4.793 1.611 10.093 1.611 15.875 0 42.095-29.558 93.271-66.005 114.328-5.26 3.028-10.363 5.28-15.274 6.754l-6.947 11.936-22.959-13.275c-12.828-6.502-20.824-21.62-20.824-43.53 0-42.095 29.537-93.272 66.004-114.31 17.952-10.363 34.215-11.489 46.112-4.929l1.591.912 23.91 13.818z" fill="#69c3fa"/></g></g></g><g><g><g><g><ellipse cx="137.955" cy="245.519" fill="#419ae8" rx="93.344" ry="53.892" transform="matrix(.5 -.866 .866 .5 -143.648 242.226)"/></g></g></g><g><g><g><path d="m190.936 214.931c0 33.786-23.72 74.869-52.981 91.763-29.26 16.894-52.981 3.2-52.981-30.587 0-33.786 23.72-74.869 52.981-91.763s52.981-3.2 52.981 30.587z" fill="#3376bf"/></g></g></g><g><g><g><ellipse cx="137.955" cy="245.519" fill="#419ae8" rx="64.715" ry="37.364" transform="matrix(.5 -.866 .866 .5 -143.648 242.226)"/></g></g></g></g><g><g><g><path d="m192.021 203.781c.838 3.835 1.289 8.075 1.289 12.703 0 33.685-23.652 74.637-52.818 91.487-4.208 2.423-8.292 4.224-12.222 5.405l-5.559 9.55-18.372-10.622c-10.265-5.202-16.663-17.301-16.663-34.833 0-33.686 23.636-74.638 52.817-91.472 14.366-8.293 27.379-9.194 36.9-3.945l1.273.73 19.133 11.057z" fill="#69c3fa"/></g></g></g><g><g><g><ellipse cx="161.091" cy="258.875" fill="#419ae8" rx="74.695" ry="43.125" transform="matrix(.5 -.866 .866 .5 -143.647 268.941)"/></g></g></g><g><g><g><path d="m201.237 235.697c0 25.601-17.974 56.732-40.146 69.533s-40.146 2.424-40.146-23.177c0-25.602 17.975-56.733 40.146-69.534 22.172-12.8 40.146-2.424 40.146 23.178z" fill="#3376bf"/></g></g></g><g><g enable-background="new"><g><g><g><g><path d="m151.203 66.833 25.467-14.8c-22.045 12.811-35.719 40.034-35.829 78.761-.024 8.462.606 17.124 1.833 25.886l-25.468 14.8c-1.226-8.762-1.857-17.424-1.833-25.886.111-38.726 13.785-65.95 35.83-78.761z" fill="#69c3fa"/></g></g></g></g><g><g><g><g><path d="m143.236 52.955 25.467-14.8c.711-.413 1.43-.812 2.156-1.199l-25.467 14.801c-.726.386-1.445.785-2.156 1.198z" fill="#69c3fa"/></g></g></g></g><g><g><g><g><path d="m147.041 46.014 25.467-14.8c.1-.058.205-.112.314-.16 24.333-10.824 56.367-7.464 91.375 12.749l-25.467 14.8c-35.009-20.212-67.043-23.573-91.375-12.749-.11.049-.214.102-.314.16z" fill="#69c3fa"/></g></g></g></g><g><g><g><g><path d="m331.783 159.369 25.467-14.8c25.222 42.665 40.875 91.111 40.751 134.697-.024 8.439-.643 16.379-1.8 23.787l-25.467 14.801c1.157-7.409 1.777-15.349 1.8-23.788.124-43.586-15.53-92.032-40.751-134.697z" fill="#69c3fa"/></g></g></g></g><g><g><g><g><path d="m238.73 58.603c34.991 20.202 66.938 53.782 91.132 92.622 1.897 3.042 2.409 6.015 1.921 8.145 25.221 42.665 40.875 91.111 40.751 134.697-.023 8.439-.643 16.379-1.8 23.787l-11.535-6.66c1.272-7.319 1.95-15.226 1.974-23.687.118-41.863-15.636-88.599-40.729-128.975l-2.71-1.565c-1.462-.844-2.864-2.251-3.995-3.966-20.516-30.986-46.631-57.548-75.066-73.964-28.472-16.439-54.651-20.069-75.258-12.825-1.137.406-2.542.192-4.004-.651l-2.691-1.554c-25.259 11.306-41.227 39.726-41.345 81.588-.024 8.462.606 17.124 1.833 25.886l-11.516-6.649c-1.111-8.718-1.683-17.347-1.659-25.786.124-43.587 16-73.829 41.361-87.289-.474-2.664.053-5.059 1.962-5.903 24.331-10.824 56.365-7.463 91.374 12.749z" fill="#419ae8"/></g></g></g></g><g><g><g><g><path d="m238.73 58.603 25.467-14.8c34.992 20.202 66.939 53.782 91.132 92.622 1.897 3.042 2.409 6.015 1.921 8.145l-25.467 14.8c.488-2.13-.024-5.103-1.921-8.145-24.194-38.84-56.141-72.42-91.132-92.622z" fill="#69c3fa"/></g></g></g></g></g></g></g></svg>