<svg id="Layer_1" enable-background="new 0 0 50 50" height="512" viewBox="0 0 50 50" width="512" xmlns="http://www.w3.org/2000/svg"><g><path d="m39.9992 20.3858c.6168 6.1044-4.0454 9.1158-4.0454 9.1158 2.8028 6.0953-2.8844 9.4604-2.8844 9.4604.2087 6.7121-4.5261 8.6894-8.8255 9.9684-.8526.2539-1.669-.2086-1.3787-1.0431.4807-1.3787.1814-2.3583.1814-2.3583-3.5012-1.0885-3.0023-4.2631-3.0023-4.2631-4.2631-1.3878-4.0273-5.8776-4.0273-5.8776-4.1815-1.6327-3.1747-6.8935-3.1747-6.8935-4.2631-3.0205-1.8594-7.982-1.8594-7.982-3.093-4.1815-.4626-11.9095-.4626-11.9095l30.649.4807c2.2948 6.0047-1.1701 11.3018-1.1701 11.3018z" fill="#d9d9db"/><g fill="#d3d3d3"><path d="m27.3006 47.842c-.9977.4444-2.0408.7891-3.0567 1.0885-.8526.2539-1.669-.2086-1.3787-1.0431.4807-1.3787.1814-2.3583.1814-2.3583-3.5012-1.0885-3.0023-4.2631-3.0023-4.2631-4.2631-1.3878-4.0273-5.8776-4.0273-5.8776-4.1815-1.6327-3.1747-6.8935-3.1747-6.8935-4.2631-3.0205-1.8594-7.982-1.8594-7.982-3.093-4.1815-.4626-11.9095-.4626-11.9095l4.118.0635c-.5715 2.1134-1.4654 8.6811 1.0109 12.019 0 0-2.698 4.0085 1.5651 7.0289 0 0-.3048 5.9978 3.8767 7.6305 0 0-.9566 3.2731 3.3065 4.6609 0 0-.4801 3.6545 3.021 4.7429 0 0 .2994.9796-.1814 2.3583-.0997.2992-.0635.5441.0635.7346z"/><path d="m27.3006 47.842c-.9977.4444-2.0408.7891-3.0567 1.0885-.8526.2539-1.669-.2086-1.3787-1.0431.4807-1.3787.1814-2.3583.1814-2.3583-3.5012-1.0885-3.0023-4.2631-3.0023-4.2631-4.2631-1.3878-4.0273-5.8776-4.0273-5.8776-4.1815-1.6327-3.1747-6.8935-3.1747-6.8935-2.5042-1.7784-3.0413-4.5362-2.1134-7.3199 1.0794.6077 2.6214.8163 4.3266.7982-.6659 2.1001-.0565 4.1761 2.1588 5.7416 0 0-.3084 5.9956 3.8731 7.6283 0 0-.9524 3.2744 3.3107 4.6622 0 0-.4807 3.6554 3.0204 4.7438 0 0 .2994.9796-.1814 2.3583-.0997.2992-.0635.5441.0635.7346z"/><path d="m10.9829 20.5128s-2.4037 4.9615 1.8594 7.982c27.7437-3.1442 28.1651-18.7377 28.4008-19.2094-12.7824 13.8207-30.2602 11.2274-30.2602 11.2274z"/></g><g><path d="m36.7792 16.2497c1.2085-1.4156 1.2884-2.8513.2359-4.2813-3.1011 4.224-13.7364 5.6249-20.0366 1.9865-1.0522-.6077-1.8595-1.3062-2.3946-2.0318-.4807.644-.7347 1.3152-.7347 1.9864 0 .7801.3537 1.5783 1.0068 2.3311-5.9956-3.5012-6.0047-9.1339-.0091-12.626 6.0137-3.4922 15.7826-3.4831 21.8416.009 6.0319 3.4831 6.0772 9.134.0907 12.6261z" fill="#f1f1f3"/><path d="m34.6749 13.9549c-4.7466 2.75-12.7844 2.8367-17.6964 0-1.0522-.6077-1.8595-1.3062-2.3946-2.0318-.4807-.6531-.7347-1.3334-.7347-1.9955 0-1.4059 1.1157-2.8572 3.0748-3.991 2.3221-1.3515 5.4514-2.0952 8.8256-2.0952 9.096 0 16.3976 5.8155 8.9253 10.1135z" fill="#d9d9db"/><path d="m37.0151 11.9684c-3.1011 4.224-13.7364 5.6249-20.0366 1.9865-1.0522-.6077-1.8595-1.3062-2.3946-2.0318 2.0281-2.8974 7.3255-4.0999 11.1657-4.0999 3.8555 0 9.1525 1.1944 11.2655 4.1452z" fill="#bcbbbb"/></g><path d="m36.6885 3.6236c-6.059-3.4921-15.8279-3.5012-21.8416-.009-6.0137 3.5012-5.9865 9.1611.0635 12.6623 6.05 3.4921 15.8279 3.4921 21.8416-.0091 6.0137-3.4921 5.9774-9.152-.0635-12.6442zm-2.0136 10.3313c-4.7466 2.75-12.7844 2.8367-17.6964 0-1.9865-1.152-3.1293-2.6214-3.1293-4.0273s1.1157-2.8572 3.0748-3.991c2.3221-1.3515 5.4514-2.0952 8.8256-2.0952 9.0436 0 16.3922 5.7923 8.9253 10.1135z" fill="#eaeaec"/><path d="m15.0737 15.3427c-3.2291-1.8685-4.7348-4.3448-4.5352-6.7848-.7256 2.7302.5231 5.9514 4.1603 8.0557 9.0697 5.2353 25.8623 1.5821 26.5249-6.2053-.4807 1.805-17.4044 9.9824-26.15 4.9344z" fill="#d3d3d3"/><path d="m29.6861 16.6398c-4.3458.7823-9.5319.2706-13.244-1.8721-2.2786-1.322-3.5851-3.0782-3.5851-4.8183 0-3.0221 3.4952-5.0902 6.3778-6.0293v-1.15c-3.646 1.0176-8.0651 3.4574-8.0603 7.1766.0026 2.0626 1.4617 4.0422 4.1075 5.5735 4.0503 2.3379 9.6076 2.9439 14.4041 2.1917z" fill="#f6f6f8" opacity=".5"/><path d="m27.9077 2.0062v1.0511c8.5787.8 14.6725 6.5422 8.2863 11.1751v1.4976c9.0857-5.0524 2.8673-12.8019-8.2863-13.7238z" fill="#f6f6f8" opacity=".5"/><path d="m16.017 35.3883c.0237 5.3973 4.0273 5.8776 4.0273 5.8776 9.1093-1.1032 15.9095-11.7643 15.9095-11.7643-12.3021 7.6256-19.9368 5.8867-19.9368 5.8867z" fill="#d3d3d3"/><path d="m11.3932 28.4036s-5.9517 8.2004 20.0813 0c0 0-20.5476 5.3995-20.0813 0z" fill="#bcbbbb"/><path d="m36.9001 29.6107s6.9579 2.7152-10.0463 7.0466c0 0 13.3488-3.5233 10.0463-7.0466z" fill="#bcbbbb"/><path d="m15.9198 9.7821s-4.3725 2.6912 6.1436 4.3092c0 0-8.3982-1.6483-6.1436-4.3092z" fill="#adacac"/><path d="m22.4608 45.3959s-.855.2617-.5932 1.2563c.2617.9946 2.4011.1137 3.0421-.178.6939-.3158 2.4877-.9901 4.7523-3.3785 0 0-4.1887 2.8534-5.9061 3.3275-2.1527.5942-1.2951-1.0273-1.2951-1.0273z" fill="#bcbbbb"/><path d="m41.078 19.1274s4.3884 1.2113.262 3.2103c-1.2501.6056-2.5848 1.0111-4.7322 1.5037-2.9014.6655-9.0564.8857-11.4429.6526 0 0 20.2424-1.8736 15.9131-5.3666z" fill="#bcbbbb"/><path d="m25.8947 20.0321c-4.5905 2.4815-11.606 4.5335-16.4265 2.1224-4.6895-2.4309-1.923-5.6599.0544-6.059.0181.2177.0363.4263.0635.6349-2.4377 1.8904-.7434 8.4167 16.3086 3.3017z" fill="#bcbbbb"/><path d="m29.5016 7.1163c-.2102 0-.4204.0065-.6226.0129 7.9021.1588 7.6272 5.7593-.2749 5.7593-1.3666 0-2.6199-.2141-3.6387-.5773 3.9234 1.8575 10.9566.6219 10.9566-2.1532 0-1.6797-2.8787-3.0417-6.4204-3.0417z" fill="#adacac"/></g></svg>