<svg id="Layer_1" enable-background="new 0 0 500 500" viewBox="0 0 500 500" xmlns="http://www.w3.org/2000/svg"><g><path d="m185.73 447.232c-6.884 1.103-15.29 1.077-22.025-1.029-12.767-3.991-21.458-16.689-25.647-28.758-4.508-12.99-5.081-27.168-4.59-40.79.945-26.212 9.358-45.75 32.785-57.27 15.293-7.52 29.776-18.389 46.754-21.585 11.435-2.152 22.658-.135 33.217 4.502 4.577 2.01 25.392 10.78 22.079 18.082-.177.391-.528.845-.938 1.301-.654.726-1.461 1.454-1.97 1.932-3.121 2.93-5.886 5.721-8.722 8.932-.751.85-1.676 1.788-2.587 2.469-3.194 2.387-6.907 6.291-10.661 7.665.956 5.387.636 11.072.913 16.537.175 3.454-.617 6.13-.137 9.682.501 3.707 1.27 7.373 1.936 11.052 1.238 6.846 2.824 14.488.833 21.345-1.156 3.982-4.53 7.33-6.824 10.959-6.062 9.592-11.658 20.168-21.273 26.717-9.529 6.49-22.075 6.483-33.143 8.257z" fill="#ffd1a9"/><path d="m155.367 438.521c-23.52-18.322-38.301-44.082-53.655-69.067-9.388-15.276-10.356-32.809-11.804-50.183-.85-10.199-1.626-20.407-2.082-30.632-.374-8.389-2.879-21.39.041-29.353 1.262-3.44 6.147-11.569 8.613-14.502 4.176-4.967 8.586-5.051 13.71-.812 3.729 3.086 2.665 5.537 3.027 10.505.864 11.875 5.444 21.032 9.069 32.4 9.518 29.851 19.566 58.113 37.16 85.269-3.562 15.946 1.008 29.645 3.744 44.546.678 3.417 3.196 13.732.932 17.412-1.406 2.283-3.681 1.813-8.755 4.417z" fill="#ffd1a9"/><path d="m170.409 384.173 119.506-70.804c4.9-2.903 6.628-9.337 3.859-14.372l-130.203-235.387c-2.769-5.034-8.986-6.761-13.886-3.858l-119.506 70.805c-4.9 2.903-6.628 9.337-3.859 14.371l130.202 235.387c2.769 5.034 8.986 6.762 13.887 3.858z" fill="#5d676b"/><path d="m181.315 377.876 119.506-70.804c4.9-2.903 6.628-9.338 3.859-14.372l-130.202-235.387c-2.769-5.034-8.986-6.761-13.886-3.858l-119.506 70.805c-4.9 2.903-6.628 9.338-3.86 14.371l130.204 235.387c2.769 5.034 8.985 6.762 13.885 3.858z" fill="#798a89"/><path d="m48.372 142.368 12.344 22.269 37.28 67.339 6.474 11.703 57.343 103.588c.498.889 1.495 1.245 2.384.818.071 0 .142-.035.214-.071l92.809-54.96 10.53-6.261 16.897-9.996c.925-.569 1.245-1.779.711-2.703l-25.185-45.498-18.853-34.043-4.091-7.399-18.854-34.043-46.458-83.951c-.534-.925-1.672-1.245-2.597-.711l-2.135 1.281-73.351 43.434-30.664 18.176-6.688 3.949-7.399 4.375c-.925.569-1.245 1.779-.711 2.704z" fill="#5d676b"/><path d="m48.372 142.368 77.904 140.725 35.537 64.173c.498.889 1.495 1.245 2.384.818l117.994-69.9c.925-.534 1.245-1.743.747-2.704l-34.648-62.608-78.793-142.29c-.462-.854-1.459-1.21-2.312-.854-.107 0-.214.036-.32.107l-117.782 69.829c-.925.569-1.245 1.779-.711 2.704z" fill="#7ffbe9"/><path d="m248.29 212.873-122.014 70.22-19.437-35.11 122.963-68.92z" fill="#bdded9"/><path d="m244.043 213.966-114.688 66.004-17.503-31.168 115.316-65.446z" fill="#ede5e1"/><g><path d="m125.721 248.798h1.396v18.63h-1.396z" fill="#383838" transform="matrix(.88 -.474 .474 .88 -107.276 90.807)"/></g><g><path d="m126.276 283.093 35.537 64.173c.498.889 1.495 1.245 2.384.818l117.994-69.9c.925-.534 1.245-1.743.747-2.704l-34.648-62.608z" fill="#bdded9"/><g fill="#ede5e1"><path d="m254.471 267.578 9.17-5.278c2.102-1.21 4.786-.487 5.996 1.615l5.804 10.082c1.21 2.102.486 4.786-1.615 5.996l-9.17 5.279c-2.102 1.21-4.786.487-5.996-1.615l-5.803-10.082c-1.211-2.102-.488-4.787 1.614-5.997z"/><path d="m243.007 247.663 9.17-5.279c2.102-1.21 4.786-.487 5.996 1.615l5.804 10.082c1.21 2.102.487 4.787-1.615 5.996l-9.17 5.279c-2.102 1.21-4.787.487-5.997-1.615l-5.804-10.082c-1.209-2.102-.486-4.787 1.616-5.996z"/><path d="m231.543 227.747 9.17-5.279c2.102-1.21 4.786-.487 5.996 1.615l5.803 10.082c1.21 2.102.487 4.786-1.615 5.996l-9.17 5.279c-2.102 1.21-4.786.487-5.996-1.615l-5.803-10.082c-1.21-2.102-.487-4.787 1.615-5.996z"/><path d="m235.034 278.767 9.17-5.279c2.102-1.21 4.786-.487 5.996 1.615l5.804 10.082c1.21 2.102.487 4.786-1.615 5.996l-9.17 5.279c-2.102 1.21-4.786.487-5.996-1.615l-5.804-10.082c-1.21-2.101-.487-4.786 1.615-5.996z"/><path d="m223.57 258.851 9.17-5.279c2.102-1.21 4.786-.487 5.996 1.615l5.804 10.082c1.21 2.102.487 4.786-1.615 5.996l-9.17 5.279c-2.102 1.21-4.786.487-5.996-1.615l-5.804-10.082c-1.21-2.101-.487-4.786 1.615-5.996z"/><path d="m212.106 238.935 9.17-5.279c2.102-1.21 4.787-.487 5.996 1.615l5.803 10.082c1.21 2.102.487 4.787-1.615 5.996l-9.17 5.278c-2.102 1.21-4.786.487-5.996-1.615l-5.803-10.082c-1.21-2.1-.487-4.785 1.615-5.995z"/><path d="m215.597 289.956 9.17-5.279c2.102-1.21 4.786-.487 5.996 1.615l5.804 10.082c1.21 2.101.487 4.786-1.615 5.996l-9.17 5.279c-2.102 1.21-4.786.487-5.996-1.615l-5.804-10.082c-1.21-2.102-.486-4.787 1.615-5.996z"/><path d="m204.133 270.039 9.17-5.279c2.102-1.21 4.786-.487 5.996 1.615l5.803 10.082c1.21 2.102.487 4.786-1.615 5.996l-9.17 5.278c-2.102 1.21-4.786.487-5.996-1.615l-5.803-10.082c-1.209-2.1-.486-4.785 1.615-5.995z"/><path d="m192.669 250.123 9.17-5.279c2.102-1.21 4.786-.487 5.996 1.615l5.804 10.082c1.209 2.102.486 4.786-1.615 5.996l-9.17 5.278c-2.102 1.21-4.786.487-5.996-1.615l-5.804-10.082c-1.21-2.1-.487-4.785 1.615-5.995z"/><path d="m196.161 301.144 9.17-5.279c2.102-1.21 4.786-.487 5.996 1.615l5.803 10.082c1.21 2.102.487 4.786-1.615 5.996l-9.17 5.278c-2.102 1.21-4.786.487-5.996-1.615l-5.803-10.082c-1.21-2.101-.487-4.785 1.615-5.995z"/><path d="m184.697 281.228 9.17-5.279c2.102-1.21 4.786-.486 5.996 1.615l5.804 10.082c1.21 2.102.486 4.786-1.615 5.996l-9.17 5.278c-2.102 1.21-4.787.487-5.996-1.615l-5.803-10.082c-1.211-2.101-.488-4.785 1.614-5.995z"/><path d="m173.232 261.312 9.17-5.279c2.102-1.209 4.786-.486 5.996 1.615l5.804 10.082c1.21 2.102.487 4.786-1.615 5.996l-9.17 5.279c-2.102 1.21-4.786.486-5.996-1.615l-5.804-10.082c-1.21-2.102-.487-4.786 1.615-5.996z"/><path d="m176.724 312.332 9.17-5.279c2.102-1.21 4.786-.486 5.996 1.615l5.803 10.082c1.21 2.102.487 4.786-1.615 5.996l-9.17 5.279c-2.102 1.21-4.786.486-5.996-1.615l-5.803-10.082c-1.21-2.101-.487-4.786 1.615-5.996z"/><path d="m165.26 292.416 9.17-5.278c2.102-1.21 4.786-.487 5.996 1.615l5.804 10.082c1.21 2.102.487 4.786-1.615 5.996l-9.17 5.279c-2.102 1.21-4.786.486-5.996-1.615l-5.804-10.082c-1.21-2.102-.487-4.787 1.615-5.997z"/><path d="m153.796 272.5 9.17-5.278c2.102-1.21 4.786-.487 5.996 1.615l5.804 10.082c1.21 2.102.487 4.786-1.615 5.996l-9.17 5.279c-2.102 1.21-4.786.487-5.996-1.615l-5.804-10.082c-1.21-2.102-.487-4.787 1.615-5.997z"/><path d="m157.287 323.52 9.17-5.278c2.102-1.21 4.786-.487 5.996 1.615l5.804 10.082c1.21 2.102.487 4.786-1.615 5.996l-9.17 5.279c-2.102 1.21-4.787.487-5.996-1.615l-5.804-10.082c-1.21-2.102-.487-4.787 1.615-5.997z"/><path d="m145.823 303.604 9.17-5.278c2.102-1.21 4.786-.487 5.996 1.615l5.804 10.082c1.21 2.102.487 4.786-1.615 5.996l-9.17 5.279c-2.102 1.21-4.786.487-5.996-1.615l-5.804-10.082c-1.21-2.102-.487-4.787 1.615-5.997z"/><path d="m134.359 283.689 9.17-5.279c2.102-1.21 4.786-.487 5.996 1.615l5.803 10.082c1.21 2.102.487 4.786-1.615 5.996l-9.17 5.279c-2.102 1.21-4.786.487-5.996-1.615l-5.803-10.082c-1.21-2.102-.487-4.787 1.615-5.996z"/></g></g><path d="m54.561 188.709c1.988-1.082 3.796-2.38 5.539-.034 1.529 2.058 2.575 4.733 3.799 6.981 4.231 7.775 8.461 15.551 12.692 23.326.787 1.447 2.857 3.972 2.658 5.747-.298 2.656-5.036 3.849-6.487 2.071-1.312-1.608-2.161-3.972-3.148-5.786-2.183-4.012-4.366-8.024-6.549-12.036-2.317-4.259-4.635-8.518-6.952-12.777-.916-1.681-4.297-5.999-1.552-7.492z" fill="#98bccc"/><path d="m75.801 227.745c1.076-.586 1.474-1.933.889-3.009l-19.121-35.14c-.585-1.076-1.933-1.474-3.009-.888-1.076.586-1.474 1.933-.888 3.009l19.12 35.14c.586 1.076 1.933 1.474 3.009.888z" fill="#7e92a8"/><path d="m91.521 104.234c.64 1.138 1.85 1.814 3.06 1.814.605 0 1.209-.178 1.743-.498l24.865-14.229s.035 0 .035-.035l1.316-.747c1.707-.96 2.277-3.166 1.316-4.873-.676-1.138-1.885-1.779-3.095-1.779-.605 0-1.21.142-1.779.463l-1.316.782-24.828 14.228c-1.708.996-2.313 3.166-1.317 4.874z" fill="#5d676b"/><path d="m91.521 104.234c.64 1.138 1.85 1.814 3.06 1.814.605 0 1.209-.178 1.743-.498l24.865-14.229s.035 0 .035-.035c1.672-.996 2.277-3.13 1.281-4.838-.64-1.138-1.85-1.814-3.06-1.814-.604 0-1.209.178-1.779.498l-24.828 14.228c-1.708.996-2.313 3.166-1.317 4.874z" fill="#424a4d"/><path d="m224.223 323.818c0 7.182 5.822 13.004 13.004 13.004 7.181 0 13.003-5.822 13.003-13.004s-5.822-13.004-13.003-13.004c-7.182 0-13.004 5.822-13.004 13.004z" fill="#424a4d"/><path d="m225.047 323.818c0 6.727 5.453 12.18 12.18 12.18s12.18-5.453 12.18-12.18-5.453-12.18-12.18-12.18-12.18 5.453-12.18 12.18z" fill="#5d676b"/><path d="m121.191 400.619c-7.219-11.636-3.738-17.637-4.302-27.199-.323-5.46-1.748-12.51-4.183-19.384-1.627-4.912-4.33-10.078-5.317-15.407-.889-4.797-.753-7.331-2.606-12.458-1.893-5.237-4.006-10.42-5.296-15.527-2.396-9.486-1.091-18.657.028-26.851 1.394-10.215 4.075-17.639 13.445-17.63 7.839.008 13.118 2.348 16.548 11.631 2.198 5.949 4.477 13.037 5.175 19.791.671 6.495 1.255 13.231 5.071 20.639 7.387 14.338 15.575 27.46 22.884 40.05 4.799 7.812 10.17 15.31 15.618 22.079 8.149 10.125 21.514 24.428 18.785 33.583-1.366 4.582-5.464 7.465-8.01 11.313-2.221 3.357-3.67 7.27-6.131 10.546-3.857 5.134-13.594 9.707-23.104 6.649-9.614-3.091-20.598-12.256-26.707-19.946-3.681-4.633-15.117-18.403-11.898-21.879z" fill="#ffd1a9"/><g opacity=".6"><path d="m169.232 327.433c-2.165-6.781-3.197-13.977-5.674-20.646-1.3-3.501-5.211-8.518-5.328-12.009-.204-6.117 3.466-2.926 7.937-.56 3.79 2.006 7.655 4.456 11.936 5.253 7.409 1.38 12.851-1.794 14.317-9.314 1.085-5.569.32-11.977.886-17.669.625-6.283 1.031-9.892-1.594-15.637-2.132-4.669-8.137-2.406-9.669 1.264-2.681 6.423-2.688 14.043-2.758 20.973-.078 7.64 2 8.797-5.721 5.108-6.296-3.009-14.513-8.349-21.615-4.486-6.247 3.398-5.6 10.125-3.267 15.875 1.83 4.507 5.044 8.179 7.395 12.376 3.753 6.698 6.022 14.154 9.355 21.074 1.023 2.119 4.513.631 3.8-1.602z" fill="#f15a24"/></g><g fill="#ffd1a9"><path d="m311.944 302.68c-1.087 2.227-2.747 4.167-5.103 5.594-16.057 9.728-36.412 3.204-52.713-1.514-10.318-2.987-21.142-3.819-31.496-7.509-16.574-5.906-47.985-19.354-43.942-42.341 2.29-13.013 17.865-7.361 25.862-3.955 12.142 5.173 25.389 13.147 39.083 15.028 15.814 2.172 32.257 2.919 48.241 4.754 8.515.978 16.72 4.408 19.905 12.562 2.122 5.432 2.7 12.186.163 17.381z"/><path d="m283.289 273.002c12.185-2.101 24.491-9.152 36.979-9.564 10.296-.339 21.41 6.654 30.434 11.029 1.19 8.13 5.424 20.995-.552 31.077-11.2 18.895-40.27.25-53.576-7.144-4.581-2.546-22.257-7.448-22.088-14.441.088-3.627 5.518-10.391 8.803-10.957z"/><path d="m321.392 269.338c11.466-9.814 26.214-17.19 41.303-12.121 7.848 2.636 16.614 8.389 20.249 15.945 1.998 4.154 6.068 15.426 4.399 20.41-5.559 16.605-47.948 3.379-57.18-2.233-4.806-2.922-16.932-14.352-8.771-22.001z"/><path d="m354.366 270.804c2.493-15.094 31.096-16.194 40.739-9.86 10.259 6.738 25.322 26.258 15.368 37.86-7.931 9.244-31.343 6.583-40.695.865-6.371-3.897-18.379-15.379-15.412-28.865z"/><path d="m412.452 284.12c1.664 6.934 5.273 9.465 9.473 14.544 6.204 7.503 7.955 13.363 8.824 23.028 1.75 19.476 1.589 31.758-14.546 43.657-16.903 12.466-31.716 39.396-54.051 33.339-16.449-4.461-33.51-8.212-48.577-16.495-6.847-3.764-14.582-9.012-19.17-15.505-5.766-8.16-3.679-16.604-6.557-25.452-2.569-7.771-8.004-19.1 4.958-20.312-.853-.374-4.295-2.118-4.156-2.085-1.666-1.162-11.064-12.694-12.84-11.518 30.477-20.203 68.985-26.022 105.184-26.735 9.927-.195 20.143 2.759 29.861 1.794 1.066.449 1.798 1.211 1.597 1.74z"/><path d="m436.178 315.441c9.677 10.833 19.364 21.638 29.183 32.363 2.717 2.968 8.882 9.074 9.518 13.004 1.122 6.934-5.814 18.355-9.135 24.005-4.622 7.864-8.737 19.881-15.281 26.348-5.543 5.478-9.869 5.708-16.961 2.652-4.625-1.993-8.433-6.669-13.05-8.943-6.828-3.361-15.225-5.843-22.577-7.923-11-3.111-25.133.878-30.348-11.182-4.89-11.308 1.615-25.026 9.056-33.201 10.564-11.607 15.797-28.719 28.7-40.007 8.593-7.517 15.548-14.306 24.173-4.644 2.24 2.51 4.481 5.02 6.722 7.528z"/></g></g></svg>