<svg id="Layer_1" enable-background="new 0 0 512 512" height="512" viewBox="0 0 512 512" width="512" xmlns="http://www.w3.org/2000/svg"><g><path d="m455.303 276.023c-.396 1.15-.634 2.458-1.229 3.805-1.308 1.665-3.567 3.211-6.382 4.638-4.994 2.458-11.653 4.479-17.956 6.065-6.421 1.625-12.367 2.735-15.776 3.409-.277.04-.515.079-.793.119-.238.079-.515.119-.793.159-.277.079-.555.119-.872.159-.277.079-.555.119-.872.159-.436.079-.832.159-1.268.238s-.912.159-1.348.238c-.476.079-.951.159-1.427.277-.476.079-.951.159-1.467.238-.595.119-1.149.198-1.784.317-.595.119-1.229.198-1.823.317-.634.119-1.308.238-1.942.357-.674.119-1.308.238-2.021.357-4.241.753-8.958 1.625-13.952 2.616-5.034.991-10.345 2.101-15.855 3.369-5.549 1.268-11.257 2.695-16.965 4.36-5.827 1.665-11.653 3.607-17.361 5.787-4.994 1.942-10.227 4.043-15.815 6.263-5.708 2.259-11.812 4.598-18.431 6.857-2.339.793-4.717 1.585-7.174 2.378-4.717 1.506-9.751 2.973-15.023 4.4-8.284 2.18-17.361 4.32-27.469 6.065-1.942.357-3.924.674-5.946.991-4.677.753-9.592 1.387-14.705 1.942-7.373.753-15.221 1.268-23.624 1.586-8.482.317-17.48.436-27.152.119-9.592-.317-19.819-1.229-30.362-2.933-27.152-5.153-46.732-10.861-60.526-15.776-13.596-4.875-21.999-8.562-27.112-11.653-1.031-.634-2.021-1.268-2.933-1.942-3.647-2.656-4.558-7.69-2.339-11.653.238-.396.436-.793.595-1.15-.04-.04-.04-.04 0-.04 15.459-38.369 49.388-64.926 128.941-69.207 2.18-.119 4.32-.238 6.461-.396 76.58-5.787 110.707-39.637 127.315-66.036 3.409-5.391 8.998-6.976 15.736-6.501 8.681.595 19.185 4.558 29.371 8.205 4.955 1.784 9.79 3.488 14.349 4.717 1.268.317 2.497.634 3.686.872 7.927 1.744 14.507 1.467 18.233-3.33 20.057-25.962 38.528-19.145 46.178-7.452 1.506 2.22 2.537 4.598 3.171 6.976 8.087 31.351 18.551 74.992 6.461 109.714z" fill="#6584cc"/><path d="m368.651 171.416c11.644 6.722 31.945 7.664 48.877-13.965 6.942-8.868 28.861-3.724 23.74 29.791-5.121 33.516-77.272 26.533-77.272 26.533z" fill="#5c79ba"/><path d="m373.135 176.216c-5.668 6.857-10.742 15.459-15.102 22.395-4.955 7.888-39.003 74.915-66.036 129.892-4.717 1.506-9.751 2.973-15.023 4.4-8.284 2.18-17.361 4.32-27.469 6.065-1.942.357-3.924.674-5.946.991-4.677.753-9.592 1.387-14.705 1.942-7.373.753-15.221 1.268-23.624 1.586-8.205.317-16.846.436-26.161.159-.317-.04-.674-.04-.991-.04-9.592-.317-19.819-1.229-30.362-2.933-27.152-5.153-46.732-10.861-60.526-15.776-13.596-4.875-21.999-8.562-27.112-11.653-1.031-.634-2.021-1.268-2.933-1.942-3.647-2.656-4.558-7.69-2.339-11.653.238-.396.436-.793.595-1.15-.04-.04-.04-.04 0-.04.515-1.308 1.07-2.616 1.665-3.924 15.459-34.683 47.486-58.941 117.446-64.609 3.211-.277 6.461-.476 9.83-.674 2.18-.119 4.32-.238 6.461-.396 25.645 1.704 47.565-3.052 66.393-11.416 36.308-16.093 55.968-34.128 71.268-68.493 6.302-14.111 23.029-7.69 35.832 1.07 8.245 5.629 14.864 12.248 16.132 15.023 1.15 2.892-1.744 6.38-7.293 11.176z" fill="#7298e4"/><path d="m373.135 176.216c-5.668 6.857-10.742 15.459-15.102 22.395-4.955 7.888-39.003 74.915-66.036 129.892-4.717 1.506-9.751 2.973-15.023 4.4-8.284 2.18-17.361 4.32-27.469 6.065-1.942.357-3.924.674-5.946.991-4.677.753-9.592 1.387-14.705 1.942-7.373.753-15.221 1.268-23.624 1.586-8.205.317-16.846.436-26.161.159 8.918-3.131 17.163-7.69 23.862-14.111 11.812-11.257 18.114-26.874 18.352-43.046.198-12.684-2.894-30.679 10.9-37.695 27.865-14.23 57.395-27.548 83.001-46.297 19.422-14.23 35.753-32.423 49.111-52.48 8.245 5.629 14.864 12.248 16.132 15.023 1.151 2.892-1.743 6.38-7.292 11.176z" fill="#7099e0"/><path d="m455.303 276.023c-.396 1.15-.634 2.458-1.229 3.805-1.308 1.665-3.567 3.211-6.382 4.638-4.994 2.458-11.653 4.479-17.956 6.065-6.421 1.625-12.367 2.735-15.776 3.409-.277.04-.515.079-.793.119-.238.079-.515.119-.793.159-.277.079-.555.119-.872.159-.277.079-.555.119-.872.159-.436.079-.832.159-1.268.238s-.912.159-1.348.238c-.476.079-.951.159-1.427.277-.476.079-.951.159-1.467.238-.555.119-1.07.198-1.625.277-.04 0-.119.04-.159.04-.595.119-1.229.198-1.823.317-.634.119-1.308.238-1.942.357-.674.119-1.308.238-2.021.357-4.241.753-8.958 1.625-13.952 2.616-5.034.991-10.345 2.101-15.855 3.369-5.549 1.268-11.257 2.695-16.965 4.36-5.827 1.665-11.653 3.607-17.361 5.787-4.994 1.942-10.227 4.043-15.815 6.263-3.607 1.427-7.372 2.894-11.297 4.32-2.299.872-4.677 1.704-7.135 2.537-6.778 2.339-14.151 4.598-22.197 6.778-8.284 2.18-17.361 4.32-27.469 6.065-1.942.357-3.924.674-5.946.991-13.556-38.29-26.478-77.253-3.25-87.638 31.71-14.19 100.005-51.965 115.583-78.958 2.576-4.439 4.994-7.254 7.333-8.839 6.144-4.162 11.733.079 18.035 5.589 5.985 5.193 12.605 11.574 20.889 13.16 20.492 3.964 43.522-9.513 43.522-23.901 1.506 2.22 2.537 4.558 3.171 6.936 8.088 31.35 18.552 74.991 6.462 109.713z" fill="#6d92db"/><path d="m352.046 211.757c-.103 6.09-5.077 11.035-11.107 11.057s-10.729-4.811-10.479-10.802 5.208-10.962 11.092-11.083c5.883-.12 10.597 4.738 10.494 10.828z" fill="#eeffc4"/><path d="m345.872 210.71c-.089 3.45-2.923 6.27-6.33 6.302s-6.063-2.71-5.929-6.13c.134-3.419 2.965-6.248 6.326-6.311 3.363-.063 6.021 2.689 5.933 6.139z" fill="#e5faaf"/><path d="m346.877 202.362c1.849 1.952 2.971 4.644 2.909 7.639-.124 6.074-5.098 11.019-11.108 11.052-2.003.011-3.835-.555-5.413-1.486 1.903 2.004 4.615 3.251 7.672 3.243 6.031-.017 11.006-4.962 11.108-11.053.069-4.06-2.034-7.538-5.168-9.395z" fill="#e5faaf"/><path d="m327.302 227.663c-.103 6.09-5.077 11.035-11.107 11.057s-10.729-4.811-10.479-10.802 5.208-10.962 11.092-11.083c5.883-.12 10.597 4.739 10.494 10.828z" fill="#eeffc4"/><path d="m321.128 226.617c-.088 3.45-2.923 6.27-6.329 6.302-3.407.032-6.063-2.71-5.929-6.13.134-3.419 2.965-6.248 6.327-6.311 3.36-.064 6.019 2.688 5.931 6.139z" fill="#e5faaf"/><path d="m322.133 218.268c1.849 1.952 2.971 4.644 2.909 7.639-.124 6.074-5.098 11.019-11.108 11.052-2.003.011-3.836-.555-5.414-1.486 1.903 2.004 4.615 3.252 7.672 3.243 6.031-.017 11.006-4.962 11.108-11.053.069-4.06-2.033-7.538-5.167-9.395z" fill="#e5faaf"/><path d="m293.709 246.794c-.103 6.09-5.078 11.035-11.108 11.057s-10.729-4.811-10.479-10.802 5.208-10.962 11.092-11.083 10.598 4.738 10.495 10.828z" fill="#eeffc4"/><path d="m287.535 245.747c-.089 3.45-2.923 6.27-6.33 6.302-3.407.033-6.063-2.71-5.929-6.13s2.965-6.248 6.326-6.312c3.363-.062 6.022 2.69 5.933 6.14z" fill="#e5faaf"/><path d="m288.541 237.398c1.849 1.952 2.97 4.645 2.909 7.639-.124 6.075-5.098 11.019-11.108 11.053-2.003.011-3.836-.556-5.413-1.486 1.903 2.004 4.615 3.251 7.672 3.243 6.03-.017 11.006-4.963 11.108-11.052.068-4.061-2.034-7.54-5.168-9.397z" fill="#e5faaf"/><path d="m264.453 258.994c-.103 6.09-5.078 11.035-11.107 11.057-6.03.022-10.729-4.811-10.479-10.802s5.208-10.962 11.092-11.083c5.884-.12 10.597 4.739 10.494 10.828z" fill="#eeffc4"/><path d="m258.279 257.948c-.088 3.45-2.923 6.27-6.329 6.302-3.407.032-6.063-2.71-5.929-6.13s2.965-6.248 6.327-6.311c3.361-.064 6.02 2.688 5.931 6.139z" fill="#e5faaf"/><path d="m259.285 249.599c1.849 1.952 2.971 4.644 2.909 7.639-.125 6.074-5.098 11.019-11.108 11.052-2.003.011-3.836-.555-5.414-1.486 1.903 2.004 4.615 3.252 7.672 3.243 6.031-.018 11.006-4.962 11.108-11.053.069-4.06-2.033-7.538-5.167-9.395z" fill="#e5faaf"/><path d="m377.664 188.495c-.103 6.09-5.078 11.035-11.107 11.057-6.03.022-10.729-4.811-10.479-10.802s5.208-10.962 11.092-11.083c5.884-.12 10.598 4.738 10.494 10.828z" fill="#eeffc4"/><path d="m371.491 187.448c-.088 3.45-2.923 6.27-6.329 6.302-3.407.032-6.063-2.71-5.929-6.13s2.965-6.248 6.326-6.311 6.02 2.689 5.932 6.139z" fill="#e5faaf"/><path d="m372.496 179.1c1.849 1.952 2.97 4.645 2.909 7.639-.125 6.075-5.098 11.019-11.108 11.052-2.003.011-3.836-.556-5.414-1.486 1.903 2.004 4.615 3.251 7.672 3.243 6.031-.017 11.006-4.962 11.108-11.053.069-4.06-2.033-7.538-5.167-9.395z" fill="#e5faaf"/><g fill="#78695b"><path d="m373.016 188.543c0 .277-.04.515-.079.793-.436 2.933-2.893 5.272-5.866 5.47-.119.04-.277.04-.396.04-3.409 0-6.065-2.735-5.946-6.144 0-.159.04-.317.079-.476.357-3.211 3.052-5.787 6.263-5.827h.317c3.21.08 5.707 2.815 5.628 6.144z"/><path d="m347.331 212.801c-.04.079-.04.159-.079.238-1.149 3.052-4.36 4.796-7.452 4.202-.238-.04-.436-.079-.674-.159-2.616-.753-4.202-3.052-4.281-5.549 0-.04-.04-.04-.04-.04-.04-.793.079-1.546.357-2.339.872-2.418 3.012-4.083 5.351-4.479.951-.119 1.903-.079 2.854.198 3.37.992 5.153 4.559 3.964 7.928z"/><path d="m289.659 248.198c-.238.714-.595 1.308-.991 1.903-1.625 2.14-4.479 3.171-7.174 2.378-.04-.04-.04-.04-.079-.04-3.369-1.031-5.153-4.558-3.964-7.927.317-.872.793-1.625 1.387-2.259 1.704-1.863 4.36-2.775 6.857-2.022.396.119.753.278 1.07.436 2.616 1.347 3.924 4.518 2.894 7.531z"/><path d="m259.772 260.961c-.159.436-.357.832-.595 1.229-1.506 2.576-4.677 3.924-7.65 3.012-.119-.04-.238-.079-.317-.119 0-.04 0-.04 0-.04-3.171-1.11-4.796-4.558-3.647-7.769.317-.832.753-1.586 1.348-2.22 1.665-1.903 4.36-2.814 6.897-2.061.793.238 1.506.634 2.101 1.149 1.903 1.547 2.735 4.242 1.863 6.819z"/><path d="m322.122 229.608c-.079.238-.198.476-.317.713-1.268 2.735-4.241 4.281-7.135 3.726-.238-.04-.515-.079-.753-.159-3.409-1.07-5.153-4.598-3.964-7.967.198-.555.476-1.07.832-1.546 1.585-2.339 4.598-3.528 7.373-2.735.079.04.119.04.198.079 3.25 1.071 4.915 4.559 3.766 7.889z"/></g><g><path d="m372.937 189.336c-.436 2.933-2.893 5.272-5.866 5.47-1.744-2.616-3.845-4.756-6.263-6.58-3.964-3.052-8.681-5.232-13.635-7.452-12.248-5.47-25.209-11.059-38.092-3.805-1.031.555-2.695-.436-2.18-1.704 6.025-14.428 23.981-10.861 35.634-5.946 8.601 3.607 18.194 7.055 24.853 13.08 2.219 2.022 4.082 4.281 5.549 6.937z" fill="#f2fcc0"/></g><g><path d="m347.252 213.039c-1.149 3.052-4.36 4.796-7.452 4.202-1.467-1.942-3.131-3.845-4.955-5.708 0-.04-.04-.04-.04-.04-12.486-12.684-32.265-22.474-48.358-13.675h-.04c-.04.04-.079.04-.119.079-.159.079-.357 0-.476-.119-.04-.079-.079-.198-.04-.317 4.558-13.001 22.593-10.108 32.82-6.104 5.391 2.14 15.062 7.135 21.919 13.318 2.936 2.617 5.314 5.431 6.741 8.364z" fill="#d5f2a9"/></g><g><path d="m321.805 230.321c-1.268 2.735-4.241 4.281-7.135 3.726-1.308-3.33-2.418-6.54-3.884-9.671-1.823-3.924-4.162-7.61-7.888-11.138-5.034-4.796-11.019-8.403-18.154-8.562-4.796-.079-8.72 2.457-13.477 1.903-.595-.079-.872-.555-.634-1.11 2.775-6.421 8.799-8.284 15.181-7.69.198 0 .396 0 .595.04h.04c6.144.634 12.525 3.409 16.569 6.461 4.915 3.647 11.297 10.226 15.34 17.44 1.584 2.814 2.812 5.747 3.447 8.601z" fill="#d5f2a9"/></g><g><path d="m288.668 250.1c-1.625 2.14-4.479 3.171-7.174 2.378-.753-3.488-1.586-6.897-2.656-10.226-1.149-3.488-2.616-6.897-4.558-10.226-2.854-4.836-6.382-8.641-11.019-11.852-4.003-2.735-7.412-2.497-11.772-3.924-.872-.317-1.308-1.506-.555-2.18 8.443-7.61 20.057 1.308 25.764 8.284 3.964 4.836 7.848 11.416 10.068 18.312 1.03 3.132 1.704 6.303 1.902 9.434z" fill="#d5f2a9"/></g><g><path d="m259.177 262.19c-1.506 2.576-4.677 3.924-7.65 3.012-.119-.04-.238-.079-.317-.119 0-.04 0-.04 0-.04-.714-1.942-.793-4.281-1.268-6.263-.317-1.268-.634-2.497-1.031-3.726-1.15-3.766-2.616-7.452-4.32-10.98-3.766-7.769-10.94-20.889-21.484-18.352-3.409.793-5.153-3.647-2.299-5.549 11.772-7.848 22.474 4.558 28.024 14.111 1.982 3.369 6.778 12.01 9.077 19.858.872 2.895 1.387 5.669 1.268 8.048z" fill="#d5f2a9"/></g><g><path d="m329.527 169.891c-29.62-21.782-56.702 10.697-84.088 18.936-2.225.669-3.478 3.893-1.472 5.574 9.889 8.285 21.822 8.723 33.747 4.284 5.65-2.104 10.701-5.178 15.233-9.114 9.188-7.979 16.178-14.181 28.062-18.831 3.5-1.369 2.06-7.047-1.581-5.733-9.909 3.577-17.065 6.324-24.892 13.443-11.905 10.83-30.088 24.201-45.854 11.235-.49 1.858-.981 3.716-1.471 5.574 28.943-8.997 47.35-35.996 81.026-22.311 1.893.768 2.685-2.031 1.29-3.057z" fill="#ebfcc7"/></g><g><path d="m323.968 166.36c-5.647.928-3.004 4.661-4.751 9.704-6.175 17.831-19.708 27.559-30.714 41.594-14.449 18.424-6.717 38.399 6.381 54.801 3.395 4.252 9.64-1.844 6.043-6.044-12.796-14.943-16.725-31.77-2.956-47.278 6.242-7.031 12.763-13.072 17.844-21.088 3.698-5.834 8.995-13.564 9.264-20.784.003-.08-1.412-9.798-.825-10.226.346-.252.137-.748-.286-.679z" fill="#ebfcc7"/></g><g><path d="m321.364 172.883c13.057 11.071 20.226 23.416 16.597 41.51-2.031 10.127-9.154 19.021-10.523 29.114-1.793 13.221 7.334 22.687 18.877 27.63 2.475 1.06 4.811-1.613 2.927-3.794-8.349-9.662-14.334-12.657-10.882-31.221.006-.034 4.335-10.388 4.453-10.753 2.513-7.723 4.713-17.717 3.633-25.826-1.878-14.093-11.58-23.265-24.54-27.593-.514-.17-.967.573-.542.933z" fill="#ebfcc7"/></g><g><path d="m330.025 176.785c-17.527-12.106 7.334-5.787 11.048-4.537 4.543 1.529 8.945 3.423 13.422 5.129 10.419 3.971 20.986 7.641 30.745 13.116 11.458 6.429 30.935 23.43 16.036 36.967-11.725 10.653-20.955-3.72-28.064-12.524-5.641-6.985-11.068-14.389-17.317-20.838-9.079-9.369-22.967-22.999-36.335-25.324-1.658-.289-3.333 1.761-1.807 3.106 15.09 13.3 30.168 23.043 42.897 39.099 6.883 8.682 16.287 27.617 28.362 30.617 19.921 4.949 30.51-26.293 22.515-40.443-12.291-21.754-51.248-32.225-74.071-37.671-4.534-1.082-15.4-4.067-17.938 2.423-2.482 6.348 5.546 10.139 10.221 11.559.421.128.618-.449.286-.679z" fill="#ebfcc7"/></g><path d="m450.19 307.78c-5.589 4.519-13.001 6.619-19.621 8.482-6.976 1.982-13.992 3.607-21.127 4.875-26.24 4.717-52.797 8.998-77.531 19.263-16.886 7.016-33.414 14.626-51.013 19.7-31.631 9.156-64.966 12.565-95.487 10.741-4.162-.198-8.403-.476-12.724-.872-23.862-2.14-49.586-7.214-75.153-13.992-12.605-3.329-25.526-7.729-36.427-16.449-6.302-5.034-9.909-10.385-9.909-14.071 0-3.409.04-6.937.317-10.187-.198-3.607-.357-6.936-.278-10.108.119-9.117 2.021-17.084 10.068-28.222 17.123-23.901 40.589-41.46 99.212-50.339 3.25-.515 6.58-.991 10.028-1.427 6.738-.872 13.675.753 19.105 4.836 6.461 4.835 14.824 13.476 22.197 28.42 8.641 17.52 15.855 43.681 16.965 82.644 26.636-2.814 52.916-8.879 78.165-18.431 14.388-5.43 28.38-10.94 43.244-16.291 13.675-4.876 27.31-6.421 41.025-8.324 14.388-2.893 28.698-5.271 43.046-9.473 2.378-.635 4.756-1.467 7.135-2.299 4.439-1.586 10.266-3.766 11.852-7.809.198-.476.277-.991.277-1.506.083 5.193 1.351 27.073-3.366 30.839z" fill="#fffbd4"/><path d="m453.559 276.935c0 .515-.079 1.03-.277 1.506-1.585 4.043-7.412 6.223-11.852 7.809-2.378.832-4.756 1.665-7.135 2.299-14.349 4.202-28.658 6.58-43.046 9.473-13.715 1.903-27.35 3.448-41.025 8.324-14.864 5.351-28.856 10.861-43.244 16.291-25.259 9.545-51.547 15.635-78.157 18.42-1.113-38.96-8.317-65.116-16.973-82.626-.624 22.051-4.287 44.013-10.83 65.058-4.968 15.978-12.997 30.996-24.696 42.959-1.183 1.209-2.393 2.383-3.635 3.515 4.32.396 8.562.673 12.724.872 30.521 1.823 63.856-1.586 95.487-10.742 17.599-5.074 34.128-12.684 51.013-19.7 24.734-10.266 51.291-14.547 77.531-19.263 7.135-1.268 14.151-2.894 21.127-4.875 6.619-1.863 14.032-3.964 19.621-8.482 4.715-3.766 3.447-25.646 3.367-30.838z" fill="#fcf7c5"/><path d="m191.913 282.333c-.04 22.117-13.556 42.689-31.551 55.571-5.708 4.043-11.931 7.532-18.749 9.117-5.708 1.308-11.653 1.268-17.48.713-22.792-2.141-44.751-12.208-61.24-28.103-4.4-4.32-8.562-9.156-11.653-14.468.119-7.808 1.506-14.785 7.016-23.623.872-1.467 1.903-3.013 3.052-4.598 14.468-20.215 33.454-35.872 74.399-45.583 7.491-1.783 15.736-3.369 24.813-4.756.238.159.436.317.674.476 17.638 12.921 30.758 33.374 30.719 55.254z" fill="#fffcd9"/><path d="m156.16 305.362c-4.281 5.193-9.275 9.909-15.141 13.199-9.909 5.47-21.88 6.421-32.939 4.123-11.059-2.339-21.285-7.69-30.56-14.151-6.54-4.559-12.842-9.87-16.489-16.965-1.546-3.091-2.537-6.579-2.775-10.028.872-1.467 1.903-3.013 3.052-4.598 14.468-20.215 33.454-35.872 74.399-45.583 3.885.793 7.61 1.982 11.178 3.607 9.672 4.439 17.916 12.406 21.523 22.395 5.906 16.252-1.189 34.722-12.248 48.001z" fill="#fffcde"/></g></svg>