<svg id="Layer_1" enable-background="new 0 0 52 52" height="512" viewBox="0 0 52 52" width="512" xmlns="http://www.w3.org/2000/svg"><g><g><g><g enable-background="new"><g><g><path d="m36.55616 41.59421-.00275 1.74857c-.00474 1.67346-1.1065 3.34508-3.30376 4.62199-4.41536 2.56593-11.5892 2.57034-16.03345.00446-2.23831-1.29229-3.35717-2.98997-3.35237-4.68472l.00274-1.74855c-.0048 1.69473 1.11407 3.39242 3.35237 4.6847 4.44424 2.56589 11.61808 2.56147 16.03344-.00446 2.19727-1.2769 3.29903-2.94852 3.30378-4.62199z" fill="#d4d6d6"/></g></g><g><g><path d="m33.21521 36.92465c4.44424 2.56588 4.45254 6.72563.03717 9.29156-4.41536 2.56593-11.5892 2.57034-16.03344.00446-4.44425-2.56589-4.47525-6.73001-.05989-9.29594 4.41536-2.56594 11.61191-2.56597 16.05616-.00008z" fill="#ecf0f1"/></g></g></g></g><g><path d="m29.65324 37.10113c-.16609 0-.33422-.03935-.49111-.12316-.51002-.27136-.70319-.90556-.43132-1.41557.52535-.98631.60047-1.88675.22946-2.75194-1.05989-2.47291-5.44562-4.17058-7.04619-4.61621-.42058-.12674-9.82368-2.97833-13.30743-5.116-4.10108-2.51635-8.33963-9.63051-5.63164-16.44265.79415-1.99867 2.06919-3.29824 3.78986-3.86243 3.49703-1.14677 7.48569 1.30979 7.65382 1.41455.48957.30611.63778.95002.33269 1.4401-.30611.49009-.95002.64033-1.44113.33524-.03322-.01993-3.33606-2.04211-5.89942-1.1989-1.11509.36745-1.92969 1.23264-2.49081 2.64413-2.44276 6.14574 1.98385 12.16935 4.78127 13.88541 3.25582 1.99816 12.70083 4.86151 12.79588 4.89012.25245.07001 6.71862 1.90924 8.38716 5.80233.62807 1.46566.52535 2.99979-.30662 4.5605-.18806.35313-.54988.55448-.92447.55448z" fill="#5b5e71"/></g><g><g enable-background="new"><g><g><path d="m29.35029 14.25279-.07403 26.11237c-.00149.52726-.34818 1.05426-1.04147 1.45715-1.39413.81018-3.65921.81019-5.05677.0033-.70613-.40768-1.0588-.94245-1.05728-1.4764l.07402-26.11236c-.00151.53395.35116 1.06871 1.05729 1.47639 1.39756.80688 3.66265.80688 5.05677-.0033.69328-.40288 1.03997-.92988 1.04147-1.45715z" fill="#d4d6d6"/></g></g><g><g><path d="m28.29799 12.78087c1.39756.80688 1.40495 2.1189.01082 2.92908s-3.65921.81019-5.05677.0033c-1.40325-.81016-1.41063-2.12218-.01651-2.93236 1.39413-.81018 3.65921-.81018 5.06246-.00002z" fill="#ecf0f1"/></g></g></g></g><g enable-background="new"><g><g><path d="m35.61905 14.17875c-1.58002.92004-2.85999 3.13-2.85004 4.94 0 .88-3.67999 1.5-3.44995 1.81l-15.82-11.64996c-.51001-.29004-.83002-.92999-.84003-1.84003 0-.78998.23999-1.64001.64001-2.42999.52002-1.04999 1.32001-1.98999 2.21002-2.51001.79999-.45996 1.51996-.5 2.03998-.19l17.97998 8.10004c-.16998 0-.01001.67999.14001 1.45996.19001.95001.37 2.07-.04998 2.30999z" fill="#e5bd13"/></g></g><g><g><path d="m35.66904 11.86875c-1.31 1.04999-2.29999 2.95001-2.28998 4.54999 0 .87006-3.67004 1.5-3.44 1.81l-15.82001-11.64996c-.46002-.27002-.76001-.81-.82001-1.57001.52002-1.04999 1.32001-1.98999 2.21002-2.51001.79999-.45996 1.51996-.5 2.03998-.19l17.97998 8.10004c-.16998-.00001-.01001.67999.14002 1.45995z" fill="#f1c40f"/></g></g><g><g><path d="m32.68226 10.83696c2.41174-1.39242 4.3733-.27458 4.38115 2.49669.00789 2.78267-1.94096 6.14676-4.3527 7.53918-2.41173 1.39241-4.37327.28599-4.38116-2.49669-.00785-2.77126 1.94098-6.14676 4.35271-7.53918z" fill="#f1c40f"/></g></g></g><g><path d="m49.87906 18.93876c0 5.75-4.64001 10.37-10.39001 10.37-5.51001 0-10.02002-4.28998-10.34002-9.76001-.01001-.19995-.01996-.39996-.01996-.60999 0-5.73999 4.63995-10.35999 10.35998-10.35999 3.19 0 6.02997 1.41998 7.94 3.65997 1.52996 1.80006 2.45001 4.14002 2.45001 6.70002z" fill="#525566"/></g><g><path d="m47.43906 12.83879c0 5.73999-4.64001 10.35999-10.39001 10.35999-3.16003 0-6-1.40997-7.90002-3.65002-.01001-.19995-.01996-.39996-.01996-.60999 0-5.73999 4.63995-10.35999 10.35998-10.35999 3.19 0 6.02997 1.41998 7.94 3.65997 0 .20001.01001.40002.01001.60004z" fill="#5b5e71"/></g></g><path d="m28.47137 12.16825c0 .89996-.73004 1.63-1.63 1.63-.90002 0-1.63-.73004-1.63-1.63 0-.90002.72998-1.62 1.63-1.62.89996 0 1.63.71997 1.63 1.62z" fill="#525566"/></g></svg>