<svg id="Layer_1" enable-background="new 0 0 500 500" viewBox="0 0 500 500" xmlns="http://www.w3.org/2000/svg"><g><g><g><path d="m474.976 186.79v26.102c0 18.457-12.121 36.915-36.501 50.965-48.898 28.237-127.963 28.237-176.723 0-24.38-14.05-36.639-32.508-36.639-50.965v-26.102z" fill="#919191"/></g><g><ellipse cx="350.068" cy="186.781" fill="#ababab" rx="124.932" ry="72.129"/></g><g><ellipse cx="350.068" cy="186.781" fill="#919191" rx="105.799" ry="61.083"/></g><g><path d="m446.886 198.192c-3.687 10.606-12.676 20.757-26.918 28.939-38.585 22.273-101.21 22.273-139.795 0-14.242-8.182-23.232-18.333-26.918-28.939-6.414-18.131 2.576-37.726 26.918-51.767 38.585-22.272 101.21-22.272 139.795 0 24.342 14.04 33.333 33.636 26.918 51.767z" fill="#b6cad6"/></g><g><path d="m446.886 198.192c-3.687 10.606-12.676 20.757-26.918 28.939-38.585 22.273-101.21 22.273-139.795 0-14.242-8.182-23.232-18.333-26.918-28.939 3.687-10.605 12.676-20.757 26.918-28.989 38.585-22.272 101.21-22.272 139.795 0 14.242 8.232 23.231 18.383 26.918 28.989z" fill="#c5dbe8"/></g></g><g><g><path d="m257.564 251.988c0 2.645-.904 4.545-2.373 5.494l-.453.248-88.685 51.204-12.185-21.069 88.346-50.91c1.582-1.379 4.024-1.447 6.737.136 4.747 2.735 8.613 9.427 8.613 14.897z" fill="#ababab"/></g><g><path d="m168.488 303.429c0 5.491-3.856 7.717-8.612 4.972-4.756-2.746-8.612-9.425-8.612-14.916 0-5.492 3.856-7.718 8.612-4.972s8.612 9.424 8.612 14.916z" fill="#919191"/></g></g><g><g><path d="m214.221 281.66c0 3.885-1.328 6.675-3.487 8.07l-.664.365-163.345 94.311-17.901-30.952 162.848-93.879c2.324-2.026 5.911-2.126 9.896.199 6.975 4.018 12.653 13.849 12.653 21.886z" fill="#ababab"/></g><g><path d="m50.303 376.317c0 8.068-5.664 11.337-12.651 7.303-6.988-4.033-12.652-13.844-12.652-21.912s5.664-11.338 12.652-7.304c6.987 4.034 12.651 13.846 12.651 21.913z" fill="#919191"/></g></g></g></svg>