<svg id="Capa_1" enable-background="new 0 0 512 512" height="512" viewBox="0 0 512 512" width="512" xmlns="http://www.w3.org/2000/svg" xmlns:xlink="http://www.w3.org/1999/xlink"><linearGradient id="SVGID_1_" gradientUnits="userSpaceOnUse" x1="186.358" x2="458.203" y1="249.457" y2="249.457"><stop offset="0" stop-color="#ffc538"/><stop offset=".3492" stop-color="#f7e041"/><stop offset="1" stop-color="#fcf3b3"/></linearGradient><linearGradient id="SVGID_2_" gradientUnits="userSpaceOnUse" x1="326.474" x2="221.287" y1="159.015" y2="159.015"><stop offset=".0319" stop-color="#8b451c"/><stop offset="1" stop-color="#8b451c" stop-opacity="0"/></linearGradient><radialGradient id="SVGID_3_" cx="341.095" cy="66.17" gradientUnits="userSpaceOnUse" r="123.521"><stop offset="0" stop-color="#fcf3b3"/><stop offset=".1714" stop-color="#fbf1a6"/><stop offset=".488" stop-color="#faeb84"/><stop offset=".912" stop-color="#f8e24d"/><stop offset="1" stop-color="#f7e041"/></radialGradient><linearGradient id="SVGID_4_" gradientUnits="userSpaceOnUse" x1="0" x2="271.845" y1="356.891" y2="356.891"><stop offset="0" stop-color="#ff4757"/><stop offset=".4762" stop-color="#ff7a85"/><stop offset="1" stop-color="#ff959d"/></linearGradient><linearGradient id="SVGID_5_" gradientUnits="userSpaceOnUse" x1="140.116" x2="34.929" y1="266.449" y2="266.449"><stop offset=".0319" stop-color="#5d3645"/><stop offset="1" stop-color="#5d3645" stop-opacity="0"/></linearGradient><radialGradient id="SVGID_6_" cx="154.738" cy="173.604" gradientUnits="userSpaceOnUse" r="123.521"><stop offset="0" stop-color="#ff959d"/><stop offset=".2328" stop-color="#ff8891"/><stop offset=".6609" stop-color="#ff6673"/><stop offset="1" stop-color="#ff4757"/></radialGradient><linearGradient id="SVGID_7_" gradientUnits="userSpaceOnUse" x1="240.155" x2="512" y1="384.795" y2="384.795"><stop offset="0" stop-color="#0072bc"/><stop offset=".3492" stop-color="#59acf9"/><stop offset="1" stop-color="#79d3fe"/></linearGradient><linearGradient id="SVGID_8_" gradientUnits="userSpaceOnUse" x1="380.271" x2="275.084" y1="294.354" y2="294.354"><stop offset=".0319" stop-color="#00395e"/><stop offset="1" stop-color="#00395e" stop-opacity="0"/></linearGradient><radialGradient id="SVGID_9_" cx="394.893" cy="201.508" gradientUnits="userSpaceOnUse" r="123.521"><stop offset="0" stop-color="#59acf9"/><stop offset=".2112" stop-color="#4ca9f9"/><stop offset=".6012" stop-color="#2aa1f8"/><stop offset="1" stop-color="#0197f8"/></radialGradient><g><g><g><path d="m322.28 132.725c-75.068 0-135.923 60.855-135.923 135.922v30.284l.038-.003c-.011 18.029 10.862 35.246 33.138 48.106 49.143 28.373 134.982 24.815 191.727-7.947 31.035-17.918 46.901-40.858 46.903-62.611l.039-.003v-7.826c.001-75.068-60.854-135.922-135.922-135.922z" fill="url(#SVGID_1_)"/><path d="m215.55 184.48h106.73l-14.983-50.929c-37.134 4.072-69.768 23.096-91.747 50.929z" fill="url(#SVGID_2_)"/><circle cx="322.28" cy="97.477" fill="url(#SVGID_3_)" r="86.986"/></g><g><path d="m135.923 240.158c-75.069 0-135.923 60.855-135.923 135.923v30.284l.038-.003c-.011 18.029 10.862 35.246 33.138 48.106 49.143 28.373 134.982 24.815 191.727-7.947 31.035-17.918 46.901-40.858 46.903-62.611l.039-.003v-7.826c0-75.068-60.854-135.923-135.922-135.923z" fill="url(#SVGID_4_)"/><path d="m29.192 291.914h106.731l-14.983-50.929c-37.135 4.072-69.769 23.096-91.748 50.929z" fill="url(#SVGID_5_)"/><circle cx="135.923" cy="204.91" fill="url(#SVGID_6_)" r="86.986"/></g><g><path d="m376.078 268.063c-75.068 0-135.923 60.855-135.923 135.922v30.284l.038-.003c-.011 18.029 10.862 35.246 33.138 48.106 49.143 28.373 134.982 24.815 191.727-7.947 31.035-17.918 46.901-40.858 46.903-62.611l.039-.003v-7.826c0-75.068-60.854-135.922-135.922-135.922z" fill="url(#SVGID_7_)"/><path d="m269.347 319.818h106.731l-14.983-50.93c-37.135 4.073-69.769 23.097-91.748 50.93z" fill="url(#SVGID_8_)"/><circle cx="376.077" cy="232.815" fill="url(#SVGID_9_)" r="86.986"/></g></g></g></svg>