<svg id="Layer_1" enable-background="new 0 0 500 500" viewBox="0 0 500 500" xmlns="http://www.w3.org/2000/svg"><g><g fill="#ebb12a"><path d="m151.486 202.144h-.001l-.002.006.002-.001z"/><path d="m168.61 182.466c-.003 0-.003 0-.005 0-.632-.055-1.189.076-1.796.086-.044.001-.086.006-.13.008.649-.016 1.252-.153 1.931-.094z"/><path d="m163.849 182.71c-.001 0 0 0-.001 0-.62.126-1.148.44-1.732.641-.009.004-.017.006-.026.009.594-.205 1.13-.522 1.759-.65z"/><path d="m159.701 184.267c-.729.419-1.327 1.044-1.972 1.598-.016.014-.033.027-.049.04.658-.572 1.275-1.209 2.021-1.638z"/><path d="m156.294 187.045c-.001 0-.001.001-.001.001-.598.671-1.044 1.542-1.541 2.348-.041.067-.088.129-.129.197.529-.886 1.023-1.818 1.671-2.546z"/><path d="m151.485 202.149-.001.001c-.005 2.221.186 4.5.552 6.807-.366-2.307-.556-4.587-.551-6.807z"/><path d="m153.713 190.994c-.001.001-.001.003-.003.004-.482 1.023-.787 2.244-1.118 3.434-.025.089-.058.169-.083.259.345-1.295.684-2.596 1.204-3.697z"/><path d="m152.071 196.05h-.001c-.377 1.862-.578 3.897-.586 6.094h.001c.007-2.197.208-4.232.586-6.094z"/><path d="m168.472 241.564c-8.33-8.863-14.599-21.074-16.437-32.607 1.838 11.534 8.107 23.745 16.437 32.607z"/><path d="m173.858 183.606c-.001-.001-.001-.001-.004-.001-.491-.168-.936-.178-1.418-.309-.142-.04-.277-.057-.419-.092.62.157 1.204.186 1.841.402z"/></g><path d="m166.678 182.561c.044-.001.086-.006.13-.008-1.002.016-2.031-.031-2.961.157h.001c.89-.18 1.875-.127 2.83-.149z" fill="#fff"/><path d="m172.017 183.204c.142.035.277.052.419.092-1.302-.357-2.609-.722-3.831-.829h.005c1.087.095 2.255.444 3.407.737z" fill="#fff"/><path d="m159.745 184.23c-.017.01-.027.027-.044.036.017-.008.027-.025.044-.036z" fill="#fff"/><path d="m162.116 183.351c-.799.276-1.645.466-2.371.879.718-.409 1.555-.596 2.346-.87.009-.003.016-.005.025-.009z" fill="#fff"/><path d="m179.486 186.194h.001l-.001-.001c-1.928-1.113-3.81-1.97-5.631-2.588.003 0 .003 0 .004.001 1.819.618 3.701 1.477 5.627 2.588z" fill="#fff"/><path d="m97.982 54.259c.852-.17 1.8-.115 2.718-.134.624-.012 1.197-.142 1.848-.083 1.109.102 2.298.45 3.476.765.532.143 1.025.163 1.569.35 1.754.601 3.571 1.43 5.431 2.505l45.815-26.625c-7.466-4.309-14.206-4.723-19.067-1.899l-45.813 26.623c.015-.009.036-.009.051-.018.699-.404 1.511-.596 2.284-.863.57-.195 1.082-.5 1.688-.621z" fill="#f3d35a"/><path d="m235.695 230.917c.017-.016.036-.031.055-.048-.263.227-.555.408-.803.656l.003-.003c.231-.228.5-.395.745-.605z" fill="#fff"/><path d="m197.586 204.526c1.884 2.961 3.625 6.019 5.015 9.205-1.39-3.188-3.132-6.245-5.015-9.205z" fill="#fff"/><path d="m192.508 197.593c-3.896-4.645-8.281-8.661-13.021-11.399h-.001c4.741 2.738 9.126 6.755 13.022 11.399z" fill="#fff"/><path d="m262.958 297.976c.322.11.61.108.927.204-.317-.096-.606-.096-.927-.205z" fill="#ebb12a"/><path d="m257.329 295.383h-.001c.169.097.324.134.491.227-.168-.093-.323-.13-.49-.227z" fill="#ebb12a"/><path d="m234.299 232.066c-.001 0-.003.001-.003.003-.622.699-1.087 1.603-1.596 2.45-.035.055-.071.103-.103.159.535-.912 1.039-1.867 1.702-2.612z" fill="#ebb12a"/><path d="m229.509 247.196-.001.001c-.006 2.042.195 4.142.504 6.258-.309-2.116-.509-4.214-.503-6.257 0-.001 0-.001 0-.002z" fill="#ebb12a"/><path d="m246.8 286.913c3.248 3.395 6.79 6.313 10.527 8.471h.001c-3.736-2.158-7.28-5.075-10.528-8.471z" fill="#ebb12a"/><path d="m246.452 286.588c-4.161-4.427-7.701-9.717-10.526-15.301 2.825 5.583 6.365 10.874 10.526 15.301z" fill="#ebb12a"/><path d="m233.272 265.345c-1.248-3.233-2.223-6.494-2.846-9.738.623 3.244 1.598 6.505 2.846 9.738z" fill="#ebb12a"/><path d="m231.723 236.026c-.481 1.025-.781 2.249-1.111 3.44-.057.206-.139.386-.191.598.355-1.432.74-2.835 1.302-4.038z" fill="#ebb12a"/><path d="m230.091 241.089v.004c-.375 1.865-.576 3.903-.583 6.103l.001-.001c.006-2.203.207-4.241.582-6.106z" fill="#ebb12a"/><path d="m237.698 229.282c-.719.415-1.309 1.039-1.947 1.587-.019.017-.039.032-.055.048.652-.568 1.261-1.208 2.002-1.635z" fill="#ebb12a"/><path d="m237.731 229.255c-.013.007-.021.019-.034.027.014-.008.021-.02.034-.027z" fill="#fff"/><path d="m313.661 276.011c.022-.019.045-.036.067-.057-.184.161-.388.291-.567.463l.004-.003c.155-.149.333-.261.496-.403z" fill="#fff"/><path d="m268.342 240.029c2.754 2.939 5.207 6.3 7.426 9.826-2.218-3.526-4.672-6.888-7.426-9.826z" fill="#fff"/><path d="m284.404 271.038c.138.711.312 1.418.417 2.124-.105-.706-.281-1.414-.417-2.124z" fill="#fff"/><path d="m285.328 279.426c.006-2.04-.193-4.142-.508-6.264-.104-.705-.278-1.413-.417-2.124-1.398-7.197-4.458-14.545-8.636-21.184-2.219-3.525-4.672-6.887-7.426-9.826-3.332-3.554-6.993-6.571-10.833-8.788-7.729-4.463-14.717-4.885-19.778-1.986-.013.007-.021.019-.034.027-.74.427-1.35 1.066-2.003 1.635-.245.21-.514.376-.745.606-.204.204-.458.326-.651.543-.663.745-1.167 1.7-1.702 2.611-.276.469-.632.837-.873 1.349-.562 1.203-.948 2.606-1.302 4.039-.09.362-.254.647-.33 1.024-.375 1.866-.576 3.903-.582 6.106v.001.003c-.006 2.042.193 4.141.503 6.257.105.716.276 1.431.414 2.152.623 3.244 1.598 6.505 2.846 9.738.779 2.015 1.665 3.987 2.654 5.942 2.825 5.583 6.365 10.874 10.526 15.301.111.116.237.208.348.325 3.248 3.397 6.792 6.313 10.529 8.471.168.097.322.134.49.227 1.752.975 3.478 1.799 5.14 2.365.321.11.61.11.927.205 12.212 3.644 21.401-3.614 21.443-18.755z" fill="#fff"/><path d="m312.322 277.114c0 .001-.001 0-.001.001-.591.665-1.028 1.532-1.518 2.33-.054.088-.115.168-.168.258.533-.904 1.031-1.851 1.687-2.589z" fill="#ebb12a"/><path d="m324.477 331.634c-9.877-10.502-16.752-25.644-16.901-38.842.148 13.198 7.023 28.341 16.901 38.842z" fill="#ebb12a"/><path d="m329.882 273.685c-.616-.21-1.176-.236-1.777-.391-.068-.017-.134-.027-.202-.044.667.166 1.293.201 1.979.435z" fill="#ebb12a"/><path d="m308.115 286.14c-.375 1.865-.576 3.902-.581 6.102.005-2.2.206-4.236.581-6.102z" fill="#ebb12a"/><path d="m307.533 292.245v.001z" fill="#ebb12a"/><path d="m309.748 281.074c-.001.001-.001.001-.003.004-.453.967-.73 2.132-1.048 3.248-.036.124-.081.236-.116.361.34-1.26.662-2.538 1.167-3.613z" fill="#ebb12a"/><path d="m324.624 272.536c-.001 0-.003-.001-.004-.001-.66-.057-1.242.079-1.875.09-.059.001-.113.008-.172.009.689-.02 1.329-.161 2.051-.098z" fill="#ebb12a"/><path d="m319.864 272.773h-.001c-.641.13-1.182.454-1.783.664-.011.004-.022.008-.033.012.612-.215 1.165-.544 1.817-.676z" fill="#ebb12a"/><path d="m315.723 274.33c-.738.424-1.344 1.061-1.995 1.625-.022.021-.045.037-.067.057.67-.59 1.298-1.242 2.062-1.682z" fill="#ebb12a"/><path d="m322.573 272.634c.058-.001.112-.008.172-.009-.974.021-1.979-.035-2.882.148h.001c.85-.172 1.797-.112 2.709-.139z" fill="#fff"/><path d="m329.894 273.688-.012-.003z" fill="#fff"/><path d="m327.903 273.251c.069.017.134.027.202.044-1.178-.304-2.374-.66-3.485-.759.001 0 .003.001.004.001 1.044.092 2.174.438 3.279.714z" fill="#fff"/><path d="m318.08 273.438c-.783.275-1.613.458-2.325.865.7-.401 1.52-.581 2.291-.854.012-.004.022-.008.034-.011z" fill="#fff"/><path d="m315.755 274.303c-.012.007-.021.019-.032.027.011-.008.02-.021.032-.027z" fill="#fff"/><path d="m355.169 297.058c2.508 4.358 4.535 8.992 5.93 13.639-1.395-4.647-3.422-9.279-5.93-13.639z" fill="#fff"/><path d="m363.25 324.413c.013-4.411-.754-9.07-2.151-13.716-1.395-4.647-3.422-9.28-5.93-13.639-5.016-8.717-11.957-16.338-19.635-20.77-1.932-1.115-3.818-1.979-5.64-2.601-.004-.001-.008-.001-.012-.003-.686-.235-1.313-.27-1.979-.435-1.105-.276-2.235-.621-3.279-.714-.722-.063-1.362.077-2.05.098-.913.027-1.859-.034-2.709.139-.652.132-1.206.46-1.818.676-.771.272-1.591.453-2.291.854-.012.007-.021.019-.032.027-.763.44-1.391 1.092-2.062 1.682-.163.142-.34.254-.497.404-.266.258-.593.418-.842.699-.656.738-1.154 1.685-1.687 2.589-.281.476-.643.85-.887 1.371-.505 1.075-.828 2.353-1.167 3.613-.135.505-.358.918-.467 1.453-.375 1.866-.575 3.902-.581 6.102v.003.001c-.001.178.041.366.042.547.15 13.198 7.024 28.34 16.901 38.842 1.668 1.773 3.421 3.414 5.24 4.891 1.818 1.478 3.703 2.789 5.635 3.905 15.355 8.865 27.848 1.746 27.898-16.018z" fill="#fff"/><path d="m425.557 465.972c.319-.525.714-.949.986-1.532.449-.963.727-2.117 1.038-3.234.16-.57.406-1.044.527-1.654.361-1.8.553-3.769.56-5.896l.517-182.649c.049-17.048-11.845-37.649-26.786-46.274l-289.374-167.071c-1.861-1.075-3.678-1.904-5.431-2.505-.544-.187-1.038-.208-1.569-.35-1.179-.315-2.368-.663-3.476-.765-.65-.059-1.225.071-1.848.083-.918.019-1.866-.036-2.718.134-.605.121-1.119.426-1.688.622-.772.267-1.585.459-2.284.863-4.826 2.776-7.817 8.726-7.841 17.224l-.475 167.747-60.695 73.986 114.517 2.945 262.19 151.374c8.563 4.945 16.062 4.632 20.987.376.453-.391.971-.678 1.378-1.139.579-.652 1.008-1.5 1.485-2.285zm-246.253-215.637c-3.839-2.217-7.501-5.226-10.832-8.771-8.33-8.863-14.599-21.074-16.437-32.607-.366-2.307-.557-4.587-.552-6.807 0-.001.001-.004.001-.006.008-2.197.209-4.232.586-6.094.121-.594.367-1.059.522-1.618.331-1.19.636-2.411 1.118-3.434.288-.61.704-1.053 1.042-1.603.496-.806.943-1.678 1.541-2.348.426-.476.963-.777 1.437-1.182.645-.553 1.243-1.179 1.972-1.598.017-.009.027-.026.044-.036.726-.414 1.572-.604 2.371-.879.584-.201 1.112-.514 1.732-.641.93-.188 1.959-.142 2.961-.157.607-.01 1.165-.142 1.796-.086 1.222.107 2.529.472 3.831.829.482.132.927.142 1.418.309 1.821.618 3.703 1.475 5.631 2.588l.001.001c4.74 2.738 9.126 6.754 13.021 11.399 1.83 2.179 3.524 4.489 5.078 6.932 1.883 2.961 3.625 6.018 5.015 9.205 1.992 4.57 3.428 9.283 4.157 13.876.365 2.298.553 4.565.547 6.771-.05 17.764-12.542 24.883-28.001 15.957zm84.582 47.845c-.317-.096-.605-.094-.927-.204-1.821-.622-3.705-1.48-5.631-2.593-3.737-2.157-7.279-5.075-10.527-8.471-.111-.117-.237-.209-.348-.325-4.161-4.427-7.701-9.717-10.526-15.301-.989-1.955-1.875-3.926-2.654-5.942-1.248-3.233-2.223-6.494-2.846-9.738-.138-.721-.309-1.436-.414-2.152-.309-2.116-.511-4.215-.504-6.258 0-.001 0-.001 0-.001.007-2.2.208-4.239.583-6.103.12-.598.365-1.064.521-1.626.33-1.191.631-2.415 1.111-3.44.27-.573.661-.988.976-1.507.509-.847.975-1.751 1.596-2.45.192-.218.449-.34.651-.543.249-.249.54-.429.803-.656.638-.548 1.228-1.172 1.947-1.587.013-.008.021-.021.034-.027 5.061-2.899 12.049-2.477 19.778 1.986 3.84 2.217 7.501 5.234 10.833 8.788 2.754 2.939 5.208 6.3 7.426 9.826 4.178 6.638 7.238 13.987 8.636 21.184.137.711.312 1.418.417 2.124.315 2.122.514 4.224.508 6.264-.043 15.139-9.232 22.397-21.443 18.752zm60.591 33.454c-9.877-10.502-16.753-25.644-16.901-38.842-.001-.181-.044-.369-.042-.547v-.001c0-.001 0-.001 0-.003.005-2.2.206-4.237.581-6.102.134-.668.404-1.191.583-1.814.319-1.117.596-2.281 1.048-3.248.292-.622.715-1.076 1.057-1.633.49-.798.927-1.665 1.518-2.33.249-.28.575-.442.84-.698.179-.172.383-.302.567-.463.651-.564 1.257-1.201 1.995-1.625.012-.008.021-.021.032-.027.712-.407 1.542-.59 2.325-.865.601-.21 1.143-.534 1.783-.664.903-.183 1.908-.128 2.882-.148.633-.012 1.215-.147 1.875-.09 1.112.099 2.307.455 3.485.759.601.155 1.161.181 1.777.391.004.001.008.001.012.003 1.822.621 3.708 1.485 5.64 2.601 7.677 4.432 14.619 12.053 19.635 20.77 2.508 4.36 4.535 8.992 5.93 13.639 1.397 4.646 2.164 9.305 2.151 13.716-.05 17.764-12.543 24.883-27.898 16.017-1.932-1.115-3.817-2.427-5.635-3.905-1.819-1.476-3.572-3.118-5.24-4.891z" fill="#ebb12a"/><path d="m207.305 234.378c.006-2.206-.182-4.473-.547-6.771-.73-4.593-2.165-9.306-4.157-13.876-1.39-3.186-3.131-6.245-5.015-9.205-1.554-2.444-3.248-4.753-5.078-6.932-3.896-4.645-8.281-8.661-13.022-11.399-1.925-1.112-3.808-1.97-5.627-2.588-.637-.217-1.221-.245-1.841-.402-1.152-.293-2.32-.642-3.407-.738-.68-.059-1.282.077-1.932.094-.955.022-1.941-.031-2.829.15-.629.128-1.166.445-1.759.65-.79.275-1.627.462-2.346.87-.017.01-.027.027-.044.036-.747.429-1.363 1.066-2.021 1.638-.455.395-.976.682-1.386 1.141-.649.727-1.143 1.66-1.671 2.547-.29.485-.66.869-.91 1.402-.52 1.101-.859 2.402-1.203 3.697-.128.475-.338.859-.438 1.359-.378 1.862-.579 3.897-.585 6.094 0 .003-.001.003-.001.005v.001c-.005 2.221.184 4.5.551 6.807 1.837 11.533 8.107 23.744 16.437 32.607 3.331 3.545 6.993 6.554 10.832 8.771 15.457 8.925 27.949 1.806 27.999-15.958z" fill="#fff"/><path d="m428.109 459.552c-.121.61-.367 1.084-.527 1.654-.311 1.117-.589 2.271-1.038 3.234-.272.583-.668 1.007-.986 1.532-.477.787-.906 1.635-1.484 2.286-.408.46-.926.748-1.378 1.139-.609.526-1.167 1.131-1.854 1.531l45.814-26.624c4.826-2.805 7.804-8.786 7.827-17.271l-45.813 26.624c-.007 2.125-.201 4.094-.561 5.895z" fill="#f3d35a"/><path d="m429.186 271.007-.517 182.649 45.813-26.624.518-182.649z" fill="#f3d35a"/><path d="m402.4 224.733 45.814-26.624-289.374-167.072-45.815 26.625z" fill="#f3d35a"/><path d="m429.186 271.007 45.814-26.624c.048-17.049-11.845-37.649-26.786-46.274l-45.814 26.624c14.941 8.625 26.835 29.226 26.786 46.274z" fill="#f3d35a"/></g></svg>