<svg width="24" height="24" viewBox="0 0 24 24" fill="none" xmlns="http://www.w3.org/2000/svg">
<path d="M18.8194 1.75002C16.5992 1.01802 14.0643 2.12005 11.9992 4.39996C9.93575 2.12005 7.39921 1.01802 5.17902 1.75002C1.55858 2.9398 0.151065 5.95199 2.03558 11.6763C3.90861 17.3661 11.9038 22.4152 11.9963 22.4718L11.9992 22.4747H12.0006L12.0021 22.4718C12.0949 22.4152 20.09 17.3661 21.9628 11.6764C23.8475 5.95199 22.4398 2.9398 18.8194 1.75002Z" fill="#E1071C"/>
<path d="M12.0951 16.2815C8.93242 16.2933 1.44531 9.45508 1.44531 9.45508C1.58284 10.1455 1.77517 10.8823 2.0358 11.6769C3.90883 17.3666 11.904 22.4158 11.9965 22.4724L11.9994 22.4753H12.0009L12.0023 22.4724C12.0951 22.4158 20.0903 17.3667 21.963 11.677C22.2251 10.8823 22.4162 10.1455 22.5535 9.45512C22.5535 9.45508 15.2171 16.2681 12.0951 16.2815Z" fill="#B60F19"/>
<path d="M3.13262 5.18816C2.25597 6.67504 2.18172 8.84891 1.71334 8.57301C1.2452 8.29719 1.18848 6.07705 2.06655 4.59032C2.94508 3.10382 4.25111 2.33722 4.71948 2.61468C5.18444 2.89044 4.01116 3.7018 3.13262 5.18816Z" fill="#EE8064"/>
<g opacity="0.68">
<path d="M11.9961 22.4713L11.999 22.4742H12.0004L12.0019 22.4713C12.0947 22.4147 20.0898 17.3656 21.9626 11.6758C23.8473 5.95145 22.4396 2.93931 18.8191 1.74953C18.3988 1.61106 17.9675 1.53939 17.5311 1.52734C20.0597 3.24081 21.4617 6.69691 19.0834 11.6387C17.6804 14.5548 11.9961 22.4713 11.9961 22.4713Z" fill="#BB171F"/>
</g>
<path opacity="0.65" d="M22.2157 9.82013C20.2965 15.5104 12.0985 20.5589 12.003 20.6172L12.0016 20.6203L12.0001 20.6186V20.6203L11.9973 20.6172C11.9035 20.5589 3.70516 15.5104 1.78623 9.82013C1.54773 9.11325 1.35972 8.44833 1.22266 7.82227C1.29456 8.94206 1.55805 10.2213 2.0365 11.6767C3.90953 17.3663 11.9047 22.4155 11.9973 22.4721L12.0001 22.475H12.0016L12.003 22.4721C12.0958 22.4155 20.091 17.3664 21.9637 11.6767C22.4439 10.2213 22.7064 8.94206 22.7778 7.82227C22.6405 8.44833 22.4539 9.11325 22.2157 9.82013Z" fill="#E76141"/>
<path opacity="0.65" d="M19.7419 2.125C21.8851 3.78916 22.4843 6.80266 20.9811 11.6561C19.5173 16.3766 14.3192 20.6829 12.0692 22.3708C12.023 22.4365 11.9961 22.4724 11.9961 22.4724L11.999 22.4753H12.0004L12.0019 22.4724C12.0947 22.4158 20.0898 17.3667 21.9626 11.677C23.6771 6.47144 22.6603 3.5147 19.7419 2.125Z" fill="#EA7456"/>
<path d="M21.1954 3.60742C21.9324 4.68119 22.3781 5.95764 22.5005 7.26498C22.5464 7.92128 22.4897 8.58039 22.3827 9.2215C22.2824 9.8643 22.1259 10.4964 21.9057 11.112C21.6742 11.7308 21.3715 12.2988 21.069 12.8717C20.7571 13.4382 20.4443 14.0049 20.0923 14.5493C19.7401 15.0932 19.3554 15.6168 18.9471 16.1208C18.5321 16.6202 18.0967 17.1108 17.575 17.5058L17.5469 17.4732C18.3538 16.4742 19.0157 15.3782 19.6985 14.2972C20.3799 13.2206 21.0808 12.1276 21.7052 11.0273C21.9889 10.4605 22.1707 9.8358 22.232 9.202C22.2868 8.56558 22.2272 7.92864 22.1322 7.3052C21.9605 6.05566 21.6295 4.82861 21.1565 3.62969L21.1954 3.60742Z" fill="#EE8064"/>
<path d="M3.22494 4.20664C2.65537 4.99709 2.44068 6.16737 2.22571 6.01231C2.01126 5.85879 2.16318 4.66301 2.7328 3.87256C3.29948 3.08248 4.02416 2.68578 4.23862 2.83915C4.45358 2.99454 3.79143 3.41778 3.22494 4.20664Z" fill="#EE8064"/>
<path d="M3.75339 14.3477C4.43767 14.9635 5.07578 15.6003 5.68408 16.274C5.97789 16.6201 6.25656 16.9839 6.57559 17.3089C6.89491 17.6323 7.25097 17.9185 7.61955 18.1888L9.81737 19.7884C10.5375 20.3357 11.2667 20.8681 11.9882 21.4378L11.9676 21.4765C11.1059 21.1456 10.3023 20.6862 9.54447 20.1672C8.80056 19.6291 8.09655 19.0309 7.46134 18.3677C7.14255 18.0396 6.82183 17.7128 6.4787 17.4117C6.13609 17.1093 5.76583 16.8333 5.42294 16.5276C4.76106 15.8952 4.17053 15.1826 3.71875 14.3729L3.75339 14.3477Z" fill="#EE8064"/>
<path opacity="0.36" d="M21.0501 4.28739C23.667 8.36828 16.8767 10.4605 11.7295 10.4605C6.58183 10.4605 0.243723 8.28499 2.4086 4.28739C4.80016 -0.123591 6.58179 5.47539 11.7295 5.47539C16.8767 5.47535 18.277 -0.0355131 21.0501 4.28739Z" fill="#EB6C52"/>
<g opacity="0.75">
<path d="M17.0073 2.51473C16.4099 2.67584 15.8444 2.92325 15.2928 3.19166C14.7424 3.46194 14.2072 3.75959 13.6675 4.04473C13.3991 4.18648 13.1274 4.32486 12.8505 4.4458C12.7192 4.50256 12.4538 4.65439 12.4285 4.79469C12.409 4.90939 12.4299 5.20161 12.5251 5.34645C12.5716 5.41653 12.6759 5.43134 12.7487 5.40753C12.9368 5.34481 13.038 5.29719 13.1933 5.22552C13.5034 5.07931 13.7862 4.93184 14.055 4.77111C14.5873 4.43994 15.1019 4.13239 15.5995 3.80783C16.1069 3.50211 16.6031 3.1947 17.1268 2.96211C17.6499 2.71916 18.1929 2.54483 18.8146 2.57178L18.8399 2.48788C18.2453 2.288 17.5978 2.35822 17.0073 2.51473Z" fill="#F09381"/>
<path d="M11.5941 4.76509C11.5212 4.6337 10.7336 4.267 10.3342 4.06867C9.79417 3.78672 9.26214 3.48574 8.71487 3.21128C8.1662 2.93711 7.60263 2.68497 7.00614 2.51945C6.41589 2.35834 5.76864 2.28695 5.17188 2.48795L5.19883 2.57008C5.81912 2.54317 6.36203 2.71783 6.88234 2.96392C7.4043 3.19928 7.89794 3.51259 8.4033 3.82253C8.89956 4.15084 9.41289 4.46256 9.9512 4.79486C10.221 4.95906 10.5102 5.10189 10.8235 5.24519C11.0202 5.32849 11.4303 5.50314 11.5361 5.33463C11.6376 5.17202 11.7535 5.05253 11.5941 4.76509Z" fill="#F09381"/>
</g>
</svg>
