<svg id="Layer_1" enable-background="new 0 0 500 500" viewBox="0 0 500 500" xmlns="http://www.w3.org/2000/svg"><g><g fill="#d8dbff"><path d="m121.754 274.407-28.657 16.653 28.752-16.385c-.036-.089-.059-.18-.095-.268z"/><path d="m261.323 421.806-.132 46.486 36.505-21.215.059-21.366c-11.128 1.239-23.459.011-36.432-3.905z"/><path d="m121.91 120.52-19.236-11.105-36.504 21.214 40.454 23.357c3.175-13.329 8.408-24.459 15.286-33.466z"/><path d="m253.574 321.85c1.647-.035 3.346.058 4.876-.251 1.108-.224 2.046-.778 3.085-1.141 1.358-.476 2.789-.813 4.019-1.521 6.42-3.694 11.014-10.514 12.97-19.946-3.365-1.079-6.837-2.554-10.428-4.627l-36.505 21.214c3.318 1.915 6.558 3.392 9.687 4.459.997.339 1.903.376 2.876.632 2.081.548 4.183 1.162 6.14 1.335 1.155.104 2.175-.129 3.28-.154z"/><path d="m220.412 211.899c.012-3.948.419-7.553 1.116-10.872-10.861-3.497-20.203-1.784-26.925 4.01-.812.701-1.743 1.218-2.474 2.041-1.056 1.19-1.847 2.732-2.715 4.172-.548.906-1.232 1.633-1.702 2.633-.82 1.754-1.332 3.851-1.898 5.889-.271.977-.697 1.787-.907 2.829-.643 3.211-.989 6.72-.999 10.512-.085 30.146 21.228 67.192 47.683 82.465l36.505-21.214c-26.455-15.273-47.769-52.319-47.684-82.465z"/><path d="m369.774 450.801 36.505-21.215-28.567-49.479-36.505 21.214z"/><path d="m172.692 25-42.466 24.2-36.504 21.215 42.467-24.201z"/><path d="m164.755 95.693 36.504-21.214-28.567-49.479-36.503 21.214z"/><path d="m356.871 367.356c-3.24 13.607-8.573 24.991-15.665 33.965l36.505-21.214c.123-.156.201-.375.324-.533z"/><path d="m192.357 97.071c3.252.664 6.562 1.504 9.926 2.527l.072-25.186c-.359.036-.739.025-1.096.067l-36.505 21.214c8.615-1.021 17.848-.615 27.603 1.378z"/><path d="m341.647 246.54c7.017 17.246 12.266 34.74 15.419 52.039l36.505-21.215c-3.136-17.208-8.362-34.61-15.325-51.769l-7.846 4.559z"/><path d="m281.504 152.6c6.233 6.581 12.231 13.562 17.952 20.862l36.505-21.214c-11.442-14.599-23.991-27.934-37.318-39.307l-36.505 21.214c6.664 5.687 13.132 11.865 19.366 18.445z"/><path d="m397.521 321.934 36.505-21.213-40.455-23.357-36.505 21.215z"/><path d="m397.327 390.713 36.503-21.215.196-68.777-36.505 21.213z"/><path d="m298.774 66.329-59.855-34.557-36.503 21.214 59.854 34.556z"/><path d="m262.138 134.155 36.505-21.213.131-46.613-36.504 21.213z"/><path d="m370.399 230.155 7.847-4.56 28.658-16.654-42.19-73.078-36.505 21.215z"/><path d="m328.209 157.078 36.505-21.215-28.753 16.385-36.505 21.214z"/></g><path d="m356.871 367.356 21.164 12.218 19.291 11.139.195-68.779-40.455-23.355c-3.153-17.299-8.402-34.794-15.419-52.039l28.752-16.385-42.19-73.076-28.753 16.384c-5.721-7.3-11.719-14.281-17.952-20.862-6.234-6.581-12.702-12.758-19.366-18.445l.132-46.613-59.855-34.556-.06 21.426-.072 25.186c-3.364-1.023-6.674-1.863-9.926-2.527-9.755-1.992-18.988-2.398-27.603-1.378l-28.566-49.479-42.466 24.2 28.567 49.478c-.145.186-.236.44-.379.628-6.877 9.007-12.111 20.136-15.286 33.465l-40.454-23.357-.196 68.778 40.455 23.356c3.137 17.208 8.36 34.609 15.325 51.644.035.089.058.179.095.269l-28.752 16.384 42.189 73.076 28.753-16.258c11.442 14.599 23.99 27.934 37.428 39.37l-.131 46.486 59.855 34.557.132-46.486c12.973 3.916 25.304 5.144 36.432 3.906.322-.036.666-.024.986-.064l28.568 49.353 42.465-24.199-28.567-49.48c7.092-8.974 12.424-20.358 15.664-33.965zm-115.593-47.318c-3.129-1.067-6.368-2.544-9.687-4.459-26.455-15.273-47.769-52.319-47.683-82.465.01-3.792.356-7.301.999-10.512.209-1.042.636-1.852.907-2.829.565-2.038 1.077-4.135 1.898-5.889.469-1.001 1.154-1.729 1.702-2.633.868-1.44 1.659-2.982 2.715-4.172.731-.824 1.661-1.341 2.474-2.041 6.722-5.794 16.064-7.507 26.925-4.01 3.35 1.077 6.803 2.547 10.376 4.609 26.456 15.274 47.771 52.32 47.684 82.718-.011 3.849-.389 7.389-1.064 10.638-1.956 9.432-6.549 16.252-12.97 19.946-1.23.708-2.661 1.044-4.019 1.521-1.039.363-1.978.917-3.085 1.141-1.528.309-3.229.216-4.876.251-1.105.024-2.125.257-3.28.155-1.958-.174-4.06-.788-6.14-1.335-.973-.258-1.879-.294-2.876-.634z" fill="#afb3f5"/></g></svg>