<?xml version="1.0" encoding="utf-8"?>
<!-- Generator: Adobe Illustrator 27.5.0, SVG Export Plug-In . SVG Version: 6.00 Build 0)  -->
<svg version="1.1" id="Ñëîé_1" xmlns="http://www.w3.org/2000/svg" xmlns:xlink="http://www.w3.org/1999/xlink" x="0px" y="0px"
	 viewBox="0 0 500 500" style="enable-background:new 0 0 500 500;" xml:space="preserve">
<g>
	<defs>
		<rect id="SVGID_1_" width="500" height="500"/>
	</defs>
	<use xlink:href="#SVGID_1_"  style="overflow:visible;fill:#2D244F;"/>
	<clipPath id="SVGID_00000064316900112285763060000009772621418559433883_">
		<use xlink:href="#SVGID_1_"  style="overflow:visible;"/>
	</clipPath>
	<g style="clip-path:url(#SVGID_00000064316900112285763060000009772621418559433883_);">
		<polygon style="fill:#2C2266;" points="410.395,-69.144 249.755,254.071 461.474,-42.484 		"/>
		<polygon style="fill:#2C2266;" points="543.828,49.993 249.755,254.071 576.081,97.738 		"/>
		<polygon style="fill:#2C2266;" points="249.755,254.071 562.826,254.071 562.826,311.689 		"/>
		<polygon style="fill:#2C2266;" points="562.991,423.266 249.755,254.071 536.331,474.345 		"/>
		<polygon style="fill:#2C2266;" points="443.854,556.698 249.755,254.071 396.109,588.952 		"/>
		<polygon style="fill:#2C2266;" points="249.755,254.071 281.613,-59 192.137,-59 		"/>
		<polygon style="fill:#2C2266;" points="81.043,-69.144 249.755,254.104 29.963,-42.484 		"/>
		<polygon style="fill:#2C2266;" points="-52.39,49.993 249.755,254.104 -84.644,97.738 		"/>
		<polygon style="fill:#2C2266;" points="249.755,254.071 -61.41,254.553 -61.41,312.171 		"/>
		<polygon style="fill:#2C2266;" points="-71.553,423.266 249.755,254.071 -44.894,474.345 		"/>
		<polygon style="fill:#2C2266;" points="47.584,556.698 249.755,254.071 95.328,588.952 		"/>
		<polygon style="fill:#2C2266;" points="208.415,622.799 249.755,254.071 277.663,622.799 		"/>
	</g>
</g>
<g>
	<g>
		<path style="fill:#FFF3DD;" d="M205.225,243.48l-88.775,54.696c-1.898,1.17-4.409,0.573-5.578-1.325L31.823,168.549
			c-1.17-1.898-0.573-4.409,1.325-5.579l88.774-54.695c1.898-1.17,4.409-0.573,5.579,1.325l79.049,128.301
			C207.72,239.8,207.123,242.31,205.225,243.48z"/>
	</g>
	<g>
		<path style="fill:#F2E4CC;" d="M121.155,108.256l-44.114,27.674l84.392,134.527l44.114-27.674c1.889-1.185,2.465-3.7,1.28-5.589
			l-80.083-127.658C125.559,107.647,123.044,107.071,121.155,108.256z"/>
	</g>
	<g>
		<path style="fill:#1A1A1E;" d="M114.689,293.045c-0.384,0-0.771-0.045-1.154-0.135c-1.281-0.305-2.368-1.089-3.054-2.204
			L37.136,171.661c-0.687-1.115-0.899-2.438-0.594-3.72c0.306-1.284,1.089-2.371,2.205-3.056l82.368-50.75
			c2.309-1.422,5.348-0.703,6.776,1.611l73.344,119.042c0.689,1.115,0.9,2.438,0.596,3.723c-0.305,1.281-1.087,2.365-2.204,3.054
			l-82.37,50.749C116.476,292.797,115.593,293.045,114.689,293.045z M123.692,115.73c-0.463,0-0.934,0.124-1.357,0.387
			l-82.368,50.75c-0.588,0.361-1,0.934-1.161,1.611c-0.161,0.68-0.051,1.377,0.312,1.964l73.346,119.045
			c0.361,0.587,0.934,0.999,1.611,1.16c0.677,0.161,1.375,0.051,1.964-0.313l82.37-50.749c0.587-0.361,0.999-0.934,1.16-1.611
			c0.161-0.677,0.051-1.374-0.313-1.964l-73.344-119.042C125.42,116.17,124.564,115.73,123.692,115.73z"/>
	</g>
	<g>
		<g>
			<path style="fill:#1A1A1E;" d="M53.249,178.127l1.519,6.454l-2.279,1.397l-4.665-20.621l2.659-1.63l16.287,13.496l-2.355,1.444
				l-5.114-4.25L53.249,178.127z M57.789,172.975l-4.683-3.887c-1.063-0.881-1.938-1.739-2.796-2.572l-0.051,0.031
				c0.368,1.168,0.726,2.377,1.033,3.617l1.356,5.962L57.789,172.975z"/>
		</g>
	</g>
	<g>
		<g>
			<path style="fill:#1A1A1E;" d="M184.353,227.791l-1.533-6.451l2.276-1.402l4.71,20.611l-2.655,1.636l-16.317-13.46l2.352-1.449
				l5.123,4.239L184.353,227.791z M179.824,232.953l4.691,3.877c1.065,0.879,1.941,1.735,2.802,2.565l0.051-0.031
				c-0.371-1.168-0.731-2.375-1.041-3.615l-1.369-5.96L179.824,232.953z"/>
		</g>
	</g>
	<g>
		<polygon style="fill:#1A1A1E;" points="127.904,217.374 140.737,225.245 128.915,232.661 		"/>
	</g>
	<g>
		<path style="fill:#1A1A1E;" d="M127.64,192.114c-0.283-0.672-0.607-1.334-1.007-1.972c-3.995-6.369-12.397-8.293-18.766-4.298
			c-6.369,3.995-8.293,12.397-4.298,18.766c0.406,0.648,0.868,1.237,1.359,1.791c-5.689,4.184-7.279,12.105-3.465,18.184
			c3.995,6.369,12.397,8.293,18.766,4.298c4.94-3.099,7.19-8.847,6.094-14.243c4.381,3.335,10.536,3.811,15.476,0.712
			c6.369-3.995,8.293-12.397,4.298-18.766C142.164,190.318,133.969,188.368,127.64,192.114z"/>
	</g>
	<g>
		<polygon style="fill:#1A1A1E;" points="65.566,190.937 68.586,192.79 65.804,194.535 		"/>
	</g>
	<g>
		<path style="fill:#1A1A1E;" d="M65.558,185.257c-0.067-0.158-0.143-0.314-0.237-0.464c-0.94-1.499-2.917-1.952-4.416-1.011
			c-1.499,0.94-1.952,2.917-1.011,4.416c0.096,0.152,0.204,0.291,0.32,0.421c-1.339,0.985-1.713,2.849-0.816,4.279
			c0.94,1.499,2.917,1.951,4.416,1.011c1.163-0.729,1.692-2.082,1.434-3.352c1.031,0.785,2.479,0.897,3.642,0.168
			c1.499-0.94,1.952-2.917,1.011-4.416C68.976,184.835,67.048,184.376,65.558,185.257z"/>
	</g>
	<g>
		<g>
			<polygon style="fill:#1A1A1E;" points="172.112,215.092 169.092,213.24 171.874,211.495 			"/>
		</g>
		<g>
			<path style="fill:#1A1A1E;" d="M172.121,220.772c0.067,0.158,0.143,0.314,0.237,0.464c0.94,1.499,2.917,1.952,4.416,1.011
				c1.499-0.94,1.952-2.917,1.011-4.416c-0.096-0.152-0.204-0.291-0.32-0.422c1.339-0.984,1.713-2.848,0.816-4.279
				c-0.94-1.499-2.917-1.952-4.416-1.011c-1.163,0.729-1.692,2.082-1.434,3.352c-1.031-0.785-2.479-0.897-3.642-0.168
				c-1.499,0.94-1.952,2.917-1.011,4.416C168.703,221.195,170.631,221.654,172.121,220.772z"/>
		</g>
	</g>
</g>
<g>
	<g>
		<path style="fill:#FFF3DD;" d="M378.188,299.437l-86.569-58.124c-1.851-1.243-2.349-3.775-1.106-5.626l84.003-125.113
			c1.243-1.851,3.775-2.349,5.626-1.106l86.569,58.124c1.851,1.243,2.349,3.775,1.106,5.626l-84.003,125.113
			C382.572,300.182,380.04,300.68,378.188,299.437z"/>
	</g>
	<g>
		<path style="fill:#F2E4CC;" d="M466.411,166.885l-43.467-28.678l-87.455,132.557l43.467,28.678
			c1.861,1.228,4.389,0.71,5.617-1.152l82.99-125.788C468.791,170.641,468.272,168.113,466.411,166.885z"/>
	</g>
	<g>
		<path style="fill:#ED3B3B;" d="M380.347,294.383c-0.943,0-1.896-0.271-2.737-0.835l-80.321-53.93
			c-1.089-0.728-1.829-1.846-2.083-3.138c-0.254-1.295,0.009-2.608,0.739-3.694l77.942-116.087c1.51-2.249,4.581-2.859,6.833-1.343
			l80.324,53.93c1.089,0.731,1.829,1.846,2.083,3.138c0.254,1.295-0.009,2.608-0.74,3.697l-77.942,116.087
			C383.493,293.618,381.936,294.383,380.347,294.383z M377.982,116.845c-0.838,0-1.662,0.404-2.165,1.152l-77.942,116.087
			c-0.384,0.573-0.522,1.262-0.387,1.947c0.133,0.683,0.522,1.273,1.095,1.657l80.324,53.93c1.188,0.796,2.805,0.483,3.607-0.708
			l77.942-116.087c0.799-1.188,0.48-2.808-0.711-3.607l-80.321-53.93C378.981,116.989,378.478,116.845,377.982,116.845z"/>
	</g>
	<g>
		<g>
			<path style="fill:#ED3B3B;" d="M374.68,134.042l-5.245,4.057l-2.216-1.495l16.834-12.792l2.585,1.744l-5.532,20.416l-2.29-1.545
				l1.748-6.415L374.68,134.042z M381.251,136.039l1.597-5.873c0.361-1.333,0.78-2.484,1.182-3.61l-0.05-0.034
				c-0.911,0.819-1.862,1.646-2.864,2.439l-4.864,3.705L381.251,136.039z"/>
		</g>
	</g>
	<g>
		<g>
			<path style="fill:#ED3B3B;" d="M383.817,273.94l5.236-4.068l2.219,1.49l-16.806,12.829l-2.589-1.738l5.488-20.428l2.293,1.54
				l-1.734,6.419L383.817,273.94z M377.241,271.957l-1.584,5.876c-0.359,1.334-0.775,2.486-1.174,3.613l0.05,0.033
				c0.909-0.821,1.859-1.65,2.858-2.446l4.856-3.716L377.241,271.957z"/>
		</g>
	</g>
	<g>
		<path style="fill:#ED3B3B;" d="M395.174,181.132c-1.261,5.152-2.397,11.931-2.369,19.905c0.023,6.527,0.82,12.194,1.779,16.738
			c-4.366,0.502-10.242,1.635-16.756,4.3c-7.379,3.018-12.86,6.889-16.482,9.895c1.421-5.182,2.823-12.676,2.314-21.68
			c-0.337-5.968-1.427-11.072-2.601-15.087c4.516-0.966,9.652-2.381,15.166-4.487C383.892,187.789,390.217,184.32,395.174,181.132z"
			/>
	</g>
	<g>
		<path style="fill:#ED3B3B;" d="M371.915,144.926c-0.309,1.262-0.587,2.922-0.58,4.875c0.006,1.599,0.201,2.986,0.436,4.099
			c-1.069,0.123-2.508,0.401-4.104,1.053c-1.807,0.739-3.15,1.687-4.037,2.423c0.348-1.269,0.691-3.104,0.567-5.31
			c-0.082-1.462-0.35-2.712-0.637-3.695c1.106-0.236,2.364-0.583,3.715-1.099C369.152,146.557,370.701,145.707,371.915,144.926z"/>
	</g>
	<g>
		<path style="fill:#ED3B3B;" d="M394.726,250.516c-0.309,1.262-0.587,2.922-0.58,4.875c0.006,1.599,0.201,2.986,0.436,4.099
			c-1.069,0.123-2.508,0.401-4.104,1.053c-1.807,0.739-3.15,1.687-4.037,2.423c0.348-1.269,0.691-3.104,0.567-5.31
			c-0.083-1.462-0.349-2.712-0.637-3.695c1.106-0.236,2.364-0.583,3.714-1.099C391.963,252.146,393.512,251.296,394.726,250.516z"/>
	</g>
</g>
<g>
	<g>
		<path style="fill:#FFF3DD;" d="M321.543,256.494l-100.73-26.943c-2.154-0.576-3.445-2.81-2.869-4.964l38.939-145.58
			c0.576-2.154,2.81-3.445,4.964-2.869l100.73,26.943c2.154,0.576,3.445,2.81,2.869,4.964l-38.939,145.58
			C325.931,255.779,323.697,257.07,321.543,256.494z"/>
	</g>
	<g>
		<path style="fill:#F2E4CC;" d="M362.064,102.509L311.65,89.461l-39.793,153.74l50.414,13.049c2.159,0.559,4.382-0.75,4.941-2.909
			l37.762-145.89C365.532,105.291,364.223,103.068,362.064,102.509z"/>
	</g>
	<g>
		<path style="fill:#1A1A1E;" d="M320.363,251.279c-0.426,0-0.852-0.056-1.276-0.169l-93.458-24.999
			c-1.267-0.339-2.328-1.152-2.989-2.295c-0.66-1.14-0.835-2.467-0.497-3.737l36.127-135.072c0.339-1.267,1.154-2.328,2.295-2.989
			c1.14-0.663,2.475-0.835,3.737-0.497l93.461,24.999c2.622,0.7,4.185,3.404,3.486,6.028l-36.13,135.075
			c-0.339,1.267-1.154,2.328-2.294,2.989C322.062,251.053,321.215,251.279,320.363,251.279z M263.029,83.68
			c-0.449,0-0.895,0.119-1.298,0.35c-0.604,0.35-1.036,0.909-1.214,1.578L224.39,220.68c-0.178,0.669-0.085,1.369,0.262,1.973
			c0.35,0.601,0.909,1.033,1.575,1.211l93.464,24.999c0.663,0.178,1.363,0.082,1.967-0.263c0.604-0.35,1.036-0.909,1.214-1.575
			l36.13-135.075c0.37-1.386-0.454-2.814-1.837-3.183l-93.464-24.999C263.478,83.709,263.255,83.68,263.029,83.68z"/>
	</g>
	<g>
		<g>
			<path style="fill:#1A1A1E;" d="M264.64,101.157l-3.647,5.537l-2.581-0.696l11.781-17.556l3.011,0.812l1.38,21.107l-2.667-0.72
				l-0.424-6.636L264.64,101.157z M271.504,100.917l-0.392-6.074c-0.09-1.378-0.067-2.603-0.052-3.798l-0.058-0.016
				c-0.596,1.07-1.229,2.16-1.919,3.235l-3.401,5.081L271.504,100.917z"/>
		</g>
	</g>
	<g>
		<g>
			<path style="fill:#1A1A1E;" d="M318.607,230.549l3.635-5.545l2.582,0.691l-11.743,17.581l-3.012-0.806l-1.426-21.104l2.668,0.714
				l0.439,6.635L318.607,230.549z M311.744,230.804l0.405,6.073c0.093,1.378,0.073,2.603,0.06,3.798l0.058,0.015
				c0.594-1.071,1.224-2.163,1.912-3.24l3.39-5.089L311.744,230.804z"/>
		</g>
	</g>
	<g>
		<g>
			<path style="fill:#1A1A1E;" d="M274.808,184.775c4.519,1.209,9.103,0.176,12.593-2.404c1.736,3.978,5.192,7.162,9.711,8.37
				c7.876,2.107,15.968-2.57,18.075-10.446c2.107-7.876-17.757-35.42-17.757-35.42s-30.962,13.95-33.069,21.826
				C262.255,174.576,266.932,182.668,274.808,184.775z"/>
		</g>
		<g>
			<polygon style="fill:#1A1A1E;" points="287.401,182.37 290.496,197.103 276.986,193.606 			"/>
		</g>
	</g>
	<g>
		<g>
			<path style="fill:#1A1A1E;" d="M260.275,121.253c1.193,0.319,2.402,0.047,3.323-0.634c0.458,1.05,1.37,1.89,2.563,2.209
				c2.078,0.556,4.214-0.678,4.77-2.757c0.556-2.078-4.686-9.348-4.686-9.348s-8.171,3.681-8.727,5.76
				C256.962,118.561,258.197,120.697,260.275,121.253z"/>
		</g>
		<g>
			<polygon style="fill:#1A1A1E;" points="263.598,120.618 264.415,124.506 260.85,123.583 			"/>
		</g>
	</g>
	<g>
		<g>
			<path style="fill:#1A1A1E;" d="M323.277,210.535c-1.193-0.319-2.402-0.046-3.323,0.635c-0.458-1.05-1.37-1.89-2.563-2.209
				c-2.078-0.556-4.214,0.678-4.77,2.757c-0.556,2.078,4.686,9.348,4.686,9.348s8.171-3.681,8.727-5.76
				C326.589,213.227,325.355,211.091,323.277,210.535z"/>
		</g>
		<g>
			<polygon style="fill:#1A1A1E;" points="319.953,211.17 319.137,207.282 322.702,208.205 			"/>
		</g>
	</g>
</g>
<g>
	<g>
		<path style="fill:#FFF3DD;" d="M280.236,231.568L179.39,258.076c-2.157,0.567-4.385-0.734-4.952-2.891l-38.311-145.747
			c-0.567-2.157,0.734-4.385,2.891-4.952l100.846-26.508c2.157-0.567,4.385,0.734,4.952,2.89l38.311,145.747
			C283.693,228.773,282.393,231.001,280.236,231.568z"/>
	</g>
	<g>
		<path style="fill:#F2E4CC;" d="M239.135,77.737l-50.256,13.645l41.612,153.258l50.256-13.645c2.152-0.584,3.435-2.823,2.85-4.975
			L244.11,80.587C243.526,78.436,241.287,77.153,239.135,77.737z"/>
	</g>
	<g>
		<path style="fill:#ED3B3B;" d="M180.611,252.865c-0.861,0-1.71-0.229-2.478-0.674c-1.137-0.666-1.947-1.73-2.28-2.997
			l-35.549-135.23c-0.33-1.27-0.15-2.594,0.517-3.734c0.666-1.14,1.73-1.95,2.997-2.283l93.568-24.596
			c2.622-0.677,5.323,0.886,6.014,3.511l35.549,135.23c0.33,1.27,0.15,2.594-0.514,3.734c-0.666,1.137-1.73,1.95-2.997,2.283l0,0
			l0,0l-93.571,24.596C181.452,252.811,181.032,252.865,180.611,252.865z M238.636,85.515c-0.217,0-0.437,0.028-0.658,0.088
			l-93.568,24.596c-0.669,0.175-1.23,0.601-1.58,1.205c-0.353,0.601-0.449,1.301-0.274,1.967l35.546,135.23
			c0.175,0.669,0.604,1.231,1.205,1.581c0.604,0.353,1.301,0.443,1.967,0.274l93.571-24.599c0.669-0.175,1.228-0.601,1.58-1.202
			c0.35-0.604,0.449-1.304,0.271-1.97l-35.546-135.23C240.846,86.288,239.788,85.515,238.636,85.515z"/>
	</g>
	<g>
		<path style="fill:#ED3B3B;" d="M215.149,143.626c-4.524,1.189-7.994,4.357-9.747,8.328c-3.479-2.596-8.059-3.648-12.583-2.459
			c-7.885,2.073-12.597,10.145-10.524,18.03c2.073,7.885,32.974,21.968,32.974,21.968s19.982-27.458,17.91-35.343
			S223.034,141.553,215.149,143.626z"/>
	</g>
	<g>
		<path style="fill:#ED3B3B;" d="M164.131,133.342c-1.476,0.384-2.61,1.415-3.184,2.709c-1.133-0.849-2.625-1.195-4.101-0.811
			c-2.573,0.67-4.115,3.299-3.445,5.872c0.67,2.573,10.737,7.187,10.737,7.187s6.535-8.939,5.865-11.512
			C169.332,134.214,166.703,132.672,164.131,133.342z"/>
	</g>
	<g>
		<g>
			<path style="fill:#ED3B3B;" d="M153.841,124.835l-0.424,6.617l-2.587,0.674l1.535-21.087l3.018-0.786l11.657,17.65l-2.673,0.696
				l-3.657-5.554L153.841,124.835z M159.684,121.226l-3.35-5.082c-0.761-1.153-1.348-2.228-1.927-3.274l-0.058,0.015
				c0.012,1.225,0.003,2.485-0.064,3.761l-0.437,6.099L159.684,121.226z"/>
		</g>
	</g>
	<g>
		<path style="fill:#ED3B3B;" d="M254.523,202.001c1.475-0.388,2.607-1.421,3.178-2.716c1.134,0.846,2.628,1.189,4.103,0.802
			c2.571-0.676,4.108-3.308,3.432-5.879c-0.676-2.571-10.752-7.164-10.752-7.164s-6.516,8.954-5.84,11.525
			C249.319,201.14,251.951,202.676,254.523,202.001z"/>
	</g>
	<g>
		<g>
			<path style="fill:#ED3B3B;" d="M264.83,210.486l0.41-6.618l2.585-0.679l-1.489,21.09l-3.016,0.793l-11.696-17.624l2.671-0.702
				l3.669,5.546L264.83,210.486z M258.995,214.108l3.361,5.074c0.763,1.151,1.353,2.225,1.934,3.269l0.058-0.015
				c-0.015-1.225-0.009-2.485,0.055-3.761l0.423-6.1L258.995,214.108z"/>
		</g>
	</g>
</g>
<g>
	<g>
		<polygon style="fill:#D3C0A7;" points="402.24,325.452 402.24,356.99 309.684,423.169 309.684,390.201 		"/>
	</g>
	<g>
		<polygon style="fill:#E2D4BF;" points="309.684,390.201 309.684,423.169 140.372,389.207 140.372,353.232 		"/>
	</g>
	<g>
		<path style="fill:#E03B41;" d="M141.506,352.326l85.755-63.483c1.834-1.358,5.345-2.048,7.802-1.534l166.045,34.74
			c2.457,0.514,2.967,2.045,1.133,3.403l-85.755,63.483c-1.834,1.358-5.345,2.048-7.802,1.534l-166.045-34.74
			C140.182,355.215,139.672,353.683,141.506,352.326z"/>
	</g>
	<g>
		<path style="fill:#CE2834;" d="M317.476,388.639l42.363-31.801l-176.029-35.826l-42.363,31.801
			c-1.814,1.362-1.276,2.887,1.196,3.391l167.041,33.997C312.155,390.704,315.662,390.001,317.476,388.639z"/>
	</g>
	<g>
		<path style="fill:#EDC33E;" d="M306.128,385.809c-0.629,0-1.236-0.054-1.798-0.172l-147.329-30.824
			c-2.074-0.435-2.605-1.504-2.735-2.103c-0.121-0.55-0.107-1.637,1.338-2.707l76.087-56.326c1.863-1.377,5.261-2.057,7.727-1.535
			l147.329,30.822c2.072,0.435,2.602,1.501,2.732,2.1c0.121,0.553,0.107,1.64-1.335,2.709l-76.09,56.329
			C310.615,385.166,308.261,385.809,306.128,385.809z M237.615,293.974c-1.702,0-3.635,0.508-4.727,1.318L156.8,351.618
			c-0.505,0.372-0.579,0.632-0.573,0.666c0.011,0.054,0.265,0.373,1.185,0.565l147.329,30.824c1.916,0.398,4.713-0.147,6.116-1.185
			l76.09-56.329c0.502-0.372,0.579-0.632,0.57-0.663c-0.011-0.056-0.265-0.375-1.182-0.567l-147.329-30.822
			C238.58,294.016,238.106,293.974,237.615,293.974z"/>
	</g>
	<g>
		<polygon style="fill:#C4AE94;" points="402.24,356.99 322.651,409.081 396.424,355.688 336.337,390.639 393.754,353.232 
			339.008,381.156 395.089,344.93 344.349,372.1 402.24,325.452 		"/>
	</g>
	<g>
		<polygon style="fill:#C4AE94;" points="309.684,395.245 336.004,384.805 311.635,400.276 336.004,394.741 309.684,409.081 		"/>
	</g>
	<g>
		<polygon style="fill:#C4AE94;" points="309.684,392.226 202.923,371.094 294.166,390.639 202.923,374.31 295.056,392.226 
			309.684,395.245 309.684,404.301 192.686,384.805 309.684,407.112 309.684,417.718 150.403,384.805 309.684,423.169 		"/>
	</g>
	<g>
		<polygon style="fill:#C4AE94;" points="140.404,365.727 250.105,388.201 140.372,369.416 		"/>
	</g>
</g>
</svg>
