<svg width="24" height="24" viewBox="0 0 24 24" fill="none" xmlns="http://www.w3.org/2000/svg">
<path d="M19.0317 7.57853C19.207 8.33833 19.5973 13.836 17.942 15.4913C16.3413 17.09 10.7173 15.7571 10.1291 15.6119C9.52771 17.3313 10.0895 19.3637 10.0952 19.3845C10.1008 19.4033 10.0914 19.426 10.0745 19.4372C10.0669 19.441 10.0575 19.4429 10.0499 19.4429C10.0386 19.4429 10.0273 19.4392 10.0179 19.4316C7.52544 17.2371 7.0843 14.822 7.04281 14.558C5.59489 13.7209 5.1575 13.4608 4.93499 11.5905C4.72574 9.83336 4.6258 5.77426 5.69291 5.15964C6.80905 4.51487 9.55972 4.26409 12.6554 5.03144C15.4571 5.72711 18.8356 6.73201 19.0317 7.57853ZM17.8741 15.4253C19.5049 13.7964 19.1128 8.35337 18.9393 7.60112C18.7979 6.98462 16.4997 6.0834 12.6328 5.12378C11.2471 4.77878 10.0028 4.64865 8.95077 4.64865C7.39911 4.64865 6.2698 4.9352 5.74002 5.24064C4.77097 5.80061 4.79736 9.64478 5.02738 11.5791C5.2461 13.4079 5.64013 13.6379 7.10689 14.4844C7.10877 14.4863 7.10877 14.4863 7.11064 14.4863V14.4882C7.12006 14.492 7.4406 14.6899 7.77617 14.869C8.07219 15.0293 8.37196 15.1801 8.44358 15.216C8.37003 15.1858 8.06085 15.052 7.75541 14.9105C7.50842 14.7974 7.27086 14.6768 7.14833 14.6126V14.6145C7.23692 15.084 7.74599 17.2465 9.96692 19.26C9.85002 18.7547 9.52574 17.0617 10.0367 15.5892C10.0367 15.5892 10.0367 15.5892 10.0367 15.5874C9.95371 15.5647 9.7746 15.5176 9.59549 15.4761C9.47103 15.4479 9.34663 15.4215 9.25236 15.4064C9.1581 15.3894 9.09402 15.3837 9.09402 15.3837C9.09402 15.3837 9.15814 15.3837 9.25428 15.3913C9.34855 15.3988 9.47675 15.412 9.60308 15.429C9.73128 15.4459 9.85574 15.4667 9.95188 15.4836C10.0461 15.4987 10.1083 15.51 10.1083 15.51H10.1102C10.1706 15.5252 16.2602 17.0391 17.8741 15.4253Z" fill="#D9927C"/>
<path d="M8.44361 15.2158C8.37199 15.1799 8.07217 15.0291 7.77621 14.8688C7.44063 14.6897 7.1201 14.4918 7.11067 14.488V14.4861C7.1088 14.4861 7.1088 14.4861 7.10692 14.4842C5.64011 13.6377 5.24608 13.4077 5.02741 11.5789C4.79739 9.64456 4.771 5.80034 5.74005 5.24042C6.26983 4.93498 7.39914 4.64844 8.9508 4.64844C10.0028 4.64844 11.2472 4.77852 12.6329 5.12356C16.4997 6.08319 18.7979 6.98441 18.9393 7.60091C19.1128 8.35316 19.5049 13.7961 17.8741 15.425C16.2603 17.0389 10.1706 15.525 10.1103 15.5099H10.1084C10.1084 15.5099 10.0462 15.4986 9.95196 15.4835C9.85582 15.4665 9.73136 15.4458 9.60316 15.4288C9.47683 15.4119 9.34863 15.3987 9.25436 15.3912C9.15822 15.3836 9.0941 15.3836 9.0941 15.3836C9.0941 15.3836 9.15822 15.3893 9.25244 15.4062C9.34671 15.4213 9.47116 15.4477 9.59556 15.476C9.77467 15.5175 9.95378 15.5646 10.0368 15.5872V15.5891C9.52581 17.0615 9.8501 18.7546 9.967 19.2598C7.74607 17.2463 7.23705 15.0838 7.14841 14.6144V14.6125C7.27094 14.6766 7.5085 14.7973 7.75549 14.9104C8.06088 15.0517 8.37006 15.1856 8.44361 15.2158ZM16.7297 10.3195V9.50506C16.7297 9.49752 16.7278 9.48997 16.724 9.48242C16.724 9.48242 16.724 9.48242 16.724 9.48055L16.5034 9.09594C16.4958 9.08084 16.4751 9.06955 16.4619 9.07142C16.4449 9.07142 14.6444 9.08272 12.0182 8.5115C9.39002 7.94023 6.89003 6.93158 6.86364 6.92028C6.8561 6.91653 6.84667 6.91653 6.83913 6.91841C6.83538 6.91841 6.52614 6.97306 6.01713 7.04473C6.01713 7.04473 6.01713 7.04661 6.01525 7.04661C6.01338 7.04661 6.00958 7.04661 6.00583 7.04848C6.00208 7.05036 5.99828 7.05223 5.99453 7.05603C5.99266 7.05791 5.99078 7.05978 5.98886 7.0617C5.98699 7.06358 5.98699 7.06545 5.98511 7.06738C5.98324 7.06925 5.98136 7.07112 5.97944 7.07492C5.97944 7.0768 5.97756 7.0768 5.97756 7.07867C5.84181 7.54058 5.97381 7.86486 5.97944 7.87995C5.98511 7.88937 5.99074 7.89692 6.00016 7.90259C6.019 7.91202 7.74597 8.84338 11.313 9.60317C14.8499 10.3592 16.6334 10.3667 16.6825 10.3667C16.7089 10.3667 16.7297 10.344 16.7297 10.3195ZM14.6011 12.203C14.7274 11.9843 14.6275 11.4847 14.6087 11.4017C14.6087 11.3942 14.6049 11.3847 14.6011 11.3772C14.5992 11.3772 14.6011 11.3753 14.5992 11.3735L14.3466 11.0115C14.339 11.0002 14.3259 10.9926 14.3108 10.9926C14.2919 10.9908 12.3236 10.8248 10.7362 10.3592C9.14308 9.89539 6.92027 9.08281 6.8995 9.07527C6.88633 9.06959 6.87124 9.07152 6.85989 9.07902C6.85614 9.07902 6.6393 9.19967 6.04919 9.19967C6.04732 9.19967 6.04544 9.20155 6.04164 9.20155C6.03222 9.20342 6.02467 9.20722 6.019 9.21284C6.01525 9.21472 6.01525 9.21659 6.01333 9.22039C6.00958 9.22414 6.00578 9.22981 6.00391 9.23548C6.00203 9.23923 6.00203 9.24303 6.00203 9.24678C5.98319 9.33917 5.87008 9.93303 6.00958 10.1743C6.01525 10.1838 6.02275 10.1913 6.0341 10.1951C6.05106 10.2026 7.80067 10.838 10.1479 11.4828C12.4989 12.1295 14.5389 12.2256 14.5596 12.2275H14.5615C14.5785 12.2275 14.5936 12.218 14.6011 12.203ZM12.5442 13.6547V12.9043C12.5442 12.8968 12.5423 12.8892 12.5385 12.8817C12.5385 12.8817 12.5385 12.8798 12.5366 12.8798L12.3198 12.4952C12.3104 12.4782 12.2916 12.4688 12.2746 12.4725C12.2652 12.4725 11.4602 12.5611 9.53711 12.1332C7.61594 11.7071 6.86181 11.2225 6.85427 11.2169C6.84297 11.2093 6.82788 11.2075 6.81466 11.2112C6.46966 11.3149 6.00963 11.3337 5.98699 11.3357H5.98511C5.97756 11.3357 5.97189 11.3375 5.96627 11.3413C5.96439 11.3413 5.96252 11.3432 5.9606 11.3432L5.95492 11.3489V11.3508C5.95305 11.3508 5.95305 11.3526 5.95117 11.3545C5.94363 11.3621 5.93988 11.3715 5.93988 11.3828V11.3847V11.9257C5.93988 11.9427 5.94742 11.9578 5.96252 11.9672C5.97381 11.9729 7.19552 12.7006 9.11669 13.1587C11.036 13.615 12.4801 13.6998 12.4933 13.7017H12.4971C12.5084 13.7017 12.5197 13.6961 12.5291 13.6885C12.5386 13.6792 12.5442 13.6679 12.5442 13.6547Z" fill="#FFEBE0"/>
<path d="M16.7272 9.5059V10.3204C16.7272 10.3449 16.7065 10.3675 16.6801 10.3675C16.631 10.3675 14.8475 10.36 11.3106 9.60397C7.74358 8.84417 6.01661 7.91281 5.99777 7.90339C5.98835 7.89772 5.98268 7.89022 5.97705 7.88075C5.97138 7.86565 5.83943 7.54137 5.97518 7.07947C5.97518 7.07759 5.97705 7.07759 5.97705 7.07572C5.97893 7.07197 5.9808 7.07004 5.98272 7.06817C5.9846 7.06629 5.9846 7.06442 5.98647 7.0625C5.98835 7.06062 5.99022 7.05875 5.99215 7.05682C5.9959 7.05307 5.99969 7.05115 6.00344 7.04928C6.00719 7.0474 6.01099 7.0474 6.01286 7.0474C6.01474 7.0474 6.01474 7.04553 6.01474 7.04553C6.5238 6.9739 6.83299 6.9192 6.83674 6.9192C6.84429 6.91733 6.85371 6.91733 6.86125 6.92108C6.88765 6.93237 9.38758 7.94103 12.0158 8.51229C14.642 9.08356 16.4426 9.07222 16.4595 9.07222C16.4727 9.07034 16.4935 9.08164 16.501 9.09673L16.7216 9.48134V9.48322C16.7253 9.49081 16.7272 9.49836 16.7272 9.5059ZM16.6329 10.2714V9.56248C16.3577 9.60397 15.0605 9.7114 11.5519 8.91579C8.00749 8.11264 6.35782 7.3189 6.05055 7.16243C5.96383 7.50743 6.03733 7.76576 6.05997 7.82797C6.23908 7.92223 7.95663 8.79326 11.3313 9.51345C14.5684 10.2035 16.3293 10.2657 16.6329 10.2714ZM16.6046 9.47009L16.433 9.16658C16.1936 9.16658 14.4534 9.14018 11.995 8.60473C9.45541 8.05231 7.03464 7.09268 6.83857 7.01351C6.78199 7.02293 6.54255 7.06442 6.17683 7.1172C6.17683 7.11908 6.17871 7.11908 6.17871 7.11908C6.63494 7.34342 8.28461 8.07683 11.5727 8.8234C14.9908 9.59829 16.3162 9.5059 16.6046 9.47009Z" fill="#D9927C"/>
<path d="M16.6354 9.56216V10.271C16.3318 10.2654 14.5709 10.2032 11.3338 9.51312C7.95902 8.79294 6.24148 7.92191 6.06237 7.82764C6.03973 7.76544 5.96623 7.50716 6.05294 7.16211C6.36026 7.31858 8.00993 8.11231 11.5543 8.91547C15.063 9.71108 16.3601 9.60359 16.6354 9.56216Z" fill="#FBB03B"/>
<path d="M16.4359 9.16673L16.6075 9.47025C16.319 9.50606 14.9936 9.59845 11.5755 8.82356C8.28747 8.07698 6.63784 7.34358 6.18156 7.11923C6.18156 7.11923 6.17969 7.11923 6.17969 7.11736C6.54545 7.06458 6.78489 7.02309 6.84142 7.01367C7.0375 7.09284 9.45827 8.05252 11.9978 8.60489C14.4564 9.14034 16.1965 9.16673 16.4359 9.16673Z" fill="#F7931E"/>
<path d="M14.6091 11.402C14.628 11.4849 14.7279 11.9845 14.6016 12.2033C14.594 12.2184 14.5789 12.2278 14.562 12.2278C14.5601 12.2278 14.5601 12.2278 14.5601 12.2278C14.5394 12.2259 12.4994 12.1298 10.1484 11.4831C7.80112 10.8383 6.05156 10.2029 6.03459 10.1954C6.02329 10.1916 6.01575 10.1841 6.01007 10.1746C5.87057 9.93334 5.98368 9.33943 6.00253 9.24709C6.00253 9.24334 6.00253 9.23954 6.0044 9.23579C6.00628 9.23012 6.01007 9.22449 6.01382 9.22069C6.0157 9.21694 6.0157 9.21502 6.0195 9.21315C6.02517 9.20748 6.03267 9.20373 6.04214 9.20185C6.04589 9.20185 6.04781 9.19998 6.04968 9.19998C6.63979 9.19998 6.85659 9.07932 6.86039 9.07932C6.87168 9.07177 6.88678 9.0699 6.9 9.07557C6.92072 9.08312 9.14353 9.89569 10.7367 10.3595C12.3241 10.8251 14.2924 10.9911 14.3113 10.9929C14.3264 10.9929 14.3395 11.0005 14.3471 11.0118L14.5997 11.3738C14.6016 11.3756 14.5997 11.3775 14.6016 11.3775C14.6053 11.385 14.6091 11.3944 14.6091 11.402ZM14.5337 12.1316C14.6053 11.9619 14.5563 11.6094 14.5224 11.4453C14.2038 11.4246 11.8188 11.2568 10.4576 10.8967C9.11151 10.5404 6.49087 9.47705 6.08554 9.31116C6.04786 9.51666 5.99503 9.93333 6.08367 10.1143C6.26845 10.1803 7.95393 10.7817 10.1729 11.3926C12.3561 11.9921 14.2716 12.1165 14.5337 12.1316ZM14.4677 11.3492L14.2829 11.0834C14.0604 11.0645 12.2166 10.891 10.7083 10.4499C9.19251 10.0068 7.10733 9.25084 6.88673 9.17162C6.85847 9.18484 6.79814 9.2093 6.6982 9.23194C6.59826 9.25459 6.46064 9.27718 6.2759 9.2866C6.9735 9.57127 9.25851 10.4819 10.4802 10.8043C11.7679 11.1456 13.9813 11.3133 14.4677 11.3492Z" fill="#D9927C"/>
<path d="M14.5224 11.4448C14.5563 11.6088 14.6054 11.9613 14.5337 12.131C14.2716 12.1159 12.3561 11.9915 10.1729 11.392C7.95384 10.7812 6.26836 10.1797 6.08363 10.1137C5.99503 9.93272 6.04781 9.51605 6.0855 9.31055C6.49083 9.47644 9.11147 10.5398 10.4576 10.8961C11.8188 11.2562 14.2037 11.424 14.5224 11.4448Z" fill="#FBB03B"/>
<path d="M14.2804 11.0836L14.4652 11.3494C13.9788 11.3136 11.7654 11.1458 10.4778 10.8045C9.25605 10.4821 6.97103 9.57153 6.27344 9.28686C6.45822 9.27744 6.59584 9.2548 6.69573 9.2322C6.79567 9.20956 6.856 9.18509 6.88427 9.17188C7.10486 9.25105 9.19005 10.0071 10.7058 10.4502C12.2141 10.8912 14.058 11.0647 14.2804 11.0836Z" fill="#F7931E"/>
<path d="M12.5419 12.9038V13.6542C12.5419 13.6674 12.5362 13.6787 12.5268 13.6882C12.5173 13.6957 12.506 13.7014 12.4947 13.7014C12.4928 13.7014 12.4928 13.7014 12.491 13.7014C12.4778 13.6995 11.0336 13.6147 9.11431 13.1584C7.19314 12.7002 5.97144 11.9725 5.96014 11.9669C5.94505 11.9574 5.9375 11.9423 5.9375 11.9254V11.3843C5.9375 11.3843 5.9375 11.3843 5.9375 11.3824C5.9375 11.3711 5.94125 11.3617 5.9488 11.3542C5.95067 11.3523 5.95067 11.3504 5.95255 11.3504C5.95255 11.3485 5.95255 11.3485 5.95255 11.3485L5.95822 11.3429C5.96009 11.3429 5.96197 11.341 5.96389 11.341C5.96956 11.3372 5.97519 11.3353 5.98273 11.3353H5.98461C6.00725 11.3334 6.46728 11.3146 6.81228 11.2109C6.8255 11.2071 6.84055 11.209 6.85189 11.2165C6.85944 11.2222 7.61356 11.7067 9.53473 12.1328C11.4578 12.5608 12.2628 12.4722 12.2722 12.4722C12.2892 12.4684 12.308 12.4778 12.3175 12.4948L12.5343 12.8794C12.5361 12.8794 12.5361 12.8813 12.5361 12.8813C12.54 12.8888 12.5419 12.8963 12.5419 12.9038ZM12.4476 13.6033V12.951C12.1855 12.9491 10.8809 12.9265 9.47628 12.5871C8.07734 12.2496 6.38056 11.5897 6.03177 11.4521V11.8989C6.20708 11.9989 7.37225 12.6455 9.13691 13.0659C10.8488 13.4732 12.178 13.5845 12.4476 13.6033ZM12.4137 12.8567L12.2515 12.5683C12.0837 12.5814 11.2655 12.6154 9.51402 12.2251C7.7173 11.8254 6.94808 11.3862 6.818 11.307C6.60683 11.3673 6.36364 11.3994 6.19395 11.4145C6.72373 11.62 8.23391 12.1912 9.49897 12.4948C10.1701 12.6569 10.8187 12.7455 11.339 12.7964C11.8594 12.8454 12.2515 12.8549 12.4137 12.8567Z" fill="#D9927C"/>
<path d="M12.4509 12.952V13.6043C12.1813 13.5854 10.8522 13.4742 9.1403 13.0669C7.37564 12.6465 6.21047 11.9998 6.03516 11.8999V11.4531C6.38395 11.5908 8.08073 12.2506 9.47967 12.5881C10.8842 12.9274 12.1889 12.9501 12.4509 12.952Z" fill="#FBB03B"/>
<path d="M12.2529 12.5699L12.4151 12.8583C12.2529 12.8565 11.8608 12.847 11.3404 12.798C10.82 12.7471 10.1715 12.6585 9.50033 12.4964C8.23527 12.1928 6.72509 11.6216 6.19531 11.4161C6.365 11.401 6.60819 11.3689 6.81936 11.3086C6.94944 11.3878 7.71866 11.8271 9.51538 12.2267C11.2669 12.617 12.0852 12.5831 12.2529 12.5699Z" fill="#F7931E"/>
</svg>
