<svg id="Layer_1" enable-background="new 0 0 512 512" height="512" viewBox="0 0 512 512" width="512" xmlns="http://www.w3.org/2000/svg"><g><path d="m245.883 155.952-52.047 4.95-26.781 45.595-30.609.046-17.623 25.88-67.623-5.62 15.215 72.335-3.592 13.146 13.276 54.112 31.09 4.271 37.502-12.303 34.947-21.086 52.312-48.138 34.258-37.945 48.016-43.301 34.395-58.314-66.472-4.532z" opacity=".1"/><path d="m324.234 196.815 92.755-34.587-59.749-37.359z" fill="#29a2d7"/><path d="m357.24 124.869-71.524 58.727-9.685-24.455-55.874 42.02-15.65-61.018-65.692 115.085-15.712 17.277-48.02 87.178 14.041 24.075 34.967 3.373 74.29-79.304 59.53-36.195 73.229-36.195 85.849-60.278 9.041-23.056-49.419-7.117z" fill="#bed9f5"/><path d="m416.989 162.228-59.749-37.359-33.006 80.464-48.203-46.192-6.866 69.468-64.658-88.466-16.684 142.533-15.713 17.276-48.019 87.179 42.523-11.007 80.774-40.849 59.532-36.195 73.227-36.195 80.653-66.07-34.77-44.712z" fill="#cae0f5"/><path d="m416.989 162.228-59.749-37.359-33.006 80.464-48.203-46.192-6.866 69.468-64.658-88.466-16.684 142.533-15.713 17.276-48.019 87.179 42.523-11.007 80.774-40.849 59.532-36.195 73.227-36.195 80.653-66.07-34.77-44.712z" fill="#e0fbff"/><g fill="#bed9f5"><path d="m208.784 280.391 11.555-88.578 26.453 24.669-33.389-45.798z"/><path d="m237.906 312.564 15.058-61.172-10.038 2.348z"/><path d="m308.804 218.393 38.272 29.44-58.349-62.006z"/><path d="m404.641 184.416 37.174 12.399-63.525-46.75z"/><path d="m360.408 150.065-2.352 69.172 9.882-65.878-4.942-18.823z"/></g></g></svg>