<svg width="160" height="201" viewBox="0 0 160 201" fill="none" xmlns="http://www.w3.org/2000/svg">
<rect width="160" height="200.325" rx="5.20325" fill="#5A4447"/>
<path d="M132.807 167.418L123.012 179.236L127.174 179.055L129.328 182.263L134.417 168.477L132.807 167.418Z" fill="#D1CDC7"/>
<path d="M134.058 167.418L143.853 179.236L139.691 179.055L137.536 182.263L132.447 168.477L134.058 167.418Z" fill="#D1CDC7"/>
<path d="M132.718 164.562C132.718 164.562 126.781 156.703 122.197 158.954C117.008 161.503 122.79 166.394 122.79 166.394C122.79 166.394 120.787 169.809 122.34 171.914C124.72 175.142 132.446 168.477 132.446 168.477L132.718 164.562Z" fill="white"/>
<path d="M133.676 164.664C133.676 164.664 139.577 156.977 143.996 159.349C149 162.034 143.298 166.762 143.298 166.762C143.298 166.762 145.19 170.227 143.645 172.287C141.278 175.446 134.6 168.446 134.6 168.446L133.676 164.664Z" fill="white"/>
<path d="M132.546 166.118L126.99 165.08C126.99 165.08 130.166 163.792 132.546 166.118Z" fill="#E8E6E3"/>
<path d="M132.567 166.871L127.133 168.41C127.133 168.41 129.38 165.851 132.567 166.871Z" fill="#E8E6E3"/>
<path d="M134.551 166.118L140.106 165.08C140.106 165.08 136.931 163.792 134.551 166.118Z" fill="#E8E6E3"/>
<path d="M134.531 166.871L139.966 168.41C139.966 168.41 137.719 165.851 134.531 166.871Z" fill="#E8E6E3"/>
<path d="M133.381 168.562L129.355 175.539C129.355 175.539 130.304 171.361 133.381 168.562Z" fill="#E8E6E3"/>
<path d="M133.564 168.562L137.59 175.539C137.59 175.539 136.641 171.361 133.564 168.562Z" fill="#E8E6E3"/>
<path d="M134.927 164.143H132.203V168.932H134.927V164.143Z" fill="#E8E6E3"/>
</svg>
