<svg width="24" height="24" viewBox="0 0 24 24" fill="none" xmlns="http://www.w3.org/2000/svg">
<path d="M7.30443 22.4192L5.65033 21.4579C5.51062 21.3772 5.42405 21.2041 5.42208 20.9561L5.39453 11.2383L7.04865 12.1976L7.0762 21.9174C7.0762 22.1634 7.16277 22.3365 7.30443 22.4192Z" fill="#D9DDDD"/>
<path d="M18.5828 5.53906L18.6104 15.2582C18.6118 15.7547 18.2625 16.3598 17.8291 16.6101L7.85961 22.3659C7.42747 22.6154 7.07584 22.415 7.07443 21.9185L7.04688 12.1994L18.5828 5.53906Z" fill="#EAEFEF"/>
<path d="M17.7938 3.35384C18.2271 3.10361 18.5788 3.30399 18.5802 3.802L18.5851 5.53854L7.0479 12.1996L7.04297 10.463C7.04156 9.96501 7.39216 9.3592 7.82431 9.1097L17.7938 3.35384Z" fill="#FF5230"/>
<path d="M18.3485 3.29912C18.2068 3.21649 18.0081 3.22829 17.7897 3.35421L7.82197 9.10937C7.3891 9.35925 7.03888 9.96527 7.03888 10.4631L7.04477 12.1985L5.39262 11.2392L5.38673 9.50179C5.38476 9.00399 5.73695 8.39798 6.16785 8.15007L16.1376 2.39294C16.356 2.26701 16.5527 2.25521 16.6964 2.33784L18.3485 3.29912Z" fill="#F4462F"/>
<path d="M10.6403 12.2471C10.7571 12.1797 10.8565 12.17 10.9384 12.2153C11.0216 12.2627 11.0634 12.3542 11.0638 12.487L11.0756 16.666L11.6271 16.3476C11.7339 16.2859 11.827 16.2755 11.9026 16.3186C11.9782 16.3617 12.0162 16.4468 12.0166 16.5695C12.0169 16.6922 11.977 16.8237 11.9031 16.9487C11.828 17.076 11.7351 17.1715 11.6296 17.2324L9.58448 18.4132C9.4777 18.4748 9.38587 18.4845 9.31277 18.4428C9.23968 18.4012 9.20294 18.3168 9.2026 18.1941C9.20225 18.0714 9.23838 17.945 9.30849 17.8178C9.3811 17.6891 9.47519 17.59 9.58197 17.5283L10.2666 17.133L10.2566 13.5864L9.73104 14.1862C9.65076 14.273 9.58673 14.3273 9.53272 14.3585C9.42091 14.423 9.32784 14.4349 9.25474 14.3932C9.18164 14.3515 9.1449 14.2643 9.14453 14.1358C9.144 13.9482 9.22274 13.7581 9.37199 13.5867L10.2699 12.5275C10.3452 12.4392 10.423 12.3726 10.5021 12.3269L10.6403 12.2471Z" fill="#38425D"/>
<path d="M15.6901 11.9135C16.2361 11.8889 16.5126 12.2151 16.5145 12.882C16.5153 13.1519 16.4507 13.448 16.3232 13.7645C16.1945 14.0803 15.9878 14.402 15.7094 14.7189C15.4334 15.033 15.0769 15.3169 14.6485 15.5642C14.2201 15.8115 13.8631 15.9396 13.5863 15.9447C13.307 15.9498 13.1004 15.8667 12.9703 15.7003C12.8403 15.5339 12.7742 15.3118 12.7734 15.0419C12.7716 14.375 13.0465 13.7304 13.5897 13.1262C13.45 13.1187 13.3291 13.0743 13.2269 12.9944C13.0668 12.8714 12.9856 12.645 12.9847 12.3231C12.984 12.085 13.0399 11.8156 13.151 11.5201C13.2647 11.2217 13.4475 10.9224 13.6946 10.6308C13.9404 10.34 14.2555 10.0828 14.6324 9.86526C15.0105 9.64695 15.326 9.53997 15.5714 9.54722C15.8205 9.5523 16.0045 9.63984 16.1182 9.80696C16.2307 9.97337 16.2879 10.1775 16.2886 10.4156C16.2895 10.7361 16.2098 11.0553 16.0522 11.3633C15.9508 11.5606 15.8293 11.745 15.6901 11.9135ZM15.6058 13.6886C15.672 13.5231 15.7056 13.3823 15.7053 13.274C15.7045 12.9882 15.6084 12.8282 15.4107 12.7833C15.2042 12.7363 14.9452 12.8034 14.6412 12.9789C14.3384 13.1537 14.0799 13.3854 13.8743 13.6703C13.6775 13.9415 13.5814 14.2139 13.5822 14.4997C13.5826 14.6094 13.6168 14.7097 13.6838 14.7983C13.7519 14.8861 13.8653 14.9334 14.0214 14.9359C14.1799 14.9398 14.3911 14.8656 14.6461 14.7183C14.9024 14.5704 15.112 14.4016 15.2701 14.2149C15.4256 14.0326 15.5383 13.8548 15.6058 13.6886ZM13.9972 11.2846C13.8594 11.4972 13.7932 11.6987 13.7938 11.9008C13.7943 12.0812 13.8588 12.203 13.9912 12.2727C14.1235 12.3409 14.341 12.289 14.6387 12.1171C14.9365 11.9452 15.1536 11.7461 15.2851 11.5256C15.4166 11.3037 15.4802 11.1094 15.4797 10.9275C15.4791 10.7254 15.4121 10.6007 15.2735 10.5477C15.1324 10.4932 14.9174 10.548 14.6348 10.7112C14.3521 10.8743 14.1375 11.0677 13.9972 11.2846Z" fill="#38425D"/>
<path d="M9.66439 9.52228C9.66439 9.56163 9.66046 9.60097 9.65456 9.6423C9.60734 9.96498 9.38303 10.3231 9.1115 10.4805C8.80653 10.6556 8.55862 10.5139 8.55469 10.1676V10.1617C8.55469 10.0378 8.58419 9.90791 8.63732 9.782C8.73373 9.54392 8.90688 9.32158 9.10758 9.2055C9.21579 9.14254 9.31811 9.11893 9.40271 9.1327C9.55815 9.15631 9.66243 9.296 9.66439 9.52228Z" fill="#D62D29"/>
<path d="M6.36328 8.03564L7.0811 7.62109Z" fill="#1F2633"/>
<path d="M9.81244 8.90477C9.81244 9.19204 9.75735 9.44192 9.65306 9.64261C9.56256 9.82167 9.43073 9.96333 9.26349 10.0597C9.11395 10.1463 8.94671 10.1876 8.76765 10.1876C8.69879 10.1876 8.62599 10.1817 8.55319 10.168V10.1621C8.55319 10.0381 8.5827 9.90823 8.63583 9.78232C8.79914 9.80985 8.94671 9.78821 9.0687 9.71738C9.24774 9.61507 9.36383 9.41044 9.40122 9.13302C9.41302 9.06218 9.41892 8.98545 9.41892 8.90477C9.42286 7.99772 8.7834 6.89195 7.9944 6.43744C7.78387 6.31545 7.58514 6.25248 7.41003 6.25248C7.29788 6.25248 7.19556 6.27806 7.10702 6.32922C6.88272 6.45908 6.75877 6.74635 6.7568 7.13986C6.7568 7.33858 6.79024 7.54714 6.8473 7.75767L6.49708 7.96034C6.4105 7.6829 6.36328 7.40351 6.36328 7.13986C6.36525 6.59878 6.56004 6.18952 6.91026 5.98882C7.26443 5.7842 7.71894 5.82355 8.19116 6.09704C9.10411 6.62239 9.81637 7.85605 9.81244 8.90477Z" fill="#1F2633"/>
<path d="M13.3089 7.40509C13.3089 7.44444 13.305 7.48379 13.2991 7.52511C13.2519 7.84779 13.0276 8.20589 12.756 8.3633C12.4511 8.53841 12.2031 8.39674 12.1992 8.05045V8.04455C12.1992 7.92059 12.2287 7.79073 12.2819 7.66481C12.3783 7.42673 12.5514 7.20439 12.7521 7.08831C12.8603 7.02535 12.9626 7.00174 13.0472 7.01551C13.2027 7.03912 13.307 7.17881 13.3089 7.40509Z" fill="#D62D29"/>
<path d="M13.4609 6.78759C13.4609 7.07486 13.4058 7.32473 13.3015 7.52543C13.211 7.70448 13.0792 7.84614 12.9119 7.94255C12.7624 8.02913 12.5951 8.07045 12.4161 8.07045C12.3472 8.07045 12.2744 8.06454 12.2016 8.05077V8.04487C12.2016 7.92091 12.2311 7.79104 12.2843 7.66513C12.4476 7.69267 12.5951 7.67102 12.7171 7.6002C12.8962 7.49788 13.0123 7.29325 13.0497 7.01583C13.0615 6.94499 13.0674 6.86826 13.0674 6.78759C13.0713 5.88054 12.4318 4.77476 11.6428 4.32025C11.4323 4.19826 11.2336 4.1353 11.0585 4.1353C10.9463 4.1353 10.844 4.16088 10.7555 4.21203C10.5312 4.34189 10.4072 4.62916 10.4052 5.02268C10.4052 5.22139 10.4387 5.42995 10.4957 5.64049L10.1455 5.84315C10.0589 5.56572 10.0117 5.28632 10.0117 5.02268C10.0137 4.48159 10.2085 4.07233 10.5587 3.87164C10.9129 3.66701 11.3674 3.70637 11.8396 3.97985C12.7526 4.5052 13.4648 5.73886 13.4609 6.78759Z" fill="#1F2633"/>
<path d="M17.0863 5.19025C17.0863 5.2296 17.0823 5.26894 17.0764 5.31026C17.0292 5.63295 16.8049 5.99105 16.5334 6.14845C16.2284 6.32357 15.9805 6.1819 15.9766 5.8356V5.82971C15.9766 5.70575 16.0061 5.57588 16.0592 5.44997C16.1556 5.21189 16.3288 4.98955 16.5294 4.87347C16.6377 4.8105 16.74 4.78689 16.8246 4.80067C16.98 4.82428 17.0843 4.96397 17.0863 5.19025Z" fill="#D62D29"/>
<path d="M17.2382 4.57274C17.2382 4.86001 17.1831 5.10989 17.0788 5.31058C16.9883 5.48964 16.8565 5.6313 16.6893 5.72771C16.5397 5.81428 16.3725 5.85561 16.1934 5.85561C16.1246 5.85561 16.0518 5.8497 15.979 5.83592V5.83003C15.979 5.70607 16.0085 5.5762 16.0616 5.45029C16.2249 5.47782 16.3725 5.45618 16.4945 5.38535C16.6735 5.28303 16.7896 5.07841 16.827 4.80099C16.8388 4.73015 16.8447 4.65342 16.8447 4.57274C16.8486 3.66569 16.2092 2.55992 15.4202 2.10541C15.2096 1.98342 15.0109 1.92045 14.8358 1.92045C14.7237 1.92045 14.6213 1.94603 14.5328 1.99719C14.3085 2.12705 14.1845 2.41432 14.1826 2.80783C14.1826 3.00655 14.216 3.21511 14.2731 3.42564L13.9229 3.62831C13.8363 3.35087 13.7891 3.07148 13.7891 2.80783C13.791 2.26675 13.9858 1.85749 14.336 1.65679C14.6902 1.45217 15.1447 1.49152 15.6169 1.76501C16.5299 2.29036 17.2422 3.52402 17.2382 4.57274Z" fill="#1F2633"/>
</svg>
