<svg width="24" height="24" viewBox="0 0 24 24" fill="none" xmlns="http://www.w3.org/2000/svg">
<path opacity="0.1" d="M15.6304 11.5971L8.25148 10.5742L4.85938 13.0489L5.33272 17.4093L5.76162 16.4852L10.8481 19.3464L12.314 19.724L14.5044 17.457L15.7187 17.2691L17.536 13.3535L15.3902 12.1146L15.6304 11.5971Z" fill="black"/>
<path d="M4.80078 12.5521L11.3526 8.76934L15.3903 4.27539L8.83841 8.05806L4.80078 12.5521Z" fill="#255778"/>
<path d="M6.23438 11.4876V16.2147L12.315 19.7253V14.9982L9.13617 8.30273L6.23438 11.4876Z" fill="#F4B9EE"/>
<path d="M12.3164 19.724L18.397 16.2134V11.4863L12.3164 14.9969V19.724Z" fill="#FFCFFF"/>
<path d="M8.83594 8.05806L12.6465 16.4979L19.1983 12.7151L15.3878 4.27539L8.83594 8.05806Z" fill="#48728E"/>
<path d="M11.7305 9.35742L13.4135 13.0852L16.3073 11.4144V9.82683L13.4135 11.4976L11.7305 9.35742Z" fill="#F4B9EE"/>
<path d="M13.4135 13.0862V11.4986L11.7305 9.35547L13.4135 13.0862Z" fill="#F09FE8"/>
<path d="M11.5391 9.15319L13.4136 11.4993L16.3074 9.82856L14.4329 7.48242L11.5391 9.15319Z" fill="#597F98"/>
<path d="M14.0192 15.8853C13.48 16.1965 13.043 16.9536 13.043 17.5761C13.043 18.1987 13.48 18.451 14.0192 18.1397C14.5583 17.8284 14.9954 17.0715 14.9954 16.4489C14.9954 15.8264 14.5583 15.574 14.0192 15.8853Z" fill="#4BB7F0"/>
<path d="M14.0189 15.7538C13.4183 16.1005 12.9297 16.9468 12.9297 17.6402C12.9297 18.3337 13.4183 18.6158 14.0189 18.269C14.6194 17.9223 15.108 17.076 15.108 16.3825C15.108 15.6891 14.6194 15.407 14.0189 15.7538ZM13.8882 18.071C13.5169 18.2199 13.2233 18.0504 13.1665 17.6543L13.8882 17.2377V18.071ZM13.8882 16.936L13.1665 17.3527C13.2233 16.8911 13.5169 16.3827 13.8882 16.1027V16.936ZM14.1494 17.9202V17.0869L14.8712 16.6702C14.8143 17.1318 14.5208 17.6402 14.1494 17.9202ZM14.1494 16.7852V15.9519C14.5208 15.803 14.8144 15.9725 14.8712 16.3685L14.1494 16.7852Z" fill="#FAFAFA"/>
<path d="M17.2256 14.2403C16.7515 14.514 16.3672 15.1796 16.3672 15.7271C16.3672 16.2745 16.7515 16.4963 17.2256 16.2226C17.6997 15.9489 18.084 15.2833 18.084 14.7358C18.084 14.1884 17.6997 13.9666 17.2256 14.2403Z" fill="#4BB7F0"/>
<path d="M17.2272 14.1245C16.6991 14.4295 16.2695 15.1736 16.2695 15.7833C16.2695 16.3931 16.6991 16.6411 17.2272 16.3363C17.7553 16.0314 18.1849 15.2872 18.1849 14.6774C18.1849 14.0677 17.7553 13.8197 17.2272 14.1245ZM17.1124 16.162C16.7859 16.2929 16.5277 16.1439 16.4778 15.7957L17.1124 15.4293V16.162ZM17.1124 15.1641L16.4778 15.5305C16.5277 15.1246 16.7858 14.6775 17.1124 14.4313V15.1641ZM17.3421 16.0295V15.2967L17.9767 14.9303C17.9267 15.3363 17.6686 15.7833 17.3421 16.0295ZM17.3421 15.0315V14.2987C17.6687 14.1678 17.9267 14.3168 17.9767 14.6651L17.3421 15.0315Z" fill="#FAFAFA"/>
<path d="M9.214 10.4702C8.81322 10.2388 8.48828 10.4264 8.48828 10.8892C8.48828 11.352 8.81322 11.9148 9.214 12.1462C9.61483 12.3776 9.93977 12.1901 9.93977 11.7272C9.93977 11.2644 9.61483 10.7016 9.214 10.4702Z" fill="#4BB7F0"/>
<path d="M9.21202 10.3739C8.76558 10.1162 8.40234 10.3259 8.40234 10.8414C8.40234 11.3569 8.76558 11.9861 9.21202 12.2438C9.6585 12.5016 10.0217 12.2919 10.0217 11.7763C10.0217 11.2608 9.6585 10.6317 9.21202 10.3739ZM9.11494 11.9845C8.83884 11.7763 8.62059 11.3984 8.57841 11.0552L9.11494 11.365V11.9845ZM9.11494 11.1407L8.57841 10.831C8.62059 10.5365 8.83884 10.4105 9.11494 10.5212V11.1407ZM9.30914 12.0965V11.4771L9.84567 11.7868C9.80344 12.0813 9.58519 12.2073 9.30914 12.0965ZM9.30914 11.2528V10.6333C9.58523 10.8415 9.80348 11.2195 9.84567 11.5626L9.30914 11.2528Z" fill="#FAFAFA"/>
<path d="M7.65525 14.2403C7.1812 13.9666 6.79688 14.1885 6.79688 14.7359C6.79688 15.2833 7.1812 15.949 7.65525 16.2227C8.12934 16.4964 8.51367 16.2745 8.51367 15.7271C8.51367 15.1796 8.12934 14.5139 7.65525 14.2403Z" fill="#4BB7F0"/>
<path d="M7.65688 14.1245C7.12883 13.8197 6.69922 14.0677 6.69922 14.6774C6.69922 15.2872 7.12883 16.0314 7.65688 16.3363C8.18502 16.6412 8.61462 16.3931 8.61462 15.7833C8.61462 15.1736 8.18502 14.4295 7.65688 14.1245ZM7.54208 16.0295C7.21555 15.7833 6.95741 15.3362 6.90744 14.9303L7.54208 15.2967V16.0295ZM7.54208 15.0315L6.90744 14.6651C6.95736 14.3168 7.21545 14.1678 7.54208 14.2987V15.0315ZM7.77172 16.162V15.4293L8.40631 15.7957C8.35639 16.144 8.09825 16.293 7.77172 16.162ZM7.77172 15.1641V14.4313C8.0983 14.6775 8.35644 15.1246 8.40631 15.5305L7.77172 15.1641Z" fill="#FAFAFA"/>
<path d="M15.166 10.7208C14.6674 11.0087 14.2617 11.7113 14.2617 12.2871C14.2617 12.2941 14.262 12.3008 14.2622 12.3078L16.0694 11.2644C16.0695 11.2573 16.0703 11.25 16.0703 11.2429C16.0703 10.6671 15.6646 10.4329 15.166 10.7208ZM15.0753 11.7126L14.4406 12.0791C14.4905 11.6731 14.7487 11.226 15.0753 10.9797V11.7126ZM15.2434 11.6153V10.8517C15.5837 10.7152 15.8527 10.8705 15.9047 11.2335L15.2434 11.6153Z" fill="#FAFAFA"/>
<path d="M14.4414 12.078L15.0761 11.7115V10.9785C14.7495 11.2247 14.4913 11.6719 14.4414 12.078Z" fill="#7DC8F0"/>
<path d="M15.2461 10.8517V11.6154L15.9074 11.2336C15.8554 10.8706 15.5864 10.7153 15.2461 10.8517Z" fill="#7DC8F0"/>
<path d="M9.54688 18.1253L11.2287 19.0963V15.969L9.54688 14.998V18.1253Z" fill="#FAFAFA"/>
<path d="M9.63281 18.1742L11.1412 19.0451V16.1014L9.63281 15.2305V18.1742Z" fill="#FFD41F"/>
<path d="M10.9077 17.2342C10.8767 17.2163 10.8516 17.2308 10.8516 17.2667V17.6922C10.8516 17.728 10.8767 17.7716 10.9077 17.7895C10.9387 17.8074 10.9639 17.7929 10.9639 17.7571V17.3316C10.9639 17.2957 10.9387 17.2521 10.9077 17.2342Z" fill="#916E4C"/>
</svg>
