<svg width="24" height="24" viewBox="0 0 24 24" fill="none" xmlns="http://www.w3.org/2000/svg">
<path d="M14.2087 11.8259C14.2166 11.8824 14.2326 11.9609 14.2716 12.0052C14.2241 12.0181 14.1765 12.0311 14.1289 12.0443C14.162 11.9631 14.1878 11.8792 14.2051 11.793C14.206 11.8039 14.2071 11.8149 14.2087 11.8259Z" fill="#F5FDFD"/>
<path d="M9.15837 11.7422C9.16784 11.7905 9.18317 11.8368 9.20548 11.8772C9.17867 11.8712 9.15181 11.8652 9.125 11.8595C9.13902 11.8219 9.15003 11.7825 9.15837 11.7422Z" fill="#F5FDFD"/>
<path d="M11.6523 12.4774C11.6952 12.3703 11.7232 12.2475 11.7385 12.123C11.7545 12.2541 11.7874 12.382 11.8409 12.5003C11.778 12.4938 11.7151 12.4861 11.6523 12.4774Z" fill="#F5FDFD"/>
<path d="M15.9224 11.7243C15.906 11.725 15.8897 11.7258 15.8732 11.7268C15.6766 11.7372 15.4804 11.7569 15.2849 11.7853C14.9527 11.8338 14.6248 11.9116 14.298 11.999C14.2852 11.9419 14.2507 11.8904 14.2378 11.8316C14.2204 11.7514 14.222 11.6702 14.2355 11.5898C14.236 11.5868 14.2324 11.5856 14.2312 11.5885C14.2324 11.5719 14.2328 11.5552 14.2331 11.5385C14.2331 11.5342 14.2268 11.533 14.2263 11.5375C14.2035 11.7188 14.1607 11.8892 14.0914 12.0553C13.9121 12.1053 13.7331 12.1569 13.5538 12.207C13.0409 12.3499 12.5234 12.4792 11.9985 12.5148C11.9588 12.5121 11.9194 12.5088 11.8799 12.5051C11.7897 12.2907 11.741 12.0777 11.7529 11.8374C11.7532 11.8332 11.752 11.8299 11.75 11.8277C11.7488 11.7836 11.7464 11.7408 11.7425 11.7004C11.742 11.6952 11.7355 11.6952 11.7351 11.7004C11.7218 11.8571 11.7109 12.0125 11.6821 12.1669C11.6629 12.27 11.6307 12.3701 11.6059 12.4717C11.2148 12.4137 10.8274 12.3141 10.4429 12.207C10.0439 12.0956 9.64631 11.9769 9.24445 11.8862C9.2228 11.8386 9.19912 11.7931 9.18516 11.74C9.17883 11.7161 9.17386 11.6919 9.17006 11.6675C9.18089 11.5863 9.18155 11.5037 9.17367 11.4264C9.17278 11.418 9.16172 11.4177 9.16148 11.4264C9.16125 11.4513 9.16036 11.4755 9.15877 11.4994C9.15741 11.4977 9.15469 11.4979 9.15427 11.5004C9.14775 11.539 9.14433 11.5819 9.14522 11.6254C9.1335 11.7024 9.11545 11.7764 9.09314 11.8531C8.96662 11.8269 8.83945 11.804 8.71177 11.7853C8.55502 11.7624 8.39808 11.7455 8.24086 11.734C8.18536 11.7301 8.12967 11.7268 8.07422 11.7243C8.48512 11.4698 8.85656 11.0875 9.27197 10.8417C10.073 10.3675 10.916 10.7436 11.7468 10.8039C11.8312 10.8101 11.9151 10.8128 11.9983 10.8108C12.0815 10.8129 12.1654 10.8101 12.2497 10.8039C13.0805 10.7436 13.9235 10.3675 14.7246 10.8417C15.1401 11.0875 15.5115 11.4698 15.9224 11.7243Z" fill="#F5FDFD"/>
<path d="M17.8916 11.2922C17.6593 11.0708 17.4363 10.8374 17.22 10.5948C17.2003 10.5729 17.181 10.5512 17.1618 10.5294C16.9917 10.3359 16.8255 10.1369 16.6625 9.93287C16.6427 9.90845 16.623 9.88356 16.6036 9.8589C16.5644 9.80983 16.5256 9.76028 16.487 9.71073C16.2805 9.44476 16.0798 9.16679 15.8684 8.90458C15.8353 8.86347 15.8021 8.82264 15.7683 8.78256C15.5945 8.57486 15.412 8.37986 15.2122 8.21251C15.1858 8.19011 15.159 8.16845 15.1319 8.1475C15.1008 8.12284 15.0692 8.09917 15.0372 8.07625C14.8209 7.92109 14.5859 7.79983 14.3412 7.73926C14.2821 7.72459 14.2226 7.71362 14.1628 7.7064C14.1529 7.70514 14.1432 7.70415 14.1335 7.70317C13.8209 7.67228 13.5196 7.76645 13.2274 7.89569C13.2271 7.89569 13.2271 7.89569 13.2271 7.89569C13.2125 7.90239 13.198 7.9089 13.1836 7.91537C13.086 7.95972 12.9861 8.00753 12.8841 8.05408C12.8366 8.07601 12.7885 8.0979 12.74 8.11881C12.7328 8.12204 12.7258 8.12504 12.7186 8.12804C12.6036 8.17787 12.4868 8.22367 12.3695 8.26004C12.3693 8.26004 12.3693 8.26004 12.3693 8.26004C12.2461 8.29815 12.1223 8.32581 11.9992 8.33626C11.876 8.32581 11.7522 8.29815 11.6291 8.26004H11.6289C11.602 8.25156 11.575 8.24284 11.5482 8.23365C11.4945 8.21495 11.4408 8.1948 11.3876 8.17314C11.3515 8.1587 11.3157 8.14351 11.2798 8.12804C11.2726 8.12504 11.2656 8.12204 11.2584 8.11881C11.1319 8.06378 11.0076 8.00425 10.8869 7.94847C10.8628 7.93726 10.8387 7.9263 10.8147 7.91533C10.794 7.90586 10.7733 7.89667 10.7523 7.88744C10.5468 7.79776 10.3369 7.72633 10.1217 7.70415C10.0583 7.69792 9.99472 7.69567 9.93045 7.69844C9.90856 7.69942 9.88672 7.70092 9.86483 7.70317C9.54528 7.73453 9.23811 7.87778 8.96117 8.07625C8.75595 8.2232 8.56967 8.40025 8.39422 8.59375C8.29433 8.70358 8.198 8.81912 8.10373 8.9372C7.90213 9.19 7.70952 9.45597 7.51128 9.71073C7.36855 9.8943 7.22375 10.0743 7.07605 10.2504C7.03386 10.3007 6.99148 10.3508 6.94864 10.4004C6.67958 10.7134 6.40039 11.0123 6.10677 11.2922C5.70509 11.675 5.28655 12.009 4.84766 12.3096C4.89861 12.3512 4.94891 12.3945 4.99855 12.4396C5.15417 12.58 5.30277 12.7352 5.44597 12.8991C5.66858 13.1541 5.8783 13.4308 6.08286 13.7095C6.16653 13.8233 6.25063 13.9394 6.33613 14.0562C6.33613 14.0565 6.33636 14.0565 6.33636 14.0565C6.38234 14.1197 6.42861 14.183 6.47553 14.2462L6.47577 14.2465C6.97259 14.9199 7.50955 15.592 8.14419 15.9746C8.14442 15.9748 8.14466 15.9751 8.14489 15.9751C8.2227 16.0224 8.30206 16.0648 8.38283 16.1026C8.63562 16.2204 8.9038 16.2904 9.19044 16.2963C9.44708 16.3018 9.69988 16.262 9.95023 16.1987H9.95047C10.0208 16.1813 10.0907 16.1619 10.1607 16.1409C10.4613 16.0515 10.759 15.9372 11.0557 15.8373C11.1428 15.8081 11.2307 15.779 11.3198 15.7516C11.3546 15.7409 11.3895 15.7304 11.4247 15.7202C11.48 15.7041 11.5356 15.6889 11.5916 15.6747C11.7264 15.6406 11.8629 15.6127 11.9993 15.596C12.1358 15.6127 12.2722 15.6406 12.4071 15.6747C12.5886 15.7208 12.7682 15.7785 12.9429 15.8373C12.9655 15.845 12.988 15.8525 13.0106 15.8602C13.0351 15.8687 13.0597 15.8771 13.0843 15.8859C13.4122 15.9999 13.7413 16.1239 14.0748 16.2054C14.1156 16.2156 14.1567 16.2248 14.1977 16.2335C14.3993 16.2759 14.6025 16.3005 14.8082 16.2963C15.3587 16.2849 15.8408 16.037 16.277 15.6685C16.4804 15.4968 16.6737 15.2991 16.8595 15.0864C17.2362 14.6553 17.5819 14.1639 17.9157 13.7094C18.2749 13.2198 18.6504 12.7366 19.0832 12.3663C19.0841 12.3655 19.0848 12.3648 19.0857 12.364C19.1071 12.3456 19.129 12.3274 19.1508 12.3095C18.7118 12.009 18.2933 11.675 17.8916 11.2922ZM18.8683 12.3397C18.5492 12.2169 18.2242 12.115 17.8955 12.0358C17.5748 11.9581 17.2507 11.9023 16.925 11.8695C16.7295 11.8495 16.5333 11.8381 16.3373 11.8351C16.2658 11.8338 16.1946 11.8341 16.1235 11.8353C16.0669 11.8363 16.0106 11.8378 15.9539 11.8403C15.8389 11.8453 15.7237 11.8532 15.6089 11.8645C15.6084 11.8645 15.608 11.8645 15.6073 11.8647C15.6071 11.8645 15.6071 11.8645 15.6068 11.8647C15.6068 11.8645 15.6064 11.8647 15.6064 11.8647C15.536 11.8712 15.4656 11.8791 15.3953 11.8884C15.2532 11.9071 15.1123 11.9312 14.9715 11.9598C14.9715 11.9598 14.9713 11.9598 14.9711 11.9598C14.916 11.9708 14.8615 11.9825 14.8067 11.9947C14.7805 12.0007 14.7548 12.0067 14.7286 12.0129C14.7284 12.0127 14.7282 12.0129 14.7282 12.0129H14.7279C14.3781 12.0941 14.0311 12.1962 13.6835 12.2938C13.6669 12.2986 13.6504 12.303 13.6337 12.3077C13.6335 12.3077 13.6335 12.3077 13.6332 12.308C13.6308 12.3087 13.6283 12.3095 13.6258 12.3102H13.6256C13.295 12.4024 12.9639 12.49 12.6299 12.5515H12.6297C12.6127 12.5545 12.5958 12.5578 12.5791 12.5605C12.387 12.5944 12.1937 12.6193 11.9991 12.6315C11.8642 12.623 11.7298 12.6085 11.5963 12.5891C11.5927 12.5936 11.5871 12.5919 11.5848 12.5874C11.5426 12.5812 11.5005 12.5745 11.4583 12.5672C11.4157 12.5603 11.3733 12.5525 11.3311 12.5443C11.007 12.4828 10.6858 12.3977 10.3649 12.308C10.3647 12.308 10.3647 12.308 10.3645 12.3077C10.3611 12.3068 10.3581 12.3058 10.3548 12.3047H10.3541C10.2943 12.2881 10.2343 12.2711 10.1746 12.2545H10.1743C9.88995 12.1738 9.60556 12.0926 9.31963 12.0243H9.31873C9.23755 12.0049 9.15725 11.9867 9.07583 11.9695C9.0695 11.9683 9.06317 11.9668 9.05689 11.9658H9.05577C8.90534 11.9347 8.75492 11.9083 8.60291 11.8884C8.39136 11.861 8.17869 11.844 7.96606 11.8375C7.96583 11.8375 7.96583 11.8375 7.96583 11.8375C7.93541 11.8366 7.90517 11.8358 7.8747 11.8353C7.8312 11.8345 7.78719 11.834 7.74345 11.8343C7.74322 11.8343 7.74322 11.8343 7.74298 11.8343C7.7157 11.8343 7.68842 11.8345 7.66114 11.8351C7.24484 11.8413 6.82827 11.8861 6.41647 11.9671C6.25137 11.9995 6.08722 12.0375 5.92395 12.0811C5.91247 12.0841 5.9007 12.0873 5.88922 12.0906C5.81389 12.111 5.73903 12.1327 5.66412 12.1556C5.48441 12.2101 5.30623 12.2717 5.12989 12.3396C5.1193 12.3436 5.11522 12.3235 5.12539 12.3187C5.28641 12.2423 5.44991 12.1727 5.61523 12.1103C5.64003 12.1008 5.66488 12.0916 5.68991 12.0826C5.84211 12.0268 5.99548 11.9775 6.15041 11.9342C6.38019 11.8701 6.61227 11.8201 6.84547 11.7852C6.89375 11.778 6.94175 11.7715 6.99003 11.7655C7.29673 11.7282 7.60527 11.7125 7.91333 11.719C7.98617 11.6781 8.05742 11.6325 8.12759 11.5837C8.25636 11.4938 8.38152 11.3932 8.50536 11.2926C8.79336 11.0582 9.07977 10.8137 9.39978 10.6602C9.78359 10.4759 10.1952 10.4717 10.5971 10.5233C10.8183 10.5517 11.0452 10.5962 11.2736 10.6344C11.5046 10.6727 11.7375 10.7043 11.9675 10.7063C11.9779 10.7063 11.9887 10.7065 11.9991 10.7065C12.0095 10.7065 12.0201 10.7065 12.0307 10.7063C12.2608 10.7043 12.4937 10.6727 12.7247 10.6344C12.9531 10.5962 13.18 10.5517 13.4012 10.5233C13.8031 10.4717 14.2147 10.476 14.5985 10.6602C14.9185 10.8137 15.2049 11.0582 15.4929 11.2926C15.6844 11.4482 15.879 11.6036 16.0849 11.719C16.1539 11.7175 16.2229 11.7172 16.292 11.718C16.5313 11.7205 16.77 11.7366 17.0082 11.7655C17.2901 11.7999 17.5707 11.857 17.8478 11.9342C17.9304 11.9571 18.0127 11.982 18.0948 12.0089C18.3036 12.0766 18.5104 12.1558 18.7134 12.246C18.7668 12.2694 18.8198 12.2938 18.8728 12.3187C18.883 12.3235 18.8789 12.3437 18.8683 12.3397Z" fill="#FF1B1B"/>
<path d="M7.05398 10.318C6.95386 10.6253 6.93989 10.9635 7.05103 11.2696C7.05441 11.2786 7.04091 11.2846 7.03706 11.2761C6.91664 11.0113 6.89588 10.6998 6.95048 10.4C6.99333 10.3504 7.03575 10.3003 7.07789 10.25C7.06931 10.2725 7.06144 10.2951 7.05398 10.318Z" fill="#FF2E24"/>
<path d="M8.00376 10.6783C8.00601 10.6912 7.9889 10.6967 7.98595 10.6838C7.85648 10.1043 7.89056 9.48334 8.10613 8.9372C8.2004 8.81917 8.29668 8.70358 8.39662 8.59375C8.03376 9.19694 7.87298 9.94309 8.00376 10.6783Z" fill="#FF2E24"/>
<path d="M10.1235 7.70411C10.0635 7.73974 10.0049 7.77785 9.94848 7.81994C9.76782 7.95443 9.60863 8.12177 9.47129 8.30833C9.15849 8.73396 9.00423 9.26444 9.01482 9.8111C9.01506 9.82104 9.00174 9.8208 9.00109 9.8111C8.96701 9.26393 9.10801 8.69463 9.40431 8.25133C9.54123 8.04635 9.72456 7.84764 9.93226 7.69844C9.99657 7.69568 10.0601 7.69788 10.1235 7.70411Z" fill="#FF2E24"/>
<path d="M10.9339 9.61238C10.9314 9.62259 10.9174 9.61809 10.9194 9.60788C11.0376 9.04378 10.9569 8.43436 10.7539 7.88672C10.7749 7.89595 10.7956 7.90514 10.8164 7.91461C10.8403 7.92558 10.8644 7.93655 10.8886 7.94775C11.0608 8.46848 11.0667 9.05227 10.9339 9.61238Z" fill="#FF2E24"/>
<path d="M11.6596 9.76577C11.6582 9.772 11.6485 9.77073 11.6492 9.76427C11.6833 9.35584 11.6594 8.96931 11.5421 8.57758C11.4999 8.43662 11.4467 8.30214 11.3867 8.17188C11.4399 8.19353 11.4936 8.21369 11.5473 8.23239C11.7279 8.71853 11.762 9.29481 11.6596 9.76577Z" fill="#FF2E24"/>
<path d="M13.2274 7.89453C12.6765 8.35803 12.2867 9.03022 12.2315 9.82812C12.2306 9.84256 12.2103 9.84284 12.211 9.82812C12.241 9.22841 12.4204 8.67256 12.7632 8.20461C12.8018 8.15206 12.8422 8.10125 12.8844 8.05292C12.9863 8.00637 13.0862 7.95852 13.1838 7.91422C13.1983 7.90775 13.2127 7.90123 13.2274 7.89453Z" fill="#FF2E24"/>
<path d="M14.3414 7.73798C14.1711 7.83436 14.0125 7.95591 13.8705 8.09784C13.4429 8.52469 13.1925 9.12764 13.1594 9.76097C13.1587 9.77419 13.1411 9.77419 13.1408 9.76097C13.1323 9.10673 13.3777 8.45297 13.8086 8.0017C13.9115 7.89413 14.0317 7.79325 14.1629 7.70508C14.2227 7.71234 14.2822 7.72331 14.3414 7.73798Z" fill="#FF2E24"/>
<path d="M15.2128 8.2115C15.1887 8.30117 15.1531 8.38831 15.1217 8.471C15.0676 8.61397 15.006 8.75366 14.9374 8.88889C14.7897 9.1798 14.6082 9.44727 14.3987 9.68708C14.3944 9.69181 14.3878 9.68459 14.3919 9.67963C14.5908 9.4318 14.7615 9.15837 14.8948 8.86152C14.9632 8.70936 15.0216 8.55219 15.0694 8.39056C15.0928 8.31111 15.1098 8.2272 15.1325 8.14648C15.1596 8.16744 15.1864 8.18909 15.2128 8.2115Z" fill="#FF2E24"/>
<path d="M15.8711 8.90336C15.8655 8.98155 15.8578 9.05875 15.8491 9.1337C15.803 9.5237 15.6844 9.91145 15.5365 10.2681C15.5331 10.2759 15.5209 10.2701 15.5239 10.2621C15.6671 9.88408 15.7357 9.49703 15.7643 9.08959C15.7718 8.986 15.7731 8.88339 15.7711 8.78125C15.8048 8.82142 15.838 8.86225 15.8711 8.90336Z" fill="#FF2E24"/>
<path d="M16.6632 9.93334C16.662 9.96423 16.6607 9.99386 16.6591 10.0225C16.6431 10.2992 16.5748 10.5612 16.4661 10.8102C16.4597 10.8249 16.4406 10.8122 16.4464 10.7975C16.5484 10.5487 16.6018 10.2743 16.6065 10.0011C16.6072 9.95378 16.6065 9.90644 16.6043 9.85938C16.6237 9.88398 16.6433 9.90892 16.6632 9.93334Z" fill="#FF2E24"/>
<path d="M17.2209 10.5948C17.2162 10.8021 17.1848 11.0122 17.1228 11.2052C17.1199 11.2147 17.1079 11.211 17.1095 11.2012C17.1483 10.9766 17.1706 10.7559 17.1628 10.5293C17.1819 10.5513 17.2013 10.5729 17.2209 10.5948Z" fill="#FF2E24"/>
<path d="M6.47516 14.245C6.42823 14.1817 6.38201 14.1185 6.33598 14.0552C6.33598 14.0552 6.33575 14.0552 6.33575 14.0549C6.16142 13.5011 6.11923 12.8969 6.24284 12.3345C6.24444 12.3266 6.25433 12.3303 6.25344 12.3378C6.16911 12.9982 6.24851 13.6545 6.47516 14.245Z" fill="#ED1919"/>
<path d="M8.38283 16.1018C8.30211 16.0639 8.2227 16.0216 8.14489 15.9743C8.14466 15.9743 8.14442 15.974 8.14419 15.9738C7.93241 15.7855 7.74003 15.5701 7.57339 15.333C7.17036 14.7589 6.91578 14.0703 6.85939 13.3453C6.85892 13.3379 6.86933 13.3381 6.86998 13.3453C6.94466 14.0691 7.21686 14.7594 7.6302 15.3258C7.83364 15.6042 8.06839 15.8535 8.33159 16.0625C8.34856 16.0759 8.36567 16.0888 8.38283 16.1018Z" fill="#ED1919"/>
<path d="M8.4455 15.5109C7.83617 14.7249 7.49061 13.7461 7.59973 12.7032C7.6002 12.6987 7.59308 12.6976 7.59247 12.7021C7.45414 13.703 7.74059 14.8357 8.43167 15.5261C8.44109 15.5355 8.45365 15.5214 8.4455 15.5109Z" fill="#ED1919"/>
<path d="M10.1606 16.1402C10.0906 16.1611 10.0207 16.1806 9.95037 16.198H9.95013C9.71899 16.1447 9.49685 16.0346 9.31891 15.8932C8.96055 15.6083 8.7296 15.1694 8.65634 14.6913C8.65521 14.6835 8.66557 14.6803 8.66716 14.688C8.75759 15.1515 9.01404 15.5684 9.3708 15.8331C9.55596 15.9706 9.76544 16.065 9.98398 16.1136C10.043 16.1268 10.1019 16.135 10.1606 16.1402Z" fill="#ED1919"/>
<path d="M10.0606 14.975C9.62682 14.3811 9.43407 13.6297 9.6151 12.88C9.61773 12.869 9.60273 12.8645 9.59982 12.8753C9.40829 13.5895 9.55988 14.4548 10.0498 14.9871C10.057 14.9948 10.0667 14.9833 10.0606 14.975Z" fill="#ED1919"/>
<path d="M11.4249 15.7194C11.3897 15.7296 11.3547 15.7401 11.32 15.7508C11.1342 15.6108 10.9668 15.4395 10.825 15.2472C10.4878 14.7905 10.2998 14.2358 10.2813 13.6471C10.281 13.6384 10.293 13.6386 10.2934 13.6471C10.3273 14.2244 10.5336 14.8034 10.8873 15.2335C11.044 15.4241 11.2262 15.5857 11.4249 15.7194Z" fill="#ED1919"/>
<path d="M13.1728 14.9939C13.1627 15.2925 13.1345 15.5909 13.0855 15.885C13.0609 15.8763 13.0364 15.8678 13.0118 15.8594C13.0655 15.5665 13.1009 15.2701 13.1153 14.9715C13.1462 14.3292 13.081 13.6912 12.9416 13.0673C12.9396 13.0586 12.9513 13.0548 12.9538 13.0636C13.126 13.6856 13.195 14.3441 13.1728 14.9939Z" fill="#ED1919"/>
<path d="M14.3782 12.7488C14.3768 12.7385 14.3604 12.7409 14.3616 12.7513C14.4048 13.1423 14.3981 13.5374 14.3408 13.9263C14.285 14.3056 14.1591 14.6553 14.0668 15.0232C14.0635 15.0365 14.0802 15.0438 14.0866 15.0324C14.2694 14.7105 14.345 14.3053 14.3894 13.9336C14.4364 13.5398 14.4299 13.1416 14.3782 12.7488Z" fill="#ED1919"/>
<path d="M15.1592 14.0461C15.1423 14.6151 14.9774 15.168 14.684 15.6367C14.5462 15.8571 14.3843 16.0614 14.1971 16.2327C14.1561 16.224 14.115 16.2147 14.0742 16.2046C14.1405 16.1543 14.2037 16.0955 14.2652 16.0344C14.433 15.8683 14.5807 15.6786 14.7041 15.4701C14.9558 15.0447 15.1098 14.5526 15.1462 14.0461C15.1468 14.0369 15.1597 14.0366 15.1592 14.0461Z" fill="#ED1919"/>
<path d="M16.5351 12.665C16.5333 12.6531 16.5172 12.6582 16.5188 12.6699C16.5823 13.1562 16.5374 13.6561 16.4021 14.1236C16.3359 14.3523 16.2466 14.5741 16.1377 14.7819C16.0308 14.9862 15.8821 15.1631 15.779 15.368C15.7724 15.3812 15.7864 15.3996 15.7989 15.39C15.9724 15.257 16.0994 15.0225 16.2008 14.8226C16.3103 14.6069 16.396 14.3782 16.459 14.1409C16.5864 13.6606 16.6086 13.1582 16.5351 12.665Z" fill="#ED1919"/>
<path d="M16.8599 15.0857C16.674 15.2984 16.4808 15.4961 16.2773 15.6677C16.4391 15.5108 16.587 15.3353 16.7164 15.1382C17.1451 14.4852 17.3695 13.6905 17.3301 12.8839C17.3296 12.8719 17.3463 12.8722 17.347 12.8839C17.3986 13.6489 17.2378 14.4391 16.8599 15.0857Z" fill="#ED1919"/>
<path d="M7.9655 11.8373C7.8178 11.8592 7.67122 11.8853 7.53004 11.9464C7.30611 12.043 7.10966 12.2268 7.03321 12.4838C7.03049 12.4933 7.01718 12.4893 7.0199 12.4798C7.12161 12.1135 7.41885 11.9212 7.74271 11.834H7.74318C7.78691 11.8338 7.83088 11.8343 7.87443 11.835C7.90485 11.8355 7.93504 11.8362 7.9655 11.8373Z" fill="#ED1919"/>
<path d="M9.3176 12.0233C8.91438 12.0296 8.50774 12.0139 8.25293 12.429C8.25021 12.4335 8.24435 12.4298 8.2466 12.4251C8.36838 12.1541 8.63768 12.0286 8.89563 11.985C8.94841 11.976 9.00161 11.9696 9.05463 11.9648H9.05575C9.06208 11.9658 9.06841 11.9673 9.07469 11.9686C9.15611 11.9857 9.23641 12.0039 9.3176 12.0233Z" fill="#ED1919"/>
<path d="M10.3565 12.3042C10.3285 12.3047 10.3006 12.3059 10.2726 12.308C9.97314 12.3289 9.6813 12.4143 9.41228 12.5607C9.40778 12.5632 9.4037 12.556 9.4082 12.553C9.6326 12.4118 9.90095 12.3032 10.1768 12.2539H10.177C10.2368 12.2705 10.2968 12.2875 10.3565 12.3042Z" fill="#ED1919"/>
<path d="M11.4572 12.5678C11.3898 12.582 11.3239 12.6032 11.2581 12.6423C11.1174 12.7258 11.0211 12.8493 10.9385 12.9975C10.9358 13.0024 10.9282 12.9992 10.93 12.9935C10.987 12.8107 11.1474 12.6318 11.33 12.5449C11.3722 12.5531 11.4146 12.5609 11.4572 12.5678Z" fill="#ED1919"/>
<path d="M12.7648 12.9818C12.7651 12.9913 12.7509 12.9936 12.7497 12.9841C12.7301 12.8255 12.6728 12.6768 12.5781 12.5597C12.5948 12.557 12.6117 12.5538 12.6287 12.5508H12.6289C12.7118 12.6745 12.7599 12.8257 12.7648 12.9818Z" fill="#ED1919"/>
<path d="M13.9861 12.7011C13.9238 12.5166 13.7867 12.3821 13.625 12.3094C13.6275 12.3086 13.63 12.3079 13.6325 12.3071C13.6327 12.3069 13.6327 12.3069 13.6329 12.3069C13.6496 12.3022 13.6661 12.2977 13.6827 12.293C13.8318 12.3779 13.9534 12.5131 14.0028 12.6962C14.0061 12.7081 13.9899 12.7125 13.9861 12.7011Z" fill="#ED1919"/>
<path d="M15.534 12.616C15.5358 12.6282 15.5205 12.6334 15.5173 12.6212C15.4178 12.2594 15.1091 12.0577 14.781 12.0168C14.7641 12.0148 14.7472 12.013 14.7305 12.012C14.7566 12.0058 14.7824 11.9999 14.8085 11.9939C14.8633 11.9817 14.9179 11.97 14.9729 11.959H14.9734C15.2487 12.0526 15.4873 12.291 15.534 12.616Z" fill="#ED1919"/>
<path d="M16.4005 12.1641C16.186 11.9108 15.9009 11.863 15.6094 11.864C15.7242 11.8528 15.8394 11.8448 15.9544 11.8398C16.1283 11.8907 16.2875 11.988 16.412 12.1514C16.4188 12.1601 16.4077 12.1728 16.4005 12.1641Z" fill="#ED1919"/>
<path opacity="0.25" d="M6.99222 11.7656C6.94394 11.7716 6.89594 11.778 6.84766 11.7852C7.32194 11.5437 7.74569 11.1728 8.17961 10.8424C8.74047 10.4152 9.38884 10.0322 10.0666 10.1106C10.5817 10.1704 11.0494 10.4924 11.5649 10.5477C12.5164 10.6498 13.4638 9.83342 14.3738 10.156C14.872 10.3323 15.222 10.8102 15.6033 11.2055C15.8027 11.4122 16.0408 11.6057 16.2941 11.718C16.2251 11.7172 16.1561 11.7175 16.087 11.719C15.8811 11.6037 15.6865 11.4483 15.4951 11.2926C15.2071 11.0582 14.9207 10.8137 14.6006 10.6602C14.2168 10.4759 13.8052 10.4717 13.4034 10.5233C13.1821 10.5517 12.9552 10.5963 12.7268 10.6344C12.4959 10.6727 12.2629 10.7044 12.0329 10.7063C12.0223 10.7066 12.0117 10.7066 12.0013 10.7066C11.9909 10.7066 11.9801 10.7063 11.9697 10.7063C11.7397 10.7044 11.5067 10.6727 11.2758 10.6344C11.0473 10.5963 10.8204 10.5517 10.5992 10.5233C10.1973 10.4717 9.78573 10.476 9.40192 10.6602C9.08191 10.8137 8.7955 11.0582 8.5075 11.2926C8.31602 11.4483 8.12139 11.6037 7.91552 11.719C7.60745 11.7125 7.29892 11.7282 6.99222 11.7656Z" fill="black"/>
<path opacity="0.25" d="M19.0849 12.3633C18.651 12.7341 18.2748 13.218 17.9149 13.7086C17.0636 14.868 16.1349 16.2676 14.8075 16.2955C14.169 16.3089 13.554 16.0425 12.9422 15.8365C12.7674 15.7777 12.5879 15.72 12.4063 15.6739C12.2715 15.6398 12.135 15.6119 11.9986 15.5952C11.8621 15.6119 11.7257 15.6398 11.5908 15.6739C11.4093 15.72 11.2297 15.7777 11.055 15.8365C10.4431 16.0425 9.82812 16.3089 9.18969 16.2955C7.86228 16.2676 6.93359 14.868 6.0822 13.7086C5.87764 13.43 5.66792 13.1533 5.44531 12.8982C5.97191 13.2715 6.4392 13.7477 6.81153 14.3024L7.08219 14.6261C7.8695 15.6355 9.22691 16.0507 10.3748 15.6415C10.9663 15.4305 11.5153 15.0196 12.1365 15.0042C13.1058 14.98 13.9204 15.9217 14.8895 15.9458C15.5631 15.9625 16.1837 15.525 16.6535 14.9918C17.1235 14.4583 17.4864 13.8207 17.9442 13.2746C18.2643 12.8928 18.651 12.5488 19.0849 12.3633Z" fill="black"/>
<path opacity="0.36" d="M5.32967 12.1953C5.32991 12.1953 5.32991 12.1953 5.33014 12.1955C5.32948 12.1958 5.32878 12.1961 5.32812 12.1963C5.32855 12.1961 5.3292 12.1955 5.32967 12.1953Z" fill="white"/>
<path opacity="0.5" d="M16.6302 10.6121C16.2259 10.4475 15.8529 10.1623 15.4857 9.89759C14.9798 9.53323 14.5703 8.98521 13.9745 9.04709C13.1349 9.13427 12.786 9.40821 12.0881 9.45804C11.3943 9.50759 11.1577 9.13845 10.1109 9.10521C9.02095 9.07062 7.66847 10.3256 7.38281 10.5667C8.2282 9.48682 9.26883 8.37935 10.6482 8.64588C11.1482 8.74249 11.6326 8.99979 12.1383 8.95821C12.5611 8.92357 12.9487 8.68301 13.3619 8.57468C14.2774 8.3351 15.1037 8.8038 15.7056 9.56416C15.9971 9.93241 16.3035 10.2866 16.6302 10.6121Z" fill="white"/>
<path opacity="0.5" d="M14.8067 11.9944C13.7461 12.3438 12.7229 12.9035 11.6192 12.9515C10.6053 12.9959 9.6238 12.6038 8.64664 12.302C7.66925 12.0002 6.60636 11.7895 5.65625 12.1832C5.65873 12.1738 5.66145 12.1643 5.66436 12.1553C5.73922 12.1324 5.81412 12.1108 5.88945 12.0903C5.90094 12.0871 5.9127 12.0839 5.92419 12.0809C6.08745 12.0373 6.25166 11.9992 6.4167 11.9668C6.8285 11.8859 7.24503 11.841 7.66138 11.8348C7.73263 11.8335 7.80388 11.8338 7.87494 11.835C8.11827 11.839 8.36141 11.8567 8.60314 11.8881C8.76167 11.9088 8.91908 11.9367 9.07606 11.9693C9.50863 12.0597 9.93622 12.1877 10.3647 12.3075C10.3649 12.3077 10.3649 12.3077 10.3652 12.3077C10.7695 12.4208 11.1746 12.5266 11.585 12.5872C11.5873 12.5917 11.5929 12.5934 11.5965 12.5889C11.73 12.6083 11.8644 12.6228 11.9993 12.6312C12.5525 12.5969 13.0935 12.4586 13.6334 12.3077C13.6336 12.3074 13.6336 12.3074 13.6339 12.3074C14.0239 12.1984 14.4134 12.0824 14.8067 11.9944Z" fill="white"/>
<g opacity="0.5">
<path d="M11.8698 12.5425C11.8152 12.543 11.7678 12.5407 11.7302 12.5352C11.6869 12.529 11.624 12.5176 11.5469 12.5024C11.6587 12.2872 11.7363 12.0461 11.7388 11.7988C11.7399 12.0605 11.785 12.3096 11.8698 12.5425Z" fill="black"/>
<path d="M14.3155 12.0523C14.2341 12.0723 14.1529 12.0932 14.0742 12.1138C14.1439 11.9306 14.1904 11.7365 14.2109 11.5391C14.2147 11.744 14.2485 11.9044 14.3155 12.0523Z" fill="black"/>
<path d="M9.30603 11.9801C9.18514 11.9495 9.05052 11.9161 8.91406 11.884C9.01644 11.7239 9.09223 11.5433 9.13597 11.3535C9.15697 11.5742 9.21627 11.7846 9.30603 11.9801Z" fill="black"/>
</g>
<path opacity="0.25" d="M15.9224 11.7243C15.9059 11.7251 15.8896 11.7258 15.8732 11.7268C15.2932 11.4835 14.7704 11.0507 14.1594 10.9207C13.2061 10.7179 12.2296 11.2873 11.2694 11.1296C10.8695 11.0639 10.485 10.8729 10.0807 10.8816C9.41016 10.896 8.85877 11.4442 8.24086 11.734C8.18536 11.7301 8.12967 11.7268 8.07422 11.7243C8.48512 11.4698 8.85656 11.0875 9.27197 10.8417C10.073 10.3675 10.916 10.7436 11.7468 10.8039C11.8312 10.8101 11.9151 10.8128 11.9983 10.8108C12.0815 10.8129 12.1654 10.8101 12.2497 10.8039C13.0805 10.7436 13.9235 10.3675 14.7246 10.8417C15.14 11.0875 15.5115 11.4699 15.9224 11.7243Z" fill="black"/>
<path d="M16.0864 11.7182C15.8804 11.6029 15.6858 11.4475 15.4944 11.2918C15.2064 11.0574 14.92 10.8129 14.6 10.6595C14.2161 10.4752 13.8045 10.4709 13.4027 10.5225C13.1814 10.5509 12.9545 10.5955 12.7261 10.6336C12.4952 10.6719 12.2622 10.7036 12.0322 10.7056C12.0216 10.7058 12.011 10.7058 12.0006 10.7058C11.9902 10.7058 11.9794 10.7056 11.969 10.7056C11.739 10.7036 11.506 10.6719 11.2751 10.6336C11.0466 10.5955 10.8197 10.5509 10.5985 10.5225C10.1967 10.4709 9.78504 10.4752 9.40123 10.6595C9.08122 10.8129 8.79481 11.0574 8.50681 11.2918C8.31533 11.4475 8.1207 11.6029 7.91483 11.7182C7.60676 11.7117 7.29828 11.7274 6.99153 11.7648C6.35534 11.8425 5.72501 12.0347 5.12693 12.3179C5.11681 12.3226 5.12084 12.3428 5.13143 12.3388C5.94893 12.024 6.80572 11.8472 7.66268 11.8343C7.73393 11.833 7.80519 11.8333 7.87625 11.8345C8.11958 11.8385 8.36272 11.8561 8.60445 11.8876C8.76298 11.9082 8.92039 11.9361 9.07737 11.9687C9.50993 12.0592 9.93753 12.1872 10.366 12.3069C10.3662 12.3072 10.3662 12.3072 10.3665 12.3072C10.7708 12.4202 11.1759 12.5261 11.5863 12.5866C11.5886 12.5911 11.5942 12.5928 11.5978 12.5883C11.7313 12.6077 11.8657 12.6222 12.0006 12.6307C12.5538 12.5963 13.0948 12.4581 13.6347 12.3071C13.6349 12.3069 13.6349 12.3069 13.6352 12.3069C14.219 12.1435 14.8016 11.9652 15.3967 11.8875C15.6385 11.8561 15.8816 11.8384 16.1249 11.8344C16.196 11.8332 16.2672 11.8329 16.3387 11.8342C17.1957 11.8471 18.0522 12.024 18.8697 12.3388C18.8803 12.3428 18.8844 12.3226 18.8742 12.3179C18.2762 12.0347 17.6458 11.8424 17.0097 11.7647C16.7029 11.7274 16.3947 11.7117 16.0864 11.7182ZM9.12631 11.8589C9.14028 11.8213 9.15134 11.7819 9.15968 11.7416C9.16915 11.79 9.18448 11.8363 9.20679 11.8766C9.17998 11.8706 9.15317 11.8647 9.12631 11.8589ZM11.6515 12.4773C11.6943 12.3702 11.7223 12.2475 11.7376 12.123C11.7537 12.254 11.7866 12.3819 11.84 12.5003C11.7771 12.4937 11.7142 12.4861 11.6515 12.4773ZM14.1313 12.0445C14.1645 11.9633 14.1902 11.8794 14.2076 11.7932C14.2085 11.8042 14.2096 11.8151 14.2112 11.8261C14.219 11.8826 14.2351 11.9611 14.2741 12.0054C14.2265 12.0183 14.1789 12.0313 14.1313 12.0445ZM15.2871 11.7847C14.9549 11.8333 14.627 11.911 14.3002 11.9984C14.2874 11.9414 14.2529 11.8899 14.24 11.8311C14.2227 11.7509 14.2242 11.6697 14.2377 11.5892C14.2382 11.5862 14.2346 11.585 14.2335 11.588C14.2346 11.5713 14.2351 11.5546 14.2353 11.5379C14.2353 11.5336 14.229 11.5324 14.2285 11.5369C14.2057 11.7182 14.1629 11.8886 14.0937 12.0547C13.9144 12.1048 13.7353 12.1563 13.556 12.2064C13.0431 12.3494 12.5256 12.4786 12.0008 12.5142C11.9611 12.5115 11.9216 12.5083 11.8821 12.5045C11.792 12.2901 11.7432 12.0772 11.7552 11.8368C11.7554 11.8326 11.7543 11.8294 11.7522 11.8271C11.7511 11.7831 11.7486 11.7402 11.7447 11.6999C11.7443 11.6946 11.7378 11.6946 11.7373 11.6999C11.724 11.8565 11.7132 12.0119 11.6843 12.1663C11.6652 12.2694 11.6329 12.3695 11.6081 12.4711C11.2171 12.4131 10.8296 12.3135 10.4451 12.2064C10.0461 12.0951 9.64854 11.9763 9.24668 11.8856C9.22503 11.8381 9.20136 11.7925 9.18739 11.7394C9.18106 11.7155 9.17609 11.6914 9.17229 11.667C9.18312 11.5858 9.18378 11.5031 9.1759 11.4259C9.17501 11.4174 9.16395 11.4172 9.16372 11.4259C9.16348 11.4508 9.16259 11.475 9.161 11.4989C9.15964 11.4971 9.15692 11.4974 9.1565 11.4999C9.14998 11.5385 9.14656 11.5813 9.14745 11.6249C9.13573 11.7018 9.11769 11.7758 9.09537 11.8525C8.96886 11.8263 8.84168 11.8034 8.714 11.7848C8.50203 11.7539 8.28936 11.7335 8.07645 11.7237C8.48736 11.4692 8.85879 11.0869 9.2742 10.8411C10.0752 10.3669 10.9182 10.743 11.7491 10.8032C11.8334 10.8095 11.9173 10.8122 12.0005 10.8102C12.0837 10.8122 12.1676 10.8095 12.2519 10.8032C13.0827 10.743 13.9257 10.3669 14.7268 10.8411C15.1422 11.0869 15.5136 11.4692 15.9245 11.7237C15.7115 11.7334 15.4989 11.7538 15.2871 11.7847Z" fill="#AD1313"/>
<path d="M19.1735 12.2923C19.171 12.2906 19.1688 12.2888 19.1663 12.2868C18.6553 11.9046 18.1618 11.4702 17.7013 11.0035C17.204 10.4992 16.7555 9.93905 16.3254 9.34584C15.9032 8.76356 15.4521 8.17683 14.8764 7.83984C14.613 7.68567 14.3277 7.58433 14.0359 7.57659C13.7166 7.56834 13.4067 7.68244 13.1095 7.81992C12.7635 7.97981 12.3813 8.19572 12.0008 8.25652C11.6201 8.19577 11.2381 7.97981 10.8921 7.81992C10.5951 7.68244 10.285 7.56839 9.9657 7.57659C9.67386 7.58433 9.38858 7.68567 9.12519 7.83984C8.54942 8.17683 8.09839 8.76356 7.67642 9.34584C7.24611 9.93909 6.79756 10.4992 6.30027 11.0035C5.83977 11.4702 5.34631 11.9046 4.83528 12.2868C4.8328 12.2888 4.83055 12.2906 4.82806 12.2923C4.81883 12.2993 4.80978 12.306 4.80078 12.3125C4.80734 12.3182 4.81386 12.3237 4.82019 12.3297C5.75811 13.1593 6.4047 14.4488 7.27817 15.3887C7.74364 15.8893 8.28195 16.2898 8.88547 16.3946C9.51059 16.5035 10.1326 16.2953 10.7323 16.0826C11.0795 15.9591 11.4264 15.8275 11.7818 15.7499C11.8551 15.7339 11.928 15.7202 12.0008 15.709C12.0737 15.7202 12.1465 15.7339 12.2198 15.7499C12.5752 15.8276 12.9221 15.9591 13.2694 16.0826C13.8691 16.2953 14.4911 16.5035 15.1162 16.3946C15.7197 16.2898 16.2582 15.8893 16.7235 15.3887C17.597 14.4488 18.2435 13.1593 19.1814 12.3297C19.1878 12.3237 19.1943 12.3182 19.2008 12.3125C19.1918 12.306 19.1827 12.2993 19.1735 12.2923ZM17.9171 13.7094C17.0658 14.8687 16.1371 16.2683 14.8097 16.2962C14.1712 16.3097 13.5562 16.0432 12.9444 15.8372C12.7696 15.7785 12.5901 15.7207 12.4085 15.6746C12.2737 15.6405 12.1372 15.6126 12.0008 15.5959C11.8643 15.6126 11.7279 15.6405 11.593 15.6746C11.4115 15.7207 11.2319 15.7785 11.0572 15.8372C10.4453 16.0432 9.83033 16.3097 9.19189 16.2962C7.86448 16.2683 6.9358 14.8687 6.08441 13.7094C5.70645 13.1944 5.31087 12.6868 4.8492 12.3095C5.28805 12.0089 5.70664 11.6749 6.10831 11.2921C6.61123 10.8125 7.07173 10.2778 7.51287 9.71067C7.96686 9.12689 8.39108 8.48559 8.96277 8.07619C9.2397 7.87772 9.54687 7.73452 9.86642 7.70311C10.1945 7.67072 10.5103 7.77609 10.8163 7.91531C10.9595 7.98033 11.1082 8.0528 11.2599 8.1188C11.2671 8.12203 11.2741 8.12503 11.2813 8.12803C11.3964 8.17786 11.5132 8.22366 11.6305 8.26003H11.6307C11.7538 8.29814 11.8776 8.3258 12.0008 8.33625C12.1239 8.3258 12.2477 8.29814 12.3709 8.26003H12.3711C12.4884 8.22366 12.6052 8.17786 12.7202 8.12803C12.7274 8.12503 12.7344 8.12203 12.7416 8.1188C12.8934 8.0528 13.042 7.98033 13.1853 7.91531C13.4913 7.77609 13.807 7.67077 14.1351 7.70311C14.4547 7.73447 14.7619 7.87772 15.0388 8.07619C15.6105 8.48564 16.0347 9.12694 16.4887 9.71067C16.9298 10.2778 17.3903 10.8125 17.8932 11.2921C18.2949 11.6749 18.7135 12.0089 19.1523 12.3095C18.6906 12.6868 18.2951 13.1944 17.9171 13.7094Z" fill="#AD1313"/>
</svg>
