<svg width="32" height="32" viewBox="0 0 32 32" fill="none" xmlns="http://www.w3.org/2000/svg">
<path fill-rule="evenodd" clip-rule="evenodd" d="M21.5597 15.6621L19.8876 17.847C19.986 19.1186 19.6979 20.0882 19.0938 20.7977C19.8034 21.4721 20.6604 21.6197 21.5597 21.6197C22.466 21.6197 23.3231 21.4721 24.0326 20.7977C23.4285 20.0881 23.1404 19.1186 23.2388 17.847L21.5597 15.6621Z" fill="#FFD9A8"/>
<path fill-rule="evenodd" clip-rule="evenodd" d="M21.5572 15.6621L19.8851 17.847C19.9203 18.3247 19.9062 18.7673 19.8359 19.1608C20.2434 19.6877 20.8054 20.067 21.5572 20.2216C22.316 20.067 22.878 19.6877 23.2854 19.1608C23.2152 18.7673 23.2012 18.3247 23.2363 17.847L21.5572 15.6621Z" fill="#E8C498"/>
<path fill-rule="evenodd" clip-rule="evenodd" d="M21.56 24.2694H27.2577C27.2857 23.4545 27.0609 22.7449 26.4357 22.1759C25.41 21.9019 24.588 21.4593 24.033 20.7988C23.3234 21.4733 22.4664 21.6208 21.5601 21.6208C20.6608 21.6208 19.8037 21.4733 19.0941 20.7988C18.5391 21.4593 17.7172 21.9018 16.6914 22.1759C16.0662 22.745 15.8414 23.4545 15.8695 24.2694H21.56Z" fill="#40494C"/>
<path fill-rule="evenodd" clip-rule="evenodd" d="M18.6133 21.2696C18.7888 21.1291 18.9505 20.9675 19.091 20.7988C20.2572 21.9088 22.8636 21.9088 24.0298 20.7988C24.1704 20.9675 24.332 21.1291 24.5076 21.2696C22.969 22.5903 20.1518 22.5903 18.6133 21.2696Z" fill="#2B3134"/>
<path fill-rule="evenodd" clip-rule="evenodd" d="M21.5578 12.3823C22.7311 12.3261 23.6163 12.7124 24.08 13.7522C24.4663 15.9652 24.1853 19.2742 21.5578 19.8081C18.9374 19.2743 18.6563 15.9653 19.0428 13.7522C19.5064 12.7124 20.3916 12.326 21.5578 12.3823Z" fill="#FFD9A8"/>
<path fill-rule="evenodd" clip-rule="evenodd" d="M21.5582 12.1638C22.7314 12.1076 23.6167 12.7118 24.0803 13.7515C24.2419 14.6578 24.284 15.7608 24.1014 16.7724C23.8555 16.0488 23.6869 15.3041 23.6869 14.5103C23.3286 14.4189 22.9914 14.2433 22.6893 13.9904C22.359 14.2363 21.9937 14.4049 21.5582 14.4189C21.1296 14.4049 20.7643 14.2363 20.4341 13.9904C20.132 14.2433 19.7948 14.4189 19.4295 14.5103C19.4365 15.3041 19.2679 16.0488 19.022 16.7724C18.8393 15.7608 18.8815 14.6578 19.0431 13.7515C19.5067 12.7118 20.3919 12.1076 21.5582 12.1638Z" fill="#4E4C42"/>
<path fill-rule="evenodd" clip-rule="evenodd" d="M13.4503 23.5521C13.8156 21.6763 13.1833 20.2221 12.1084 18.9434C12.9725 18.2128 13.1272 17.2433 12.7337 16.0911C13.6119 15.3184 13.4151 13.4144 12.4387 12.9578C12.0873 11.5948 10.9282 11.2857 9.80409 11.3279H9.79709C8.67303 11.2857 7.51384 11.5948 7.16253 12.9578C6.18597 13.4144 5.98928 15.3184 6.86753 16.0911C6.47409 17.2433 6.62866 18.2128 7.49278 18.9434C6.41784 20.2221 5.78559 21.6763 6.15091 23.5521H13.4503Z" fill="#FCC900"/>
<path fill-rule="evenodd" clip-rule="evenodd" d="M9.80548 17.9746H9.79848C9.34179 17.9535 8.88517 17.9254 8.42854 17.9043C8.47773 19.9417 7.99998 21.6137 5.87123 22.1687C5.09848 22.513 4.66292 23.1382 4.75417 24.1991H9.79842H9.80542H14.8497C14.941 23.1383 14.4984 22.513 13.7326 22.1687C11.6039 21.6137 11.1261 19.9417 11.1753 17.9043C10.7188 17.9254 10.2621 17.9535 9.80548 17.9746Z" fill="#FFD9A8"/>
<path fill-rule="evenodd" clip-rule="evenodd" d="M9.80513 17.9746H9.79813C9.34144 17.9535 8.88481 17.9254 8.42819 17.9043C8.43519 18.1994 8.42819 18.4804 8.41406 18.7614C8.75831 19.19 9.22206 19.4499 9.79813 19.5553H9.80513C10.3812 19.4499 10.8449 19.19 11.1891 18.7614C11.1751 18.4804 11.1681 18.1994 11.1751 17.9043C10.7184 17.9254 10.2618 17.9535 9.80513 17.9746Z" fill="#E8C498"/>
<path fill-rule="evenodd" clip-rule="evenodd" d="M9.80548 23.1032H9.79848L8.40742 22.801L7.01642 21.6699C6.70029 21.8807 6.32092 22.0494 5.87123 22.1687C5.09848 22.513 4.66292 23.1382 4.75417 24.1991H14.8497C14.941 23.1383 14.4984 22.513 13.7327 22.1687C13.283 22.0494 12.9036 21.8807 12.5875 21.6699L11.1965 22.801L9.80548 23.1032Z" fill="#81D8DF"/>
<path fill-rule="evenodd" clip-rule="evenodd" d="M7.81828 20.6152C8.10628 21.6199 8.80884 22.4279 9.79947 23.1023C9.42009 23.4184 9.03372 23.7345 8.64728 24.0507C7.64966 23.6854 6.86284 22.9407 6.30078 22.0274C6.60291 21.2616 7.12278 20.8822 7.81828 20.6152Z" fill="#63B0B8"/>
<path fill-rule="evenodd" clip-rule="evenodd" d="M11.7851 20.6152C11.49 21.6199 10.7874 22.4279 9.79688 23.1023C10.1833 23.4184 10.5696 23.7345 10.9561 24.0507C11.9537 23.6854 12.7405 22.9407 13.2956 22.0274C13.0005 21.2616 12.4736 20.8822 11.7851 20.6152Z" fill="#63B0B8"/>
<path fill-rule="evenodd" clip-rule="evenodd" d="M9.80602 18.964H9.79902C8.1902 18.697 7.38227 17.3974 7.4947 14.9244C8.6047 14.5802 9.30727 13.8144 9.79902 12.8027H9.80602C10.2978 13.8144 11.0003 14.5802 12.1103 14.9244C12.2228 17.3974 11.4148 18.697 9.80602 18.964Z" fill="#FFD9A8"/>
</svg>
