<svg id="Layer_1" enable-background="new 0 0 500 500" viewBox="0 0 500 500" xmlns="http://www.w3.org/2000/svg"><g><g><g fill="#8a8dbd"><path d="m454.934 237.449.034-12.136-.034 12.141z"/><path d="m459.643 225.139c-.002-.015 0-.029-.002-.044v.024c0 .01.002.015.002.02z"/><path d="m258.176 110.098c.11 0 .222.014.332.014-.11-.004-.221-.014-.332-.014l-.137 48.561z"/><path d="m372.368 136.221c-6.871-2.977-14.151-5.604-21.608-8.019v.005c7.457 2.414 14.737 5.037 21.608 8.014z"/><path d="m277.52 111.048c-6.262-.499-12.525-.839-18.785-.926v.005c6.26.082 12.523.422 18.785.921z"/><path d="m441.327 181.689c2.671 3.442 5.092 6.879 7.259 10.467-2.167-3.588-4.588-7.025-7.259-10.467l-.137 48.56z"/><path d="m45.47 215.331h.002l.031-11.311z"/><path d="m25.23 232.523c.1 5.76.778 11.51 2.209 17.245-1.431-5.735-2.109-11.49-2.209-17.245z"/><path d="m40.76 278.897c-1.686-2.487-2.76-5.11-4.192-7.651 1.432 2.546 2.507 5.165 4.192 7.651z"/><path d="m312.631 356.801c-9.96 1.638-20.125 2.879-30.421 3.723l-.137 48.566.137-48.566c10.295-.844 20.461-2.085 30.421-3.723z"/><path d="m452.253 282.122h.002c2.008-2.735 3.67-5.551 5.349-8.374-1.68 2.823-3.343 5.644-5.351 8.374z"/><path d="m77.66 314.848c-2.248-1.537-4.219-3.19-6.331-4.785v.005c2.111 1.595 4.082 3.243 6.331 4.78z"/><path d="m126.627 336.661c-2.285-.892-4.529-1.969-6.805-2.948 2.276.979 4.52 2.056 6.805 2.948z"/><path d="m116.686 332.355c-2.091-.93-4.215-1.755-6.276-2.72l-.137 48.566.137-48.566c2.061.965 4.185 1.79 6.276 2.72z"/><path d="m442.651 299.343c-5.374 5.144-11.348 10.085-17.894 14.768l-.138 48.566.138-48.561c6.546-4.688 12.52-9.629 17.894-14.773z"/><path d="m80.162 164.632c3.522-3.073 7.36-6.036 11.468-8.901-4.108 2.865-7.946 5.827-11.468 8.901l-.136 48.566z"/><path d="m258.752 104.324.008-3.088-.235 3.073c.076.005.151.01.227.015z"/><path d="m258.735 110.127v-.005c-.076 0-.151-.01-.227-.01.077 0 .151.01.227.015z"/><path d="m196.979 104.678-.009 3.287c.435-.058.854-.155 1.289-.213z"/><path d="m277.508 111.111-.596 2.585-.199 45.875c-6.156-.397-12.511-.795-18.667-.994l.198-48.459h.199.198c6.356-.001 12.711.397 18.867.993z"/><path d="m258.244 110.117-.198 48.459-.199 2.778v-48.652z"/><path d="m339.313 115.344.01-3.346-2.006 2.784c.679.165 1.32.387 1.996.562z"/><path d="m201.647 115.877v48.658l-1.191-2.584.197-48.653z"/><path d="m257.847 112.702v48.652c-19.064-.596-37.93.596-56.2 3.181v-48.658c18.469-2.579 37.335-3.573 56.2-3.175z"/><path d="m200.653 113.298-.198 48.653c-5.76.597-11.32 1.591-17.08 2.778l.199-45.87-1.787-2.385c6.357-1.392 12.512-2.381 18.866-3.176z"/><path d="m331.324 122.432v48.653c-17.475-4.368-35.746-7.345-54.611-8.737v-2.778l.199-45.875c18.866 1.387 37.135 4.369 54.412 8.737z"/><path d="m333.509 120.046-.198 48.46-1.987 2.579v-48.653z"/><path d="m350.787 124.817-2.185 2.58-.198 45.477c-4.965-1.59-10.127-2.977-15.092-4.368l.198-48.459c5.759 1.392 11.517 2.981 17.277 4.77z"/><path d="m121.641 124.226-.011 3.714c.991-.417 1.948-.887 2.933-1.299z"/><path d="m183.575 118.859-.199 45.87v2.783c-17.872 3.574-34.951 8.339-50.64 14.696l.199-48.454c15.689-6.357 32.767-11.322 50.64-14.895z"/><path d="m132.936 133.753-.2 48.454-2.581-2.187.199-48.652z"/><path d="m130.354 131.368-.198 48.652c-4.17 1.591-8.341 3.38-12.313 5.363v-45.08l-2.978-2.181c4.964-2.386 10.325-4.568 15.489-6.754z"/><path d="m407.958 143.086.012-4.296-3.653 2.124c1.369.756 2.433 1.45 3.641 2.172z"/><path d="m398.249 145.466-.2 48.459-4.368 1.586.199-48.454z"/><path d="m393.88 147.057-.199 48.454c-13.304-7.743-28.795-14.298-45.278-19.66v-2.977l.198-45.477c.597.199 1.391.596 2.185.795 7.348 2.381 14.696 4.965 21.645 7.942 7.547 3.374 14.696 6.952 21.449 10.923z"/><path d="m410.363 153.214-3.575 1.789-.198 44.479c-2.78-1.784-5.362-3.772-8.54-5.556l.199-48.459c4.369 2.385 8.341 5.163 12.114 7.747z"/><path d="m63.698 158.188-.016 5.639c1.419-1.314 2.696-2.672 4.195-3.952z"/><path d="m80.111 164.535v48.653l-4.17-1.59.199-48.653z"/><path d="m117.842 140.303v48.658c-4.567 2.181-8.937 4.567-13.305 6.947-9.135 5.362-17.475 11.122-24.426 17.28v-48.652c3.574-2.982 7.348-5.959 11.517-8.742 4.171-2.977 8.539-5.755 13.108-8.339 4.17-2.585 8.738-4.965 13.106-7.152z"/><path d="m76.14 162.945-.198 48.653c-2.185 1.789-3.973 3.772-5.759 5.561v-43.296l-4.171-1.187c3.176-3.38 6.355-6.556 10.128-9.731z"/><path d="m455.059 186.246.023-8.145-4.671 1.246c1.76 2.302 3.154 4.601 4.648 6.899z"/><path d="m441.343 181.611-.199 48.653-4.17.994.198-48.454z"/><path d="m437.172 182.804-.198 48.454c-7.745-9.93-18.071-19.263-30.384-27.607v-4.169l.198-44.479c12.312 8.538 22.44 17.871 30.384 27.801z"/><path d="m448.492 192.137-4.369.994-.199 41.104c-.992-1.386-1.786-2.778-2.78-3.97l.199-48.653c2.58 3.572 5.162 6.952 7.149 10.525z"/><path d="m35.891 202.702-5.059-.732-.035 12.164 1.621.131c.864-3.879 1.98-7.763 3.473-11.563z"/><path d="m70.182 173.863v48.658c-9.135 9.731-15.888 19.858-20.257 30.583l.199-48.454c4.369-10.725 11.121-21.051 20.058-30.787z"/><path d="m50.125 204.65-.199 48.454-2.78-.199v-4.766c-.198-.994-.198-1.987-.398-2.981v-29.788h-1.191v-11.321z"/><path d="m42.153 215.074 3.318.257.033-11.311c-1.371 3.583-2.488 7.316-3.351 11.054z"/><path d="m469.689 236.591c.094-1.566.146-3.133.149-4.694l-.013 4.698 4.948.136.033-12.078-5.306.151c.399 3.88.423 7.831.189 11.787z"/><path d="m459.641 225.096c0 .009-.001.019 0 .024z"/><path d="m455.156 236.222 4.453.073.032-11.199-4.673.217-.034 12.136c.033-.412.195-.814.222-1.227z"/><path d="m457.603 273.748c.523-.877 1.16-1.721 1.666-2.608-.505.887-1.143 1.732-1.666 2.608z"/><path d="m455.046 225.299-.199 12.116c-.397 6.351-1.986 12.509-4.17 18.666-1.788-4.766-3.973-9.731-6.753-14.497v-7.35l.199-41.104c5.957 10.327 9.729 21.052 10.923 32.169z"/><path d="m459.831 236.3c.107-3.723.208-7.437-.187-11.161 0-.005-.002-.01-.002-.019-.001-.005 0-.015-.001-.024l-.032 11.199z"/><path d="m46.747 245.129.084-29.691c-2.236 9.828-2.18 19.83-.084 29.691z"/><path d="m469.689 236.591.136.004.013-4.698c-.004 1.562-.056 3.128-.149 4.694z"/><path d="m47.145 248.139v11.316l-.992.198c-1.589-3.772-2.582-7.345-3.574-11.116z"/><path d="m25.23 232.523c-.006-.33-.057-.654-.058-.984-.002-.184-.034-.369-.034-.558l-.138 48.567c-.018 6.274.742 12.537 2.299 18.782l.139-48.561c-1.43-5.736-2.108-11.486-2.208-17.246z"/><path d="m32.699 264.187c-.399-.868-1.033-1.687-1.402-2.56l1.411-.194.033-12.101-5.302.436-.139 48.562 3.893-.32.104-36.382c.369.873 1.003 1.692 1.402 2.559z"/><path d="m36.569 271.247c-1.321-2.346-2.768-4.664-3.87-7.059 1.102 2.395 2.548 4.713 3.87 7.059z"/><path d="m32.707 261.434 3.891-.538c-1.538-3.806-2.948-7.685-3.857-11.563z"/><path d="m449.683 269.385c-1.191 2.385-2.78 4.568-4.369 6.953v-7.748z"/><path d="m459.269 271.14-.138 48.566 4.933.955.138-48.566z"/><path d="m464.202 272.095-.138 48.566c6.381-11.496 10.106-23.355 10.798-35.359l.138-48.566c-.692 12.005-4.417 23.864-10.798 35.359z"/><path d="m459.269 271.14c-.505.887-1.143 1.731-1.666 2.608-1.679 2.822-3.341 5.638-5.349 8.374l4.683 1.246-.114 39.95c.737-1.212 1.608-2.385 2.308-3.612z"/><path d="m71.374 289.642v4.965c-.596-.592-1.391-1.193-1.986-1.785-.794-.597-1.391-1.192-1.985-1.988l1.985-.596z"/><path d="m71.328 310.068v-.005c-.633-.475-1.279-.951-1.899-1.431.62.48 1.266.956 1.899 1.436z"/><path d="m54.107 295.227-.138 48.566 4.667-1.537.138-48.566z"/><path d="m40.76 278.897c-1.686-2.487-2.76-5.105-4.192-7.651-1.321-2.346-2.768-4.664-3.87-7.059-.399-.868-1.033-1.687-1.402-2.56l-.104 36.382-.035 12.179c4.995 11.792 12.639 23.064 22.812 33.604l.138-48.566c-5.085-5.269-9.54-10.723-13.347-16.329z"/><path d="m69.429 308.632c-1.395-1.09-2.949-2.118-4.272-3.229l4.287-1.755c-3.937-3.297-7.492-6.516-10.67-9.959l-.138 48.566c1.907 2.065 4.22 4.004 6.4 5.973l.121-42.826c1.324 1.117 2.877 2.14 4.272 3.23z"/><path d="m413.143 308.511c-1.191.791-2.582 1.586-3.773 2.381v-4.17z"/><path d="m442.651 299.343c-5.374 5.144-11.348 10.085-17.894 14.773l-.138 48.561c13.089-9.368 23.902-19.767 32.18-30.749l.024-8.611.114-39.95c-4.137 5.489-8.911 10.837-14.286 15.976z"/><path d="m420.954 312.211-.136 48.565 3.802 1.901.138-48.566z"/><path d="m406.978 321.214 3.047 2.342-.125 44.251c3.694-2.313 7.376-4.63 10.916-7.03l.138-48.566c-4.533 3.074-9.189 6.074-13.976 9.003z"/><path d="m119.822 333.713c-1.05-.451-2.092-.892-3.136-1.358 1.044.466 2.086.907 3.136 1.358z"/><path d="m119.829 323.008v3.573c-.994-.397-2.186-.795-3.179-1.391z"/><path d="m110.495 329.558-.199 48.653-3.177 2.187.199-48.455z"/><path d="m107.318 331.943-.199 48.454c-1.191-.597-2.184-1.193-3.375-1.591-4.171-2.181-8.342-4.368-12.115-6.55-8.141-4.771-15.489-9.533-22.241-14.701-1.391-1.187-2.979-2.38-4.368-3.573v-5.755l.198-42.898c1.191 1.193 2.779 2.187 4.17 3.374.596.397 1.39.796 1.986 1.391 1.986 1.591 3.971 3.176 6.355 4.766 4.368 2.977 9.134 5.959 13.9 8.737 3.973 2.385 7.944 4.568 12.115 6.555 1.191.598 2.383 1.195 3.574 1.791z"/><path d="m126.581 336.709-2.781 2.38v44.881c-4.567-1.784-9.134-3.772-13.504-5.76l.199-48.652c1.986.994 4.17 1.789 6.156 2.783.993.392 2.185.994 3.179 1.391 2.183.989 4.566 1.983 6.751 2.977z"/><path d="m352.772 337.698c-.597.203-1.391.397-2.184.601l.198-2.981z"/><path d="m360.355 345.368-2.542-2.633-.138 48.567 2.542 2.632.136-48.566z"/><path d="m410.025 323.556c-7.432 4.32-15.34 8.291-23.645 11.922-8.305 3.636-17.007 6.928-26.025 9.891h-.002l-.136 48.565c18.035-5.93 34.806-13.173 49.671-21.813l.013-4.315z"/><path d="m185.759 344.253v2.783c-.396-.198-.992-.198-1.389-.198z"/><path d="m339.768 347.933 2.038 2.783-.127 45.192c5.367-1.455 10.736-2.987 15.994-4.606l.139-48.566c-5.932 1.832-11.989 3.587-18.044 5.197z"/><path d="m280.089 351.802h-.794v-2.584z"/><path d="m179.604 355.176-.198 48.454c-1.787-.392-3.575-.596-5.163-1.187-11.915-2.386-23.235-5.363-34.158-8.941-5.56-1.784-11.121-3.772-16.285-5.759v-48.653c5.164 2.186 10.725 4.174 16.285 5.958 10.922 3.578 22.242 6.555 34.158 8.936 1.785.397 3.573.795 5.361 1.192z"/><path d="m179.558 355.108-.137 48.567 1.626-2.856.137-48.566z"/><path d="m200.793 355.4c-6.576-.878-13.156-1.901-19.609-3.147l-.137 48.566c6.087 1.173 12.293 2.124 18.495 2.967l.128-45.385z"/><path d="m261.219 358.623.27 3.074-.128 45.472c6.607-.218 13.21-.576 19.934-1.154l.138-48.565c-6.82.587-13.515.951-20.214 1.173z"/><path d="m281.432 357.45-.138 48.566.779 3.074.137-48.566z"/><path d="m312.631 356.801c-9.96 1.638-20.125 2.879-30.421 3.723l-.137 48.566c20.589-1.683 40.664-4.979 59.596-9.808l.01-3.374.127-45.192c-9.464 2.414-19.217 4.446-29.175 6.085z"/><path d="m442.651 299.343c5.375-5.139 10.148-10.487 14.286-15.975l-4.683-1.246h-.002c2.009-2.73 3.671-5.551 5.351-8.374.523-.877 1.16-1.721 1.666-2.608l4.933.955c6.381-11.495 10.106-23.354 10.798-35.359l-.228-.004-4.948-.136-.136-.004c.234-3.957.21-7.908-.189-11.787l5.306-.151c-1.206-12.072-5.19-24.008-11.953-35.354l-5.049 1.023c-.806-1.381-1.864-2.72-2.745-4.077-1.493-2.298-2.888-4.597-4.649-6.899l4.671-1.246c-8.405-10.982-19.581-21.231-33.031-30.453l-4.034 1.905c-3.063-2.104-6.341-4.242-10.058-6.468-1.208-.722-2.272-1.416-3.641-2.172l3.653-2.124c-14.957-8.494-31.807-15.738-49.913-21.522l-2.511 2.633c-5.3-1.755-10.735-3.176-16.233-4.558-.676-.175-1.317-.397-1.996-.562l2.006-2.784c-18.984-4.829-39.095-8.125-59.83-9.735l-.741 3.074c-6.627-.505-13.256-.864-20-1.013-.076-.005-.151-.01-.227-.015l.235-3.073c-20.855-.515-41.574.659-61.781 3.442l1.28 3.073c-.435.059-.854.156-1.289.213-6.129.839-12.26 1.78-18.152 3.011l-1.788-2.928c-19.694 3.806-38.242 9.294-55.389 16.178l2.922 2.415c-.985.412-1.942.883-2.933 1.299-4.461 1.886-8.976 3.777-13.206 5.876l-3.297-2.346c-5.041 2.492-9.83 5.124-14.491 7.835-9.953 5.784-19.142 12.15-26.939 18.883l4.179 1.688c-1.499 1.28-2.776 2.637-4.195 3.952-2.153 1.997-4.395 3.975-6.365 6.002l-4.43-1.386c-10.053 10.54-17.57 21.813-22.055 33.527l5.059.732c-1.493 3.8-2.609 7.684-3.472 11.563l-1.621-.131-3.691-.305c-1.334 5.905-1.961 11.815-1.934 17.711.001.33.052.654.058.984.1 5.755.778 11.51 2.209 17.245l5.302-.436c.91 3.878 2.319 7.757 3.857 11.563l-3.891.538-1.411.194c.369.873 1.003 1.692 1.402 2.56 1.102 2.396 2.549 4.713 3.87 7.059 1.432 2.541 2.506 5.164 4.192 7.651 3.807 5.605 8.262 11.06 13.347 16.329l4.666-1.537c3.179 3.443 6.734 6.662 10.67 9.959l-4.287 1.755c1.324 1.11 2.878 2.139 4.272 3.229.62.48 1.266.956 1.899 1.431 2.112 1.595 4.083 3.248 6.331 4.785 4.439 3.04 9.133 5.963 14.015 8.785 4.944 2.856 10.143 5.706 15.589 8.271l3.147-2.269c2.061.965 4.185 1.79 6.276 2.72 1.044.466 2.086.907 3.136 1.358 2.276.979 4.52 2.056 6.805 2.948l-2.765 2.492c17.099 6.807 35.961 12.15 55.697 15.956l1.626-2.856c6.453 1.246 13.033 2.269 19.609 3.147l-1.123 3.001c20.111 2.71 40.971 3.805 61.819 3.297l-.27-3.074c6.699-.222 13.395-.586 20.214-1.173l.777 3.074c10.296-.844 20.461-2.085 30.421-3.723 9.958-1.639 19.711-3.671 29.176-6.085l-2.038-2.783c6.055-1.61 12.112-3.364 18.044-5.198l2.543 2.633c9.018-2.963 17.72-6.254 26.025-9.891 8.305-3.631 16.214-7.602 23.645-11.922l-3.047-2.342c4.787-2.928 9.443-5.929 13.976-9.003l3.804 1.9c6.545-4.682 12.519-9.623 17.893-14.767zm-29.551 9.207c-1.127.814-2.496 1.57-3.69 2.385-3.208 2.172-6.423 4.373-9.913 6.4l-3.799-1.906c-13.48 7.835-28.607 14.569-45.009 19.84l2.165 2.414c-.704.243-1.463.398-2.174.631-4.901 1.6-9.917 3.069-14.989 4.349l-2.036-2.487c-17.286 4.465-35.598 7.467-54.417 9.003l.773 2.638c-.262.019-.519.019-.781.039-6.18.48-12.36.843-18.424.984l-.393-2.71c-18.952.587-37.916-.436-56.384-2.928l-.996 2.637c-5.817-.809-11.52-1.725-17.224-2.831-.495-.096-1.001-.145-1.496-.242l1.503-2.493c-18.093-3.588-35.181-8.489-50.888-14.637l-2.64 2.265c-4.249-1.634-8.358-3.471-12.447-5.319-1.031-.461-2.117-.868-3.136-1.338l3.145-2.269c-4.988-2.376-9.856-4.926-14.533-7.626-8.744-5.047-16.819-10.618-23.771-16.533l-4.034 1.61c-2.225-1.9-4.129-3.83-6.142-5.75-1.318-1.256-2.814-2.493-4.02-3.768l4.034-1.314c-9.278-9.59-16.289-19.912-20.643-30.602l-3.631.47-.915.116c-1.539-3.661-2.697-7.248-3.604-10.982l4.551-.436c-.264-1.004-.185-2.022-.397-3.031-2.096-9.861-2.152-19.863.084-29.691l-1.36-.107h.001l-3.318-.257c.863-3.738 1.98-7.471 3.35-11.054l4.553.582c4.363-10.763 11.132-21.008 20.176-30.671l-4.177-1.246c3.139-3.292 6.41-6.516 10.057-9.662l4.05 1.609c3.522-3.073 7.36-6.036 11.468-8.901 4.107-2.866 8.483-5.629 13.081-8.301 4.282-2.492 8.69-4.906 13.23-7.103l-3.044-2.196c4.914-2.414 10.209-4.61 15.378-6.734l2.667 2.268c15.634-6.293 32.67-11.199 50.596-14.714l-1.659-2.56c6.187-1.246 12.498-2.268 18.687-3.073l1.153 2.559c18.31-2.559 37.262-3.588 56.221-3.147l.237-2.632c.11 0 .222.01.332.014.076 0 .151.01.227.01 6.26.087 12.523.427 18.785.926l-.617 2.705c18.838 1.391 37.181 4.393 54.517 8.713l2.008-2.488c5.821 1.464 11.646 3.074 17.341 4.906l-2.259 2.483c.781.248 1.473.582 2.249.834 7.457 2.415 14.737 5.042 21.608 8.019 7.586 3.282 14.778 6.889 21.497 10.768l4.414-1.537c4.311 2.488 8.37 5.125 12.177 7.757l-3.657 1.833c12.305 8.416 22.47 17.788 30.363 27.742l4.164-1.095c2.671 3.442 5.092 6.879 7.259 10.467l-4.542.878c6.124 10.395 9.848 21.158 10.923 32.28l4.673-.217h.001c.002.014 0 .028.002.044.396 3.723.294 7.437.187 11.161l-.222-.005-4.453-.073c-.027.413-.189.815-.222 1.227v.005c-.509 6.308-2.067 12.538-4.279 18.7-1.488 4.155-3.026 8.3-5.304 12.353l4.43.805c-1.233 2.361-2.889 4.64-4.451 6.934-.814 1.197-1.414 2.429-2.315 3.607l-4.43-1.096c-7.397 10.026-17.329 19.471-29.162 27.96z"/><path d="m199.67 358.401-.128 45.385-.008 3.18c20.111 2.71 40.969 3.806 61.818 3.292l.009-3.089.128-45.472c-20.848.509-41.708-.586-61.819-3.296z"/></g></g><g><g><g fill="#b0b5f1"><path d="m258.752 92.824.008-3.088-.235 3.074c.076.004.151.009.227.014z"/><path d="m258.735 98.628v-.005c-.076 0-.151-.009-.227-.009.077-.001.151.009.227.014z"/><path d="m196.979 93.178-.009 3.287c.435-.059.854-.156 1.289-.213z"/><path d="m277.508 99.612-.596 2.585-.199 45.875c-6.156-.397-12.511-.795-18.667-.994l.198-48.458h.199.198c6.356-.002 12.711.396 18.867.992z"/><path d="m258.244 98.618-.198 48.459-.199 2.779v-48.654z"/><path d="m339.313 103.844.01-3.345-2.006 2.783c.679.165 1.32.388 1.996.562z"/><path d="m201.647 104.377v48.659l-1.191-2.585.197-48.652z"/><path d="m257.847 101.202v48.653c-19.064-.597-37.93.596-56.2 3.18v-48.658c18.469-2.578 37.335-3.572 56.2-3.175z"/><path d="m200.653 101.799-.198 48.652c-5.76.597-11.32 1.591-17.08 2.779l.199-45.87-1.787-2.385c6.357-1.392 12.512-2.381 18.866-3.176z"/><path d="m331.324 110.933v48.653c-17.475-4.368-35.746-7.345-54.611-8.736v-2.779l.199-45.875c18.866 1.387 37.135 4.369 54.412 8.737z"/><path d="m333.509 108.548-.198 48.459-1.987 2.579v-48.653z"/><path d="m350.787 113.318-2.185 2.579-.198 45.478c-4.965-1.591-10.127-2.977-15.092-4.368l.198-48.459c5.759 1.391 11.517 2.981 17.277 4.77z"/><path d="m121.641 112.727-.011 3.713c.991-.417 1.948-.887 2.933-1.299z"/><path d="m183.575 107.359-.199 45.87v2.783c-17.872 3.573-34.951 8.339-50.64 14.695l.199-48.454c15.689-6.356 32.767-11.32 50.64-14.894z"/><path d="m132.936 122.254-.2 48.454-2.581-2.186.199-48.654z"/><path d="m130.354 119.868-.198 48.653c-4.17 1.59-8.341 3.379-12.313 5.362v-45.08l-2.978-2.182c4.964-2.384 10.325-4.566 15.489-6.753z"/><path d="m407.958 131.587.012-4.296-3.653 2.124c1.369.756 2.433 1.449 3.641 2.172z"/><path d="m398.249 133.967-.2 48.46-4.368 1.584.199-48.454z"/><path d="m393.88 135.557-.199 48.454c-13.304-7.742-28.795-14.298-45.278-19.66v-2.976l.198-45.478c.597.199 1.391.597 2.185.796 7.348 2.38 14.696 4.964 21.645 7.941 7.547 3.374 14.696 6.953 21.449 10.923z"/><path d="m410.363 141.715-3.575 1.789-.198 44.478c-2.78-1.784-5.362-3.772-8.54-5.556l.199-48.459c4.369 2.386 8.341 5.164 12.114 7.748z"/><path d="m63.698 146.689-.016 5.639c1.419-1.314 2.696-2.672 4.195-3.952z"/><path d="m80.111 153.036v48.653l-4.17-1.59.199-48.654z"/><path d="m117.842 128.804v48.658c-4.567 2.182-8.937 4.567-13.305 6.948-9.135 5.362-17.475 11.121-24.426 17.279v-48.653c3.574-2.982 7.348-5.959 11.517-8.742 4.171-2.977 8.539-5.755 13.108-8.339 4.17-2.584 8.738-4.965 13.106-7.151z"/><path d="m76.14 151.445-.198 48.653c-2.185 1.789-3.973 3.772-5.759 5.561v-43.295l-4.171-1.188c3.176-3.379 6.355-6.555 10.128-9.731z"/><path d="m455.059 174.747.023-8.145-4.671 1.246c1.76 2.303 3.154 4.6 4.648 6.899z"/><path d="m441.343 170.111-.199 48.654-4.17.994.198-48.455z"/><path d="m437.172 171.304-.198 48.454c-7.745-9.929-18.071-19.263-30.384-27.606v-4.17l.198-44.478c12.312 8.538 22.44 17.871 30.384 27.8z"/><path d="m448.492 180.637-4.369.994-.199 41.105c-.992-1.386-1.786-2.778-2.78-3.971l.199-48.653c2.58 3.573 5.162 6.952 7.149 10.525z"/><path d="m35.891 191.202-5.059-.732-.035 12.164 1.621.131c.864-3.879 1.98-7.762 3.473-11.563z"/><path d="m70.182 162.364v48.658c-9.135 9.731-15.888 19.859-20.257 30.583l.199-48.454c4.369-10.724 11.121-21.052 20.058-30.787z"/><path d="m50.125 193.151-.199 48.454-2.78-.198v-4.766c-.198-.994-.198-1.988-.398-2.982v-29.789h-1.191v-11.32z"/><path d="m42.153 203.575 3.318.257.033-11.311c-1.371 3.582-2.488 7.316-3.351 11.054z"/><path d="m469.689 225.092c.094-1.566.146-3.132.149-4.693l-.013 4.698 4.948.135.033-12.077-5.306.15c.399 3.879.423 7.831.189 11.787z"/><path d="m459.641 213.596c0 .01-.001.019 0 .024z"/><path d="m455.156 224.724 4.453.073.032-11.2-4.673.218-.034 12.135c.033-.412.195-.815.222-1.226z"/><path d="m457.603 262.25c.523-.878 1.16-1.721 1.666-2.609-.505.888-1.143 1.731-1.666 2.609z"/><path d="m455.046 213.8-.199 12.116c-.397 6.351-1.986 12.509-4.17 18.666-1.788-4.766-3.973-9.731-6.753-14.497v-7.35l.199-41.105c5.957 10.328 9.729 21.052 10.923 32.17z"/><path d="m459.831 224.801c.107-3.723.208-7.437-.187-11.161 0-.005-.002-.009-.002-.019-.001-.005 0-.014-.001-.024l-.032 11.2z"/><path d="m46.747 233.629.084-29.691c-2.236 9.828-2.18 19.83-.084 29.691z"/><path d="m469.689 225.092.136.005.013-4.698c-.004 1.561-.056 3.126-.149 4.693z"/><path d="m47.145 236.641v11.316l-.992.199c-1.589-3.772-2.582-7.345-3.574-11.117z"/><path d="m25.23 221.024c-.006-.33-.057-.654-.058-.984-.002-.184-.034-.368-.034-.557l-.138 48.565c-.018 6.274.742 12.538 2.299 18.782l.139-48.561c-1.43-5.735-2.108-11.485-2.208-17.245z"/><path d="m32.699 252.689c-.399-.868-1.033-1.688-1.402-2.56l1.411-.194.033-12.101-5.302.437-.139 48.559 3.893-.32.104-36.382c.369.873 1.003 1.693 1.402 2.561z"/><path d="m36.569 259.748c-1.321-2.347-2.768-4.665-3.87-7.059 1.102 2.394 2.548 4.712 3.87 7.059z"/><path d="m32.707 249.934 3.891-.538c-1.538-3.806-2.948-7.684-3.857-11.563z"/><path d="m449.683 257.886c-1.191 2.385-2.78 4.567-4.369 6.952v-7.748z"/><path d="m459.269 259.641-.138 48.565 4.933.956.138-48.566z"/><path d="m464.202 260.596-.138 48.565c6.381-11.495 10.106-23.354 10.798-35.359l.138-48.565c-.692 12.004-4.417 23.864-10.798 35.359z"/><path d="m459.269 259.641c-.505.888-1.143 1.731-1.666 2.609-1.679 2.821-3.341 5.638-5.349 8.373l4.683 1.246-.114 39.95c.737-1.212 1.608-2.385 2.308-3.612z"/><path d="m71.374 278.142v4.965c-.596-.592-1.391-1.193-1.986-1.784-.794-.597-1.391-1.193-1.985-1.988l1.985-.597z"/><path d="m71.328 298.568v-.005c-.633-.475-1.279-.95-1.899-1.43.62.48 1.266.955 1.899 1.435z"/><path d="m54.107 283.728-.138 48.565 4.667-1.537.138-48.565z"/><path d="m40.76 267.398c-1.686-2.487-2.76-5.105-4.192-7.65-1.321-2.347-2.768-4.665-3.87-7.059-.399-.868-1.033-1.688-1.402-2.56l-.104 36.382-.035 12.179c4.995 11.791 12.639 23.064 22.812 33.604l.138-48.566c-5.085-5.271-9.54-10.725-13.347-16.33z"/><path d="m69.429 297.133c-1.395-1.091-2.949-2.119-4.272-3.23l4.287-1.755c-3.937-3.297-7.492-6.516-10.67-9.958l-.138 48.565c1.907 2.066 4.22 4.004 6.4 5.973l.121-42.826c1.324 1.117 2.877 2.14 4.272 3.231z"/><path d="m413.143 297.012c-1.191.79-2.582 1.586-3.773 2.38v-4.169z"/><path d="m442.651 287.843c-5.374 5.144-11.348 10.085-17.894 14.773l-.138 48.561c13.089-9.367 23.902-19.767 32.18-30.748l.024-8.611.114-39.95c-4.137 5.489-8.911 10.836-14.286 15.975z"/><path d="m420.954 300.711-.136 48.566 3.802 1.9.138-48.565z"/><path d="m406.978 309.715 3.047 2.341-.125 44.251c3.694-2.313 7.376-4.63 10.916-7.031l.138-48.566c-4.533 3.075-9.189 6.076-13.976 9.005z"/><path d="m119.822 322.213c-1.05-.451-2.092-.892-3.136-1.357 1.044.466 2.086.907 3.136 1.357z"/><path d="m119.829 311.509v3.573c-.994-.397-2.186-.795-3.179-1.391z"/><path d="m110.495 318.058-.199 48.654-3.177 2.186.199-48.454z"/><path d="m107.318 320.444-.199 48.454c-1.191-.596-2.184-1.192-3.375-1.591-4.171-2.181-8.342-4.368-12.115-6.55-8.141-4.771-15.489-9.532-22.241-14.7-1.391-1.188-2.979-2.38-4.368-3.574v-5.755l.198-42.898c1.191 1.192 2.779 2.186 4.17 3.374.596.397 1.39.795 1.986 1.391 1.986 1.59 3.971 3.175 6.355 4.766 4.368 2.977 9.134 5.958 13.9 8.737 3.973 2.385 7.944 4.567 12.115 6.555 1.191.598 2.383 1.194 3.574 1.791z"/><path d="m126.581 325.21-2.781 2.38v44.881c-4.567-1.785-9.134-3.773-13.504-5.76l.199-48.653c1.986.994 4.17 1.789 6.156 2.783.993.393 2.185.994 3.179 1.391 2.183.99 4.566 1.984 6.751 2.978z"/><path d="m352.772 326.199c-.597.204-1.391.397-2.184.602l.198-2.982z"/><path d="m360.355 333.869-2.542-2.633-.138 48.566 2.542 2.633.136-48.566z"/><path d="m410.025 312.056c-7.432 4.32-15.34 8.291-23.645 11.922-8.305 3.636-17.007 6.929-26.025 9.891h-.002l-.136 48.566c18.035-5.93 34.806-13.173 49.671-21.813l.013-4.315z"/><path d="m185.759 332.753v2.784c-.396-.199-.992-.199-1.389-.199z"/><path d="m339.768 336.434 2.038 2.783-.127 45.191c5.367-1.454 10.736-2.987 15.994-4.606l.139-48.566c-5.932 1.833-11.989 3.588-18.044 5.198z"/><path d="m280.089 340.303h-.794v-2.585z"/><path d="m179.604 343.677-.198 48.454c-1.787-.393-3.575-.597-5.163-1.188-11.915-2.385-23.235-5.362-34.158-8.94-5.56-1.785-11.121-3.772-16.285-5.76v-48.653c5.164 2.187 10.725 4.174 16.285 5.959 10.922 3.578 22.242 6.555 34.158 8.935 1.785.398 3.573.795 5.361 1.193z"/><path d="m179.558 343.61-.137 48.565 1.626-2.856.137-48.565z"/><path d="m200.793 343.9c-6.576-.878-13.156-1.9-19.609-3.146l-.137 48.565c6.087 1.173 12.293 2.124 18.495 2.967l.128-45.385z"/><path d="m261.219 347.125.27 3.073-.128 45.473c6.607-.218 13.21-.577 19.934-1.154l.138-48.566c-6.82.586-13.515.95-20.214 1.174z"/><path d="m281.432 345.951-.138 48.566.779 3.073.137-48.565z"/><path d="m312.631 345.301c-9.96 1.638-20.125 2.88-30.421 3.723l-.137 48.566c20.589-1.682 40.664-4.979 59.596-9.808l.01-3.374.127-45.191c-9.464 2.414-19.217 4.445-29.175 6.084z"/></g><path d="m442.651 287.843c5.375-5.139 10.148-10.486 14.286-15.975l-4.683-1.246h-.002c2.009-2.729 3.671-5.552 5.351-8.373.523-.878 1.16-1.721 1.666-2.609l4.933.956c6.381-11.496 10.106-23.355 10.798-35.359l-.228-.005-4.948-.135-.136-.005c.234-3.956.21-7.908-.189-11.787l5.306-.15c-1.206-12.073-5.19-24.009-11.953-35.354l-5.049 1.022c-.806-1.381-1.864-2.719-2.745-4.077-1.493-2.298-2.888-4.596-4.649-6.899l4.671-1.246c-8.405-10.982-19.581-21.23-33.031-30.453l-4.034 1.906c-3.063-2.104-6.341-4.243-10.058-6.468-1.208-.723-2.272-1.416-3.641-2.172l3.653-2.124c-14.957-8.494-31.807-15.738-49.913-21.522l-2.511 2.632c-5.3-1.755-10.735-3.175-16.233-4.558-.676-.175-1.317-.397-1.996-.562l2.006-2.783c-18.984-4.829-39.095-8.126-59.83-9.736l-.741 3.074c-6.627-.505-13.256-.863-20-1.013-.076-.005-.151-.01-.227-.014l.235-3.074c-20.855-.514-41.574.659-61.781 3.442l1.28 3.074c-.435.058-.854.155-1.289.213-6.129.838-12.26 1.779-18.152 3.01l-1.788-2.928c-19.694 3.806-38.242 9.294-55.389 16.179l2.922 2.414c-.985.412-1.942.883-2.933 1.299-4.461 1.886-8.976 3.777-13.206 5.876l-3.297-2.346c-5.041 2.492-9.83 5.125-14.491 7.835-9.953 5.784-19.142 12.15-26.939 18.884l4.179 1.687c-1.499 1.28-2.776 2.638-4.195 3.952-2.153 1.997-4.395 3.975-6.365 6.003l-4.43-1.387c-10.053 10.541-17.57 21.813-22.055 33.527l5.059.732c-1.493 3.801-2.609 7.684-3.472 11.563l-1.621-.131-3.691-.305c-1.334 5.905-1.961 11.816-1.934 17.711.001.33.052.654.058.984.1 5.755.778 11.51 2.209 17.246l5.302-.437c.91 3.879 2.319 7.757 3.857 11.563l-3.891.538-1.411.194c.369.873 1.003 1.693 1.402 2.56 1.102 2.395 2.549 4.712 3.87 7.059 1.432 2.54 2.506 5.163 4.192 7.65 3.807 5.605 8.262 11.06 13.347 16.33l4.666-1.537c3.179 3.442 6.734 6.662 10.67 9.958l-4.287 1.755c1.324 1.11 2.878 2.139 4.272 3.23.62.479 1.266.955 1.899 1.43 2.112 1.595 4.083 3.248 6.331 4.785 4.439 3.041 9.133 5.964 14.015 8.785 4.944 2.856 10.143 5.706 15.589 8.272l3.147-2.269c2.061.965 4.185 1.789 6.276 2.72 1.044.465 2.086.906 3.136 1.357 2.276.98 4.52 2.056 6.805 2.948l-2.765 2.493c17.099 6.806 35.961 12.15 55.697 15.956l1.626-2.856c6.453 1.246 13.033 2.268 19.609 3.146l-1.123 3.001c20.111 2.71 40.971 3.806 61.819 3.297l-.27-3.073c6.699-.223 13.395-.587 20.214-1.174l.777 3.074c10.296-.843 20.461-2.085 30.421-3.723 9.958-1.639 19.711-3.671 29.176-6.084l-2.038-2.783c6.055-1.61 12.112-3.365 18.044-5.198l2.543 2.632c9.018-2.962 17.72-6.254 26.025-9.891 8.305-3.631 16.214-7.602 23.645-11.922l-3.047-2.341c4.787-2.928 9.443-5.93 13.976-9.004l3.804 1.901c6.545-4.682 12.519-9.622 17.893-14.767zm-29.551 9.208c-1.127.815-2.496 1.571-3.69 2.385-3.208 2.172-6.423 4.374-9.913 6.4l-3.799-1.905c-13.48 7.835-28.607 14.569-45.009 19.839l2.165 2.415c-.704.243-1.463.397-2.174.63-4.901 1.6-9.917 3.069-14.989 4.349l-2.036-2.487c-17.286 4.465-35.598 7.467-54.417 9.004l.773 2.637c-.262.019-.519.019-.781.038-6.18.48-12.36.844-18.424.985l-.393-2.711c-18.952.587-37.916-.436-56.384-2.928l-.996 2.637c-5.817-.81-11.52-1.726-17.224-2.831-.495-.097-1.001-.146-1.496-.243l1.503-2.492c-18.093-3.588-35.181-8.49-50.888-14.637l-2.64 2.264c-4.249-1.634-8.358-3.471-12.447-5.319-1.031-.46-2.117-.868-3.136-1.338l3.145-2.269c-4.988-2.375-9.856-4.926-14.533-7.626-8.744-5.047-16.819-10.618-23.771-16.532l-4.034 1.609c-2.225-1.9-4.129-3.829-6.142-5.75-1.318-1.256-2.814-2.492-4.02-3.767l4.034-1.314c-9.278-9.59-16.289-19.912-20.643-30.602l-3.631.47-.915.116c-1.539-3.66-2.697-7.248-3.604-10.982l4.551-.436c-.264-1.004-.185-2.021-.397-3.031-2.096-9.861-2.152-19.863.084-29.691l-1.36-.106h.001l-3.318-.257c.863-3.738 1.98-7.472 3.35-11.054l4.553.581c4.363-10.763 11.132-21.008 20.176-30.67l-4.177-1.246c3.139-3.292 6.41-6.516 10.057-9.663l4.05 1.61c3.522-3.074 7.36-6.036 11.468-8.902 4.107-2.866 8.483-5.629 13.081-8.3 4.282-2.492 8.69-4.907 13.23-7.103l-3.044-2.196c4.914-2.415 10.209-4.611 15.378-6.735l2.667 2.269c15.634-6.294 32.67-11.2 50.596-14.715l-1.659-2.56c6.187-1.247 12.498-2.269 18.687-3.074l1.153 2.559c18.31-2.559 37.262-3.588 56.221-3.146l.237-2.633c.11 0 .222.01.332.015.076 0 .151.009.227.009 6.26.088 12.523.427 18.785.926l-.617 2.705c18.838 1.391 37.181 4.393 54.517 8.713l2.008-2.487c5.821 1.464 11.646 3.073 17.341 4.906l-2.259 2.483c.781.247 1.473.581 2.249.833 7.457 2.415 14.737 5.043 21.608 8.02 7.586 3.282 14.778 6.889 21.497 10.767l4.414-1.537c4.311 2.487 8.37 5.125 12.177 7.758l-3.657 1.832c12.305 8.417 22.47 17.788 30.363 27.743l4.164-1.096c2.671 3.442 5.092 6.88 7.259 10.468l-4.542.877c6.124 10.395 9.848 21.158 10.923 32.281l4.673-.218h.001c.002.014 0 .029.002.044.396 3.723.294 7.438.187 11.161l-.222-.004-4.453-.073c-.027.412-.189.814-.222 1.227v.004c-.509 6.308-2.067 12.538-4.279 18.7-1.488 4.155-3.026 8.3-5.304 12.354l4.43.805c-1.233 2.361-2.889 4.639-4.451 6.933-.814 1.197-1.414 2.429-2.315 3.607l-4.43-1.096c-7.397 10.027-17.329 19.471-29.162 27.961z" fill="#d9ddfd"/><path d="m199.67 346.901-.128 45.385-.008 3.18c20.111 2.711 40.969 3.806 61.818 3.292l.009-3.088.128-45.473c-20.848.51-41.708-.586-61.819-3.296z" fill="#b0b5f1"/></g><g fill="#fff"><path d="m174.242 342.484v48.459c-11.915-2.385-23.235-5.362-34.158-8.94-5.56-1.785-11.121-3.772-16.285-5.76v-3.772c-4.567-1.785-9.134-3.773-13.504-5.76l-3.177 2.186c-1.191-.596-2.184-1.192-3.375-1.591-4.171-2.181-8.342-4.368-12.115-6.55-8.141-4.771-15.489-9.532-22.241-14.7v-48.852c.596.397 1.39.795 1.986 1.391 1.986 1.59 3.971 3.175 6.355 4.766 4.368 2.977 9.134 5.958 13.9 8.737 3.973 2.385 7.944 4.567 12.115 6.555 1.191.596 2.383 1.192 3.574 1.789l3.177-2.385c1.986.994 4.17 1.789 6.156 2.783.993.393 2.185.994 3.179 1.391 2.184.989 4.567 1.983 6.751 2.977l-2.781 2.38c5.164 2.187 10.725 4.174 16.285 5.959 10.923 3.58 22.242 6.557 34.158 8.937z" opacity=".2"/><path d="m140.084 333.549v48.454c-5.56-1.785-11.121-3.772-16.285-5.76v-3.772c-4.567-1.785-9.134-3.773-13.504-5.76l-3.177 2.186c-1.191-.596-2.184-1.192-3.375-1.591v-48.652c1.191.596 2.383 1.192 3.574 1.789l3.177-2.385c1.986.994 4.17 1.789 6.156 2.783.993.393 2.185.994 3.179 1.391 2.184.989 4.567 1.983 6.751 2.977l-2.781 2.38c5.165 2.188 10.725 4.175 16.285 5.96z" opacity=".2"/></g></g></g></svg>