<svg id="Layer_1" enable-background="new 0 0 66 66" viewBox="0 0 66 66" xmlns="http://www.w3.org/2000/svg"><g><g><g><g><g><path d="m58.147049 35.3244743c-1.647625 2.9543686-5.2921066 5.1424294-7.7690544 6.3591576-1.5973854.784668-3.2979927 1.3528099-5.051548 1.6567802-4.0012398.6936035-6.4750252.1501045-7.9331551-.5398293-1.1326485-.5359306-1.847683-1.6763687-1.8564148-2.9293823-.0189438-2.7186089-.0485001-6.996582.0116959-10.3063297.0627899-2.9418488 3.085331-5.5428181 5.1302261-6.9689083l.0089798-.0089779c1.0404282-.7264843 1.8297043-1.1480007 1.8297043-1.1480007 10.6720734-4.182539 10.5888443-4.2226772 11.0048943-4.2782173 5.4898033-1.2047186 5.4958801 11.0731277 5.374382 15.2254753-.0299187 1.02248-.2514802 2.0448532-.7497101 2.9382324z" fill="#6db73d"/></g><g><path d="m58.3858376 34.8283577c-.0653572.166954-.1524658.3339043-.2395782.4936371-1.6478691 2.9546127-5.292141 5.146946-7.7676468 6.3593102-1.5970497.7839928-3.2957878 1.3575211-5.0525703 1.6624031-3.9999809.6896629-6.475441.1451988-7.9346046-.5444603-1.1324768-.5371933-1.8439369-1.6769371-1.8512001-2.9255905-.0217552-2.7223053-.0507774-6.9981041.0072632-10.3084221.036335-1.5462723.8856812-3.0054359 1.98909-4.2395554-.2830849.6388378-.4573059 1.2994308-.4718361 1.981823-.0653572 3.3103199-.0362892 7.5934296-.014534 10.3084679.007267 1.2558746.7259483 2.3956184 1.8584251 2.9328575 1.4591599.6896172 3.9274025 1.2268105 7.9346046.5371933 1.7495575-.3049278 3.4482498-.8711433 5.0453453-1.6551819 1.9600676-.9655228 4.6460837-2.5335503 6.4972419-4.6024819z" fill="#83d34f"/></g><g><path d="m52.6490784 32.2973747c-6.4097633-6.3046989-11.9693909-9.7054253-11.9693909-9.7054253l.0095634-.0095615c1.0412025-.7260075 1.8245239-1.1463261 1.8245239-1.1463261l10.5556221-4.1553612c.0095634 0 .0191231-.0095615.0286865-.0095615.2935181-.0979729.1447258-.0578747.3821259-.1050663.0095062-.0095615.0286293-.0095615.0381889-.0095615 2.7607194 3.2096634-.8693198 15.1408634-.8693198 15.1408634z" fill="#e3e6f9"/></g></g><g><g><g><g><g><g><g><g><path d="m52.2670097 17.7105217c.2770042 3.2670345-1.7099533 6.1423798-1.7099533 6.1423798s-.5731354 1.0220776-.7355118 2.2352772c-.5349426.1623783-1.0985718.2483788-1.6717072.2483788-2.3806839-.8814564-4.6367264-2.4820518-5.5214348-4.871809.6686935-.3343754 1.2131996-.5731907 1.2131996-.5731907-.0011559-.1026802-.0406036-3.6154232-.0381889-3.4007282l8.4253502-.4107552c.0573692 0 .1051216.1719398.1337509.4585075 0 0 .3630028-.1336937.678257-.2388153z" fill="#ffb850"/></g><g opacity=".1"><path d="m52.8570518 17.3599949c-.2543831.091362-.4898148.1788788-.4898148.1788788-.0374336-.2843513-.0823288-.4564095-.1422043-.4564095l-8.4175987.4115143.0075226.995142c1.4216385 1.2495232 3.2547913 1.9678345 5.2076988 1.9678345 1.6423225 0 2.9383736-.6515522 3.8343964-1.8605556z" fill="#333"/></g><g><path d="m52.8019562 25.5627975s-.8979492-1.7003937-2.2448997-1.7098961c0 0 1.9869576-2.8753452 1.7099533-6.1423798l.8023872-.429821c.0095634 0 .0191231-.0095615.0286865-.0095615.2935181-.0979729.1447258-.0578747.3821259-.1050663.1910057.6877614 1.3468933 5.2730027-.6782532 8.3967247z" fill="#bac2f0"/></g><g><path d="m53.9209709 13.0702639c-.3058815 3.9802485-1.4847755 7.0148726-4.8989105 7.0148726-3.9821701 0-7.4872551-3.1250858-7.7439461-7.7883921-.1978378-3.8541679 2.8787193-6.5603695 6.4636536-6.7837734 3.5308685-.2200304 6.5371284 2.8998021 6.179203 7.5572929z" fill="#ffb850"/></g></g></g></g></g></g></g></g><g><g><path d="m42.2567863 14.7397795c.5953178.8046522.9731827 1.7475138 1.0638199 2.7443361v.0000019s-3.2023087-1.5181313-3.3291168-5.322402.487793-8.6278362 5.8433533-8.4550762c4.8341293.1559396 6.9284401 1.0816898 7.416893 3.8560104.111618.6339769-.5054245 1.1233082-1.1252327.9494591-.367012-.1029425-.7574768-.0970011-1.0832291.171464-.3084183.254179-.7724991.2903662-1.2401047.2069607-1.501133-.2677546-3.0732002.2616558-3.9033699 1.5406837-.4579773.705595-.798275 1.6596432-.8292313 2.9442883l-1.0905571-.2536182s-.0704842-2.2689056-1.7087517-1.7372828c-1.113819.3614387-.8755988 2.1912469-.0144729 3.355175z" fill="#333"/></g></g><g><path d="m43.77528 20.205246s1.5870438 2.9489079 6.7810135 3.6466217c0 0-.8335991 1.4671917-.7855072 2.9740829 0 0-5.611084-1.1155529-7.1578941-5.4231129z" fill="#bac2f0"/></g></g><g><g><g><g><g opacity=".5"><path d="m14.3626976 58.2038879-4.6153593-.7497711-2.6732512-1.6690559 6.0369921-3.6708908-2.0373449 4.188549z" fill="#b6bcd8"/></g><g opacity=".5"><path d="m31.5967407 61.9698486-4.6153602-.7497749-2.6732502-1.6690521 6.0369911-3.6708946-2.037344 4.188549z" fill="#b6bcd8"/></g><g><g><g><g><path d="m32.7656136 50.045578c-1.6346188 2.9310455-5.25033 5.1018333-7.7077236 6.3089561-1.5847759.7784729-3.2719593 1.3421326-5.0116711 1.6437035-3.9696541.6881256-6.4239101.1489182-7.8705282-.5355721-1.1237087-.5316963-1.8331003-1.6631355-1.8417625-2.9062538-.0187931-2.6971474-.0481157-6.941349.0116043-10.2249718.062294-2.9186249 3.0609732-5.4990616 5.0897284-6.9138947l.0089064-.0089073c1.032218-.7207489 1.8152628-1.1389389 1.8152628-1.1389389 10.5848999-4.1483727 10.5051441-4.1893272 10.9180183-4.2444458 5.4464645-1.1952057 5.4524994 10.9857178 5.3319588 15.1052856-.0296823 1.0144083-.2494966 2.0287134-.7437936 2.9150392z" fill="#ff6dab"/></g><g><path d="m33.0025177 49.5533752c-.0648384.1656342-.1512604.3312721-.2376862.4897423-1.634861 2.9312897-5.2503662 5.1063156-7.7063313 6.3091087-1.5844421.7778015-3.2697697 1.3468018-5.012682 1.6492805-3.9684029.6842155-6.424325.1440544-7.8719683-.5401611-1.1235371-.5329552-1.8293791-1.6637001-1.8365889-2.9024963-.0215836-2.7008133-.0503759-6.9428596.0072098-10.227047.036046-1.5340691.8786869-2.9817123 1.9733877-4.206089-.2808514.6337967-.4536963 1.2891731-.4681149 1.9661789-.0648394 3.2841873-.0360022 7.5334854-.0144186 10.2270927.0072088 1.2459602.7202168 2.376709 1.8437538 2.9097061 1.4476433.6841698 3.8963985 1.2171249 7.8719673.5329514 1.7357483-.3025208 3.421032-.8642693 5.005518-1.6421165 1.9445956-.957901 4.6094077-2.5135498 6.4459536-4.5661507z" fill="#ef5ea3"/></g><g><path d="m19.0561333 39.9377327c-2.2165413-1.6624069-3.6243668-2.5235939-3.6243668-2.5235939l.0149908-.0074959c1.0259104-.7188568 3.1001692-1.6474571 3.1001692-1.6474571-.0011292-.1026802-.0397968-3.6144218-.0374317-3.3997269l8.4244671-.4118519c.0599194 0 .1048489.1722164.1422806.4567814 0 0 .9659901-.3594284 1.1008224-.381916.3374043.4049683.5451984.8523483.688921 1.3554001 1.6923885 5.6762314-5.0696717 10.1093635-9.8098526 6.5598602z" fill="#ffb850"/></g><g opacity=".1"><path d="m28.2893639 32.1722488c-.8386993 2.0368729-2.4037533 3.1526413-4.560421 3.1526413-1.9545097 0-3.789135-.7189064-5.2119522-1.9694595l-.0074959-.9959717 8.4244671-.4118519c.0599194 0 .1048489.1722164.1422806.4567814 0 0 .9659901-.3594284 1.1008224-.381916.0374317.0449295.0823612.0973511.112299.1497764z" fill="#333"/></g><g><g><path d="m18.8314896 40.2372894c-.9135647-.6814728-2.9129581-2.0435448-3.4895811-2.4329567.2995558-.1272926.5841188-.2396355.8312044-.3294945.6290455.4268456 2.3663177 1.6092033 3.1077099 2.1633873 4.4449863 3.3297272 10.814394-.8179169 9.2257328-6.1555023-.0749111-.2620773-.4268436-.9061165-.6964626-1.3628998.2395592-.0704193.5052185-.1416512.7713299-.1572266.2620754.4567833.5541344 1.0109177.6439915 1.3104744 1.8115634 6.0719834-5.4003354 10.7093621-10.3939248 6.9642182z" fill="#ef5ea3"/></g></g><g><path d="m28.6312752 27.9321327c-.3061333 3.9834995-1.4859905 7.0205994-4.9029121 7.0205994-3.9854221 0-7.4933701-3.127636-7.7502728-7.7947521-.1979971-3.8573151 2.881073-6.5657253 6.4689331-6.7893124 3.5337562-.220211 6.5424671 2.9021702 6.1842518 7.5634651z" fill="#ffb850"/></g></g></g></g></g><g><path d="m12.3178587 40.1257133s3.1159611-2.3716278 4.7750902-2.9828873c4.4607124-1.6434212 3.4880772-6.372448 3.4880772-6.372448l1.3030472 1.8236809c-.7416592-2.2597008-1.0515003-5.0602188.6757641-7.2234917 3.4545383-4.3265572 5.7687435-.5701675 5.7687435-.5701675s.8735485-4.2849941-3.689312-6.2382908c0 0-5.518734-2.7389126-8.0759487 1.8258343-.8592825 1.5338612-1.2909832 3.1203003-1.219408 4.5668163.0913486 6.1479741-.9793177 10.8042966-3.0260535 15.1709538z" fill="#333"/></g><g><path d="m28.3266506 24.7982864s-2.3138943-3.7517033-5.7660427.569128c-.8087616 1.0034218-1.1682377 2.1566658-1.2505989 3.3248577-.0898571-1.5051785.2096977-3.0327988 1.2505989-4.3283272 3.4521484-4.3207836 5.7660427-.5690804 5.7660427-.5690804s.0299835-.1273365.0449295-.3519802c.0674153.8012678-.0449295 1.3554021-.0449295 1.3554021z" fill="#1a1a1a"/></g><g><path d="m24.005867 18.2983475c-2.6134968.7413464-4.3133354 3.4446526-4.5230331 3.7891369.6215515-1.9844494 1.7448139-3.3248596 2.9729252-4.2159824.6215057.1123447 1.16819.284563 1.5501079.4268455z" fill="#1a1a1a"/></g><g><path d="m18.4741726 24.8989754c-.5962086 1.8401623-.9163589 2.3520336-.8206482 4.8442383-.0306435 1.9577389-.6538792 3.812645-1.3462219 4.8653564.5005817-1.4380074.8426857-3.3559036.8465271-4.8684082-.0479527-1.8938561.1636238-2.9858704 1.320343-4.8411865z" fill="#1a1a1a"/></g><g><path d="m20.4308071 22.8210335c-.5961685 1.8401756-.9163284 2.3520947-.8206177 4.8442993-.0307255 1.9585075-.6541824 3.813055-1.3462524 4.8653564.5006275-1.4380875.8426609-3.3558731.8465576-4.8684082-.0479584-1.8942031.1635914-2.9856414 1.3203125-4.8412475z" fill="#1a1a1a"/></g></g></g></g></g><g><g><g><path d="m51.0330887 53.568779c-1.7249107 3.0929527-5.5403481 5.3836517-8.1334801 6.6574516-1.6723175.821476-3.4526939 1.4162674-5.2885056 1.7344971-4.1889267.7261353-6.7787514.1571426-8.3052788-.565155-1.1857796-.5610657-1.9343567-1.7550011-1.9434967-3.0667915-.0198307-2.8461304-.0507736-7.3247719.0122452-10.789772.0657349-3.0798454 3.2300549-5.8028183 5.3708725-7.2958069l.0093994-.0093956c1.0892372-.7605629 1.915535-1.2018509 1.915535-1.2018509 11.1929626-4.3866844 11.0869789-4.4209442 11.5211029-4.4789009 5.7473183-1.2612267 5.753685 11.5925446 5.6264839 15.9396667-.0313186 1.0704422-.2632751 2.1407737-.7848777 3.0760574z" fill="#9951e5"/></g><g><path d="m51.2830772 53.0493889c-.0684204.1747856-.1596146.3495712-.2508125.5167961-1.7251701 3.0932083-5.5403862 5.3883743-8.1320114 6.6576118-1.6719627.8207664-3.450386 1.421196-5.2895737 1.7403831-4.1876068.7220078-6.7791882.1520081-8.306797-.5699997-1.1855984-.5623932-1.9304295-1.7556-1.9380379-3.0628242-.0227757-2.8500023-.0531597-7.3263664.0076084-10.7919693.0380363-1.6188011.9272232-3.1464119 2.0823917-4.4384193-.2963638.6688042-.478756 1.3603821-.4939709 2.0747833-.0684204 3.4656029-.0379906 7.9496231-.0152149 10.7920151.0076065 1.314785.7600002 2.5079918 1.9455986 3.0704308 1.527607.721962 4.1116257 1.2843552 8.306797.5623932 1.8316269-.3192329 3.6100006-.9120102 5.2820129-1.7328224 2.0520097-1.0108147 4.8640176-2.6523934 6.8020097-4.8183785z" fill="#b15cff"/></g><g><path d="m45.2772255 50.3996887c-6.710434-6.6004372-12.5308456-10.1606865-12.5308456-10.1606865l.0100098-.0100098c1.0900421-.7600632 1.9101067-1.2000961 1.9101067-1.2000961l11.0507622-4.3502808c.0100098 0 .0200195-.0100098.0300293-.0100098.3072891-.1025696.151516-.0605888.4000549-.109993.0099487-.0100098.0299683-.0100098.039978-.0100098 2.8902167 3.3602182-.9100953 15.8510858-.9100953 15.8510858z" fill="#e3e6f9"/></g></g><g><g><g><g><g><g><g><g><path d="m44.8772316 35.1285973c.2900009 3.4202843-1.7901649 6.4305077-1.7901649 6.4305077s-.6000175 1.0700188-.7700119 2.340126c-.5600357.1699982-1.1501045.2600288-1.7501221.2600288-.6292267-.2329712-1.2151337-.5127525-1.7601318-.8100548-1.570118-.8500328-3.2502289-2.2101746-4.0203018-4.2902756.7000618-.3500633 1.2701073-.6000786 1.2701073-.6000786-.001152-.1026802-.0423889-3.7749443-.039978-3.5602493l8.8205643-.4300232c.0600624 0 .110054.1800079.1400223.4800148 0 0 .3800316-.1399612.7100716-.2500153z" fill="#ffb850"/></g><g opacity=".1"><path d="m45.4949532 34.761631c-.2663155.0956459-.5127945.1872673-.5127945.1872673-.0391846-.2976875-.0861855-.4778175-.1488762-.4778175l-8.8124428.4308167.0078735 1.0418205c1.4883232 1.308136 3.4074631 2.0601425 5.4519806 2.0601425 1.7193565 0 3.0762024-.6821136 4.0142593-1.9478302v-1.2943993z" fill="#333"/></g><g><path d="m45.4372711 43.349205s-.9400711-1.7801514-2.3502045-1.7901001c0 0 2.0801659-3.0102234 1.7901649-6.4305077l.8400269-.4499817c.0100098 0 .0200195-.0100098.0300293-.0100098.3072891-.1025696.151516-.0605888.4000549-.109993.1999627.7200204 1.4100724 5.5203439-.7100715 8.7905923z" fill="#bac2f0"/></g><g><path d="m46.6087761 30.2706795c-.3202324 4.1669502-1.5544243 7.3439217-5.1287079 7.3439217-4.1689606 0-7.8384628-3.2716751-8.1071968-8.1537266-.0186348-.3630238-.0093155-.7074146.0278931-1.0518036.3537102-3.6021767 3.4781723-5.8469772 6.7389565-6.0501804 3.696495-.2303506 6.843769 3.0358257 6.4690551 7.9117889z" fill="#ffb850"/></g></g></g></g></g></g></g></g><g><g><path d="m34.3974533 32.0185051c.6232414.8423996 1.0188332 1.8294868 1.1137199 2.8730659v.0000038s-3.35252-1.589344-3.4852753-5.5720615c-.1327591-3.9827194.5106735-9.0325489 6.1174507-8.8516846 5.0608864.1632538 7.253437 1.1324291 7.7647972 4.0368862.1168556.6637154-.5291328 1.1760006-1.1780128.9939957-.3842239-.1077709-.7930107-.1015511-1.1340408.1795063-.3228836.2661037-.8087349.3039875-1.298275.2166691-1.5715485-.2803135-3.2173538.2739296-4.0864677 1.6129532-.4794579.7386932-.8357201 1.7374935-.8681259 3.0823994l-1.1417122-.2655163s-.0737915-2.3753338-1.7889061-1.8187752c-1.166069.3783932-.9166718 2.294035-.015152 3.512558z" fill="#333"/></g></g><g><path d="m35.987175 37.740345s1.6614914 3.0872345 7.0990944 3.8176765c0 0-.8727036 1.5360146-.8223534 3.1135902 0 0-5.8742828-1.167881-7.4936523-5.6774979z" fill="#bac2f0"/></g></g></g></svg>