<svg width="24" height="24" viewBox="0 0 24 24" fill="none" xmlns="http://www.w3.org/2000/svg">
<path d="M11.9987 22.8013L4.00781 18.1877V8.96094L11.9987 13.5745V22.8013Z" fill="#F4AF00"/>
<path d="M8.48269 20.7706L7.52734 20.219V10.9922L8.48269 11.5438V20.7706Z" fill="#E60000"/>
<path d="M12 22.8013L19.9909 18.1877V8.96094L12 13.5745V22.8013Z" fill="#F18800"/>
<path d="M15.5195 20.7706L16.4749 20.219V10.9922L15.5195 11.5438V20.7706Z" fill="#B80000"/>
<path d="M11.9987 13.5629L4.00781 8.94936L11.9985 4.33594L19.9893 8.94951L11.9987 13.5629Z" fill="#F7D23A"/>
<path d="M8.48264 11.5321L7.52734 10.9806L15.518 6.36719L16.4733 6.91871L8.48264 11.5321Z" fill="#EE484F"/>
<path d="M16.4735 10.9808L15.5182 11.5323L7.52734 6.91871L8.48259 6.36719L16.4735 10.9808Z" fill="#EE484F"/>
<path d="M17.3112 1.52912C12.5147 -0.682146 12 8.94689 12 8.94689C17.0804 9.34462 22.1101 3.73217 17.3112 1.52912ZM12.8848 8.08784C12.8848 8.08784 13.2277 1.64773 16.4337 3.1243C19.6479 4.60299 16.2862 8.35405 12.8848 8.08784Z" fill="#E60000"/>
<path d="M11.9996 8.94686C11.9996 8.94686 11.4849 -0.682181 6.68832 1.52913C1.88943 3.73214 6.9192 9.34459 11.9996 8.94686ZM7.56586 3.12422C10.7719 1.64769 11.1148 8.08775 11.1148 8.08775C7.71336 8.35401 4.35173 4.60296 7.56586 3.12422Z" fill="#E60000"/>
</svg>
