<svg width="14" height="23" viewBox="0 0 14 23" fill="none" xmlns="http://www.w3.org/2000/svg">
<path fill-rule="evenodd" clip-rule="evenodd" d="M4.05333 5.21399C2.90434 4.90749 1.98082 5.01226 1.25019 5.46851C-0.821745 6.76234 0.0442393 11.1939 1.24744 15.0301C1.71349 16.5158 2.85346 21.5115 4.57365 20.9841C5.52168 22.5564 8.41851 22.5564 9.36667 20.9841C11.0867 21.5115 12.2268 16.5158 12.6929 15.0301C13.896 11.1939 14.762 6.76234 12.6901 5.46851C11.9595 5.01226 11.036 4.90749 9.88699 5.21399C8.13256 4.04586 5.80776 4.04586 4.05333 5.21399Z" fill="#F32A14"/>
<path d="M4.05078 5.21337C4.43357 5.31193 4.7167 5.50073 4.95933 5.72601C4.94217 5.40735 4.87453 5.10514 4.75849 4.81836C4.51485 4.93062 4.27798 5.06214 4.05078 5.21337Z" fill="#D2220E"/>
<path d="M9.16852 4.81445C9.00512 5.13817 8.90605 5.49202 8.89453 5.88684C9.16384 5.55289 9.46394 5.27404 9.88698 5.21407C9.65645 5.06053 9.41607 4.92767 9.16852 4.81445Z" fill="#D2220E"/>
<path d="M2.64668 7.66602C0.817814 8.04803 3.19145 17.6292 3.895 20.9108C4.1101 21.0245 4.33634 21.0575 4.57385 20.9846C4.00213 18.9189 1.55791 9.1704 2.64668 7.66602Z" fill="#D2220E"/>
<path d="M11.2944 7.66602C12.3831 9.1704 9.93877 18.919 9.36719 20.9846C9.60463 21.0575 9.83087 21.0245 10.0459 20.9108C10.7496 17.6292 13.1232 8.04803 11.2944 7.66602Z" fill="#D2220E"/>
<path fill-rule="evenodd" clip-rule="evenodd" d="M4.97656 6.28736C6.03211 5.24601 5.94283 4.88947 6.25042 3.59584C6.69618 1.72032 8.08792 0.762685 9.87698 0.0583015C10.5515 -0.334018 11.7295 1.37805 10.5698 1.48877C9.25516 1.61433 7.50309 2.45293 7.28779 3.63264C7.15365 4.36729 7.89451 5.50457 8.52056 6.12557C8.08395 5.99853 7.54815 5.92313 6.96888 5.92313C6.17535 5.92313 5.46328 6.06413 4.97656 6.28736Z" fill="#709620"/>
<path fill-rule="evenodd" clip-rule="evenodd" d="M4.97656 6.28765C6.03211 5.24631 5.94283 4.88976 6.25042 3.59613C6.69618 1.72061 8.08792 0.762978 9.87698 0.0585938C9.87698 0.0585938 9.62264 0.48989 10.4782 1.0753C8.40613 0.940834 6.58719 2.51031 6.43301 4.60407C6.38303 5.28119 6.60767 5.54525 6.74955 5.92727C6.04485 5.95043 5.41797 6.08522 4.97656 6.28765Z" fill="#75A710"/>
<path fill-rule="evenodd" clip-rule="evenodd" d="M9.54788 12.2957C10.1161 12.3821 10.4493 13.2896 10.2919 14.3223C10.1347 15.3552 9.54654 16.1224 8.97828 16.0357C8.41009 15.9493 8.07697 15.0418 8.23428 14.0091C8.39153 12.9762 8.97969 12.2092 9.54788 12.2957Z" fill="#FF543F"/>
<path fill-rule="evenodd" clip-rule="evenodd" d="M9.61422 7.26336C9.4948 6.71405 8.35579 6.2832 6.96808 6.2832C5.66619 6.2832 4.58305 6.6626 4.35547 7.16288C5.00052 6.86234 5.89576 6.67623 6.88552 6.67623C7.98145 6.67616 8.96148 6.90445 9.61422 7.26336Z" fill="#D2220E"/>
<path fill-rule="evenodd" clip-rule="evenodd" d="M10.2572 8.96366C10.5324 9.00193 10.699 9.43815 10.6294 9.93818C10.5599 10.4385 10.2803 10.813 10.0052 10.7745C9.73014 10.7364 9.56342 10.2998 9.63298 9.79982C9.70255 9.29953 9.98204 8.92519 10.2572 8.96366Z" fill="#FF543F"/>
</svg>
