<svg width="454" height="569" viewBox="0 0 454 569" fill="none" xmlns="http://www.w3.org/2000/svg">
<rect width="454" height="568.423" rx="14.7642" fill="#F5FCFE"/>
<path d="M221.286 29.2587C221.286 29.797 221.217 30.2833 221.078 30.7178C220.94 31.1484 220.746 31.5329 220.496 31.8712C220.25 32.2058 219.956 32.4941 219.613 32.7363C219.271 32.9786 218.896 33.1785 218.489 33.3361C218.081 33.4899 217.647 33.6053 217.185 33.6822C216.728 33.7552 216.257 33.7918 215.772 33.7918C215.592 33.7918 215.415 33.7879 215.242 33.7802C215.069 33.7687 214.892 33.7533 214.711 33.7341L214.873 25.9944C215.296 25.8598 215.73 25.7656 216.176 25.7118C216.626 25.6541 217.072 25.6253 217.514 25.6253C218.064 25.6253 218.57 25.708 219.031 25.8733C219.492 26.0386 219.89 26.277 220.225 26.5884C220.559 26.8999 220.819 27.2805 221.003 27.7303C221.192 28.1802 221.286 28.6896 221.286 29.2587ZM218.921 29.6278C218.925 29.4202 218.902 29.2202 218.852 29.028C218.806 28.8357 218.727 28.6666 218.616 28.5205C218.508 28.3705 218.37 28.2513 218.2 28.1629C218.031 28.0706 217.829 28.0206 217.595 28.0129L217.364 31.5887C217.595 31.554 217.804 31.4791 217.993 31.3637C218.181 31.2445 218.343 31.1004 218.477 30.9312C218.616 30.7582 218.721 30.5678 218.794 30.3602C218.871 30.1488 218.914 29.9315 218.921 29.7085V29.6278ZM227.099 25.5215C227.076 25.8829 227.055 26.2405 227.036 26.5942C227.017 26.9479 226.992 27.3055 226.961 27.6669L224.516 27.7938L224.458 28.5205H226.177L226.05 30.3083L224.32 30.366L224.262 31.208H225.692H226.707C226.684 31.6309 226.659 32.052 226.632 32.471C226.609 32.8863 226.588 33.3035 226.569 33.7225L221.597 33.8379L221.782 25.5215H227.099ZM232.763 25.5215C232.74 25.8829 232.719 26.2405 232.699 26.5942C232.68 26.9479 232.655 27.3055 232.624 27.6669L230.179 27.7938L230.121 28.5205H231.84L231.713 30.3083L229.983 30.366L229.925 31.208H231.356H232.371C232.348 31.6309 232.323 32.052 232.296 32.471C232.273 32.8863 232.251 33.3035 232.232 33.7225L227.261 33.8379L227.445 25.5215H232.763ZM239.684 28.2898C239.684 28.6627 239.628 28.9934 239.516 29.2817C239.405 29.5701 239.251 29.8219 239.055 30.0373C238.863 30.2526 238.636 30.4352 238.374 30.5851C238.113 30.7351 237.832 30.8581 237.532 30.9543C237.236 31.0465 236.929 31.1157 236.61 31.1619C236.29 31.2042 235.977 31.2272 235.67 31.2311V33.9186H232.982C232.982 33.0382 232.984 32.1615 232.988 31.2888C232.992 30.416 232.997 29.5355 233.005 28.6473C233.013 28.1783 233.015 27.7092 233.011 27.2401C233.007 26.7711 233.017 26.2981 233.04 25.8214C233.532 25.6753 234.024 25.5657 234.516 25.4926C235.008 25.4196 235.516 25.3831 236.039 25.3831C236.335 25.3831 236.631 25.4081 236.927 25.458C237.223 25.5042 237.505 25.5792 237.775 25.683C238.048 25.7868 238.299 25.9175 238.53 26.0751C238.765 26.2289 238.966 26.4135 239.136 26.6288C239.305 26.8441 239.437 27.0902 239.534 27.367C239.634 27.64 239.684 27.9476 239.684 28.2898ZM237.123 28.4859C237.123 28.2359 237.046 28.0418 236.892 27.9034C236.742 27.7611 236.546 27.69 236.304 27.69C236.223 27.69 236.139 27.6977 236.05 27.713C235.966 27.7246 235.885 27.74 235.808 27.7592L235.739 29.4432C235.793 29.4509 235.844 29.4548 235.894 29.4548C235.944 29.4548 235.996 29.4548 236.05 29.4548C236.189 29.4548 236.321 29.4317 236.448 29.3856C236.579 29.3394 236.694 29.2741 236.794 29.1895C236.894 29.101 236.973 28.9991 237.031 28.8838C237.092 28.7646 237.123 28.632 237.123 28.4859Z" fill="#4AC7F5"/>
<path d="M243.416 435.037L245.765 440.333L239.023 442.12L243.416 435.037Z" fill="#2E99FF"/>
<path d="M201.848 472.256V479.39L209.213 476.72L201.848 472.256Z" fill="#40B0FF"/>
<path d="M256.184 440.804L252.685 449.865L233.12 454.807L228.88 452.688L224.331 450.414L220.352 448.423L225.293 439.218L242.633 435.219L243.416 435.037L241.297 440.804L247.792 437.012L248.624 437.389L256.184 440.804Z" fill="#B6E9FF"/>
<path d="M230.24 475.385L225.707 500.525L218.141 498.575L210.262 496.548L201.681 494.339L194.816 492.571L191.343 488.673V488.669L183.078 479.39L196.301 474.368L205.616 476.476L201.85 472.256L214.177 467.574L227.751 474.176H227.754L230.24 475.385Z" fill="#B6E9FF"/>
<path d="M214.172 467.574L220.35 448.422L233.118 454.806L230.235 475.385L214.172 467.574Z" fill="#73D0FF"/>
<path d="M183.078 479.391L188.227 506.78L196.876 516.459L194.816 492.57L183.078 479.391Z" fill="#73D0FF"/>
<path d="M225.707 500.526L223.647 525.237L208.319 520.211L207.123 519.818L206.337 516.985L202.893 518.43L196.876 516.458L194.816 492.572L201.85 494.382L203.631 494.84L225.707 500.526Z" fill="#48B8FF"/>
<path d="M252.681 449.865L265.861 515.869L223.645 525.237L225.704 500.525L230.234 475.387L233.118 454.808L252.681 449.865Z" fill="#40B0FF"/>
<path d="M269.724 501.17L266.713 502.726L267.889 508.155V508.158L267.161 510.92L265.861 515.868L260.026 486.647L259.727 485.149L252.684 449.866L256.183 440.805L271.661 493.801L269.724 501.17Z" fill="#2E99FF"/>
<path d="M269.725 501.169L266.713 502.725L263.77 489.148L260.027 486.646L259.13 486.893L249.039 489.69L259.728 485.148L264.634 488.173L266.908 497.488L269.725 501.169Z" fill="#1B74FF"/>
<path d="M259.728 485.148L259.13 486.893L249.039 489.69L259.728 485.148Z" fill="#2E99FF"/>
<path d="M204.096 508.905L206.334 516.985L202.891 518.43L201.848 494.382L210.259 490.555L203.628 494.84L203.553 494.889L204.096 508.905Z" fill="#2E99FF"/>
<path opacity="0.5" d="M248.622 437.389L228.878 452.688L224.586 472.637V472.64L201.678 494.34L194.813 492.572L191.34 488.674V488.67L219.17 470.005L224.329 450.414L242.63 435.219L243.413 435.037L241.295 440.804L247.79 437.012L248.622 437.389Z" fill="#F4FBFF"/>
<path opacity="0.5" d="M254.385 439.992L236.672 453.91L233.121 454.806L230.239 475.385L229.515 479.391L218.14 498.576L210.262 496.549L227.751 474.177H227.754L227.816 474.095L231.523 454.007L251.257 438.578L254.385 439.992Z" fill="#F4FBFF"/>
<path d="M253.002 449.835C253.671 447.986 254.191 446.518 254.532 445.504C254.88 444.464 255.046 443.896 254.993 443.879C254.945 443.86 254.685 444.389 254.246 445.393C253.882 446.225 253.395 447.382 252.801 448.821C252.693 449.078 252.586 449.341 252.472 449.617C252.398 449.633 252.32 449.653 252.242 449.669C247.631 450.738 240.913 452.356 232.995 454.315L232.667 454.396L232.618 454.734C231.959 459.344 231.247 464.354 230.5 469.591C230.285 471.135 230.071 472.658 229.863 474.159C229.85 474.247 229.837 474.338 229.828 474.426C222.761 471.157 217.462 468.893 217.355 469.12C217.248 469.354 222.501 472.07 229.665 475.514C229.616 475.807 229.564 476.099 229.512 476.388C229.383 477.119 229.252 477.847 229.126 478.565C228.619 481.447 228.135 484.212 227.674 486.827C226.809 491.791 226.056 496.22 225.451 499.871C214.47 497.113 206.117 495.206 206.055 495.466C205.99 495.722 214.294 498.075 225.318 500.94C225.113 503.932 224.967 506.346 224.883 508.033C224.798 509.807 224.782 510.778 224.85 510.784C224.918 510.784 225.065 509.823 225.272 508.065C225.464 506.408 225.714 504.046 226.007 501.119C226.023 500.934 226.042 500.745 226.062 500.553C226.094 500.388 226.127 500.222 226.159 500.05C226.874 496.405 227.716 491.97 228.645 486.992C229.129 484.377 229.639 481.612 230.172 478.737C230.302 478.016 230.435 477.291 230.568 476.557C230.604 476.372 230.637 476.183 230.669 475.995C230.705 475.816 230.737 475.634 230.77 475.452C230.796 475.267 230.822 475.085 230.848 474.9C230.877 474.712 230.903 474.52 230.929 474.332C231.14 472.827 231.355 471.3 231.572 469.757C232.277 464.637 232.953 459.734 233.574 455.212C241.313 453.214 247.863 451.485 252.362 450.251C254.217 459.25 255.722 465.988 255.903 465.988C256.075 465.952 254.821 459.01 253.002 449.835Z" fill="#F5FBFF"/>
</svg>
