<svg width="326" height="409" viewBox="0 0 326 409" fill="none" xmlns="http://www.w3.org/2000/svg">
<rect width="326" height="408.163" rx="10.6016" fill="#F5FCFE"/>
<path d="M159.061 21.2646C159.061 21.6511 159.011 22.0003 158.912 22.3123C158.812 22.6215 158.673 22.8976 158.493 23.1406C158.317 23.3808 158.105 23.5878 157.86 23.7618C157.614 23.9357 157.345 24.0793 157.052 24.1924C156.76 24.3029 156.448 24.3857 156.116 24.4409C155.788 24.4934 155.45 24.5196 155.102 24.5196C154.972 24.5196 154.845 24.5168 154.721 24.5113C154.596 24.503 154.469 24.492 154.34 24.4782L154.456 18.9206C154.759 18.824 155.071 18.7564 155.392 18.7177C155.715 18.6763 156.035 18.6556 156.352 18.6556C156.747 18.6556 157.11 18.7149 157.441 18.8337C157.773 18.9524 158.059 19.1235 158.299 19.3472C158.539 19.5708 158.725 19.8441 158.858 20.1671C158.993 20.4902 159.061 20.856 159.061 21.2646ZM157.363 21.5296C157.366 21.3805 157.349 21.237 157.313 21.0989C157.28 20.9609 157.223 20.8394 157.143 20.7345C157.066 20.6268 156.967 20.5412 156.845 20.4777C156.724 20.4115 156.579 20.3756 156.41 20.3701L156.245 22.9376C156.41 22.9128 156.561 22.859 156.696 22.7761C156.831 22.6905 156.947 22.587 157.044 22.4655C157.143 22.3413 157.219 22.2046 157.272 22.0556C157.327 21.9037 157.357 21.7477 157.363 21.5876V21.5296ZM163.235 18.581C163.219 18.8406 163.203 19.0973 163.19 19.3513C163.176 19.6053 163.158 19.8621 163.136 20.1216L161.38 20.2127L161.338 20.7345H162.572L162.481 22.0183L161.239 22.0597L161.198 22.6643H162.225H162.953C162.937 22.968 162.919 23.2703 162.9 23.5713C162.883 23.8694 162.868 24.169 162.854 24.4699L159.284 24.5527L159.417 18.581H163.235ZM167.302 18.581C167.285 18.8406 167.27 19.0973 167.256 19.3513C167.242 19.6053 167.224 19.8621 167.202 20.1216L165.447 20.2127L165.405 20.7345H166.639L166.548 22.0183L165.306 22.0597L165.264 22.6643H166.291H167.02C167.004 22.968 166.986 23.2703 166.966 23.5713C166.95 23.8694 166.935 24.169 166.921 24.4699L163.351 24.5527L163.484 18.581H167.302ZM172.271 20.5688C172.271 20.8366 172.231 21.0741 172.151 21.2811C172.071 21.4882 171.961 21.669 171.82 21.8236C171.682 21.9783 171.519 22.1094 171.331 22.2171C171.144 22.3247 170.942 22.4131 170.727 22.4821C170.514 22.5484 170.293 22.5981 170.064 22.6312C169.835 22.6616 169.61 22.6781 169.389 22.6809V24.6107H167.459C167.459 23.9785 167.461 23.349 167.463 22.7223C167.466 22.0956 167.47 21.4634 167.476 20.8256C167.481 20.4888 167.483 20.152 167.48 19.8151C167.477 19.4783 167.484 19.1387 167.501 18.7964C167.854 18.6915 168.207 18.6128 168.561 18.5603C168.914 18.5079 169.279 18.4816 169.654 18.4816C169.867 18.4816 170.079 18.4996 170.292 18.5355C170.504 18.5686 170.707 18.6224 170.901 18.697C171.097 18.7715 171.277 18.8654 171.443 18.9786C171.611 19.089 171.756 19.2216 171.878 19.3762C171.999 19.5308 172.095 19.7075 172.164 19.9062C172.235 20.1023 172.271 20.3231 172.271 20.5688ZM170.433 20.7096C170.433 20.5302 170.377 20.3908 170.267 20.2914C170.159 20.1892 170.018 20.1382 169.845 20.1382C169.787 20.1382 169.726 20.1437 169.662 20.1547C169.602 20.163 169.544 20.174 169.488 20.1878L169.439 21.3971C169.477 21.4026 169.515 21.4054 169.551 21.4054C169.586 21.4054 169.624 21.4054 169.662 21.4054C169.762 21.4054 169.857 21.3888 169.948 21.3557C170.042 21.3226 170.125 21.2756 170.197 21.2149C170.268 21.1514 170.325 21.0782 170.366 20.9954C170.411 20.9098 170.433 20.8146 170.433 20.7096Z" fill="#4AC7F5"/>
<path d="M174.787 312.383L176.474 316.185L171.633 317.469L174.787 312.383Z" fill="#2E99FF"/>
<path d="M144.938 339.107V344.23L150.226 342.313L144.938 339.107Z" fill="#40B0FF"/>
<path d="M183.956 316.524L181.444 323.03L167.395 326.579L164.35 325.058L161.084 323.425L158.227 321.994L161.775 315.385L174.226 312.513L174.788 312.383L173.267 316.524L177.93 313.801L178.528 314.072L183.956 316.524Z" fill="#B6E9FF"/>
<path d="M165.326 341.354L162.071 359.407L156.638 358.007L150.98 356.551L144.819 354.965L139.89 353.696L137.396 350.896V350.894L131.461 344.231L140.956 340.624L147.644 342.138L144.941 339.108L153.792 335.746L163.539 340.487H163.541L165.326 341.354Z" fill="#B6E9FF"/>
<path d="M153.789 335.746L158.225 321.994L167.393 326.578L165.323 341.356L153.789 335.746Z" fill="#73D0FF"/>
<path d="M131.461 344.23L135.158 363.898L141.368 370.848L139.89 353.694L131.461 344.23Z" fill="#73D0FF"/>
<path d="M162.072 359.408L160.593 377.152L149.586 373.543L148.728 373.261L148.163 371.227L145.69 372.265L141.37 370.849L139.891 353.697L144.941 354.997L146.22 355.326L162.072 359.408Z" fill="#48B8FF"/>
<path d="M181.44 323.029L190.904 370.424L160.59 377.151L162.069 359.406L165.322 341.356L167.392 326.578L181.44 323.029Z" fill="#40B0FF"/>
<path d="M193.678 359.869L191.515 360.987L192.36 364.885V364.887L191.837 366.87L190.904 370.423L186.714 349.441L186.499 348.366L181.441 323.03L183.954 316.523L195.068 354.578L193.678 359.869Z" fill="#2E99FF"/>
<path d="M193.678 359.869L191.515 360.986L189.402 351.237L186.714 349.441L186.07 349.618L178.824 351.627L186.5 348.365L190.022 350.537L191.655 357.226L193.678 359.869Z" fill="#1B74FF"/>
<path d="M186.5 348.365L186.07 349.618L178.824 351.627L186.5 348.365Z" fill="#2E99FF"/>
<path d="M146.552 365.424L148.159 371.226L145.686 372.265L144.938 354.996L150.977 352.248L146.216 355.325L146.162 355.36L146.552 365.424Z" fill="#2E99FF"/>
<path opacity="0.5" d="M178.526 314.072L164.349 325.058L161.267 339.382V339.384L144.818 354.966L139.888 353.697L137.395 350.897V350.895L157.378 337.492L161.083 323.425L174.224 312.513L174.787 312.383L173.266 316.524L177.929 313.801L178.526 314.072Z" fill="#F4FBFF"/>
<path opacity="0.5" d="M182.664 315.941L169.945 325.935L167.395 326.579L165.326 341.356L164.805 344.232L156.638 358.008L150.98 356.552L163.539 340.488H163.541L163.585 340.429L166.247 326.005L180.417 314.926L182.664 315.941Z" fill="#F4FBFF"/>
<path d="M181.672 323.009C182.153 321.682 182.526 320.627 182.771 319.899C183.02 319.153 183.139 318.744 183.102 318.733C183.067 318.719 182.88 319.099 182.565 319.82C182.304 320.417 181.954 321.248 181.527 322.281C181.45 322.465 181.373 322.654 181.292 322.853C181.238 322.864 181.182 322.878 181.126 322.89C177.816 323.657 172.991 324.819 167.306 326.226L167.07 326.284L167.035 326.527C166.562 329.838 166.051 333.435 165.514 337.196C165.36 338.304 165.206 339.398 165.057 340.476C165.048 340.539 165.038 340.604 165.031 340.667C159.957 338.32 156.152 336.694 156.075 336.857C155.998 337.025 159.771 338.976 164.915 341.449C164.88 341.658 164.842 341.868 164.805 342.076C164.712 342.601 164.618 343.124 164.527 343.639C164.163 345.708 163.816 347.694 163.485 349.572C162.864 353.136 162.323 356.316 161.889 358.938C154.004 356.958 148.006 355.588 147.961 355.775C147.915 355.959 153.878 357.648 161.793 359.706C161.646 361.855 161.541 363.588 161.481 364.799C161.42 366.073 161.408 366.77 161.457 366.775C161.506 366.775 161.611 366.084 161.76 364.822C161.898 363.632 162.078 361.936 162.288 359.834C162.299 359.701 162.313 359.566 162.327 359.428C162.351 359.309 162.374 359.19 162.397 359.067C162.911 356.449 163.515 353.265 164.182 349.691C164.53 347.813 164.896 345.827 165.279 343.763C165.372 343.245 165.468 342.724 165.563 342.197C165.589 342.064 165.612 341.929 165.636 341.794C165.661 341.665 165.685 341.535 165.708 341.404C165.727 341.271 165.745 341.14 165.764 341.008C165.785 340.872 165.804 340.735 165.822 340.599C165.974 339.519 166.128 338.423 166.284 337.315C166.79 333.638 167.276 330.118 167.721 326.87C173.278 325.435 177.982 324.194 181.213 323.308C182.545 329.77 183.625 334.608 183.755 334.608C183.879 334.583 182.978 329.597 181.672 323.009Z" fill="#F5FBFF"/>
</svg>
