<svg width="170" height="213" viewBox="0 0 170 213" fill="none" xmlns="http://www.w3.org/2000/svg">
<g clip-path="url(#clip0_1061_41183)">
<rect width="170" height="212.846" rx="5.52846" fill="white"/>
<g clip-path="url(#clip1_1061_41183)">
<path d="M183.544 -4.97656H-37.5938V216.162H183.544V-4.97656Z" fill="#4AC7F5"/>
<path d="M183.544 96.1843C182.484 95.8426 181.417 95.5073 180.34 95.18C181.431 95.5983 182.5 96.0071 183.544 96.4029V96.1843ZM155.261 7.84757C150.637 5.67903 146.013 3.5105 141.389 1.34196C145.968 3.78775 150.752 6.43146 155.261 7.84757ZM126.789 41.9421C135.272 32.74 143.754 23.5376 152.235 14.3355C143.262 22.4598 129.671 33.5353 126.789 41.9421ZM183.544 52.7865C183.049 51.6675 182.544 50.5546 182.028 49.4489C182.533 50.891 183.039 52.3334 183.544 53.7755V52.7865ZM132.679 85.5895C131.064 86.0899 129.566 86.7762 128.215 87.6851C130.107 87.3205 131.571 86.599 132.679 85.5895ZM162.085 14.9046C167.78 23.5091 172.949 31.8366 177.489 40.3734C177.66 34.7883 168.219 22.7216 162.085 14.9046ZM178.97 40.7247C178.691 41.0133 178.413 41.3019 178.135 41.5905C179.492 44.1833 180.789 46.7994 182.028 49.4489L178.97 40.7247ZM183.544 118.717V118.035C176.415 119.055 169.286 120.075 162.157 121.096C166.403 122.048 175.367 120.468 183.544 118.717ZM183.544 7.87494V7.85393C175.727 8.35259 167.521 8.51181 159.84 8.86121C167.028 9.87126 175.484 8.8684 183.544 7.87494ZM139.148 84.5518C152.435 88.1044 166.988 91.123 180.34 95.18C167.412 90.2304 151.381 84.0703 139.148 84.5518ZM141.389 1.34196C137.992 -0.471926 134.707 -2.17607 131.73 -3.18695C134.95 -1.67741 138.169 -0.167861 141.389 1.34196ZM110.431 -1.67492C110.739 -2.55118 110.974 -3.33373 111.104 -3.99023C110.873 -3.29337 110.651 -2.51248 110.431 -1.67492ZM-37.5938 100.948V101.793C-31.6471 108.383 -24.3589 117.493 -17.7143 120.108C-20.1025 114.685 -30.3877 106.686 -37.5938 100.948ZM35.0247 216.162C32.1508 212.118 29.2768 208.075 26.4028 204.031C27.5552 207.549 30.4485 211.884 33.7501 216.162H35.0247ZM83.6834 216.162C82.3154 214.775 80.9479 213.388 79.5805 212.002C80.6992 213.377 81.5146 214.72 81.9945 216.162H83.6834ZM103.359 20.0768C107.111 15.499 108.68 4.99516 110.431 -1.67492C108.302 4.3757 102.637 14.9431 103.359 20.0768ZM14.8348 94.8751C7.45708 87.4463 0.194073 79.9196 -7.04737 72.3121C0.997081 81.1198 10.2072 90.9502 14.8348 94.8751ZM74.4329 206.782C76.149 208.522 77.865 210.262 79.5805 212.002C78.2619 210.381 76.5254 208.712 74.4329 206.782ZM139.096 205.484C143.56 208.012 148.497 209.657 153.739 210.688C148.858 208.954 143.977 207.219 139.096 205.484ZM132.854 216.162H133.428C132.303 211.412 131.005 206.512 129.473 202.065C129.272 201.993 129.071 201.922 128.869 201.85C130.198 206.621 131.526 211.391 132.854 216.162ZM17.2659 97.5144C18.1093 98.2984 18.9355 99.0566 19.7493 99.7935C18.956 99.0054 18.1663 98.2146 17.3762 97.4243C17.34 97.4536 17.3019 97.4857 17.2659 97.5144ZM60.9128 9.04089C54.871 6.85798 47.7786 5.77468 39.2042 4.68032C47.1688 6.8237 54.9484 7.35885 60.9128 9.04089ZM-18.3318 47.1745C-14.4773 37.3223 -10.6226 27.4697 -6.76791 17.6175C-12.387 25.4704 -15.1209 36.666 -18.3318 47.1745ZM67.775 12.3135C70.9456 14.9467 72.4861 19.1096 71.5617 26.2081C70.6459 33.2439 70.2891 38.9606 69.7172 43.8096C70.8969 34.7477 72.077 25.6851 73.257 16.6229C71.5357 14.9367 69.7158 13.5184 67.775 12.3135ZM87.5285 27.0769C92.4709 25.8286 98.8206 23.2877 101.729 21.4589C96.9951 23.3317 92.2619 25.2044 87.5285 27.0769ZM73.5503 14.3692C73.4525 15.1205 73.3546 15.8718 73.2568 16.6232C74.6602 17.9984 75.9986 19.551 77.282 21.3146C76.042 19.007 74.8 16.695 73.5503 14.3692ZM67.775 12.3135C65.9667 10.8114 63.6287 9.80658 60.9128 9.04089C63.3633 9.92627 65.6435 10.9902 67.775 12.3135ZM47.2631 52.3859C48.2054 57.659 49.1474 62.932 50.0898 68.205C50.1362 64.3047 48.565 57.5666 47.2631 52.3859ZM69.4225 46.0705C69.5284 45.338 69.6257 44.585 69.7172 43.8096C69.619 44.5634 69.5209 45.317 69.4225 46.0705ZM157.804 8.51458C156.968 8.34403 156.119 8.11708 155.261 7.84757C155.949 8.17016 156.636 8.49246 157.324 8.81477C155.628 10.6549 153.932 12.4953 152.235 14.3355C154.378 12.3956 156.257 10.624 157.664 9.09755C158.532 10.3791 160.143 12.429 162.085 14.9046C160.781 12.934 159.452 10.9496 158.094 8.94359C158.672 8.91456 159.256 8.88803 159.84 8.86149C159.149 8.76447 158.469 8.65058 157.804 8.51458ZM97.3213 57.5174C97.4852 57.4362 97.6483 57.3543 97.8119 57.2731C97.5297 57.2634 97.2663 57.2338 97.0435 57.1619C96.8207 57.0898 96.5918 56.9745 96.3582 56.82C96.4412 56.9745 96.523 57.1268 96.6062 57.2816C96.16 57.3458 95.7133 57.4102 95.2666 57.4743C96.3002 57.6244 97.0921 57.9138 97.554 58.3832C107.087 68.0712 116.621 77.7599 126.155 87.4479C114.326 82.2694 102.496 77.0912 90.6689 71.9108C83.0963 68.5575 75.5234 65.2042 67.9511 61.8512C69.2851 61.6593 71.6601 61.1112 74.5095 60.4608C72.145 60.8011 69.7807 61.1411 67.4159 61.4813C68.0846 56.3446 68.7536 51.2075 69.4225 46.0708C68.2695 54.0655 66.0822 59.6354 58.7443 65.1575C63.6126 63.0885 68.1092 62.4043 71.7458 64.0145C83.13 69.0556 89.796 68.5865 91.3542 80.6966C91.3566 80.7181 91.3597 80.7397 91.3622 80.7613C91.1687 77.2855 90.9843 74.3599 90.735 72.4216C107.225 79.6418 122.927 84.3183 135.742 96.864C136.878 97.9758 138.629 99.4256 140.688 101.086C136.295 96.786 131.903 92.4866 127.511 88.1868C127.741 88.0124 127.976 87.8457 128.215 87.6848C127.879 87.7495 127.534 87.8073 127.171 87.8493C117.221 77.7386 107.271 67.6279 97.3213 57.5174ZM47.2631 52.3859C45.7942 44.1659 44.3252 35.9457 42.8563 27.726C40.9015 16.7857 41.8759 9.53679 38.5668 6.23381C40.9194 19.3993 43.2721 32.5647 45.6244 45.7302C45.8138 46.7897 46.491 49.3143 47.2631 52.3859ZM176.126 167.532C176.576 169.159 177.002 170.538 177.515 171.677C177.052 170.295 176.589 168.914 176.126 167.532ZM58.7446 65.1575C56.0381 66.3077 53.2175 67.8855 50.3642 69.7392C50.3963 69.9178 50.4278 70.0963 50.4599 70.2746C53.7806 68.5279 56.5025 66.8445 58.7446 65.1575ZM49.2834 71.142C49.5588 70.9203 49.7556 70.5474 49.8863 70.0513C40.7193 76.0964 31.2753 84.8736 24.3078 91.2709C32.6328 84.561 40.9581 77.8516 49.2834 71.142ZM-18.3318 47.1745C-19.5008 50.1624 -20.6698 53.1499 -21.8388 56.1381C-27.0905 52.8708 -32.3423 49.6037 -37.5938 46.3367V47.1223C-32.428 50.3462 -26.9504 53.4792 -22.048 56.5289C-27.2298 63.7093 -32.4119 70.8897 -37.5938 78.0697V79.3363C-32.1839 71.9282 -26.9001 64.0078 -21.7075 56.8126C-16.8101 62.0115 -11.9331 67.1795 -7.04737 72.3121C-13.8363 64.8788 -19.7927 58.1767 -21.457 56.3755C-20.3104 53.4449 -19.2993 50.3409 -18.3318 47.1745ZM50.364 69.7389C50.2728 69.2275 50.1813 68.7161 50.0898 68.2048C50.0815 68.9265 50.0176 69.5515 49.8863 70.051C50.0458 69.9459 50.2048 69.8426 50.364 69.7389ZM38.5665 6.23381C38.4341 5.493 38.3017 4.75274 38.1693 4.01193C38.075 3.48507 34.9979 3.68603 30.877 4.19492C34.7356 4.06528 37.0827 4.75246 38.5665 6.23381ZM183.544 211.853C183.368 211.883 183.199 211.916 183.02 211.945C183.195 211.936 183.369 211.925 183.544 211.916V211.853ZM17.7201 96.5801C17.4053 96.8339 16.3714 96.1785 14.8348 94.8751C15.6801 95.7262 16.5276 96.5757 17.3762 97.424C19.1854 95.9562 21.5524 93.8004 24.3078 91.2706C22.1119 93.0405 19.916 94.8102 17.7201 96.5801ZM-22.0823 216.162C-17.6037 201.38 -13.8734 182.655 -12.6646 168.4C-16.022 184.321 -19.3794 200.241 -22.7369 216.162H-22.0823ZM158.779 216.162H159.432C160.313 215.355 161.194 214.547 162.076 213.739C162.793 214.574 163.456 215.379 164.087 216.162H164.676C164.014 215.348 163.313 214.502 162.552 213.617C171.515 213.09 177.97 212.747 183.02 211.945C172.949 212.423 162.884 212.487 153.739 210.688C156.384 211.628 159.029 212.568 161.674 213.508C160.709 214.393 159.744 215.277 158.779 216.162ZM174.213 172.179C176.223 174.35 177.945 176.192 179.205 177.345C163.429 179.552 147.654 181.761 131.878 183.968C117.201 186.023 114.833 182.761 102.308 173.2C103.539 172.657 104.771 172.114 106.003 171.571C103.215 172.125 101.143 172.03 100.184 170.995C85.5429 155.192 70.903 139.388 56.2626 123.585C69.7161 122.575 83.1701 121.564 96.6236 120.554C114.65 130.832 132.676 141.111 150.702 151.389C149.096 152.097 146.29 153.545 142.794 155.359C144.543 154.588 146.291 153.817 148.04 153.047C149.788 152.276 152.01 152.792 154.474 154.116C153.725 153.43 152.975 152.744 152.225 152.058C151.735 151.609 151.595 150.621 151.708 149.265C151.46 149.92 151.241 150.533 151.066 151.086C133.781 141.23 116.495 131.375 99.2093 121.519C97.9435 120.797 96.9003 119.228 96.0332 117.074L96.4257 120.125C58.1884 122.996 46.8059 124.296 19.749 99.793C26.0603 106.063 32.4703 112.258 39.0392 118.367C21.3993 119.188 3.75937 120.008 -13.8803 120.828C-15.1233 120.886 -16.4068 120.623 -17.7148 120.108C-17.4519 120.705 -17.2828 121.272 -17.2261 121.801C-15.4888 138.026 -13.7515 154.251 -12.0141 170.475C-10.3835 185.704 -8.75318 200.933 -7.12256 216.161H-6.67725C-10.0593 184.577 -13.4413 152.993 -16.8231 121.408C1.8855 120.539 20.5941 119.669 39.3029 118.799C34.4509 143.232 29.5991 167.055 24.7216 191.539C23.4307 198.02 22.1653 204.478 20.8981 210.967C20.4937 213.039 20.0128 214.751 19.4519 216.161H20.408C21.4736 210.82 22.5409 205.474 23.6082 200.099L26.4023 204.031C25.3958 200.958 25.7145 198.508 28.2549 197.268C48.6421 187.318 49.4089 182.036 65.0564 197.904C68.6571 201.555 71.8216 204.373 74.4327 206.782C67.3745 199.624 60.316 192.467 53.2576 185.309C74.8697 185.588 96.4815 185.866 118.094 186.144C108.089 196.15 98.0834 206.156 88.0783 216.162H88.7027C98.6238 206.241 108.545 196.32 118.465 186.4C119.892 196.32 121.32 206.241 122.747 216.162H123.474C122.173 206.196 120.267 195.822 118.873 186.128C123.346 187.793 126.772 194.22 129.474 202.065C132.682 203.205 135.889 204.345 139.096 205.484C132.035 201.487 126.162 195.279 122.162 185.775C141.291 183.097 160.42 180.42 179.548 177.743C180.884 180.715 182.215 183.696 183.544 186.679V185.611C182.368 182.963 181.192 180.315 180.016 177.668C181.226 177.454 182.402 177.285 183.544 177.145V175.85C180.257 175.585 178.666 174.234 177.515 171.677C178.083 173.371 178.65 175.065 179.218 176.759L174.213 172.179ZM101.363 172.92C85.5811 172.714 69.799 172.508 54.0172 172.302L55.9886 123.94C71.1137 140.267 86.2381 156.593 101.363 172.92ZM23.8407 198.931C26.8808 183.622 29.9208 168.314 32.9609 153.005C33.3836 153.407 33.7977 153.804 34.2054 154.195C33.4953 153.077 33.1409 152.099 33.2915 151.339C35.4427 140.508 37.5938 129.677 39.7446 118.845C54.5142 123.25 55.6588 121.166 55.0491 136.126C54.5612 148.091 54.0736 160.057 53.5857 172.023C51.9401 170.457 47.5342 167.081 43.2428 163.414C59.0132 181.007 51.4202 185.472 23.8407 198.931ZM52.9629 184.863C53.2822 181.095 52.7047 176.265 53.9898 172.743C80.2666 173.087 97.0684 169.756 117.954 185.7C96.2905 185.421 74.6267 185.142 52.9629 184.863ZM43.2428 163.414C40.7956 160.684 37.7906 157.641 34.2054 154.195C35.8736 156.823 39.5138 160.227 43.2428 163.414ZM9.28644 7.56894C11.1352 7.29721 22.942 5.17484 30.8773 4.19464C29.4252 4.24357 27.7623 4.40638 25.8475 4.68778C18.4833 5.77025 -1.58305 4.36492 -4.60988 12.1017C-5.32941 13.9402 -6.04866 15.779 -6.76791 17.6175C-3.02708 12.3892 1.99192 8.6409 9.28644 7.56894ZM82.131 29.4077C96.6432 33.9024 111.155 38.3973 125.667 42.8919C124.498 43.4746 122.562 44.6552 120.229 46.0973C122.191 45.1196 124.151 44.1419 126.112 43.1642C126.176 43.413 126.247 43.6733 126.322 43.939C126.367 43.5763 126.424 43.2266 126.503 42.9054C126.582 42.5887 126.678 42.2675 126.789 41.9424L126.25 42.5273C125.079 41.3992 123.333 39.9848 121.323 38.3975C122.693 39.7172 124.064 41.0368 125.435 42.3565C111.126 37.9254 96.8182 33.4938 82.5097 29.0625C84.1826 28.4007 85.8553 27.739 87.5285 27.0769C84.1743 27.9242 81.4701 28.1771 80.9455 27.1994C79.7704 25.0123 78.5527 23.0611 77.282 21.3146C79.7618 25.93 82.2281 30.5212 84.7015 35.1239C83.6406 32.6236 82.7505 30.5604 82.131 29.4077ZM74.5098 60.4605C81.4289 59.4651 88.3483 58.4697 95.2669 57.474C90.6686 56.8065 81.257 58.9205 74.5098 60.4605ZM160.243 120.225C158.099 114.704 147.642 106.695 140.688 101.086C147.194 107.455 153.699 113.824 160.205 120.192C160.217 120.203 160.231 120.214 160.243 120.225ZM154.475 154.116C161.055 160.137 167.634 166.158 174.213 172.179C168.602 166.117 160.752 157.489 154.475 154.116ZM160.675 122.129C159.177 126.543 152.272 142.502 151.708 149.266C154.472 141.967 161.258 128.906 160.675 122.129ZM106.003 171.571C115.196 169.746 132.18 160.866 142.794 155.359C130.53 160.763 118.267 166.167 106.003 171.571ZM91.3624 80.7613C91.9858 91.937 92.7114 108.822 96.0334 117.074C94.4763 104.97 92.9193 92.8655 91.3624 80.7613ZM160.675 122.129C160.717 122.005 160.757 121.886 160.79 121.78C165.902 137.031 171.014 152.282 176.126 167.532C175.391 164.877 174.591 161.562 173.242 157.537C169.188 145.441 165.133 133.345 161.078 121.25C161.438 121.199 161.798 121.147 162.157 121.096C161.323 120.909 160.671 120.625 160.243 120.225C160.363 120.535 160.467 120.839 160.533 121.132C160.603 121.445 160.645 121.782 160.675 122.129ZM136.899 83.7007C136.579 82.445 136.093 80.8837 135.507 79.1182C135.248 81.7904 134.388 84.0313 132.679 85.5895C134.67 84.9731 136.841 84.6428 139.148 84.5518C138.496 84.3774 137.845 84.2019 137.199 84.0244C150.843 69.8796 164.49 55.7353 178.135 41.5905C177.921 41.1842 177.705 40.7789 177.489 40.3734C177.464 41.2016 177.231 41.8893 176.741 42.3974C163.461 56.1652 150.179 69.933 136.899 83.7007ZM121.323 38.3973C115.469 32.7616 109.615 27.1264 103.762 21.4907C105.841 26.5418 114.93 33.3503 121.323 38.3973ZM103.762 21.4907C103.634 21.18 103.524 20.8737 103.451 20.5771C103.412 20.4173 103.383 20.249 103.359 20.0768C103.247 20.2125 103.135 20.3463 103.02 20.4712C102.753 20.7615 102.304 21.0971 101.729 21.4589C102.201 21.272 102.674 21.0852 103.146 20.898C103.352 21.0957 103.557 21.2931 103.762 21.4907ZM135.507 79.1182C136.496 68.874 128.685 52.3334 126.322 43.9387C125.34 51.7952 132.134 68.9588 135.507 79.1182ZM120.229 46.0973C112.756 49.8226 105.284 53.5477 97.8119 57.2731C102.142 57.4199 113.071 50.5212 120.229 46.0973ZM96.3582 56.82C92.3996 49.452 88.5407 42.2697 84.7015 35.1241C87.9365 42.7493 92.7609 54.4436 96.3582 56.82Z" fill="#45B8E6"/>
<path d="M69.6732 -2.58661C72.5535 0.36116 73.6548 4.66064 72.001 11.6254C70.3623 18.5249 69.4161 24.1714 68.3455 28.9336C70.4569 20.0449 72.5676 11.1557 74.6787 2.2671C73.1417 0.411746 71.4785 -1.18736 69.6732 -2.58661ZM75.2041 0.0554372C75.0292 0.79238 74.8539 1.5296 74.6792 2.26682C75.9331 3.77996 77.1037 5.4631 78.1972 7.35023C77.2027 4.92684 76.2064 2.49846 75.2041 0.0554372ZM109.733 -4.97656C106.985 -0.00537617 104.14 5.42384 104.262 8.81804C107.111 5.99687 109.245 0.368071 111.081 -4.97656H109.733ZM87.7767 14.1461C92.8264 13.4172 99.4276 11.5402 102.51 10.0208C97.5985 11.396 92.6879 12.7712 87.7767 14.1461ZM66.1192 -4.97656C67.3595 -4.24542 68.5479 -3.45873 69.6732 -2.58661C68.779 -3.50157 67.7081 -4.28302 66.4996 -4.97656H66.1192ZM46.2972 51.1729C46.214 51.8902 46.0858 52.5055 45.9036 52.9887C46.0731 52.9008 46.2422 52.8143 46.4114 52.7281C46.3733 52.2095 46.3351 51.6912 46.2972 51.1729ZM67.8156 31.1663C67.9978 30.4442 68.1733 29.7001 68.3455 28.9336C68.1689 29.6777 67.9925 30.4221 67.8156 31.1663ZM177.329 37.1815C177.023 37.44 176.716 37.6981 176.409 37.9563C177.491 40.6758 178.511 43.4123 179.468 46.1763C178.755 43.1779 178.043 40.1799 177.329 37.1815ZM45.123 35.1473C45.5144 40.4892 45.9058 45.831 46.2972 51.1729C46.7467 47.2983 45.8818 40.4347 45.123 35.1473ZM183.544 59.6912C182.361 55.0774 180.997 50.5897 179.468 46.1763C180.827 51.8905 182.185 57.605 183.544 63.3195V59.6912ZM163.207 9.75124C167.98 18.8995 172.26 27.7179 175.893 36.6795C176.642 31.1417 168.499 18.1608 163.207 9.75124ZM145.361 -4.97656C149.25 -2.34308 153.259 0.344299 157.151 2.02661C153.276 -0.307506 149.401 -2.64217 145.526 -4.97656H145.361ZM183.544 5.01308V4.88427C176.25 4.5451 168.712 3.9237 161.602 3.50934C168.146 5.13332 175.958 5.143 183.544 5.01308ZM82.1827 15.9014C96.1515 21.874 110.12 27.8467 124.089 33.8194C122.866 34.278 120.818 35.2521 118.348 36.4446C120.4 35.6753 122.452 34.906 124.504 34.1364C124.541 34.3902 124.585 34.6569 124.632 34.9287C124.714 34.5726 124.807 34.231 124.919 33.9194C125.03 33.6126 125.159 33.303 125.303 32.9912C125.105 33.1667 124.905 33.3417 124.707 33.517C123.658 32.2739 122.068 30.6861 120.233 28.899C121.46 30.3539 122.686 31.8081 123.913 33.2629L82.5951 15.597C84.3222 15.1133 86.0493 14.6298 87.7767 14.1461C84.3584 14.6398 81.6523 14.6074 81.2313 13.5822C80.2889 11.2854 79.28 9.21885 78.1967 7.35023C80.1856 12.1976 82.1639 17.0198 84.147 21.8539C83.3509 19.2566 82.6792 17.1121 82.1827 15.9014ZM10.6158 76.928C11.3726 77.7946 12.1156 78.6336 12.8481 79.4501C12.1413 78.5849 11.4384 77.717 10.7346 76.8498C10.6956 76.875 10.6542 76.9029 10.6158 76.928ZM43.0385 -4.97656H41.7401C42.5539 6.1348 43.3683 17.2462 44.1823 28.3573C44.2608 29.4309 44.6732 32.0124 45.1233 35.1473C44.5132 26.8192 43.9029 18.4915 43.2928 10.1634C42.8309 3.86123 43.1869 -1.15391 43.0385 -4.97656ZM8.67776 183.819C10.1602 190.677 17.557 201.102 22.4663 208.227C17.8702 200.091 13.2741 191.955 8.67776 183.819ZM-6.59349 200.319C-9.00887 199.857 -11.1594 199.493 -13.0991 199.238C-10.634 199.931 -8.48699 200.393 -6.59349 200.319ZM-37.5938 210.306V210.979C-34.8251 208.193 -31.903 205.207 -29.6734 202.283C-32.1123 204.123 -34.5586 206.756 -37.5938 210.306ZM60.7442 197.249C59.6004 195.501 58.0469 193.662 56.1666 191.527C57.6922 193.434 59.2181 195.342 60.7442 197.249ZM134.641 203.62C129.966 201.39 125.291 199.159 120.615 196.929C124.794 199.905 129.534 202.052 134.641 203.62ZM114.871 216.162H114.944C114.161 208.927 113.164 200.14 111.398 192.532C111.206 192.44 111.013 192.348 110.82 192.256C112.17 200.224 113.521 208.193 114.871 216.162ZM26.9811 216.162H27.5483C27.0969 215.468 26.6403 214.714 26.1753 213.891C25.395 212.509 24.0618 210.542 22.4666 208.227C23.6317 210.289 24.7965 212.351 25.9616 214.414C26.3116 215.034 26.6508 215.615 26.9811 216.162ZM-19.5798 23.1732C-21.0518 26.024 -22.524 28.8753 -23.996 31.7257C-28.5287 28.2063 -33.0612 24.6869 -37.5938 21.1678V22.0078C-33.1257 25.4465 -28.4466 28.8305 -24.2445 32.0931C-28.6943 37.077 -33.1439 42.0609 -37.5938 47.0451V48.1223C-32.9731 42.8332 -28.4066 37.4181 -23.9351 32.4102C-19.6014 38.089 -15.2848 43.7352 -10.9557 49.3466C-16.9394 41.2496 -22.1713 33.9656 -23.6405 32.0013C-22.197 29.2053 -20.8702 26.2224 -19.5798 23.1732ZM11.1642 76.0454C10.8247 76.2652 9.86444 75.5064 8.47099 74.0513C9.22369 74.9853 9.97888 75.9177 10.7349 76.8495C12.6867 75.5769 15.2646 73.677 18.2674 71.4458C15.8993 72.9793 13.5317 74.5127 11.1642 76.0454ZM-37.5938 84.8843C-34.0591 89.5404 -30.2929 93.8202 -26.5153 95.7801C-27.7589 91.9121 -32.572 86.4544 -37.5938 81.3251V84.8843ZM-5.06183 -4.97656C-11.437 2.25245 -15.308 13.0769 -19.5798 23.1732C-14.735 13.7901 -9.89011 4.40661 -5.04497 -4.97656H-5.06183ZM133.185 76.6513C146.033 81.5601 160.194 86.0685 173.054 91.4861C160.708 85.2246 145.402 77.4386 133.185 76.6513ZM8.47071 74.0516C1.90236 65.8993 -4.54161 57.6622 -10.956 49.3471C-3.86714 58.9396 4.27462 69.6686 8.47071 74.0516ZM125.303 32.9912C134.693 24.7162 144.082 16.4415 153.47 8.16679C143.704 15.3184 129.039 24.9274 125.303 32.9912ZM93.495 44.6386C90.3206 36.9009 87.2258 29.3582 84.1472 21.8541C86.5753 29.7725 90.1633 41.902 93.495 44.6386ZM71.3878 45.9986C78.3728 45.7246 85.3574 45.4507 92.3423 45.1767C87.838 44.0368 78.2581 45.1654 71.3878 45.9986ZM94.3812 45.4324L94.8946 45.2401C94.6151 45.2014 94.3564 45.145 94.1421 45.0499C93.9279 44.9551 93.7118 44.8166 93.495 44.6386C93.5614 44.8011 93.6269 44.9611 93.6941 45.1237C93.2438 45.1414 92.7926 45.1591 92.3421 45.1767C93.3546 45.433 94.112 45.8028 94.523 46.3173L119.962 78.1866C108.733 71.8112 97.5018 65.4363 86.2749 59.0595C79.0901 54.9406 71.905 50.8216 64.7203 46.7023C66.067 46.6495 68.486 46.3504 71.3878 45.9986C69.0007 46.092 66.6138 46.1857 64.2266 46.2794C65.4229 41.2416 66.6193 36.2041 67.8156 31.1663C65.8414 38.9951 63.0883 44.3066 55.2207 49.0384C60.2773 47.4843 64.8206 47.2695 68.2706 49.2476C79.0716 55.4401 85.7508 55.6634 86.0465 67.8697C86.0468 67.8912 86.0474 67.9128 86.0482 67.9344C86.2152 64.457 86.3351 61.5285 86.2876 59.5751C101.941 68.4632 117.075 74.7399 128.523 88.5447C129.537 89.7682 131.129 91.3916 133.005 93.2561C129.081 88.5248 125.158 83.7936 121.234 79.0623C121.481 78.9125 121.732 78.771 121.986 78.6358C121.645 78.6654 121.296 78.6872 120.93 78.6911C112.081 67.6049 103.231 56.5187 94.3812 45.4324ZM130.125 70.8694C132.17 60.7827 126.113 43.5221 124.632 34.9287C122.841 42.6408 127.823 60.4154 130.125 70.8694ZM55.2207 49.0384C52.41 49.9022 49.441 51.1795 46.4111 52.7281C46.4244 52.9088 46.4377 53.0896 46.4506 53.2701C49.935 51.8767 52.8161 50.4846 55.2207 49.0384ZM150.474 114.316C148.913 108.604 139.341 99.5546 133.005 93.2561C138.816 100.264 144.628 107.272 150.44 114.28C150.45 114.292 150.463 114.304 150.474 114.316ZM158.992 167.438C160.765 169.805 162.288 171.816 163.421 173.092C147.502 173.655 131.583 174.218 115.663 174.781C100.852 175.305 98.835 171.816 87.3665 161.009C88.6474 160.597 89.9292 160.185 91.2098 159.772C88.3807 160.034 86.3293 159.725 85.4824 158.596C72.5563 141.362 59.6302 124.129 46.7044 106.895L87.1625 108.058C104.028 120.147 120.893 132.236 137.759 144.325C136.087 144.863 133.147 146.012 129.483 147.454C131.302 146.869 133.12 146.284 134.939 145.698C136.757 145.113 138.914 145.856 141.228 147.428C140.554 146.668 139.879 145.908 139.205 145.149C138.763 144.651 138.726 143.654 138.979 142.317C138.664 142.942 138.383 143.53 138.152 144.062C121.98 132.47 105.807 120.878 89.6348 109.286C88.4506 108.437 87.5752 106.768 86.9352 104.535C86.9604 105.561 86.9856 106.586 87.0102 107.612C48.6803 106.509 37.2248 106.623 12.8484 79.4498C18.4775 86.3397 24.2119 93.1662 30.1138 99.9231C12.4838 98.9131 -5.14614 97.9027 -22.7761 96.893C-24.0186 96.8216 -25.2675 96.4272 -26.5153 95.7798C-26.3154 96.4015 -26.206 96.9825 -26.2046 97.5138C-26.1562 113.832 -26.1076 130.149 -26.0592 146.467C-26.0125 162.303 -25.9652 178.138 -25.9182 193.974C-25.9107 196.504 -27.446 199.361 -29.6734 202.283C-25.2846 198.971 -20.9031 198.214 -13.0994 199.238C-16.5453 198.269 -20.6114 196.85 -25.4701 195.821C-25.568 162.936 -25.6656 130.051 -25.7634 97.1655C-7.06507 98.2366 11.6333 99.3078 30.3313 100.379C22.9763 124.179 15.6845 147.372 8.29878 171.22C6.34364 177.533 4.41698 183.824 2.48478 190.148C0.178862 197.695 -2.65917 200.166 -6.59377 200.319C-4.86143 200.651 -2.99558 201.032 -0.972162 201.461C-2.38275 206.078 -4.15821 211.37 -5.42284 216.162H-4.99411C-1.2461 203.956 2.52321 191.856 6.30494 179.619L8.67748 183.819C7.99416 180.658 8.5647 178.253 11.22 177.283C32.5275 169.496 33.8372 164.323 47.7581 181.725C50.9619 185.73 53.8179 188.86 56.1663 191.527C49.8863 183.677 43.606 175.827 37.3262 167.977C58.7932 170.491 80.2605 173.005 101.727 175.519C89.9303 185.093 78.1334 194.666 66.3362 204.239C64.472 201.909 62.6081 199.579 60.7442 197.249C64.1635 202.478 63.9106 206.918 57.7574 216.161H58.2108C62.089 212.223 64.359 206.412 69.104 202.562C80.093 193.645 91.0821 184.728 102.071 175.811C102.598 189.261 103.125 202.711 103.653 216.162H103.997C104.331 203.265 103.021 188.763 102.504 175.582C106.781 177.702 109.523 184.449 111.398 192.532C114.471 193.997 117.543 195.463 120.615 196.928C114.007 192.221 108.807 185.439 105.813 175.572C125.116 174.889 144.419 174.206 163.722 173.524C167.244 184.203 170.712 194.959 174.193 205.682C174.327 205.621 174.462 205.559 174.596 205.495C171.129 194.829 167.662 184.163 164.195 173.497C172.554 172.9 179.233 174.18 183.544 172.696V171.075C181.726 171.611 179.354 171.971 176.26 172.192C166.642 172.879 163.751 171.587 162.328 167.28C162.717 169.024 163.106 170.768 163.496 172.511C161.994 170.82 160.493 169.129 158.992 167.438ZM86.4559 160.634C70.78 158.795 55.1043 156.957 39.4281 155.118C41.7506 139.152 44.0729 123.186 46.3951 107.22C59.7485 125.025 73.1022 142.829 86.4559 160.634ZM6.65738 178.48C11.2656 163.569 15.8741 148.657 20.4824 133.745C20.8614 134.189 21.2323 134.627 21.5975 135.058C21.0068 133.873 20.7552 132.863 20.9841 132.123C24.2448 121.572 27.5055 111.022 30.7659 100.471C45.0005 106.38 46.3545 104.428 44.1997 119.243C42.4757 131.094 40.7519 142.945 39.0284 154.796C37.5537 153.068 33.5207 149.254 29.632 145.162C43.4965 164.293 35.4822 167.948 6.65738 178.48ZM37.0796 167.503C37.787 163.788 37.7126 158.924 39.3554 155.554C65.4553 158.616 82.5119 157.042 101.635 175.062C80.1162 172.542 58.598 170.022 37.0796 167.503ZM183.544 96.3039C180.19 94.6061 176.673 93.0106 173.054 91.4861C176.901 93.4371 180.455 95.2347 183.544 96.6312V96.3039ZM120.233 28.899C114.994 22.6878 109.756 16.4772 104.517 10.2659C106.061 15.505 114.397 23.2177 120.233 28.899ZM104.517 10.2659C104.421 9.94363 104.343 9.62768 104.302 9.32527C104.279 9.16218 104.268 8.99191 104.262 8.81804C104.137 8.94132 104.012 9.06295 103.885 9.17518C103.59 9.43529 103.118 9.72111 102.51 10.0208C102.995 9.88475 103.48 9.74875 103.966 9.61303L104.517 10.2659ZM159.611 2.95373C158.798 2.69721 157.976 2.38402 157.151 2.02661C157.801 2.41857 158.452 2.81054 159.103 3.20251C157.225 4.85718 155.348 6.51184 153.47 8.16679C155.802 6.45905 157.854 4.89173 159.412 3.51874C160.142 4.88288 161.532 7.08818 163.207 9.75096C162.114 7.65623 160.998 5.54547 159.855 3.4101C160.433 3.44079 161.017 3.47506 161.601 3.50906C160.925 3.34127 160.259 3.15773 159.611 2.95373ZM131.036 75.5719C130.847 74.2896 130.525 72.6863 130.125 70.8694C129.592 73.5007 128.505 75.641 126.643 77.0137C128.687 76.6066 130.88 76.5029 133.185 76.6513C132.554 76.4103 131.925 76.1682 131.301 75.9249C146.337 63.2686 161.373 50.6126 176.409 37.9563C176.239 37.5301 176.066 37.1047 175.893 36.6792C175.783 37.4999 175.48 38.16 174.94 38.6145C160.305 50.9335 145.67 63.2529 131.036 75.5719ZM150.707 116.255C150.762 116.135 150.813 116.022 150.857 115.92C154.363 131.618 157.869 147.316 161.375 163.013C160.918 160.297 160.466 156.916 159.541 152.773L151.199 115.422C151.562 115.408 151.924 115.394 152.287 115.38C151.477 115.108 150.858 114.758 150.474 114.316C150.561 114.637 150.633 114.95 150.668 115.249C150.706 115.567 150.713 115.906 150.707 116.255ZM118.348 36.4446L94.8946 45.2401C99.1855 45.8346 110.771 40.1038 118.348 36.4446ZM21.5972 135.058C22.9846 137.844 26.2524 141.607 29.6314 145.162C27.48 142.193 24.8065 138.856 21.5972 135.058ZM161.375 163.013C161.654 164.678 161.935 166.094 162.327 167.28C162.01 165.858 161.692 164.435 161.375 163.013ZM175.089 208.444C174.79 207.524 174.491 206.602 174.193 205.682C171.161 207.032 167.861 207.673 163.634 207.901C167.465 208.117 171.303 208.273 175.089 208.444ZM183.376 198.972C180.266 202.029 177.544 204.109 174.595 205.496L175.486 208.235C178.116 205.147 180.746 202.06 183.376 198.972ZM183.544 198.775C183.488 198.841 183.432 198.906 183.376 198.972C183.431 198.918 183.488 198.86 183.544 198.805V198.775ZM126.643 77.0137C124.985 77.3441 123.424 77.8718 121.986 78.6358C123.905 78.4691 125.437 77.903 126.643 77.0137ZM182.451 114.221L152.287 115.38C157.941 117.283 172.913 115.366 182.451 114.221ZM45.9033 52.9887C36.1603 58.052 25.8588 65.8042 18.2669 71.4458L45.1907 54.0109C45.4876 53.8191 45.7223 53.4689 45.9033 52.9887ZM183.544 114.09C183.189 114.132 182.824 114.176 182.451 114.221C182.816 114.207 183.18 114.193 183.544 114.179V114.09ZM138.979 142.318C142.483 135.344 150.585 123.055 150.707 116.255C148.76 120.489 140.24 135.649 138.979 142.318ZM86.9352 104.536C86.64 92.3353 86.344 80.1351 86.0485 67.9344C85.5114 79.114 84.485 95.9832 86.9352 104.536ZM141.228 147.428C147.149 154.098 153.07 160.768 158.992 167.438C154.038 160.826 147.122 151.432 141.228 147.428ZM91.2098 159.772C100.542 158.909 118.356 151.833 129.483 147.455C116.725 151.561 103.968 155.666 91.2098 159.772ZM-37.5938 178.811V182.77C-32.8658 170.147 -28.6833 155.838 -26.4912 144.335C-30.1923 155.827 -33.893 167.319 -37.5938 178.811ZM142.242 207.246C138.235 210.218 134.228 213.19 130.221 216.162H130.962C134.847 213.28 138.732 210.399 142.617 207.518C144.902 210.814 146.586 213.717 148.133 216.162H148.76C147.204 213.774 145.48 210.871 143.104 207.446C152.073 207.85 158.53 208.176 163.634 207.901C153.568 207.335 143.551 206.356 134.642 203.62C137.175 204.829 139.709 206.038 142.242 207.246Z" fill="white"/>
</g>
</g>
<defs>
<clipPath id="clip0_1061_41183">
<rect width="170" height="212.846" rx="5.52846" fill="white"/>
</clipPath>
<clipPath id="clip1_1061_41183">
<rect width="221.138" height="221.138" fill="white" transform="translate(-37.5938 -4.97656)"/>
</clipPath>
</defs>
</svg>
