<svg width="89" height="91" viewBox="0 0 89 91" fill="none" xmlns="http://www.w3.org/2000/svg">
<path d="M60.3378 0L62.6868 5.2956L55.9453 7.08266L60.3378 0Z" fill="#2E99FF"/>
<path d="M18.7695 37.2188V44.3532L26.1349 41.6828L18.7695 37.2188Z" fill="#40B0FF"/>
<path d="M73.1058 5.76679L69.6066 14.828L50.0416 19.7696L45.8018 17.6513L41.2534 15.3771L37.2734 13.3855L42.215 4.18133L59.5544 0.181975L60.3374 0L58.2191 5.76679L64.7138 1.9752L65.5456 2.35223L73.1058 5.76679Z" fill="#B6E9FF"/>
<path d="M47.1614 40.3475L42.6292 65.4876L35.0624 63.5382L27.1837 61.5108L18.6034 59.3017L11.7384 57.5343L8.26532 53.6356V53.6323L0 44.3534L13.2231 39.3306L22.5377 41.4392L18.7723 37.2188L31.0988 32.5371L44.6728 39.1389H44.6759L47.1614 40.3475Z" fill="#B6E9FF"/>
<path d="M31.0938 32.5367L37.2718 13.3848L50.0398 19.7687L47.1565 40.3482L31.0938 32.5367Z" fill="#73D0FF"/>
<path d="M0 44.3535L5.14838 71.7429L13.7976 81.4218L11.7382 57.5333L0 44.3535Z" fill="#73D0FF"/>
<path d="M42.6291 65.4885L40.5693 90.1998L25.2409 85.1738L24.0452 84.7807L23.259 81.9475L19.8151 83.3932L13.7981 81.4212L11.7383 57.5352L18.7722 59.3448L20.5527 59.8029L42.6291 65.4885Z" fill="#48B8FF"/>
<path d="M69.6031 14.8281L82.7829 80.832L40.5664 90.2L42.6257 65.4879L47.1562 40.3499L50.0394 19.7704L69.6031 14.8281Z" fill="#40B0FF"/>
<path d="M86.6462 66.1325L83.6344 67.6888L84.8105 73.1176V73.121L84.0828 75.8825L82.7832 80.8306L76.948 51.6099L76.6493 50.1121L69.6055 14.8288L73.1047 5.76758L88.5825 58.7639L86.6462 66.1325Z" fill="#2E99FF"/>
<path d="M86.6467 66.1317L83.635 67.688L80.6914 54.1107L76.9486 51.6092L76.052 51.856L65.9609 54.6532L76.6499 50.1113L81.5557 53.136L83.8299 62.4507L86.6467 66.1317Z" fill="#1B74FF"/>
<path d="M76.6499 50.1113L76.052 51.856L65.9609 54.6532L76.6499 50.1113Z" fill="#2E99FF"/>
<path d="M21.0179 73.8674L23.2563 81.9476L19.8124 83.3933L18.7695 59.3449L27.1809 55.5176L20.5501 59.803L20.4753 59.8515L21.0179 73.8674Z" fill="#2E99FF"/>
<path opacity="0.5" d="M65.5435 2.35223L45.7997 17.6513L41.5079 37.5996V37.603L18.5998 59.3025L11.7348 57.5351L8.26172 53.6364V53.6331L36.092 34.9681L41.2512 15.3771L59.5523 0.181975L60.3353 0L58.217 5.76679L64.7117 1.9752L65.5435 2.35223Z" fill="#F4FBFF"/>
<path opacity="0.5" d="M71.3072 4.95441L53.5942 18.8727L50.043 19.7694L47.1613 40.3481L46.4368 44.354L35.0623 63.5388L27.1836 61.5114L44.6727 39.1395H44.6759L44.7375 39.0582L48.4447 18.9701L68.1785 3.54102L71.3072 4.95441Z" fill="#F4FBFF"/>
<path d="M69.9238 14.7976C70.5931 12.9489 71.1128 11.4804 71.454 10.4668C71.8017 9.4271 71.9674 8.85857 71.9153 8.84231C71.8665 8.82288 71.6066 9.35237 71.1681 10.3562C70.8042 11.188 70.3169 12.3445 69.7224 13.7839C69.6152 14.0406 69.5079 14.3036 69.3944 14.5798C69.3196 14.596 69.2415 14.6155 69.1636 14.6317C64.5533 15.7006 57.8346 17.3186 49.917 19.2777L49.5889 19.359L49.5401 19.6969C48.8806 24.3072 48.1692 29.317 47.4218 34.5543C47.2073 36.0975 46.9929 37.6214 46.7851 39.1224C46.772 39.21 46.7591 39.301 46.7494 39.3888C39.683 36.1203 34.384 33.8559 34.2768 34.0833C34.1696 34.3172 39.4231 37.0334 46.5869 40.4771C46.5381 40.7695 46.4862 41.0619 46.4342 41.3511C46.3044 42.0822 46.1743 42.8099 46.0477 43.5279C45.5408 46.4096 45.0567 49.1746 44.5954 51.7899C43.7311 56.7542 42.9774 61.1825 42.373 64.8342C31.3917 62.0758 23.0388 60.1688 22.9769 60.4287C22.9119 60.6854 31.2163 63.0376 42.2398 65.903C42.0351 68.8954 41.8889 71.3092 41.8045 72.9954C41.7201 74.7694 41.7038 75.7407 41.772 75.7473C41.8402 75.7473 41.9865 74.7857 42.1942 73.0279C42.3859 71.3709 42.6361 69.009 42.9285 66.0817C42.9447 65.8965 42.9642 65.708 42.9838 65.5163C43.0163 65.3506 43.0488 65.1849 43.0813 65.0128C43.7961 61.3675 44.6376 56.9326 45.5668 51.9554C46.0508 49.3399 46.5609 46.5752 47.0937 43.6998C47.2236 42.9786 47.357 42.2541 47.4902 41.5198C47.5259 41.3347 47.5584 41.1462 47.5909 40.9578C47.6266 40.7792 47.6591 40.5972 47.6916 40.4153C47.7176 40.2301 47.7436 40.0481 47.7697 39.863C47.7989 39.6747 47.8248 39.483 47.851 39.2944C48.0621 37.7903 48.2766 36.2633 48.4943 34.72C49.1992 29.5997 49.8751 24.6972 50.4956 20.1747C58.2346 18.1765 64.7844 16.4481 69.2841 15.2135C71.1392 24.2131 72.6436 30.9512 72.8253 30.9512C72.9972 30.9153 71.7432 23.9724 69.9238 14.7976Z" fill="#F5FBFF"/>
</svg>
