<svg width="799" height="774" viewBox="0 0 799 774" fill="none" xmlns="http://www.w3.org/2000/svg">
<g id="Section 2">
<path d="M-5365 -98C-5365 -99.1046 -5364.1 -100 -5363 -100H18889C18890.1 -100 18891 -99.1046 18891 -98V899C18891 900.105 18890.1 901 18889 901H-5363C-5364.11 901 -5365 900.105 -5365 899V-98Z" fill="#444444"/>
<path d="M-5363 -100V-99H18889V-100V-101H-5363V-100ZM18891 -98H18890V899H18891H18892V-98H18891ZM18889 901V900H-5363V901V902H18889V901ZM-5365 899H-5364V-98H-5365H-5366V899H-5365ZM-5363 901V900C-5363.55 900 -5364 899.553 -5364 899H-5365H-5366C-5366 900.657 -5364.66 902 -5363 902V901ZM18891 899H18890C18890 899.552 18889.6 900 18889 900V901V902C18890.7 902 18892 900.657 18892 899H18891ZM18889 -100V-99C18889.6 -99 18890 -98.5526 18890 -98H18891H18892C18892 -99.6565 18890.7 -101 18889 -101V-100ZM-5363 -100V-101C-5364.66 -101 -5366 -99.6568 -5366 -98H-5365H-5364C-5364 -98.5523 -5363.55 -99 -5363 -99V-100Z" fill="white" fill-opacity="0.1"/>
<g id="Group">
<g id="Group_2">
<path id="Vector" d="M799 540.58C799 513.599 779.084 491.053 751.884 483.558C771.284 473.102 784.409 454.169 784.409 432.305C784.409 420.341 780.419 409.255 773.718 399.901C789.007 388.93 799 372.204 799 353.213C799 331.654 786.255 312.915 767.301 302.366C774.19 292.924 778.262 281.66 778.262 269.513C778.262 247.536 764.989 228.526 745.423 218.106C760.866 207.138 770.966 190.324 770.966 171.22C770.966 160.255 767.457 150.113 761.751 141.272C767.457 132.432 770.966 122.29 770.966 111.324C770.966 79.1862 742.829 53.1743 707.594 51.706C698.289 28.7569 674.084 12.2868 645.413 12.2868C616.429 12.2868 592.041 29.1351 582.968 52.4765C571.028 36.5658 550.831 26.1095 527.924 26.1095C517.512 26.1095 507.788 28.4586 499.016 32.3098C487.923 13.1906 465.971 0 440.384 0C412.724 0 389.049 15.2591 379.056 36.9422C367.428 27.9224 352.49 22.269 335.948 22.269C315.193 22.269 296.892 31.0296 284.71 44.4759C274.483 23.2793 251.103 8.42502 223.828 8.42502C197.468 8.42502 174.898 22.3827 164.166 42.45C152 30.1596 134.491 22.269 114.784 22.269C78.1014 22.269 48.3644 49.087 48.3644 82.1656C48.3644 88.7458 49.8274 94.9585 52.0007 100.88C29.2771 110.393 13.4232 131.015 13.4232 155.095C13.4232 175.771 25.0424 193.997 42.7128 204.762C29.2984 215.723 20.719 231.397 20.719 249.006C20.719 262.132 25.5378 274.169 33.4781 284.039C19.2097 295.026 9.96797 311.164 9.96797 329.41C9.96797 348.133 19.6945 364.637 34.6127 375.622C28.3503 384.763 24.5595 395.436 24.5595 406.968C24.5595 422.857 31.541 437.204 42.7394 447.926C17.7893 456.541 0 478.191 0 503.718C0 529.249 17.7893 550.896 42.7412 559.517C31.5427 570.239 24.5613 584.586 24.5613 600.475C24.5613 610.235 27.395 619.314 31.9884 627.455C20.545 638.213 13.425 652.744 13.425 668.83C13.425 701.909 43.1655 728.727 79.8503 728.727C85.1716 728.727 90.2764 728.013 95.2355 726.95C104.55 749.883 128.749 766.34 157.407 766.34C171.293 766.34 184.159 762.473 194.818 755.907C206.813 766.598 223.285 773.224 241.486 773.224C263.013 773.224 281.951 763.842 294.089 749.526C306.227 763.842 325.161 773.224 346.69 773.224C368.49 773.224 387.664 763.624 399.775 748.997C410.159 755.058 422.474 758.665 435.766 758.665C448.305 758.665 459.899 755.346 469.903 749.904C482.056 763.997 500.829 773.224 522.159 773.224C543.443 773.224 562.176 764.034 574.332 749.995C586.216 760.062 602.098 766.34 619.688 766.34C640.69 766.34 659.184 757.377 671.359 743.659C683.042 752.885 698.164 758.665 714.911 758.665C751.596 758.665 781.335 731.847 781.335 698.768C781.335 687.98 777.922 678.001 772.388 669.258C779.916 659.546 784.409 647.781 784.409 635.033C784.409 618.456 776.937 603.465 764.87 592.617C785.14 582.361 799 563.03 799 540.58Z" fill="url(#paint0_linear_546_218)"/>
</g>
</g>
</g>
<defs>
<linearGradient id="paint0_linear_546_218" x1="-480.966" y1="1000.28" x2="1847.31" y2="-584.66" gradientUnits="userSpaceOnUse">
<stop stop-color="#FF3015"/>
<stop offset="1" stop-color="#FF6700"/>
</linearGradient>
</defs>
</svg>
