<svg width="562" height="533" viewBox="0 0 562 533" fill="none" xmlns="http://www.w3.org/2000/svg">
<g id="Section 2">
<path d="M-5486.71 -230.462C-5486.71 -231.566 -5485.82 -232.462 -5484.71 -232.462H18767.3C18768.4 -232.462 18769.3 -231.566 18769.3 -230.462V766.538C18769.3 767.643 18768.4 768.538 18767.3 768.538H-5484.71C-5485.82 768.538 -5486.71 767.643 -5486.71 766.538V-230.462Z" fill="#444444"/>
<path d="M-5484.71 -232.462V-231.462H18767.3V-232.462V-233.462H-5484.71V-232.462ZM18769.3 -230.462H18768.3V766.538H18769.3H18770.3V-230.462H18769.3ZM18767.3 768.538V767.538H-5484.71V768.538V769.538H18767.3V768.538ZM-5486.71 766.538H-5485.71V-230.462H-5486.71H-5487.71V766.538H-5486.71ZM-5484.71 768.538V767.538C-5485.26 767.538 -5485.71 767.091 -5485.71 766.538H-5486.71H-5487.71C-5487.71 768.195 -5486.37 769.538 -5484.71 769.538V768.538ZM18769.3 766.538H18768.3C18768.3 767.09 18767.8 767.538 18767.3 767.538V768.538V769.538C18768.9 769.538 18770.3 768.195 18770.3 766.538H18769.3ZM18767.3 -232.462V-231.462C18767.8 -231.462 18768.3 -231.015 18768.3 -230.462H18769.3H18770.3C18770.3 -232.118 18768.9 -233.462 18767.3 -233.462V-232.462ZM-5484.71 -232.462V-233.462C-5486.37 -233.462 -5487.71 -232.119 -5487.71 -230.462H-5486.71H-5485.71C-5485.71 -231.014 -5485.26 -231.462 -5484.71 -231.462V-232.462Z" fill="white" fill-opacity="0.1"/>
<g id="Group">
<g id="Group_2">
<path id="Vector" opacity="0.3" d="M558.398 532.122H2.92789C1.31214 532.122 0 530.811 0 529.194V2.92789C0 1.31214 1.31036 0 2.92789 0H558.398C560.014 0 561.326 1.31036 561.326 2.92789V529.195C561.324 530.811 560.014 532.122 558.398 532.122Z" fill="#C43333"/>
</g>
</g>
</g>
</svg>
