<svg width="74" height="27" viewBox="0 0 74 27" fill="none" xmlns="http://www.w3.org/2000/svg">
<g id="Section 2">
<path d="M-5986.88 -132.964C-5986.88 -134.068 -5985.99 -134.964 -5984.88 -134.964H18267.1C18268.2 -134.964 18269.1 -134.068 18269.1 -132.964V864.036C18269.1 865.141 18268.2 866.036 18267.1 866.036H-5984.88C-5985.99 866.036 -5986.88 865.141 -5986.88 864.036V-132.964Z" fill="#444444"/>
<path d="M-5984.88 -134.964V-133.964H18267.1V-134.964V-135.964H-5984.88V-134.964ZM18269.1 -132.964H18268.1V864.036H18269.1H18270.1V-132.964H18269.1ZM18267.1 866.036V865.036H-5984.88V866.036V867.036H18267.1V866.036ZM-5986.88 864.036H-5985.88V-132.964H-5986.88H-5987.88V864.036H-5986.88ZM-5984.88 866.036V865.036C-5985.44 865.036 -5985.88 864.589 -5985.88 864.036H-5986.88H-5987.88C-5987.88 865.693 -5986.54 867.036 -5984.88 867.036V866.036ZM18269.1 864.036H18268.1C18268.1 864.588 18267.7 865.036 18267.1 865.036V866.036V867.036C18268.8 867.036 18270.1 865.693 18270.1 864.036H18269.1ZM18267.1 -134.964V-133.964C18267.7 -133.964 18268.1 -133.516 18268.1 -132.964H18269.1H18270.1C18270.1 -134.62 18268.8 -135.964 18267.1 -135.964V-134.964ZM-5984.88 -134.964V-135.964C-5986.54 -135.964 -5987.88 -134.621 -5987.88 -132.964H-5986.88H-5985.88C-5985.88 -133.516 -5985.43 -133.964 -5984.88 -133.964V-134.964Z" fill="white" fill-opacity="0.1"/>
<g id="Group">
<path id="Vector" opacity="0.4" d="M73.1234 15.5743C72.6297 22.6232 55.8632 27.1899 35.6734 25.7766C15.4853 24.3668 -0.485857 17.5061 0.0112988 10.4589C0.503128 3.41171 17.2715 -1.15679 37.4613 0.256548C57.6476 1.66989 73.6187 8.52886 73.1234 15.5743Z" fill="white"/>
</g>
</g>
</svg>
