<svg width="799" height="774" viewBox="0 0 799 774" fill="none" xmlns="http://www.w3.org/2000/svg">
<path d="M799 540.58C799 513.599 779.084 491.053 751.884 483.558C771.284 473.102 784.409 454.169 784.409 432.305C784.409 420.341 780.419 409.255 773.718 399.901C789.007 388.93 799 372.204 799 353.213C799 331.654 786.255 312.915 767.301 302.366C774.19 292.924 778.262 281.66 778.262 269.513C778.262 247.536 764.989 228.526 745.423 218.106C760.866 207.138 770.966 190.324 770.966 171.22C770.966 160.255 767.457 150.113 761.751 141.272C767.457 132.432 770.966 122.29 770.966 111.324C770.966 79.1862 742.829 53.1743 707.594 51.706C698.289 28.7569 674.084 12.2868 645.413 12.2868C616.429 12.2868 592.041 29.1351 582.968 52.4765C571.028 36.5658 550.831 26.1095 527.924 26.1095C517.512 26.1095 507.788 28.4586 499.016 32.3098C487.923 13.1906 465.971 0 440.384 0C412.724 0 389.049 15.2591 379.056 36.9422C367.428 27.9224 352.49 22.269 335.948 22.269C315.193 22.269 296.892 31.0296 284.71 44.4759C274.483 23.2793 251.103 8.42502 223.828 8.42502C197.468 8.42502 174.898 22.3827 164.166 42.45C152 30.1596 134.491 22.269 114.784 22.269C78.1014 22.269 48.3644 49.087 48.3644 82.1656C48.3644 88.7458 49.8274 94.9585 52.0007 100.88C29.2771 110.393 13.4232 131.015 13.4232 155.095C13.4232 175.771 25.0424 193.997 42.7128 204.762C29.2984 215.723 20.719 231.397 20.719 249.006C20.719 262.132 25.5378 274.169 33.4781 284.039C19.2097 295.026 9.96797 311.164 9.96797 329.41C9.96797 348.133 19.6945 364.637 34.6127 375.622C28.3503 384.763 24.5595 395.436 24.5595 406.968C24.5595 422.857 31.541 437.204 42.7394 447.926C17.7893 456.541 0 478.191 0 503.718C0 529.249 17.7893 550.896 42.7412 559.517C31.5427 570.239 24.5613 584.586 24.5613 600.475C24.5613 610.235 27.395 619.314 31.9884 627.455C20.545 638.213 13.425 652.744 13.425 668.83C13.425 701.909 43.1655 728.727 79.8503 728.727C85.1716 728.727 90.2764 728.013 95.2355 726.95C104.55 749.883 128.749 766.34 157.407 766.34C171.293 766.34 184.159 762.473 194.818 755.907C206.813 766.598 223.285 773.224 241.486 773.224C263.013 773.224 281.951 763.842 294.089 749.526C306.227 763.842 325.161 773.224 346.69 773.224C368.49 773.224 387.664 763.624 399.775 748.997C410.159 755.058 422.474 758.665 435.766 758.665C448.305 758.665 459.899 755.346 469.903 749.904C482.056 763.997 500.829 773.224 522.159 773.224C543.443 773.224 562.176 764.034 574.332 749.995C586.216 760.062 602.098 766.34 619.688 766.34C640.69 766.34 659.184 757.377 671.359 743.659C683.042 752.885 698.164 758.665 714.911 758.665C751.596 758.665 781.335 731.847 781.335 698.768C781.335 687.98 777.922 678.001 772.388 669.258C779.916 659.546 784.409 647.781 784.409 635.033C784.409 618.456 776.937 603.465 764.87 592.617C785.14 582.361 799 563.03 799 540.58Z" fill="url(#paint0_linear_996_370)"/>
<path opacity="0.3" d="M680.109 664.583H124.639C123.023 664.583 121.711 663.273 121.711 661.656V135.39C121.711 133.774 123.021 132.462 124.639 132.462H680.109C681.725 132.462 683.037 133.772 683.037 135.39V661.657C683.035 663.273 681.725 664.583 680.109 664.583Z" fill="#C43333"/>
<path d="M669.104 651.146H135.639C134.096 651.146 132.844 649.895 132.844 648.352V148.696C132.844 147.153 134.096 145.901 135.639 145.901H669.104C670.647 145.901 671.899 147.153 671.899 148.696V648.352C671.901 649.895 670.649 651.146 669.104 651.146Z" fill="#FFDEDE"/>
<path fill-rule="evenodd" clip-rule="evenodd" d="M492.408 372.449C481.433 373.365 470.735 376.373 460.892 381.313C440.802 391.434 427.38 408.624 424.065 428.476C423.658 430.909 423.512 433.341 423.528 437.485C423.558 445.512 424.525 450.822 427.219 457.744C431.815 469.531 440.257 479.99 451.483 487.795C453.195 488.984 453.417 489.26 453.77 490.695C454.039 491.754 454.154 494.149 454.116 497.955C454.047 504.723 454.3 505.844 456.387 507.931C458.49 510.026 460.186 510.425 465.089 509.964C472.402 509.281 477.436 507.348 483.184 503.043C485.087 501.608 485.617 501.354 486.407 501.477C498.071 503.373 512.038 502.59 523.717 499.374C528.868 497.994 533.86 496.078 538.612 493.657C559.009 483.666 572.792 466.216 576.091 446.187C576.851 441.621 576.851 433.042 576.091 428.476C574.134 416.604 568.41 405.393 559.639 396.246C543.27 379.179 518.3 370.347 492.408 372.449ZM509.904 388.073C536.18 391.826 556.124 408.087 560.736 429.52C561.526 433.195 561.534 441.537 560.744 445.143C557.95 457.951 549.601 469.239 537.208 476.99C523.664 485.446 505.523 488.915 488.433 486.298C482.355 485.37 480.537 485.822 475.81 489.437C473.047 491.547 470.284 493.351 469.801 493.351C469.647 493.351 469.356 492 469.164 490.342C468.458 484.441 466.348 479.837 463.247 477.435C462.442 476.821 460.408 475.302 458.705 474.066C453.149 470.014 447.7 464.036 444.531 458.496C440.287 451.075 438.407 443.478 438.799 435.336C439.098 429.144 440.318 424.608 443.311 418.6C448.851 407.45 459.702 397.957 472.993 392.631C478.641 390.4 484.544 388.877 490.566 388.096L494.557 387.628C496.437 387.413 507.51 387.728 509.904 388.073Z" fill="#ED3F19"/>
<path fill-rule="evenodd" clip-rule="evenodd" d="M504.151 427.829C503.522 427.917 502.73 428.125 502.069 428.382C500.279 429.072 498.583 430.362 497.383 431.947C495.235 434.78 494.391 438.508 495.103 442.029C495.466 443.83 496.454 445.921 497.756 447.647C499.498 449.955 502.041 452.228 505.261 454.353C507.514 455.842 509.554 456.994 510.254 457.177C510.762 457.308 511.791 457.308 512.299 457.177C512.999 456.994 515.039 455.842 517.292 454.353C521.033 451.883 523.857 449.215 525.571 446.529C526.082 445.729 526.797 444.248 527.08 443.406C527.712 441.463 527.861 439.395 527.514 437.381C526.776 433.064 523.868 429.499 520.052 428.227C519.013 427.88 518.454 427.795 517.259 427.795C515.244 427.798 513.698 428.278 512.016 429.424L511.277 429.927L510.537 429.424C509.473 428.682 508.265 428.17 506.992 427.922C506.332 427.793 504.776 427.742 504.151 427.829ZM506.446 431.171C507.644 431.418 508.696 432.004 509.809 433.048C510.494 433.689 510.744 433.819 511.281 433.816C511.821 433.814 512.061 433.687 512.744 433.048C513.857 432.004 514.909 431.418 516.107 431.171C518.308 430.716 520.644 431.643 522.297 433.627C523.293 434.825 523.968 436.257 524.258 437.788C524.548 439.32 524.443 440.899 523.954 442.379C522.693 446.14 518.862 449.826 512.361 453.533C511.747 453.885 511.443 454.021 511.277 454.021C511.111 454.021 510.806 453.885 510.192 453.533C503.678 449.812 499.824 446.105 498.597 442.382C498.182 441.124 498.044 439.791 498.192 438.474C498.34 437.157 498.77 435.888 499.454 434.753C501.061 432.052 503.834 430.632 506.446 431.171Z" fill="#FE4A0B"/>
<path fill-rule="evenodd" clip-rule="evenodd" d="M480.259 423.252C478.514 423.511 476.867 424.218 475.477 425.303C474.616 426.014 473.843 426.826 473.176 427.721C471.214 430.488 470.449 434.199 471.164 437.514C472.086 441.802 475.638 446.257 480.949 449.787C483.404 451.421 486.286 452.767 487.326 452.767C488.367 452.767 491.258 451.416 493.704 449.787C497.767 447.08 500.743 443.923 502.387 440.571C503.482 438.339 503.896 436.301 503.71 434.053C503.56 432.245 503.191 430.9 502.41 429.329C501.769 428.039 501.225 427.282 500.181 426.234C498.666 424.713 497.011 423.785 495.066 423.367C494.1 423.16 492.446 423.162 491.471 423.371C490.186 423.647 489.116 424.118 487.934 424.932L487.326 425.351L486.718 424.932C485.048 423.783 483.501 423.262 481.606 423.213C481.157 423.198 480.707 423.211 480.259 423.252Z" fill="#FB7445"/>
<path opacity="0.4" d="M695.006 50.5381C694.512 57.5871 677.746 62.1538 657.556 60.7405C637.368 59.3307 621.397 52.4699 621.894 45.4228C622.386 38.3756 639.154 33.8071 659.344 35.2204C679.53 36.6338 695.501 43.4927 695.006 50.5381Z" fill="white"/>
<path d="M728.367 69.6123C727.523 71.537 723.509 71.6329 719.402 69.8307C715.292 68.025 712.646 65.0047 713.491 63.08C714.335 61.1589 718.351 61.0612 722.459 62.8652C726.568 64.6692 729.214 67.6911 728.367 69.6123Z" fill="white"/>
<defs>
<linearGradient id="paint0_linear_996_370" x1="-480.966" y1="1000.28" x2="1847.31" y2="-584.66" gradientUnits="userSpaceOnUse">
<stop stop-color="#FF3015"/>
<stop offset="1" stop-color="#FF6700"/>
</linearGradient>
</defs>
</svg>
