<svg width="176" height="170" viewBox="0 0 176 170" fill="none" xmlns="http://www.w3.org/2000/svg">
<path d="M175.667 118.851C175.667 112.919 171.288 107.962 165.308 106.314C169.573 104.016 172.459 99.853 172.459 95.046C172.459 92.4157 171.582 89.9782 170.109 87.9217C173.47 85.5096 175.667 81.8323 175.667 77.6569C175.667 72.917 172.865 68.7971 168.698 66.4779C170.212 64.4019 171.107 61.9254 171.107 59.2548C171.107 54.4228 168.189 50.2435 163.888 47.9524C167.283 45.5411 169.503 41.8443 169.503 37.6443C169.503 35.2333 168.732 33.0035 167.477 31.0599C168.732 29.1162 169.503 26.8864 169.503 24.4755C169.503 17.4098 163.317 11.6908 155.571 11.368C153.525 6.32245 148.203 2.70137 141.9 2.70137C135.527 2.70137 130.165 6.4056 128.171 11.5374C125.545 8.0393 121.105 5.74041 116.069 5.74041C113.78 5.74041 111.641 6.25687 109.713 7.10358C107.274 2.90007 102.448 0 96.8222 0C90.741 0 85.5358 3.35485 83.3388 8.12206C80.7822 6.13898 77.498 4.89603 73.861 4.89603C69.2979 4.89603 65.2744 6.82213 62.596 9.77841C60.3475 5.11816 55.2071 1.85231 49.2106 1.85231C43.4151 1.85231 38.4527 4.92102 36.0933 9.33299C33.4185 6.63084 29.5691 4.89603 25.2363 4.89603C17.1713 4.89603 10.6333 10.7922 10.6333 18.0648C10.6333 19.5115 10.955 20.8774 11.4328 22.1793C6.43683 24.2709 2.95121 28.8047 2.95121 34.0989C2.95121 38.6448 5.5058 42.652 9.39077 45.0188C6.44151 47.4285 4.55524 50.8747 4.55524 54.746C4.55524 57.6321 5.61471 60.2784 7.36045 62.4485C4.22343 64.8641 2.19154 68.4122 2.19154 72.4236C2.19154 76.5401 4.33 80.1686 7.6099 82.5838C6.23306 84.5934 5.39961 86.9399 5.39961 89.4754C5.39961 92.9688 6.93455 96.123 9.39662 98.4805C3.91113 100.375 0 105.134 0 110.747C0 116.36 3.91113 121.119 9.39701 123.015C6.93494 125.372 5.4 128.526 5.4 132.02C5.4 134.165 6.02304 136.161 7.03293 137.951C4.51698 140.317 2.9516 143.511 2.9516 147.048C2.9516 154.321 9.49031 160.217 17.5558 160.217C18.7257 160.217 19.848 160.06 20.9383 159.826C22.9862 164.868 28.3066 168.487 34.6072 168.487C37.6603 168.487 40.4889 167.636 42.8323 166.193C45.4697 168.543 49.0911 170 53.0928 170C57.8257 170 61.9894 167.937 64.658 164.79C67.3265 167.937 71.4895 170 76.2227 170C81.0157 170 85.2313 167.889 87.894 164.673C90.1769 166.006 92.8845 166.799 95.8068 166.799C98.5636 166.799 101.113 166.069 103.312 164.873C105.984 167.971 110.112 170 114.801 170C119.481 170 123.599 167.979 126.272 164.893C128.885 167.106 132.376 168.487 136.244 168.487C140.861 168.487 144.927 166.516 147.604 163.5C150.173 165.528 153.497 166.799 157.179 166.799C165.245 166.799 171.783 160.903 171.783 153.63C171.783 151.258 171.033 149.064 169.816 147.142C171.471 145.007 172.459 142.42 172.459 139.617C172.459 135.973 170.816 132.677 168.163 130.292C172.62 128.037 175.667 123.787 175.667 118.851Z" fill="url(#paint0_linear_1064_41600)"/>
<path opacity="0.3" d="M149.526 146.116H27.4015C27.0463 146.116 26.7578 145.828 26.7578 145.473V29.7687C26.7578 29.4135 27.0459 29.125 27.4015 29.125H149.526C149.882 29.125 150.17 29.4131 150.17 29.7687V145.473C150.17 145.828 149.882 146.116 149.526 146.116Z" fill="#C43333"/>
<path d="M147.109 143.161H29.8215C29.4822 143.161 29.207 142.885 29.207 142.546V32.6926C29.207 32.3533 29.4822 32.0781 29.8215 32.0781H147.109C147.448 32.0781 147.723 32.3533 147.723 32.6926V142.546C147.723 142.885 147.448 143.161 147.109 143.161Z" fill="#FFDEDE"/>
<path fill-rule="evenodd" clip-rule="evenodd" d="M108.261 81.8856C105.848 82.0869 103.496 82.7483 101.332 83.8342C96.9152 86.0596 93.9644 89.8388 93.2355 94.2035C93.1461 94.7383 93.1141 95.2732 93.1174 96.1842C93.1242 97.949 93.3368 99.1165 93.929 100.638C94.9396 103.23 96.7954 105.529 99.2637 107.245C99.64 107.507 99.6889 107.567 99.7665 107.883C99.8256 108.116 99.8509 108.642 99.8424 109.479C99.8273 110.967 99.8829 111.213 100.342 111.672C100.804 112.133 101.177 112.221 102.255 112.119C103.863 111.969 104.97 111.544 106.233 110.598C106.652 110.282 106.768 110.226 106.942 110.253C109.506 110.67 112.577 110.498 115.145 109.791C116.277 109.488 117.375 109.066 118.42 108.534C122.904 106.338 125.934 102.501 126.66 98.0975C126.827 97.0936 126.827 95.2074 126.66 94.2035C126.23 91.5935 124.971 89.1285 123.043 87.1174C119.444 83.3652 113.954 81.4233 108.261 81.8856ZM112.108 85.3206C117.885 86.1456 122.27 89.7207 123.284 94.433C123.458 95.2411 123.459 97.0751 123.286 97.868C122.671 100.684 120.836 103.166 118.111 104.87C115.133 106.729 111.145 107.492 107.387 106.916C106.051 106.712 105.651 106.812 104.612 107.606C104.005 108.07 103.397 108.467 103.291 108.467C103.257 108.467 103.193 108.17 103.151 107.805C102.996 106.508 102.532 105.496 101.85 104.968C101.673 104.833 101.226 104.499 100.851 104.227C99.6299 103.336 98.432 102.022 97.7352 100.804C96.8022 99.1722 96.3888 97.5019 96.4749 95.7118C96.5407 94.3503 96.8089 93.3532 97.4669 92.0321C98.6851 89.5807 101.071 87.4937 103.993 86.3228C105.235 85.8323 106.532 85.4974 107.856 85.3257L108.734 85.2228C109.147 85.1755 111.582 85.2447 112.108 85.3206Z" fill="#ED3F19"/>
<path fill-rule="evenodd" clip-rule="evenodd" d="M110.843 94.0623C110.704 94.0814 110.53 94.1273 110.385 94.1837C109.991 94.3355 109.618 94.6191 109.354 94.9675C108.882 95.5905 108.697 96.4101 108.853 97.1841C108.933 97.5802 109.15 98.0399 109.436 98.4193C109.82 98.9267 110.379 99.4264 111.086 99.8937C111.582 100.221 112.03 100.474 112.184 100.515C112.296 100.543 112.522 100.543 112.634 100.515C112.788 100.474 113.236 100.221 113.732 99.8937C114.554 99.3505 115.175 98.764 115.552 98.1736C115.664 97.9976 115.821 97.672 115.884 97.487C116.023 97.0597 116.055 96.605 115.979 96.1622C115.817 95.2132 115.178 94.4294 114.338 94.1497C114.11 94.0735 113.987 94.0547 113.724 94.0547C113.281 94.0554 112.941 94.1609 112.572 94.4128L112.409 94.5234L112.246 94.4128C112.012 94.2496 111.747 94.1371 111.467 94.0825C111.322 94.0543 110.98 94.0431 110.843 94.0623ZM111.347 94.7969C111.61 94.8511 111.842 94.9801 112.086 95.2096C112.237 95.3505 112.292 95.3791 112.41 95.3784C112.529 95.378 112.581 95.3502 112.732 95.2096C112.976 94.9801 113.208 94.8511 113.471 94.7969C113.955 94.6968 114.469 94.9006 114.832 95.3368C115.051 95.6003 115.199 95.9152 115.263 96.2518C115.327 96.5885 115.304 96.9358 115.196 97.2611C114.919 98.0879 114.077 98.8985 112.648 99.7134C112.512 99.7907 112.446 99.8207 112.409 99.8207C112.373 99.8207 112.306 99.7907 112.171 99.7134C110.738 98.8952 109.891 98.0803 109.621 97.2618C109.53 96.9852 109.5 96.692 109.532 96.4025C109.565 96.113 109.659 95.8339 109.81 95.5844C110.163 94.9906 110.773 94.6784 111.347 94.7969Z" fill="#FE4A0B"/>
<g clip-path="url(#clip0_1064_41600)">
<path fill-rule="evenodd" clip-rule="evenodd" d="M105.591 93.0529C105.207 93.1098 104.845 93.2652 104.539 93.5039C104.35 93.66 104.18 93.8385 104.033 94.0355C103.602 94.6437 103.434 95.4596 103.591 96.1885C103.794 97.1313 104.575 98.1106 105.742 98.8868C106.282 99.246 106.916 99.542 107.144 99.542C107.373 99.542 108.009 99.245 108.547 98.8868C109.44 98.2917 110.094 97.5975 110.456 96.8606C110.696 96.3699 110.787 95.9218 110.747 95.4275C110.714 95.03 110.632 94.7344 110.461 94.3889C110.32 94.1052 110.2 93.939 109.971 93.7084C109.638 93.3742 109.274 93.17 108.846 93.0782C108.634 93.0327 108.27 93.033 108.056 93.0789C107.773 93.1396 107.538 93.2433 107.278 93.4222L107.144 93.5144L107.011 93.4222C106.644 93.1696 106.304 93.0551 105.887 93.0442C105.788 93.041 105.689 93.0439 105.591 93.0529Z" fill="#FB7445"/>
</g>
<path opacity="0.4" d="M152.801 11.1116C152.693 12.6614 149.007 13.6654 144.568 13.3547C140.129 13.0448 136.618 11.5364 136.727 9.98698C136.835 8.43759 140.522 7.43317 144.961 7.7439C149.399 8.05464 152.91 9.56264 152.801 11.1116Z" fill="white"/>
<path d="M160.139 15.3065C159.954 15.7297 159.071 15.7508 158.168 15.3545C157.264 14.9575 156.683 14.2935 156.869 13.8703C157.054 13.448 157.937 13.4265 158.84 13.8231C159.744 14.2197 160.325 14.8841 160.139 15.3065Z" fill="white"/>
<defs>
<linearGradient id="paint0_linear_1064_41600" x1="-105.744" y1="219.921" x2="406.146" y2="-128.543" gradientUnits="userSpaceOnUse">
<stop stop-color="#FF3015"/>
<stop offset="1" stop-color="#FF6700"/>
</linearGradient>
<clipPath id="clip0_1064_41600">
<rect width="8.67285" height="8.67285" fill="white" transform="translate(102.807 91.9551)"/>
</clipPath>
</defs>
</svg>
