<svg width="16" height="10" viewBox="0 0 16 10" fill="none" xmlns="http://www.w3.org/2000/svg">
<g id="Section 2">
<path d="M-6078.33 -159.573C-6078.33 -160.678 -6077.44 -161.573 -6076.33 -161.573H18175.7C18176.8 -161.573 18177.7 -160.678 18177.7 -159.573V837.427C18177.7 838.531 18176.8 839.427 18175.7 839.427H-6076.33C-6077.44 839.427 -6078.33 838.531 -6078.33 837.427V-159.573Z" fill="#444444"/>
<path d="M-6076.33 -161.573V-160.573H18175.7V-161.573V-162.573H-6076.33V-161.573ZM18177.7 -159.573H18176.7V837.427H18177.7H18178.7V-159.573H18177.7ZM18175.7 839.427V838.427H-6076.33V839.427V840.427H18175.7V839.427ZM-6078.33 837.427H-6077.33V-159.573H-6078.33H-6079.33V837.427H-6078.33ZM-6076.33 839.427V838.427C-6076.89 838.427 -6077.33 837.979 -6077.33 837.427H-6078.33H-6079.33C-6079.33 839.083 -6077.99 840.427 -6076.33 840.427V839.427ZM18177.7 837.427H18176.7C18176.7 837.979 18176.2 838.427 18175.7 838.427V839.427V840.427C18177.3 840.427 18178.7 839.084 18178.7 837.427H18177.7ZM18175.7 -161.573V-160.573C18176.2 -160.573 18176.7 -160.126 18176.7 -159.573H18177.7H18178.7C18178.7 -161.23 18177.3 -162.573 18175.7 -162.573V-161.573ZM-6076.33 -161.573V-162.573C-6077.99 -162.573 -6079.33 -161.23 -6079.33 -159.573H-6078.33H-6077.33C-6077.33 -160.126 -6076.89 -160.573 -6076.33 -160.573V-161.573Z" fill="white" fill-opacity="0.1"/>
<g id="Group">
<path id="Vector" d="M15.0329 8.03906C14.1895 9.96376 10.175 10.0596 6.06811 8.25745C1.9577 6.45171 -0.687896 3.4315 0.157268 1.5068C1.00066 -0.414353 5.01695 -0.512012 9.12559 1.29195C13.2342 3.09592 15.8798 6.1179 15.0329 8.03906Z" fill="white"/>
</g>
</g>
</svg>
