<svg width="540" height="506" viewBox="0 0 540 506" fill="none" xmlns="http://www.w3.org/2000/svg">
<g id="Section 2">
<path d="M-5497.84 -243.901C-5497.84 -245.006 -5496.95 -245.901 -5495.84 -245.901H18756.2C18757.3 -245.901 18758.2 -245.006 18758.2 -243.901V753.099C18758.2 754.203 18757.3 755.099 18756.2 755.099H-5495.84C-5496.95 755.099 -5497.84 754.203 -5497.84 753.099V-243.901Z" fill="#444444"/>
<path d="M-5495.84 -245.901V-244.901H18756.2V-245.901V-246.901H-5495.84V-245.901ZM18758.2 -243.901H18757.2V753.099H18758.2H18759.2V-243.901H18758.2ZM18756.2 755.099V754.099H-5495.84V755.099V756.099H18756.2V755.099ZM-5497.84 753.099H-5496.84V-243.901H-5497.84H-5498.84V753.099H-5497.84ZM-5495.84 755.099V754.099C-5496.4 754.099 -5496.84 753.651 -5496.84 753.099H-5497.84H-5498.84C-5498.84 754.755 -5497.5 756.099 -5495.84 756.099V755.099ZM18758.2 753.099H18757.2C18757.2 753.651 18756.7 754.099 18756.2 754.099V755.099V756.099C18757.8 756.099 18759.2 754.755 18759.2 753.099H18758.2ZM18756.2 -245.901V-244.901C18756.7 -244.901 18757.2 -244.454 18757.2 -243.901H18758.2H18759.2C18759.2 -245.558 18757.8 -246.901 18756.2 -246.901V-245.901ZM-5495.84 -245.901V-246.901C-5497.5 -246.901 -5498.84 -245.558 -5498.84 -243.901H-5497.84H-5496.84C-5496.84 -244.454 -5496.4 -244.901 -5495.84 -244.901V-245.901Z" fill="white" fill-opacity="0.1"/>
<g id="Group">
<g id="Group_2">
<path id="Vector" d="M536.26 505.245H2.79472C1.25176 505.245 0 503.993 0 502.45V2.79472C0 1.25176 1.25176 0 2.79472 0H536.26C537.803 0 539.055 1.25176 539.055 2.79472V502.45C539.057 503.993 537.805 505.245 536.26 505.245Z" fill="#FFDEDE"/>
</g>
</g>
</g>
</svg>
