<svg width="185" height="185" viewBox="0 0 185 185" fill="none" xmlns="http://www.w3.org/2000/svg">
<g id="Section 2">
<path d="M-5773 -447.082C-5773 -448.187 -5772.1 -449.082 -5771 -449.082H18481C18482.1 -449.082 18483 -448.187 18483 -447.082V549.918C18483 551.023 18482.1 551.918 18481 551.918H-5771C-5772.1 551.918 -5773 551.023 -5773 549.918V-447.082Z" fill="#444444"/>
<path d="M-5771 -449.082V-448.082H18481V-449.082V-450.082H-5771V-449.082ZM18483 -447.082H18482V549.918H18483H18484V-447.082H18483ZM18481 551.918V550.918H-5771V551.918V552.918H18481V551.918ZM-5773 549.918H-5772V-447.082H-5773H-5774V549.918H-5773ZM-5771 551.918V550.918C-5771.55 550.918 -5772 550.471 -5772 549.918H-5773H-5774C-5774 551.575 -5772.65 552.918 -5771 552.918V551.918ZM18483 549.918H18482C18482 550.47 18481.6 550.918 18481 550.918V551.918V552.918C18482.7 552.918 18484 551.575 18484 549.918H18483ZM18481 -449.082V-448.082C18481.6 -448.082 18482 -447.635 18482 -447.082H18483H18484C18484 -448.739 18482.7 -450.082 18481 -450.082V-449.082ZM-5771 -449.082V-450.082C-5772.65 -450.082 -5774 -448.739 -5774 -447.082H-5773H-5772C-5772 -447.634 -5771.55 -448.082 -5771 -448.082V-449.082Z" fill="white" fill-opacity="0.1"/>
<g id="Group">
<g id="Group_2">
<g id="Frame 16">
<g id="chat_3_regular">
<path id="Vector" fill-rule="evenodd" clip-rule="evenodd" d="M84.4127 23.3672C73.4378 24.2829 62.7397 27.2914 52.8962 32.2305C32.8061 42.3523 19.3846 59.5417 16.0695 79.3939C15.6628 81.8265 15.517 84.2591 15.5323 88.403C15.563 96.4298 16.5299 101.74 19.2235 108.662C23.8201 120.449 32.2613 130.908 43.4881 138.713C45.1994 139.902 45.4219 140.178 45.7749 141.613C46.0435 142.672 46.1586 145.067 46.1203 148.873C46.0512 155.641 46.3044 156.762 48.3917 158.849C50.4943 160.944 52.1903 161.343 57.0938 160.882C64.407 160.199 69.441 158.266 75.1888 153.961C77.0919 152.526 77.6214 152.272 78.4118 152.395C90.076 154.291 104.042 153.508 115.722 150.292C120.873 148.912 125.865 146.996 130.617 144.575C151.014 134.584 164.796 117.134 168.096 97.1051C168.856 92.5392 168.856 83.9598 168.096 79.3939C166.139 67.5224 160.414 56.311 151.643 47.1638C135.275 30.0971 110.304 21.2646 84.4127 23.3672ZM101.909 38.9911C128.184 42.7436 148.129 59.0045 152.741 80.4375C153.531 84.1133 153.539 92.4547 152.748 96.0614C149.955 108.869 141.606 120.157 129.213 127.908C115.668 136.364 97.5273 139.833 80.4377 137.216C74.36 136.288 72.5413 136.74 67.8142 140.355C65.0516 142.465 62.289 144.268 61.8056 144.268C61.6521 144.268 61.3605 142.918 61.1686 141.26C60.4627 135.359 58.3523 130.755 55.2521 128.353C54.4464 127.739 52.4128 126.22 50.7092 124.984C45.1533 120.932 39.7049 114.954 36.5356 109.414C32.292 101.993 30.4119 94.3962 30.8033 86.2543C31.1026 80.0615 32.3227 75.5263 35.3155 69.5176C40.856 58.3676 51.7068 48.875 64.9979 43.5494C70.646 41.3184 76.5486 39.795 82.571 39.0141L86.5614 38.546C88.4415 38.3312 99.5148 38.6458 101.909 38.9911Z" fill="#ED3F19"/>
<g id="heart_regular">
<path id="Vector_2" fill-rule="evenodd" clip-rule="evenodd" d="M96.156 78.7475C95.5265 78.8346 94.7342 79.0433 94.0735 79.2997C92.2836 79.9901 90.5873 81.2803 89.3875 82.8648C87.2392 85.6984 86.3961 89.4262 87.1077 92.9469C87.471 94.7483 88.4588 96.839 89.7606 98.5649C91.5028 100.873 94.0456 103.146 97.2655 105.271C99.5189 106.76 101.559 107.912 102.259 108.095C102.767 108.226 103.796 108.226 104.304 108.095C105.004 107.912 107.043 106.76 109.297 105.271C113.038 102.801 115.862 100.133 117.576 97.4472C118.087 96.6467 118.802 95.1658 119.085 94.3243C119.717 92.3808 119.866 90.3126 119.519 88.2987C118.781 83.9825 115.873 80.4174 112.057 79.1452C111.018 78.7984 110.459 78.7129 109.264 78.7129C107.249 78.7162 105.702 79.1962 104.021 80.3418L103.281 80.8448L102.542 80.3418C101.477 79.5996 100.27 79.0879 98.9962 78.8395C98.3371 78.7113 96.7806 78.6604 96.156 78.7475ZM98.4505 82.089C99.6487 82.3355 100.701 82.9223 101.813 83.966C102.499 84.6071 102.749 84.7369 103.286 84.7336C103.825 84.732 104.065 84.6054 104.749 83.966C105.862 82.9223 106.914 82.3355 108.112 82.089C110.313 81.6337 112.648 82.5607 114.302 84.5446C115.298 85.743 115.973 87.1752 116.263 88.7064C116.553 90.2376 116.448 91.8174 115.959 93.297C114.698 97.0576 110.867 100.744 104.366 104.451C103.751 104.802 103.447 104.939 103.281 104.939C103.115 104.939 102.811 104.802 102.196 104.451C95.6826 100.73 91.8283 97.0231 90.6021 93.3003C90.187 92.0419 90.0487 90.7086 90.1965 89.3918C90.3443 88.075 90.7747 86.8056 91.4585 85.6705C93.066 82.97 95.8388 81.5499 98.4505 82.089Z" fill="#FE4A0B"/>
</g>
<g id="heart_filled">
<path id="Vector_3" fill-rule="evenodd" clip-rule="evenodd" d="M72.2632 74.1702C70.5188 74.4289 68.8714 75.1356 67.4818 76.2215C66.6202 76.9317 65.8475 77.7435 65.1807 78.6393C63.2182 81.4055 62.4539 85.1168 63.1689 88.4321C64.091 92.7203 67.6429 97.1746 72.9535 100.705C75.4091 102.339 78.2904 103.685 79.3309 103.685C80.3713 103.685 83.2625 102.334 85.7082 100.705C89.7713 97.9981 92.7479 94.8406 94.3916 91.4893C95.4862 89.2572 95.9004 87.2191 95.7147 84.9706C95.5651 83.1626 95.1953 81.8181 94.4146 80.2467C93.7736 78.9565 93.2295 78.2004 92.1858 77.1518C90.6704 75.6314 89.0152 74.7027 87.0708 74.2852C86.1043 74.0781 84.4508 74.0798 83.4761 74.2885C82.1908 74.5647 81.1208 75.0364 79.939 75.85L79.3309 76.2691L78.7227 75.85C77.0528 74.7011 75.5061 74.1801 73.611 74.1307C73.1613 74.1162 72.7112 74.1293 72.2632 74.1702Z" fill="#FB7445"/>
</g>
</g>
</g>
</g>
</g>
</g>
</svg>
