<svg id="Layer_1" enable-background="new 0 0 500 500" viewBox="0 0 500 500" xmlns="http://www.w3.org/2000/svg"><g><path d="m326.226 340.275c-139.33 80.442-178.304 18.268-188.447-10.75-2.598-7.434-12.649-13.236-25.526-14.736-50.256-5.855-157.936-28.353-18.607-108.794 112.693-65.064 381.354-85.901 381.354-85.901s-36.081 155.118-148.774 220.181z" fill="#99e871"/><g fill="#89d263"><path d="m143.306 319.98c-106.587 61.538-107.035 58.046-111.042 55.734-4.006-2.313-10.054-2.572 96.534-64.11s285.448-161.053 289.454-158.74c4.007 2.312-168.358 105.578-274.946 167.116z"/><path d="m182.949 312.414c-37.162 0-37.162-12.674-.001-12.674 37.162 0 157.403 6.338 157.403 6.338s-120.24 6.336-157.402 6.336z"/><path d="m233.876 279.193c-30.835-.001-30.835-10.516-.001-10.516 30.835.001 130.604 5.26 130.604 5.26s-99.768 5.256-130.603 5.256z"/><path d="m286.612 246.383c-26.921-.001-26.922-9.182 0-9.182 26.921.001 114.027 4.592 114.027 4.592s-87.106 4.59-114.027 4.59z"/><path d="m337.026 213.045c-19.911 0-19.911-6.791 0-6.79 19.911 0 84.336 3.396 84.336 3.396s-64.425 3.395-84.336 3.394z"/><path d="m387.724 179.773c-13.279 0-13.279-4.529-.001-4.529 13.279 0 56.243 2.265 56.243 2.265s-42.964 2.264-56.242 2.264z"/><path d="m141.903 288.716c.001 21.456 21.953 21.456 21.952 0 0-21.456-10.978-90.877-10.978-90.877s-10.975 69.421-10.974 90.877z"/><path d="m199.443 259.313c.001 17.803 18.215 17.803 18.215.001-.001-17.803-9.109-75.405-9.109-75.405s-9.106 57.602-9.106 75.404z"/><path d="m256.271 228.866c.001 15.542 15.903 15.543 15.903 0-.001-15.543-7.953-65.833-7.953-65.833s-7.95 50.29-7.95 65.833z"/><path d="m314.013 199.759c.001 11.496 11.762 11.496 11.762 0-.001-11.495-5.882-48.691-5.882-48.691s-5.88 37.196-5.88 48.691z"/><path d="m371.644 170.489c0 7.666 7.844 7.666 7.844 0-.001-7.666-3.923-32.472-3.923-32.472s-3.921 24.806-3.921 32.472z"/></g></g></svg>