<svg width="32" height="32" viewBox="0 0 32 32" fill="none" xmlns="http://www.w3.org/2000/svg">
<rect width="32" height="32" rx="16" fill="white" fill-opacity="0.101961"/>
<path d="M26.7539 12.1116L18.8814 7.56641L8.12749 9.22994L5.24609 15.4387L13.1187 19.984L23.8726 18.3204L26.7539 12.1116Z" fill="#FF6852"/>
<path d="M23.8712 18.3203L15.9986 26.7998L13.1172 19.9838L23.8712 18.3203Z" fill="#FF4C32"/>
<path d="M5.24609 15.4395L16.0001 26.8006L13.1187 19.9847L5.24609 15.4395Z" fill="#F03417"/>
<path d="M23.8712 18.3197L15.9986 5.19922L13.1172 19.9833L23.8712 18.3197Z" fill="#FF8C7A"/>
<path d="M16 5.19922L26.7539 12.1109L23.8726 18.3197L16 5.19922Z" fill="#FF482E"/>
<path d="M16.0001 5.19922L5.24609 15.4381L13.1187 19.9833L16.0001 5.19922Z" fill="#FF614A"/>
<path d="M16.0001 5.19922L8.12749 9.22925L5.24609 15.4381L16.0001 5.19922Z" fill="#FF3719"/>
</svg>
