<svg id="Layer_1" enable-background="new 0 0 500 500" viewBox="0 0 500 500" xmlns="http://www.w3.org/2000/svg"><g><path d="m266.601 145.329s46.58-31.096 57.876-23.512c11.296 7.583 9.253 47.444 7.994 49.124-1.26 1.68-2.519 13.855-6.298 14.275s-44.271-8.817-44.388-13.016c-.118-4.198-15.184-26.871-15.184-26.871z" fill="#a90000"/><path d="m346.443 200.472h-25.847s9.255-40.434 3.882-66.537c0 0 0-.043 0-.128-3.071-14.544-10.663-24.61-27.042-20.644-45.766 11.09-43.121 65.514-43.121 65.514l-19.364-5.246-22.051-6.014s-1.151-86.584 69.437-95.2c70.589-8.616 74.342 93.238 64.106 128.255z" fill="#d55"/><path d="m324.477 133.806c-3.071-14.544-10.663-24.61-27.042-20.644-45.766 11.09-43.121 65.514-43.121 65.514l-19.364-5.246c3.924-26.358 14.715-65.897 44.145-72.039 42.652-8.914 45.254 29.729 45.382 32.415z" fill="#d40909"/><path d="m233.357 205.836c-17.615 42.994-54.552 53.059-76.816 55.362-.384.043-12.667-.554-20.43-14.203-3.412-6.057-5.972-14.714-6.185-27.041-.768-40.092 32.245-65.044 54.253-69.437 16.549-3.284 45.979 5.374 52.035 28.151 2.048 7.506 1.494 16.505-2.857 27.168z" fill="#d55"/><path d="m233.357 205.836c-17.615 42.994-54.552 53.059-76.816 55.362-.384.043-12.667-.554-20.43-14.203 13.521-20.856 44.486-49.689 61.845-57.665 10.023-4.607 24.184-8.361 38.259-10.663 2.047 7.507 1.493 16.506-2.858 27.169z" fill="#d40909"/><path d="m342.817 356.919c-6.569 18.597-7.208 94.815-38.984 115.801-31.818 20.984-161.395-106.801-150.007-222.005 0-.084 0-.17.043-.298 2.218-18.341 46.277-62.144 68.371-72.295 22.179-10.194 64.788-16.208 81.593-11.985 16.805 4.18 49.775 20.984 62.997 50.969.768 1.705 1.365 3.626 1.834 5.716 7.934 34.462-19.62 116.567-25.847 134.097z" fill="#d55"/><path d="m248.948 191.959s-3.899-48.734 27.941-61.729c31.839-12.996 55.231-32.489 61.729-30.54s18.844 11.696 17.544 18.844-45.484 16.109-48.733 27.223 12.346 46.852-9.747 57.898-38.987 11.696-48.734-11.696z" fill="#d40909"/><path d="m181.781 163.521c-2.075-1.389-3.309-3.74-3.337-6.237-.145-13.133-.372-56.898 2.973-59.825 3.94-3.447 14.773-8.371 19.697-1.97s16.685 51.271 9.573 61.829c-6.479 9.622-17.637 13.747-28.906 6.203z" fill="#d55"/><path d="m199.403 105.537c-3.981 2.299-10.436 2.299-14.417 0-3.981-2.298-3.981-6.025-.001-8.323 3.981-2.299 10.435-2.299 14.417 0s3.982 6.025.001 8.323z" fill="#d40909"/><path d="m352.243 328.001c-4.009 13.265-7.634 23.843-9.426 28.918-6.569 18.597-7.208 94.815-38.984 115.801-25.506 16.805-113.795-61.931-141.989-153.164-6.995-22.606-10.279-45.979-8.019-68.841 0-.084 0-.17.043-.298 1.919 13.478 8.146 46.619 24.525 62.059 20.856 19.705 70.589 14.8 97.673 32.5 25.165 16.464 45.638-118.274 92.598-122.155 5.63 24.44-6.611 72.85-16.421 105.18z" fill="#d40909"/><path d="m352.243 328.001c-4.009 13.265-7.634 23.843-9.426 28.918-6.569 18.597-7.208 94.815-38.984 115.801-25.506 16.805-113.795-61.931-141.989-153.164 17.786 25.378 46.534 62.485 69.608 74.172 36.169 18.339 24.269 40.646 53.528 40.646 25.038.001 35.957-80.057 67.263-106.373z" fill="#a90000"/><g><path d="m264.886 84.397c.022.028-.001.069.012.099.669 1.253.577 2.924-.525 4.797-2.258 3.844-7.675 6.904-12.111 6.841-2.223-.014-3.759-.8-4.48-2.076 0 0-19.194-25.775-20.163-36.064l17.604-8.408s16.704 30.252 19.216 34.178c.2.301.349.512.447.633z" fill="#d40909"/><path d="m244.579 54.262c-2.254 3.82-7.677 6.883-12.112 6.841s-6.204-3.173-3.95-6.993 7.677-6.883 12.112-6.841 6.204 3.173 3.95 6.993z" fill="#d55"/><path d="m242.001 54.238c-1.53 2.594-5.212 4.674-8.224 4.645-3.012-.028-4.212-2.154-2.682-4.748s5.213-4.674 8.224-4.645c3.011.028 4.212 2.154 2.682 4.748z" fill="#d40909"/></g><g><path d="m289.611 76.71c.006.039-.04.065-.045.101-.075 1.57-1.111 3.105-3.221 4.26-4.328 2.37-11.213 2.202-15.391-.376-2.104-1.275-3.118-2.894-3.078-4.516 0 0-3.606-35.387 1.314-45.714l21.5 2.005s-1.303 38.228-1.144 43.384c.019.4.041.685.065.856z" fill="#d40909"/><path d="m287.423 36.548c-4.31 2.35-11.201 2.182-15.392-.376-4.191-2.557-4.094-6.536.216-8.886s11.201-2.182 15.392.375c4.191 2.558 4.094 6.537-.216 8.887z" fill="#d55"/><path d="m284.988 35.062c-2.927 1.596-7.606 1.481-10.452-.255-2.845-1.737-2.779-4.438.147-6.034s7.606-1.482 10.451.255c2.846 1.736 2.78 4.438-.146 6.034z" fill="#d40909"/></g><g><path d="m319.105 84.686c-.002.045-.059.064-.072.104-.417 1.741-1.902 3.241-4.508 4.087-5.346 1.737-13.018.091-17.15-3.68-2.085-1.873-2.877-3.9-2.49-5.707 0 0 3.457-40.377 11.153-50.896l23.644 6.798s-9.554 42.518-10.468 48.324c-.064.449-.1.773-.109.97z" fill="#d40909"/><path d="m325.161 39.263c-5.323 1.718-13.002.07-17.151-3.68-4.15-3.751-3.199-8.184 2.124-9.903 5.323-1.718 13.002-.07 17.151 3.68 4.15 3.752 3.198 8.185-2.124 9.903z" fill="#d55"/><path d="m322.749 37.083c-3.615 1.167-8.828.048-11.646-2.499s-2.172-5.557 1.442-6.724c3.615-1.167 8.828-.048 11.646 2.499s2.172 5.558-1.442 6.724z" fill="#d40909"/></g><path d="m347.037 119.981c-4.692-.083-10.339-3.478-12.613-7.583s-.314-7.365 4.378-7.282 10.339 3.478 12.613 7.583.314 7.365-4.378 7.282z" fill="#a90000"/></g></svg>