<svg width="152" height="190" viewBox="0 0 152 190" fill="none" xmlns="http://www.w3.org/2000/svg">
<rect width="151.753" height="190" rx="4.93507" fill="#BB33FF"/>
<rect x="21.7148" y="14.3105" width="108.325" height="108.325" rx="1.48052" fill="#FEFEFE"/>
<path d="M75.8772 139.414L89.8742 115.171H61.8802L75.8772 139.414Z" fill="#FEFEFE"/>
<path d="M51.1808 179.943C50.6084 179.943 50.2807 180.357 50.2807 180.981C50.2807 181.625 50.6518 181.976 51.1848 181.976C51.6862 181.976 51.9902 181.7 51.9902 181.238V181.226H51.1177V180.78H52.46V182.402H52.0336L52.002 182.071C51.8441 182.292 51.5164 182.446 51.1256 182.446C50.3162 182.446 49.7516 181.858 49.7516 180.969C49.7516 180.093 50.3241 179.469 51.1927 179.469C51.852 179.469 52.3613 179.852 52.4442 180.44H51.9112C51.8204 180.101 51.5283 179.943 51.1808 179.943ZM53.2544 182.402H52.7294L53.7716 179.516H54.2888L55.3311 182.402H54.7981L54.5652 181.735H53.4874L53.2544 182.402ZM53.9651 180.377L53.6374 181.309H54.4191L54.0875 180.377C54.0638 180.302 54.0362 180.215 54.0283 180.156C54.0164 180.211 53.9927 180.298 53.9651 180.377ZM56.1826 182.402H55.693V179.516H56.1826L57.1143 181.814L58.0461 179.516H58.5435V182.402H58.054V181.514C58.054 180.934 58.054 180.764 58.0816 180.559L57.3473 182.402H56.8814L56.151 180.563C56.1786 180.736 56.1826 181.009 56.1826 181.368V182.402ZM60.9747 182.402H59.1823V179.516H60.9747V179.982H59.6876V180.724H60.8404V181.171H59.6876V181.936H60.9747V182.402ZM65.22 180.957C65.22 181.834 64.6436 182.45 63.8145 182.45C62.9894 182.45 62.4209 181.838 62.4209 180.957C62.4209 180.081 62.9933 179.465 63.8185 179.465C64.6436 179.465 65.22 180.077 65.22 180.957ZM64.687 180.957C64.687 180.341 64.3475 179.951 63.8185 179.951C63.2894 179.951 62.9499 180.341 62.9499 180.957C62.9499 181.573 63.2894 181.964 63.8185 181.964C64.3475 181.964 64.687 181.565 64.687 180.957ZM67.2696 181.222H66.1957V182.402H65.6904V179.516H67.4749V179.982H66.1957V180.768H67.2696V181.222ZM70.1355 181.407H69.4999V182.402H68.9946V179.516H70.1355C70.7159 179.516 71.091 179.895 71.091 180.46C71.091 181.017 70.712 181.407 70.1355 181.407ZM70.0368 179.966H69.4999V180.957H70.0289C70.3764 180.957 70.5619 180.772 70.5619 180.456C70.5619 180.14 70.3724 179.966 70.0368 179.966ZM74.1494 180.957C74.1494 181.834 73.573 182.45 72.7439 182.45C71.9188 182.45 71.3502 181.838 71.3502 180.957C71.3502 180.081 71.9227 179.465 72.7479 179.465C73.573 179.465 74.1494 180.077 74.1494 180.957ZM73.6164 180.957C73.6164 180.341 73.2769 179.951 72.7479 179.951C72.2188 179.951 71.8793 180.341 71.8793 180.957C71.8793 181.573 72.2188 181.964 72.7479 181.964C73.2769 181.964 73.6164 181.565 73.6164 180.957ZM77.2531 180.957C77.2531 181.834 76.6767 182.45 75.8476 182.45C75.0225 182.45 74.4539 181.838 74.4539 180.957C74.4539 180.081 75.0264 179.465 75.8516 179.465C76.6767 179.465 77.2531 180.077 77.2531 180.957ZM76.7201 180.957C76.7201 180.341 76.3806 179.951 75.8516 179.951C75.3225 179.951 74.983 180.341 74.983 180.957C74.983 181.573 75.3225 181.964 75.8516 181.964C76.3806 181.964 76.7201 181.565 76.7201 180.957ZM78.2288 182.402H77.7235V179.516H78.825C79.4803 179.516 79.8633 179.848 79.8633 180.416C79.8633 180.803 79.6817 181.08 79.3422 181.218L79.8909 182.402H79.3382L78.8487 181.325H78.2288V182.402ZM78.2288 179.966V180.878H78.825C79.1448 180.878 79.3343 180.709 79.3343 180.416C79.3343 180.128 79.1448 179.966 78.825 179.966H78.2288ZM82.4708 182.402H81.4325V179.516H82.4432C83.2959 179.516 83.8842 180.105 83.8842 180.965C83.8842 181.814 83.3078 182.402 82.4708 182.402ZM82.3958 179.982H81.9378V181.936H82.4234C82.9998 181.936 83.3512 181.565 83.3512 180.965C83.3512 180.353 82.9919 179.982 82.3958 179.982ZM86.1474 182.402H84.3549V179.516H86.1474V179.982H84.8603V180.724H86.0131V181.171H84.8603V181.936H86.1474V182.402ZM87.9152 182.45C87.0743 182.45 86.5294 181.865 86.5294 180.961C86.5294 180.065 87.094 179.469 87.9389 179.469C88.6219 179.469 89.1312 179.868 89.2299 180.488H88.6969C88.5982 180.152 88.31 179.955 87.927 179.955C87.3941 179.955 87.0585 180.341 87.0585 180.957C87.0585 181.569 87.398 181.964 87.927 181.964C88.3179 181.964 88.618 181.759 88.7127 181.439H89.2378C89.1273 182.047 88.5982 182.45 87.9152 182.45ZM90.1963 179.516V182.402H89.691V179.516H90.1963ZM90.6703 180.322C90.6703 179.816 91.0888 179.465 91.6968 179.465C92.2811 179.465 92.6522 179.789 92.668 180.31H92.1626C92.1508 180.061 91.9731 179.915 91.6889 179.915C91.377 179.915 91.1756 180.065 91.1756 180.306C91.1756 180.511 91.2862 180.626 91.527 180.681L91.981 180.78C92.4745 180.886 92.7154 181.139 92.7154 181.569C92.7154 182.106 92.2969 182.454 91.6612 182.454C91.0453 182.454 90.6426 182.126 90.6308 181.609H91.1361C91.1401 181.854 91.3375 182 91.6612 182C91.9968 182 92.21 181.854 92.21 181.613C92.21 181.419 92.1113 181.305 91.8744 181.253L91.4164 181.151C90.9269 181.044 90.6703 180.764 90.6703 180.322ZM93.6779 179.516V182.402H93.1725V179.516H93.6779ZM96.951 180.957C96.951 181.834 96.3745 182.45 95.5455 182.45C94.7203 182.45 94.1518 181.838 94.1518 180.957C94.1518 180.081 94.7243 179.465 95.5494 179.465C96.3745 179.465 96.951 180.077 96.951 180.957ZM96.418 180.957C96.418 180.341 96.0784 179.951 95.5494 179.951C95.0204 179.951 94.6808 180.341 94.6808 180.957C94.6808 181.573 95.0204 181.964 95.5494 181.964C96.0784 181.964 96.418 181.565 96.418 180.957ZM97.9188 182.402H97.4213V179.516H97.9227L99.2769 181.561V179.516H99.7743V182.402H99.2769L97.9188 180.357V182.402ZM100.217 180.322C100.217 179.816 100.635 179.465 101.243 179.465C101.827 179.465 102.198 179.789 102.214 180.31H101.709C101.697 180.061 101.519 179.915 101.235 179.915C100.923 179.915 100.722 180.065 100.722 180.306C100.722 180.511 100.832 180.626 101.073 180.681L101.527 180.78C102.021 180.886 102.262 181.139 102.262 181.569C102.262 182.106 101.843 182.454 101.207 182.454C100.592 182.454 100.189 182.126 100.177 181.609H100.682C100.686 181.854 100.884 182 101.207 182C101.543 182 101.756 181.854 101.756 181.613C101.756 181.419 101.658 181.305 101.421 181.253L100.963 181.151C100.473 181.044 100.217 180.764 100.217 180.322Z" fill="#FEFEFE"/>
</svg>
