<svg width="615" height="770" viewBox="0 0 615 770" fill="none" xmlns="http://www.w3.org/2000/svg">
<rect width="615" height="770" rx="20" fill="#BB33FF"/>
<rect x="88" y="58" width="439" height="439" rx="6" fill="#FEFEFE"/>
<path d="M307.5 565L364.225 466.75H250.775L307.5 565Z" fill="#FEFEFE"/>
<path d="M207.416 730.032C205.096 730.032 203.768 731.712 203.768 734.24C203.768 736.848 205.272 738.272 207.432 738.272C209.464 738.272 210.696 737.152 210.696 735.28V735.232H207.16V733.424H212.6V740H210.872L210.744 738.656C210.104 739.552 208.776 740.176 207.192 740.176C203.912 740.176 201.624 737.792 201.624 734.192C201.624 730.64 203.944 728.112 207.464 728.112C210.136 728.112 212.2 729.664 212.536 732.048H210.376C210.008 730.672 208.824 730.032 207.416 730.032ZM215.82 740H213.692L217.916 728.304H220.012L224.236 740H222.076L221.132 737.296H216.764L215.82 740ZM218.7 731.792L217.372 735.568H220.54L219.196 731.792C219.1 731.488 218.988 731.136 218.956 730.896C218.908 731.12 218.812 731.472 218.7 731.792ZM227.686 740H225.702V728.304H227.686L231.462 737.616L235.238 728.304H237.254V740H235.27V736.4C235.27 734.048 235.27 733.36 235.382 732.528L232.406 740H230.518L227.558 732.544C227.67 733.248 227.686 734.352 227.686 735.808V740ZM247.107 740H239.843V728.304H247.107V730.192H241.891V733.2H246.563V735.008H241.891V738.112H247.107V740ZM264.312 734.144C264.312 737.696 261.976 740.192 258.616 740.192C255.272 740.192 252.968 737.712 252.968 734.144C252.968 730.592 255.288 728.096 258.632 728.096C261.976 728.096 264.312 730.576 264.312 734.144ZM262.152 734.144C262.152 731.648 260.776 730.064 258.632 730.064C256.488 730.064 255.112 731.648 255.112 734.144C255.112 736.64 256.488 738.224 258.632 738.224C260.776 738.224 262.152 736.608 262.152 734.144ZM272.618 735.216H268.266V740H266.218V728.304H273.45V730.192H268.266V733.376H272.618V735.216ZM284.233 735.968H281.657V740H279.609V728.304H284.233C286.585 728.304 288.105 729.84 288.105 732.128C288.105 734.384 286.569 735.968 284.233 735.968ZM283.833 730.128H281.657V734.144H283.801C285.209 734.144 285.961 733.392 285.961 732.112C285.961 730.832 285.193 730.128 283.833 730.128ZM300.499 734.144C300.499 737.696 298.163 740.192 294.803 740.192C291.459 740.192 289.155 737.712 289.155 734.144C289.155 730.592 291.475 728.096 294.819 728.096C298.163 728.096 300.499 730.576 300.499 734.144ZM298.339 734.144C298.339 731.648 296.963 730.064 294.819 730.064C292.675 730.064 291.299 731.648 291.299 734.144C291.299 736.64 292.675 738.224 294.819 738.224C296.963 738.224 298.339 736.608 298.339 734.144ZM313.077 734.144C313.077 737.696 310.741 740.192 307.381 740.192C304.037 740.192 301.733 737.712 301.733 734.144C301.733 730.592 304.053 728.096 307.397 728.096C310.741 728.096 313.077 730.576 313.077 734.144ZM310.917 734.144C310.917 731.648 309.541 730.064 307.397 730.064C305.253 730.064 303.877 731.648 303.877 734.144C303.877 736.64 305.253 738.224 307.397 738.224C309.541 738.224 310.917 736.608 310.917 734.144ZM317.032 740H314.984V728.304H319.448C322.104 728.304 323.656 729.648 323.656 731.952C323.656 733.52 322.92 734.64 321.544 735.2L323.768 740H321.528L319.544 735.632H317.032V740ZM317.032 730.128V733.824H319.448C320.744 733.824 321.512 733.136 321.512 731.952C321.512 730.784 320.744 730.128 319.448 730.128H317.032ZM334.223 740H330.015V728.304H334.111C337.567 728.304 339.951 730.688 339.951 734.176C339.951 737.616 337.615 740 334.223 740ZM333.919 730.192H332.063V738.112H334.031C336.367 738.112 337.791 736.608 337.791 734.176C337.791 731.696 336.335 730.192 333.919 730.192ZM349.123 740H341.859V728.304H349.123V730.192H343.907V733.2H348.579V735.008H343.907V738.112H349.123V740ZM356.287 740.192C352.879 740.192 350.671 737.824 350.671 734.16C350.671 730.528 352.959 728.112 356.383 728.112C359.151 728.112 361.215 729.728 361.615 732.24H359.455C359.055 730.88 357.887 730.08 356.335 730.08C354.175 730.08 352.815 731.648 352.815 734.144C352.815 736.624 354.191 738.224 356.335 738.224C357.919 738.224 359.135 737.392 359.519 736.096H361.647C361.199 738.56 359.055 740.192 356.287 740.192ZM365.532 728.304V740H363.484V728.304H365.532ZM367.452 731.568C367.452 729.52 369.148 728.096 371.612 728.096C373.98 728.096 375.484 729.408 375.548 731.52H373.5C373.452 730.512 372.732 729.92 371.58 729.92C370.316 729.92 369.5 730.528 369.5 731.504C369.5 732.336 369.948 732.8 370.924 733.024L372.764 733.424C374.764 733.856 375.74 734.88 375.74 736.624C375.74 738.8 374.044 740.208 371.468 740.208C368.972 740.208 367.34 738.88 367.292 736.784H369.34C369.356 737.776 370.156 738.368 371.468 738.368C372.828 738.368 373.692 737.776 373.692 736.8C373.692 736.016 373.292 735.552 372.332 735.344L370.476 734.928C368.492 734.496 367.452 733.36 367.452 731.568ZM379.641 728.304V740H377.593V728.304H379.641ZM392.906 734.144C392.906 737.696 390.57 740.192 387.21 740.192C383.866 740.192 381.562 737.712 381.562 734.144C381.562 730.592 383.882 728.096 387.226 728.096C390.57 728.096 392.906 730.576 392.906 734.144ZM390.746 734.144C390.746 731.648 389.37 730.064 387.226 730.064C385.082 730.064 383.706 731.648 383.706 734.144C383.706 736.64 385.082 738.224 387.226 738.224C389.37 738.224 390.746 736.608 390.746 734.144ZM396.828 740H394.812V728.304H396.844L402.332 736.592V728.304H404.348V740H402.332L396.828 731.712V740ZM406.14 731.568C406.14 729.52 407.836 728.096 410.3 728.096C412.668 728.096 414.172 729.408 414.236 731.52H412.188C412.14 730.512 411.42 729.92 410.268 729.92C409.004 729.92 408.188 730.528 408.188 731.504C408.188 732.336 408.636 732.8 409.612 733.024L411.452 733.424C413.452 733.856 414.428 734.88 414.428 736.624C414.428 738.8 412.732 740.208 410.156 740.208C407.66 740.208 406.028 738.88 405.98 736.784H408.028C408.044 737.776 408.844 738.368 410.156 738.368C411.516 738.368 412.38 737.776 412.38 736.8C412.38 736.016 411.98 735.552 411.02 735.344L409.164 734.928C407.18 734.496 406.14 733.36 406.14 731.568Z" fill="#FEFEFE"/>
</svg>
