<svg width="114" height="99" viewBox="0 0 114 99" fill="none" xmlns="http://www.w3.org/2000/svg">
<g id="Section 2">
<path d="M-14020.8 -594.75C-14020.8 -595.855 -14019.9 -596.75 -14018.8 -596.75H10233.2C10234.3 -596.75 10235.2 -595.855 10235.2 -594.75V402.25C10235.2 403.355 10234.3 404.25 10233.2 404.25H-14018.8C-14019.9 404.25 -14020.8 403.355 -14020.8 402.25V-594.75Z" fill="#444444"/>
<path d="M-14018.8 -596.75V-595.75H10233.2V-596.75V-597.75H-14018.8V-596.75ZM10235.2 -594.75H10234.2V402.25H10235.2H10236.2V-594.75H10235.2ZM10233.2 404.25V403.25H-14018.8V404.25V405.25H10233.2V404.25ZM-14020.8 402.25H-14019.8V-594.75H-14020.8H-14021.8V402.25H-14020.8ZM-14018.8 404.25V403.25C-14019.3 403.25 -14019.8 402.803 -14019.8 402.25H-14020.8H-14021.8C-14021.8 403.907 -14020.4 405.25 -14018.8 405.25V404.25ZM10235.2 402.25H10234.2C10234.2 402.802 10233.8 403.25 10233.2 403.25V404.25V405.25C10234.9 405.25 10236.2 403.907 10236.2 402.25H10235.2ZM10233.2 -596.75V-595.75C10233.8 -595.75 10234.2 -595.303 10234.2 -594.75H10235.2H10236.2C10236.2 -596.407 10234.9 -597.75 10233.2 -597.75V-596.75ZM-14018.8 -596.75V-597.75C-14020.4 -597.75 -14021.8 -596.407 -14021.8 -594.75H-14020.8H-14019.8C-14019.8 -595.302 -14019.3 -595.75 -14018.8 -595.75V-596.75Z" fill="white" fill-opacity="0.1"/>
<g id="Frame 17">
<rect x="-250.775" y="-466.75" width="615" height="770" rx="20" fill="#BB33FF"/>
<g id="Group 2">
<g id="Group 3">
<path id="Polygon 1" d="M56.7246 98.25L113.449 0H-5.34058e-05L56.7246 98.25Z" fill="#FEFEFE"/>
</g>
</g>
</g>
</g>
</svg>
