<svg id="Layer_1" enable-background="new 0 0 512 512" height="512" viewBox="0 0 512 512" width="512" xmlns="http://www.w3.org/2000/svg"><g><g><g fill="#ccf3fa"><path d="m323.965 191.48c0-12.398.223-24.768.495-37.137-5.068-.049-10.127-.136-15.156-.175-13.903-.087-27.807-.602-41.72-.786-15.486-.204-30.972-.408-46.458-.718-15.486.311-30.981.515-46.467.718-13.913.185-27.807.699-41.72.786-5.019.039-10.078.126-15.146.175.262 12.369.495 24.739.486 37.137-.039 37.749.039 75.488-.282 113.236-.146 18.418-1.359 37.263-.126 55.633.485 7.272 1.767 14.583 4.796 20.991.311.699.651 1.379 1.019 2.049.223.427.476.845.718 1.252 3.621 6.039 9.379 12.126 15.709 13.505.194.039.146.418-.048.398-6.476-.466-12-2.903-16.302-8.593.359 8.224 1.845 16.311 5.757 22.933 6.981 11.796 22.467 14.729 33.632 17.884 18.399 5.204 39.021 7.097 58.108 7.331 19.457.242 39.079-2.039 57.827-7.331 11.175-3.155 26.651-6.088 33.632-17.884 3.913-6.621 5.398-14.709 5.757-22.933-4.301 5.69-9.816 8.127-16.292 8.593-.194.019-.252-.359-.058-.398 6.34-1.379 12.088-7.466 15.719-13.505.243-.408.485-.825.709-1.252.369-.67.718-1.35 1.029-2.049 3.019-6.408 4.301-13.719 4.787-20.991 1.233-18.37.029-37.215-.126-55.633-.318-37.748-.24-75.487-.279-113.236z"/><path d="m405.501 229.248c-2.777-20.35-13.651-41.04-34.321-47.749-9.932-3.224-20.942-3.165-30.108 2.281-6.583 3.903-11.583 9.69-14.107 16.612.175 8.583.33 17.166.456 25.758.379 1.757 1.078 3.379 2.301 4.68.854.913 1.728 1.515 2.592 1.874-.757-.641-1.369-1.486-1.728-2.495-.029-.097.117-.155.165-.068 1.903 3.728 5.884 2.99 8.282.641.078-.078.155-.165.233-.243.01-.01.019-.029.039-.039.252-.272.485-.573.689-.884.029-.039.058-.068.078-.107 1.544-2.408 1.806-5.447 1.806-8.301.01-4.476-.631-8.961 1.019-13.224 2.418-6.214 8.301-10.301 14.437-11.282 13.991-2.262 24.719 11.457 28.457 24.195 4.631 15.777 4.097 33.797.631 49.759-1.787 8.262-4.544 16.379-8.068 23.972-3.243 6.981-7.126 14.738-13.059 19.564-4.457 3.631-11.379 5.758-16.525 2.369-.214-.146-.427-.291-.631-.456-2.029 3.01-4.689 5.67-7.631 7.719-.185.126-.398-.155-.233-.301 2.573-2.359 4.903-5.32 6.583-8.573.359-.67.68-1.359.961-2.058 2.126-5.126 2.534-10.806-.262-15.961-4.029-7.418-13.787-9.34-19.671-4.418.029 5.68.058 11.36.087 17.039.029 4.602.049 9.204.068 13.797.583 2.087 1.34 4.126 2.321 6.097 5.369 10.855 16.874 17.321 28.583 12.059 9.515-4.272 16.35-13.214 22.069-21.603 5.767-8.457 10.67-17.525 14.544-27.001 8.079-19.729 12.846-42.351 9.943-63.653z"/></g><path d="m409.239 231.627c-1.738-21.904-13.311-44.797-34.865-52.972-11.156-4.233-24.428-3.631-34.564 2.971-5.903 3.835-10.476 9.641-12.903 16.214-.311-14.495-.689-28.991-1.087-43.487-.029-.893-.058-1.786-.078-2.68-.417-.019-.825-.029-1.233-.039-7.029-.233-14.059-.33-21.04-.534-6.495-.184-12.991-.369-19.486-.534-20.952-.544-41.914-1-62.856-1.398-20.962.398-41.924.854-62.866 1.398-6.495.165-12.991.35-19.476.534-6.981.204-14.01.301-21.039.534-.417.01-.825.019-1.233.039-.029.893-.058 1.786-.078 2.68-.884 31.729-1.65 63.439-1.845 95.197-.126 20.001-.204 40.001-.32 60.002-.058 10.331-.107 20.651-.097 30.972.019 8.835-.165 17.729 1.019 26.477.99 7.369 3.097 14.505 6.884 20.505-.049.796-.097 1.583-.117 2.379v.01c-.243 6.233.243 12.418 2.194 18.272 4.214 12.67 13.952 19.214 24.69 22.962 8.136 2.845 16.515 5.165 25.03 7 15.544 3.359 31.583 4.757 47.312 5.126 15.729-.369 31.642-1.767 47.186-5.126 8.515-1.835 16.894-4.155 25.04-7 10.738-3.748 20.467-10.292 24.69-22.962 1.951-5.855 2.437-12.049 2.194-18.272 0-.01 0-.01 0-.019-.029-.786-.078-1.583-.126-2.369 3.796-6 5.893-13.136 6.884-20.505 1.184-8.748 1-17.641 1.02-26.477 0-3 0-6-.01-9 3.767 7.408 10.331 13.699 18.787 14.952 10.33 1.524 19.632-4.622 26.496-11.719 8.389-8.67 15.02-19.447 20.408-30.176 11.146-22.216 17.466-48.032 15.485-72.955zm-73.39 3.35c2.932-.554 4.738-2.185 5.835-4.408.019-.039.039-.068.049-.097 1.233-2.155 1.777-4.913 1.903-7.243.223-3.961-.689-8.02.107-11.952.806-4.039 3.233-7.447 6.447-9.699 6.165-4.34 13.952-3.689 20.127.272 13.165 8.427 16.059 27.02 16.428 41.982.398 15.583-2.447 31.409-8.379 45.671-3.097 7.447-6.942 15.777-12.602 21.408-3.185 3.155-7.398 5.447-11.865 5.049-1.718-.155-3.282-.777-4.602-1.738 3.748-6.641 4.398-14.583-1.204-21.282-5.292-6.33-14.845-7.359-20.214-2.281-.068-13.7-.126-27.409-.214-41.108-.039-6.398-.107-12.787-.194-19.175.058.116.117.223.185.33 1.756 2.882 4.727 4.931 8.193 4.271zm-11.476 125.372c-.485 7.272-1.767 14.583-4.787 20.991-.311.699-.66 1.379-1.029 2.049-.223.427-.466.845-.709 1.252-3.631 6.039-9.379 12.126-15.719 13.505-.194.039-.136.418.058.398 6.476-.466 11.991-2.903 16.292-8.593-.359 8.224-1.845 16.311-5.757 22.933-6.981 11.796-22.457 14.729-33.632 17.884-18.748 5.292-38.37 7.573-57.827 7.331-19.088-.233-39.71-2.126-58.108-7.331-11.165-3.155-26.651-6.088-33.632-17.884-3.913-6.621-5.398-14.709-5.757-22.933 4.301 5.69 9.826 8.127 16.302 8.593.194.019.243-.359.048-.398-6.33-1.379-12.088-7.466-15.709-13.505-.243-.408-.495-.825-.718-1.252-.369-.67-.709-1.35-1.019-2.049-3.029-6.408-4.311-13.719-4.796-20.991-1.233-18.37-.019-37.215.126-55.633.32-37.749.243-75.488.282-113.236.01-12.398-.223-24.768-.486-37.137 5.068-.049 10.127-.136 15.146-.175 13.913-.087 27.807-.602 41.72-.786 15.486-.204 30.981-.408 46.467-.718 15.486.311 30.972.515 46.458.718 13.913.185 27.816.699 41.72.786 5.029.039 10.088.126 15.156.175-.272 12.369-.495 24.739-.495 37.137.01 5.806.01 11.622.01 17.428.01 29.37 0 58.74.214 88.119.019 2.563.039 5.126.058 7.69.019 1.922.049 3.854.087 5.786-.204 3.117-.175 6.223.204 9.282.337 13.544.735 27.175-.168 40.564zm71.187-67.448c-3.874 9.476-8.777 18.544-14.544 27.001-5.719 8.389-12.554 17.331-22.069 21.603-11.709 5.262-23.214-1.204-28.583-12.059-.981-1.971-1.738-4.01-2.321-6.097-.019-4.592-.039-9.194-.068-13.797-.029-5.68-.058-11.36-.087-17.039 5.884-4.923 15.641-3 19.671 4.418 2.796 5.155 2.388 10.835.262 15.961-.281.699-.602 1.389-.961 2.058-1.68 3.253-4.01 6.214-6.583 8.573-.165.146.048.427.233.301 2.942-2.049 5.602-4.709 7.631-7.719.204.165.417.311.631.456 5.146 3.389 12.068 1.262 16.525-2.369 5.932-4.825 9.816-12.583 13.059-19.564 3.524-7.592 6.282-15.709 8.068-23.972 3.466-15.961 4-33.982-.631-49.759-3.738-12.738-14.466-26.457-28.457-24.195-6.136.981-12.02 5.068-14.437 11.282-1.65 4.262-1.01 8.748-1.019 13.224 0 2.854-.262 5.893-1.806 8.301-.019.039-.049.068-.078.107-.204.311-.437.612-.689.884-.019.01-.029.029-.039.039-.078.078-.155.165-.233.243-2.398 2.35-6.379 3.088-8.282-.641-.049-.087-.194-.029-.165.068.359 1.01.971 1.854 1.728 2.495-.864-.359-1.738-.961-2.592-1.874-1.223-1.301-1.922-2.922-2.301-4.68-.126-8.593-.281-17.175-.456-25.758 2.524-6.922 7.524-12.709 14.107-16.612 9.165-5.447 20.175-5.505 30.108-2.281 20.671 6.709 31.545 27.399 34.321 47.749 2.901 21.302-1.866 43.924-9.943 63.653z" fill="#066d80"/></g><g><path d="m307.013 326.776c.223 9.583.427 19.253-.427 28.748-1.204 13.389-8.068 23.136-21.486 29.807-11.913 5.922-25.273 9.602-38.632 12.029-8.301 1.515-16.826 2.884-25.447 2.884-8.622 0-17.156-1.369-25.457-2.884-13.359-2.427-26.719-6.107-38.622-12.029-13.418-6.67-20.282-16.418-21.486-29.807-.854-9.495-.651-19.165-.427-28.748.068-3.049.146-6.088.185-9.107.175-13.34.456-26.68.544-40.021.165-26.68.32-53.351.476-80.031.117-18.506-.165-36.962-.563-55.429 29.748.35 59.565-.786 89.255-1.311 27.166-.476 54.351-.903 81.517-1.786-.427 19.505-.757 38.991-.641 58.526.156 26.68.32 53.351.486 80.031.078 13.34.369 26.68.544 40.021.036 3.019.113 6.058.181 9.107z" fill="#ffd903"/><path d="m309.586 326.717c-.029-1.757-.058-3.505-.058-5.243-.029-14.602.272-29.214.262-43.827-.01-28.583-.029-57.167-.058-85.75-.01-17.651-.456-35.263-.981-52.885-.019-.612-.039-1.223-.058-1.835-.738-.01-1.476-.01-2.214 0-.019 0-.029 0-.049 0-27.166.087-54.351.631-81.507 1.126-29.719.534-59.575.466-89.294 1.893-.796.029-1.592.068-2.379.117-.019.612-.039 1.223-.049 1.835-.495 16.573-.883 33.147-.903 49.749-.019 28.583-.039 57.167-.048 85.75-.01 14.612.291 29.224.262 43.827 0 1.738-.029 3.485-.058 5.243-.223 10.738-.835 21.7.68 32.292 1.573 11.01 7.408 19.797 17.952 26.079 10.437 6.214 23.253 10.437 35.37 13.36 1.194.291 2.398.563 3.592.816 10.292 2.253 20.641 3.757 30.972 3.757 10.33 0 20.69-1.505 30.981-3.757 1.194-.252 2.389-.524 3.583-.816 12.117-2.922 24.933-7.146 35.37-13.36 10.544-6.282 16.369-15.068 17.952-26.079 1.515-10.592.894-21.554.68-32.292zm-3 28.807c-.87 9.676-4.715 17.441-11.835 23.527 5.416-9.03 4.895-22.903 5.235-32.489.75-21.149-.2-41.996-3.134-62.954-.007-.05-.093-.039-.089.012 1.34 18.047 1.901 36.39 1.249 54.48-.313 8.669-.994 17.25-2.051 25.857-.822 6.701-1.979 14.06-6.394 18.882-1.374.856-2.829 1.672-4.376 2.444 3.317-4.576 5.105-10.741 5.575-15.899 1.425-15.654-.538-31.835-2.901-47.3-.014-.088-.164-.068-.157.021 1.034 12.949 1.507 25.984 1.569 38.974.045 9.383-1.188 19.979-7.792 25.941-10.972 4.938-22.99 8.155-35.018 10.34-8.301 1.515-16.826 2.884-25.447 2.884-8.622 0-17.156-1.369-25.457-2.884-10.861-1.973-21.709-4.798-31.787-8.96-13.641-11.152-9.191-39.324-8.882-53.923.464-21.93 1.705-43.006 1.944-64.939.001-.118-.175-.116-.182 0-1.422 25.127-3.732 50.177-4.682 75.332-.49 12.961-2.109 31.804 7.493 41.642-.843-.391-1.696-.768-2.526-1.181-2.707-1.346-5.134-2.823-7.315-4.424-5.771-7.038-7.892-16.464-8.216-25.684-.432-12.311.078-24.551.531-36.857.914-24.808 1.091-49.653 1.67-74.473.003-.118-.175-.116-.182 0-1.609 27.687-3.59 55.358-4.779 83.066-.501 11.675-3.336 28.596.375 41.66-1.951-3.91-3.136-8.261-3.57-13.094-.854-9.495-.651-19.165-.427-28.748.068-3.049.146-6.088.185-9.107.175-13.34.456-26.68.544-40.021.165-26.68.32-53.351.476-80.031.117-18.505-.165-36.962-.563-55.429 29.748.35 59.565-.786 89.255-1.311 27.166-.476 54.351-.903 81.517-1.786-.427 19.505-.757 38.991-.641 58.526.155 26.68.32 53.351.486 80.031.078 13.34.369 26.68.544 40.021.039 3.02.117 6.058.185 9.107.221 9.581.425 19.251-.43 28.747z" fill="#bf8001"/></g><g><g fill="#fff"><path d="m117.997 213.695c-.511-9.253-.894-18.418-.354-27.69.108-1.903.206-3.855.334-5.835-1.504-1.127-2.929-2.408-4.256-3.816.678 10.214.501 20.447-.688 30.758-1.012 8.757-2.949 17.214-4.944 25.787-1.917 8.262-7.224 21.03 1.405 27.146 5.504 3.903 10.693.253 11.981-5.767 1.012-4.787-.472-9.903-1.13-14.661-1.198-8.601-1.867-17.262-2.348-25.922z"/><path d="m267.427 202.471c-.157-1.398-.334-2.786-.521-4.185-.148-1.243-.324-2.476-.501-3.709-.049-.34-.098-.68-.147-1.02-.747-5.039-1.671-10.058-2.595-15.078-1.061 1.486-2.3 2.864-3.686 4.107.049.243.108.495.157.738.757 3.553 1.287 7.146 1.553 10.777.118 1.554.187 3.117.187 4.689.02 2.029-.049 4.078-.216 6.136-.432 5.359-1.405 10.699-2.595 15.933-.6 2.641-1.484 5.223-2.054 7.864-.285 1.33-.786 2.913-.521 4.291 1.003 5.359 5.003 5.466 8.384 3.359 5.74-3.563 3.666-15.583 3.499-21.292-.128-4.212-.462-8.416-.944-12.61z"/><path d="m258.758 183.616c-2.221 1.757-4.786 3.184-7.686 4.184-11.283 3.903-23.814-.971-30.606-10.175-.943 1.981-2.329 3.777-4.128 5.204-6.929 5.466-15.037 3.485-20.797-1.621-5.848 7.369-15.401 11.796-24.954 9.855-5.779-1.175-10.349-4.35-13.583-8.612-.039.019-.088.049-.128.068-6.85 3.757-14.438 5.253-21.74 4.466.029 1.466.069 2.932.118 4.398 28.306 3.767 57.181 5.719 85.625 5.301 12.973-.184 25.917-.961 38.802-2.359-.156-3.592-.471-7.175-.923-10.709z"/><path d="m289.472 182.034c-9.347 2.291-17.839-1.524-23.008-8.437-.442 1.01-.953 1.99-1.523 2.942 1.022 5.592 1.867 11.233 2.604 16.865.698-.087 1.406-.175 2.103-.272 8.03-1.068 16.04-2.282 24.021-3.68 4.324-.757 8.619-1.039 12.905-1.379 0-1.719.01-3.427.029-5.136.029-3.544.069-7.088.118-10.631-1.042-.456-2.064-.99-3.027-1.612-2.861 5.446-7.775 9.767-14.222 11.34z"/><path d="m326.888 106.381c-3.922-2.078-8.236-3.146-12.492-3.175-.197 0-.403 0-.6.01-1.425.019-2.85.165-4.246.427-5.405.99-10.447 3.757-14.163 8.33-.088.107-.285-.039-.197-.156 3.342-4.602 8.167-7.767 13.485-9.272-1.258-1.379-3.007-2.524-5.337-3.32-5.425-1.874-11.214-.913-16.492 1.35-1.032.437-2.044.932-3.027 1.456-.138-.534-.305-1.068-.521-1.573-.727-1.718-1.907-3.214-3.558-4.233-2.605-1.592-5.435-1.718-7.981-.854-.747.252-1.474.592-2.162 1.01-.128-.563-.334-1.116-.609-1.65-.639-1.272-1.651-2.418-3.027-3.301-1.17-.748-2.329-1.146-3.459-1.262-1.347-.146-2.644.126-3.813.718-1.966.981-3.607 2.835-4.649 5.097-.029.058-.138.029-.138-.039.295-2.67 1.916-4.816 4.098-6.136-1.376-2-3.253-3.728-5.533-4.942-5.533-2.951-11.47-2.689-16.472-.233 1.907 3.913 2.949 8.185 2.88 12.369-.01.301-.442.291-.462 0-.216-4.078-1.317-8.233-3.312-11.903-.236-.447-.482-.884-.767-1.311-.01-.019-.019-.039-.039-.058-1.258-2.058-2.84-3.913-4.708-5.466-4.944-4.126-12.688-5.321-18.998-4.796-10.074.825-17.033 6.699-22.458 14.078 3.646 2.922 6.624 6.777 8.59 11.311.138.311-.285.583-.482.272-2.329-3.757-5.73-6.971-9.691-9.34-.324-.204-.659-.388-.993-.573-5.926-3.272-12.964-4.689-19.48-3.33-6.614 1.379-12.217 4.951-16.256 9.855-.678.806-1.297 1.66-1.877 2.544-2.064 3.107-3.548 6.622-4.374 10.379-.049.204-.364.155-.364-.049.059-3.845 1.012-7.631 2.683-11.107-3.882-1.282-8.118-1.67-12.511-.923-8.148 1.398-15.391 6.379-19.273 13.631-3.322 6.204-3.607 12.748-1.7 18.894.069.243.147.476.236.709.079.243.167.486.256.718 1.003 2.738 2.438 5.379 4.226 7.864.069.107-.098.233-.187.136-2.025-2.136-3.568-4.466-4.688-6.913-6.074 10.447-6.811 23.67-1.051 34.389.57 1.068 1.199 2.117 1.907 3.126.256.369.521.738.796 1.097 1.337 1.767 2.831 3.369 4.462 4.806.727.65 1.474 1.262 2.251 1.835 3.519 2.621 7.499 4.544 11.706 5.748.904.253 1.818.476 2.742.66 7.037 1.456 14.497.913 21.239-1.816-2.664-3.864-4.295-8.515-4.826-13.34-.02-.204.314-.243.364-.049 1.268 4.952 3.971 8.981 7.509 11.981.216.194.442.379.668.544 9.671 7.69 24.974 8.146 34.448-.417-1.68-1.68-3.116-3.641-4.197-5.738-.059-.117.108-.214.177-.107 1.278 2.039 2.89 3.777 4.728 5.165.344.262.708.505 1.061.738.01.01.01.019.02.019 5.042 3.282 11.499 4.029 17.367 1.233 2.654-1.262 4.61-3.146 5.828-5.33.226-.369.413-.757.58-1.146 2.192-5.097.688-11.389-4.786-15.117-.157-.107-.02-.35.148-.262 6.192 3.437 7.843 10.602 5.651 16.602 6.89 7.864 17.387 11.01 28.198 7.69 3.322-1.019 6.32-2.612 8.885-4.641.305-.223.59-.466.875-.709 1.474-1.262 2.791-2.67 3.931-4.194.452-.592.865-1.204 1.258-1.835.256-.417.511-.845.747-1.272.226-.417.442-.845.649-1.272.482.65 1.012 1.272 1.582 1.854.265.282.541.544.816.816 5.288 4.971 12.993 7.262 20.482 5.719 5.927-1.214 10.693-4.408 13.73-8.758.216-.311.432-.631.639-.961 2.713-4.389 3.764-9.816 2.634-15.534-.039-.214.285-.301.334-.087 1.425 5.486.816 11.33-1.474 16.36.197.087.393.165.6.243.599.243 1.209.447 1.828.612 1.022.301 2.074.515 3.135.65 6.113.786 12.747-.884 17.721-4.311 9.484-6.544 15.057-18.952 15.46-30.166.44-12.048-5.133-24.214-16.18-30.068z"/></g><g fill="#5c5c5c"><path d="m326.694 103.925c-4.088-1.932-8.573-2.66-12.933-2.301-1.048-2.117-2.806-4.019-5.466-5.592-8.292-4.874-15.641-2.301-22.205 2.33-1-2.194-2.719-4.088-5.049-5.253-3.058-1.534-6.806-1.262-9.894.272-.68-1.524-1.855-2.874-3.525-3.854-1.796-1.049-3.893-1.359-5.893-1.058-1.311-2.505-3.35-4.719-6.097-6.34-6.99-4.136-14.505-3-20.418 1.029-4.398-7.913-12.359-14.03-21.544-14.389-13.224-.515-21.01 7.835-26.71 17.884-5.942-4.291-13.466-6.204-21.282-4.777-7.67 1.398-14.262 6.369-18.282 12.874-4.301-1.534-9.117-2.039-14.165-1.243-17.282 2.728-27.341 21.399-21.632 36.554-10.029 12.36-10.719 29.943-.417 43.341.019.019.029.039.049.058-.058 10.331-.621 20.68-1.631 30.894-.854 8.699-1.738 17.525-3.408 26.107-1.447 7.447-4.787 15.243-3.505 22.923 1.418 8.525 12.981 16.535 19.418 7.486 3.466-4.884 1.806-10.835.757-16.224-1.738-8.991-3.184-18.117-3.748-27.263-.554-9.204-.291-18.486.233-27.69.146-2.68.408-5.369.699-8.068 3.796 2.476 7.961 4.116 12.282 4.932 0 1.476 0 2.952.01 4.427 0 .379.01.748.01 1.127.864.204 1.718.408 2.583.602.116.029.243.058.359.087 11.903 2.738 23.845 4.971 36.088 6.165 16.437 1.602 32.982 2.33 49.506 2.087 12.981-.184 25.972-.864 38.904-2.068.019 7.029-.592 14.03-1.942 20.632-.981 4.767-4.243 11.039-2.476 15.961 1.194 3.369 4.777 4.563 8.068 3.573 4.389-1.311 6.301-5.592 6.825-9.757 1-7.748-.476-16.01-1.291-23.719-.126-1.107-.243-2.223-.359-3.33-.156-1.398-.311-2.796-.476-4.194.728-.068 1.437-.155 2.165-.233 7.66-.864 15.282-1.981 22.875-3.32 4.233-.748 8.719-1.282 12.68-3.068.233-.107.466-.214.709-.311.991-.427 1.971-.835 2.952-1.204.01-.738.019-1.466.039-2.194.019-1.631.039-3.253.078-4.884.049-3.175.117-6.35.194-9.534 5.602 1.524 11.826.932 17.34-1.971 12.36-6.486 18.097-20.981 18.428-34.147.349-13.514-6.146-27.35-18.903-33.359zm-206.346 135.693c.66 4.757 2.136 9.874 1.126 14.661-1.282 6.02-6.476 9.67-11.981 5.767-8.631-6.117-3.321-18.884-1.408-27.146 2-8.573 3.932-17.03 4.952-25.787 1.185-10.311 1.359-20.544.68-30.758 1.33 1.408 2.757 2.689 4.262 3.816-.126 1.981-.223 3.932-.34 5.835-.534 9.272-.155 18.437.359 27.69.476 8.659 1.146 17.32 2.35 25.922zm100.537-42.934c-28.447.418-57.322-1.534-85.634-5.301-.048-1.466-.087-2.932-.116-4.398 7.301.786 14.894-.709 21.738-4.466.049-.019.097-.049.136-.068 3.233 4.262 7.796 7.437 13.583 8.612 9.554 1.942 19.107-2.485 24.952-9.855 5.757 5.107 13.864 7.087 20.797 1.621 1.796-1.427 3.185-3.223 4.126-5.204 6.787 9.204 19.321 14.078 30.603 10.175 2.903-1 5.466-2.427 7.69-4.184.447 3.534.767 7.116.922 10.709-12.884 1.398-25.826 2.175-38.797 2.359zm47.486 18.399c.165 5.709 2.243 17.729-3.495 21.292-3.388 2.107-7.388 2-8.389-3.359-.262-1.379.233-2.961.524-4.291.563-2.641 1.456-5.224 2.049-7.864 1.194-5.233 2.165-10.573 2.602-15.933.165-2.058.233-4.107.214-6.136 0-1.573-.068-3.136-.185-4.689-.272-3.631-.796-7.223-1.553-10.777-.049-.243-.117-.495-.165-.738 1.388-1.243 2.631-2.622 3.689-4.107.923 5.02 1.845 10.039 2.592 15.078.049.34.097.68.146 1.02.184 1.233.359 2.466.505 3.709.185 1.398.369 2.786.524 4.185.476 4.192.816 8.396.942 12.61zm38.234-32.147c-.019 1.709-.029 3.417-.029 5.136-4.291.34-8.583.621-12.903 1.379-7.981 1.398-15.991 2.612-24.03 3.68-.689.097-1.398.184-2.097.272-.738-5.631-1.582-11.272-2.602-16.865.563-.951 1.078-1.932 1.524-2.942 5.165 6.913 13.661 10.728 23.001 8.437 6.447-1.573 11.359-5.893 14.224-11.34.961.621 1.99 1.155 3.029 1.612-.048 3.544-.087 7.088-.117 10.631zm21.001-16.32c-4.971 3.427-11.612 5.097-17.719 4.311-1.068-.136-2.117-.35-3.136-.65-.621-.165-1.233-.369-1.825-.612-.214-.078-.408-.156-.602-.243 2.291-5.029 2.893-10.874 1.476-16.36-.049-.214-.379-.126-.34.087 1.136 5.719.078 11.146-2.631 15.534-.204.33-.427.65-.641.961-3.039 4.35-7.806 7.544-13.728 8.758-7.486 1.544-15.195-.748-20.486-5.719-.272-.272-.544-.534-.816-.816-.563-.582-1.097-1.204-1.583-1.854-.204.427-.418.854-.641 1.272-.243.427-.495.854-.747 1.272-.398.631-.806 1.243-1.262 1.835-1.136 1.524-2.456 2.932-3.932 4.194-.281.243-.573.485-.874.709-2.563 2.029-5.563 3.621-8.884 4.641-10.816 3.321-21.311.175-28.195-7.69 2.184-6 .534-13.165-5.651-16.602-.175-.087-.311.155-.155.262 5.476 3.728 6.981 10.02 4.787 15.117-.165.388-.349.777-.573 1.146-1.223 2.185-3.175 4.068-5.835 5.33-5.864 2.796-12.321 2.049-17.36-1.233-.01 0-.01-.01-.019-.019-.359-.233-.719-.476-1.068-.738-1.835-1.388-3.447-3.126-4.728-5.165-.068-.107-.233-.01-.175.107 1.087 2.097 2.515 4.058 4.194 5.738-9.466 8.563-24.777 8.107-34.448.417-.223-.165-.447-.349-.66-.544-3.544-3-6.243-7.029-7.515-11.981-.048-.194-.378-.155-.359.049.524 4.825 2.156 9.476 4.825 13.34-6.748 2.728-14.204 3.272-21.243 1.816-.922-.184-1.835-.408-2.738-.66-4.214-1.204-8.185-3.126-11.709-5.748-.777-.573-1.524-1.184-2.252-1.835-1.631-1.437-3.126-3.039-4.457-4.806-.281-.359-.544-.728-.796-1.097-.709-1.01-1.34-2.058-1.913-3.126-5.757-10.719-5.02-23.942 1.058-34.389 1.117 2.447 2.66 4.777 4.689 6.913.087.097.253-.029.185-.136-1.787-2.485-3.224-5.126-4.233-7.864-.087-.233-.175-.476-.253-.718-.088-.233-.165-.466-.233-.709-1.913-6.146-1.621-12.69 1.699-18.894 3.884-7.253 11.127-12.233 19.272-13.631 4.398-.747 8.632-.359 12.515.923-1.67 3.476-2.631 7.262-2.689 11.107 0 .204.32.252.369.049.825-3.757 2.311-7.272 4.369-10.379.583-.883 1.204-1.738 1.884-2.544 4.039-4.903 9.641-8.476 16.253-9.855 6.515-1.359 13.554.058 19.476 3.33.34.185.67.369 1 .573 3.961 2.369 7.359 5.583 9.689 9.34.194.311.612.039.476-.272-1.961-4.534-4.942-8.389-8.583-11.311 5.418-7.379 12.379-13.253 22.457-14.078 6.311-.524 14.049.67 18.991 4.796 1.874 1.553 3.456 3.408 4.709 5.466.019.019.029.039.039.058.291.427.534.864.767 1.311 2 3.67 3.097 7.825 3.311 11.903.019.291.456.301.466 0 .068-4.184-.971-8.457-2.884-12.369 5.01-2.456 10.942-2.719 16.476.233 2.281 1.214 4.156 2.942 5.534 4.942-2.184 1.32-3.806 3.466-4.097 6.136 0 .068.107.097.136.039 1.039-2.262 2.68-4.117 4.651-5.097 1.165-.592 2.466-.864 3.816-.718 1.126.117 2.282.515 3.457 1.262 1.379.884 2.388 2.029 3.029 3.301.272.534.476 1.087.602 1.65.69-.417 1.418-.757 2.165-1.01 2.544-.864 5.379-.738 7.981.854 1.651 1.019 2.835 2.515 3.563 4.233.214.505.379 1.039.514 1.573.981-.524 2-1.019 3.029-1.456 5.282-2.262 11.068-3.224 16.496-1.35 2.33.796 4.078 1.942 5.33 3.32-5.311 1.505-10.136 4.67-13.486 9.272-.087.117.117.262.204.156 3.709-4.573 8.758-7.34 14.156-8.33 1.398-.262 2.825-.408 4.252-.427.194-.01.398-.01.592-.01 4.262.029 8.573 1.097 12.495 3.175 11.049 5.855 16.622 18.02 16.175 30.069-.396 11.213-5.969 23.621-15.455 30.165z"/><path d="m302.673 128.294c-1.981-3.418-5.748-5.651-10.059-4.796-.33.068-.243.573.087.582 4.379.155 7.088 2.748 8.117 6.088.126.437.233.884.311 1.34.427 2.505-.01 5.291-1.311 7.728-2.69 5.049-7.389 7.835-12.515 9.913-.049.019-.029.097.029.087 7.486-1.699 15.612-5.651 16.709-14.156.243-1.835-.019-3.66-.66-5.291 5.816-3.709 13.33-3.35 18.379 2.66.058.068.175-.019.126-.097-4.358-6.941-13.484-8.66-19.213-4.058z"/><path d="m212.496 138.722c.223 4.466-2.796 8.981-7.35 9.796-2.068.369-3.893-.019-5.515-.874-.223-.117-.447-.243-.66-.379-.019.524-.078 1.049-.194 1.553-.835 4-4.291 7.185-8.767 8.039-5.806 1.097-10.923-1.952-14.729-6.078-.039-.029-.097.019-.068.058 3.524 6.039 10.923 10.243 17.835 7.165 3.757-1.68 6.117-5.097 6.524-8.806 2.126.951 4.602 1.155 6.767.476 4.69-1.476 7.02-6.321 6.253-10.971-.009-.047-.096-.038-.096.021z"/><path d="m177.738 114.808c.136.039.175-.155.058-.204-6.592-2.563-14.195.107-16.962 5.66-3.923-.583-8.204.33-11.505 2.33-8.631 5.243-9.952 16.661-5.971 25.302.049.107.204.029.184-.078-2-8.447-1.165-17.02 5.66-23.117 3.476-3.107 7.398-3.991 11.136-3.272.884.175 1.748.437 2.592.777 2.524 1 4.884 2.709 6.884 4.913.175.194.427-.049.34-.262-1.379-3.01-3.767-4.922-6.563-5.913 2.797-4.854 7.991-7.942 14.147-6.136z"/><path d="m256.293 112.323c-1.786 1.874-2.786 4.32-2.845 6.738-3.418-.99-7.156-.796-10.127.767-.515-1.67-1.427-3.262-2.767-4.65-6.631-6.913-17.204-3.204-21.418 4.33-.058.107.097.185.165.087 4.311-6.272 12.476-8.524 18.603-3.321 1.67 1.417 2.757 3.155 3.311 5 .311 1.02.456 2.078.427 3.117-.058 3.631-2.068 7.185-5.825 9.117-.214.107-.068.466.165.398 5.233-1.66 8.078-6.457 7.835-11.301 2.922-2.097 6.194-3.204 9.661-2.612.165 2.097 1.068 4.117 2.825 5.68.282.252.796-.078.553-.427-1.058-1.515-1.738-3.204-1.961-4.913-.049-.262-.068-.534-.078-.796-.146-2.573.748-5.117 2.893-7.088 3.709-3.427 9.175-3.495 13.631-1.67.068.029.117-.087.049-.126-5.009-2.68-10.99-2.651-15.097 1.67z"/></g></g></g></svg>