<svg id="Layer_1" enable-background="new 0 0 512 512" height="512" viewBox="0 0 512 512" width="512" xmlns="http://www.w3.org/2000/svg"><g><g fill="#78e50a"><path d="m454.773 233.735-4.021 185.04-75.748 34.248-.024-.001-14.534 6.577s-.001.024-.025.024l-52.078 23.539 4.498-207.016 38.222-11.432c.024.001.024.001.048.001l27.948-8.366z"/><path d="m451.761 232.097-142.297 42.525-13.393-4.79-.096-.026-9.36-3.348-2.4-.874-54.697-19.571 55.457-15.387 2.433-.673 81.08-22.498 44.893 13.287z"/><path d="m308.232 276.748-21.672-7.751-2.4-.85-57.457-20.574-1.224-.438-.024-.001-.146.045-1.022.292.016-.749-35.809-12.799-3.965 182.478 69.124 37.951 52.25 28.66zm-63.25 113.587c-7.022-2.982-13.051-7.128-18.088-12.438-5.06-5.334-8.894-11.464-11.5-18.414-2.631-6.95-3.899-14.234-3.806-21.851.081-8.173 1.652-14.79 4.713-19.9 3.086-5.109 7.362-8.209 12.902-9.371 5.515-1.138 11.831-.178 18.973 2.855 5.704 2.422 11.198 5.564 16.508 9.453l-.227 21.57c-1.818-2.071-4-4.029-6.525-5.826-2.549-1.797-5.106-3.255-7.718-4.352-5.392-2.294-9.649-2.289-12.795.013-3.146 2.326-4.763 6.596-4.826 12.835-.062 6.19 1.438 11.738 4.5 16.642 3.086 4.905 7.217 8.477 12.417 10.694 4.818 2.04 9.69 2.654 14.617 1.866l-.234 20.796c-5.465-.023-11.769-1.539-18.911-4.572z"/></g><g fill="#ffaa01"><path d="m186.094 233.073-3.303 152.016-33.528 11.317 3.806-175.152 20.232 7.236h.025l7.92 2.833 4.104 1.468z"/><path d="m104.99 179.841-40.787 7.047 40.321 14.421z"/><path d="m108.319 304.911c1.659-.641 2.515-2.219 2.57-4.757.049-2.248-.629-4.464-2.033-6.623s-3.28-3.796-5.625-4.96l-7.922-3.873-.338 15.569 6.697 3.435c2.777 1.415 4.993 1.827 6.651 1.209z"/><path d="m107.088 272.522c1.491-.717 2.272-2.176 2.32-4.376.105-4.811-3.173-8.679-9.738-11.579l-3.713-1.653-.313 14.384 5.819 2.715c2.252 1.041 4.134 1.227 5.625.509z"/><path d="m110.925 206.164c-.024-.001-.072-.002-.096-.026l-6.36-2.267-43.825-15.682-3.441 158.35 36.045 19.77c-.001.024-.001.024.024.001l53.588 29.415 3.81-175.346zm14.954 119.93c-5.042 1.608-12.044-.044-20.867-4.783l-29.62-15.978 1.604-73.832 27.565 11.531c18.505 7.731 28.023 18.266 27.741 31.248-.061 2.804-.74 5.112-2.012 6.874s-3.184 2.954-5.688 3.529c-2.48.599-5.187.492-8.097-.249l-.005.218c3.342 2.032 6.358 4.589 9.024 7.694 2.714 3.107 4.771 6.392 6.22 9.834 1.473 3.466 2.153 6.65 2.09 9.575-.173 7.929-2.841 12.708-7.955 14.339z"/></g><g fill="#ff1b1b"><path d="m163.76 98.785-.409-.082c-.092.917-.319 2.436-.727 4.532-.408 2.095-2.345 11.051-5.883 26.962l11.383 2.642-3.485-24.384c-.457-3.493-.749-6.716-.879-9.67z"/><path d="m234.037 28.041-112.149 6.367 67.453 11.334 23.618 3.972 16.796 2.832.049.001 129.649-10.316z"/><path d="m188.951 48.152-34.558-5.806c-.12-.027-.169-.028-.169-.028l-43.667-7.334-3.633 167.174 45.049 16.12.048.025 1.104.387 3.216 1.159 15.864 5.69 5.568 1.983 4.272 1.52 4.104 1.468 38.209 13.673 4.115-189.391zm-15.623 122.362-2.301-17.682-17.986-4.889-3.357 15.358-18.141-5.522 22.48-78.386 21.755 2.843 19.247 94.893z"/><path d="m370.836 43.76-3.51 161.517-3.212.898-76.651 21.264-2.433.673-3.65 1.009-15.915 4.419-38.691 10.745 4.116-189.392 29.511-2.358 26.409-2.111z"/></g><g fill="#572c00"><path d="m455.997 230.835-86.253-25.529 3.567-164.176-1.284.093-137.913-15.623-123.023 7.026-2.906.155-.039 1.789-3.103 142.805-45.449 7.865-1.311.213-.041 1.886-3.489 160.599 92.047 50.519 1.482.806.925-.294 33.527-11.317-.656 30.171 123.789 67.922 1.195.655 1.222-.554 144.852-65.495 4.071-187.361.039-1.789zm-221.96-202.794 125.416 14.19-129.649 10.316-.048-.001-16.797-2.832-23.617-3.972-67.453-11.334zm136.799 15.719-3.495 160.84-.015.677-3.212.898-76.651 21.264-2.433.673-58.255 16.173.547-25.167.054-2.49.253-11.628.054-2.466.001-.024.581-26.714.055-2.514 2.572-118.388zm-265.846 136.081-.466 21.468-40.321-14.421zm45.679 40.562-3.809 175.322-89.657-49.185 3.441-158.35 43.825 15.682 46.201 16.508zm32.122 164.686-33.527 11.317 3.806-175.152 20.232 7.236.024.001 7.92 2.833 4.104 1.468.744.282zm-.746-156.047-4.272-1.52-21.432-7.673-3.216-1.159-1.104-.387-.048-.025-45.049-16.12.494-22.725.054-2.466 3.085-141.983 78.394 13.168 39.522 6.64-2.56 117.808-.054 2.49-.607 27.923-.001.024-.054 2.466-.254 11.677-.053 2.466-.533 24.538-38.209-13.673zm2.484 187.359.643-29.567.056-2.562 3.267-150.348 35.809 12.799-.016.749 1.168-.337.024.001 1.224.438 57.457 20.574 2.4.85 21.672 7.751-2.329 206.265zm124.935-141.779-22.849-8.164-2.4-.874-54.697-19.571 55.457-15.387 2.433-.673 81.08-22.498 83.272 24.642zm141.288 144.153-142.409 64.388 4.498-207.016 141.932-42.412z"/><path d="m249.511 372.244c-5.2-2.217-9.331-5.79-12.417-10.694-3.062-4.904-4.562-10.451-4.5-16.642.063-6.239 1.679-10.509 4.826-12.835 3.146-2.302 7.403-2.306 12.795-.013 2.612 1.097 5.169 2.555 7.718 4.352 2.525 1.796 4.707 3.754 6.525 5.826l.227-21.57c-5.309-3.889-10.804-7.031-16.508-9.453-7.142-3.033-13.458-3.993-18.973-2.855-5.54 1.162-9.816 4.261-12.902 9.371-3.062 5.11-4.632 11.727-4.713 19.9-.093 7.617 1.176 14.901 3.806 21.851 2.606 6.95 6.44 13.08 11.5 18.414 5.036 5.31 11.066 9.456 18.088 12.438 7.142 3.034 13.446 4.549 18.912 4.571l.234-20.796c-4.928.789-9.8.175-14.618-1.865z"/><path d="m154.023 79.393-22.48 78.386 18.141 5.522 3.357-15.358 17.986 4.889 2.301 17.682 21.697 6.615-19.247-94.893zm2.718 50.803c3.538-15.911 5.475-24.866 5.883-26.962s.635-3.614.727-4.532l.409.082c.129 2.954.422 6.177.878 9.67l3.485 24.384z"/><path d="m75.392 305.333 29.62 15.978c8.822 4.739 15.825 6.391 20.867 4.783 5.114-1.631 7.782-6.41 7.955-14.339.063-2.925-.617-6.109-2.09-9.575-1.449-3.442-3.506-6.728-6.22-9.834-2.665-3.105-5.682-5.663-9.024-7.694l.005-.218c2.911.741 5.617.848 8.097.249 2.504-.575 4.416-1.767 5.688-3.529s1.951-4.069 2.012-6.874c.282-12.982-9.236-23.517-27.741-31.248l-27.565-11.531zm20.566-50.418 3.713 1.653c6.564 2.9 9.842 6.769 9.738 11.579-.048 2.2-.829 3.658-2.32 4.376s-3.374.531-5.624-.509l-5.819-2.715zm-.647 29.784 7.922 3.873c2.345 1.163 4.22 2.801 5.625 4.96 1.404 2.159 2.082 4.375 2.033 6.623-.055 2.538-.912 4.116-2.57 4.757-1.658.617-3.875.206-6.65-1.209l-6.697-3.435z"/></g><path d="m413.381 220.742c-10.525-2.067-37.454-7.199-42.783-6.831-6.662.46-106.438 28.526-108.974 33.913s34.448 22.009 34.448 22.009l-.096-.026-9.36-3.348-2.4-.874-54.697-19.571 55.457-15.387 2.433-.673 81.08-22.498z" opacity=".2"/><path d="m186.094 233.073-3.303 152.016-33.527 11.317s20.547-13.921 23.083-19.307c2.536-5.387 4.532-125.069 2.876-132.362-1.655-7.292-22.153-23.483-22.153-23.483l20.232 7.236.024.001 7.92 2.833 4.104 1.468z" opacity=".2"/><path d="m370.836 43.76-3.51 161.517-3.212.898-76.651 21.264-2.433.673-19.564 5.428c20.296-10.177 73.202-37.302 77.264-45.026 5.045-9.565-5.309-117.422-6.4-122.888-.915-4.615-53.316-10.761-75.929-13.09z" opacity=".1"/><path d="m454.773 233.735-4.021 185.04-90.306 40.825c21.479-14.505 70.876-48.237 74.311-53.822 4.389-7.161 3.625-138.997.761-146.315-2.681-6.855-75.136 3.858-84.406 5.253z" opacity=".1"/><g fill="#fff"><path d="m308.232 276.748-2.329 206.265-52.25-28.66c17.22 6.735 41.728 15.346 43.763 10.723 3.179-7.187-.514-171.134-.948-179.005-.397-7.313-62.463-35.05-71.16-38.891l.146-.045.024.001 1.224.438 57.457 20.574 2.4.85z" opacity=".4"/><path d="m374.98 453.022-14.534 6.577s-.001.024-.025.024l-52.078 23.539 4.498-207.016 38.222-11.432c.024.001.024.001.048.001l27.948-8.366 1.497.105s-40.875 16.647-55.577 25.398c-14.703 8.751-4.321 171.029 2.222 176.009 6.045 4.606 42.261-3.556 47.779-4.839z" opacity=".4"/><path d="m188.951 48.152 39.522 6.64-4.115 189.391-38.209-13.673-4.104-1.468-4.272-1.52-5.568-1.983c17.547 3.913 39.78 8.121 42.027 4.928 3.744-5.361 1.575-155.972-.632-165.695-2.141-9.431-55.861-21.652-59.206-22.426z" opacity=".2"/><path d="m281.38 229.121-15.914 4.419-38.691 10.745 4.115-189.391 29.511-2.358 26.41-2.111c-11.872 3.152-38.518 10.579-44.214 15.583-7.397 6.491-2.81 157.155-1.063 160.216 1.095 1.934 23.501 2.638 39.846 2.897z" opacity=".2"/></g><path d="m93.247 366.309-36.045-19.77 3.441-158.35 43.825 15.682 6.36 2.267c-13.505-2.954-38.898-8.682-43.438-7.886-6.07 1.078-5.346 134.726-4.255 140.192.763 3.839 19.224 19.139 30.112 27.865z" opacity=".1"/></g></svg>