<svg id="Layer_1" enable-background="new 0 0 512 512" viewBox="0 0 512 512" xmlns="http://www.w3.org/2000/svg"><g><path d="m482.403 244.165c0-65.494-68.932-120.927-163.016-138.423-20.122-3.746-41.392-5.756-63.387-5.756-3.752 0-7.486.057-11.192.172-7.748.245-15.389.736-22.909 1.461-108.718 10.501-192.302 70.423-192.302 142.546 0 79.501 101.565 144.178 226.403 144.178 12.579 0 24.918-.657 36.938-1.924 2.558-.263 5.099-.56 7.629-.885 9.65-1.227 19.071-2.855 28.236-4.842 5.293-1.148 10.501-2.415 15.611-3.803 1.113-.297 2.215-.605 3.317-.919.788.919 1.593 1.832 2.415 2.735.194.211.388.423.582.634 20.99 22.72 50.591 35.362 81.214 35.534-.177-.131-.354-.269-.531-.405-14.686-11.512-26.483-26.301-34.392-43.214-1.228-2.621-2.398-5.345-3.477-8.137-.497-1.257-.965-2.536-1.416-3.82.868-.411 1.73-.834 2.586-1.256 53.322-26.398 87.691-67.63 87.691-113.876zm-303.174 55.37c-3.432 3.032-8.046 4.545-13.841 4.545-5.59 0-10.135-1.553-13.647-4.665-3.506-3.112-5.265-6.955-5.265-11.528 0-4.682 1.719-8.468 5.145-11.369 3.432-2.901 8.023-4.351 13.767-4.351 5.687 0 10.278 1.45 13.761 4.351s5.224 6.687 5.224 11.369c0 4.734-1.719 8.616-5.144 11.648zm9.21-54.011c-3.883 3.084-6.618 5.796-8.217 8.137-1.593 2.341-2.392 5.236-2.392 8.696v2.792h-26.803v-7.024c0-9.73 3.215-17.364 9.65-22.897 4.202-3.564 6.904-6.007 8.097-7.338 1.199-1.33 2.05-2.609 2.553-3.831.508-1.222.759-2.661.759-4.305 0-2.022-.891-3.723-2.672-5.111-1.782-1.382-4.083-2.073-6.898-2.073-8.565 0-17.552 3.432-26.968 10.289v-31.354c3.454-1.964 8.125-3.666 14.001-5.105 5.875-1.434 11.157-2.153 15.839-2.153 13.03 0 22.989 2.564 29.875 7.697s10.33 12.596 10.33 22.378c-.001 11.811-5.717 22.209-17.154 31.202zm76.218 54.011c-3.432 3.032-8.046 4.545-13.841 4.545-5.585 0-10.136-1.553-13.641-4.665-3.512-3.112-5.27-6.955-5.27-11.528 0-4.682 1.719-8.468 5.15-11.369 3.426-2.901 8.017-4.351 13.761-4.351 5.687 0 10.278 1.45 13.761 4.351s5.225 6.687 5.225 11.369c-.001 4.734-1.714 8.616-5.145 11.648zm9.216-54.011c-3.883 3.084-6.624 5.796-8.217 8.137-1.599 2.341-2.398 5.236-2.398 8.696v2.792h-26.803v-7.024c0-9.73 3.215-17.364 9.65-22.897 4.203-3.564 6.904-6.007 8.103-7.338 1.194-1.33 2.044-2.609 2.553-3.831.503-1.222.753-2.661.753-4.305 0-2.022-.891-3.723-2.672-5.111-1.782-1.382-4.083-2.073-6.898-2.073-8.565 0-17.553 3.432-26.969 10.289v-31.354c3.461-1.964 8.126-3.666 14.001-5.105 5.881-1.434 11.158-2.153 15.84-2.153 13.03 0 22.988 2.564 29.875 7.697 6.892 5.133 10.335 12.596 10.335 22.378-.001 11.811-5.722 22.209-17.153 31.202zm32.535-54.017c3.455-1.964 8.12-3.666 14.001-5.105 5.875-1.434 11.151-2.153 15.834-2.153 11.243 0 20.202 1.907 26.871 5.733 1.062.605 2.061 1.262 3.009 1.964 6.886 5.133 10.33 12.596 10.33 22.378 0 8.89-3.243 16.982-9.73 24.279-2.124 2.393-4.596 4.699-7.423 6.921-3.883 3.084-6.623 5.796-8.216 8.137s-2.393 5.236-2.393 8.696v2.792h-26.808v-7.024c0-9.73 3.22-17.364 9.656-22.897 4.203-3.564 6.898-6.007 8.097-7.338 1.199-1.33 2.044-2.609 2.553-3.831.502-1.222.759-2.661.759-4.305 0-2.022-.891-3.723-2.672-5.111-1.781-1.382-4.083-2.073-6.903-2.073-8.565 0-17.553 3.432-26.963 10.289v-31.352zm16.194 107.908c-3.512-3.112-5.265-6.955-5.265-11.528 0-4.682 1.713-8.468 5.145-11.369s8.017-4.351 13.761-4.351c5.693 0 10.278 1.45 13.761 4.351s5.23 6.687 5.23 11.369c0 4.734-1.718 8.616-5.15 11.648-3.426 3.032-8.045 4.545-13.841 4.545-5.584 0-10.129-1.553-13.641-4.665z" fill="#ffaa01"/><path d="m394.714 358.04c-.856.423-1.719.845-2.586 1.256.451 1.284.919 2.563 1.416 3.82 1.08 2.792 2.25 5.516 3.477 8.137 7.908 16.913 19.705 31.702 34.392 43.214.177.137.354.274.531.405-30.623-.172-60.224-12.814-81.214-35.534-.194-.211-.388-.423-.582-.634-.822-.903-1.627-1.816-2.415-2.735-1.102.314-2.204.622-3.317.919-13.956 3.786-28.624 6.703-43.847 8.645 40.53-34.78 63.918-91.075 66.156-146.931.662-16.433-.508-32.827-3.609-48.621-6.304-32.119-20.596-61.765-43.727-84.24 94.084 17.495 163.016 72.928 163.016 138.423-.002 46.247-34.371 87.479-87.691 113.876z" fill="#fff" opacity=".1"/><path d="m423.639 237.936c-30.173 104.502-328.025 173.006-352.863 6.851-24.838-166.153 387.977-128.469 352.863-6.851z" fill="#fff" opacity=".2"/><path d="m292.938 386.42c-12.02 1.267-24.359 1.924-36.938 1.924-124.839 0-226.403-64.677-226.403-144.178 0-72.124 83.584-132.045 192.303-142.546-95.666 21.253-153.086 102.957-130.571 164.58 29.937 81.934 120.03 107.343 201.609 120.22z" opacity=".05"/><g fill="#bd7e00"><path d="m468.122 186.163c-11.66-17.639-28.327-33.467-49.54-47.045-43.459-27.814-101.199-43.128-162.582-43.128s-119.123 15.314-162.582 43.128c-21.213 13.578-37.881 29.407-49.541 47.045-12.127 18.357-18.277 37.869-18.277 58.002 0 20.134 6.15 39.645 18.278 58.002 11.66 17.639 28.328 33.467 49.541 47.045 43.459 27.814 101.198 43.128 162.581 43.128 31.896 0 62.81-4.134 91.246-12.014 16.576 19.22 40.901 31.753 66.054 34.877 6.612.823 13.225 1.022 19.82.571.708-.04 1.416-.097 2.124-.166-.32-.246-.634-.491-.948-.742-17.233-13.699-30.623-32.313-38.24-52.978 7.863-3.877 15.388-8.108 22.526-12.676 21.213-13.579 37.88-29.407 49.54-47.045 12.128-18.358 18.278-37.868 18.278-58.002 0-20.133-6.15-39.645-18.278-58.002zm-73.408 171.877c-.856.423-1.719.845-2.586 1.256.451 1.284.919 2.563 1.416 3.82 1.08 2.792 2.25 5.516 3.477 8.137 7.908 16.913 19.705 31.702 34.392 43.214.177.137.354.274.531.405-30.623-.172-60.224-12.814-81.214-35.534-.194-.211-.388-.423-.582-.634-.822-.903-1.627-1.816-2.415-2.735-1.102.314-2.204.622-3.317.919-27.174 7.372-57.06 11.454-88.414 11.454-124.839 0-226.403-64.677-226.403-144.178s101.565-144.179 226.403-144.179 226.403 64.678 226.403 144.179c-.002 46.247-34.371 87.479-87.691 113.876z"/><path d="m366.124 191.947c-6.892-5.133-16.85-7.697-29.88-7.697-4.683 0-9.959.719-15.834 2.153-5.881 1.439-10.546 3.14-14.001 5.105v31.354c9.41-6.858 18.397-10.289 26.963-10.289 2.821 0 5.122.691 6.903 2.073 1.782 1.387 2.672 3.089 2.672 5.111 0 1.644-.257 3.083-.759 4.305-.508 1.222-1.354 2.501-2.553 3.831s-3.894 3.774-8.097 7.338c-6.435 5.533-9.656 13.167-9.656 22.897v7.024h26.808v-2.792c0-3.46.8-6.355 2.393-8.696s4.334-5.053 8.216-8.137c11.438-8.993 17.153-19.391 17.153-31.199.001-9.785-3.442-17.248-10.328-22.381z"/><path d="m350.004 276.518c-3.483-2.901-8.068-4.351-13.761-4.351-5.745 0-10.33 1.45-13.761 4.351-3.432 2.901-5.145 6.687-5.145 11.369 0 4.573 1.753 8.416 5.265 11.528s8.057 4.665 13.642 4.665c5.796 0 10.415-1.513 13.841-4.545 3.432-3.032 5.15-6.915 5.15-11.648 0-4.682-1.748-8.468-5.231-11.369z"/><path d="m280.69 191.947c-6.886-5.133-16.844-7.697-29.875-7.697-4.682 0-9.959.719-15.84 2.153-5.875 1.439-10.54 3.14-14.001 5.105v31.354c9.416-6.858 18.404-10.289 26.969-10.289 2.815 0 5.116.691 6.898 2.073 1.782 1.387 2.672 3.089 2.672 5.111 0 1.644-.251 3.083-.753 4.305-.508 1.222-1.359 2.501-2.553 3.831-1.199 1.33-3.9 3.774-8.103 7.338-6.435 5.533-9.65 13.167-9.65 22.897v7.024h26.803v-2.792c0-3.46.8-6.355 2.398-8.696 1.593-2.341 4.334-5.053 8.217-8.137 11.431-8.993 17.153-19.391 17.153-31.199 0-9.785-3.442-17.248-10.335-22.381z"/><path d="m264.576 276.518c-3.483-2.901-8.074-4.351-13.761-4.351-5.744 0-10.335 1.45-13.761 4.351-3.432 2.901-5.15 6.687-5.15 11.369 0 4.573 1.758 8.416 5.27 11.528 3.506 3.112 8.057 4.665 13.641 4.665 5.796 0 10.409-1.513 13.841-4.545s5.144-6.915 5.144-11.648c.001-4.682-1.741-8.468-5.224-11.369z"/><path d="m195.262 191.947c-6.886-5.133-16.844-7.697-29.875-7.697-4.682 0-9.964.719-15.839 2.153-5.876 1.439-10.547 3.14-14.001 5.105v31.354c9.416-6.858 18.403-10.289 26.968-10.289 2.815 0 5.117.691 6.898 2.073 1.781 1.387 2.672 3.089 2.672 5.111 0 1.644-.251 3.083-.759 4.305-.502 1.222-1.354 2.501-2.553 3.831-1.193 1.33-3.894 3.774-8.097 7.338-6.435 5.533-9.65 13.167-9.65 22.897v7.024h26.803v-2.792c0-3.46.8-6.355 2.392-8.696 1.599-2.341 4.334-5.053 8.217-8.137 11.438-8.993 17.153-19.391 17.153-31.199.001-9.785-3.442-17.248-10.329-22.381z"/><path d="m179.149 276.518c-3.483-2.901-8.074-4.351-13.761-4.351-5.744 0-10.335 1.45-13.767 4.351-3.426 2.901-5.145 6.687-5.145 11.369 0 4.573 1.759 8.416 5.265 11.528 3.512 3.112 8.057 4.665 13.647 4.665 5.796 0 10.41-1.513 13.841-4.545 3.426-3.032 5.144-6.915 5.144-11.648 0-4.682-1.741-8.468-5.224-11.369z"/></g><path d="m394.714 358.04c-.856.423-1.719.845-2.586 1.256.451 1.284.919 2.563 1.416 3.82 1.08 2.792 2.25 5.516 3.477 8.137 7.908 16.913 19.705 31.702 34.392 43.214.177.137.354.274.531.405-30.623-.172-60.224-12.814-81.214-35.534-.194-.211-.388-.423-.582-.634-.822-.903-1.627-1.816-2.415-2.735-1.102.314-2.204.622-3.317.919-5.11 1.387-10.318 2.655-15.611 3.803 58.79-20.493 144.686-63.684 139.37-136.761-6.292-86.508-102.849-128.242-223.365-143.773 3.706-.114 7.44-.172 11.192-.172 21.995 0 43.265 2.01 63.387 5.756 94.084 17.495 163.016 72.928 163.016 138.423-.002 46.247-34.371 87.479-87.691 113.876z" fill="#fff" opacity=".2"/></g></svg>