<svg id="Layer_1" enable-background="new 0 0 70 70" height="512" viewBox="0 0 70 70" width="512" xmlns="http://www.w3.org/2000/svg"><g id="_x33_2"><g><g><path d="m57.474369 40.0335464c-3.1295166-7.6465302-11.0901337-2.4193192-19.0700607 1.7707825-6.2302437 3.2713737-20.3731594-2.0237923-26.2756081-4.5031128-.8209753-.3448524-1.6010132.8244972-1.1060791 1.658123 9.4305925 15.8840027 23.7481575 19.5622253 33.1742363 17.3986435 9.9619637-2.2865715 16.4070168-8.6779174 13.2775116-16.3244362z" fill="#df3260"/><path d="m49.1826973 49.7661896c-2.4268608 2.9065056-8.7836952 4.269474-13.56633 3.4799919 5.0722542-.3197403 9.7705765-1.2652969 13.56633-3.4799919z" fill="#fff"/><g><g opacity=".1"><path d="m54.9926758 40.9350014-.0014458-.0012932c-.0101471.351326-.0107803.3678589.0014458.0012932z" fill="#fff"/></g></g><g><path d="m58.2693253 43.772007c-1.4739685 4.4607506-6.4211998 8.1774635-13.0488014 10.166935-9.3444405 2.8050156-23.8843575.1442032-34.130867-14.9863052-.2750454-.4061432-.2195492-.9223518.0122995-1.2919426-.2510138.3546333-.333437.8706589-.0793343 1.298645 9.4305925 15.8840027 23.7481575 19.5622253 33.1742363 17.3986435 8.2862692-1.9019509 14.1388846-6.6439667 14.0724669-12.5859757z" fill="#cc104a"/></g><path d="m65.9925842 37.6779137c1.0677109-.7203217 1.4003296-1.9715118.4347916-2.0811424s-.953537.424366-.8312912.5660744c.122261.1417122.0622253.2156982-.5861816.504261-1.4653625.6521263-2.9904671 2.5840645-5.7489395 3.1372261-.3545265.0710907-.698658-.0887032-.9057808-.4114265-.4673424-.7281647-1.3907433-2.0064125-2.1268578-2.0291023-1.030323-.0317688-.1027565 2.1294899-1.2480888 3.4481926-1.1453209 1.3187103.5187454 1.6567841 1.155014 4.4134712.6362572 2.7566795.7196198 2.1802559 1.6807327 1.7034874.9611168-.4767647.8822517-1.103569.7082863-1.442894-.1494789-.2915573.5860825-1.1654663.7714195-2.0679588.0642929-.3130493.2271461-.5932541.4570923-.7773972 3.303051-2.645054 5.2954826-4.325718 6.2398033-4.9627915z" fill="#72d561"/><g opacity=".2"><path d="m61.7463303 39.1494141c-.8929863.6693153-1.8256912 1.0774612-2.6636353 1.2506561-.2746773.0570869-.5425797-.0650291-.7045593-.3138275-.450264-.6926613-1.5384254-2.0881157-1.9310074-1.3610458-.1600533.2964249-.0554657.6683235.2087326.7793922.5736847.2411728 1.2242203.9992332 1.5903816 1.4721718.3549767.4584999.7803078.2955666 1.1822472.1455879 2.2438965-.8382187 3.0740013-2.3112793 4.405838-3.0545616.2779999-.1551743.9432373-.6833534 1.3977661-1.0049553-1.5065498.9569092-1.079361.2839317-3.4857635 2.0865822z" fill="#fff"/></g></g><path d="m65.9925842 37.6779137c1.0496292-.7081261 1.5155106-2.0737762.2225418-2.095211.5586472.309639.1915054 1.3013573-.7237396 1.8972244-1.0422745.6785583-4.3815575 3.6426544-4.6758041 3.8616943-.1923561.1431808-.8687897.6656303-1.3142014 1.0102959-.224678.1738434-.3848419.4400482-.4494972.7385063-.1863708.8604279-.8957825 2.082737-.7526169 2.3625641.1666107.3256874.0419846.5532684-.8366776 1.1601219-.5327492.3679504-.8962555.2064781-.8962555.2064781.3183022.8511124.5542336.4543304 1.249649.1093674.9611168-.4767647.8822517-1.103569.7082863-1.442894-.1494789-.2915573.5860825-1.1654663.7714195-2.0679588.0642929-.3130493.2271461-.5932541.4570923-.7773972 3.3030511-2.6450539 5.2954827-4.3257179 6.2398034-4.9627914z" fill="#5ec363"/></g><g opacity=".1"><path d="m38.4043083 41.8043289c-3.0841751 1.619442-8.1073856 1.1394501-13.1100979-.0589027-.2290783.2622299-.4888535.4928436-.6969032.6716614-.680378.5847893-1.439291 1.0769997-2.2027473 1.5445366-1.1578445.7090492-2.3626728 1.3392944-3.5927773 1.9130821-.6422691.2995872-1.2912273.5836372-1.9451427.8557472 3.3185673 3.4838142 6.9161625 5.9547653 10.51964 7.5902901 4.0941792-1.0016556 7.8316517-2.5520859 11.120821-4.5005035 2.8054924-1.6619644 5.2481232-3.585968 7.2590485-5.718071 2.302002-2.4406853 4.108345-4.9224586 5.3688736-7.3763809l.2840195-.5529289c-3.6890565.3828582-8.3435556 3.1839751-13.0047342 5.6314696z" fill="#4c5c75"/></g><g><g><path d="m46.5970116 22.387558c-7.4842949-3.5111542-11.5498428 5.4518147-16.2621803 13.6753044-3.6791058 6.4203987-19.7490492 11.7705078-26.6191891 13.8079796-.9555738.28339-.9552417 1.6381569.0004745 1.9210396 18.2103958 5.3900108 33.4580841-1.2460594 40.7146339-8.9397545 7.6690953-8.1310845 9.6505482-16.953413 2.166261-20.4645691z" fill="#f45170"/><g><g opacity=".1"><path d="m40.8768425 24.6537685h-.9515419c-.1612549 0-.3175163.0556641-.442215.1578865-3.1879959 2.6132965-5.8111 7.6615047-8.6534214 12.4519367-2.3813686 4.0132751-9.6830006 7.5257339-16.4828262 10.0581245-.2722416.101387-.4522495.3619041-.4522495.6523972 0 .3983879.3335295.7157555.7314177.6958961 5.3228865-.2657547 9.7462091-.3532791 19.8159599-9.0757294 3.8675461-3.35009 4.880764-9.8684101 7.0484619-13.9142742.2488756-.4644908-.0866347-1.0262374-.6135855-1.0262374z" fill="#fff"/></g><g opacity=".1"><path d="m44.8878403 24.6537685h-.0020981c.2025909.2596302.2146225.2753525.0020981 0z" fill="#fff"/></g></g><g><path d="m49.5878868 24.5818424c1.3664284 4.1923218-.8761024 10.1019764-5.6941948 15.851038-6.7931595 8.1057663-21.6257153 15.6240578-40.1207008 11.310585-.4964569-.1157875-.7591975-.5261612-.77266-.9448051-.0130358.4202538.2251165.8479919.7157848.9932213 18.2103958 5.3900108 33.4580841-1.2460594 40.7146339-8.9397545 6.3790798-6.7633667 8.8226261-14.0047779 5.1571369-18.2702847z" fill="#e93565"/></g><path d="m52.9347229 15.0105486c.5336189-1.2160912.0768852-2.3394794-.8673973-1.7915916s-.6093903.9273024-.4122772.9506216c.1971245.0233192.1644211.2499361-.2499657.880497-.9560089 1.4547081-1.1417084 3.8076744-3.3229446 6.0103874-.279171.2819157-.6889687.3896523-1.0730629.2902241-.8666496-.2243404-2.4816437-.5512142-3.164608-.0893574-.9559402.6464443 1.1985779 1.6109009.9574356 3.311327-.241127 1.7004242 1.4767876.8642941 3.7277374 2.449789 2.2509422 1.585495 1.977005 1.1133537 2.5614815.1431313.5844917-.9702225.1325035-1.3734856-.2315216-1.5064983-.3127823-.1142845-.1743011-1.2259235-.5533676-2.0007668-.1314812-.2687721-.1534386-.5777721-.0561142-.8607121 1.4311752-4.1606751 2.1839599-6.6461296 2.6846046-7.7870512z" fill="#72d561"/><g opacity=".2"><path d="m50.8324509 16.9304199c-.7479935 1.1519833-.802948 2.6909752-2.2921181 4.3970451-.2880936.3305321-.5677071.6426277-1.0897331.5110569-.7799339-.1971397-2.6668091-.5269299-2.5812416.2678051.0343399.318943.3550568.5206547.6626244.4295216.6678581-.1978874 1.7191887-.0709057 2.3390045.0341072.6024933.1020832.890522-.2951603 1.163105-.6626282 1.5206795-2.051424 1.4274216-3.7383232 2.1520882-5.0777283.1585808-.2931557.4428978-1.1084099.6609879-1.6369495-.2363702.5011177-.8147508 1.4295845-1.0147172 1.7377701z" fill="#fff"/></g></g><path d="m52.9347229 15.0105486c.5244446-1.1951857.119812-2.488657-1.0688858-1.6638803.6957283-.1384697.9636497.8192043.4931221 1.8459816-.5358353 1.1692791-1.7962227 5.6223545-1.9308243 5.9723778-.0880013.2288113-.3859711 1.0471783-.5817757 1.5865211-.0987816.2720451-.0828781.569149.0394249.8275776.3526039.7450104.4492722 2.0922871.7491989 2.2021713.3490677.1279011.3738441.3739052-.0567551 1.3848782-.2610817.6129761-.6895142.7320881-.6895142.7320881.8057556.4103317.7795029-.0306854 1.2024078-.732687.5844917-.9702225.1325035-1.3734856-.2315216-1.5064983-.3127823-.1142845-.1743011-1.2259235-.5533676-2.0007668-.1314812-.2687721-.1534386-.5777721-.0561142-.8607121 1.4311754-4.1606751 2.1839601-6.6461296 2.6846048-7.7870512z" fill="#5ec363"/></g><path d="m48.3800049 28.4922485c.0569382 3.2280197-1.2863922 6.8928146-4.1962128 8.5705986 2.1635246-2.4700775 3.1847344-5.4776363 4.1962128-8.5705986z" fill="#fff"/></g></svg>