<svg width="33" height="33" viewBox="0 0 33 33" fill="none" xmlns="http://www.w3.org/2000/svg">
<path opacity="0.12" d="M21.3671 21.4043C21.0812 21.2392 20.6058 20.9648 20.6058 20.9648C20.6058 20.9648 20.6023 20.9652 20.6013 20.9653C20.3839 20.8465 20.1085 20.7624 19.7858 20.715C18.3541 20.148 15.0544 19.209 12.8749 19.4693C13.1271 18.3064 11.8637 16.5384 11.344 15.8733C11.263 15.6587 11.1014 15.4775 10.863 15.3398C10.5771 15.1748 10.1017 14.9003 10.1017 14.9003C10.1017 14.9003 10.0982 14.9007 10.0973 14.9009C9.57784 14.6169 8.73589 14.5221 7.68189 14.6851C5.52935 15.0181 3.31686 16.2955 2.74007 17.5383C2.45164 18.1597 2.62683 18.6548 3.14329 18.9529C3.14484 18.9537 3.58705 19.2092 3.87432 19.3749C4.10538 19.5084 4.40806 19.5997 4.7648 19.6478C5.88893 19.9519 8.98029 20.7196 10.997 20.5698C10.6026 21.8764 12.4631 23.9248 13.237 24.6315C13.3289 24.782 13.4656 24.9125 13.6473 25.0174C13.6487 25.0182 14.091 25.2736 14.3783 25.4394C14.8946 25.7375 15.7521 25.8386 16.8284 25.6721C18.9809 25.3391 21.1934 24.0617 21.7702 22.819C22.0586 22.1975 21.8834 21.7024 21.3671 21.4043Z" fill="black"/>
<path d="M14.0833 21.3434C13.662 21.5867 12.6562 22.3132 12.6562 22.3132C12.6562 22.3132 12.6562 22.9315 12.6562 23.3326C12.6562 24.0525 13.132 24.7724 14.0833 25.3217C15.9861 26.4202 19.0711 26.4202 20.9739 25.3217C21.9253 24.7724 22.401 24.0524 22.401 23.3325C22.401 22.9338 22.401 22.271 22.401 22.271C22.401 22.271 21.3985 21.5885 20.9739 21.3434C19.0711 20.2449 15.9861 20.2449 14.0833 21.3434Z" fill="#1F1815"/>
<path d="M20.9739 20.3259C19.0712 19.2273 15.9861 19.2273 14.0833 20.3259C12.1806 21.4244 12.1806 23.2056 14.0833 24.3041C15.9861 25.4026 19.0711 25.4026 20.9739 24.3041C22.8767 23.2056 22.8767 21.4245 20.9739 20.3259Z" fill="#65605E"/>
<path d="M17.4772 14.6465C14.4925 14.6465 12.746 21.5148 12.7472 22.0553C12.7456 22.0966 12.7458 22.1377 12.7474 22.179V22.2072L12.7499 22.209C12.7893 22.8771 13.2457 23.5386 14.129 24.0485C15.9782 25.1161 18.9763 25.1161 20.8255 24.0485C21.7502 23.5147 22.2124 22.9914 22.2124 22.1154C22.2124 20.8201 20.4621 14.6465 17.4772 14.6465Z" fill="#8FCFDE"/>
<path d="M20.7682 20.198C18.9804 19.1658 16.0818 19.1658 14.294 20.198C12.5062 21.2302 12.5062 22.9037 14.294 23.9359C16.0818 24.9681 18.9804 24.9681 20.7682 23.9359C22.5561 22.9037 22.5561 21.2302 20.7682 20.198Z" fill="#54B6CD"/>
<path d="M20.8725 7.26164C19.0233 6.19404 16.0252 6.19404 14.176 7.26164C13.2514 7.79544 12.7891 8.49514 12.7891 9.19472C12.7891 9.19472 14.8619 15.6102 17.477 15.6102C20.0921 15.6102 22.2593 9.19472 22.2593 9.19472C22.2593 8.49514 21.7971 7.79544 20.8725 7.26164Z" fill="#8FCFDE"/>
<path d="M17.4833 11.4375C14.6003 11.4375 14.8575 12.4889 14.8575 12.4889C15.5559 13.7244 16.4737 14.8622 17.4884 14.8622C18.5032 14.8622 19.4378 13.7244 20.1543 12.4889C20.1543 12.4889 20.3664 11.4375 17.4833 11.4375Z" fill="#FFE548"/>
<path d="M14.0833 6.69695C13.662 6.9402 12.6562 7.66671 12.6562 7.66671C12.6562 7.66671 12.6562 8.28501 12.6562 8.68617C12.6562 9.40604 13.132 10.1259 14.0833 10.6753C15.9861 11.7738 19.0711 11.7738 20.9739 10.6753C21.9253 10.126 22.401 9.40598 22.401 8.68604C22.401 8.28746 22.401 7.62456 22.401 7.62456C22.401 7.62456 21.3985 6.94213 20.9739 6.69695C19.0711 5.59841 15.9861 5.59841 14.0833 6.69695Z" fill="#1F1815"/>
<path d="M20.9739 5.67937C19.0712 4.58083 15.9861 4.58083 14.0833 5.67937C12.1806 6.77791 12.1806 8.55907 14.0833 9.65761C15.9861 10.7562 19.0711 10.7562 20.9739 9.65761C22.8767 8.55901 22.8767 6.77791 20.9739 5.67937Z" fill="#65605E"/>
<path d="M17.378 15.7131C17.378 17.1814 17.3588 20.6 17.5011 20.6C17.6471 20.6 17.6191 17.0539 17.6191 15.611C17.6191 14.8621 18.3834 14.6035 18.3375 14.6035C18.3107 14.6035 16.7109 14.6466 16.7109 14.6466C16.7109 14.6466 17.378 14.9923 17.378 15.7131Z" fill="#FFE548"/>
<path d="M17.48 18.457C14.6833 18.457 13.0469 21.4647 13.0479 21.9711C13.0464 22.0098 13.0466 22.0483 13.0481 22.087V22.1133L13.0504 22.1151C13.0874 22.7412 13.515 23.3609 14.3426 23.8387C16.0753 24.8391 18.8845 24.8391 20.6171 23.8387C21.4835 23.3385 21.9166 22.8482 21.9166 22.0274C21.9168 20.8137 20.2768 18.457 17.48 18.457Z" fill="#FFE548"/>
</svg>
