<svg width="24" height="24" viewBox="0 0 24 24" fill="none" xmlns="http://www.w3.org/2000/svg">
<path d="M18.4765 4.48617C19.2294 4.48617 19.8397 3.87584 19.8397 3.12297C19.8397 2.37009 19.2294 1.75977 18.4765 1.75977C17.7236 1.75977 17.1133 2.37009 17.1133 3.12297C17.1133 3.87584 17.7236 4.48617 18.4765 4.48617Z" fill="#00C7F0"/>
<path d="M18.3201 3.67299C18.2599 3.63655 18.1955 3.60681 18.1286 3.58594C18.0962 3.60602 15.3873 5.28845 15.5589 5.18185C9.55378 8.90584 10.3542 8.40936 4.41444 12.0942L3.03125 12.9528C3.91146 12.4354 6.11018 12.9636 8.63224 14.2641C9.31126 14.6126 10.0154 15.0186 10.7232 15.4748C11.4309 15.9311 12.092 16.4018 12.692 16.876C14.7003 18.464 16.0296 20.0699 16.1876 21.1118C16.2056 21.1154 16.1835 21.2206 16.2015 21.2241C18.439 4.15644 14.5016 34.5599 18.4756 3.86574C18.4347 3.79811 18.3804 3.73066 18.3201 3.67299Z" fill="#FF5252"/>
<path d="M12.6911 16.8747C12.0911 16.4005 11.43 15.9298 10.7223 15.4736C10.0145 15.0173 9.31037 14.6113 8.63135 14.2629C8.62056 14.1155 8.58105 13.9754 8.49483 13.8533C8.10322 13.2749 7.06495 13.4796 6.6913 12.8904C6.32831 12.3154 6.9225 11.4057 6.33203 10.9037L8.57745 9.50977C8.63854 9.56722 8.68883 9.63546 8.72836 9.71448C8.99422 10.2498 8.58465 10.9612 8.9044 11.4678C9.27803 12.0569 10.3127 11.8522 10.7079 12.4306C11.1175 13.0234 10.4924 13.9143 10.866 14.5287C11.2468 15.1574 12.3498 14.985 12.7162 15.6209C12.9282 15.9909 12.7809 16.44 12.6911 16.8747Z" fill="#FF0041"/>
<path d="M17.2595 13.2617L16.6703 17.8136C15.5117 17.2807 16.6463 16.074 16.2033 15.3095C15.8404 14.6736 14.7338 14.846 14.353 14.2173C13.983 13.6066 14.6045 12.712 14.1985 12.1192C13.807 11.5408 12.7651 11.7456 12.3914 11.1564C12.0753 10.6534 12.4848 9.93847 12.2154 9.40317C11.8992 8.77085 10.9077 8.84988 10.3867 8.39001L12.6321 6.99609C13.1603 7.4272 14.1195 7.35891 14.4285 7.98048C14.6979 8.51938 14.2848 9.23073 14.6081 9.73367C14.9817 10.3229 16.0164 10.1181 16.4116 10.6965C16.8212 11.2893 16.1961 12.1803 16.5697 12.7982C16.717 13.0425 16.9757 13.1647 17.2595 13.2617Z" fill="#FF0041"/>
<path d="M18.4507 4.05621L17.9118 8.21655C16.8922 7.77964 17.6371 6.8022 17.3011 6.12559C16.9993 5.52564 16.0939 5.56875 15.5586 5.18076L17.8076 3.7832C17.9944 3.90894 18.2208 3.98797 18.4507 4.05621Z" fill="#FF0041"/>
<g opacity="0.5">
<path d="M18.3563 3.70703C18.232 4.09248 18.3702 3.31664 16.4248 15.7863C16.3313 16.3935 16.1481 17.112 15.5697 17.3132C14.9482 17.5287 14.341 17.0042 13.8668 16.5515C11.3016 14.1014 7.93166 12.5206 4.41444 12.0931L3.03125 12.9517C3.91146 12.4344 6.11017 12.9625 8.63224 14.2631C9.31126 14.6115 10.0154 15.0175 10.7232 15.4737C11.4309 15.93 12.092 16.4007 12.692 16.8749C14.7003 18.4629 16.0296 20.0688 16.1876 21.1107C16.1876 21.1107 16.1835 21.2195 16.2015 21.223C18.439 4.15535 14.5016 34.5588 18.4756 3.86465C18.4429 3.81058 18.4026 3.75711 18.3563 3.70703Z" fill="#E6033A"/>
</g>
<path d="M8.7331 13.3186C7.87234 13.3186 7.26434 12.6584 7.30248 11.941C7.32826 11.4569 7.68951 11.0141 8.14279 10.9108C8.63248 10.7988 9.16076 11.0986 9.29717 11.5644C9.37036 12.0804 8.8647 12.4842 8.42326 12.3736C8.33748 12.3522 8.28545 12.2652 8.30701 12.1796C8.32842 12.0936 8.4156 12.0419 8.50107 12.0633C8.73847 12.124 9.01798 11.875 8.98498 11.6306C8.90107 11.3503 8.53764 11.1492 8.21389 11.2227C7.89482 11.2953 7.64045 11.6116 7.62217 11.958C7.6042 12.2927 7.79873 12.6435 8.10592 12.831C8.91152 13.3221 10.0385 12.6915 10.0484 11.796C10.0538 11.3152 9.64638 10.8194 9.13545 10.8161C9.13482 10.8161 9.1342 10.8161 9.13373 10.8161C9.04607 10.8161 8.97467 10.7456 8.97373 10.6578C8.97279 10.5694 9.04373 10.4971 9.13201 10.4961C9.81778 10.4916 10.3757 11.1371 10.3684 11.7996C10.3614 12.426 9.89045 13.0306 9.24857 13.2375C9.07998 13.2919 8.90529 13.3186 8.7331 13.3186Z" fill="#FFE8B6"/>
<path d="M14.2252 13.0298C13.5824 12.2836 13.8901 11.0509 14.9397 10.6161C15.8016 10.2603 16.6592 10.674 16.828 11.3981C16.8481 11.484 16.7945 11.5701 16.7084 11.5901C16.6222 11.61 16.5364 11.5568 16.5164 11.4706C16.3935 10.9444 15.7441 10.6289 15.0622 10.9117C14.2201 11.2605 13.963 12.2351 14.4677 12.8211C14.7161 13.1095 15.1447 13.2312 15.4859 13.11C15.8334 12.9867 16.0758 12.602 16.0261 12.2523C15.9978 12.0525 15.8781 11.8762 15.7214 11.8034C15.5619 11.729 15.3578 11.7723 15.2666 11.8987C15.182 12.0155 15.2194 12.2207 15.3439 12.2781C15.4242 12.315 15.4594 12.41 15.4223 12.4903C15.3855 12.5704 15.2906 12.6057 15.2102 12.5687C15.0697 12.5042 14.9644 12.3736 14.9216 12.2106C14.7768 11.6591 15.3724 11.2884 15.8564 11.5132C16.1127 11.6323 16.2991 11.8984 16.343 12.2073C16.4141 12.7082 16.0845 13.2371 15.5928 13.4115C15.1233 13.5782 14.5613 13.4199 14.2252 13.0298Z" fill="#FFE8B6"/>
<path d="M14.7663 8.01238C14.4458 7.7816 14.2735 7.37707 14.3374 7.00551C14.4559 6.31277 15.2911 6.01763 15.6982 6.4427C15.9715 6.72863 15.8648 7.21386 15.4633 7.27379C15.2056 7.31385 14.9793 7.11426 15.1179 6.95676C15.1758 6.89066 15.2771 6.88379 15.3437 6.94223C15.3665 6.96238 15.4019 6.95926 15.416 6.95738C15.6252 6.92605 15.5515 6.53506 15.1652 6.56738C14.9215 6.58832 14.6965 6.80457 14.6527 7.05957C14.6099 7.30941 14.7335 7.59441 14.9532 7.7527C15.4719 8.126 16.2817 7.80883 16.4462 7.12316C16.5298 6.77473 16.4169 6.3891 16.1588 6.14066C15.9007 5.89238 15.5113 5.79426 15.1658 5.8916C15.0818 5.91582 14.9926 5.86613 14.9685 5.78082C14.9446 5.69582 14.9941 5.60738 15.0793 5.58348C15.5315 5.4566 16.0424 5.58441 16.3807 5.91004C16.7191 6.23566 16.8669 6.74113 16.7574 7.19785C16.536 8.11834 15.4542 8.50773 14.7663 8.01238Z" fill="#FFE8B6"/>
<path d="M14.1288 19.7465C14.1137 19.6594 14.1718 19.5765 14.2588 19.5612C15.0746 19.4185 15.6961 18.7418 15.7337 17.9968C15.7543 17.5872 15.5835 17.1812 15.2877 16.9369C14.9798 16.6826 14.5405 16.6141 14.1949 16.7669C13.8419 16.923 13.6112 17.316 13.6584 17.681C13.704 18.0355 14.0268 18.3574 14.4118 18.3574C14.7703 18.3517 15.0893 18.0326 14.923 17.6897C14.7467 17.3268 14.3352 17.5612 14.3634 17.7816C14.3744 17.8693 14.3124 17.9494 14.2248 17.9605C14.1376 17.9713 14.0571 17.9096 14.0459 17.8219C13.9735 17.2512 14.8738 16.8551 15.211 17.5502C15.4794 18.104 15.0145 18.6681 14.4168 18.6774C13.8923 18.6796 13.4101 18.2572 13.3409 17.7219C13.2754 17.2138 13.5801 16.689 14.0655 16.4743C14.5193 16.2735 15.0923 16.3604 15.4915 16.6902C16.239 17.3075 16.2604 18.5187 15.443 19.3038C15.1352 19.5994 14.7343 19.8029 14.3141 19.8765C14.2234 19.8916 14.1435 19.8305 14.1288 19.7465Z" fill="#FFE8B6"/>
<path d="M16.0815 21.7854C15.3624 22.9025 11.7973 21.8901 8.11927 19.5224C4.43874 17.1531 2.04112 14.327 2.76021 13.21C2.86437 13.0482 3.00132 12.9766 3.0335 12.9524C4.14855 12.2944 7.38898 13.3271 10.725 15.4746C14.0433 17.6107 16.3197 20.1187 16.2034 21.4125L16.1976 21.466C16.1886 21.4984 16.182 21.6294 16.0815 21.7854Z" fill="#85646F"/>
<path d="M15.8458 21.382L15.8386 21.4287C15.8294 21.4607 15.8298 21.5157 15.7775 21.5903C15.6589 21.7808 15.3428 21.8814 14.8901 21.8814C13.4063 21.8814 10.8232 20.8359 8.31192 19.2228C4.37077 16.6864 2.59958 14.1248 3.05944 13.4062C3.22367 13.1601 3.65454 13.1152 3.95041 13.1152C5.87949 13.1152 8.88903 14.7216 10.5286 15.7774C12.7884 17.2289 14.4087 18.7486 15.2314 19.9126C15.6625 20.5233 15.8781 21.0335 15.8458 21.382Z" fill="#734C59"/>
<path d="M15.2331 19.9116C12.0602 19.3566 6.7267 15.991 4.74609 13.1934C6.26221 13.4628 8.42139 14.4184 10.5303 15.7765C12.7901 17.2279 14.4104 18.7476 15.2331 19.9116Z" fill="#451326"/>
<path d="M12.6877 11.453C12.6855 11.453 12.6831 11.4529 12.6808 11.4524C12.473 11.416 12.2961 11.2354 12.2303 10.9924C12.1171 10.5738 12.3346 10.1357 12.2884 9.72692C12.232 9.23051 11.7253 8.82098 11.2311 8.87301C11.1811 8.88048 11.1685 8.79877 11.2233 8.79332C11.7577 8.74082 12.307 9.18051 12.3678 9.71786C12.4162 10.1439 12.1993 10.571 12.3075 10.9714C12.3548 11.1461 12.4928 11.3382 12.6945 11.3736C12.7162 11.3774 12.7309 11.3982 12.727 11.4199C12.7236 11.4394 12.7067 11.453 12.6877 11.453Z" fill="#E6033A"/>
<path d="M14.416 9.50369C14.3196 9.08513 14.534 8.66466 14.4654 8.25947C14.4564 8.20752 14.5354 8.19347 14.5441 8.24603C14.6149 8.66195 14.403 9.09058 14.4938 9.48588C14.578 9.85183 14.9516 10.1285 15.319 10.1092C15.3691 10.1037 15.3783 10.186 15.323 10.1892C14.9081 10.2089 14.5066 9.89777 14.416 9.50369Z" fill="#E6033A"/>
<path d="M16.2078 17.3455C15.9567 17.0636 16.0507 16.6449 16.1615 16.2936C16.2461 16.026 16.3333 15.7494 16.2529 15.4926C16.1197 15.0677 15.6281 14.9061 15.2334 14.791C15.0036 14.7241 14.7659 14.6547 14.5595 14.5227C14.2656 14.3344 14.0319 13.9494 14.1772 13.6066C14.198 13.5575 14.2714 13.5894 14.2509 13.6379C14.1226 13.9402 14.3364 14.2847 14.6026 14.4552C14.8836 14.6351 15.2343 14.6954 15.5512 14.8058C15.8433 14.9074 16.2151 15.1047 16.3292 15.4686C16.4288 15.7866 16.2989 16.112 16.2053 16.4222C16.0844 16.8176 16.1053 17.1104 16.2675 17.2924C16.3028 17.3319 16.2426 17.3852 16.2078 17.3455Z" fill="#E6033A"/>
<path d="M17.6624 8.01005C17.3821 7.89677 17.2871 7.55442 17.291 7.29567C17.2951 7.02887 17.3711 6.75435 17.3442 6.49474C17.3023 6.09114 16.9862 5.72677 16.5926 5.62802C16.5402 5.61502 16.5624 5.5364 16.612 5.55052C17.0371 5.65692 17.3785 6.05067 17.4238 6.48661C17.4523 6.76294 17.3749 7.02984 17.371 7.29692C17.3674 7.53036 17.4496 7.8377 17.6924 7.93599C17.7129 7.94427 17.7227 7.96755 17.7145 7.98802C17.706 8.00921 17.6819 8.01821 17.6624 8.01005Z" fill="#E6033A"/>
<path d="M17.102 5.22062H17.0866C17.0337 5.22062 17.0336 5.14062 17.0866 5.14062H17.102C17.1241 5.14062 17.142 5.15859 17.142 5.18062C17.142 5.20266 17.1241 5.22062 17.102 5.22062Z" fill="#E6033A"/>
<path d="M17.7271 4.71952L17.7118 4.68858C17.688 4.64111 17.7598 4.60619 17.7833 4.65295L17.7987 4.68389C17.8085 4.70358 17.8005 4.72764 17.7807 4.73748C17.7611 4.74727 17.7371 4.73948 17.7271 4.71952Z" fill="#E6033A"/>
<path d="M17.7504 5.56283L17.7349 5.54736C17.6975 5.50992 17.7541 5.45338 17.7915 5.4908L17.807 5.50626C17.8445 5.54374 17.7875 5.59987 17.7504 5.56283Z" fill="#E6033A"/>
<path d="M12.6062 8.4478H12.5908C12.5687 8.4478 12.5508 8.42983 12.5508 8.4078C12.5508 8.35367 12.6462 8.35363 12.6462 8.4078C12.6462 8.42983 12.6283 8.4478 12.6062 8.4478Z" fill="#E6033A"/>
<path d="M13.4262 7.89486L13.4107 7.87939C13.3733 7.84195 13.4299 7.78541 13.4673 7.82283L13.4828 7.8383C13.5202 7.87573 13.4636 7.93227 13.4262 7.89486Z" fill="#E6033A"/>
<path d="M13.5611 9.35532L13.5302 9.33985C13.4828 9.31636 13.5184 9.24497 13.5658 9.26829L13.5967 9.28376C13.6166 9.2936 13.6245 9.31766 13.6147 9.33735C13.6047 9.35732 13.5807 9.36511 13.5611 9.35532Z" fill="#E6033A"/>
<path d="M8.68545 14.063C8.45376 13.5109 7.68617 13.4838 7.21733 13.3163C6.88186 13.1966 6.64233 12.9972 6.54311 12.7551C6.4228 12.4613 6.50503 12.1372 6.55123 11.8288C6.59108 11.5605 6.59014 11.2015 6.35905 11.0151C6.31818 10.9824 6.36757 10.9194 6.40936 10.9529C6.70621 11.1921 6.66577 11.6345 6.60842 11.9774C6.56639 12.2316 6.5228 12.4944 6.61717 12.7247C6.8433 13.2765 7.62574 13.3128 8.08201 13.4744C8.31951 13.5583 8.62967 13.7232 8.7592 14.0321C8.7678 14.0524 8.75811 14.0758 8.7378 14.0844C8.71874 14.0928 8.69434 14.0843 8.68545 14.063Z" fill="#E6033A"/>
<path d="M4.82206 12.4812L4.87003 12.437C4.90964 12.4011 4.96284 12.4599 4.9244 12.4957L4.87612 12.5403C4.83633 12.5761 4.78339 12.5165 4.82206 12.4812Z" fill="#E6033A"/>
<path d="M5.50432 11.9574L5.48885 11.9419C5.45141 11.9045 5.508 11.8479 5.5454 11.8853L5.56088 11.9008C5.57651 11.9164 5.57651 11.9417 5.56088 11.9574C5.54532 11.9729 5.52001 11.973 5.50432 11.9574Z" fill="#E6033A"/>
<path d="M5.71901 12.5433L5.70322 12.5273C5.66625 12.4892 5.72462 12.4337 5.76072 12.4717L5.77557 12.4867C5.79119 12.5023 5.79119 12.5277 5.77557 12.5433C5.76001 12.5588 5.73469 12.559 5.71901 12.5433Z" fill="#E6033A"/>
<path d="M10.5981 10.4081H10.5826C10.5298 10.4081 10.5297 10.3281 10.5826 10.3281H10.5981C10.651 10.3281 10.651 10.4081 10.5981 10.4081Z" fill="#E6033A"/>
<path d="M11.1914 10.0452V10.0299C11.1914 9.97703 11.2714 9.97699 11.2714 10.0299V10.0452C11.2714 10.0981 11.1914 10.0981 11.1914 10.0452Z" fill="#E6033A"/>
<path d="M12.7401 16.4693C12.7323 16.4693 12.7243 16.4669 12.7175 16.4623C12.6992 16.4498 12.6947 16.4248 12.7072 16.4066C12.8945 16.1346 12.7645 15.7404 12.5306 15.5162C12.3168 15.3113 12.0295 15.1971 11.7515 15.0866C11.71 15.0701 11.6684 15.0537 11.6272 15.0368C11.3108 14.9082 10.9623 14.7341 10.7773 14.4185C10.6003 14.1168 10.6123 13.7187 10.8072 13.4279C10.8198 13.4096 10.8447 13.4046 10.8628 13.4169C10.8811 13.4293 10.8859 13.4541 10.8737 13.4726C10.6954 13.7382 10.6845 14.1021 10.8464 14.378C11.0192 14.673 11.3533 14.8391 11.6572 14.9627C11.6983 14.9794 11.7397 14.9958 11.7811 15.0124C12.0662 15.1257 12.3609 15.2427 12.5859 15.4583C12.844 15.7057 12.9845 16.1449 12.7731 16.4519C12.7653 16.4632 12.7528 16.4693 12.7401 16.4693Z" fill="#E6033A"/>
<path d="M11.958 14.2864C11.9503 14.2864 11.9426 14.2842 11.9358 14.2797C11.9173 14.2675 11.9125 14.2427 11.9247 14.2242L11.9558 14.1778C11.968 14.1596 11.993 14.1546 12.0112 14.1671C12.0295 14.1794 12.0344 14.2042 12.022 14.2225L11.9912 14.2686C11.9836 14.2802 11.9708 14.2864 11.958 14.2864Z" fill="#E6033A"/>
<path d="M12.7002 13.8375C12.6781 13.8375 12.6602 13.8195 12.6602 13.7975V13.7666C12.6602 13.7445 12.6781 13.7266 12.7002 13.7266C12.7222 13.7266 12.7402 13.7445 12.7402 13.7666V13.7975C12.7402 13.8195 12.7222 13.8375 12.7002 13.8375Z" fill="#E6033A"/>
<path d="M13.0238 14.564C13.0196 14.564 13.0154 14.5633 13.0111 14.5619L12.9649 14.5465C12.944 14.5394 12.9325 14.5168 12.9396 14.4958C12.9468 14.4749 12.9699 14.4643 12.9902 14.4705L13.0365 14.486C13.0574 14.493 13.0688 14.5157 13.0618 14.5366C13.0561 14.5533 13.0405 14.564 13.0238 14.564Z" fill="#E6033A"/>
<path d="M16.3787 8.84191L16.425 8.77379C16.4546 8.73001 16.5209 8.77476 16.4912 8.81879L16.4446 8.88691C16.4152 8.93083 16.3487 8.88545 16.3787 8.84191Z" fill="#E6033A"/>
<path d="M16.9922 8.65968V8.61389C16.9922 8.56102 17.0722 8.56097 17.0722 8.61389V8.65968C17.0722 8.71255 16.9922 8.7126 16.9922 8.65968Z" fill="#E6033A"/>
<g opacity="0.52">
<path d="M11.3107 9.0065C11.2135 8.859 11.2541 8.66056 11.4017 8.56322C12.2712 7.9893 13.2221 7.35899 13.881 6.94228C14.0303 6.84759 14.228 6.89228 14.3225 7.04165C14.4169 7.19103 14.3725 7.38868 14.2232 7.48322C13.5581 7.90367 12.5775 8.55392 11.7539 9.09759C11.6068 9.1947 11.4082 9.15425 11.3107 9.0065Z" fill="white"/>
</g>
<g opacity="0.52">
<path d="M9.73301 10.0241C9.63864 9.87475 9.68348 9.67709 9.83301 9.58287L10.0369 9.45303C10.1858 9.3574 10.3836 9.40115 10.479 9.55006C10.5743 9.69881 10.5308 9.89678 10.3819 9.99209L10.1743 10.1241C10.0239 10.219 9.82651 10.1727 9.73301 10.0241Z" fill="white"/>
</g>
<path d="M18.3428 3.76506C18.2879 3.83407 18.3044 3.94424 18.3691 4.00414C18.4823 4.10898 18.6945 4.07573 18.8059 3.86711C18.9941 3.51437 18.71 3.08858 18.3104 3.12972C18.1338 3.14791 17.8936 3.29257 17.9155 3.49683C17.9359 3.6879 18.1582 3.86428 18.3428 3.76506Z" fill="#00C7F0"/>
<path d="M20.6779 11.5916C18.9325 10.8357 18.2276 8.70056 19.2143 7.04694C18.462 6.10506 18.1989 4.76678 18.5447 3.61209C18.57 3.52741 18.6587 3.47959 18.7439 3.50475C18.8286 3.53006 18.8765 3.61928 18.8512 3.70397C18.5442 4.72928 18.7618 5.91287 19.4042 6.76944C20.4968 5.38612 21.9881 6.75197 21.0958 7.53959C20.6968 7.89102 20.0581 7.91399 19.4389 7.29881C18.6161 8.80032 19.2893 10.6418 20.8051 11.2979C20.8862 11.333 20.9234 11.4272 20.8884 11.5083C20.8534 11.5888 20.7599 11.6268 20.6779 11.5916ZM19.6151 7.02131C19.8675 7.28834 20.1245 7.43678 20.3804 7.46334C20.5569 7.48272 20.7489 7.41897 20.8842 7.29944C21.2941 6.93756 20.8346 6.42431 20.3578 6.50022C20.0268 6.55178 19.7728 6.80897 19.6151 7.02131Z" fill="#00C7F0"/>
<path d="M11.7837 6.49373C11.7474 6.41311 11.7833 6.31842 11.8638 6.28201C12.5824 5.95826 13.2454 5.5292 13.8349 5.00608C13.3674 4.71477 13.3171 4.16764 13.6941 3.8642C14.2331 3.4315 14.8987 4.14685 14.4204 4.84795C14.6412 4.85639 14.8605 4.79186 15.0749 4.72967C15.9429 4.47811 17.1773 4.03326 17.8718 3.07608C17.9237 3.00451 18.0238 2.98811 18.0952 3.04045C18.1668 3.09233 18.1827 3.19248 18.1308 3.26389C17.3783 4.30076 16.0773 4.77233 15.164 5.03701C14.849 5.12829 14.4952 5.21519 14.1626 5.14045C13.5963 5.67467 12.8287 6.1983 11.9954 6.57389C11.9141 6.61007 11.8198 6.57391 11.7837 6.49373ZM13.8948 4.11358C13.6423 4.31636 13.7791 4.63201 14.0741 4.77342C14.1524 4.68389 14.2179 4.58514 14.2493 4.47592C14.3264 4.20634 14.1215 3.93075 13.8948 4.11358Z" fill="#00C7F0"/>
<path d="M19.614 6.66845C19.8828 6.30735 20.4009 6.16001 20.8198 6.32532C20.8691 6.34472 20.8396 6.41944 20.7904 6.3997C20.4043 6.24688 19.9261 6.38282 19.6781 6.71626C19.6463 6.75889 19.5824 6.71051 19.614 6.66845Z" fill="#0081CF"/>
<path d="M19.5086 10.4078C19.1158 9.94062 18.8905 9.3225 18.8906 8.71187C18.8906 8.68984 18.9086 8.67188 18.9306 8.67188C18.9527 8.67188 18.9706 8.68984 18.9706 8.71187C18.9705 9.30391 19.1889 9.90328 19.5698 10.3562C19.6039 10.3967 19.5429 10.4482 19.5086 10.4078Z" fill="#0081CF"/>
<path d="M13.6406 4.69502C13.4564 4.48158 13.4717 4.12127 13.6733 3.92408C13.711 3.88714 13.7671 3.94411 13.7292 3.98127C13.5562 4.15049 13.5431 4.45955 13.7012 4.64283C13.7359 4.68317 13.6747 4.73443 13.6406 4.69502Z" fill="#0081CF"/>
<path d="M12.3362 6.22449L13.226 5.69558C13.2717 5.6687 13.3123 5.73736 13.267 5.76433L12.3771 6.29324C12.3312 6.32011 12.291 6.25138 12.3362 6.22449Z" fill="#0081CF"/>
<path d="M17.5446 3.08992C17.6901 3.04182 17.8188 3.22832 17.7315 3.25398C17.7106 3.25961 17.6881 3.24805 17.6818 3.2268C17.6684 3.18122 17.6119 3.15256 17.5685 3.16617C17.524 3.17994 17.4951 3.23657 17.5098 3.2807C17.5168 3.3018 17.5054 3.3243 17.4845 3.33133C17.4011 3.35913 17.3944 3.13624 17.5446 3.08992Z" fill="#0081CF"/>
<path d="M18.7099 3.69498C18.7499 3.6206 18.7174 3.51201 18.6434 3.47154C18.5693 3.43107 18.4602 3.46232 18.4193 3.53623C18.394 3.58234 18.3236 3.54399 18.3493 3.49748C18.4123 3.38357 18.5676 3.33904 18.6818 3.40123C18.7957 3.46357 18.8418 3.61857 18.7806 3.73279C18.7551 3.7793 18.6852 3.74179 18.7099 3.69498Z" fill="#0081CF"/>
<path d="M18.2402 2.63432C18.154 2.63432 18.2076 2.41788 18.3661 2.39994C18.5265 2.37884 18.6258 2.5862 18.5389 2.60057C18.5156 2.6051 18.4966 2.58963 18.4928 2.56791C18.4839 2.51573 18.4292 2.47588 18.3752 2.47932C18.3224 2.48541 18.277 2.53916 18.2802 2.59198C18.2814 2.61416 18.2645 2.63307 18.2425 2.63432C18.2417 2.63432 18.241 2.63432 18.2402 2.63432Z" fill="#0081CF"/>
<path d="M19.3753 3.2778C19.4141 3.22171 19.4003 3.13296 19.3466 3.09155C19.2932 3.04983 19.2036 3.0589 19.1591 3.11015C19.1443 3.12671 19.1194 3.12811 19.1025 3.11421C19.0359 3.05575 19.2461 2.91251 19.3957 3.02827C19.4838 3.09624 19.5046 3.2314 19.4413 3.32311C19.4114 3.3662 19.3451 3.32169 19.3753 3.2778Z" fill="#0081CF"/>
<path d="M17.5959 2.23055C17.6792 2.16118 17.8083 2.15727 17.8961 2.22133C17.9383 2.25245 17.8927 2.31712 17.8489 2.28602C17.7911 2.24368 17.7022 2.24649 17.6469 2.29211C17.5916 2.33774 17.5722 2.42446 17.603 2.48946C17.6123 2.50946 17.6037 2.53321 17.5837 2.54274C17.5061 2.57825 17.4565 2.34551 17.5959 2.23055Z" fill="#0081CF"/>
<path d="M19.2733 3.04012C19.3303 2.55676 18.9917 2.10532 18.4993 2.03653C18.4498 2.02945 18.4538 1.95359 18.5105 1.95715C19.0362 2.03118 19.4161 2.51312 19.3527 3.0495C19.3466 3.10268 19.267 3.09257 19.2733 3.04012Z" fill="white"/>
<path d="M18.9238 6.4748L18.4866 5.10262C18.4704 5.05183 18.547 5.02874 18.5629 5.07824L19 6.45043C19.0161 6.50081 18.94 6.5252 18.9238 6.4748Z" fill="white"/>
<path d="M15.534 4.70693L15.8396 4.55521C15.889 4.53243 15.9215 4.60383 15.8753 4.62677L15.5696 4.77849C15.5214 4.80195 15.4872 4.72996 15.534 4.70693Z" fill="white"/>
<path d="M15.6531 8.11438C15.6044 8.11438 15.5984 8.04327 15.6462 8.03501C16.3261 7.91699 16.7596 7.23381 16.5768 6.56798C16.571 6.54657 16.5835 6.5247 16.6048 6.51876C16.6268 6.5136 16.6484 6.52579 16.654 6.54673C16.8491 7.25705 16.3869 7.98768 15.66 8.11376C15.6576 8.11423 15.6553 8.11438 15.6531 8.11438Z" fill="white"/>
<path d="M14.0953 12.6528C13.8562 12.1316 14.001 11.4533 14.4323 11.0752C14.4716 11.0399 14.525 11.1002 14.4851 11.1352C14.0795 11.4909 13.9431 12.1291 14.1681 12.6194C14.1902 12.6677 14.1172 12.7008 14.0953 12.6528Z" fill="white"/>
<path d="M7.49312 11.9383C7.47094 11.9383 7.45312 11.9203 7.45312 11.8983C7.45414 11.2439 8.11423 10.7903 8.72421 11.0225C8.77398 11.0414 8.74477 11.1169 8.69578 11.0972C8.13749 10.8857 7.53414 11.2993 7.53312 11.8983C7.53312 11.9205 7.51516 11.9383 7.49312 11.9383Z" fill="white"/>
<g opacity="0.52">
<path d="M8.22427 18.2568C8.07224 18.1771 7.91927 18.0896 7.76583 17.9952C7.6152 17.9025 7.56817 17.7055 7.66067 17.555C7.75317 17.4041 7.9502 17.3572 8.10083 17.4499C8.24177 17.5364 8.38192 17.6168 8.52145 17.6899C8.67802 17.7719 8.73833 17.9653 8.6563 18.1219C8.57383 18.2792 8.38009 18.3383 8.22427 18.2568Z" fill="white"/>
</g>
<g opacity="0.52">
<path d="M6.55472 17.1234C5.71316 16.4349 4.85613 15.569 4.14144 14.6852C4.03035 14.5477 4.05176 14.3463 4.1891 14.2351C4.32676 14.1241 4.52801 14.1455 4.63926 14.2827C5.32707 15.1335 6.15129 15.9665 6.96004 16.628C7.09675 16.7399 7.11691 16.9415 7.00504 17.0784C6.89301 17.2153 6.69166 17.2351 6.55472 17.1234Z" fill="white"/>
</g>
</svg>
