<svg width="170" height="212" viewBox="0 0 170 212" fill="none" xmlns="http://www.w3.org/2000/svg">
<g clip-path="url(#clip0_1063_41262)">
<rect x="0.152344" y="0.152344" width="169" height="211.593" rx="5.49593" fill="black"/>
<path d="M23.68 212.478C23.68 212.478 11.6401 205.998 9.79012 205.118C7.94019 204.239 10.886 201.029 14.6897 202.026C18.4938 203.024 20.1244 202.231 20.1244 202.231C20.1244 202.231 20.4591 181.203 21.1909 179.781C21.9224 178.359 24.0576 179.337 25.132 181.304C26.2065 183.272 27.4137 193.565 27.4137 193.565C27.4137 193.565 32.9978 177.942 33.8027 176.36C36.3962 171.262 38.4143 177.269 37.7817 179.962C37.388 181.639 34.8832 191.191 34.338 192.997C34.338 192.997 42.118 180.639 42.4085 180.261C42.699 179.883 44.4233 179.451 44.5799 183.434C44.7366 187.416 39.9903 195.781 39.9903 195.781C39.9903 195.781 48.2166 189.531 48.595 189.822C48.9731 190.112 50.3141 191.627 49.0976 193.759C47.8811 195.891 41.2761 200.135 41.4874 202.522C41.6987 204.909 42.0691 210.064 34.3602 212.742C26.6511 215.421 23.68 212.478 23.68 212.478Z" fill="#FFB08C"/>
<path d="M37.6158 208.968L37.612 213.756C37.6112 214.943 36.4655 215.869 35.0531 215.825L26.2604 215.55C24.8482 215.506 23.7043 214.508 23.7051 213.321L23.7089 208.533L37.6158 208.968Z" fill="#FFB08C"/>
<path d="M24.7045 184.767C24.7309 184.867 24.3042 185.067 23.7514 185.214C23.1986 185.362 22.7287 185.402 22.7023 185.303C22.676 185.203 23.1027 185.003 23.6555 184.856C24.2083 184.708 24.6779 184.668 24.7045 184.767Z" fill="#FF8F53"/>
<path d="M25.3347 191.609C25.3383 191.711 24.9072 191.809 24.3719 191.827C23.8367 191.845 23.4001 191.777 23.3965 191.674C23.3929 191.572 23.824 191.474 24.3593 191.456C24.8945 191.438 25.3314 191.506 25.3347 191.609Z" fill="#FF8F53"/>
<path d="M36.1071 181.504C36.0497 181.591 35.6667 181.438 35.2059 181.253C34.7465 181.066 34.3643 180.911 34.3835 180.808C34.4005 180.709 34.8468 180.707 35.3449 180.909C35.8442 181.109 36.1637 181.421 36.1071 181.504Z" fill="#FF8F53"/>
<path d="M33.7212 187.259C33.6946 187.358 33.3915 187.363 33.0439 187.269C32.6964 187.176 32.4362 187.021 32.4628 186.921C32.4895 186.822 32.7925 186.817 33.1401 186.911C33.4877 187.004 33.7479 187.16 33.7212 187.259Z" fill="#FF8F53"/>
<path d="M42.9272 185.926C42.8649 186.007 42.6057 185.913 42.3486 185.716C42.0914 185.518 41.9337 185.292 41.996 185.211C42.0584 185.13 42.3175 185.224 42.5747 185.421C42.8319 185.618 42.9899 185.844 42.9272 185.926Z" fill="#FF8F53"/>
<path d="M40.1141 191.369C40.058 191.455 39.7256 191.337 39.3717 191.106C39.0178 190.875 38.7762 190.618 38.8323 190.532C38.8884 190.446 39.2208 190.564 39.5747 190.795C39.9289 191.026 40.1704 191.283 40.1141 191.369Z" fill="#FF8F53"/>
<path d="M47.1993 194.659C47.1176 194.721 46.8421 194.496 46.5835 194.157C46.325 193.818 46.1815 193.493 46.2631 193.43C46.3447 193.368 46.6203 193.593 46.8789 193.932C47.1374 194.271 47.2809 194.597 47.1993 194.659Z" fill="#FF8F53"/>
<path d="M43.2349 197.527C43.1632 197.598 42.9179 197.461 42.7752 197.167C42.6321 196.873 42.6758 196.595 42.7758 196.583C42.8788 196.568 42.9926 196.769 43.1091 197.005C43.2228 197.242 43.3105 197.456 43.2349 197.527Z" fill="#FF8F53"/>
<path d="M13.4155 203.93C13.3908 204.013 12.8366 203.896 12.1609 203.966C11.4845 204.027 10.963 204.247 10.9226 204.171C10.8786 204.107 11.3861 203.741 12.1324 203.672C12.8783 203.597 13.4466 203.859 13.4155 203.93Z" fill="white"/>
<path d="M21.316 185.973C21.2344 185.969 21.2157 184.854 21.2745 183.481C21.3333 182.108 21.4474 180.998 21.529 181.002C21.6109 181.006 21.6293 182.121 21.5705 183.494C21.5117 184.867 21.3979 185.977 21.316 185.973Z" fill="white"/>
<path d="M33.1655 181.102C33.0883 181.075 33.3587 180.093 33.7697 178.908C34.1808 177.723 34.5767 176.784 34.6539 176.811C34.7311 176.838 34.4607 177.82 34.0497 179.005C33.6387 180.19 33.2427 181.128 33.1655 181.102Z" fill="white"/>
<path d="M42.0243 181.943C42.0966 181.982 41.7457 182.777 41.2413 183.718C40.7365 184.66 40.2691 185.393 40.1969 185.354C40.1249 185.315 40.4755 184.52 40.98 183.579C41.4847 182.636 41.9521 181.904 42.0243 181.943Z" fill="white"/>
<path d="M47.5701 190.709C47.6305 190.762 47.206 191.347 46.5562 191.95C45.9078 192.555 45.2934 192.937 45.2456 192.873C45.195 192.806 45.7182 192.327 46.3542 191.733C46.992 191.142 47.5074 190.654 47.5701 190.709Z" fill="white"/>
<path d="M28.9051 201.741C28.8848 201.791 28.4176 201.62 27.6432 201.449C27.2566 201.361 26.7903 201.288 26.2706 201.237C25.7502 201.195 25.1756 201.18 24.5743 201.218C23.9736 201.263 23.4064 201.356 22.8967 201.469C22.3888 201.59 21.9368 201.727 21.5661 201.867C20.8222 202.142 20.3831 202.375 20.3562 202.329C20.3364 202.297 20.7376 201.989 21.4779 201.651C21.8467 201.479 22.3042 201.315 22.8238 201.173C23.3457 201.04 23.931 200.934 24.552 200.888C25.1736 200.849 25.7677 200.873 26.303 200.934C26.8375 201.003 27.3129 201.103 27.7018 201.223C28.4811 201.457 28.9205 201.707 28.9051 201.741Z" fill="#2E2842"/>
<path d="M26.3879 186.398C26.4346 186.394 26.5228 186.918 26.647 187.766C26.7665 188.615 26.9317 189.787 27.1141 191.081C27.29 192.378 27.4216 193.557 27.4859 194.414C27.5508 195.271 27.5571 195.804 27.5129 195.808C27.4662 195.812 27.3777 195.288 27.2537 194.44C27.1342 193.591 26.9691 192.42 26.7866 191.125C26.6107 189.828 26.4791 188.649 26.4148 187.792C26.3497 186.935 26.3436 186.403 26.3879 186.398Z" fill="#2E2842"/>
<path d="M36.116 186.877C36.2042 186.901 35.7464 188.906 35.0932 191.356C34.44 193.805 33.8393 195.772 33.7511 195.748C33.6629 195.725 34.1207 193.72 34.7739 191.27C35.4268 188.821 36.0278 186.854 36.116 186.877Z" fill="#2E2842"/>
<path d="M42.2187 190.891C42.3014 190.93 41.657 192.485 40.7793 194.365C39.9016 196.244 39.1231 197.737 39.0404 197.698C38.9576 197.66 39.602 196.105 40.4797 194.225C41.3574 192.345 42.1357 190.853 42.2187 190.891Z" fill="#2E2842"/>
<path d="M39.9214 199.196C39.886 199.246 39.1443 198.705 37.8366 198.033C37.6722 197.951 37.5002 197.865 37.3208 197.776C37.1411 197.687 36.9462 197.611 36.7495 197.523C36.3579 197.341 35.9221 197.189 35.4681 197.018C34.55 196.707 33.5201 196.423 32.4176 196.229C31.3132 196.046 30.2478 195.97 29.2783 195.959C28.7936 195.969 28.3319 195.967 27.9021 196.008C27.6872 196.026 27.4781 196.033 27.2792 196.057C27.0802 196.081 26.8892 196.105 26.707 196.128C25.2501 196.327 24.3704 196.591 24.3537 196.532C24.3471 196.51 24.562 196.43 24.9582 196.303C25.1555 196.237 25.3995 196.164 25.6884 196.102C25.9766 196.037 26.3025 195.949 26.6716 195.897C26.8554 195.868 27.048 195.836 27.2489 195.804C27.4501 195.773 27.6614 195.759 27.8793 195.735C28.3149 195.681 28.7837 195.673 29.2766 195.655C30.2626 195.649 31.3489 195.716 32.4734 195.903C33.5959 196.101 34.6426 196.399 35.5709 196.732C36.0298 196.913 36.4689 197.077 36.8619 197.273C37.0594 197.368 37.2543 197.451 37.4337 197.547C37.6123 197.644 37.7835 197.738 37.947 197.827C38.2779 197.998 38.556 198.19 38.8063 198.347C39.058 198.502 39.2639 198.652 39.4279 198.78C39.759 199.031 39.9349 199.178 39.9214 199.196Z" fill="#2E2842"/>
<path d="M27.4368 213.256C27.4422 213.274 27.3191 213.341 27.0724 213.393C26.827 213.441 26.4549 213.459 26.0133 213.374C25.5712 213.295 25.0672 213.117 24.5349 212.885C24.0037 212.654 23.4258 212.39 22.8254 212.098C21.6243 211.515 20.5635 210.934 19.8114 210.487C19.0587 210.041 18.6133 209.732 18.6356 209.694C18.6589 209.653 19.145 209.89 19.9238 210.282C20.702 210.675 21.7746 211.22 22.9699 211.8C23.5693 212.086 24.1403 212.359 24.6597 212.607C25.1779 212.851 25.6514 213.042 26.0636 213.146C26.8921 213.369 27.4263 213.202 27.4368 213.256Z" fill="#2E2842"/>
<path d="M94.5843 198.128C94.5843 198.128 90.0598 198.927 89.4387 195.822C90.8583 187.749 95.3826 189.789 96.778 190.587C98.1732 191.386 96.6247 196.709 93.5198 203.629C90.4148 210.549 87.0436 211.436 86.7773 211.79" fill="#FFB08C"/>
<path d="M91.6692 192.404C91.6692 192.404 94.2878 188.853 89.1683 185.74C84.0488 182.627 80.1561 182.611 76.8953 186.511C74.842 188.967 71.57 195.042 71.8979 200.022C72.2254 205.002 73.9748 212.31 75.7772 213.866C77.5793 215.423 84.2492 214.599 87.6948 211.225C91.1405 207.851 96.011 198.547 95.8472 195.68C95.6832 192.813 91.6692 192.404 91.6692 192.404Z" fill="#FFB08C"/>
<path d="M83.817 187.148C83.6667 186.6 90.228 171.491 91.0381 170.923C91.8482 170.355 93.9883 171.795 94.1048 174.52C94.2211 177.244 91.2137 189.898 91.2137 189.898L85.3776 188.837L83.817 187.148Z" fill="#FFB08C"/>
<path d="M87.3306 209.074L87.3278 213.727C87.327 214.88 86.2141 215.781 84.8415 215.738L76.2964 215.473C74.9241 215.43 73.812 214.461 73.8125 213.307L73.8152 208.654L87.3306 209.074Z" fill="#FFB08C"/>
<path d="M92.8958 196.353C91.7291 195.926 91.0188 194.638 91.3417 193.614C91.6645 192.59 92.4817 192.812 93.6483 193.238C94.815 193.665 95.889 194.134 95.5662 195.158C95.2434 196.182 94.0624 196.779 92.8958 196.353Z" fill="#FFEBE8"/>
<path d="M82.9343 193.236C83.0192 193.316 82.8555 193.627 82.5686 193.932C82.2818 194.237 81.9804 194.419 81.8955 194.339C81.8106 194.259 81.9743 193.948 82.2612 193.643C82.548 193.338 82.8494 193.156 82.9343 193.236Z" fill="#FF8F53"/>
<path d="M85.8567 190.606C85.9295 190.697 85.7707 190.945 85.5017 191.16C85.2327 191.375 84.9557 191.476 84.8829 191.385C84.8101 191.294 84.9689 191.046 85.2379 190.831C85.5069 190.616 85.7839 190.515 85.8567 190.606Z" fill="#FF8F53"/>
<path d="M89.1706 187.488C89.2258 187.592 89.0601 187.787 88.848 187.985C88.6337 188.181 88.4265 188.33 88.3268 188.267C88.2287 188.207 88.3029 187.913 88.5617 187.675C88.8194 187.436 89.1184 187.385 89.1706 187.488Z" fill="#FF8F53"/>
<path d="M86.1693 197.225C86.1919 197.244 86.1523 197.323 86.0553 197.455C86.03 197.488 86.0023 197.525 85.9717 197.564C85.9371 197.6 85.8945 197.633 85.85 197.671C85.7601 197.746 85.6576 197.836 85.5219 197.897C85.4559 197.931 85.387 197.969 85.3131 198.003C85.2358 198.028 85.1556 198.054 85.0726 198.08C84.9893 198.11 84.9017 198.13 84.8102 198.141C84.7189 198.154 84.6244 198.173 84.528 198.181C84.14 198.208 83.7168 198.169 83.2878 198.08C82.4321 197.886 81.7206 197.545 81.2367 197.258C80.7512 196.971 80.4885 196.737 80.5179 196.69C80.55 196.639 80.8646 196.78 81.3708 196.991C81.8756 197.204 82.5788 197.486 83.3777 197.668C83.7775 197.751 84.1608 197.797 84.5074 197.792C84.5936 197.791 84.6761 197.779 84.7577 197.773C84.8399 197.77 84.9179 197.76 84.9907 197.74C85.0655 197.725 85.1375 197.71 85.2067 197.695C85.2727 197.672 85.3359 197.648 85.3963 197.626C85.8789 197.439 86.1135 197.175 86.1693 197.225Z" fill="#2E2842"/>
<path d="M86.9204 195.958C86.9377 195.919 87.1381 196.054 87.5225 195.992C87.9017 195.944 88.4332 195.697 88.9663 195.245C89.2304 195.019 89.5013 194.737 89.6945 194.398C89.8863 194.054 89.9855 193.631 89.9808 193.183C89.9761 192.734 89.869 192.261 89.6643 191.814C89.4579 191.365 89.1581 190.936 88.7998 190.537C88.4417 190.137 88.049 189.778 87.658 189.442C87.2683 189.105 86.8808 188.794 86.5002 188.514C85.7377 187.958 85.0015 187.529 84.3519 187.238C83.0488 186.652 82.1395 186.594 82.1505 186.518C82.1521 186.495 82.3799 186.475 82.7872 186.525C83.1939 186.573 83.7809 186.696 84.4673 186.963C85.8462 187.495 87.5618 188.624 89.1147 190.256C89.4933 190.678 89.8176 191.143 90.041 191.644C90.2641 192.145 90.3754 192.675 90.3697 193.183C90.3644 193.691 90.2358 194.179 89.9979 194.572C89.7536 194.965 89.4496 195.248 89.1537 195.477C88.5593 195.93 87.966 196.155 87.5343 196.156C87.0952 196.169 86.9034 195.965 86.9204 195.958Z" fill="#2E2842"/>
<path d="M92.6413 190.437C92.5762 190.455 92.4064 189.88 91.9719 189.034C91.5432 188.19 90.8043 187.084 89.7084 186.148C88.6128 185.211 87.4056 184.654 86.5056 184.361C85.6027 184.064 85.008 183.986 85.0157 183.918C85.0182 183.87 85.6312 183.841 86.5884 184.074C87.5394 184.301 88.831 184.842 89.9829 185.827C91.1354 186.811 91.8705 188.003 92.2426 188.907C92.6215 189.817 92.6888 190.427 92.6413 190.437Z" fill="#2E2842"/>
<path d="M85.1765 197.786C85.1644 197.758 85.302 197.676 85.5411 197.527C85.775 197.377 86.1267 197.157 86.4128 196.777C86.6906 196.407 86.8926 195.809 86.5906 195.288C86.3018 194.765 85.6587 194.336 85.0704 193.841C82.6571 191.898 80.5107 190.574 80.5736 190.468C80.6022 190.42 81.1765 190.69 82.0567 191.216C82.9352 191.742 84.1146 192.531 85.3347 193.512C85.6406 193.757 85.9322 193.998 86.2146 194.244C86.4952 194.493 86.7642 194.769 86.936 195.108C87.1124 195.445 87.1446 195.841 87.0624 196.163C86.9835 196.489 86.8239 196.755 86.6463 196.963C86.2806 197.377 85.881 197.561 85.6161 197.673C85.3455 197.782 85.1872 197.811 85.1765 197.786Z" fill="#2E2842"/>
<path d="M81.8627 197.224C81.9099 197.252 81.8542 197.46 81.6769 197.756C81.5005 198.05 81.1832 198.427 80.7361 198.723C80.2888 199.017 79.8294 199.167 79.4981 199.236C79.1642 199.304 78.9507 199.299 78.9367 199.245C78.9007 199.116 79.7 198.888 80.5031 198.371C81.3019 197.845 81.7514 197.154 81.8627 197.224Z" fill="#2E2842"/>
<path d="M82.738 201.934C82.6218 201.885 82.9347 201.025 83.1518 199.95C83.2584 199.413 83.3059 198.923 83.3175 198.564C83.3318 198.205 83.326 197.975 83.3864 197.961C83.4392 197.949 83.5513 198.164 83.6156 198.544C83.6824 198.923 83.6796 199.461 83.5661 200.032C83.3329 201.177 82.8336 201.98 82.738 201.934Z" fill="#2E2842"/>
<path d="M95.146 198.157C95.151 198.184 94.9669 198.251 94.6212 198.323C94.2755 198.387 93.7644 198.469 93.1213 198.425C92.8012 198.401 92.447 198.345 92.0821 198.216C91.7191 198.087 91.3412 197.883 91.0227 197.573C90.3695 196.956 90.0354 195.963 90.0755 194.969C90.1164 193.958 90.5006 193.073 90.9043 192.343C91.1093 191.976 91.3228 191.641 91.5286 191.335C91.7328 191.029 91.9348 190.741 92.1571 190.502C92.3788 190.264 92.6204 190.076 92.8608 189.964C93.0991 189.85 93.3269 189.806 93.5116 189.799C93.8878 189.794 94.065 189.926 94.0535 189.944C94.043 189.978 93.8545 189.909 93.5275 189.963C93.2013 190.015 92.7545 190.228 92.3816 190.699C92.1917 190.93 92.0136 191.212 91.8235 191.524C91.6328 191.835 91.4355 192.169 91.247 192.528C90.8749 193.241 90.5328 194.079 90.4976 194.984C90.4621 195.886 90.7523 196.757 91.2956 197.296C91.8378 197.846 92.5594 198.048 93.1513 198.128C93.7526 198.207 94.2552 198.174 94.6003 198.16C94.9463 198.139 95.1406 198.127 95.146 198.157Z" fill="#2E2842"/>
<path d="M84.2315 204.519C84.1837 204.514 84.1878 203.846 84.4123 202.792C84.5214 202.265 84.7031 201.649 84.9526 200.981C85.2114 200.317 85.5434 199.604 85.9608 198.894C86.3845 198.187 86.8514 197.554 87.3106 197.009C87.7778 196.471 88.2323 196.016 88.6425 195.668C89.4601 194.967 90.0448 194.643 90.072 194.683C90.1122 194.738 89.5939 195.145 88.8459 195.887C88.4697 196.255 88.049 196.72 87.6104 197.258C87.1798 197.802 86.736 198.423 86.3241 199.109C85.9188 199.799 85.5857 200.486 85.3139 201.125C85.0518 201.767 84.8451 202.359 84.7017 202.866C84.4085 203.877 84.2991 204.528 84.2315 204.519Z" fill="#2E2842"/>
<path d="M94.0434 202.358C94.0895 202.371 93.9483 203.094 93.5072 204.196C93.3959 204.471 93.2701 204.77 93.1126 205.082C92.9673 205.4 92.7826 205.724 92.5927 206.068C92.1956 206.745 91.7139 207.465 91.1445 208.172C90.5691 208.874 89.9629 209.493 89.3809 210.02C89.083 210.276 88.8035 210.523 88.5221 210.73C88.2493 210.948 87.9816 211.132 87.7354 211.298C86.7467 211.955 86.0682 212.241 86.0462 212.198C86.0127 212.139 86.6351 211.762 87.5612 211.055C87.792 210.877 88.0443 210.683 88.3023 210.458C88.5686 210.243 88.8335 209.991 89.1176 209.733C89.6722 209.202 90.255 208.591 90.8167 207.905C91.3723 207.215 91.8518 206.52 92.2583 205.868C92.4528 205.538 92.6452 205.226 92.8007 204.922C92.9683 204.624 93.1071 204.337 93.2338 204.075C93.7361 203.024 93.978 202.337 94.0434 202.358Z" fill="#2E2842"/>
<path d="M72.8503 196.6C72.769 196.573 72.9179 195.912 73.1831 195.125C73.4482 194.337 73.7293 193.721 73.8106 193.749C73.892 193.776 73.7431 194.437 73.4779 195.224C73.2128 196.011 72.9317 196.627 72.8503 196.6Z" fill="white"/>
<path d="M81.3599 184.374C81.3923 184.464 80.2144 184.891 78.9787 185.782C77.7352 186.66 76.9474 187.635 76.8735 187.576C76.8067 187.537 77.5085 186.441 78.798 185.528C80.0808 184.606 81.3447 184.298 81.3599 184.374Z" fill="white"/>
<path d="M87.6799 180.426C87.598 180.39 88.0355 179.254 88.4853 177.827C88.9398 176.401 89.2366 175.221 89.3243 175.238C89.4053 175.253 89.2424 176.476 88.7818 177.921C88.3256 179.367 87.7543 180.46 87.6799 180.426Z" fill="white"/>
<path d="M86.0381 203.957C85.9565 203.954 85.9449 202.989 86.2409 201.846C86.5316 200.701 87.0055 199.861 87.0786 199.898C87.1608 199.935 86.8245 200.81 86.5423 201.923C86.2543 203.034 86.1282 203.964 86.0381 203.957Z" fill="white"/>
<path d="M151.679 214.631C151.679 214.631 160.391 208.172 156.877 199.732C153.362 191.292 146.974 178.248 146.153 178.382C145.331 178.516 143.059 180.017 143.538 184.017C143.884 186.903 145.333 194.626 145.333 194.626" fill="#FFB08C"/>
<path d="M144.824 191.85L136.763 176.846C136.763 176.846 132.107 178.607 133.585 183.436C135.062 188.264 139.071 198.058 139.071 198.058L147.163 200.033L144.824 191.85Z" fill="#FFB08C"/>
<path d="M138.986 195.63L130.454 184.363C130.025 183.796 129.163 183.803 128.756 184.387C128.007 185.46 127.202 187.285 128.057 189.538C129.45 193.207 135.71 199.72 135.135 202.076C134.56 204.432 134.475 211.174 138.874 213.184C143.273 215.194 152.03 207.449 152.03 207.449L150.112 202.091L138.986 195.63Z" fill="#FFB08C"/>
<path d="M143.189 191.957L152.843 195.211L155.94 205.261L152.029 214.837C152.029 214.837 139.066 217.396 136.726 212.009C134.385 206.622 143.189 191.957 143.189 191.957Z" fill="#FFB08C"/>
<path d="M152.11 210.683L152.107 215.336C152.106 216.489 150.993 217.39 149.621 217.347L141.076 217.082C139.703 217.04 138.591 216.07 138.592 214.917L138.595 210.264L152.11 210.683Z" fill="#FFB08C"/>
<path d="M152.855 205.842L141.13 210.547C140.995 207.12 145.549 206.016 146.134 205.886C145.964 205.853 145.356 205.419 143.235 202.353C140.899 198.975 141.715 195.474 142.567 194.048C142.721 193.787 142.878 193.598 143.015 193.488C143.729 192.919 144.471 193.867 147.255 196.406C147.97 197.057 148.819 197.813 149.835 198.676C154.818 202.899 153.02 205.155 152.855 205.842Z" fill="#FFB08C"/>
<path d="M147.255 196.635C146.849 197.193 145.994 198.224 145.2 198.035C144.285 197.817 142.364 195.902 142.568 194.606C142.722 194.381 142.878 194.218 143.016 194.124C143.73 193.634 144.472 194.45 147.255 196.635Z" fill="#FFEBE8"/>
<path d="M134.69 200.074C134.69 200.074 125.265 197.736 124.683 197.631C124.1 197.526 122.896 199.404 125.022 201.834C127.147 204.264 137.451 206.78 137.451 206.78L139.233 201.742L134.69 200.074Z" fill="#FFB08C"/>
<path d="M140.742 210.96C140.731 210.956 140.764 210.833 140.838 210.602C140.913 210.37 141.042 210.036 141.236 209.616C141.636 208.787 142.332 207.61 143.539 206.46C143.843 206.178 144.172 205.89 144.539 205.622C144.721 205.487 144.912 205.356 145.11 205.227C145.165 205.192 145.22 205.157 145.276 205.122C145.287 205.116 145.264 205.108 145.261 205.101L145.177 205.025C144.466 204.363 143.746 203.6 143.113 202.697C142.481 201.798 141.941 200.747 141.661 199.566C141.387 198.392 141.385 197.09 141.79 195.86C141.997 195.248 142.299 194.674 142.698 194.18C142.8 194.057 142.929 193.913 143.131 193.846C143.333 193.779 143.54 193.83 143.694 193.9C143.852 193.971 143.983 194.067 144.104 194.151C144.226 194.237 144.347 194.322 144.468 194.408C145.436 195.088 146.364 195.757 147.221 196.433C148.938 197.778 150.346 199.188 151.302 200.544C152.273 201.891 152.803 203.144 153.073 204.026C153.204 204.47 153.281 204.821 153.32 205.061C153.357 205.301 153.371 205.428 153.359 205.43C153.327 205.436 153.244 204.932 152.944 204.068C152.638 203.21 152.084 201.995 151.104 200.689C150.138 199.373 148.737 198.005 147.023 196.685C146.169 196.021 145.242 195.362 144.273 194.686C144.03 194.526 143.782 194.322 143.553 194.213C143.311 194.1 143.149 194.162 142.965 194.398C142.597 194.857 142.314 195.395 142.119 195.97C141.738 197.127 141.734 198.367 141.992 199.49C142.254 200.616 142.768 201.636 143.375 202.515C143.984 203.398 144.681 204.154 145.374 204.816L145.555 204.986L145.674 205.097L145.733 205.152C145.737 205.156 145.745 205.161 145.746 205.165L145.729 205.176L145.694 205.197C145.547 205.286 145.402 205.374 145.259 205.462C145.064 205.584 144.876 205.709 144.696 205.839C144.334 206.095 144.009 206.37 143.706 206.64C142.504 207.742 141.788 208.876 141.357 209.676C140.935 210.487 140.772 210.971 140.742 210.96Z" fill="#2E2842"/>
<path d="M134.081 203.84C134.044 203.833 134.116 203.212 134.446 202.261C134.53 202.023 134.625 201.765 134.75 201.497C134.863 201.223 135.014 200.944 135.167 200.649C135.493 200.068 135.896 199.453 136.382 198.856C136.875 198.265 137.402 197.752 137.91 197.322C138.171 197.115 138.415 196.914 138.663 196.751C138.902 196.577 139.138 196.434 139.355 196.306C140.225 195.801 140.821 195.612 140.835 195.647C140.86 195.7 140.304 195.967 139.485 196.514C139.281 196.652 139.059 196.803 138.832 196.983C138.598 197.152 138.366 197.357 138.118 197.565C137.634 197.997 137.129 198.502 136.65 199.077C136.177 199.657 135.778 200.249 135.446 200.807C135.289 201.091 135.132 201.357 135.011 201.619C134.878 201.876 134.772 202.123 134.675 202.35C134.294 203.257 134.138 203.854 134.081 203.84Z" fill="#2E2842"/>
<path d="M145.274 193.537C145.25 193.541 145.189 193.319 145.099 192.913C145.009 192.506 144.89 191.917 144.75 191.187C144.47 189.728 144.107 187.708 143.727 185.473C143.544 184.359 143.327 183.288 143.33 182.279C143.331 181.778 143.386 181.297 143.503 180.861C143.62 180.422 143.803 180.038 144.017 179.719C144.44 179.073 144.984 178.712 145.38 178.561C145.783 178.412 146.024 178.427 146.025 178.443C146.03 178.475 145.799 178.507 145.435 178.685C145.076 178.865 144.594 179.23 144.224 179.851C144.036 180.157 143.879 180.522 143.782 180.931C143.684 181.342 143.643 181.797 143.65 182.277C143.663 183.239 143.885 184.295 144.069 185.415C144.449 187.65 144.774 189.676 144.992 191.146C145.101 191.881 145.183 192.477 145.232 192.89C145.281 193.303 145.297 193.533 145.274 193.537Z" fill="#2E2842"/>
<path d="M137.738 194.733C137.713 194.741 137.605 194.485 137.411 194.023C137.219 193.56 136.935 192.893 136.57 192.074C135.855 190.435 134.743 188.198 133.919 185.567C133.492 184.261 133.185 182.952 133.206 181.735C133.204 180.514 133.599 179.437 134.11 178.677C134.365 178.294 134.649 177.984 134.928 177.748C135.213 177.519 135.481 177.351 135.716 177.248C135.95 177.144 136.14 177.082 136.272 177.06C136.404 177.033 136.473 177.025 136.476 177.036C136.485 177.069 136.21 177.131 135.778 177.368C135.561 177.485 135.316 177.662 135.057 177.894C134.803 178.132 134.546 178.437 134.316 178.81C133.857 179.552 133.508 180.574 133.526 181.737C133.523 182.901 133.827 184.167 134.249 185.46C135.066 188.065 136.135 190.305 136.796 191.978C137.134 192.812 137.384 193.497 137.539 193.976C137.694 194.455 137.759 194.726 137.738 194.733Z" fill="#2E2842"/>
<path d="M132.659 196.675C132.624 196.703 132.08 196.12 131.302 195.092C130.527 194.062 129.523 192.588 128.606 190.838C128.155 189.958 127.814 189.054 127.694 188.188C127.565 187.321 127.683 186.516 127.911 185.897C128.137 185.273 128.476 184.84 128.744 184.591C129.014 184.341 129.201 184.254 129.211 184.269C129.229 184.293 129.071 184.417 128.842 184.684C128.615 184.951 128.328 185.379 128.143 185.976C127.957 186.57 127.872 187.325 128.01 188.139C128.14 188.956 128.474 189.818 128.915 190.68C129.818 192.402 130.783 193.892 131.502 194.948C132.223 196.006 132.699 196.643 132.659 196.675Z" fill="#2E2842"/>
<path d="M137.529 213.1C137.495 213.123 137.048 212.543 136.512 211.49C135.981 210.441 135.391 208.897 135.113 207.109C135.09 206.944 135.066 206.78 135.044 206.617L135.017 206.374L135.004 206.254L135.004 206.253C134.296 206.056 133.629 205.871 133.027 205.703C132.392 205.519 131.826 205.354 131.353 205.216C130.41 204.932 129.844 204.74 129.856 204.698C129.867 204.656 130.453 204.772 131.412 204.996C131.89 205.113 132.463 205.253 133.105 205.41C133.779 205.584 134.526 205.777 135.32 205.982C135.342 206.177 135.364 206.375 135.387 206.574C135.41 206.733 135.433 206.894 135.456 207.055C135.728 208.803 136.267 210.325 136.734 211.386C137.205 212.448 137.576 213.071 137.529 213.1Z" fill="#2E2842"/>
<path d="M130.159 190.252C130.095 190.303 129.582 189.742 129.204 188.895C128.822 188.05 128.743 187.293 128.824 187.28C128.911 187.261 129.121 187.958 129.488 188.768C129.85 189.579 130.232 190.199 130.159 190.252Z" fill="white"/>
<path d="M128.255 202.399C128.211 202.473 127.548 202.156 126.775 201.692C126.002 201.227 125.411 200.791 125.455 200.718C125.5 200.644 126.162 200.961 126.935 201.425C127.709 201.889 128.299 202.325 128.255 202.399Z" fill="white"/>
<path d="M136.255 187.28C136.189 187.326 135.592 186.541 135.186 185.406C134.773 184.273 134.728 183.288 134.809 183.281C134.899 183.269 135.078 184.206 135.478 185.3C135.871 186.397 136.332 187.232 136.255 187.28Z" fill="white"/>
<path d="M145.297 186.88C145.218 186.903 144.859 185.861 144.66 184.522C144.457 183.183 144.493 182.082 144.576 182.08C144.665 182.077 144.767 183.157 144.968 184.476C145.164 185.795 145.383 186.857 145.297 186.88Z" fill="white"/>
<path d="M145.778 203.442C145.714 203.495 145.042 202.781 144.373 201.779C143.702 200.778 143.298 199.885 143.372 199.845C143.449 199.803 143.97 200.619 144.632 201.605C145.292 202.594 145.847 203.386 145.778 203.442Z" fill="white"/>
<path d="M145.2 207.271C145.267 207.34 144.363 208.173 143.687 209.493C142.995 210.805 142.833 212.023 142.738 212.008C142.699 212.004 142.688 211.693 142.774 211.198C142.858 210.705 143.057 210.032 143.411 209.349C143.766 208.668 144.203 208.118 144.558 207.766C144.913 207.412 145.174 207.241 145.2 207.271Z" fill="white"/>
<path d="M131.817 191.171C131.892 191.26 131.718 191.531 131.427 191.777C131.137 192.023 130.841 192.149 130.766 192.06C130.69 191.971 130.864 191.7 131.155 191.455C131.445 191.209 131.741 191.082 131.817 191.171Z" fill="#FF8F53"/>
<path d="M134.646 195.7C134.719 195.791 134.597 196.01 134.374 196.188C134.15 196.367 133.91 196.438 133.837 196.347C133.765 196.256 133.886 196.037 134.11 195.858C134.333 195.68 134.573 195.609 134.646 195.7Z" fill="#FF8F53"/>
<path d="M137.157 187.699C137.224 187.795 137.043 188.036 136.753 188.237C136.463 188.439 136.174 188.524 136.108 188.428C136.041 188.333 136.222 188.092 136.512 187.89C136.802 187.689 137.091 187.604 137.157 187.699Z" fill="#FF8F53"/>
<path d="M139.82 193.112C139.892 193.204 139.787 193.405 139.586 193.562C139.385 193.718 139.165 193.77 139.093 193.678C139.021 193.586 139.126 193.384 139.327 193.228C139.528 193.072 139.749 193.02 139.82 193.112Z" fill="#FF8F53"/>
<path d="M147.018 187.209C147.077 187.31 146.817 187.572 146.437 187.795C146.058 188.019 145.702 188.118 145.643 188.018C145.584 187.917 145.844 187.655 146.223 187.431C146.603 187.208 146.958 187.109 147.018 187.209Z" fill="#FF8F53"/>
<path d="M147.906 192.626C147.968 192.722 147.668 193.019 147.186 193.162C146.705 193.307 146.29 193.225 146.289 193.111C146.285 192.992 146.642 192.886 147.064 192.757C147.487 192.633 147.844 192.525 147.906 192.626Z" fill="#FF8F53"/>
<path d="M129.714 202.329C129.818 202.382 129.794 202.641 129.66 202.909C129.526 203.177 129.333 203.352 129.229 203.3C129.125 203.247 129.149 202.988 129.283 202.72C129.417 202.452 129.61 202.278 129.714 202.329Z" fill="#FF8F53"/>
<path d="M133.594 203.624C133.71 203.635 133.786 203.826 133.764 204.049C133.742 204.272 133.629 204.444 133.514 204.432C133.398 204.421 133.321 204.23 133.344 204.007C133.366 203.784 133.478 203.612 133.594 203.624Z" fill="#FF8F53"/>
<path d="M149.112 199.005C149.166 199.112 148.918 199.341 148.655 199.634C148.388 199.923 148.183 200.192 148.072 200.149C147.964 200.112 148.018 199.706 148.343 199.35C148.666 198.993 149.065 198.901 149.112 199.005Z" fill="#FF8F53"/>
<path d="M152.111 204.028C152.204 204.098 152.171 204.299 152.037 204.478C151.903 204.657 151.719 204.745 151.625 204.675C151.532 204.605 151.565 204.403 151.699 204.225C151.833 204.046 152.017 203.958 152.111 204.028Z" fill="#FF8F53"/>
</g>
<rect x="0.152344" y="0.152344" width="169" height="211.593" rx="5.49593" stroke="white" stroke-opacity="0.4" stroke-width="0.304014"/>
<defs>
<clipPath id="clip0_1063_41262">
<rect x="0.152344" y="0.152344" width="169" height="211.593" rx="5.49593" fill="white"/>
</clipPath>
</defs>
</svg>
