<svg width="27" height="33" viewBox="0 0 27 33" fill="none" xmlns="http://www.w3.org/2000/svg">
<g clip-path="url(#clip0_1091_612)">
<rect width="26.0576" height="32.625" rx="0.847403" fill="#ED3844"/>
<path d="M4.15244 15.6354L4.14855 16.2431C4.02909 16.2664 3.91093 16.2885 3.79407 16.3093C3.67721 16.3301 3.55905 16.3482 3.4396 16.3638C3.31494 16.3794 3.19029 16.3937 3.06564 16.4067C2.94099 16.4197 2.81634 16.4262 2.69169 16.4262C2.65533 16.4262 2.6021 16.4249 2.53198 16.4223C2.46187 16.4197 2.38915 16.4145 2.31384 16.4067C2.23853 16.3989 2.16712 16.3898 2.0996 16.3794C2.03208 16.3664 1.98274 16.3508 1.95158 16.3327C1.92301 16.3145 1.89574 16.2937 1.86977 16.2703C1.8438 16.2444 1.82043 16.2184 1.79966 16.1924C1.74512 16.1249 1.69968 16.0509 1.66332 15.9704C1.62696 15.8899 1.5984 15.8068 1.57762 15.7211C1.55685 15.6354 1.54127 15.5484 1.53088 15.4601C1.52309 15.3718 1.51919 15.2848 1.51919 15.1991C1.51919 15.0952 1.52439 14.9875 1.53477 14.8758C1.54776 14.7641 1.56724 14.6538 1.5932 14.5447C1.61917 14.4356 1.65293 14.3305 1.69448 14.2292C1.73863 14.1279 1.79187 14.0344 1.85419 13.9487C1.87237 13.9253 1.89574 13.8968 1.92431 13.863C1.95287 13.8293 1.98144 13.8046 2.01001 13.789C2.08012 13.7501 2.15803 13.7176 2.24373 13.6916C2.33202 13.6657 2.42291 13.6462 2.5164 13.6332C2.60989 13.6176 2.70208 13.6072 2.79297 13.602C2.88646 13.5942 2.97215 13.5903 3.05006 13.5903C3.19808 13.5903 3.34611 13.5994 3.49413 13.6176C3.64215 13.6332 3.78628 13.6618 3.92651 13.7033C3.92132 13.7734 3.91742 13.8448 3.91483 13.9176C3.91223 13.9877 3.91093 14.0578 3.91093 14.1279C3.91093 14.2967 3.91483 14.4668 3.92262 14.6382C3.80576 14.594 3.6837 14.5629 3.55646 14.5447C3.42921 14.5239 3.30326 14.5135 3.17861 14.5135C3.15264 14.5135 3.11498 14.5161 3.06564 14.5213C3.0163 14.5239 2.96047 14.5291 2.89814 14.5369C2.83582 14.5421 2.7709 14.5499 2.70338 14.5603C2.63845 14.5707 2.57743 14.5837 2.5203 14.5992C2.46316 14.6148 2.41252 14.633 2.36838 14.6538C2.32683 14.6745 2.29956 14.6966 2.28657 14.72C2.27619 14.7408 2.2671 14.7706 2.25931 14.8096C2.25411 14.8459 2.24892 14.8849 2.24373 14.9264C2.24113 14.968 2.23853 15.0082 2.23594 15.0472C2.23594 15.0862 2.23594 15.1173 2.23594 15.1407C2.23594 15.1641 2.23853 15.2108 2.24373 15.2809C2.24892 15.351 2.25541 15.4263 2.2632 15.5069C2.27099 15.5848 2.28008 15.6562 2.29047 15.7211C2.30345 15.786 2.31644 15.8237 2.32942 15.8341C2.34241 15.8419 2.36318 15.847 2.39175 15.8496C2.42291 15.8496 2.44369 15.8496 2.45407 15.8496C2.58132 15.8496 2.71766 15.8431 2.86309 15.8302C3.00851 15.8172 3.15524 15.8003 3.30326 15.7795C3.45388 15.7562 3.6019 15.7328 3.74733 15.7094C3.89275 15.6834 4.02779 15.6588 4.15244 15.6354ZM7.08563 15.0394C7.08563 15.1355 7.07914 15.2329 7.06616 15.3316C7.05577 15.4276 7.04408 15.5237 7.0311 15.6198C7.01032 15.7886 6.98695 15.9561 6.96098 16.1223C6.93501 16.2859 6.90904 16.4521 6.88308 16.6209C6.75583 16.6235 6.63118 16.6287 6.50912 16.6365C6.38707 16.6443 6.26372 16.6534 6.13907 16.6638C6.13907 16.4742 6.13907 16.2872 6.13907 16.1028C6.13907 15.9159 6.13517 15.7289 6.12738 15.5419C6.12738 15.5056 6.12608 15.4588 6.12348 15.4017C6.12348 15.3445 6.11829 15.2978 6.1079 15.2614C6.09232 15.2017 6.07285 15.1615 6.04947 15.1407C6.0261 15.1173 5.98066 15.1056 5.91314 15.1056C5.86639 15.1056 5.81186 15.1108 5.74953 15.1212C5.68721 15.1316 5.62358 15.1446 5.55866 15.1602C5.49374 15.1757 5.43141 15.1939 5.37168 15.2147C5.31455 15.2329 5.26651 15.2524 5.22756 15.2731C5.20678 15.4835 5.18081 15.6925 5.14965 15.9003C5.12108 16.108 5.10291 16.3184 5.09511 16.5313L4.54587 16.5041C4.51731 16.0366 4.49004 15.5718 4.46407 15.1095C4.4381 14.6447 4.41343 14.1785 4.39006 13.7111L5.24703 13.6566C5.24184 13.828 5.23665 13.9994 5.23145 14.1708C5.22626 14.3395 5.22106 14.5096 5.21587 14.681C5.26521 14.6395 5.32104 14.6083 5.38337 14.5876C5.4457 14.5642 5.50932 14.5486 5.57424 14.5408C5.64176 14.533 5.70928 14.5291 5.7768 14.5291C5.84432 14.5291 5.90924 14.5291 5.97157 14.5291C6.06505 14.5291 6.17023 14.533 6.28709 14.5408C6.40655 14.546 6.51951 14.5642 6.62598 14.5953C6.73505 14.6239 6.83114 14.6707 6.91424 14.7356C6.99734 14.8005 7.05317 14.8914 7.08174 15.0082C7.08433 15.0134 7.08563 15.0186 7.08563 15.0238C7.08563 15.029 7.08563 15.0342 7.08563 15.0394ZM10.1863 14.8018C10.1863 15.0199 10.1785 15.2368 10.163 15.4523C10.1474 15.6679 10.1318 15.8834 10.1162 16.0989C9.82536 16.1249 9.5358 16.147 9.24755 16.1652C8.95929 16.1833 8.66974 16.1924 8.37889 16.1924C8.35292 16.1924 8.30487 16.1924 8.23476 16.1924C8.16464 16.1898 8.09063 16.1872 8.01272 16.1846C7.93482 16.1794 7.86081 16.1743 7.79069 16.1691C7.72057 16.1613 7.67383 16.1509 7.65046 16.1379C7.56476 16.0912 7.50503 16.0327 7.47127 15.9626C7.43751 15.8899 7.42063 15.8081 7.42063 15.7172C7.42063 15.686 7.42193 15.6445 7.42453 15.5925C7.42712 15.5406 7.43232 15.4861 7.44011 15.4289C7.4479 15.3718 7.45829 15.3186 7.47127 15.2692C7.48426 15.2199 7.49984 15.1835 7.51802 15.1602C7.54139 15.129 7.59462 15.103 7.67772 15.0823C7.76083 15.0589 7.85951 15.0407 7.97377 15.0277C8.09063 15.0147 8.21528 15.0044 8.34772 14.9966C8.48276 14.9888 8.61131 14.9836 8.73336 14.981C8.85542 14.9758 8.96449 14.9732 9.06057 14.9732C9.15666 14.9732 9.22547 14.9732 9.26702 14.9732C9.27481 14.9161 9.27871 14.8602 9.27871 14.8057C9.27871 14.8005 9.27871 14.7875 9.27871 14.7667C9.27871 14.7434 9.27741 14.7291 9.27481 14.7239C9.26702 14.7083 9.24235 14.6953 9.2008 14.6849C9.15925 14.6745 9.10731 14.6668 9.04499 14.6616C8.98526 14.6564 8.91904 14.6525 8.84633 14.6499C8.77621 14.6447 8.70739 14.6421 8.63987 14.6421C8.57235 14.6421 8.51263 14.6421 8.46069 14.6421C8.40875 14.6421 8.3711 14.6421 8.34772 14.6421C8.18412 14.6421 8.02051 14.646 7.85691 14.6538C7.69331 14.659 7.5297 14.6642 7.3661 14.6694C7.37649 14.5707 7.38428 14.4707 7.38947 14.3694C7.39726 14.2681 7.39856 14.1682 7.39337 14.0695C7.58294 14.0357 7.77251 14.0123 7.96208 13.9994C8.15425 13.9838 8.34772 13.976 8.54249 13.976C8.61261 13.976 8.68921 13.9773 8.77232 13.9799C8.85542 13.9799 8.93852 13.9825 9.02162 13.9877C9.10472 13.9903 9.18652 13.9955 9.26702 14.0033C9.35012 14.011 9.42673 14.0214 9.49685 14.0344C9.56956 14.0474 9.64098 14.0708 9.71109 14.1045C9.78381 14.1383 9.85132 14.1798 9.91365 14.2292C9.97598 14.2785 10.0305 14.3357 10.0773 14.4006C10.124 14.4629 10.1578 14.5304 10.1785 14.6031C10.1811 14.6109 10.1824 14.6239 10.1824 14.6421C10.185 14.6603 10.1863 14.681 10.1863 14.7044C10.1863 14.7252 10.1863 14.7447 10.1863 14.7628C10.1863 14.781 10.1863 14.794 10.1863 14.8018ZM9.31766 15.7172V15.2186C9.24235 15.216 9.16704 15.2147 9.09173 15.2147C9.01642 15.2121 8.94111 15.2108 8.8658 15.2108C8.85022 15.2108 8.80607 15.2121 8.73336 15.2147C8.66325 15.2147 8.58664 15.2173 8.50354 15.2225C8.42303 15.2277 8.34902 15.2342 8.2815 15.242C8.21398 15.2498 8.17503 15.2614 8.16464 15.277C8.15166 15.2978 8.14257 15.3199 8.13738 15.3432C8.13478 15.364 8.13348 15.3861 8.13348 15.4095C8.13348 15.4276 8.13478 15.4523 8.13738 15.4835C8.13997 15.5146 8.14387 15.5471 8.14906 15.5809C8.15685 15.6146 8.16464 15.6458 8.17243 15.6744C8.18022 15.7029 8.19061 15.7237 8.2036 15.7367C8.21398 15.7497 8.23086 15.76 8.25424 15.7678C8.2802 15.773 8.30747 15.7782 8.33604 15.7834C8.3646 15.786 8.39317 15.7886 8.42173 15.7912C8.4503 15.7912 8.47237 15.7912 8.48796 15.7912C8.55028 15.7912 8.6165 15.7886 8.68662 15.7834C8.75933 15.7782 8.83204 15.773 8.90476 15.7678C8.98007 15.76 9.05278 15.7523 9.1229 15.7445C9.19301 15.7341 9.25793 15.725 9.31766 15.7172ZM12.8585 14.9148V15.0044L12.1067 15.0394C12.1145 15.0057 12.1184 14.9667 12.1184 14.9226C12.1184 14.8576 12.1093 14.8161 12.0911 14.7979C12.073 14.7771 12.0327 14.7667 11.9704 14.7667C11.8821 14.7667 11.7847 14.7823 11.6782 14.8135C11.5718 14.8446 11.4783 14.8745 11.3978 14.9031C11.3848 15.0173 11.3744 15.1316 11.3666 15.2459C11.3588 15.3601 11.3549 15.4744 11.3549 15.5887C11.3549 15.7159 11.3549 15.8431 11.3549 15.9704C11.3575 16.095 11.3601 16.221 11.3627 16.3482L10.6927 16.3911C10.6797 16.2249 10.6667 16.06 10.6538 15.8964C10.6408 15.7302 10.6291 15.564 10.6187 15.3978C10.6057 15.177 10.5888 14.9576 10.5681 14.7395C10.5473 14.5187 10.5265 14.2967 10.5057 14.0734C10.6538 14.0838 10.8005 14.0993 10.9459 14.1201C11.0939 14.1383 11.242 14.1617 11.39 14.1902L11.3705 14.5174C11.4484 14.4551 11.5224 14.4019 11.5925 14.3577C11.6653 14.311 11.738 14.272 11.8107 14.2409C11.886 14.2097 11.9652 14.1876 12.0483 14.1746C12.1314 14.1591 12.2236 14.1513 12.3249 14.1513C12.3924 14.1513 12.4625 14.1591 12.5352 14.1746C12.6079 14.1876 12.6703 14.2201 12.7222 14.272C12.7482 14.3006 12.7702 14.3434 12.7884 14.4006C12.8066 14.4577 12.8209 14.5187 12.8313 14.5837C12.8416 14.646 12.8481 14.7083 12.8507 14.7706C12.8559 14.8304 12.8585 14.8784 12.8585 14.9148ZM15.819 14.8018C15.819 15.0199 15.8112 15.2368 15.7956 15.4523C15.78 15.6679 15.7644 15.8834 15.7489 16.0989C15.458 16.1249 15.1685 16.147 14.8802 16.1652C14.592 16.1833 14.3024 16.1924 14.0115 16.1924C13.9856 16.1924 13.9375 16.1924 13.8674 16.1924C13.7973 16.1898 13.7233 16.1872 13.6454 16.1846C13.5675 16.1794 13.4935 16.1743 13.4234 16.1691C13.3532 16.1613 13.3065 16.1509 13.2831 16.1379C13.1974 16.0912 13.1377 16.0327 13.1039 15.9626C13.0702 15.8899 13.0533 15.8081 13.0533 15.7172C13.0533 15.686 13.0546 15.6445 13.0572 15.5925C13.0598 15.5406 13.065 15.4861 13.0728 15.4289C13.0806 15.3718 13.0909 15.3186 13.1039 15.2692C13.1169 15.2199 13.1325 15.1835 13.1507 15.1602C13.174 15.129 13.2273 15.103 13.3104 15.0823C13.3935 15.0589 13.4922 15.0407 13.6064 15.0277C13.7233 15.0147 13.8479 15.0044 13.9804 14.9966C14.1154 14.9888 14.244 14.9836 14.366 14.981C14.4881 14.9758 14.5971 14.9732 14.6932 14.9732C14.7893 14.9732 14.8581 14.9732 14.8997 14.9732C14.9075 14.9161 14.9114 14.8602 14.9114 14.8057C14.9114 14.8005 14.9114 14.7875 14.9114 14.7667C14.9114 14.7434 14.9101 14.7291 14.9075 14.7239C14.8997 14.7083 14.875 14.6953 14.8335 14.6849C14.7919 14.6745 14.74 14.6668 14.6776 14.6616C14.6179 14.6564 14.5517 14.6525 14.479 14.6499C14.4089 14.6447 14.3401 14.6421 14.2725 14.6421C14.205 14.6421 14.1453 14.6421 14.0933 14.6421C14.0414 14.6421 14.0038 14.6421 13.9804 14.6421C13.8168 14.6421 13.6532 14.646 13.4896 14.6538C13.326 14.659 13.1624 14.6642 12.9988 14.6694C13.0091 14.5707 13.0169 14.4707 13.0221 14.3694C13.0299 14.2681 13.0312 14.1682 13.026 14.0695C13.2156 14.0357 13.4052 14.0123 13.5947 13.9994C13.7869 13.9838 13.9804 13.976 14.1752 13.976C14.2453 13.976 14.3219 13.9773 14.405 13.9799C14.4881 13.9799 14.5712 13.9825 14.6543 13.9877C14.7374 13.9903 14.8192 13.9955 14.8997 14.0033C14.9828 14.011 15.0594 14.0214 15.1295 14.0344C15.2022 14.0474 15.2736 14.0708 15.3438 14.1045C15.4165 14.1383 15.484 14.1798 15.5463 14.2292C15.6086 14.2785 15.6632 14.3357 15.7099 14.4006C15.7567 14.4629 15.7904 14.5304 15.8112 14.6031C15.8138 14.6109 15.8151 14.6239 15.8151 14.6421C15.8177 14.6603 15.819 14.681 15.819 14.7044C15.819 14.7252 15.819 14.7447 15.819 14.7628C15.819 14.781 15.819 14.794 15.819 14.8018ZM14.9503 15.7172V15.2186C14.875 15.216 14.7997 15.2147 14.7244 15.2147C14.6491 15.2121 14.5738 15.2108 14.4985 15.2108C14.4829 15.2108 14.4387 15.2121 14.366 15.2147C14.2959 15.2147 14.2193 15.2173 14.1362 15.2225C14.0557 15.2277 13.9817 15.2342 13.9142 15.242C13.8466 15.2498 13.8077 15.2614 13.7973 15.277C13.7843 15.2978 13.7752 15.3199 13.77 15.3432C13.7674 15.364 13.7661 15.3861 13.7661 15.4095C13.7661 15.4276 13.7674 15.4523 13.77 15.4835C13.7726 15.5146 13.7765 15.5471 13.7817 15.5809C13.7895 15.6146 13.7973 15.6458 13.8051 15.6744C13.8129 15.7029 13.8233 15.7237 13.8363 15.7367C13.8466 15.7497 13.8635 15.76 13.8869 15.7678C13.9129 15.773 13.9401 15.7782 13.9687 15.7834C13.9973 15.786 14.0258 15.7886 14.0544 15.7912C14.083 15.7912 14.105 15.7912 14.1206 15.7912C14.1829 15.7912 14.2492 15.7886 14.3193 15.7834C14.392 15.7782 14.4647 15.773 14.5374 15.7678C14.6127 15.76 14.6854 15.7523 14.7556 15.7445C14.8257 15.7341 14.8906 15.725 14.9503 15.7172ZM18.908 14.3928C18.908 14.5019 18.908 14.6096 18.908 14.7161C18.908 14.8226 18.9054 14.9303 18.9002 15.0394C18.895 15.2783 18.8846 15.5159 18.869 15.7523C18.8535 15.986 18.8366 16.221 18.8184 16.4573C18.5821 16.4729 18.3484 16.4859 18.1172 16.4963C17.8861 16.5067 17.6524 16.5118 17.4161 16.5118C17.3849 16.5118 17.3356 16.5118 17.2681 16.5118C17.2005 16.5093 17.1278 16.5067 17.0499 16.5041C16.9746 16.5015 16.9032 16.4976 16.8357 16.4924C16.7681 16.4846 16.7188 16.4742 16.6876 16.4612C16.4877 16.3885 16.3384 16.2911 16.2397 16.1691C16.1436 16.0444 16.0956 15.873 16.0956 15.6549V15.5925C16.1007 15.4965 16.1085 15.4108 16.1189 15.3355C16.1293 15.2601 16.1475 15.1913 16.1735 15.129C16.202 15.0667 16.2397 15.0095 16.2864 14.9576C16.3358 14.9031 16.402 14.8485 16.4851 14.794C16.5422 14.7551 16.6097 14.7226 16.6876 14.6966C16.7656 14.6707 16.8461 14.6486 16.9292 14.6304C17.0149 14.6122 17.098 14.5992 17.1785 14.5914C17.2616 14.5837 17.3369 14.5798 17.4044 14.5798C17.529 14.5798 17.6524 14.5889 17.7744 14.607C17.8991 14.6252 18.0224 14.6525 18.1445 14.6888C18.1315 14.5174 18.1198 14.3486 18.1094 14.1824C18.1017 14.0136 18.0887 13.8448 18.0705 13.676C18.2107 13.6631 18.3497 13.6488 18.4873 13.6332C18.6249 13.6176 18.7626 13.602 18.9002 13.5864C18.9028 13.7215 18.9041 13.8565 18.9041 13.9916C18.9067 14.124 18.908 14.2577 18.908 14.3928ZM18.312 15.5692C18.312 15.5094 18.312 15.4497 18.312 15.39C18.312 15.3303 18.3107 15.2705 18.3081 15.2108C18.1445 15.203 17.9809 15.1991 17.8173 15.1991C17.7939 15.1991 17.7446 15.2004 17.6693 15.203C17.594 15.203 17.5135 15.2056 17.4278 15.2108C17.3447 15.2134 17.2668 15.2199 17.194 15.2303C17.1213 15.2381 17.0746 15.2485 17.0538 15.2614C17.0149 15.29 16.9902 15.3303 16.9798 15.3822C16.972 15.4341 16.9681 15.4822 16.9681 15.5263C16.9681 15.5471 16.9694 15.5757 16.972 15.612C16.9746 15.6458 16.9785 15.6821 16.9837 15.7211C16.9915 15.7575 17.0006 15.7925 17.011 15.8263C17.0213 15.8574 17.033 15.8808 17.046 15.8964C17.0538 15.9042 17.0668 15.9107 17.085 15.9159C17.1057 15.9211 17.1278 15.925 17.1512 15.9275C17.1746 15.9301 17.1966 15.9314 17.2174 15.9314C17.2408 15.9314 17.259 15.9314 17.2719 15.9314C17.42 15.9314 17.5667 15.925 17.7121 15.912C17.8575 15.899 18.0043 15.8821 18.1523 15.8613C18.1731 15.8561 18.1977 15.8535 18.2263 15.8535C18.2549 15.8509 18.2808 15.8457 18.3042 15.838V15.8302C18.3042 15.8276 18.3055 15.825 18.3081 15.8224C18.3133 15.7808 18.3146 15.7393 18.312 15.6977C18.312 15.6562 18.312 15.6133 18.312 15.5692ZM21.9775 15.1134C21.6373 15.1316 21.2984 15.1472 20.9608 15.1602C20.6232 15.1706 20.2843 15.1822 19.9441 15.1952C19.9416 15.2056 19.9403 15.216 19.9403 15.2264C19.9403 15.2368 19.9403 15.2472 19.9403 15.2576C19.9403 15.3458 19.9597 15.4134 19.9987 15.4601C20.0402 15.5069 20.0909 15.5406 20.1506 15.5614C20.2103 15.5796 20.2766 15.59 20.3493 15.5925C20.422 15.5951 20.4895 15.5964 20.5518 15.5964C20.7258 15.5964 20.8998 15.5913 21.0738 15.5809C21.2478 15.5679 21.4231 15.5549 21.5997 15.5419L21.6308 16.1613C21.4594 16.1691 21.288 16.1756 21.1166 16.1807C20.9478 16.1859 20.7778 16.1885 20.6064 16.1885C20.57 16.1885 20.5025 16.1885 20.4038 16.1885C20.3077 16.1859 20.2038 16.182 20.0922 16.1769C19.9831 16.1691 19.8805 16.16 19.7844 16.1496C19.6884 16.1392 19.6247 16.1249 19.5936 16.1067C19.5131 16.06 19.4494 16.0003 19.4027 15.9275C19.3586 15.8548 19.3235 15.7756 19.2975 15.6899C19.2742 15.6042 19.2573 15.5172 19.2469 15.4289C19.2391 15.3381 19.2339 15.2511 19.2313 15.168C19.2287 15.155 19.2274 15.142 19.2274 15.129C19.23 15.1134 19.2313 15.0991 19.2313 15.0862C19.2313 14.9485 19.2456 14.8213 19.2742 14.7044C19.3053 14.585 19.3611 14.4694 19.4417 14.3577C19.4962 14.2798 19.5767 14.2149 19.6832 14.163C19.7896 14.111 19.9052 14.0708 20.0298 14.0422C20.1545 14.011 20.2791 13.9903 20.4038 13.9799C20.5285 13.9669 20.6362 13.9604 20.7271 13.9604C20.8076 13.9604 20.9063 13.9682 21.0232 13.9838C21.14 13.9968 21.2556 14.0201 21.3698 14.0539C21.4867 14.0877 21.5919 14.1318 21.6854 14.1863C21.7789 14.2383 21.8425 14.3032 21.8762 14.3811C21.8814 14.3967 21.8866 14.4239 21.8918 14.4629C21.8996 14.4993 21.9074 14.5421 21.9152 14.5914C21.923 14.6382 21.9295 14.6888 21.9347 14.7434C21.9425 14.7979 21.949 14.8498 21.9541 14.8992C21.9593 14.9485 21.9632 14.9927 21.9658 15.0316C21.971 15.0706 21.9749 15.0978 21.9775 15.1134ZM21.4478 14.8291C21.4322 14.7148 21.4023 14.6252 21.3582 14.5603C21.3166 14.4928 21.2634 14.4434 21.1984 14.4123C21.1361 14.3785 21.0634 14.3577 20.9803 14.3499C20.8998 14.3395 20.8128 14.3344 20.7193 14.3344C20.6882 14.3344 20.6492 14.3357 20.6025 14.3383C20.5557 14.3383 20.509 14.3421 20.4622 14.3499C20.4155 14.3551 20.3713 14.3642 20.3298 14.3772C20.2882 14.3902 20.2558 14.4084 20.2324 14.4317C20.2142 14.4473 20.1986 14.4694 20.1857 14.498C20.1753 14.5239 20.1662 14.5525 20.1584 14.5837C20.1506 14.6148 20.1441 14.646 20.1389 14.6771C20.1363 14.7057 20.135 14.7304 20.135 14.7512C20.135 14.7927 20.1389 14.833 20.1467 14.8719L21.4478 14.8291ZM24.4394 13.8552L24.416 14.3616C24.3355 14.3564 24.255 14.3525 24.1745 14.3499C24.094 14.3473 24.0135 14.346 23.933 14.346C23.8992 14.346 23.8512 14.3473 23.7888 14.3499C23.7265 14.3499 23.6564 14.3512 23.5785 14.3538C23.5032 14.3564 23.4253 14.3603 23.3448 14.3655C23.2643 14.3707 23.1903 14.3759 23.1227 14.3811C23.0552 14.3863 22.9981 14.3928 22.9514 14.4006C22.9046 14.4084 22.876 14.4162 22.8657 14.4239C22.8319 14.4577 22.815 14.4967 22.815 14.5408C22.815 14.5694 22.8228 14.5927 22.8384 14.6109C22.8436 14.6187 22.8721 14.6252 22.9241 14.6304C22.976 14.6356 23.0396 14.6408 23.115 14.646C23.1903 14.6486 23.2721 14.6512 23.3604 14.6538C23.4513 14.6538 23.5369 14.6551 23.6175 14.6577C23.7006 14.6577 23.7733 14.659 23.8356 14.6616C23.9005 14.6642 23.946 14.6668 23.9719 14.6694C24.0706 14.6823 24.1485 14.7109 24.2056 14.7551C24.2654 14.7992 24.3108 14.855 24.342 14.9226C24.3731 14.9875 24.3926 15.0615 24.4004 15.1446C24.4108 15.2277 24.416 15.3121 24.416 15.3978C24.416 15.4393 24.4121 15.4887 24.4043 15.5458C24.3991 15.6029 24.39 15.6601 24.377 15.7172C24.3641 15.7743 24.3446 15.8276 24.3186 15.8769C24.2952 15.9263 24.2667 15.9652 24.2329 15.9938C24.194 16.0249 24.1303 16.0509 24.042 16.0717C23.9563 16.0925 23.8629 16.1093 23.7616 16.1223C23.6629 16.1353 23.5668 16.1444 23.4733 16.1496C23.3798 16.1548 23.3084 16.1574 23.2591 16.1574C23.0877 16.1574 22.9163 16.1483 22.7449 16.1301C22.5735 16.1093 22.4034 16.0873 22.2346 16.0639V15.3199C22.3982 15.3536 22.5618 15.3731 22.7254 15.3783C22.8916 15.3835 23.0578 15.3926 23.224 15.4056C23.2578 15.4082 23.3084 15.4108 23.3759 15.4134C23.4461 15.4134 23.5162 15.4121 23.5863 15.4095C23.6564 15.4043 23.72 15.3952 23.7772 15.3822C23.8343 15.3692 23.8694 15.351 23.8823 15.3277C23.8875 15.3199 23.8901 15.3108 23.8901 15.3004C23.8901 15.29 23.8901 15.2809 23.8901 15.2731C23.8901 15.2524 23.8875 15.2264 23.8823 15.1952C23.8797 15.1615 23.8719 15.1355 23.859 15.1173C23.8564 15.1147 23.8473 15.1134 23.8317 15.1134C23.8161 15.1108 23.807 15.1095 23.8044 15.1095C23.659 15.1017 23.5136 15.0978 23.3682 15.0978C23.2227 15.0952 23.076 15.0875 22.928 15.0745C22.8682 15.0693 22.8072 15.0641 22.7449 15.0589C22.6852 15.0511 22.6254 15.0407 22.5657 15.0277C22.5164 15.0173 22.4709 15.0057 22.4294 14.9927C22.3904 14.9797 22.3554 14.9628 22.3242 14.942C22.2956 14.9213 22.271 14.8953 22.2502 14.8641C22.2294 14.8304 22.2151 14.7862 22.2073 14.7317C22.2021 14.7135 22.1996 14.6966 22.1996 14.681C22.1996 14.6629 22.1996 14.6434 22.1996 14.6226C22.1996 14.5759 22.2021 14.5226 22.2073 14.4629C22.2125 14.4032 22.2216 14.3434 22.2346 14.2837C22.2502 14.224 22.2684 14.1682 22.2891 14.1162C22.3125 14.0617 22.3424 14.0175 22.3787 13.9838C22.4021 13.9604 22.4437 13.9409 22.5034 13.9253C22.5631 13.9098 22.6319 13.8968 22.7098 13.8864C22.7877 13.8734 22.8708 13.863 22.9591 13.8552C23.0474 13.8474 23.1318 13.8422 23.2123 13.8396C23.2954 13.8345 23.3695 13.8319 23.4344 13.8319C23.5019 13.8293 23.5525 13.828 23.5863 13.828C23.7317 13.828 23.8745 13.8306 24.0148 13.8358C24.1576 13.8409 24.2991 13.8474 24.4394 13.8552Z" fill="#E8E6E3"/>
</g>
<defs>
<clipPath id="clip0_1091_612">
<rect width="26.0576" height="32.625" rx="0.847403" fill="white"/>
</clipPath>
</defs>
</svg>
