<svg width="35" height="44" viewBox="0 0 35 44" fill="none" xmlns="http://www.w3.org/2000/svg">
<g clip-path="url(#clip0_1091_612)">
<rect width="34.7435" height="43.5" rx="1.12987" fill="#ED3844"/>
<path d="M5.53529 20.8472L5.53009 21.6574C5.37082 21.6886 5.21327 21.718 5.05746 21.7457C4.90165 21.7734 4.7441 21.7977 4.58483 21.8184C4.41862 21.8392 4.25242 21.8583 4.08622 21.8756C3.92002 21.8929 3.75382 21.9015 3.58762 21.9015C3.53914 21.9015 3.46816 21.8998 3.37467 21.8963C3.28118 21.8929 3.18423 21.886 3.08382 21.8756C2.98341 21.8652 2.88819 21.8531 2.79816 21.8392C2.70814 21.8219 2.64235 21.8011 2.6008 21.7769C2.56271 21.7526 2.52635 21.7249 2.49173 21.6938C2.4571 21.6592 2.42594 21.6245 2.39824 21.5899C2.32553 21.4999 2.26493 21.4012 2.21646 21.2939C2.16798 21.1865 2.1299 21.0757 2.1022 20.9615C2.0745 20.8472 2.05372 20.7312 2.03987 20.6135C2.02948 20.4958 2.02429 20.3798 2.02429 20.2655C2.02429 20.127 2.03121 19.9833 2.04506 19.8344C2.06238 19.6855 2.08835 19.5384 2.12297 19.3929C2.1576 19.2475 2.20261 19.1073 2.25801 18.9722C2.31687 18.8372 2.38785 18.7126 2.47095 18.5983C2.49519 18.5671 2.52635 18.529 2.56444 18.484C2.60253 18.439 2.64062 18.4061 2.67871 18.3853C2.77219 18.3334 2.87607 18.2901 2.99033 18.2555C3.10806 18.2209 3.22925 18.1949 3.3539 18.1776C3.47855 18.1568 3.60147 18.143 3.72266 18.136C3.84731 18.1257 3.96157 18.1205 4.06545 18.1205C4.26281 18.1205 4.46017 18.1326 4.65754 18.1568C4.8549 18.1776 5.04707 18.2157 5.23405 18.2711C5.22712 18.3646 5.22193 18.4598 5.21847 18.5567C5.215 18.6502 5.21327 18.7437 5.21327 18.8372C5.21327 19.0623 5.21847 19.2891 5.22885 19.5176C5.07304 19.4587 4.9103 19.4172 4.74064 19.3929C4.57098 19.3652 4.40304 19.3514 4.23684 19.3514C4.20222 19.3514 4.15201 19.3548 4.08622 19.3618C4.02043 19.3652 3.94599 19.3722 3.86289 19.3825C3.77979 19.3895 3.69323 19.3999 3.6032 19.4137C3.51664 19.4276 3.43527 19.4449 3.35909 19.4657C3.28292 19.4864 3.2154 19.5107 3.15653 19.5384C3.10113 19.5661 3.06478 19.5955 3.04746 19.6267C3.03361 19.6544 3.0215 19.6942 3.01111 19.7461C3.00418 19.7946 2.99726 19.8465 2.99033 19.9019C2.98687 19.9573 2.98341 20.011 2.97995 20.0629C2.97995 20.1149 2.97995 20.1564 2.97995 20.1876C2.97995 20.2187 2.98341 20.2811 2.99033 20.3746C2.99726 20.4681 3.00591 20.5685 3.0163 20.6758C3.02669 20.7797 3.03881 20.8749 3.05266 20.9615C3.06997 21.048 3.08728 21.0982 3.1046 21.1121C3.12191 21.1225 3.14961 21.1294 3.1877 21.1329C3.22925 21.1329 3.25695 21.1329 3.2708 21.1329C3.44046 21.1329 3.62224 21.1242 3.81614 21.1069C4.01005 21.0896 4.20568 21.0671 4.40304 21.0394C4.60387 21.0082 4.80123 20.977 4.99513 20.9459C5.18904 20.9113 5.36909 20.8784 5.53529 20.8472ZM9.44621 20.0525C9.44621 20.1807 9.43755 20.3105 9.42024 20.4421C9.40639 20.5702 9.39081 20.6983 9.3735 20.8264C9.3458 21.0515 9.31463 21.2748 9.28001 21.4964C9.24538 21.7146 9.21076 21.9362 9.17613 22.1612C9.00647 22.1647 8.84027 22.1716 8.67753 22.182C8.51479 22.1924 8.35032 22.2045 8.18412 22.2184C8.18412 21.9656 8.18412 21.7163 8.18412 21.4705C8.18412 21.2212 8.17893 20.9718 8.16854 20.7225C8.16854 20.6741 8.16681 20.6117 8.16334 20.5356C8.16334 20.4594 8.15642 20.3971 8.14257 20.3486C8.12179 20.269 8.09582 20.2153 8.06466 20.1876C8.0335 20.1564 7.97291 20.1408 7.88288 20.1408C7.82055 20.1408 7.74784 20.1478 7.66474 20.1616C7.58164 20.1755 7.49681 20.1928 7.41025 20.2136C7.32368 20.2343 7.24058 20.2586 7.16094 20.2863C7.08477 20.3105 7.02071 20.3365 6.96877 20.3642C6.94107 20.6446 6.90645 20.9234 6.8649 21.2004C6.82681 21.4774 6.80257 21.7578 6.79218 22.0418L6.05986 22.0054C6.02177 21.3822 5.98542 20.7624 5.95079 20.146C5.91617 19.5262 5.88327 18.9047 5.85211 18.2815L6.99474 18.2088C6.98782 18.4373 6.98089 18.6658 6.97397 18.8943C6.96704 19.1194 6.96012 19.3462 6.95319 19.5747C7.01898 19.5193 7.09342 19.4778 7.17652 19.4501C7.25963 19.4189 7.34446 19.3981 7.43102 19.3877C7.52105 19.3774 7.61107 19.3722 7.7011 19.3722C7.79112 19.3722 7.87769 19.3722 7.96079 19.3722C8.08544 19.3722 8.22567 19.3774 8.38148 19.3877C8.54076 19.3947 8.69138 19.4189 8.83334 19.4605C8.97877 19.4985 9.10688 19.5609 9.21768 19.6474C9.32848 19.734 9.40293 19.8552 9.44102 20.011C9.44448 20.0179 9.44621 20.0248 9.44621 20.0318C9.44621 20.0387 9.44621 20.0456 9.44621 20.0525ZM13.5805 19.7357C13.5805 20.0266 13.5701 20.3157 13.5493 20.6031C13.5285 20.8905 13.5078 21.1779 13.487 21.4653C13.0992 21.4999 12.7131 21.5293 12.3288 21.5536C11.9444 21.5778 11.5583 21.5899 11.1705 21.5899C11.1359 21.5899 11.0719 21.5899 10.9784 21.5899C10.8849 21.5864 10.7862 21.583 10.6823 21.5795C10.5785 21.5726 10.4798 21.5657 10.3863 21.5587C10.2928 21.5484 10.2305 21.5345 10.1993 21.5172C10.085 21.4549 10.0054 21.377 9.96039 21.2835C9.91538 21.1865 9.89287 21.0775 9.89287 20.9563C9.89287 20.9147 9.89461 20.8593 9.89807 20.7901C9.90153 20.7208 9.90846 20.6481 9.91884 20.5719C9.92923 20.4958 9.94308 20.4248 9.96039 20.359C9.97771 20.2932 9.99848 20.2447 10.0227 20.2136C10.0539 20.172 10.1249 20.1374 10.2357 20.1097C10.3465 20.0785 10.478 20.0543 10.6304 20.037C10.7862 20.0197 10.9524 20.0058 11.129 19.9954C11.309 19.985 11.4804 19.9781 11.6432 19.9746C11.8059 19.9677 11.9513 19.9643 12.0795 19.9643C12.2076 19.9643 12.2993 19.9643 12.3547 19.9643C12.3651 19.8881 12.3703 19.8136 12.3703 19.7409C12.3703 19.734 12.3703 19.7167 12.3703 19.689C12.3703 19.6578 12.3686 19.6388 12.3651 19.6319C12.3547 19.6111 12.3218 19.5938 12.2664 19.5799C12.211 19.5661 12.1418 19.5557 12.0587 19.5488C11.979 19.5418 11.8908 19.5366 11.7938 19.5332C11.7003 19.5262 11.6086 19.5228 11.5185 19.5228C11.4285 19.5228 11.3489 19.5228 11.2796 19.5228C11.2104 19.5228 11.1602 19.5228 11.129 19.5228C10.9109 19.5228 10.6927 19.528 10.4746 19.5384C10.2564 19.5453 10.0383 19.5522 9.82016 19.5591C9.83401 19.4276 9.8444 19.2943 9.85132 19.1592C9.86171 19.0242 9.86344 18.8909 9.85652 18.7593C10.1093 18.7143 10.362 18.6831 10.6148 18.6658C10.871 18.645 11.129 18.6346 11.3887 18.6346C11.4822 18.6346 11.5843 18.6364 11.6951 18.6398C11.8059 18.6398 11.9167 18.6433 12.0275 18.6502C12.1383 18.6537 12.2474 18.6606 12.3547 18.671C12.4655 18.6814 12.5677 18.6952 12.6612 18.7126C12.7581 18.7299 12.8533 18.761 12.9468 18.806C13.0438 18.8511 13.1338 18.9065 13.2169 18.9722C13.3 19.038 13.3727 19.1142 13.435 19.2008C13.4974 19.2839 13.5424 19.3739 13.5701 19.4708C13.5735 19.4812 13.5753 19.4985 13.5753 19.5228C13.5787 19.547 13.5805 19.5747 13.5805 19.6059C13.5805 19.6336 13.5805 19.6596 13.5805 19.6838C13.5805 19.708 13.5805 19.7253 13.5805 19.7357ZM12.4222 20.9563V20.2915C12.3218 20.288 12.2214 20.2863 12.121 20.2863C12.0206 20.2828 11.9202 20.2811 11.8198 20.2811C11.799 20.2811 11.7401 20.2828 11.6432 20.2863C11.5497 20.2863 11.4475 20.2897 11.3367 20.2967C11.2294 20.3036 11.1307 20.3122 11.0407 20.3226C10.9507 20.333 10.8987 20.3486 10.8849 20.3694C10.8676 20.3971 10.8555 20.4265 10.8485 20.4577C10.8451 20.4854 10.8433 20.5148 10.8433 20.546C10.8433 20.5702 10.8451 20.6031 10.8485 20.6446C10.852 20.6862 10.8572 20.7295 10.8641 20.7745C10.8745 20.8195 10.8849 20.861 10.8953 20.8991C10.9057 20.9372 10.9195 20.9649 10.9368 20.9822C10.9507 20.9995 10.9732 21.0134 11.0043 21.0238C11.039 21.0307 11.0753 21.0376 11.1134 21.0446C11.1515 21.048 11.1896 21.0515 11.2277 21.0549C11.2658 21.0549 11.2952 21.0549 11.316 21.0549C11.3991 21.0549 11.4874 21.0515 11.5809 21.0446C11.6778 21.0376 11.7748 21.0307 11.8717 21.0238C11.9721 21.0134 12.0691 21.003 12.1626 20.9926C12.256 20.9788 12.3426 20.9667 12.4222 20.9563ZM17.1434 19.8863V20.0058L16.141 20.0525C16.1514 20.0075 16.1566 19.9556 16.1566 19.8967C16.1566 19.8102 16.1445 19.7548 16.1202 19.7305C16.096 19.7028 16.0423 19.689 15.9592 19.689C15.8415 19.689 15.7116 19.7098 15.5697 19.7513C15.4277 19.7929 15.3031 19.8327 15.1957 19.8708C15.1784 20.0231 15.1646 20.1755 15.1542 20.3278C15.1438 20.4802 15.1386 20.6325 15.1386 20.7849C15.1386 20.9545 15.1386 21.1242 15.1386 21.2939C15.1421 21.4601 15.1455 21.628 15.149 21.7977L14.2557 21.8548C14.2383 21.6332 14.221 21.4133 14.2037 21.1952C14.1864 20.9736 14.1708 20.752 14.157 20.5304C14.1397 20.2361 14.1172 19.9435 14.0895 19.6526C14.0618 19.3583 14.0341 19.0623 14.0064 18.7645C14.2037 18.7783 14.3993 18.7991 14.5933 18.8268C14.7906 18.8511 14.988 18.8822 15.1853 18.9203L15.1594 19.3566C15.2632 19.2735 15.3619 19.2025 15.4554 19.1436C15.5524 19.0813 15.6493 19.0294 15.7463 18.9878C15.8467 18.9463 15.9523 18.9168 16.0631 18.8995C16.1739 18.8788 16.2968 18.8684 16.4319 18.8684C16.5219 18.8684 16.6154 18.8788 16.7123 18.8995C16.8093 18.9168 16.8924 18.9601 16.9616 19.0294C16.9962 19.0675 17.0257 19.1246 17.0499 19.2008C17.0741 19.2769 17.0932 19.3583 17.107 19.4449C17.1209 19.528 17.1296 19.6111 17.133 19.6942C17.1399 19.7738 17.1434 19.8379 17.1434 19.8863ZM21.0907 19.7357C21.0907 20.0266 21.0803 20.3157 21.0595 20.6031C21.0387 20.8905 21.018 21.1779 20.9972 21.4653C20.6094 21.4999 20.2233 21.5293 19.839 21.5536C19.4546 21.5778 19.0686 21.5899 18.6808 21.5899C18.6461 21.5899 18.5821 21.5899 18.4886 21.5899C18.3951 21.5864 18.2964 21.583 18.1925 21.5795C18.0887 21.5726 17.99 21.5657 17.8965 21.5587C17.803 21.5484 17.7407 21.5345 17.7095 21.5172C17.5953 21.4549 17.5156 21.377 17.4706 21.2835C17.4256 21.1865 17.4031 21.0775 17.4031 20.9563C17.4031 20.9147 17.4048 20.8593 17.4083 20.7901C17.4117 20.7208 17.4187 20.6481 17.4291 20.5719C17.4394 20.4958 17.4533 20.4248 17.4706 20.359C17.4879 20.2932 17.5087 20.2447 17.5329 20.2136C17.5641 20.172 17.6351 20.1374 17.7459 20.1097C17.8567 20.0785 17.9883 20.0543 18.1406 20.037C18.2964 20.0197 18.4626 20.0058 18.6392 19.9954C18.8193 19.985 18.9907 19.9781 19.1534 19.9746C19.3161 19.9677 19.4616 19.9643 19.5897 19.9643C19.7178 19.9643 19.8095 19.9643 19.8649 19.9643C19.8753 19.8881 19.8805 19.8136 19.8805 19.7409C19.8805 19.734 19.8805 19.7167 19.8805 19.689C19.8805 19.6578 19.8788 19.6388 19.8753 19.6319C19.8649 19.6111 19.832 19.5938 19.7766 19.5799C19.7212 19.5661 19.652 19.5557 19.5689 19.5488C19.4893 19.5418 19.401 19.5366 19.304 19.5332C19.2105 19.5262 19.1188 19.5228 19.0287 19.5228C18.9387 19.5228 18.8591 19.5228 18.7898 19.5228C18.7206 19.5228 18.6704 19.5228 18.6392 19.5228C18.4211 19.5228 18.2029 19.528 17.9848 19.5384C17.7667 19.5453 17.5485 19.5522 17.3304 19.5591C17.3442 19.4276 17.3546 19.2943 17.3615 19.1592C17.3719 19.0242 17.3737 18.8909 17.3667 18.7593C17.6195 18.7143 17.8723 18.6831 18.125 18.6658C18.3813 18.645 18.6392 18.6346 18.8989 18.6346C18.9924 18.6346 19.0945 18.6364 19.2053 18.6398C19.3161 18.6398 19.4269 18.6433 19.5377 18.6502C19.6485 18.6537 19.7576 18.6606 19.8649 18.671C19.9757 18.6814 20.0779 18.6952 20.1714 18.7126C20.2683 18.7299 20.3635 18.761 20.457 18.806C20.554 18.8511 20.644 18.9065 20.7271 18.9722C20.8102 19.038 20.8829 19.1142 20.9453 19.2008C21.0076 19.2839 21.0526 19.3739 21.0803 19.4708C21.0838 19.4812 21.0855 19.4985 21.0855 19.5228C21.0889 19.547 21.0907 19.5747 21.0907 19.6059C21.0907 19.6336 21.0907 19.6596 21.0907 19.6838C21.0907 19.708 21.0907 19.7253 21.0907 19.7357ZM19.9325 20.9563V20.2915C19.832 20.288 19.7316 20.2863 19.6312 20.2863C19.5308 20.2828 19.4304 20.2811 19.33 20.2811C19.3092 20.2811 19.2503 20.2828 19.1534 20.2863C19.0599 20.2863 18.9578 20.2897 18.847 20.2967C18.7396 20.3036 18.6409 20.3122 18.5509 20.3226C18.4609 20.333 18.409 20.3486 18.3951 20.3694C18.3778 20.3971 18.3657 20.4265 18.3587 20.4577C18.3553 20.4854 18.3536 20.5148 18.3536 20.546C18.3536 20.5702 18.3553 20.6031 18.3587 20.6446C18.3622 20.6862 18.3674 20.7295 18.3743 20.7745C18.3847 20.8195 18.3951 20.861 18.4055 20.8991C18.4159 20.9372 18.4297 20.9649 18.447 20.9822C18.4609 20.9995 18.4834 21.0134 18.5146 21.0238C18.5492 21.0307 18.5855 21.0376 18.6236 21.0446C18.6617 21.048 18.6998 21.0515 18.7379 21.0549C18.776 21.0549 18.8054 21.0549 18.8262 21.0549C18.9093 21.0549 18.9976 21.0515 19.0911 21.0446C19.188 21.0376 19.285 21.0307 19.3819 21.0238C19.4823 21.0134 19.5793 21.003 19.6728 20.9926C19.7663 20.9788 19.8528 20.9667 19.9325 20.9563ZM25.2094 19.1904C25.2094 19.3358 25.2094 19.4795 25.2094 19.6215C25.2094 19.7634 25.2059 19.9071 25.199 20.0525C25.192 20.3711 25.1782 20.6879 25.1574 21.003C25.1366 21.3146 25.1141 21.628 25.0899 21.9431C24.7748 21.9639 24.4632 21.9812 24.155 21.995C23.8468 22.0089 23.5352 22.0158 23.2201 22.0158C23.1786 22.0158 23.1128 22.0158 23.0228 22.0158C22.9327 22.0123 22.8358 22.0089 22.7319 22.0054C22.6315 22.0019 22.5363 21.9968 22.4463 21.9898C22.3562 21.9794 22.2904 21.9656 22.2489 21.9483C21.9823 21.8513 21.7832 21.7215 21.6516 21.5587C21.5235 21.3925 21.4594 21.164 21.4594 20.8732V20.7901C21.4664 20.662 21.4768 20.5477 21.4906 20.4473C21.5045 20.3469 21.5287 20.2551 21.5633 20.172C21.6014 20.0889 21.6516 20.0127 21.7139 19.9435C21.7797 19.8708 21.868 19.7981 21.9788 19.7253C22.055 19.6734 22.145 19.6301 22.2489 19.5955C22.3528 19.5609 22.4601 19.5314 22.5709 19.5072C22.6852 19.483 22.796 19.4657 22.9033 19.4553C23.0141 19.4449 23.1145 19.4397 23.2045 19.4397C23.3708 19.4397 23.5352 19.4518 23.698 19.476C23.8642 19.5003 24.0286 19.5366 24.1914 19.5851C24.1741 19.3566 24.1585 19.1315 24.1446 18.9099C24.1342 18.6849 24.1169 18.4598 24.0927 18.2347C24.2797 18.2174 24.4649 18.1984 24.6484 18.1776C24.8319 18.1568 25.0154 18.136 25.199 18.1153C25.2024 18.2953 25.2042 18.4754 25.2042 18.6554C25.2076 18.832 25.2094 19.0103 25.2094 19.1904ZM24.4147 20.7589C24.4147 20.6793 24.4147 20.5996 24.4147 20.52C24.4147 20.4404 24.413 20.3607 24.4095 20.2811C24.1914 20.2707 23.9732 20.2655 23.7551 20.2655C23.7239 20.2655 23.6581 20.2672 23.5577 20.2707C23.4573 20.2707 23.35 20.2741 23.2357 20.2811C23.1249 20.2845 23.021 20.2932 22.9241 20.307C22.8271 20.3174 22.7648 20.3313 22.7371 20.3486C22.6852 20.3867 22.6523 20.4404 22.6384 20.5096C22.628 20.5789 22.6228 20.6429 22.6228 20.7018C22.6228 20.7295 22.6246 20.7676 22.628 20.816C22.6315 20.861 22.6367 20.9095 22.6436 20.9615C22.654 21.0099 22.6661 21.0567 22.68 21.1017C22.6938 21.1432 22.7094 21.1744 22.7267 21.1952C22.7371 21.2056 22.7544 21.2142 22.7787 21.2212C22.8064 21.2281 22.8358 21.2333 22.867 21.2367C22.8981 21.2402 22.9275 21.2419 22.9552 21.2419C22.9864 21.2419 23.0106 21.2419 23.028 21.2419C23.2253 21.2419 23.421 21.2333 23.6149 21.216C23.8088 21.1986 24.0044 21.1761 24.2018 21.1484C24.2295 21.1415 24.2624 21.138 24.3004 21.138C24.3385 21.1346 24.3732 21.1277 24.4043 21.1173V21.1069C24.4043 21.1034 24.406 21.1 24.4095 21.0965C24.4164 21.0411 24.4182 20.9857 24.4147 20.9303C24.4147 20.8749 24.4147 20.8178 24.4147 20.7589ZM29.3021 20.1512C28.8485 20.1755 28.3966 20.1962 27.9465 20.2136C27.4963 20.2274 27.0445 20.243 26.5909 20.2603C26.5874 20.2741 26.5857 20.288 26.5857 20.3019C26.5857 20.3157 26.5857 20.3296 26.5857 20.3434C26.5857 20.4611 26.6117 20.5512 26.6636 20.6135C26.719 20.6758 26.7865 20.7208 26.8662 20.7485C26.9458 20.7728 27.0341 20.7866 27.1311 20.7901C27.228 20.7935 27.318 20.7953 27.4011 20.7953C27.6331 20.7953 27.8651 20.7883 28.0971 20.7745C28.3291 20.7572 28.5628 20.7399 28.7983 20.7225L28.8398 21.5484C28.6113 21.5587 28.3828 21.5674 28.1542 21.5743C27.9292 21.5813 27.7024 21.5847 27.4738 21.5847C27.4254 21.5847 27.3353 21.5847 27.2038 21.5847C27.0757 21.5813 26.9371 21.5761 26.7883 21.5691C26.6428 21.5587 26.5061 21.5466 26.378 21.5328C26.2498 21.5189 26.165 21.4999 26.1235 21.4756C26.0161 21.4133 25.9313 21.3337 25.869 21.2367C25.8101 21.1398 25.7634 21.0342 25.7287 20.9199C25.6976 20.8056 25.6751 20.6897 25.6612 20.5719C25.6508 20.4507 25.6439 20.3347 25.6404 20.2239C25.637 20.2066 25.6352 20.1893 25.6352 20.172C25.6387 20.1512 25.6404 20.1322 25.6404 20.1149C25.6404 19.9314 25.6595 19.7617 25.6976 19.6059C25.7391 19.4466 25.8136 19.2925 25.9209 19.1436C25.9936 19.0398 26.101 18.9532 26.2429 18.8839C26.3849 18.8147 26.539 18.761 26.7052 18.7229C26.8714 18.6814 27.0376 18.6537 27.2038 18.6398C27.37 18.6225 27.5137 18.6139 27.6348 18.6139C27.7422 18.6139 27.8738 18.6243 28.0296 18.645C28.1854 18.6623 28.3395 18.6935 28.4918 18.7385C28.6476 18.7835 28.7879 18.8424 28.9125 18.9151C29.0372 18.9844 29.122 19.0709 29.167 19.1748C29.1739 19.1956 29.1809 19.2319 29.1878 19.2839C29.1982 19.3323 29.2086 19.3895 29.219 19.4553C29.2293 19.5176 29.238 19.5851 29.2449 19.6578C29.2553 19.7305 29.264 19.7998 29.2709 19.8656C29.2778 19.9314 29.283 19.9902 29.2865 20.0422C29.2934 20.0941 29.2986 20.1305 29.3021 20.1512ZM28.5957 19.7721C28.5749 19.6197 28.5351 19.5003 28.4762 19.4137C28.4208 19.3237 28.3499 19.2579 28.2633 19.2163C28.1802 19.1713 28.0832 19.1436 27.9724 19.1332C27.8651 19.1194 27.7491 19.1125 27.6245 19.1125C27.5829 19.1125 27.531 19.1142 27.4686 19.1177C27.4063 19.1177 27.344 19.1229 27.2817 19.1332C27.2193 19.1402 27.1605 19.1523 27.1051 19.1696C27.0497 19.1869 27.0064 19.2112 26.9752 19.2423C26.951 19.2631 26.9302 19.2925 26.9129 19.3306C26.8991 19.3652 26.8869 19.4033 26.8766 19.4449C26.8662 19.4864 26.8575 19.528 26.8506 19.5695C26.8471 19.6076 26.8454 19.6405 26.8454 19.6682C26.8454 19.7236 26.8506 19.7773 26.861 19.8292L28.5957 19.7721ZM32.5845 18.4736L32.5534 19.1488C32.446 19.1419 32.3387 19.1367 32.2313 19.1332C32.124 19.1298 32.0167 19.1281 31.9093 19.1281C31.8643 19.1281 31.8003 19.1298 31.7172 19.1332C31.6341 19.1332 31.5406 19.135 31.4367 19.1384C31.3363 19.1419 31.2324 19.1471 31.1251 19.154C31.0177 19.1609 30.9191 19.1679 30.829 19.1748C30.739 19.1817 30.6628 19.1904 30.6005 19.2008C30.5382 19.2112 30.5001 19.2215 30.4862 19.2319C30.4412 19.2769 30.4187 19.3289 30.4187 19.3877C30.4187 19.4258 30.4291 19.457 30.4499 19.4812C30.4568 19.4916 30.4949 19.5003 30.5641 19.5072C30.6334 19.5141 30.7182 19.5211 30.8186 19.528C30.9191 19.5314 31.0281 19.5349 31.1458 19.5384C31.267 19.5384 31.3813 19.5401 31.4886 19.5436C31.5994 19.5436 31.6964 19.5453 31.7795 19.5488C31.8661 19.5522 31.9266 19.5557 31.9613 19.5591C32.0928 19.5765 32.1967 19.6145 32.2729 19.6734C32.3525 19.7323 32.4131 19.8067 32.4547 19.8967C32.4962 19.9833 32.5222 20.082 32.5326 20.1928C32.5464 20.3036 32.5534 20.4161 32.5534 20.5304C32.5534 20.5858 32.5482 20.6516 32.5378 20.7277C32.5309 20.8039 32.5187 20.8801 32.5014 20.9563C32.4841 21.0324 32.4581 21.1034 32.4235 21.1692C32.3924 21.235 32.3543 21.2869 32.3093 21.325C32.2573 21.3666 32.1725 21.4012 32.0548 21.4289C31.9405 21.4566 31.8158 21.4791 31.6808 21.4964C31.5492 21.5137 31.4211 21.5259 31.2965 21.5328C31.1718 21.5397 31.0766 21.5432 31.0108 21.5432C30.7823 21.5432 30.5538 21.531 30.3252 21.5068C30.0967 21.4791 29.8699 21.4497 29.6448 21.4185V20.4265C29.863 20.4715 30.0811 20.4975 30.2993 20.5044C30.5209 20.5113 30.7425 20.5235 30.9641 20.5408C31.0091 20.5442 31.0766 20.5477 31.1666 20.5512C31.2601 20.5512 31.3536 20.5494 31.4471 20.546C31.5406 20.539 31.6254 20.5269 31.7016 20.5096C31.7778 20.4923 31.8245 20.4681 31.8418 20.4369C31.8487 20.4265 31.8522 20.4144 31.8522 20.4005C31.8522 20.3867 31.8522 20.3746 31.8522 20.3642C31.8522 20.3365 31.8487 20.3019 31.8418 20.2603C31.8384 20.2153 31.828 20.1807 31.8107 20.1564C31.8072 20.153 31.7951 20.1512 31.7743 20.1512C31.7535 20.1478 31.7414 20.146 31.7379 20.146C31.544 20.1356 31.3501 20.1305 31.1562 20.1305C30.9623 20.127 30.7667 20.1166 30.5693 20.0993C30.4897 20.0924 30.4083 20.0854 30.3252 20.0785C30.2456 20.0681 30.166 20.0543 30.0863 20.037C30.0205 20.0231 29.9599 20.0075 29.9045 19.9902C29.8526 19.9729 29.8059 19.9504 29.7643 19.9227C29.7262 19.895 29.6933 19.8604 29.6656 19.8188C29.6379 19.7738 29.6189 19.715 29.6085 19.6422C29.6016 19.618 29.5981 19.5955 29.5981 19.5747C29.5981 19.5505 29.5981 19.5245 29.5981 19.4968C29.5981 19.4345 29.6016 19.3635 29.6085 19.2839C29.6154 19.2042 29.6275 19.1246 29.6448 19.045C29.6656 18.9653 29.6899 18.8909 29.7176 18.8216C29.7487 18.7489 29.7885 18.69 29.837 18.645C29.8682 18.6139 29.9236 18.5879 30.0032 18.5671C30.0829 18.5464 30.1746 18.529 30.2785 18.5152C30.3824 18.4979 30.4932 18.484 30.6109 18.4736C30.7286 18.4632 30.8411 18.4563 30.9485 18.4529C31.0593 18.4459 31.158 18.4425 31.2445 18.4425C31.3346 18.439 31.4021 18.4373 31.4471 18.4373C31.641 18.4373 31.8314 18.4407 32.0184 18.4477C32.2088 18.4546 32.3975 18.4632 32.5845 18.4736Z" fill="#E8E6E3"/>
</g>
<defs>
<clipPath id="clip0_1091_612">
<rect width="34.7435" height="43.5" rx="1.12987" fill="white"/>
</clipPath>
</defs>
</svg>
