<svg width="35" height="44" viewBox="0 0 35 44" fill="none" xmlns="http://www.w3.org/2000/svg">
<rect width="34.7435" height="43.5" rx="1.12987" fill="#5A4447"/>
<path d="M1.50995 6.61523C1.49866 6.61523 1.49301 6.60959 1.49301 6.59829L1.49979 4.26962C1.49979 4.26058 1.5043 4.25607 1.51334 4.25607L2.1472 4.25268C2.27149 4.25042 2.38447 4.27979 2.48616 4.34081C2.59011 4.40182 2.67259 4.4843 2.7336 4.58825C2.79462 4.68994 2.82512 4.80292 2.82512 4.92721V5.90003C2.82512 6.03109 2.79349 6.15086 2.73021 6.25933C2.66694 6.36553 2.5822 6.45027 2.47599 6.51355C2.36979 6.57682 2.25002 6.60959 2.11669 6.61184L1.50995 6.61523ZM1.90654 6.19831H2.11669C2.2003 6.19831 2.27036 6.16894 2.32685 6.11018C2.3856 6.05143 2.41498 5.98138 2.41498 5.90003V4.92382C2.41498 4.85151 2.38786 4.78936 2.33363 4.73739C2.28166 4.68316 2.21951 4.65717 2.1472 4.65943L1.90993 4.66282L1.90654 6.19831ZM3.10876 6.61523C3.09747 6.61523 3.09182 6.60959 3.09182 6.59829L3.09521 4.26962C3.09521 4.26058 3.09973 4.25607 3.10876 4.25607H3.4884C3.49744 4.25607 3.50196 4.26058 3.50196 4.26962L3.50535 6.59829C3.50535 6.60959 3.50083 6.61523 3.49179 6.61523H3.10876ZM3.83401 6.61523C3.81593 6.61523 3.80689 6.60733 3.80689 6.59151L3.8035 4.28318C3.8035 4.2651 3.81254 4.25607 3.83062 4.25607H4.13568L4.70853 5.59157L4.69158 4.28318C4.69158 4.2651 4.70175 4.25607 4.72209 4.25607H5.05766C5.07122 4.25607 5.078 4.2651 5.078 4.28318L5.08139 6.5949C5.08139 6.60846 5.07574 6.61523 5.06444 6.61523H4.76615L4.17975 5.36786L4.20348 6.58812C4.20348 6.6062 4.19331 6.61523 4.17297 6.61523H3.83401ZM5.40634 6.61523C5.38826 6.61523 5.37922 6.60733 5.37922 6.59151L5.37583 4.28318C5.37583 4.2651 5.38487 4.25607 5.40295 4.25607H5.70801L6.28086 5.59157L6.26391 4.28318C6.26391 4.2651 6.27408 4.25607 6.29442 4.25607H6.62999C6.64355 4.25607 6.65032 4.2651 6.65032 4.28318L6.65371 6.5949C6.65371 6.60846 6.64807 6.61523 6.63677 6.61523H6.33848L5.75208 5.36786L5.77581 6.58812C5.77581 6.6062 5.76564 6.61523 5.7453 6.61523H5.40634ZM6.96172 6.61523C6.95268 6.61523 6.94816 6.60959 6.94816 6.59829L6.95155 4.26962C6.95155 4.26058 6.95607 4.25607 6.96511 4.25607H8.05317C8.06221 4.25607 8.06673 4.26171 8.06673 4.27301V4.65265C8.06673 4.66169 8.06221 4.66621 8.05317 4.66621H7.3583V5.19499H8.05317C8.06221 5.19499 8.06673 5.19951 8.06673 5.20855L8.07012 5.59157C8.07012 5.60061 8.0656 5.60513 8.05656 5.60513H7.3583V6.19831H8.05656C8.0656 6.19831 8.07012 6.20396 8.07012 6.21526V6.60168C8.07012 6.61071 8.0656 6.61523 8.05656 6.61523H6.96172ZM8.38509 6.61523C8.37605 6.61523 8.37153 6.60959 8.37153 6.59829L8.37831 4.26962C8.37831 4.26058 8.38283 4.25607 8.39187 4.25607H9.07657C9.1986 4.25607 9.31045 4.28657 9.41214 4.34758C9.51609 4.40634 9.59857 4.48656 9.65958 4.58825C9.7206 4.68768 9.7511 4.80066 9.7511 4.92721C9.7511 5.01082 9.73867 5.08652 9.71382 5.15431C9.68896 5.21984 9.65958 5.27634 9.62569 5.32379C9.59179 5.36899 9.56129 5.40288 9.53417 5.42548C9.65619 5.56107 9.71721 5.72038 9.71721 5.90342L9.7206 6.59829C9.7206 6.60959 9.71495 6.61523 9.70365 6.61523H9.32062C9.31158 6.61523 9.30706 6.61184 9.30706 6.60507V5.90342C9.30706 5.82207 9.27769 5.75201 9.21893 5.69326C9.16244 5.63225 9.09239 5.60174 9.00878 5.60174H8.78506L8.78167 6.59829C8.78167 6.60959 8.77716 6.61523 8.76812 6.61523H8.38509ZM8.78506 5.19499H9.07657C9.14662 5.19499 9.20877 5.169 9.263 5.11703C9.31723 5.06505 9.34435 5.00178 9.34435 4.92721C9.34435 4.8549 9.31723 4.79275 9.263 4.74078C9.21103 4.68881 9.14888 4.66282 9.07657 4.66282H8.78506V5.19499ZM10.8489 6.61523C10.8398 6.61523 10.8353 6.60959 10.8353 6.59829V4.66621H10.3947C10.3834 4.66621 10.3777 4.66056 10.3777 4.64926L10.3811 4.26962C10.3811 4.26058 10.3856 4.25607 10.3947 4.25607H11.6827C11.694 4.25607 11.6997 4.26058 11.6997 4.26962V4.64926C11.6997 4.66056 11.6951 4.66621 11.6861 4.66621H11.2421L11.2454 6.59829C11.2454 6.60959 11.2409 6.61523 11.2319 6.61523H10.8489ZM11.5962 6.59829L12.0166 4.26962C12.0188 4.26058 12.0245 4.25607 12.0335 4.25607H12.525C12.534 4.25607 12.5397 4.26058 12.5419 4.26962L12.9453 6.59829C12.9476 6.60959 12.943 6.61523 12.9317 6.61523H12.5555C12.5465 6.61523 12.5408 6.60959 12.5386 6.59829L12.5013 6.35084H12.0403L12.003 6.59829C12.0007 6.60959 11.9951 6.61523 11.986 6.61523H11.6098C11.6008 6.61523 11.5962 6.60959 11.5962 6.59829ZM12.1081 5.98816H12.4335L12.2945 5.03568L12.2742 4.91026L12.2606 5.03568L12.1081 5.98816ZM13.1716 6.61523C13.1626 6.61523 13.158 6.60959 13.158 6.59829L13.1648 4.26962C13.1648 4.26058 13.1693 4.25607 13.1784 4.25607H13.8292C13.958 4.25607 14.0732 4.2877 14.1749 4.35097C14.2766 4.41199 14.3568 4.49334 14.4156 4.59503C14.4743 4.69671 14.5037 4.80744 14.5037 4.92721C14.5037 5.02438 14.4811 5.11477 14.4359 5.19838C14.393 5.28199 14.341 5.34978 14.28 5.40175C14.3455 5.46729 14.3964 5.54299 14.4325 5.62886C14.4687 5.71473 14.4868 5.80512 14.4868 5.90003C14.4868 6.03109 14.4551 6.15086 14.3919 6.25933C14.3286 6.36779 14.2427 6.45479 14.1342 6.52033C14.028 6.5836 13.9094 6.61523 13.7783 6.61523H13.1716ZM13.5716 5.1916H13.8292C13.9083 5.1916 13.9715 5.16448 14.019 5.11025C14.0687 5.05375 14.0936 4.99274 14.0936 4.92721C14.0936 4.8549 14.0676 4.79275 14.0156 4.74078C13.9636 4.68655 13.9015 4.65943 13.8292 4.65943H13.5716V5.1916ZM13.5682 6.2017H13.7783C13.8597 6.2017 13.9297 6.17233 13.9885 6.11357C14.0472 6.05256 14.0766 5.98138 14.0766 5.90003C14.0766 5.81868 14.0472 5.74862 13.9885 5.68987C13.9297 5.63112 13.8597 5.60174 13.7783 5.60174H13.5716L13.5682 6.2017ZM14.7439 6.61523C14.7349 6.61523 14.7304 6.60959 14.7304 6.59829L14.7338 4.27301C14.7338 4.26171 14.7394 4.25607 14.7507 4.25607H15.1269C15.1382 4.25607 15.1439 4.26171 15.1439 4.27301L15.1405 6.19831H15.8388C15.8501 6.19831 15.8557 6.20396 15.8557 6.21526V6.59829C15.8557 6.60959 15.8501 6.61523 15.8388 6.61523H14.7439ZM16.0912 6.61523C16.0821 6.61523 16.0776 6.60959 16.0776 6.59829L16.081 4.26962C16.081 4.26058 16.0855 4.25607 16.0945 4.25607H17.1826C17.1917 4.25607 17.1962 4.26171 17.1962 4.27301V4.65265C17.1962 4.66169 17.1917 4.66621 17.1826 4.66621H16.4877V5.19499H17.1826C17.1917 5.19499 17.1962 5.19951 17.1962 5.20855L17.1996 5.59157C17.1996 5.60061 17.195 5.60513 17.186 5.60513H16.4877V6.19831H17.186C17.195 6.19831 17.1996 6.20396 17.1996 6.21526V6.60168C17.1996 6.61071 17.195 6.61523 17.186 6.61523H16.0912ZM2.11669 10.6491C1.99241 10.6491 1.87942 10.6186 1.77773 10.5576C1.67831 10.4943 1.59921 10.4107 1.54046 10.3068C1.48171 10.2028 1.45233 10.0865 1.45233 9.95765L1.45572 8.90009C1.45572 8.77581 1.48397 8.66282 1.54046 8.56113C1.59921 8.45718 1.67831 8.3747 1.77773 8.31369C1.87942 8.25042 1.99241 8.21878 2.11669 8.21878C2.24098 8.21878 2.35284 8.24929 2.45227 8.3103C2.55169 8.37131 2.63079 8.45379 2.68954 8.55774C2.74829 8.65943 2.77767 8.77355 2.77767 8.90009V9.05601C2.77767 9.06505 2.77315 9.06957 2.76411 9.06957H2.38447C2.37543 9.06957 2.37092 9.06505 2.37092 9.05601V8.90009C2.37092 8.82552 2.34606 8.76112 2.29634 8.70688C2.24889 8.65265 2.18901 8.62553 2.11669 8.62553C2.03534 8.62553 1.9732 8.65378 1.93027 8.71027C1.88733 8.76451 1.86586 8.82778 1.86586 8.90009V9.95765C1.86586 10.0413 1.88959 10.1091 1.93705 10.161C1.98676 10.213 2.04664 10.239 2.11669 10.239C2.18901 10.239 2.24889 10.2107 2.29634 10.1542C2.34606 10.0955 2.37092 10.03 2.37092 9.95765V9.80173C2.37092 9.79269 2.37543 9.78817 2.38447 9.78817H2.7675C2.77654 9.78817 2.78106 9.79269 2.78106 9.80173V9.95765C2.78106 10.0865 2.75055 10.2028 2.68954 10.3068C2.63079 10.4107 2.55169 10.4943 2.45227 10.5576C2.35284 10.6186 2.24098 10.6491 2.11669 10.6491ZM3.656 10.6491C3.53398 10.6491 3.42212 10.6186 3.32043 10.5576C3.221 10.4943 3.14078 10.4119 3.07977 10.3102C3.01875 10.2062 2.98825 10.0921 2.98825 9.96782L2.99164 8.89331C2.99164 8.76903 3.02101 8.65604 3.07977 8.55435C3.14078 8.45266 3.22213 8.37131 3.32382 8.3103C3.42551 8.24929 3.53624 8.21878 3.656 8.21878C3.77803 8.21878 3.88875 8.24929 3.98818 8.3103C4.08761 8.37131 4.1667 8.45266 4.22546 8.55435C4.28647 8.65604 4.31698 8.76903 4.31698 8.89331L4.32037 9.96782C4.32037 10.0921 4.28986 10.2062 4.22885 10.3102C4.17009 10.4119 4.08987 10.4943 3.98818 10.5576C3.88875 10.6186 3.77803 10.6491 3.656 10.6491ZM3.656 10.239C3.72379 10.239 3.78255 10.2119 3.83226 10.1576C3.88424 10.1011 3.91022 10.0379 3.91022 9.96782L3.90683 8.89331C3.90683 8.81874 3.88311 8.75547 3.83565 8.70349C3.7882 8.65152 3.72831 8.62553 3.656 8.62553C3.58595 8.62553 3.52607 8.65152 3.47635 8.70349C3.42664 8.75321 3.40178 8.81648 3.40178 8.89331V9.96782C3.40178 10.0424 3.42664 10.1068 3.47635 10.161C3.52607 10.213 3.58595 10.239 3.656 10.239ZM4.60859 10.6152C4.59051 10.6152 4.58147 10.6073 4.58147 10.5915L4.57808 8.28318C4.57808 8.2651 4.58712 8.25607 4.6052 8.25607H4.91026L5.48311 9.59157L5.46616 8.28318C5.46616 8.2651 5.47633 8.25607 5.49667 8.25607H5.83224C5.8458 8.25607 5.85257 8.2651 5.85257 8.28318L5.85596 10.5949C5.85596 10.6085 5.85032 10.6152 5.83902 10.6152H5.54073L4.95433 9.36786L4.97806 10.5881C4.97806 10.6062 4.96789 10.6152 4.94755 10.6152H4.60859ZM6.53005 10.6152C6.52101 10.6152 6.51536 10.6096 6.5131 10.5983L6.04533 8.26962C6.04307 8.26058 6.04759 8.25607 6.05889 8.25607H6.44192C6.45096 8.25607 6.45661 8.26058 6.45886 8.26962L6.73681 9.82207L7.00798 8.26962C7.01024 8.26058 7.01589 8.25607 7.02493 8.25607H7.40457C7.41586 8.25607 7.42038 8.26058 7.41812 8.26962L6.95714 10.5983C6.95488 10.6096 6.94923 10.6152 6.94019 10.6152H6.53005ZM7.63037 10.6152C7.62133 10.6152 7.61681 10.6096 7.61681 10.5983L7.6202 8.26962C7.6202 8.26058 7.62472 8.25607 7.63376 8.25607H8.72183C8.73087 8.25607 8.73539 8.26171 8.73539 8.27301V8.65265C8.73539 8.66169 8.73087 8.66621 8.72183 8.66621H8.02696V9.19499H8.72183C8.73087 9.19499 8.73539 9.19951 8.73539 9.20855L8.73878 9.59157C8.73878 9.60061 8.73426 9.60513 8.72522 9.60513H8.02696V10.1983H8.72522C8.73426 10.1983 8.73878 10.204 8.73878 10.2153V10.6017C8.73878 10.6107 8.73426 10.6152 8.72522 10.6152H7.63037ZM9.05374 10.6152C9.0447 10.6152 9.04019 10.6096 9.04019 10.5983L9.04696 8.26962C9.04696 8.26058 9.05148 8.25607 9.06052 8.25607H9.74522C9.86725 8.25607 9.97911 8.28657 10.0808 8.34758C10.1847 8.40634 10.2672 8.48656 10.3282 8.58825C10.3893 8.68768 10.4198 8.80066 10.4198 8.92721C10.4198 9.01082 10.4073 9.08652 10.3825 9.15431C10.3576 9.21984 10.3282 9.27634 10.2943 9.32379C10.2604 9.36899 10.2299 9.40288 10.2028 9.42548C10.3248 9.56107 10.3859 9.72038 10.3859 9.90342L10.3893 10.5983C10.3893 10.6096 10.3836 10.6152 10.3723 10.6152H9.98928C9.98024 10.6152 9.97572 10.6118 9.97572 10.6051V9.90342C9.97572 9.82207 9.94634 9.75201 9.88759 9.69326C9.83109 9.63225 9.76104 9.60174 9.67743 9.60174H9.45372L9.45033 10.5983C9.45033 10.6096 9.44581 10.6152 9.43677 10.6152H9.05374ZM9.45372 9.19499H9.74522C9.81528 9.19499 9.87742 9.169 9.93165 9.11703C9.98589 9.06505 10.013 9.00178 10.013 8.92721C10.013 8.8549 9.98589 8.79275 9.93165 8.74078C9.87968 8.68881 9.81754 8.66282 9.74522 8.66282H9.45372V9.19499ZM11.2417 10.6491C11.1197 10.6491 11.0078 10.6186 10.9061 10.5576C10.8067 10.4943 10.7265 10.4119 10.6655 10.3102C10.6067 10.2062 10.5773 10.0921 10.5773 9.96782V9.8119C10.5773 9.8006 10.583 9.79495 10.5943 9.79495H10.9739C10.983 9.79495 10.9875 9.8006 10.9875 9.8119V9.96782C10.9875 10.0424 11.0123 10.1068 11.0621 10.161C11.1118 10.213 11.1717 10.239 11.2417 10.239C11.3118 10.239 11.3716 10.2119 11.4214 10.1576C11.4711 10.1034 11.4959 10.0401 11.4959 9.96782C11.4959 9.88421 11.4417 9.8119 11.3332 9.75088C11.2971 9.73055 11.2406 9.69891 11.1638 9.65597C11.0869 9.61304 11.0146 9.57236 10.9468 9.53395C10.8225 9.46164 10.7299 9.37125 10.6689 9.26278C10.6101 9.15205 10.5807 9.02777 10.5807 8.88992C10.5807 8.76338 10.6112 8.65039 10.6723 8.55096C10.7333 8.44927 10.8135 8.36905 10.9129 8.3103C11.0146 8.25155 11.1242 8.22217 11.2417 8.22217C11.3615 8.22217 11.4711 8.25268 11.5705 8.31369C11.6722 8.37244 11.7524 8.45266 11.8112 8.55435C11.8722 8.65378 11.9027 8.76564 11.9027 8.88992V9.16787C11.9027 9.17691 11.8982 9.18143 11.8891 9.18143H11.5095C11.5005 9.18143 11.4959 9.17691 11.4959 9.16787L11.4925 8.88992C11.4925 8.81083 11.4677 8.74643 11.418 8.69671C11.3683 8.647 11.3095 8.62214 11.2417 8.62214C11.1717 8.62214 11.1118 8.64926 11.0621 8.70349C11.0123 8.75547 10.9875 8.81761 10.9875 8.88992C10.9875 8.96449 11.0033 9.02664 11.0349 9.07635C11.0666 9.12607 11.1242 9.17352 11.2078 9.21871C11.2191 9.22549 11.2406 9.23792 11.2722 9.256C11.3061 9.27182 11.3423 9.29103 11.3807 9.31362C11.4191 9.33396 11.453 9.35204 11.4824 9.36786C11.514 9.38368 11.5332 9.39384 11.54 9.39836C11.653 9.46164 11.7422 9.5396 11.8078 9.63225C11.8733 9.72264 11.9061 9.83449 11.9061 9.96782C11.9061 10.0966 11.8756 10.213 11.8146 10.3169C11.7558 10.4186 11.6756 10.5 11.5739 10.561C11.4745 10.6198 11.3637 10.6491 11.2417 10.6491ZM11.9604 10.5983L12.3807 8.26962C12.3829 8.26058 12.3886 8.25607 12.3976 8.25607H12.8891C12.8982 8.25607 12.9038 8.26058 12.9061 8.26962L13.3094 10.5983C13.3117 10.6096 13.3072 10.6152 13.2959 10.6152H12.9196C12.9106 10.6152 12.9049 10.6096 12.9027 10.5983L12.8654 10.3508H12.4044L12.3671 10.5983C12.3649 10.6096 12.3592 10.6152 12.3502 10.6152H11.9739C11.9649 10.6152 11.9604 10.6096 11.9604 10.5983ZM12.4722 9.98816H12.7976L12.6586 9.03568L12.6383 8.91026L12.6247 9.03568L12.4722 9.98816ZM13.6989 10.6152C13.6899 10.6152 13.6854 10.6096 13.6854 10.5983V8.66621H13.2447C13.2334 8.66621 13.2278 8.66056 13.2278 8.64926L13.2311 8.26962C13.2311 8.26058 13.2357 8.25607 13.2447 8.25607H14.5328C14.5441 8.25607 14.5497 8.26058 14.5497 8.26962V8.64926C14.5497 8.66056 14.5452 8.66621 14.5361 8.66621H14.0921L14.0955 10.5983C14.0955 10.6096 14.091 10.6152 14.0819 10.6152H13.6989ZM14.7341 10.6152C14.7228 10.6152 14.7171 10.6096 14.7171 10.5983L14.7205 8.26962C14.7205 8.26058 14.725 8.25607 14.7341 8.25607H15.1137C15.1227 8.25607 15.1273 8.26058 15.1273 8.26962L15.1307 10.5983C15.1307 10.6096 15.1261 10.6152 15.1171 10.6152H14.7341ZM16.0559 10.6491C15.9339 10.6491 15.822 10.6186 15.7203 10.5576C15.6209 10.4943 15.5407 10.4119 15.4797 10.3102C15.4186 10.2062 15.3881 10.0921 15.3881 9.96782L15.3915 8.89331C15.3915 8.76903 15.4209 8.65604 15.4797 8.55435C15.5407 8.45266 15.622 8.37131 15.7237 8.3103C15.8254 8.24929 15.9361 8.21878 16.0559 8.21878C16.1779 8.21878 16.2886 8.24929 16.3881 8.3103C16.4875 8.37131 16.5666 8.45266 16.6253 8.55435C16.6864 8.65604 16.7169 8.76903 16.7169 8.89331L16.7202 9.96782C16.7202 10.0921 16.6897 10.2062 16.6287 10.3102C16.57 10.4119 16.4898 10.4943 16.3881 10.5576C16.2886 10.6186 16.1779 10.6491 16.0559 10.6491ZM16.0559 10.239C16.1237 10.239 16.1824 10.2119 16.2321 10.1576C16.2841 10.1011 16.3101 10.0379 16.3101 9.96782L16.3067 8.89331C16.3067 8.81874 16.283 8.75547 16.2355 8.70349C16.1881 8.65152 16.1282 8.62553 16.0559 8.62553C15.9858 8.62553 15.9259 8.65152 15.8762 8.70349C15.8265 8.75321 15.8017 8.81648 15.8017 8.89331V9.96782C15.8017 10.0424 15.8265 10.1068 15.8762 10.161C15.9259 10.213 15.9858 10.239 16.0559 10.239ZM17.0085 10.6152C16.9904 10.6152 16.9814 10.6073 16.9814 10.5915L16.978 8.28318C16.978 8.2651 16.987 8.25607 17.0051 8.25607H17.3101L17.883 9.59157L17.866 8.28318C17.866 8.2651 17.8762 8.25607 17.8965 8.25607H18.2321C18.2457 8.25607 18.2525 8.2651 18.2525 8.28318L18.2558 10.5949C18.2558 10.6085 18.2502 10.6152 18.2389 10.6152H17.9406L17.3542 9.36786L17.3779 10.5881C17.3779 10.6062 17.3678 10.6152 17.3474 10.6152H17.0085Z" fill="#E8E6E3"/>
<path d="M28.8399 36.3555L26.7129 38.9218L27.6166 38.8824L28.0845 39.579L29.1896 36.5854L28.8399 36.3555Z" fill="#D1CDC7"/>
<path d="M29.1095 36.3555L31.2364 38.9218L30.3327 38.8824L29.8648 39.579L28.7598 36.5854L29.1095 36.3555Z" fill="#D1CDC7"/>
<path d="M28.8205 35.7353C28.8205 35.7353 27.5313 34.0289 26.5359 34.5177C25.409 35.0712 26.6646 36.1333 26.6646 36.1333C26.6646 36.1333 26.2297 36.8749 26.5668 37.332C27.0838 38.0328 28.7613 36.5856 28.7613 36.5856L28.8205 35.7353Z" fill="white"/>
<path d="M29.0273 35.7568C29.0273 35.7568 30.3087 34.0875 31.2684 34.6026C32.3549 35.1857 31.1168 36.2124 31.1168 36.2124C31.1168 36.2124 31.5275 36.9647 31.1922 37.412C30.6781 38.0979 29.228 36.5779 29.228 36.5779L29.0273 35.7568Z" fill="white"/>
<path d="M28.7825 36.0721L27.5762 35.8468C27.5762 35.8468 28.2657 35.5671 28.7825 36.0721Z" fill="#E8E6E3"/>
<path d="M28.7875 36.2358L27.6074 36.5698C27.6074 36.5698 28.0953 36.0142 28.7875 36.2358Z" fill="#E8E6E3"/>
<path d="M29.2188 36.0721L30.4251 35.8468C30.4251 35.8468 29.7356 35.5671 29.2188 36.0721Z" fill="#E8E6E3"/>
<path d="M29.2129 36.2358L30.393 36.5698C30.393 36.5698 29.9051 36.0142 29.2129 36.2358Z" fill="#E8E6E3"/>
<path d="M28.964 36.6016L28.0898 38.1166C28.0898 38.1166 28.2958 37.2092 28.964 36.6016Z" fill="#E8E6E3"/>
<path d="M29.0039 36.6016L29.878 38.1166C29.878 38.1166 29.672 37.2092 29.0039 36.6016Z" fill="#E8E6E3"/>
<path d="M29.2985 35.6445H28.707V36.6844H29.2985V35.6445Z" fill="#E8E6E3"/>
</svg>
