<svg width="27" height="33" viewBox="0 0 27 33" fill="none" xmlns="http://www.w3.org/2000/svg">
<rect width="26.0576" height="32.625" rx="0.847403" fill="#5A4447"/>
<path d="M1.13198 4.71094C1.1235 4.71094 1.11927 4.7067 1.11927 4.69823L1.12435 2.95173C1.12435 2.94495 1.12774 2.94156 1.13452 2.94156L1.60991 2.93902C1.70313 2.93732 1.78787 2.95936 1.86413 3.00512C1.94209 3.05088 2.00395 3.11274 2.04971 3.1907C2.09547 3.26696 2.11835 3.3517 2.11835 3.44492V4.17453C2.11835 4.27283 2.09463 4.36266 2.04717 4.44401C1.99972 4.52366 1.93616 4.58722 1.85651 4.63467C1.77685 4.68213 1.68703 4.7067 1.58703 4.7084L1.13198 4.71094ZM1.42942 4.39825H1.58703C1.64974 4.39825 1.70228 4.37621 1.74465 4.33215C1.78871 4.28808 1.81075 4.23554 1.81075 4.17453V3.44238C1.81075 3.38814 1.79041 3.34153 1.74973 3.30255C1.71075 3.26188 1.66415 3.24239 1.60991 3.24408L1.43196 3.24663L1.42942 4.39825ZM2.33109 4.71094C2.32261 4.71094 2.31837 4.7067 2.31837 4.69823L2.32092 2.95173C2.32092 2.94495 2.32431 2.94156 2.33109 2.94156H2.61581C2.62259 2.94156 2.62598 2.94495 2.62598 2.95173L2.62852 4.69823C2.62852 4.7067 2.62513 4.71094 2.61835 4.71094H2.33109ZM2.87502 4.71094C2.86146 4.71094 2.85468 4.70501 2.85468 4.69314L2.85214 2.9619C2.85214 2.94834 2.85892 2.94156 2.87248 2.94156H3.10127L3.53091 3.94319L3.5182 2.9619C3.5182 2.94834 3.52582 2.94156 3.54108 2.94156H3.79276C3.80292 2.94156 3.80801 2.94834 3.80801 2.9619L3.81055 4.69568C3.81055 4.70585 3.80631 4.71094 3.79784 4.71094H3.57413L3.13432 3.7754L3.15212 4.6906C3.15212 4.70416 3.14449 4.71094 3.12924 4.71094H2.87502ZM4.05427 4.71094C4.04071 4.71094 4.03393 4.70501 4.03393 4.69314L4.03139 2.9619C4.03139 2.94834 4.03816 2.94156 4.05172 2.94156H4.28052L4.71015 3.94319L4.69744 2.9619C4.69744 2.94834 4.70507 2.94156 4.72032 2.94156H4.972C4.98217 2.94156 4.98726 2.94834 4.98726 2.9619L4.9898 4.69568C4.9898 4.70585 4.98556 4.71094 4.97709 4.71094H4.75337L4.31357 3.7754L4.33137 4.6906C4.33137 4.70416 4.32374 4.71094 4.30849 4.71094H4.05427ZM5.2208 4.71094C5.21402 4.71094 5.21063 4.7067 5.21063 4.69823L5.21317 2.95173C5.21317 2.94495 5.21656 2.94156 5.22334 2.94156H6.03939C6.04617 2.94156 6.04956 2.9458 6.04956 2.95427V3.239C6.04956 3.24578 6.04617 3.24917 6.03939 3.24917H5.51824V3.64575H6.03939C6.04617 3.64575 6.04956 3.64914 6.04956 3.65592L6.0521 3.94319C6.0521 3.94997 6.04871 3.95336 6.04193 3.95336H5.51824V4.39825H6.04193C6.04871 4.39825 6.0521 4.40248 6.0521 4.41096V4.70077C6.0521 4.70755 6.04871 4.71094 6.04193 4.71094H5.2208ZM6.28833 4.71094C6.28155 4.71094 6.27816 4.7067 6.27816 4.69823L6.28324 2.95173C6.28324 2.94495 6.28663 2.94156 6.29341 2.94156H6.80694C6.89846 2.94156 6.98235 2.96444 7.05862 3.0102C7.13658 3.05427 7.19844 3.11443 7.2442 3.1907C7.28996 3.26527 7.31284 3.35001 7.31284 3.44492C7.31284 3.50763 7.30352 3.5644 7.28487 3.61525C7.26623 3.6644 7.2442 3.70677 7.21878 3.74236C7.19336 3.77625 7.17048 3.80167 7.15014 3.81862C7.24166 3.92031 7.28742 4.03979 7.28742 4.17707L7.28996 4.69823C7.28996 4.7067 7.28572 4.71094 7.27725 4.71094H6.98998C6.9832 4.71094 6.97981 4.7084 6.97981 4.70331V4.17707C6.97981 4.11606 6.95778 4.06352 6.91371 4.01946C6.87134 3.9737 6.8188 3.95082 6.7561 3.95082H6.58831L6.58577 4.69823C6.58577 4.7067 6.58238 4.71094 6.5756 4.71094H6.28833ZM6.58831 3.64575H6.80694C6.85948 3.64575 6.90609 3.62626 6.94676 3.58728C6.98744 3.5483 7.00777 3.50085 7.00777 3.44492C7.00777 3.39068 6.98744 3.34408 6.94676 3.3051C6.90778 3.26612 6.86117 3.24663 6.80694 3.24663H6.58831V3.64575ZM8.13616 4.71094C8.12938 4.71094 8.12599 4.7067 8.12599 4.69823V3.24917H7.7955C7.78703 3.24917 7.78279 3.24493 7.78279 3.23646L7.78533 2.95173C7.78533 2.94495 7.78872 2.94156 7.7955 2.94156H8.76154C8.77001 2.94156 8.77425 2.94495 8.77425 2.95173V3.23646C8.77425 3.24493 8.77086 3.24917 8.76408 3.24917H8.43105L8.4336 4.69823C8.4336 4.7067 8.43021 4.71094 8.42343 4.71094H8.13616ZM8.69669 4.69823L9.01193 2.95173C9.01362 2.94495 9.01786 2.94156 9.02464 2.94156H9.39326C9.40004 2.94156 9.40428 2.94495 9.40597 2.95173L9.70849 4.69823C9.71019 4.7067 9.7068 4.71094 9.69832 4.71094H9.41614C9.40936 4.71094 9.40512 4.7067 9.40343 4.69823L9.37546 4.51265H9.02972L9.00176 4.69823C9.00006 4.7067 8.99583 4.71094 8.98905 4.71094H8.70686C8.70008 4.71094 8.69669 4.7067 8.69669 4.69823ZM9.08057 4.24063H9.32462L9.22039 3.52627L9.20514 3.43221L9.19497 3.52627L9.08057 4.24063ZM9.87821 4.71094C9.87143 4.71094 9.86804 4.7067 9.86804 4.69823L9.87312 2.95173C9.87312 2.94495 9.87651 2.94156 9.88329 2.94156H10.3714C10.468 2.94156 10.5544 2.96529 10.6307 3.01274C10.707 3.0585 10.7671 3.11952 10.8112 3.19578C10.8553 3.27205 10.8773 3.35509 10.8773 3.44492C10.8773 3.51779 10.8603 3.58559 10.8264 3.64829C10.7942 3.711 10.7553 3.76185 10.7095 3.80083C10.7587 3.84998 10.7968 3.90675 10.8239 3.97116C10.851 4.03556 10.8646 4.10335 10.8646 4.17453C10.8646 4.27283 10.8409 4.36266 10.7934 4.44401C10.7459 4.52536 10.6815 4.59061 10.6002 4.63976C10.5205 4.68721 10.4316 4.71094 10.3333 4.71094H9.87821ZM10.1782 3.64321H10.3714C10.4307 3.64321 10.4782 3.62287 10.5138 3.5822C10.551 3.53983 10.5697 3.49407 10.5697 3.44492C10.5697 3.39068 10.5502 3.34408 10.5112 3.3051C10.4722 3.26442 10.4256 3.24408 10.3714 3.24408H10.1782V3.64321ZM10.1756 4.40079H10.3333C10.3943 4.40079 10.4468 4.37876 10.4909 4.33469C10.5349 4.28893 10.557 4.23554 10.557 4.17453C10.557 4.11352 10.5349 4.06098 10.4909 4.01691C10.4468 3.97285 10.3943 3.95082 10.3333 3.95082H10.1782L10.1756 4.40079ZM11.0575 4.71094C11.0507 4.71094 11.0473 4.7067 11.0473 4.69823L11.0498 2.95427C11.0498 2.9458 11.0541 2.94156 11.0625 2.94156H11.3447C11.3532 2.94156 11.3574 2.9458 11.3574 2.95427L11.3549 4.39825H11.8786C11.8871 4.39825 11.8913 4.40248 11.8913 4.41096V4.69823C11.8913 4.7067 11.8871 4.71094 11.8786 4.71094H11.0575ZM12.0679 4.71094C12.0611 4.71094 12.0577 4.7067 12.0577 4.69823L12.0603 2.95173C12.0603 2.94495 12.0636 2.94156 12.0704 2.94156H12.8865C12.8933 2.94156 12.8966 2.9458 12.8966 2.95427V3.239C12.8966 3.24578 12.8933 3.24917 12.8865 3.24917H12.3653V3.64575H12.8865C12.8933 3.64575 12.8966 3.64914 12.8966 3.65592L12.8992 3.94319C12.8992 3.94997 12.8958 3.95336 12.889 3.95336H12.3653V4.39825H12.889C12.8958 4.39825 12.8992 4.40248 12.8992 4.41096V4.70077C12.8992 4.70755 12.8958 4.71094 12.889 4.71094H12.0679ZM1.58703 7.73636C1.49382 7.73636 1.40908 7.71348 1.33281 7.66772C1.25824 7.62027 1.19892 7.55756 1.15486 7.4796C1.11079 7.40164 1.08876 7.31435 1.08876 7.21775L1.0913 6.42458C1.0913 6.33137 1.11249 6.24663 1.15486 6.17036C1.19892 6.0924 1.25824 6.03054 1.33281 5.98478C1.40908 5.93732 1.49382 5.9136 1.58703 5.9136C1.68025 5.9136 1.76414 5.93648 1.83871 5.98224C1.91328 6.028 1.9726 6.08986 2.01667 6.16782C2.06073 6.24408 2.08276 6.32967 2.08276 6.42458V6.54152C2.08276 6.5483 2.07937 6.55169 2.07259 6.55169H1.78787C1.78109 6.55169 1.7777 6.5483 1.7777 6.54152V6.42458C1.7777 6.36865 1.75906 6.32035 1.72177 6.27967C1.68618 6.239 1.64127 6.21866 1.58703 6.21866C1.52602 6.21866 1.47941 6.23985 1.44721 6.28222C1.41501 6.32289 1.39891 6.37035 1.39891 6.42458V7.21775C1.39891 7.28046 1.4167 7.3313 1.4523 7.37028C1.48958 7.40926 1.53449 7.42875 1.58703 7.42875C1.64127 7.42875 1.68618 7.40757 1.72177 7.3652C1.75906 7.32113 1.7777 7.27198 1.7777 7.21775V7.10081C1.7777 7.09403 1.78109 7.09064 1.78787 7.09064H2.07514C2.08192 7.09064 2.08531 7.09403 2.08531 7.10081V7.21775C2.08531 7.31435 2.06243 7.40164 2.01667 7.4796C1.9726 7.55756 1.91328 7.62027 1.83871 7.66772C1.76414 7.71348 1.68025 7.73636 1.58703 7.73636ZM2.74151 7.73636C2.64999 7.73636 2.5661 7.71348 2.48983 7.66772C2.41526 7.62027 2.3551 7.55841 2.30934 7.48214C2.26358 7.40418 2.2407 7.31859 2.2407 7.22538L2.24324 6.4195C2.24324 6.32628 2.26527 6.24154 2.30934 6.16528C2.3551 6.08901 2.41611 6.028 2.49238 5.98224C2.56864 5.93648 2.65169 5.9136 2.74151 5.9136C2.83303 5.9136 2.91608 5.93648 2.99065 5.98224C3.06522 6.028 3.12454 6.08901 3.1686 6.16528C3.21436 6.24154 3.23724 6.32628 3.23724 6.4195L3.23979 7.22538C3.23979 7.31859 3.21691 7.40418 3.17115 7.48214C3.12708 7.55841 3.06692 7.62027 2.99065 7.66772C2.91608 7.71348 2.83303 7.73636 2.74151 7.73636ZM2.74151 7.42875C2.79236 7.42875 2.83642 7.40841 2.87371 7.36774C2.91269 7.32537 2.93218 7.27791 2.93218 7.22538L2.92964 6.4195C2.92964 6.36357 2.91184 6.31611 2.87625 6.27713C2.84066 6.23815 2.79575 6.21866 2.74151 6.21866C2.68897 6.21866 2.64406 6.23815 2.60678 6.27713C2.56949 6.31442 2.55085 6.36187 2.55085 6.4195V7.22538C2.55085 7.2813 2.56949 7.32961 2.60678 7.37028C2.64406 7.40926 2.68897 7.42875 2.74151 7.42875ZM3.45595 7.71094C3.44239 7.71094 3.43561 7.70501 3.43561 7.69314L3.43307 5.9619C3.43307 5.94834 3.43985 5.94156 3.45341 5.94156H3.68221L4.11184 6.94319L4.09913 5.9619C4.09913 5.94834 4.10676 5.94156 4.12201 5.94156H4.37369C4.38386 5.94156 4.38894 5.94834 4.38894 5.9619L4.39148 7.69568C4.39148 7.70585 4.38725 7.71094 4.37877 7.71094H4.15506L3.71526 6.7754L3.73305 7.6906C3.73305 7.70416 3.72543 7.71094 3.71017 7.71094H3.45595ZM4.89705 7.71094C4.89027 7.71094 4.88603 7.7067 4.88434 7.69823L4.53351 5.95173C4.53182 5.94495 4.53521 5.94156 4.54368 5.94156H4.83095C4.83773 5.94156 4.84197 5.94495 4.84366 5.95173L5.05212 7.11606L5.2555 5.95173C5.25719 5.94495 5.26143 5.94156 5.26821 5.94156H5.55294C5.56141 5.94156 5.5648 5.94495 5.56311 5.95173L5.21736 7.69823C5.21567 7.7067 5.21143 7.71094 5.20465 7.71094H4.89705ZM5.72229 7.71094C5.71551 7.71094 5.71212 7.7067 5.71212 7.69823L5.71466 5.95173C5.71466 5.94495 5.71805 5.94156 5.72483 5.94156H6.54088C6.54766 5.94156 6.55105 5.9458 6.55105 5.95427V6.239C6.55105 6.24578 6.54766 6.24917 6.54088 6.24917H6.01973V6.64575H6.54088C6.54766 6.64575 6.55105 6.64914 6.55105 6.65592L6.55359 6.94319C6.55359 6.94997 6.5502 6.95336 6.54342 6.95336H6.01973V7.39825H6.54342C6.5502 7.39825 6.55359 7.40248 6.55359 7.41096V7.70077C6.55359 7.70755 6.5502 7.71094 6.54342 7.71094H5.72229ZM6.78982 7.71094C6.78304 7.71094 6.77965 7.7067 6.77965 7.69823L6.78474 5.95173C6.78474 5.94495 6.78812 5.94156 6.7949 5.94156H7.30843C7.39995 5.94156 7.48384 5.96444 7.56011 6.0102C7.63807 6.05427 7.69993 6.11443 7.74569 6.1907C7.79145 6.26527 7.81433 6.35001 7.81433 6.44492C7.81433 6.50763 7.80501 6.5644 7.78636 6.61525C7.76772 6.6644 7.74569 6.70677 7.72027 6.74236C7.69485 6.77625 7.67197 6.80167 7.65163 6.81862C7.74315 6.92031 7.78891 7.03979 7.78891 7.17707L7.79145 7.69823C7.79145 7.7067 7.78721 7.71094 7.77874 7.71094H7.49147C7.48469 7.71094 7.4813 7.7084 7.4813 7.70331V7.17707C7.4813 7.11606 7.45927 7.06352 7.4152 7.01946C7.37283 6.9737 7.32029 6.95082 7.25759 6.95082H7.0898L7.08726 7.69823C7.08726 7.7067 7.08387 7.71094 7.07709 7.71094H6.78982ZM7.0898 6.64575H7.30843C7.36097 6.64575 7.40758 6.62626 7.44825 6.58728C7.48893 6.5483 7.50926 6.50085 7.50926 6.44492C7.50926 6.39068 7.48893 6.34408 7.44825 6.3051C7.40927 6.26612 7.36266 6.24663 7.30843 6.24663H7.0898V6.64575ZM8.43079 7.73636C8.33928 7.73636 8.25538 7.71348 8.17912 7.66772C8.10454 7.62027 8.04438 7.55841 7.99862 7.48214C7.95455 7.40418 7.93252 7.31859 7.93252 7.22538V7.10843C7.93252 7.09996 7.93676 7.09572 7.94523 7.09572H8.22996C8.23674 7.09572 8.24013 7.09996 8.24013 7.10843V7.22538C8.24013 7.2813 8.25877 7.32961 8.29606 7.37028C8.33334 7.40926 8.37826 7.42875 8.43079 7.42875C8.48333 7.42875 8.52825 7.40841 8.56553 7.36774C8.60282 7.32706 8.62146 7.27961 8.62146 7.22538C8.62146 7.16267 8.58079 7.10843 8.49943 7.06267C8.47232 7.04742 8.42995 7.02369 8.37232 6.99149C8.3147 6.95929 8.26047 6.92878 8.20962 6.89997C8.11641 6.84574 8.04692 6.77795 8.00116 6.6966C7.9571 6.61355 7.93506 6.52034 7.93506 6.41695C7.93506 6.32204 7.95794 6.2373 8.0037 6.16273C8.04946 6.08647 8.10963 6.0263 8.1842 5.98224C8.26047 5.93817 8.34266 5.91614 8.43079 5.91614C8.52062 5.91614 8.60282 5.93902 8.67739 5.98478C8.75366 6.02884 8.81382 6.08901 8.85789 6.16528C8.90365 6.23985 8.92653 6.32374 8.92653 6.41695V6.62541C8.92653 6.63219 8.92314 6.63558 8.91636 6.63558H8.63163C8.62485 6.63558 8.62146 6.63219 8.62146 6.62541L8.61892 6.41695C8.61892 6.35764 8.60028 6.30933 8.56299 6.27205C8.5257 6.23476 8.48164 6.21612 8.43079 6.21612C8.37826 6.21612 8.33334 6.23646 8.29606 6.27713C8.25877 6.31611 8.24013 6.36272 8.24013 6.41695C8.24013 6.47288 8.25199 6.51949 8.27572 6.55678C8.29945 6.59406 8.34266 6.62965 8.40537 6.66355C8.41385 6.66863 8.42995 6.67795 8.45367 6.69151C8.4791 6.70338 8.50621 6.71778 8.53503 6.73473C8.56384 6.74998 8.58926 6.76354 8.61129 6.7754C8.63502 6.78727 8.64942 6.7949 8.65451 6.79828C8.73925 6.84574 8.80619 6.90421 8.85534 6.9737C8.90449 7.04149 8.92907 7.12538 8.92907 7.22538C8.92907 7.32198 8.90619 7.40926 8.86043 7.48722C8.81636 7.56349 8.7562 7.6245 8.67993 7.67026C8.60536 7.71433 8.52231 7.73636 8.43079 7.73636ZM8.96978 7.69823L9.28502 5.95173C9.28671 5.94495 9.29095 5.94156 9.29773 5.94156H9.66635C9.67313 5.94156 9.67736 5.94495 9.67906 5.95173L9.98158 7.69823C9.98328 7.7067 9.97989 7.71094 9.97141 7.71094H9.68923C9.68245 7.71094 9.67821 7.7067 9.67652 7.69823L9.64855 7.51265H9.30281L9.27485 7.69823C9.27315 7.7067 9.26892 7.71094 9.26214 7.71094H8.97995C8.97317 7.71094 8.96978 7.7067 8.96978 7.69823ZM9.35366 7.24063H9.59771L9.49348 6.52627L9.47822 6.43221L9.46806 6.52627L9.35366 7.24063ZM10.2737 7.71094C10.2669 7.71094 10.2635 7.7067 10.2635 7.69823V6.24917H9.93304C9.92457 6.24917 9.92033 6.24493 9.92033 6.23646L9.92287 5.95173C9.92287 5.94495 9.92626 5.94156 9.93304 5.94156H10.8991C10.9076 5.94156 10.9118 5.94495 10.9118 5.95173V6.23646C10.9118 6.24493 10.9084 6.24917 10.9016 6.24917H10.5686L10.5711 7.69823C10.5711 7.7067 10.5677 7.71094 10.561 7.71094H10.2737ZM11.0501 7.71094C11.0416 7.71094 11.0374 7.7067 11.0374 7.69823L11.0399 5.95173C11.0399 5.94495 11.0433 5.94156 11.0501 5.94156H11.3348C11.3416 5.94156 11.345 5.94495 11.345 5.95173L11.3475 7.69823C11.3475 7.7067 11.3441 7.71094 11.3373 7.71094H11.0501ZM12.0414 7.73636C11.9499 7.73636 11.866 7.71348 11.7897 7.66772C11.7152 7.62027 11.655 7.55841 11.6092 7.48214C11.5635 7.40418 11.5406 7.31859 11.5406 7.22538L11.5432 6.4195C11.5432 6.32628 11.5652 6.24154 11.6092 6.16528C11.655 6.08901 11.716 6.028 11.7923 5.98224C11.8686 5.93648 11.9516 5.9136 12.0414 5.9136C12.1329 5.9136 12.216 5.93648 12.2906 5.98224C12.3651 6.028 12.4245 6.08901 12.4685 6.16528C12.5143 6.24154 12.5372 6.32628 12.5372 6.4195L12.5397 7.22538C12.5397 7.31859 12.5168 7.40418 12.4711 7.48214C12.427 7.55841 12.3668 7.62027 12.2906 7.66772C12.216 7.71348 12.1329 7.73636 12.0414 7.73636ZM12.0414 7.42875C12.0923 7.42875 12.1363 7.40841 12.1736 7.36774C12.2126 7.32537 12.2321 7.27791 12.2321 7.22538L12.2295 6.4195C12.2295 6.36357 12.2118 6.31611 12.1762 6.27713C12.1406 6.23815 12.0957 6.21866 12.0414 6.21866C11.9889 6.21866 11.944 6.23815 11.9067 6.27713C11.8694 6.31442 11.8508 6.36187 11.8508 6.4195V7.22538C11.8508 7.2813 11.8694 7.32961 11.9067 7.37028C11.944 7.40926 11.9889 7.42875 12.0414 7.42875ZM12.7559 7.71094C12.7423 7.71094 12.7355 7.70501 12.7355 7.69314L12.733 5.9619C12.733 5.94834 12.7398 5.94156 12.7533 5.94156H12.9821L13.4118 6.94319L13.399 5.9619C13.399 5.94834 13.4067 5.94156 13.4219 5.94156H13.6736C13.6838 5.94156 13.6889 5.94834 13.6889 5.9619L13.6914 7.69568C13.6914 7.70585 13.6872 7.71094 13.6787 7.71094H13.455L13.0152 6.7754L13.033 7.6906C13.033 7.70416 13.0253 7.71094 13.0101 7.71094H12.7559Z" fill="#E8E6E3"/>
<path d="M21.6304 27.2656L20.0352 29.1903L20.713 29.1608L21.0639 29.6833L21.8927 27.4381L21.6304 27.2656Z" fill="#D1CDC7"/>
<path d="M21.8326 27.2656L23.4278 29.1903L22.75 29.1608L22.3991 29.6833L21.5703 27.4381L21.8326 27.2656Z" fill="#D1CDC7"/>
<path d="M21.6144 26.8015C21.6144 26.8015 20.6475 25.5216 19.901 25.8883C19.0558 26.3034 19.9975 27.1 19.9975 27.1C19.9975 27.1 19.6713 27.6561 19.9241 27.999C20.3119 28.5246 21.57 27.4392 21.57 27.4392L21.6144 26.8015Z" fill="white"/>
<path d="M21.7695 26.8186C21.7695 26.8186 22.7305 25.5666 23.4503 25.9529C24.2652 26.3903 23.3366 27.1603 23.3366 27.1603C23.3366 27.1603 23.6447 27.7245 23.3932 28.06C23.0076 28.5744 21.92 27.4344 21.92 27.4344L21.7695 26.8186Z" fill="white"/>
<path d="M21.5864 27.055L20.6816 26.8861C20.6816 26.8861 21.1988 26.6763 21.5864 27.055Z" fill="#E8E6E3"/>
<path d="M21.5902 27.1759L20.7051 27.4264C20.7051 27.4264 21.071 27.0097 21.5902 27.1759Z" fill="#E8E6E3"/>
<path d="M21.9141 27.055L22.8188 26.8861C22.8188 26.8861 22.3017 26.6763 21.9141 27.055Z" fill="#E8E6E3"/>
<path d="M21.9102 27.1759L22.7952 27.4264C22.7952 27.4264 22.4293 27.0097 21.9102 27.1759Z" fill="#E8E6E3"/>
<path d="M21.722 27.4512L21.0664 28.5874C21.0664 28.5874 21.2209 27.9069 21.722 27.4512Z" fill="#E8E6E3"/>
<path d="M21.752 27.4512L22.4076 28.5874C22.4076 28.5874 22.2531 27.9069 21.752 27.4512Z" fill="#E8E6E3"/>
<path d="M21.9729 26.7344H21.5293V27.5143H21.9729V26.7344Z" fill="#E8E6E3"/>
</svg>
