<svg width="33" height="27" viewBox="0 0 33 27" fill="none" xmlns="http://www.w3.org/2000/svg">
<g clip-path="url(#clip0_1091_607)">
<rect y="26.0586" width="26.0576" height="32.625" rx="0.847403" transform="rotate(-90 0 26.0586)" fill="#EAE6E1"/>
<g filter="url(#filter0_n_1091_607)">
<rect y="0.00195312" width="32.625" height="26.0576" fill="#EAE6E1"/>
</g>
<path d="M8.14218 16.6339H8.21716L8.31199 16.759L8.32739 16.7803L8.44357 16.9347H8.3686L8.28369 16.821L8.2683 16.8007L8.14218 16.6339ZM8.15211 16.8752C8.08988 16.8752 8.0346 16.8596 7.98627 16.8285C7.93794 16.7974 7.90004 16.7534 7.87257 16.6964C7.84543 16.6395 7.83185 16.5726 7.83185 16.4958C7.83185 16.4187 7.84559 16.3517 7.87307 16.2947C7.90054 16.2375 7.93828 16.1933 7.98627 16.1622C8.0346 16.131 8.08988 16.1155 8.15211 16.1155C8.21434 16.1155 8.26946 16.131 8.31746 16.1622C8.36545 16.1933 8.40302 16.2375 8.43017 16.2947C8.45764 16.3517 8.47138 16.4187 8.47138 16.4958C8.47138 16.5726 8.45764 16.6395 8.43017 16.6964C8.40302 16.7534 8.36545 16.7974 8.31746 16.8285C8.26946 16.8596 8.21434 16.8752 8.15211 16.8752ZM8.15211 16.8121C8.20044 16.8121 8.2438 16.7995 8.2822 16.7744C8.3206 16.7492 8.35089 16.7131 8.37307 16.6661C8.39524 16.6188 8.40633 16.562 8.40633 16.4958C8.40633 16.4293 8.39524 16.3724 8.37307 16.325C8.35089 16.2777 8.3206 16.2414 8.2822 16.2163C8.2438 16.1911 8.20044 16.1785 8.15211 16.1785C8.10378 16.1785 8.06026 16.1911 8.02153 16.2163C7.98313 16.2414 7.95267 16.2777 7.93017 16.325C7.90799 16.3724 7.8969 16.4293 7.8969 16.4958C7.8969 16.5617 7.90799 16.6183 7.93017 16.6656C7.95234 16.713 7.98263 16.7492 8.02103 16.7744C8.05976 16.7995 8.10345 16.8121 8.15211 16.8121ZM8.94208 16.6537V16.3101H9.00614V16.8652H8.94208V16.7729H8.93712C8.92388 16.8013 8.90319 16.8252 8.87505 16.8444C8.84692 16.8632 8.81249 16.8725 8.77178 16.8722C8.73636 16.8722 8.70491 16.8646 8.67744 16.8493C8.65029 16.8338 8.62878 16.8109 8.61289 16.7808C8.59733 16.7504 8.58955 16.7133 8.58955 16.6696V16.3101H8.6536V16.6661C8.6536 16.7092 8.66635 16.7439 8.69183 16.7704C8.71765 16.7969 8.75042 16.81 8.79015 16.8096C8.8153 16.8096 8.83947 16.8037 8.86264 16.7917C8.88581 16.7798 8.90484 16.7623 8.91974 16.7391C8.93464 16.7159 8.94208 16.6875 8.94208 16.6537ZM9.3691 16.8772C9.31746 16.8772 9.2726 16.8651 9.23454 16.8409C9.19647 16.8164 9.16717 16.7826 9.14665 16.7396C9.12613 16.6966 9.11587 16.6471 9.11587 16.5912C9.11587 16.5352 9.12596 16.4856 9.14616 16.4422C9.16668 16.3988 9.19515 16.3647 9.23156 16.3399C9.26797 16.3151 9.31017 16.3027 9.35817 16.3027C9.38796 16.3027 9.41693 16.3083 9.44506 16.3196C9.4732 16.3305 9.49852 16.3472 9.52103 16.3697C9.54354 16.3922 9.56125 16.4208 9.57416 16.4556C9.58707 16.49 9.59352 16.5311 9.59352 16.5787V16.6075H9.16006V16.5509H9.55877L9.52947 16.5728C9.52947 16.5324 9.52252 16.4963 9.50862 16.4645C9.49505 16.4328 9.47552 16.4076 9.45003 16.3891C9.42454 16.3705 9.39392 16.3613 9.35817 16.3613C9.32275 16.3613 9.29164 16.3707 9.26482 16.3896C9.23801 16.4081 9.21716 16.4329 9.20226 16.464C9.1877 16.4948 9.18042 16.5286 9.18042 16.5653V16.5986C9.18042 16.643 9.18803 16.6817 9.20326 16.7148C9.21881 16.7476 9.24066 16.773 9.2688 16.7913C9.29726 16.8095 9.3307 16.8186 9.3691 16.8186C9.39525 16.8186 9.41825 16.8144 9.43811 16.8061C9.45797 16.7979 9.47469 16.7868 9.48826 16.7729C9.50183 16.7586 9.51209 16.7433 9.51905 16.7267L9.58012 16.7471C9.57151 16.7702 9.55761 16.7917 9.53841 16.8116C9.51954 16.8311 9.49571 16.847 9.46691 16.8593C9.43844 16.8712 9.40584 16.8772 9.3691 16.8772ZM10.0732 16.4328L10.0146 16.4486C10.006 16.4238 9.99157 16.4028 9.97138 16.3856C9.95152 16.368 9.92289 16.3593 9.88548 16.3593C9.84808 16.3593 9.81729 16.3684 9.79313 16.3866C9.76896 16.4045 9.75688 16.4275 9.75688 16.4556C9.75688 16.4791 9.76499 16.4985 9.78121 16.5137C9.79776 16.5286 9.82325 16.5403 9.85768 16.5489L9.94159 16.5693C9.98793 16.5809 10.0227 16.5989 10.0459 16.6234C10.0694 16.6476 10.0811 16.6782 10.0811 16.7153C10.0811 16.7464 10.0723 16.7742 10.0548 16.7987C10.0376 16.8232 10.0136 16.8424 9.9828 16.8563C9.95202 16.8702 9.91627 16.8772 9.87555 16.8772C9.82126 16.8772 9.77658 16.8649 9.74149 16.8404C9.7064 16.8156 9.68389 16.7802 9.67396 16.7342L9.73553 16.7193C9.74314 16.752 9.7587 16.7769 9.7822 16.7937C9.80571 16.8106 9.83649 16.8191 9.87456 16.8191C9.91693 16.8191 9.95102 16.8095 9.97684 16.7903C10.0027 16.7711 10.0156 16.7472 10.0156 16.7188C10.0156 16.6731 9.98528 16.6428 9.92471 16.6279L9.83434 16.606C9.78601 16.5945 9.75026 16.5763 9.72709 16.5514C9.70392 16.5266 9.69233 16.4957 9.69233 16.4586C9.69233 16.4281 9.70061 16.4011 9.71716 16.3776C9.73404 16.3541 9.75705 16.3358 9.78618 16.3225C9.81531 16.3093 9.84841 16.3027 9.88548 16.3027C9.93646 16.3027 9.97717 16.3144 10.0076 16.3379C10.0381 16.3611 10.0599 16.3927 10.0732 16.4328ZM10.4083 16.3101V16.3662H10.1437V16.3101H10.4083ZM10.2266 16.178H10.2906V16.7202C10.2906 16.7504 10.2981 16.773 10.313 16.7883C10.3279 16.8032 10.3486 16.8106 10.3751 16.8106C10.381 16.8106 10.387 16.8103 10.3929 16.8096C10.3992 16.8086 10.4058 16.8073 10.4128 16.8057L10.4267 16.8637C10.4191 16.8667 10.4103 16.869 10.4004 16.8707C10.3904 16.8724 10.3802 16.8732 10.3696 16.8732C10.3285 16.8732 10.2945 16.8606 10.2673 16.8354C10.2402 16.81 10.2266 16.7767 10.2266 16.7356V16.178ZM10.523 16.8652V16.3101H10.5871V16.8652H10.523ZM10.5553 16.2153C10.5421 16.2153 10.5306 16.2108 10.521 16.2019C10.5118 16.1926 10.5071 16.1815 10.5071 16.1686C10.5071 16.156 10.5118 16.1453 10.521 16.1363C10.5306 16.1274 10.5421 16.1229 10.5553 16.1229C10.5685 16.1229 10.5798 16.1274 10.5891 16.1363C10.5983 16.1453 10.603 16.156 10.603 16.1686C10.603 16.1815 10.5983 16.1926 10.5891 16.2019C10.5798 16.2108 10.5685 16.2153 10.5553 16.2153ZM10.9411 16.8772C10.8931 16.8772 10.8507 16.8651 10.814 16.8409C10.7772 16.8164 10.7484 16.7826 10.7276 16.7396C10.7071 16.6963 10.6968 16.6466 10.6968 16.5907C10.6968 16.5337 10.7071 16.4837 10.7276 16.4407C10.7484 16.3973 10.7772 16.3636 10.814 16.3394C10.8507 16.3149 10.8931 16.3027 10.9411 16.3027C10.9891 16.3027 11.0313 16.3149 11.0677 16.3394C11.1044 16.3636 11.1332 16.3973 11.1541 16.4407C11.175 16.4837 11.1854 16.5337 11.1854 16.5907C11.1854 16.6466 11.175 16.6963 11.1541 16.7396C11.1336 16.7826 11.1049 16.8164 11.0682 16.8409C11.0315 16.8651 10.9891 16.8772 10.9411 16.8772ZM10.9411 16.8186C10.9798 16.8186 11.0124 16.8083 11.0389 16.7878C11.0657 16.7669 11.0861 16.7391 11.1 16.7044C11.1139 16.6696 11.1208 16.6317 11.1208 16.5907C11.1208 16.5489 11.1139 16.5107 11.1 16.476C11.0861 16.4412 11.0657 16.4134 11.0389 16.3925C11.0121 16.3717 10.9795 16.3613 10.9411 16.3613C10.9027 16.3613 10.8701 16.3719 10.8433 16.393C10.8168 16.4139 10.7964 16.4417 10.7822 16.4765C10.7683 16.5109 10.7614 16.5489 10.7614 16.5907C10.7614 16.6317 10.7683 16.6696 10.7822 16.7044C10.7961 16.7391 10.8165 16.7669 10.8433 16.7878C10.8701 16.8083 10.9027 16.8186 10.9411 16.8186ZM11.3587 16.5187V16.8652H11.2946V16.3101H11.3567V16.398H11.3631C11.376 16.3692 11.3962 16.3462 11.4237 16.329C11.4512 16.3118 11.4853 16.3032 11.526 16.3032C11.5634 16.3032 11.5962 16.3109 11.6243 16.3265C11.6528 16.3421 11.675 16.3649 11.6908 16.395C11.7067 16.4251 11.7147 16.4622 11.7147 16.5062V16.8652H11.6506V16.5102C11.6506 16.4649 11.6379 16.4288 11.6124 16.402C11.5869 16.3752 11.5528 16.3618 11.5101 16.3618C11.481 16.3618 11.455 16.3682 11.4322 16.3811C11.4093 16.3937 11.3913 16.4117 11.378 16.4352C11.3651 16.4584 11.3587 16.4862 11.3587 16.5187ZM12.2251 16.4328L12.1665 16.4486C12.1579 16.4238 12.1435 16.4028 12.1233 16.3856C12.1035 16.368 12.0748 16.3593 12.0374 16.3593C12 16.3593 11.9692 16.3684 11.9451 16.3866C11.9209 16.4045 11.9088 16.4275 11.9088 16.4556C11.9088 16.4791 11.9169 16.4985 11.9331 16.5137C11.9497 16.5286 11.9752 16.5403 12.0096 16.5489L12.0935 16.5693C12.1399 16.5809 12.1746 16.5989 12.1978 16.6234C12.2213 16.6476 12.2331 16.6782 12.2331 16.7153C12.2331 16.7464 12.2243 16.7742 12.2067 16.7987C12.1895 16.8232 12.1655 16.8424 12.1347 16.8563C12.104 16.8702 12.0682 16.8772 12.0275 16.8772C11.9732 16.8772 11.9285 16.8649 11.8934 16.8404C11.8583 16.8156 11.8358 16.7802 11.8259 16.7342L11.8875 16.7193C11.8951 16.752 11.9106 16.7769 11.9341 16.7937C11.9576 16.8106 11.9884 16.8191 12.0265 16.8191C12.0689 16.8191 12.103 16.8095 12.1288 16.7903C12.1546 16.7711 12.1675 16.7472 12.1675 16.7188C12.1675 16.6731 12.1372 16.6428 12.0766 16.6279L11.9863 16.606C11.9379 16.5945 11.9022 16.5763 11.879 16.5514C11.8559 16.5266 11.8443 16.4957 11.8443 16.4586C11.8443 16.4281 11.8525 16.4011 11.8691 16.3776C11.886 16.3541 11.909 16.3358 11.9381 16.3225C11.9672 16.3093 12.0003 16.3027 12.0374 16.3027C12.0884 16.3027 12.1291 16.3144 12.1596 16.3379C12.19 16.3611 12.2119 16.3927 12.2251 16.4328ZM12.8145 16.3101V16.3662H12.5498V16.3101H12.8145ZM12.6328 16.178H12.6968V16.7202C12.6968 16.7504 12.7043 16.773 12.7191 16.7883C12.734 16.8032 12.7547 16.8106 12.7812 16.8106C12.7872 16.8106 12.7931 16.8103 12.7991 16.8096C12.8054 16.8086 12.812 16.8073 12.819 16.8057L12.8329 16.8637C12.8252 16.8667 12.8165 16.869 12.8065 16.8707C12.7966 16.8724 12.7863 16.8732 12.7758 16.8732C12.7347 16.8732 12.7006 16.8606 12.6735 16.8354C12.6463 16.81 12.6328 16.7767 12.6328 16.7356V16.178ZM13.1397 16.8772C13.0917 16.8772 13.0493 16.8651 13.0126 16.8409C12.9759 16.8164 12.9471 16.7826 12.9262 16.7396C12.9057 16.6963 12.8954 16.6466 12.8954 16.5907C12.8954 16.5337 12.9057 16.4837 12.9262 16.4407C12.9471 16.3973 12.9759 16.3636 13.0126 16.3394C13.0493 16.3149 13.0917 16.3027 13.1397 16.3027C13.1877 16.3027 13.2299 16.3149 13.2663 16.3394C13.3031 16.3636 13.3319 16.3973 13.3527 16.4407C13.3736 16.4837 13.384 16.5337 13.384 16.5907C13.384 16.6466 13.3736 16.6963 13.3527 16.7396C13.3322 16.7826 13.3036 16.8164 13.2668 16.8409C13.2301 16.8651 13.1877 16.8772 13.1397 16.8772ZM13.1397 16.8186C13.1784 16.8186 13.211 16.8083 13.2375 16.7878C13.2643 16.7669 13.2847 16.7391 13.2986 16.7044C13.3125 16.6696 13.3194 16.6317 13.3194 16.5907C13.3194 16.5489 13.3125 16.5107 13.2986 16.476C13.2847 16.4412 13.2643 16.4134 13.2375 16.3925C13.2107 16.3717 13.1781 16.3613 13.1397 16.3613C13.1013 16.3613 13.0687 16.3719 13.0419 16.393C13.0154 16.4139 12.9951 16.4417 12.9808 16.4765C12.9669 16.5109 12.96 16.5489 12.96 16.5907C12.96 16.6317 12.9669 16.6696 12.9808 16.7044C12.9947 16.7391 13.0151 16.7669 13.0419 16.7878C13.0687 16.8083 13.1013 16.8186 13.1397 16.8186ZM13.9878 16.8772C13.9543 16.8772 13.9262 16.8712 13.9034 16.8593C13.8809 16.847 13.8626 16.832 13.8487 16.8141C13.8352 16.7962 13.8246 16.7788 13.817 16.762H13.8095V16.8652H13.7475V16.1254H13.8115V16.4164H13.817C13.8246 16.3998 13.8352 16.3828 13.8487 16.3652C13.8623 16.3477 13.8804 16.333 13.9029 16.321C13.9254 16.3088 13.9535 16.3027 13.9873 16.3027C14.033 16.3027 14.0728 16.3148 14.1069 16.3389C14.1414 16.3628 14.1682 16.3962 14.1874 16.4392C14.2066 16.4822 14.2162 16.5322 14.2162 16.5892C14.2162 16.6464 14.2066 16.6967 14.1874 16.7401C14.1685 16.7835 14.1419 16.8172 14.1074 16.8414C14.0733 16.8652 14.0335 16.8772 13.9878 16.8772ZM13.9808 16.8186C14.0172 16.8186 14.0482 16.8083 14.0737 16.7878C14.0992 16.7673 14.1185 16.7396 14.1318 16.7049C14.145 16.6701 14.1516 16.6314 14.1516 16.5887C14.1516 16.546 14.145 16.5076 14.1318 16.4735C14.1185 16.4391 14.0993 16.4117 14.0742 16.3915C14.049 16.3714 14.0179 16.3613 13.9808 16.3613C13.9444 16.3613 13.9136 16.371 13.8885 16.3906C13.8633 16.4098 13.8441 16.4364 13.8309 16.4705C13.8176 16.5046 13.811 16.544 13.811 16.5887C13.811 16.633 13.8176 16.6726 13.8309 16.7073C13.8441 16.7418 13.8633 16.7689 13.8885 16.7888C13.914 16.8086 13.9447 16.8186 13.9808 16.8186ZM14.6779 16.6537V16.3101H14.742V16.8652H14.6779V16.7729H14.673C14.6597 16.8013 14.639 16.8252 14.6109 16.8444C14.5828 16.8632 14.5483 16.8725 14.5076 16.8722C14.4722 16.8722 14.4408 16.8646 14.4133 16.8493C14.3861 16.8338 14.3646 16.8109 14.3487 16.7808C14.3332 16.7504 14.3254 16.7133 14.3254 16.6696V16.3101H14.3895V16.6661C14.3895 16.7092 14.4022 16.7439 14.4277 16.7704C14.4535 16.7969 14.4863 16.81 14.526 16.8096C14.5512 16.8096 14.5753 16.8037 14.5985 16.7917C14.6217 16.7798 14.6407 16.7623 14.6556 16.7391C14.6705 16.7159 14.6779 16.6875 14.6779 16.6537ZM14.8805 16.8652V16.3101H14.9446V16.8652H14.8805ZM14.9128 16.2153C14.8996 16.2153 14.8881 16.2108 14.8785 16.2019C14.8693 16.1926 14.8646 16.1815 14.8646 16.1686C14.8646 16.156 14.8693 16.1453 14.8785 16.1363C14.8881 16.1274 14.8996 16.1229 14.9128 16.1229C14.926 16.1229 14.9373 16.1274 14.9466 16.1363C14.9558 16.1453 14.9605 16.156 14.9605 16.1686C14.9605 16.1815 14.9558 16.1926 14.9466 16.2019C14.9373 16.2108 14.926 16.2153 14.9128 16.2153ZM15.1472 16.1254V16.8652H15.0831V16.1254H15.1472ZM15.4848 16.8772C15.4394 16.8772 15.3996 16.8652 15.3651 16.8414C15.331 16.8172 15.3044 16.7835 15.2852 16.7401C15.2663 16.6967 15.2569 16.6464 15.2569 16.5892C15.2569 16.5322 15.2665 16.4822 15.2857 16.4392C15.3049 16.3962 15.3315 16.3628 15.3656 16.3389C15.4001 16.3148 15.4399 16.3027 15.4853 16.3027C15.5194 16.3027 15.5475 16.3088 15.5697 16.321C15.5922 16.333 15.6102 16.3477 15.6238 16.3652C15.6377 16.3828 15.6483 16.3998 15.6556 16.4164H15.6611V16.1254H15.7251V16.8652H15.663V16.762H15.6556C15.6483 16.7788 15.6377 16.7962 15.6238 16.8141C15.6099 16.832 15.5917 16.847 15.5692 16.8593C15.5467 16.8712 15.5186 16.8772 15.4848 16.8772ZM15.4922 16.8186C15.5283 16.8186 15.5589 16.8086 15.5841 16.7888C15.6093 16.7689 15.6285 16.7418 15.6417 16.7073C15.6553 16.6726 15.6621 16.633 15.6621 16.5887C15.6621 16.544 15.6554 16.5046 15.6422 16.4705C15.629 16.4364 15.6096 16.4098 15.5841 16.3906C15.5589 16.371 15.5283 16.3613 15.4922 16.3613C15.4555 16.3613 15.4244 16.3714 15.3989 16.3915C15.3734 16.4117 15.354 16.4391 15.3408 16.4735C15.3279 16.5076 15.3214 16.546 15.3214 16.5887C15.3214 16.6314 15.3281 16.6701 15.3413 16.7049C15.3545 16.7396 15.3737 16.7673 15.3989 16.7878C15.4244 16.8083 15.4555 16.8186 15.4922 16.8186ZM16.3294 17.0847C16.2728 17.0847 16.2266 17.0741 16.1909 17.0529C16.1551 17.0317 16.1291 17.0053 16.1129 16.9735L16.1655 16.9387C16.1731 16.953 16.1837 16.9667 16.1973 16.9799C16.2109 16.9935 16.2284 17.0046 16.2499 17.0132C16.2715 17.0221 16.2979 17.0266 16.3294 17.0266C16.3787 17.0266 16.4184 17.0144 16.4485 16.9899C16.479 16.9654 16.4942 16.9273 16.4942 16.8757V16.7505H16.4878C16.4805 16.7674 16.4699 16.7843 16.456 16.8012C16.4421 16.8177 16.4239 16.8316 16.4014 16.8429C16.3789 16.8538 16.3509 16.8593 16.3175 16.8593C16.2731 16.8593 16.2337 16.8484 16.1993 16.8265C16.1652 16.8047 16.1382 16.7734 16.1184 16.7327C16.0988 16.6916 16.0891 16.643 16.0891 16.5867C16.0891 16.5304 16.0987 16.4811 16.1179 16.4387C16.1371 16.396 16.1639 16.3628 16.1983 16.3389C16.2327 16.3148 16.2728 16.3027 16.3185 16.3027C16.3526 16.3027 16.3809 16.3088 16.4034 16.321C16.4259 16.333 16.4439 16.3477 16.4575 16.3652C16.4711 16.3828 16.4816 16.3998 16.4893 16.4164H16.4962V16.3101H16.5578V16.8796C16.5578 16.9266 16.5479 16.9652 16.528 16.9953C16.5085 17.0258 16.4815 17.0483 16.4471 17.0629C16.4126 17.0774 16.3734 17.0847 16.3294 17.0847ZM16.3254 16.8007C16.3787 16.8007 16.4202 16.7815 16.45 16.7431C16.4798 16.7047 16.4947 16.6521 16.4947 16.5852C16.4947 16.5418 16.4881 16.5034 16.4749 16.47C16.462 16.4362 16.4428 16.4098 16.4173 16.3906C16.3921 16.371 16.3615 16.3613 16.3254 16.3613C16.288 16.3613 16.2566 16.3714 16.2311 16.3915C16.2056 16.4114 16.1862 16.4382 16.173 16.472C16.1601 16.5058 16.1536 16.5435 16.1536 16.5852C16.1536 16.6276 16.1602 16.665 16.1735 16.6974C16.1867 16.7298 16.2061 16.7552 16.2316 16.7734C16.2574 16.7916 16.2887 16.8007 16.3254 16.8007ZM16.9212 16.8772C16.8696 16.8772 16.8247 16.8651 16.7867 16.8409C16.7486 16.8164 16.7193 16.7826 16.6988 16.7396C16.6783 16.6966 16.668 16.6471 16.668 16.5912C16.668 16.5352 16.6781 16.4856 16.6983 16.4422C16.7188 16.3988 16.7473 16.3647 16.7837 16.3399C16.8201 16.3151 16.8623 16.3027 16.9103 16.3027C16.9401 16.3027 16.9691 16.3083 16.9972 16.3196C17.0253 16.3305 17.0507 16.3472 17.0732 16.3697C17.0957 16.3922 17.1134 16.4208 17.1263 16.4556C17.1392 16.49 17.1457 16.5311 17.1457 16.5787V16.6075H16.7122V16.5509H17.1109L17.0816 16.5728C17.0816 16.5324 17.0747 16.4963 17.0608 16.4645C17.0472 16.4328 17.0277 16.4076 17.0022 16.3891C16.9767 16.3705 16.9461 16.3613 16.9103 16.3613C16.8749 16.3613 16.8438 16.3707 16.817 16.3896C16.7902 16.4081 16.7693 16.4329 16.7544 16.464C16.7398 16.4948 16.7326 16.5286 16.7326 16.5653V16.5986C16.7326 16.643 16.7402 16.6817 16.7554 16.7148C16.771 16.7476 16.7928 16.773 16.8209 16.7913C16.8494 16.8095 16.8828 16.8186 16.9212 16.8186C16.9474 16.8186 16.9704 16.8144 16.9903 16.8061C17.0101 16.7979 17.0268 16.7868 17.0404 16.7729C17.054 16.7586 17.0642 16.7433 17.0712 16.7267L17.1323 16.7471C17.1237 16.7702 17.1098 16.7917 17.0906 16.8116C17.0717 16.8311 17.0479 16.847 17.0191 16.8593C16.9906 16.8712 16.958 16.8772 16.9212 16.8772ZM17.317 16.5187V16.8652H17.2529V16.3101H17.315V16.398H17.3214C17.3343 16.3692 17.3545 16.3462 17.382 16.329C17.4095 16.3118 17.4436 16.3032 17.4843 16.3032C17.5217 16.3032 17.5545 16.3109 17.5826 16.3265C17.6111 16.3421 17.6333 16.3649 17.6491 16.395C17.665 16.4251 17.673 16.4622 17.673 16.5062V16.8652H17.6089V16.5102C17.6089 16.4649 17.5962 16.4288 17.5707 16.402C17.5452 16.3752 17.5111 16.3618 17.4684 16.3618C17.4393 16.3618 17.4133 16.3682 17.3905 16.3811C17.3676 16.3937 17.3496 16.4117 17.3363 16.4352C17.3234 16.4584 17.317 16.4862 17.317 16.5187ZM18.1635 16.6537V16.3101H18.2276V16.8652H18.1635V16.7729H18.1586C18.1453 16.8013 18.1247 16.8252 18.0965 16.8444C18.0684 16.8632 18.034 16.8725 17.9932 16.8722C17.9578 16.8722 17.9264 16.8646 17.8989 16.8493C17.8718 16.8338 17.8502 16.8109 17.8343 16.7808C17.8188 16.7504 17.811 16.7133 17.811 16.6696V16.3101H17.8751V16.6661C17.8751 16.7092 17.8878 16.7439 17.9133 16.7704C17.9391 16.7969 17.9719 16.81 18.0116 16.8096C18.0368 16.8096 18.0609 16.8037 18.0841 16.7917C18.1073 16.7798 18.1263 16.7623 18.1412 16.7391C18.1561 16.7159 18.1635 16.6875 18.1635 16.6537ZM18.3661 16.8652V16.3101H18.4302V16.8652H18.3661ZM18.3984 16.2153C18.3852 16.2153 18.3737 16.2108 18.3641 16.2019C18.3549 16.1926 18.3502 16.1815 18.3502 16.1686C18.3502 16.156 18.3549 16.1453 18.3641 16.1363C18.3737 16.1274 18.3852 16.1229 18.3984 16.1229C18.4116 16.1229 18.4229 16.1274 18.4322 16.1363C18.4414 16.1453 18.4461 16.156 18.4461 16.1686C18.4461 16.1815 18.4414 16.1926 18.4322 16.2019C18.4229 16.2108 18.4116 16.2153 18.3984 16.2153ZM18.6328 16.5187V16.8652H18.5687V16.3101H18.6308V16.398H18.6372C18.6501 16.3692 18.6703 16.3462 18.6978 16.329C18.7253 16.3118 18.7594 16.3032 18.8001 16.3032C18.8375 16.3032 18.8703 16.3109 18.8984 16.3265C18.9269 16.3421 18.949 16.3649 18.9649 16.395C18.9808 16.4251 18.9888 16.4622 18.9888 16.5062V16.8652H18.9247V16.5102C18.9247 16.4649 18.912 16.4288 18.8865 16.402C18.861 16.3752 18.8269 16.3618 18.7842 16.3618C18.7551 16.3618 18.7291 16.3682 18.7062 16.3811C18.6834 16.3937 18.6654 16.4117 18.6521 16.4352C18.6392 16.4584 18.6328 16.4862 18.6328 16.5187ZM19.3512 16.8772C19.2996 16.8772 19.2547 16.8651 19.2167 16.8409C19.1786 16.8164 19.1493 16.7826 19.1288 16.7396C19.1083 16.6966 19.098 16.6471 19.098 16.5912C19.098 16.5352 19.1081 16.4856 19.1283 16.4422C19.1488 16.3988 19.1773 16.3647 19.2137 16.3399C19.2501 16.3151 19.2923 16.3027 19.3403 16.3027C19.3701 16.3027 19.3991 16.3083 19.4272 16.3196C19.4553 16.3305 19.4807 16.3472 19.5032 16.3697C19.5257 16.3922 19.5434 16.4208 19.5563 16.4556C19.5692 16.49 19.5757 16.5311 19.5757 16.5787V16.6075H19.1422V16.5509H19.5409L19.5116 16.5728C19.5116 16.5324 19.5047 16.4963 19.4908 16.4645C19.4772 16.4328 19.4577 16.4076 19.4322 16.3891C19.4067 16.3705 19.3761 16.3613 19.3403 16.3613C19.3049 16.3613 19.2738 16.3707 19.247 16.3896C19.2202 16.4081 19.1993 16.4329 19.1844 16.464C19.1698 16.4948 19.1626 16.5286 19.1626 16.5653V16.5986C19.1626 16.643 19.1702 16.6817 19.1854 16.7148C19.201 16.7476 19.2228 16.773 19.2509 16.7913C19.2794 16.8095 19.3128 16.8186 19.3512 16.8186C19.3774 16.8186 19.4004 16.8144 19.4203 16.8061C19.4401 16.7979 19.4568 16.7868 19.4704 16.7729C19.484 16.7586 19.4942 16.7433 19.5012 16.7267L19.5623 16.7471C19.5536 16.7702 19.5397 16.7917 19.5205 16.8116C19.5017 16.8311 19.4778 16.847 19.449 16.8593C19.4206 16.8712 19.388 16.8772 19.3512 16.8772ZM20.1536 16.8772C20.104 16.8772 20.0608 16.8647 20.024 16.8399C19.9873 16.8151 19.9588 16.7812 19.9386 16.7381C19.9184 16.6948 19.9083 16.6456 19.9083 16.5907C19.9083 16.5347 19.9186 16.4852 19.9391 16.4422C19.9596 16.3988 19.9883 16.3647 20.025 16.3399C20.0618 16.3151 20.1043 16.3027 20.1526 16.3027C20.1897 16.3027 20.2233 16.31 20.2534 16.3245C20.2835 16.3388 20.3084 16.3589 20.3279 16.3851C20.3478 16.4109 20.3602 16.441 20.3651 16.4755H20.3006C20.296 16.4546 20.287 16.4356 20.2738 16.4184C20.2609 16.4011 20.2442 16.3874 20.2236 16.3772C20.2034 16.3666 20.1801 16.3613 20.1536 16.3613C20.1182 16.3613 20.0869 16.3709 20.0598 16.3901C20.0326 16.4093 20.0113 16.4359 19.9957 16.47C19.9805 16.5041 19.9729 16.5437 19.9729 16.5887C19.9729 16.6334 19.9803 16.6731 19.9952 16.7078C20.0101 16.7426 20.0311 16.7697 20.0583 16.7893C20.0858 16.8088 20.1175 16.8186 20.1536 16.8186C20.1904 16.8186 20.2221 16.8081 20.249 16.7873C20.2758 16.7664 20.293 16.7385 20.3006 16.7034H20.3651C20.3605 16.7368 20.3486 16.7666 20.3294 16.7927C20.3105 16.8189 20.286 16.8396 20.2559 16.8548C20.2261 16.8697 20.192 16.8772 20.1536 16.8772ZM20.6879 16.8772C20.6399 16.8772 20.5975 16.8651 20.5608 16.8409C20.524 16.8164 20.4952 16.7826 20.4744 16.7396C20.4538 16.6963 20.4436 16.6466 20.4436 16.5907C20.4436 16.5337 20.4538 16.4837 20.4744 16.4407C20.4952 16.3973 20.524 16.3636 20.5608 16.3394C20.5975 16.3149 20.6399 16.3027 20.6879 16.3027C20.7359 16.3027 20.7781 16.3149 20.8145 16.3394C20.8512 16.3636 20.88 16.3973 20.9009 16.4407C20.9217 16.4837 20.9322 16.5337 20.9322 16.5907C20.9322 16.6466 20.9217 16.6963 20.9009 16.7396C20.8804 16.7826 20.8517 16.8164 20.815 16.8409C20.7782 16.8651 20.7359 16.8772 20.6879 16.8772ZM20.6879 16.8186C20.7266 16.8186 20.7592 16.8083 20.7857 16.7878C20.8125 16.7669 20.8329 16.7391 20.8468 16.7044C20.8607 16.6696 20.8676 16.6317 20.8676 16.5907C20.8676 16.5489 20.8607 16.5107 20.8468 16.476C20.8329 16.4412 20.8125 16.4134 20.7857 16.3925C20.7589 16.3717 20.7263 16.3613 20.6879 16.3613C20.6495 16.3613 20.6169 16.3719 20.5901 16.393C20.5636 16.4139 20.5432 16.4417 20.529 16.4765C20.5151 16.5109 20.5081 16.5489 20.5081 16.5907C20.5081 16.6317 20.5151 16.6696 20.529 16.7044C20.5429 16.7391 20.5632 16.7669 20.5901 16.7878C20.6169 16.8083 20.6495 16.8186 20.6879 16.8186ZM21.1055 16.5187V16.8652H21.0414V16.3101H21.1035V16.398H21.1099C21.1228 16.3692 21.143 16.3462 21.1705 16.329C21.198 16.3118 21.2321 16.3032 21.2728 16.3032C21.3102 16.3032 21.343 16.3109 21.3711 16.3265C21.3996 16.3421 21.4217 16.3649 21.4376 16.395C21.4535 16.4251 21.4615 16.4622 21.4615 16.5062V16.8652H21.3974V16.5102C21.3974 16.4649 21.3847 16.4288 21.3592 16.402C21.3337 16.3752 21.2996 16.3618 21.2569 16.3618C21.2278 16.3618 21.2018 16.3682 21.1789 16.3811C21.1561 16.3937 21.1381 16.4117 21.1248 16.4352C21.1119 16.4584 21.1055 16.4862 21.1055 16.5187ZM21.6636 16.5187V16.8652H21.5995V16.3101H21.6616V16.398H21.668C21.6809 16.3692 21.7011 16.3462 21.7286 16.329C21.7561 16.3118 21.7902 16.3032 21.8309 16.3032C21.8683 16.3032 21.9011 16.3109 21.9292 16.3265C21.9577 16.3421 21.9798 16.3649 21.9957 16.395C22.0116 16.4251 22.0196 16.4622 22.0196 16.5062V16.8652H21.9555V16.5102C21.9555 16.4649 21.9428 16.4288 21.9173 16.402C21.8918 16.3752 21.8577 16.3618 21.815 16.3618C21.7859 16.3618 21.7599 16.3682 21.737 16.3811C21.7142 16.3937 21.6962 16.4117 21.6829 16.4352C21.67 16.4584 21.6636 16.4862 21.6636 16.5187ZM22.382 16.8772C22.3304 16.8772 22.2855 16.8651 22.2475 16.8409C22.2094 16.8164 22.1801 16.7826 22.1596 16.7396C22.1391 16.6966 22.1288 16.6471 22.1288 16.5912C22.1288 16.5352 22.1389 16.4856 22.1591 16.4422C22.1796 16.3988 22.2081 16.3647 22.2445 16.3399C22.2809 16.3151 22.3231 16.3027 22.3711 16.3027C22.4009 16.3027 22.4299 16.3083 22.458 16.3196C22.4861 16.3305 22.5114 16.3472 22.534 16.3697C22.5565 16.3922 22.5742 16.4208 22.5871 16.4556C22.6 16.49 22.6065 16.5311 22.6065 16.5787V16.6075H22.173V16.5509H22.5717L22.5424 16.5728C22.5424 16.5324 22.5354 16.4963 22.5215 16.4645C22.508 16.4328 22.4884 16.4076 22.463 16.3891C22.4375 16.3705 22.4068 16.3613 22.3711 16.3613C22.3357 16.3613 22.3046 16.3707 22.2778 16.3896C22.2509 16.4081 22.2301 16.4329 22.2152 16.464C22.2006 16.4948 22.1933 16.5286 22.1933 16.5653V16.5986C22.1933 16.643 22.201 16.6817 22.2162 16.7148C22.2317 16.7476 22.2536 16.773 22.2817 16.7913C22.3102 16.8095 22.3436 16.8186 22.382 16.8186C22.4082 16.8186 22.4312 16.8144 22.451 16.8061C22.4709 16.7979 22.4876 16.7868 22.5012 16.7729C22.5148 16.7586 22.525 16.7433 22.532 16.7267L22.593 16.7471C22.5844 16.7702 22.5705 16.7917 22.5513 16.8116C22.5325 16.8311 22.5086 16.847 22.4798 16.8593C22.4514 16.8712 22.4188 16.8772 22.382 16.8772ZM22.9302 16.8772C22.8805 16.8772 22.8373 16.8647 22.8006 16.8399C22.7638 16.8151 22.7354 16.7812 22.7152 16.7381C22.695 16.6948 22.6849 16.6456 22.6849 16.5907C22.6849 16.5347 22.6952 16.4852 22.7157 16.4422C22.7362 16.3988 22.7648 16.3647 22.8016 16.3399C22.8383 16.3151 22.8809 16.3027 22.9292 16.3027C22.9663 16.3027 22.9999 16.31 23.03 16.3245C23.0601 16.3388 23.0849 16.3589 23.1045 16.3851C23.1243 16.4109 23.1367 16.441 23.1417 16.4755H23.0772C23.0725 16.4546 23.0636 16.4356 23.0503 16.4184C23.0374 16.4011 23.0207 16.3874 23.0002 16.3772C22.98 16.3666 22.9567 16.3613 22.9302 16.3613C22.8948 16.3613 22.8635 16.3709 22.8363 16.3901C22.8092 16.4093 22.7878 16.4359 22.7723 16.47C22.7571 16.5041 22.7494 16.5437 22.7494 16.5887C22.7494 16.6334 22.7569 16.6731 22.7718 16.7078C22.7867 16.7426 22.8077 16.7697 22.8349 16.7893C22.8623 16.8088 22.8941 16.8186 22.9302 16.8186C22.9669 16.8186 22.9987 16.8081 23.0255 16.7873C23.0523 16.7664 23.0695 16.7385 23.0772 16.7034H23.1417C23.1371 16.7368 23.1252 16.7666 23.106 16.7927C23.0871 16.8189 23.0626 16.8396 23.0325 16.8548C23.0027 16.8697 22.9686 16.8772 22.9302 16.8772ZM23.4669 16.3101V16.3662H23.2023V16.3101H23.4669ZM23.2852 16.178H23.3493V16.7202C23.3493 16.7504 23.3567 16.773 23.3716 16.7883C23.3865 16.8032 23.4072 16.8106 23.4337 16.8106C23.4396 16.8106 23.4456 16.8103 23.4515 16.8096C23.4578 16.8086 23.4644 16.8073 23.4714 16.8057L23.4853 16.8637C23.4777 16.8667 23.4689 16.869 23.459 16.8707C23.4491 16.8724 23.4388 16.8732 23.4282 16.8732C23.3872 16.8732 23.3531 16.8606 23.3259 16.8354C23.2988 16.81 23.2852 16.7767 23.2852 16.7356V16.178ZM23.5816 16.8652V16.3101H23.6457V16.8652H23.5816ZM23.6139 16.2153C23.6007 16.2153 23.5892 16.2108 23.5796 16.2019C23.5704 16.1926 23.5657 16.1815 23.5657 16.1686C23.5657 16.156 23.5704 16.1453 23.5796 16.1363C23.5892 16.1274 23.6007 16.1229 23.6139 16.1229C23.6271 16.1229 23.6384 16.1274 23.6477 16.1363C23.6569 16.1453 23.6616 16.156 23.6616 16.1686C23.6616 16.1815 23.6569 16.1926 23.6477 16.2019C23.6384 16.2108 23.6271 16.2153 23.6139 16.2153ZM23.9997 16.8772C23.9517 16.8772 23.9093 16.8651 23.8726 16.8409C23.8358 16.8164 23.807 16.7826 23.7862 16.7396C23.7657 16.6963 23.7554 16.6466 23.7554 16.5907C23.7554 16.5337 23.7657 16.4837 23.7862 16.4407C23.807 16.3973 23.8358 16.3636 23.8726 16.3394C23.9093 16.3149 23.9517 16.3027 23.9997 16.3027C24.0477 16.3027 24.0899 16.3149 24.1263 16.3394C24.1631 16.3636 24.1919 16.3973 24.2127 16.4407C24.2336 16.4837 24.244 16.5337 24.244 16.5907C24.244 16.6466 24.2336 16.6963 24.2127 16.7396C24.1922 16.7826 24.1636 16.8164 24.1268 16.8409C24.0901 16.8651 24.0477 16.8772 23.9997 16.8772ZM23.9997 16.8186C24.0384 16.8186 24.071 16.8083 24.0975 16.7878C24.1243 16.7669 24.1447 16.7391 24.1586 16.7044C24.1725 16.6696 24.1794 16.6317 24.1794 16.5907C24.1794 16.5489 24.1725 16.5107 24.1586 16.476C24.1447 16.4412 24.1243 16.4134 24.0975 16.3925C24.0707 16.3717 24.0381 16.3613 23.9997 16.3613C23.9613 16.3613 23.9287 16.3719 23.9019 16.393C23.8754 16.4139 23.855 16.4417 23.8408 16.4765C23.8269 16.5109 23.82 16.5489 23.82 16.5907C23.82 16.6317 23.8269 16.6696 23.8408 16.7044C23.8547 16.7391 23.8751 16.7669 23.9019 16.7878C23.9287 16.8083 23.9613 16.8186 23.9997 16.8186ZM24.4173 16.5187V16.8652H24.3532V16.3101H24.4153V16.398H24.4217C24.4347 16.3692 24.4548 16.3462 24.4823 16.329C24.5098 16.3118 24.5439 16.3032 24.5846 16.3032C24.622 16.3032 24.6548 16.3109 24.6829 16.3265C24.7114 16.3421 24.7336 16.3649 24.7495 16.395C24.7653 16.4251 24.7733 16.4622 24.7733 16.5062V16.8652H24.7092V16.5102C24.7092 16.4649 24.6965 16.4288 24.671 16.402C24.6455 16.3752 24.6114 16.3618 24.5687 16.3618C24.5396 16.3618 24.5136 16.3682 24.4908 16.3811C24.4679 16.3937 24.4499 16.4117 24.4366 16.4352C24.4237 16.4584 24.4173 16.4862 24.4173 16.5187Z" fill="#181B25"/>
<path d="M11.2342 8.97834C11.2342 9.057 11.2227 9.13356 11.1996 9.20802C11.1776 9.28249 11.1383 9.34856 11.0816 9.40625C11.025 9.46393 10.9484 9.51008 10.852 9.54469C10.7565 9.5793 10.6349 9.5966 10.487 9.5966C10.4912 9.64799 10.5017 9.69099 10.5184 9.7256C10.5363 9.76021 10.5572 9.78801 10.5814 9.80898C10.6055 9.82996 10.6312 9.84569 10.6585 9.85618C10.6857 9.86667 10.7109 9.87401 10.734 9.8782C10.757 9.8824 10.7764 9.8845 10.7922 9.8845C10.8079 9.8845 10.8158 9.8845 10.8158 9.8845C10.8808 9.87716 10.939 9.86037 10.9904 9.83415C11.0124 9.82367 11.0339 9.81056 11.0549 9.79482C11.0759 9.77804 11.0947 9.75864 11.1115 9.73662C11.1294 9.71354 11.1435 9.68785 11.154 9.65953C11.1655 9.63016 11.1724 9.5966 11.1745 9.55885C11.2017 9.62702 11.2206 9.69099 11.2311 9.75078C11.2426 9.80951 11.2484 9.86457 11.2484 9.91596C11.2484 10.0104 11.2311 10.0974 11.1965 10.1771C11.1629 10.2558 11.1162 10.3239 11.0565 10.3816C10.9967 10.4393 10.9254 10.4839 10.8425 10.5153C10.7607 10.5479 10.6716 10.5641 10.5751 10.5641C10.4807 10.5641 10.3894 10.5479 10.3013 10.5153C10.2143 10.4828 10.1367 10.4314 10.0685 10.3612C10.0014 10.2899 9.94737 10.1976 9.90647 10.0843C9.86661 9.97102 9.84668 9.83363 9.84668 9.67212C9.84668 9.49697 9.87186 9.34175 9.9222 9.20645C9.97254 9.07116 10.0402 8.95789 10.1251 8.86664C10.2101 8.77435 10.3082 8.7046 10.4193 8.65741C10.5315 8.60916 10.649 8.58504 10.7717 8.58504C10.8326 8.58504 10.8908 8.59186 10.9463 8.60549C11.003 8.61913 11.0523 8.64168 11.0942 8.67314C11.1372 8.7046 11.1713 8.74551 11.1965 8.79585C11.2217 8.84514 11.2342 8.90597 11.2342 8.97834ZM10.4807 9.33703C10.51 9.33598 10.5441 9.33021 10.5829 9.31972C10.6217 9.30818 10.6585 9.29245 10.6931 9.27253C10.7277 9.2526 10.7565 9.22795 10.7796 9.19859C10.8037 9.16922 10.8158 9.13566 10.8158 9.0979C10.8158 9.07378 10.8074 9.05438 10.7906 9.03969C10.7738 9.02501 10.7523 9.01767 10.7261 9.01767C10.6894 9.01767 10.6564 9.02816 10.627 9.04913C10.5987 9.07011 10.574 9.09633 10.553 9.12779C10.5331 9.15926 10.5169 9.19387 10.5043 9.23162C10.4917 9.26938 10.4838 9.30451 10.4807 9.33703ZM12.8971 8.61808C12.8436 8.7691 12.7996 8.92013 12.765 9.07116C12.7314 9.22218 12.7026 9.37373 12.6784 9.52581C12.6554 9.67788 12.6354 9.82996 12.6186 9.98203C12.6019 10.1341 12.584 10.2862 12.5652 10.4383C12.519 10.4351 12.4671 10.433 12.4094 10.432C12.3528 10.4299 12.293 10.4288 12.2301 10.4288C12.1787 10.4288 12.1262 10.4293 12.0728 10.4304C12.0203 10.4314 11.9689 10.4335 11.9186 10.4367C11.8682 10.4388 11.8205 10.4414 11.7754 10.4446C11.7314 10.4487 11.6915 10.4529 11.6559 10.4571C11.6359 10.303 11.6165 10.1498 11.5976 9.99777C11.5788 9.84464 11.5557 9.69257 11.5284 9.54154C11.5012 9.38947 11.4676 9.23844 11.4277 9.08846C11.3879 8.93744 11.3365 8.78693 11.2736 8.63696C11.3753 8.64954 11.4781 8.65583 11.5819 8.65583C11.7266 8.65583 11.8709 8.64325 12.0145 8.61808C12.0093 8.67471 12.0056 8.73082 12.0035 8.78641C12.0014 8.842 12.0004 8.89758 12.0004 8.95317C12.0004 9.10629 12.0088 9.25732 12.0256 9.40625C12.0434 9.55413 12.0717 9.69938 12.1105 9.84202C12.143 9.70568 12.1682 9.56986 12.186 9.43456C12.2049 9.29927 12.2143 9.16345 12.2143 9.02711C12.2143 8.95789 12.2117 8.88972 12.2065 8.82259C12.2012 8.75442 12.1939 8.68625 12.1844 8.61808C12.3009 8.63066 12.4178 8.63696 12.5353 8.63696C12.6538 8.63696 12.7744 8.63066 12.8971 8.61808ZM14.3083 8.97834C14.3083 9.057 14.2967 9.13356 14.2736 9.20802C14.2516 9.28249 14.2123 9.34856 14.1557 9.40625C14.099 9.46393 14.0225 9.51008 13.926 9.54469C13.8305 9.5793 13.7089 9.5966 13.561 9.5966C13.5652 9.64799 13.5757 9.69099 13.5925 9.7256C13.6103 9.76021 13.6313 9.78801 13.6554 9.80898C13.6795 9.82996 13.7052 9.84569 13.7325 9.85618C13.7597 9.86667 13.7849 9.87401 13.808 9.8782C13.8311 9.8824 13.8505 9.8845 13.8662 9.8845C13.8819 9.8845 13.8898 9.8845 13.8898 9.8845C13.9548 9.87716 14.013 9.86037 14.0644 9.83415C14.0864 9.82367 14.1079 9.81056 14.1289 9.79482C14.1499 9.77804 14.1688 9.75864 14.1855 9.73662C14.2034 9.71354 14.2175 9.68785 14.228 9.65953C14.2396 9.63016 14.2464 9.5966 14.2485 9.55885C14.2757 9.62702 14.2946 9.69099 14.3051 9.75078C14.3166 9.80951 14.3224 9.86457 14.3224 9.91596C14.3224 10.0104 14.3051 10.0974 14.2705 10.1771C14.2369 10.2558 14.1903 10.3239 14.1305 10.3816C14.0707 10.4393 13.9994 10.4839 13.9165 10.5153C13.8347 10.5479 13.7456 10.5641 13.6491 10.5641C13.5547 10.5641 13.4635 10.5479 13.3754 10.5153C13.2883 10.4828 13.2107 10.4314 13.1425 10.3612C13.0754 10.2899 13.0214 10.1976 12.9805 10.0843C12.9406 9.97102 12.9207 9.83363 12.9207 9.67212C12.9207 9.49697 12.9459 9.34175 12.9962 9.20645C13.0466 9.07116 13.1142 8.95789 13.1992 8.86664C13.2841 8.77435 13.3822 8.7046 13.4933 8.65741C13.6056 8.60916 13.723 8.58504 13.8457 8.58504C13.9066 8.58504 13.9648 8.59186 14.0204 8.60549C14.077 8.61913 14.1263 8.64168 14.1682 8.67314C14.2112 8.7046 14.2453 8.74551 14.2705 8.79585C14.2957 8.84514 14.3083 8.90597 14.3083 8.97834ZM13.5547 9.33703C13.5841 9.33598 13.6181 9.33021 13.657 9.31972C13.6958 9.30818 13.7325 9.29245 13.7671 9.27253C13.8017 9.2526 13.8305 9.22795 13.8536 9.19859C13.8777 9.16922 13.8898 9.13566 13.8898 9.0979C13.8898 9.07378 13.8814 9.05438 13.8646 9.03969C13.8478 9.02501 13.8263 9.01767 13.8001 9.01767C13.7634 9.01767 13.7304 9.02816 13.701 9.04913C13.6727 9.07011 13.648 9.09633 13.6271 9.12779C13.6071 9.15926 13.5909 9.19387 13.5783 9.23162C13.5657 9.26938 13.5578 9.30451 13.5547 9.33703ZM15.2978 9.01452C15.2653 9.01452 15.2359 9.02396 15.2097 9.04284C15.1835 9.06067 15.1599 9.08636 15.1389 9.11993C15.119 9.15244 15.1011 9.19177 15.0854 9.23792C15.0707 9.28406 15.0587 9.33493 15.0492 9.39051C15.0492 9.47966 15.0513 9.56986 15.0555 9.6611C15.0597 9.75235 15.0665 9.84254 15.076 9.93169C15.0854 10.0208 15.0975 10.1079 15.1122 10.1928C15.1279 10.2778 15.1468 10.3586 15.1688 10.4351C15.152 10.4341 15.1326 10.4325 15.1106 10.4304C15.0917 10.4293 15.0686 10.4283 15.0414 10.4272C15.0151 10.4262 14.9847 10.4257 14.9501 10.4257C14.8851 10.4257 14.8096 10.4288 14.7236 10.4351C14.6386 10.4404 14.5442 10.4508 14.4404 10.4666C14.453 10.4078 14.464 10.336 14.4734 10.2511C14.4829 10.1661 14.4907 10.0738 14.497 9.97417C14.5033 9.87453 14.508 9.7707 14.5112 9.66268C14.5154 9.5536 14.5175 9.4461 14.5175 9.34017C14.5175 9.26151 14.5164 9.18443 14.5143 9.10891C14.5122 9.0334 14.5091 8.96208 14.5049 8.89496C14.5018 8.82784 14.497 8.76596 14.4907 8.70932C14.4845 8.65269 14.4771 8.60392 14.4687 8.56302C14.5537 8.5777 14.6308 8.58819 14.7 8.59448C14.7702 8.59972 14.8332 8.60235 14.8888 8.60235C14.9244 8.60235 14.9559 8.60182 14.9832 8.60077C15.0104 8.59868 15.034 8.59658 15.0539 8.59448C15.076 8.59133 15.0959 8.58819 15.1137 8.58504C15.1011 8.63748 15.0917 8.69569 15.0854 8.75967C15.1399 8.69359 15.1992 8.64482 15.2632 8.61336C15.3282 8.58189 15.389 8.56616 15.4457 8.56616C15.5401 8.56616 15.6198 8.58347 15.6848 8.61808C15.7498 8.65164 15.8023 8.69621 15.8421 8.7518C15.882 8.80634 15.9108 8.86874 15.9286 8.93901C15.9465 9.00928 15.9554 9.0806 15.9554 9.15296C15.9554 9.22323 15.9454 9.29193 15.9255 9.35905C15.9056 9.42617 15.8767 9.48648 15.839 9.53997C15.8012 9.59241 15.7545 9.63488 15.699 9.6674C15.6434 9.69991 15.5804 9.71617 15.5102 9.71617C15.4483 9.71617 15.3953 9.70568 15.3513 9.6847C15.3083 9.66373 15.2726 9.63646 15.2443 9.6029C15.216 9.56933 15.195 9.53263 15.1814 9.49277C15.1688 9.45187 15.1625 9.41149 15.1625 9.37164C15.1625 9.32968 15.1683 9.28878 15.1798 9.24893C15.1924 9.20907 15.2102 9.17289 15.2333 9.14038C15.2406 9.16345 15.2495 9.18128 15.26 9.19387C15.2716 9.2054 15.2831 9.21379 15.2946 9.21904C15.3072 9.22533 15.3209 9.229 15.3355 9.23005C15.3744 9.23005 15.4032 9.22113 15.4221 9.2033C15.442 9.18548 15.452 9.1645 15.452 9.14038C15.452 9.12884 15.4499 9.11573 15.4457 9.10105C15.4415 9.08636 15.4336 9.07273 15.4221 9.06014C15.4116 9.04756 15.3964 9.03707 15.3765 9.02868C15.3565 9.01924 15.3303 9.01452 15.2978 9.01452ZM17.5947 8.63381C17.5831 8.67786 17.5732 8.73082 17.5648 8.7927C17.5574 8.85458 17.5506 8.92118 17.5443 8.9925C17.538 9.06382 17.5328 9.13828 17.5286 9.21589C17.5254 9.2935 17.5223 9.36901 17.5191 9.44243C17.5128 9.61548 17.5092 9.79797 17.5081 9.9899C17.5081 10.0969 17.5013 10.2023 17.4877 10.3061C17.4751 10.4099 17.4541 10.508 17.4247 10.6003C17.3964 10.6936 17.3592 10.7796 17.313 10.8583C17.268 10.938 17.2124 11.0062 17.1463 11.0628C17.0813 11.1205 17.0052 11.1656 16.9182 11.1981C16.8322 11.2306 16.7346 11.2469 16.6256 11.2469C16.5238 11.2469 16.4357 11.2364 16.3613 11.2154C16.2868 11.1944 16.2249 11.1645 16.1756 11.1257C16.1274 11.088 16.0912 11.0424 16.0671 10.9889C16.044 10.9354 16.0325 10.8767 16.0325 10.8127C16.0325 10.7487 16.0435 10.6905 16.0655 10.6381C16.0875 10.5867 16.1164 10.5431 16.152 10.5075C16.1877 10.4718 16.2281 10.4446 16.2732 10.4257C16.3183 10.4057 16.3639 10.3958 16.41 10.3958C16.4688 10.3958 16.5244 10.4126 16.5768 10.4461C16.6292 10.4797 16.6691 10.5327 16.6964 10.605C16.6901 10.5998 16.6827 10.5961 16.6743 10.594C16.667 10.593 16.6591 10.5924 16.6507 10.5924C16.6392 10.5924 16.6271 10.5951 16.6146 10.6003C16.603 10.6055 16.5925 10.6129 16.5831 10.6223C16.5736 10.6318 16.5658 10.6423 16.5595 10.6538C16.5542 10.6664 16.5516 10.6795 16.5516 10.6931C16.5516 10.7088 16.5548 10.722 16.5611 10.7324C16.5674 10.744 16.5747 10.7529 16.5831 10.7592C16.5925 10.7655 16.6025 10.7697 16.613 10.7718C16.6245 10.7749 16.635 10.7765 16.6444 10.7765C16.6591 10.7765 16.6775 10.7733 16.6995 10.7671C16.7215 10.7608 16.7441 10.7477 16.7672 10.7277C16.7913 10.7078 16.8149 10.68 16.8379 10.6443C16.8621 10.6087 16.883 10.561 16.9009 10.5012C16.9198 10.4425 16.9344 10.3706 16.9449 10.2857C16.9565 10.2007 16.9617 10.099 16.9607 9.98046C16.9334 10.0539 16.9045 10.1137 16.8741 10.1598C16.8448 10.2049 16.8133 10.24 16.7797 10.2652C16.7472 10.2904 16.7126 10.3072 16.6759 10.3156C16.6402 10.3239 16.602 10.3281 16.5611 10.3281C16.5097 10.3281 16.4557 10.3192 16.399 10.3014C16.3434 10.2825 16.292 10.25 16.2449 10.2039C16.1987 10.1567 16.1604 10.0927 16.13 10.0119C16.0996 9.93117 16.0844 9.82839 16.0844 9.70358C16.0844 9.6868 16.0844 9.67526 16.0844 9.66897C16.0854 9.66163 16.086 9.65638 16.086 9.65324C16.086 9.64904 16.0865 9.64432 16.0875 9.63908C16.0886 9.63383 16.0891 9.62387 16.0891 9.60919C16.0891 9.59346 16.0891 9.57143 16.0891 9.54311C16.0902 9.5148 16.0907 9.47494 16.0907 9.42355C16.0907 9.36377 16.0896 9.29612 16.0875 9.22061C16.0854 9.1451 16.0807 9.07116 16.0734 8.99879C16.0671 8.92642 16.0576 8.86087 16.0451 8.80214C16.0325 8.74236 16.0162 8.69831 15.9963 8.66999C16.0812 8.68468 16.1609 8.69464 16.2354 8.69988C16.3109 8.70513 16.3796 8.70775 16.4415 8.70775C16.4824 8.70775 16.5191 8.70723 16.5516 8.70618C16.5852 8.70408 16.614 8.70198 16.6382 8.69988C16.6654 8.69779 16.6901 8.69516 16.7121 8.69202C16.7037 8.70985 16.6943 8.74393 16.6838 8.79428C16.6743 8.84462 16.6649 8.90492 16.6555 8.97519C16.646 9.04546 16.6382 9.12255 16.6319 9.20645C16.6256 9.28931 16.6224 9.37321 16.6224 9.45816C16.6224 9.52214 16.6271 9.57668 16.6366 9.62177C16.646 9.66687 16.6586 9.7041 16.6743 9.73347C16.6911 9.76179 16.71 9.78276 16.731 9.7964C16.753 9.81003 16.7766 9.81685 16.8018 9.81685C16.8416 9.81685 16.8731 9.80059 16.8962 9.76808C16.9203 9.73557 16.9407 9.69466 16.9575 9.64537C16.9554 9.58035 16.9517 9.50431 16.9465 9.41726C16.9413 9.33021 16.9339 9.23949 16.9245 9.1451C16.9161 9.05071 16.9045 8.95579 16.8899 8.86035C16.8762 8.76386 16.8589 8.67419 16.8379 8.59133C16.8705 8.60287 16.9093 8.61336 16.9544 8.6228C16.9932 8.63119 17.0404 8.63853 17.0959 8.64482C17.1515 8.65007 17.2171 8.65269 17.2926 8.65269C17.3817 8.65269 17.4824 8.6464 17.5947 8.63381ZM19.3393 10.4634C19.3152 10.4613 19.2879 10.4592 19.2575 10.4571C19.2313 10.455 19.2004 10.4535 19.1647 10.4524C19.1301 10.4514 19.0918 10.4508 19.0499 10.4508C18.9901 10.4508 18.9266 10.4529 18.8595 10.4571C18.7924 10.4613 18.7258 10.4692 18.6597 10.4807C18.666 10.4682 18.6728 10.4419 18.6802 10.4021C18.6875 10.3622 18.6943 10.3182 18.7006 10.2699C18.7079 10.2217 18.7142 10.174 18.7195 10.1268C18.7258 10.0796 18.7305 10.0429 18.7336 10.0166C18.7169 10.0953 18.6933 10.1671 18.6628 10.2322C18.6335 10.2961 18.5989 10.3512 18.559 10.3974C18.5192 10.4425 18.4746 10.4776 18.4253 10.5028C18.376 10.5279 18.3241 10.5405 18.2695 10.5405C18.2444 10.5405 18.2134 10.5389 18.1767 10.5358C18.14 10.5327 18.1007 10.5222 18.0587 10.5043C18.0178 10.4865 17.9764 10.4592 17.9345 10.4225C17.8936 10.3848 17.8563 10.3323 17.8228 10.2652C17.7903 10.197 17.7635 10.111 17.7425 10.0072C17.7226 9.90337 17.7126 9.77647 17.7126 9.62649C17.7126 9.50064 17.7216 9.38842 17.7394 9.28983C17.7583 9.19019 17.7829 9.10262 17.8133 9.02711C17.8448 8.95159 17.881 8.88762 17.9219 8.83518C17.9638 8.78169 18.0074 8.73816 18.0524 8.7046C18.0986 8.67104 18.1453 8.64692 18.1925 8.63224C18.2407 8.6165 18.2869 8.60864 18.3309 8.60864C18.3802 8.60864 18.4248 8.61703 18.4646 8.63381C18.5045 8.64954 18.5407 8.67052 18.5732 8.69674C18.6057 8.72191 18.634 8.75127 18.6581 8.78484C18.6822 8.81735 18.7032 8.84986 18.7211 8.88237C18.719 8.83413 18.7169 8.78169 18.7148 8.72505C18.7127 8.66842 18.71 8.61126 18.7069 8.55358C18.7038 8.49589 18.6996 8.43926 18.6943 8.38367C18.6901 8.32704 18.6849 8.2746 18.6786 8.22635C18.6733 8.17811 18.667 8.13563 18.6597 8.09892C18.6524 8.06222 18.644 8.03442 18.6345 8.01555C18.7184 8.03023 18.7966 8.04019 18.8689 8.04544C18.9413 8.05068 19.0069 8.0533 19.0656 8.0533C19.1033 8.0533 19.1374 8.05278 19.1678 8.05173C19.1983 8.04963 19.224 8.04753 19.2449 8.04544C19.2701 8.04334 19.2921 8.04072 19.311 8.03757C19.2995 8.09001 19.289 8.15871 19.2795 8.24366C19.2701 8.32756 19.2617 8.42248 19.2544 8.52841C19.2481 8.63433 19.2428 8.74813 19.2386 8.86979C19.2355 8.9904 19.2339 9.11363 19.2339 9.23949C19.2339 9.3559 19.2355 9.4718 19.2386 9.58716C19.2428 9.70253 19.2491 9.8137 19.2575 9.92068C19.2659 10.0266 19.2769 10.1262 19.2906 10.2196C19.3042 10.3119 19.3204 10.3932 19.3393 10.4634ZM18.6927 9.56199V9.30714C18.6927 9.27882 18.6912 9.24998 18.688 9.22061C18.6849 9.19124 18.6775 9.1645 18.666 9.14038C18.6555 9.11626 18.6398 9.09685 18.6188 9.08217C18.5978 9.06644 18.5695 9.05857 18.5338 9.05857C18.5087 9.05857 18.4872 9.06853 18.4693 9.08846C18.4515 9.10839 18.4368 9.13408 18.4253 9.16555C18.4138 9.19701 18.4043 9.23215 18.397 9.27095C18.3896 9.30976 18.3844 9.34856 18.3812 9.38737C18.3781 9.42512 18.376 9.46078 18.375 9.49435C18.3739 9.52686 18.3734 9.55255 18.3734 9.57143C18.3734 9.59975 18.3744 9.63488 18.3765 9.67684C18.3797 9.71774 18.386 9.75759 18.3954 9.7964C18.4048 9.83415 18.419 9.86667 18.4379 9.89394C18.4578 9.9212 18.4846 9.93484 18.5181 9.93484C18.5559 9.93484 18.5863 9.92173 18.6094 9.89551C18.6324 9.86929 18.6497 9.83678 18.6613 9.79797C18.6739 9.75917 18.6822 9.71879 18.6864 9.67684C18.6906 9.63383 18.6927 9.59555 18.6927 9.56199ZM21.0761 10.4634C21.0562 10.4613 21.0331 10.4592 21.0069 10.4571C20.9849 10.455 20.9581 10.4535 20.9267 10.4524C20.8963 10.4514 20.8627 10.4508 20.826 10.4508C20.7735 10.4508 20.7159 10.4529 20.6529 10.4571C20.5911 10.4613 20.5271 10.4692 20.461 10.4807L20.4673 10.0387C20.4274 10.1949 20.3687 10.3156 20.2911 10.4005C20.2145 10.4855 20.1243 10.5279 20.0205 10.5279C19.988 10.5279 19.9513 10.5237 19.9104 10.5153C19.8695 10.507 19.8275 10.4907 19.7845 10.4666C19.7426 10.4435 19.7012 10.411 19.6603 10.369C19.6204 10.3271 19.5847 10.2731 19.5533 10.207C19.5218 10.1399 19.4966 10.0591 19.4778 9.96473C19.4589 9.86929 19.4494 9.75654 19.4494 9.62649C19.4494 9.4503 19.4673 9.29979 19.5029 9.17499C19.5386 9.04913 19.5842 8.94635 19.6398 8.86664C19.6954 8.78693 19.7567 8.72873 19.8239 8.69202C19.891 8.65531 19.9565 8.63696 20.0205 8.63696C20.075 8.63696 20.1243 8.64482 20.1684 8.66055C20.2135 8.67524 20.2533 8.69464 20.288 8.71876C20.3226 8.74184 20.3525 8.76806 20.3776 8.79742C20.4028 8.82679 20.4232 8.85615 20.439 8.88552C20.4358 8.84986 20.4311 8.8121 20.4248 8.77225C20.4185 8.73135 20.4112 8.6894 20.4028 8.6464C20.471 8.66003 20.5402 8.66894 20.6105 8.67314C20.6807 8.67733 20.7458 8.67943 20.8055 8.67943C20.8769 8.67943 20.9345 8.67786 20.9786 8.67471C21.0038 8.67366 21.0268 8.67209 21.0478 8.66999C21.0363 8.72243 21.0258 8.78117 21.0163 8.84619C21.0069 8.91122 20.9985 8.98096 20.9912 9.05542C20.9849 9.12884 20.9796 9.20645 20.9754 9.28826C20.9723 9.36901 20.9707 9.45187 20.9707 9.53682C20.9707 9.69519 20.9786 9.85408 20.9943 10.0135C21.01 10.1729 21.0373 10.3229 21.0761 10.4634ZM20.4295 9.56199V9.30714C20.4295 9.27882 20.428 9.24998 20.4248 9.22061C20.4217 9.19124 20.4143 9.1645 20.4028 9.14038C20.3923 9.11626 20.3766 9.09685 20.3556 9.08217C20.3346 9.06644 20.3063 9.05857 20.2706 9.05857C20.2329 9.05857 20.2014 9.07168 20.1763 9.0979C20.1521 9.12412 20.1322 9.1603 20.1165 9.20645C20.1018 9.25155 20.0913 9.30556 20.085 9.36849C20.0798 9.43037 20.0771 9.49802 20.0771 9.57143C20.0771 9.61338 20.0798 9.65586 20.085 9.69886C20.0913 9.74186 20.1013 9.78119 20.1149 9.81685C20.1285 9.85146 20.1469 9.87978 20.17 9.9018C20.193 9.92383 20.2214 9.93484 20.2549 9.93484C20.2927 9.93484 20.3231 9.92173 20.3462 9.89551C20.3692 9.86929 20.3865 9.83678 20.3981 9.79797C20.4107 9.75917 20.4191 9.71879 20.4232 9.67684C20.4274 9.63383 20.4295 9.59555 20.4295 9.56199ZM22.7704 8.63381C22.7589 8.67786 22.7489 8.73082 22.7406 8.7927C22.7332 8.85458 22.7264 8.92118 22.7201 8.9925C22.7138 9.06382 22.7086 9.13828 22.7044 9.21589C22.7012 9.2935 22.6981 9.36901 22.6949 9.44243C22.6886 9.61548 22.685 9.79797 22.6839 9.9899C22.6839 10.0969 22.6771 10.2023 22.6635 10.3061C22.6509 10.4099 22.6299 10.508 22.6005 10.6003C22.5722 10.6936 22.535 10.7796 22.4888 10.8583C22.4437 10.938 22.3882 11.0062 22.3221 11.0628C22.2571 11.1205 22.181 11.1656 22.094 11.1981C22.008 11.2306 21.9104 11.2469 21.8014 11.2469C21.6996 11.2469 21.6115 11.2364 21.5371 11.2154C21.4626 11.1944 21.4007 11.1645 21.3514 11.1257C21.3032 11.088 21.267 11.0424 21.2429 10.9889C21.2198 10.9354 21.2083 10.8767 21.2083 10.8127C21.2083 10.7487 21.2193 10.6905 21.2413 10.6381C21.2633 10.5867 21.2922 10.5431 21.3278 10.5075C21.3635 10.4718 21.4039 10.4446 21.449 10.4257C21.4941 10.4057 21.5397 10.3958 21.5858 10.3958C21.6446 10.3958 21.7002 10.4126 21.7526 10.4461C21.805 10.4797 21.8449 10.5327 21.8722 10.605C21.8659 10.5998 21.8585 10.5961 21.8501 10.594C21.8428 10.593 21.8349 10.5924 21.8265 10.5924C21.815 10.5924 21.8029 10.5951 21.7904 10.6003C21.7788 10.6055 21.7683 10.6129 21.7589 10.6223C21.7494 10.6318 21.7416 10.6423 21.7353 10.6538C21.73 10.6664 21.7274 10.6795 21.7274 10.6931C21.7274 10.7088 21.7306 10.722 21.7369 10.7324C21.7432 10.744 21.7505 10.7529 21.7589 10.7592C21.7683 10.7655 21.7783 10.7697 21.7888 10.7718C21.8003 10.7749 21.8108 10.7765 21.8202 10.7765C21.8349 10.7765 21.8533 10.7733 21.8753 10.7671C21.8973 10.7608 21.9199 10.7477 21.943 10.7277C21.9671 10.7078 21.9907 10.68 22.0137 10.6443C22.0379 10.6087 22.0588 10.561 22.0767 10.5012C22.0956 10.4425 22.1102 10.3706 22.1207 10.2857C22.1323 10.2007 22.1375 10.099 22.1365 9.98046C22.1092 10.0539 22.0803 10.1137 22.0499 10.1598C22.0206 10.2049 21.9891 10.24 21.9555 10.2652C21.923 10.2904 21.8884 10.3072 21.8517 10.3156C21.816 10.3239 21.7778 10.3281 21.7369 10.3281C21.6855 10.3281 21.6315 10.3192 21.5748 10.3014C21.5192 10.2825 21.4678 10.25 21.4207 10.2039C21.3745 10.1567 21.3362 10.0927 21.3058 10.0119C21.2754 9.93117 21.2602 9.82839 21.2602 9.70358C21.2602 9.6868 21.2602 9.67526 21.2602 9.66897C21.2612 9.66163 21.2618 9.65638 21.2618 9.65324C21.2618 9.64904 21.2623 9.64432 21.2633 9.63908C21.2644 9.63383 21.2649 9.62387 21.2649 9.60919C21.2649 9.59346 21.2649 9.57143 21.2649 9.54311C21.266 9.5148 21.2665 9.47494 21.2665 9.42355C21.2665 9.36377 21.2654 9.29612 21.2633 9.22061C21.2612 9.1451 21.2565 9.07116 21.2492 8.99879C21.2429 8.92642 21.2334 8.86087 21.2209 8.80214C21.2083 8.74236 21.192 8.69831 21.1721 8.66999C21.257 8.68468 21.3367 8.69464 21.4112 8.69988C21.4867 8.70513 21.5554 8.70775 21.6173 8.70775C21.6582 8.70775 21.6949 8.70723 21.7274 8.70618C21.761 8.70408 21.7898 8.70198 21.8139 8.69988C21.8412 8.69779 21.8659 8.69516 21.8879 8.69202C21.8795 8.70985 21.8701 8.74393 21.8596 8.79428C21.8501 8.84462 21.8407 8.90492 21.8313 8.97519C21.8218 9.04546 21.8139 9.12255 21.8077 9.20645C21.8014 9.28931 21.7982 9.37321 21.7982 9.45816C21.7982 9.52214 21.8029 9.57668 21.8124 9.62177C21.8218 9.66687 21.8344 9.7041 21.8501 9.73347C21.8669 9.76179 21.8858 9.78276 21.9068 9.7964C21.9288 9.81003 21.9524 9.81685 21.9776 9.81685C22.0174 9.81685 22.0489 9.80059 22.072 9.76808C22.0961 9.73557 22.1165 9.69466 22.1333 9.64537C22.1312 9.58035 22.1275 9.50431 22.1223 9.41726C22.1171 9.33021 22.1097 9.23949 22.1003 9.1451C22.0919 9.05071 22.0803 8.95579 22.0657 8.86035C22.052 8.76386 22.0347 8.67419 22.0137 8.59133C22.0463 8.60287 22.0851 8.61336 22.1302 8.6228C22.169 8.63119 22.2162 8.63853 22.2717 8.64482C22.3273 8.65007 22.3929 8.65269 22.4684 8.65269C22.5575 8.65269 22.6582 8.6464 22.7704 8.63381ZM8.60386 13.1073C8.60386 13.1514 8.596 13.1954 8.58027 13.2395C8.56558 13.2835 8.54408 13.3234 8.51577 13.3591C8.48745 13.3937 8.45231 13.4225 8.41036 13.4456C8.36946 13.4676 8.32331 13.4786 8.27192 13.4786C8.22577 13.4786 8.18644 13.4707 8.15393 13.455C8.12142 13.4393 8.09467 13.4188 8.0737 13.3937C8.05272 13.3685 8.03699 13.3396 8.0265 13.3071C8.01706 13.2736 8.01234 13.2395 8.01234 13.2049C8.01234 13.1315 8.03017 13.068 8.06583 13.0145C8.07108 13.0324 8.07842 13.046 8.08786 13.0554C8.09835 13.0638 8.10778 13.0701 8.11617 13.0743C8.12666 13.0785 8.13715 13.0811 8.14764 13.0822C8.17805 13.0822 8.19746 13.0754 8.20585 13.0617C8.21424 13.0481 8.21948 13.0324 8.22158 13.0145C8.22158 12.9967 8.21476 12.9794 8.20113 12.9626C8.18749 12.9458 8.16389 12.9374 8.13033 12.9374C8.12089 12.9374 8.10726 12.939 8.08943 12.9422C8.07265 12.9443 8.05325 12.9505 8.03122 12.961C8.01025 12.9715 7.98875 12.9873 7.96672 13.0082C7.9447 13.0282 7.92425 13.0565 7.90537 13.0932C7.88754 13.1288 7.87285 13.1739 7.86132 13.2285C7.84978 13.282 7.84401 13.347 7.84401 13.4236C7.84401 13.5022 7.85555 13.5662 7.87862 13.6155C7.9017 13.6637 7.92897 13.7015 7.96043 13.7288C7.99294 13.755 8.02703 13.7728 8.06269 13.7822C8.09835 13.7917 8.12876 13.7964 8.15393 13.7964C8.17596 13.7964 8.20375 13.7927 8.23731 13.7854C8.27087 13.777 8.30391 13.7623 8.33642 13.7413C8.36998 13.7204 8.4004 13.6915 8.42767 13.6548C8.45494 13.6171 8.47329 13.5688 8.48273 13.5101C8.51105 13.552 8.53359 13.6024 8.55038 13.6611C8.56716 13.7188 8.57555 13.7791 8.57555 13.842C8.57555 13.928 8.55929 14.0119 8.52678 14.0937C8.49531 14.1755 8.45022 14.2484 8.39148 14.3124C8.3338 14.3753 8.26405 14.4257 8.18225 14.4634C8.10044 14.5022 8.01025 14.5216 7.91166 14.5216C7.83824 14.5216 7.77007 14.5096 7.70715 14.4855C7.64422 14.4624 7.58706 14.4299 7.53567 14.3879C7.48533 14.346 7.44023 14.2967 7.40037 14.24C7.36052 14.1824 7.32696 14.1205 7.29969 14.0544C7.27347 13.9873 7.25354 13.917 7.23991 13.8436C7.22627 13.7702 7.21946 13.6968 7.21946 13.6233C7.21946 13.5415 7.22837 13.4582 7.2462 13.3732C7.26403 13.2883 7.2892 13.2065 7.32171 13.1278C7.35527 13.0491 7.39618 12.9752 7.44442 12.906C7.49267 12.8368 7.5472 12.777 7.60803 12.7266C7.66886 12.6752 7.73599 12.6349 7.8094 12.6055C7.88282 12.5751 7.96095 12.5599 8.04381 12.5599C8.11827 12.5599 8.18382 12.5688 8.24046 12.5866C8.29709 12.6044 8.34639 12.628 8.38834 12.6574C8.43029 12.6868 8.4649 12.7209 8.49217 12.7597C8.51944 12.7974 8.54146 12.8368 8.55824 12.8777C8.57502 12.9175 8.58656 12.9574 8.59285 12.9972C8.60019 13.0371 8.60386 13.0738 8.60386 13.1073ZM10.2148 13.5227C10.2148 13.5835 10.2101 13.6506 10.2007 13.724C10.1912 13.7964 10.1755 13.8698 10.1535 13.9443C10.1314 14.0177 10.1015 14.0895 10.0638 14.1598C10.026 14.229 9.97883 14.2904 9.9222 14.3439C9.86661 14.3974 9.80001 14.4404 9.7224 14.4729C9.64479 14.5054 9.5546 14.5216 9.45181 14.5216C9.34903 14.5216 9.25884 14.5064 9.18123 14.476C9.10466 14.4456 9.03859 14.4052 8.983 14.3549C8.92847 14.3035 8.88337 14.2448 8.84771 14.1787C8.81205 14.1116 8.78373 14.0413 8.76276 13.9679C8.74178 13.8945 8.7271 13.8205 8.71871 13.7461C8.71137 13.6705 8.70769 13.5992 8.70769 13.5321C8.70769 13.4136 8.72343 13.2977 8.75489 13.1844C8.78635 13.0701 8.83407 12.9684 8.89805 12.8792C8.96308 12.7901 9.04383 12.7182 9.14032 12.6637C9.23786 12.6092 9.35218 12.5819 9.48328 12.5819C9.57138 12.5819 9.65056 12.5955 9.72083 12.6228C9.7911 12.649 9.8535 12.6852 9.90804 12.7313C9.96258 12.7775 10.0087 12.8315 10.0465 12.8934C10.0853 12.9553 10.1173 13.0208 10.1424 13.09C10.1676 13.1593 10.186 13.2311 10.1975 13.3056C10.209 13.38 10.2148 13.4524 10.2148 13.5227ZM9.66734 13.5746C9.66734 13.5505 9.66629 13.5206 9.66419 13.4849C9.66315 13.4482 9.66 13.4099 9.65476 13.3701C9.64951 13.3302 9.64217 13.2904 9.63273 13.2505C9.62434 13.2106 9.6128 13.175 9.59812 13.1435C9.58344 13.1121 9.56508 13.0864 9.54306 13.0664C9.52208 13.0465 9.49691 13.0365 9.46755 13.0365C9.43923 13.0365 9.41458 13.046 9.39361 13.0649C9.37263 13.0837 9.35428 13.1084 9.33854 13.1388C9.32386 13.1692 9.31128 13.2038 9.30079 13.2426C9.29135 13.2804 9.28348 13.3187 9.27719 13.3575C9.27195 13.3952 9.26775 13.4319 9.2646 13.4676C9.26251 13.5022 9.26146 13.5316 9.26146 13.5557C9.26146 13.5903 9.26408 13.6323 9.26932 13.6816C9.27457 13.7308 9.28453 13.778 9.29921 13.8231C9.3139 13.8682 9.33382 13.907 9.359 13.9396C9.38522 13.971 9.4193 13.9868 9.46125 13.9868C9.50111 13.9868 9.53414 13.9721 9.56036 13.9427C9.58763 13.9133 9.60913 13.8777 9.62486 13.8357C9.6406 13.7927 9.65161 13.7476 9.6579 13.7004C9.66419 13.6532 9.66734 13.6113 9.66734 13.5746ZM11.9705 14.4729C11.938 14.4676 11.9023 14.464 11.8635 14.4619C11.8247 14.4608 11.7843 14.4603 11.7424 14.4603C11.692 14.4603 11.6406 14.4613 11.5882 14.4634C11.5368 14.4666 11.4865 14.4702 11.4372 14.4744C11.3879 14.4786 11.3412 14.4834 11.2972 14.4886C11.2531 14.4938 11.2148 14.4986 11.1823 14.5028C11.2274 14.3507 11.262 14.1881 11.2862 14.0151C11.3113 13.842 11.3239 13.6501 11.3239 13.4393C11.3239 13.4236 11.3234 13.4026 11.3223 13.3764C11.3223 13.3501 11.3213 13.3218 11.3192 13.2914C11.3171 13.261 11.3134 13.2306 11.3082 13.2002C11.304 13.1687 11.2972 13.1404 11.2877 13.1152C11.2793 13.09 11.2683 13.0696 11.2547 13.0539C11.2411 13.0381 11.2243 13.0303 11.2043 13.0303C11.175 13.0303 11.1461 13.0407 11.1178 13.0617C11.0906 13.0827 11.0659 13.1105 11.0439 13.1451C11.0229 13.1797 11.0056 13.2196 10.992 13.2647C10.9794 13.3098 10.9731 13.3564 10.9731 13.4047C10.9731 13.4917 10.9752 13.5803 10.9794 13.6705C10.9836 13.7597 10.9904 13.8483 10.9998 13.9364C11.0093 14.0245 11.0213 14.111 11.036 14.196C11.0507 14.2799 11.0691 14.3596 11.0911 14.4351C11.0732 14.4341 11.0523 14.4325 11.0282 14.4304C11.0072 14.4293 10.9825 14.4283 10.9542 14.4272C10.9259 14.4262 10.8934 14.4257 10.8567 14.4257C10.7885 14.4257 10.7098 14.4288 10.6207 14.4351C10.5315 14.4404 10.4351 14.4508 10.3312 14.4666C10.3438 14.4078 10.3548 14.336 10.3643 14.2511C10.3737 14.1661 10.3816 14.0738 10.3879 13.9742C10.3942 13.8745 10.3989 13.7707 10.402 13.6627C10.4062 13.5536 10.4083 13.4461 10.4083 13.3402C10.4083 13.2615 10.4073 13.1844 10.4052 13.1089C10.4031 13.0334 10.3999 12.9621 10.3957 12.895C10.3926 12.8278 10.3879 12.766 10.3816 12.7093C10.3753 12.6527 10.3679 12.6039 10.3595 12.563C10.4445 12.5777 10.5232 12.5882 10.5955 12.5945C10.6679 12.5997 10.7334 12.6023 10.7922 12.6023C10.8299 12.6023 10.8635 12.6018 10.8929 12.6008C10.9233 12.5987 10.949 12.5966 10.9699 12.5945C10.9951 12.5913 11.0171 12.5882 11.036 12.585C11.0297 12.6176 11.0234 12.6522 11.0171 12.6889C11.0119 12.7256 11.0067 12.7654 11.0014 12.8084C11.036 12.7644 11.0727 12.7261 11.1115 12.6936C11.1503 12.66 11.1891 12.6322 11.2279 12.6102C11.2678 12.5882 11.3071 12.5719 11.3459 12.5614C11.3847 12.5499 11.4214 12.5441 11.4561 12.5441C11.5316 12.5441 11.5966 12.5599 11.6511 12.5913C11.7067 12.6217 11.7523 12.67 11.788 12.7361C11.8247 12.8021 11.852 12.8866 11.8698 12.9894C11.8876 13.0921 11.8966 13.2154 11.8966 13.3591C11.8966 13.4576 11.8966 13.5578 11.8966 13.6595C11.8976 13.7613 11.9002 13.8609 11.9044 13.9584C11.9086 14.056 11.916 14.1488 11.9264 14.2369C11.9369 14.3239 11.9516 14.4026 11.9705 14.4729ZM13.5987 12.6181C13.5453 12.7691 13.5012 12.9201 13.4666 13.0712C13.433 13.2222 13.4042 13.3737 13.3801 13.5258C13.357 13.6779 13.3371 13.83 13.3203 13.982C13.3035 14.1341 13.2857 14.2862 13.2668 14.4383C13.2207 14.4351 13.1687 14.433 13.1111 14.432C13.0544 14.4299 12.9946 14.4288 12.9317 14.4288C12.8803 14.4288 12.8279 14.4293 12.7744 14.4304C12.722 14.4314 12.6706 14.4335 12.6202 14.4367C12.5699 14.4388 12.5222 14.4414 12.4771 14.4446C12.433 14.4487 12.3932 14.4529 12.3575 14.4571C12.3376 14.303 12.3182 14.1498 12.2993 13.9978C12.2804 13.8446 12.2573 13.6926 12.2301 13.5415C12.2028 13.3895 12.1692 13.2384 12.1294 13.0885C12.0895 12.9374 12.0381 12.7869 11.9752 12.637C12.0769 12.6495 12.1797 12.6558 12.2836 12.6558C12.4283 12.6558 12.5725 12.6432 12.7162 12.6181C12.7109 12.6747 12.7073 12.7308 12.7052 12.7864C12.7031 12.842 12.702 12.8976 12.702 12.9532C12.702 13.1063 12.7104 13.2573 12.7272 13.4062C12.745 13.5541 12.7733 13.6994 12.8122 13.842C12.8447 13.7057 12.8698 13.5699 12.8877 13.4346C12.9065 13.2993 12.916 13.1635 12.916 13.0271C12.916 12.9579 12.9134 12.8897 12.9081 12.8226C12.9029 12.7544 12.8955 12.6862 12.8861 12.6181C13.0025 12.6307 13.1194 12.637 13.2369 12.637C13.3554 12.637 13.476 12.6307 13.5987 12.6181ZM15.0099 12.9783C15.0099 13.057 14.9984 13.1336 14.9753 13.208C14.9533 13.2825 14.9139 13.3486 14.8573 13.4062C14.8007 13.4639 14.7241 13.5101 14.6276 13.5447C14.5322 13.5793 14.4105 13.5966 14.2626 13.5966C14.2668 13.648 14.2773 13.691 14.2941 13.7256C14.3119 13.7602 14.3329 13.788 14.357 13.809C14.3811 13.83 14.4068 13.8457 14.4341 13.8562C14.4614 13.8667 14.4865 13.874 14.5096 13.8782C14.5327 13.8824 14.5521 13.8845 14.5678 13.8845C14.5836 13.8845 14.5914 13.8845 14.5914 13.8845C14.6565 13.8772 14.7147 13.8604 14.7661 13.8342C14.7881 13.8237 14.8096 13.8106 14.8306 13.7948C14.8515 13.778 14.8704 13.7586 14.8872 13.7366C14.905 13.7135 14.9192 13.6878 14.9297 13.6595C14.9412 13.6302 14.948 13.5966 14.9501 13.5588C14.9774 13.627 14.9963 13.691 15.0068 13.7508C15.0183 13.8095 15.0241 13.8646 15.0241 13.916C15.0241 14.0104 15.0068 14.0974 14.9721 14.1771C14.9386 14.2558 14.8919 14.3239 14.8321 14.3816C14.7723 14.4393 14.701 14.4839 14.6182 14.5153C14.5364 14.5479 14.4472 14.5641 14.3507 14.5641C14.2563 14.5641 14.1651 14.5479 14.077 14.5153C13.9899 14.4828 13.9123 14.4314 13.8442 14.3612C13.777 14.2899 13.723 14.1976 13.6821 14.0843C13.6423 13.971 13.6223 13.8336 13.6223 13.6721C13.6223 13.497 13.6475 13.3417 13.6979 13.2065C13.7482 13.0712 13.8158 12.9579 13.9008 12.8666C13.9858 12.7743 14.0838 12.7046 14.195 12.6574C14.3072 12.6092 14.4247 12.585 14.5474 12.585C14.6082 12.585 14.6664 12.5919 14.722 12.6055C14.7786 12.6191 14.8279 12.6417 14.8699 12.6731C14.9129 12.7046 14.947 12.7455 14.9721 12.7958C14.9973 12.8451 15.0099 12.906 15.0099 12.9783ZM14.2563 13.337C14.2857 13.336 14.3198 13.3302 14.3586 13.3197C14.3974 13.3082 14.4341 13.2925 14.4687 13.2725C14.5033 13.2526 14.5322 13.228 14.5552 13.1986C14.5794 13.1692 14.5914 13.1357 14.5914 13.0979C14.5914 13.0738 14.583 13.0544 14.5663 13.0397C14.5495 13.025 14.528 13.0177 14.5018 13.0177C14.465 13.0177 14.432 13.0282 14.4026 13.0491C14.3743 13.0701 14.3497 13.0963 14.3287 13.1278C14.3088 13.1593 14.2925 13.1939 14.2799 13.2316C14.2674 13.2694 14.2595 13.3045 14.2563 13.337ZM15.9994 13.0145C15.9669 13.0145 15.9376 13.024 15.9113 13.0428C15.8851 13.0607 15.8615 13.0864 15.8405 13.1199C15.8206 13.1524 15.8028 13.1918 15.7871 13.2379C15.7724 13.2841 15.7603 13.3349 15.7509 13.3905C15.7509 13.4797 15.753 13.5699 15.7572 13.6611C15.7614 13.7523 15.7682 13.8425 15.7776 13.9317C15.7871 14.0208 15.7991 14.1079 15.8138 14.1928C15.8295 14.2778 15.8484 14.3586 15.8704 14.4351C15.8537 14.4341 15.8343 14.4325 15.8122 14.4304C15.7933 14.4293 15.7703 14.4283 15.743 14.4272C15.7168 14.4262 15.6864 14.4257 15.6518 14.4257C15.5867 14.4257 15.5112 14.4288 15.4252 14.4351C15.3403 14.4404 15.2459 14.4508 15.142 14.4666C15.1546 14.4078 15.1656 14.336 15.1751 14.2511C15.1845 14.1661 15.1924 14.0738 15.1987 13.9742C15.205 13.8745 15.2097 13.7707 15.2128 13.6627C15.217 13.5536 15.2191 13.4461 15.2191 13.3402C15.2191 13.2615 15.2181 13.1844 15.216 13.1089C15.2139 13.0334 15.2107 12.9621 15.2065 12.895C15.2034 12.8278 15.1987 12.766 15.1924 12.7093C15.1861 12.6527 15.1788 12.6039 15.1704 12.563C15.2553 12.5777 15.3324 12.5882 15.4016 12.5945C15.4719 12.5997 15.5348 12.6023 15.5904 12.6023C15.6261 12.6023 15.6575 12.6018 15.6848 12.6008C15.7121 12.5987 15.7357 12.5966 15.7556 12.5945C15.7776 12.5913 15.7975 12.5882 15.8154 12.585C15.8028 12.6375 15.7933 12.6957 15.7871 12.7597C15.8416 12.6936 15.9008 12.6448 15.9648 12.6134C16.0299 12.5819 16.0907 12.5662 16.1473 12.5662C16.2417 12.5662 16.3214 12.5835 16.3864 12.6181C16.4515 12.6516 16.5039 12.6962 16.5438 12.7518C16.5836 12.8063 16.6125 12.8687 16.6303 12.939C16.6481 13.0093 16.657 13.0806 16.657 13.153C16.657 13.2232 16.6471 13.2919 16.6271 13.3591C16.6072 13.4262 16.5784 13.4865 16.5406 13.54C16.5029 13.5924 16.4562 13.6349 16.4006 13.6674C16.345 13.6999 16.2821 13.7162 16.2118 13.7162C16.1499 13.7162 16.097 13.7057 16.0529 13.6847C16.0099 13.6637 15.9743 13.6365 15.9459 13.6029C15.9176 13.5693 15.8967 13.5326 15.883 13.4928C15.8704 13.4519 15.8641 13.4115 15.8641 13.3716C15.8641 13.3297 15.8699 13.2888 15.8814 13.2489C15.894 13.2091 15.9119 13.1729 15.9349 13.1404C15.9423 13.1635 15.9512 13.1813 15.9617 13.1939C15.9732 13.2054 15.9848 13.2138 15.9963 13.219C16.0089 13.2253 16.0225 13.229 16.0372 13.23C16.076 13.23 16.1048 13.2211 16.1237 13.2033C16.1436 13.1855 16.1536 13.1645 16.1536 13.1404C16.1536 13.1288 16.1515 13.1157 16.1473 13.101C16.1431 13.0864 16.1353 13.0727 16.1237 13.0601C16.1132 13.0476 16.098 13.0371 16.0781 13.0287C16.0582 13.0192 16.0319 13.0145 15.9994 13.0145ZM18.0351 13.0114C18.0351 13.0533 18.0268 13.0911 18.01 13.1246C17.9932 13.1582 17.9706 13.187 17.9423 13.2112C17.914 13.2342 17.881 13.2526 17.8432 13.2662C17.8055 13.2788 17.7656 13.2851 17.7237 13.2851C17.6754 13.2851 17.634 13.2793 17.5994 13.2678C17.5658 13.2563 17.537 13.2416 17.5128 13.2238C17.4898 13.2049 17.4714 13.1844 17.4578 13.1624C17.4441 13.1393 17.4331 13.1173 17.4247 13.0963C17.4174 13.0754 17.4127 13.0559 17.4106 13.0381C17.4085 13.0203 17.4074 13.0067 17.4074 12.9972C17.4169 13.015 17.4289 13.0261 17.4436 13.0303C17.4583 13.0344 17.4698 13.0365 17.4782 13.0365C17.5024 13.0365 17.5197 13.0303 17.5302 13.0177C17.5406 13.0051 17.5459 12.992 17.5459 12.9783C17.5459 12.9699 17.5438 12.9605 17.5396 12.95C17.5354 12.9395 17.5281 12.9301 17.5176 12.9217C17.5071 12.9123 17.4934 12.9044 17.4767 12.8981C17.4599 12.8918 17.4389 12.8887 17.4137 12.8887C17.398 12.8887 17.3812 12.8918 17.3634 12.8981C17.3456 12.9044 17.3293 12.9144 17.3146 12.928C17.301 12.9406 17.2895 12.9568 17.28 12.9768C17.2706 12.9956 17.2659 13.0177 17.2659 13.0428C17.2659 13.09 17.2779 13.1299 17.302 13.1624C17.3262 13.1949 17.3576 13.2238 17.3964 13.2489C17.4363 13.273 17.4809 13.2956 17.5302 13.3166C17.5805 13.3376 17.6319 13.3596 17.6843 13.3826C17.7368 13.4047 17.7876 13.4298 17.8369 13.4582C17.8873 13.4854 17.9318 13.519 17.9706 13.5588C18.0105 13.5987 18.0425 13.6464 18.0666 13.702C18.0907 13.7576 18.1028 13.8237 18.1028 13.9002C18.1028 13.9978 18.0829 14.0859 18.043 14.1645C18.0032 14.2432 17.9497 14.3108 17.8825 14.3675C17.8165 14.4231 17.7394 14.4655 17.6513 14.4949C17.5632 14.5253 17.4704 14.5405 17.3728 14.5405C17.2837 14.5405 17.1993 14.5285 17.1195 14.5043C17.0398 14.4802 16.9701 14.4467 16.9103 14.4036C16.8505 14.3606 16.8028 14.3098 16.7672 14.2511C16.7325 14.1923 16.7152 14.1289 16.7152 14.0607C16.7152 14.0093 16.7236 13.9647 16.7404 13.927C16.7572 13.8882 16.7803 13.8562 16.8096 13.831C16.84 13.8058 16.8752 13.787 16.915 13.7744C16.9559 13.7618 17 13.7555 17.0472 13.7555C17.0818 13.7555 17.1164 13.7592 17.151 13.7665C17.1856 13.7738 17.2181 13.7849 17.2485 13.7995C17.279 13.8142 17.3062 13.8321 17.3304 13.853C17.3545 13.874 17.3739 13.8981 17.3886 13.9254C17.3802 13.9233 17.3718 13.9217 17.3634 13.9207C17.3561 13.9196 17.3482 13.9191 17.3398 13.9191C17.3167 13.9191 17.2984 13.9254 17.2847 13.938C17.2721 13.9495 17.2659 13.9689 17.2659 13.9962C17.2659 14.0256 17.2779 14.0502 17.302 14.0701C17.3262 14.0901 17.3529 14.1 17.3823 14.1C17.3991 14.1 17.4148 14.0964 17.4295 14.089C17.4441 14.0817 17.4567 14.0722 17.4672 14.0607C17.4777 14.0481 17.4856 14.0345 17.4908 14.0198C17.4971 14.0051 17.5003 13.9899 17.5003 13.9742C17.5003 13.9469 17.4908 13.9175 17.4719 13.8861C17.4541 13.8546 17.4284 13.8284 17.3949 13.8074C17.3288 13.7665 17.2664 13.7314 17.2076 13.702C17.1489 13.6726 17.0949 13.6448 17.0456 13.6186C16.9963 13.5924 16.9517 13.5662 16.9119 13.54C16.8731 13.5137 16.84 13.4833 16.8128 13.4487C16.7855 13.4131 16.7645 13.3716 16.7498 13.3244C16.7352 13.2762 16.7278 13.218 16.7278 13.1498C16.7278 13.0691 16.7436 12.9946 16.775 12.9264C16.8075 12.8572 16.8537 12.7974 16.9135 12.7471C16.9732 12.6967 17.0467 12.6574 17.1337 12.6291C17.2208 12.5997 17.3193 12.585 17.4295 12.585C17.5417 12.585 17.6361 12.5982 17.7126 12.6244C17.7903 12.6506 17.8527 12.6842 17.8999 12.7251C17.9481 12.766 17.9827 12.8116 18.0037 12.8619C18.0247 12.9123 18.0351 12.9621 18.0351 13.0114ZM19.8302 14.4634C19.8102 14.4613 19.7872 14.4592 19.7609 14.4571C19.7389 14.455 19.7122 14.4535 19.6807 14.4524C19.6503 14.4514 19.6167 14.4508 19.58 14.4508C19.5276 14.4508 19.4699 14.4529 19.407 14.4571C19.3451 14.4613 19.2811 14.4692 19.215 14.4807L19.2213 14.0387C19.1815 14.1949 19.1227 14.3156 19.0451 14.4005C18.9686 14.4855 18.8784 14.5279 18.7745 14.5279C18.742 14.5279 18.7053 14.5237 18.6644 14.5153C18.6235 14.507 18.5816 14.4907 18.5386 14.4666C18.4966 14.4435 18.4552 14.411 18.4143 14.369C18.3744 14.3271 18.3388 14.2731 18.3073 14.207C18.2758 14.1399 18.2507 14.0591 18.2318 13.9647C18.2129 13.8693 18.2035 13.7565 18.2035 13.6265C18.2035 13.4503 18.2213 13.2998 18.257 13.175C18.2926 13.0491 18.3382 12.9464 18.3938 12.8666C18.4494 12.7869 18.5108 12.7287 18.5779 12.692C18.645 12.6553 18.7106 12.637 18.7745 12.637C18.8291 12.637 18.8784 12.6448 18.9224 12.6606C18.9675 12.6752 19.0074 12.6946 19.042 12.7188C19.0766 12.7418 19.1065 12.7681 19.1317 12.7974C19.1568 12.8268 19.1773 12.8562 19.193 12.8855C19.1899 12.8499 19.1851 12.8121 19.1789 12.7723C19.1726 12.7313 19.1652 12.6894 19.1568 12.6464C19.225 12.66 19.2942 12.6689 19.3645 12.6731C19.4348 12.6773 19.4998 12.6794 19.5596 12.6794C19.6309 12.6794 19.6886 12.6779 19.7326 12.6747C19.7578 12.6737 19.7809 12.6721 19.8018 12.67C19.7903 12.7224 19.7798 12.7812 19.7704 12.8462C19.7609 12.9112 19.7525 12.981 19.7452 13.0554C19.7389 13.1288 19.7337 13.2065 19.7295 13.2883C19.7263 13.369 19.7248 13.4519 19.7248 13.5368C19.7248 13.6952 19.7326 13.8541 19.7483 14.0135C19.7641 14.1729 19.7914 14.3229 19.8302 14.4634ZM19.1836 13.562V13.3071C19.1836 13.2788 19.182 13.25 19.1789 13.2206C19.1757 13.1912 19.1684 13.1645 19.1568 13.1404C19.1463 13.1163 19.1306 13.0969 19.1096 13.0822C19.0887 13.0664 19.0603 13.0586 19.0247 13.0586C18.9869 13.0586 18.9555 13.0717 18.9303 13.0979C18.9062 13.1241 18.8862 13.1603 18.8705 13.2065C18.8558 13.2515 18.8453 13.3056 18.839 13.3685C18.8338 13.4304 18.8312 13.498 18.8312 13.5714C18.8312 13.6134 18.8338 13.6559 18.839 13.6989C18.8453 13.7419 18.8553 13.7812 18.8689 13.8168C18.8826 13.8515 18.9009 13.8798 18.924 13.9018C18.9471 13.9238 18.9754 13.9348 19.0089 13.9348C19.0467 13.9348 19.0771 13.9217 19.1002 13.8955C19.1233 13.8693 19.1406 13.8368 19.1521 13.798C19.1647 13.7592 19.1731 13.7188 19.1773 13.6768C19.1815 13.6338 19.1836 13.5956 19.1836 13.562ZM21.2193 12.5316C21.2109 12.5787 21.2046 12.6249 21.2004 12.67C21.1973 12.7151 21.1957 12.7612 21.1957 12.8084C21.1957 12.8535 21.1973 12.8992 21.2004 12.9453C21.2046 12.9904 21.2109 13.036 21.2193 13.0822C21.1689 13.0559 21.1118 13.0365 21.0478 13.024C20.9849 13.0114 20.9204 13.0014 20.8543 12.9941V13.1294C20.8543 13.2479 20.8564 13.368 20.8606 13.4896C20.8648 13.6102 20.8716 13.7277 20.881 13.842C20.8905 13.9553 20.9025 14.0628 20.9172 14.1645C20.933 14.2663 20.9518 14.3565 20.9739 14.4351C20.956 14.4341 20.9351 14.4325 20.9109 14.4304C20.89 14.4293 20.8653 14.4283 20.837 14.4272C20.8087 14.4262 20.7762 14.4257 20.7395 14.4257C20.6713 14.4257 20.5926 14.4288 20.5035 14.4351C20.4143 14.4404 20.3178 14.4508 20.214 14.4666C20.2497 14.2621 20.2748 14.0497 20.2895 13.8294C20.3053 13.6081 20.3131 13.3921 20.3131 13.1813V12.9941C20.2418 12.9993 20.171 13.0077 20.1007 13.0192C20.0315 13.0297 19.966 13.0428 19.9041 13.0586C19.9083 13.047 19.912 13.0318 19.9151 13.0129C19.9183 12.9941 19.9204 12.9747 19.9214 12.9547C19.9235 12.9348 19.9245 12.9154 19.9245 12.8965C19.9256 12.8777 19.9261 12.8619 19.9261 12.8493C19.9261 12.7958 19.924 12.7429 19.9198 12.6904C19.9156 12.638 19.9104 12.585 19.9041 12.5316C19.9544 12.5525 20.0142 12.5698 20.0834 12.5835C20.1527 12.5961 20.2229 12.6055 20.2942 12.6118C20.288 12.5205 20.2806 12.4361 20.2722 12.3585C20.2638 12.2809 20.2539 12.2106 20.2423 12.1477C20.3273 12.1624 20.4059 12.1723 20.4783 12.1776C20.5507 12.1828 20.6162 12.1855 20.675 12.1855C20.7127 12.1855 20.7463 12.1849 20.7756 12.1839C20.8061 12.1818 20.8318 12.1797 20.8527 12.1776C20.8779 12.1755 20.8999 12.1729 20.9188 12.1697C20.9073 12.2201 20.8973 12.283 20.8889 12.3585C20.8816 12.433 20.8742 12.5163 20.8669 12.6086C20.9361 12.6013 21.0011 12.5913 21.062 12.5787C21.1238 12.5662 21.1763 12.5504 21.2193 12.5316ZM22.0468 14.4351C22.029 14.4341 22.008 14.4325 21.9839 14.4304C21.9629 14.4293 21.9382 14.4283 21.9099 14.4272C21.8816 14.4262 21.8491 14.4257 21.8124 14.4257C21.7442 14.4257 21.6655 14.4288 21.5764 14.4351C21.4873 14.4404 21.3908 14.4508 21.2869 14.4666C21.3069 14.4267 21.3236 14.3769 21.3373 14.3171C21.3509 14.2563 21.3619 14.1918 21.3703 14.1236C21.3797 14.0544 21.3866 13.9847 21.3908 13.9144C21.396 13.8441 21.3997 13.7796 21.4018 13.7209C21.4039 13.6622 21.4049 13.6123 21.4049 13.5714C21.406 13.5305 21.4065 13.5048 21.4065 13.4943C21.4044 13.358 21.3997 13.2306 21.3923 13.1121C21.3892 13.0617 21.385 13.0109 21.3797 12.9595C21.3756 12.9081 21.3703 12.8598 21.364 12.8147C21.3577 12.7686 21.3504 12.7277 21.342 12.692C21.3347 12.6553 21.3257 12.6265 21.3152 12.6055C21.4002 12.6202 21.4789 12.6301 21.5512 12.6354C21.6236 12.6406 21.6891 12.6432 21.7479 12.6432C21.7856 12.6432 21.8192 12.6427 21.8486 12.6417C21.879 12.6396 21.9047 12.6375 21.9256 12.6354C21.9508 12.6333 21.9728 12.6307 21.9917 12.6275C21.9728 12.7219 21.9571 12.8357 21.9445 12.9689C21.933 13.1021 21.9272 13.2447 21.9272 13.3968C21.9272 13.4839 21.9293 13.572 21.9335 13.6611C21.9377 13.7503 21.9445 13.8394 21.954 13.9285C21.9634 14.0166 21.9755 14.1037 21.9901 14.1897C22.0059 14.2746 22.0248 14.3565 22.0468 14.4351ZM21.3247 12.1855C21.3247 12.1372 21.3336 12.0921 21.3514 12.0502C21.3703 12.0072 21.3955 11.9699 21.4269 11.9385C21.4595 11.9059 21.4972 11.8808 21.5402 11.8629C21.5832 11.8441 21.6288 11.8346 21.6771 11.8346C21.7253 11.8346 21.7704 11.8441 21.8124 11.8629C21.8554 11.8808 21.8926 11.9059 21.9241 11.9385C21.9566 11.9699 21.9818 12.0072 21.9996 12.0502C22.0185 12.0921 22.0279 12.1372 22.0279 12.1855C22.0279 12.2337 22.0185 12.2793 21.9996 12.3223C21.9818 12.3653 21.9566 12.4031 21.9241 12.4356C21.8926 12.4671 21.8554 12.4922 21.8124 12.5111C21.7704 12.5289 21.7253 12.5378 21.6771 12.5378C21.6288 12.5378 21.5832 12.5289 21.5402 12.5111C21.4972 12.4922 21.4595 12.4671 21.4269 12.4356C21.3955 12.4031 21.3703 12.3653 21.3514 12.3223C21.3336 12.2793 21.3247 12.2337 21.3247 12.1855ZM23.6562 13.5227C23.6562 13.5835 23.6514 13.6506 23.642 13.724C23.6326 13.7964 23.6168 13.8698 23.5948 13.9443C23.5728 14.0177 23.5429 14.0895 23.5051 14.1598C23.4674 14.229 23.4202 14.2904 23.3635 14.3439C23.308 14.3974 23.2414 14.4404 23.1637 14.4729C23.0861 14.5054 22.9959 14.5216 22.8932 14.5216C22.7904 14.5216 22.7002 14.5064 22.6226 14.476C22.546 14.4456 22.4799 14.4052 22.4243 14.3549C22.3698 14.3035 22.3247 14.2448 22.2891 14.1787C22.2534 14.1116 22.2251 14.0413 22.2041 13.9679C22.1831 13.8945 22.1684 13.8205 22.1601 13.7461C22.1527 13.6705 22.149 13.5992 22.149 13.5321C22.149 13.4136 22.1648 13.2977 22.1962 13.1844C22.2277 13.0701 22.2754 12.9684 22.3394 12.8792C22.4044 12.7901 22.4852 12.7182 22.5817 12.6637C22.6792 12.6092 22.7935 12.5819 22.9246 12.5819C23.0127 12.5819 23.0919 12.5955 23.1622 12.6228C23.2324 12.649 23.2948 12.6852 23.3494 12.7313C23.4039 12.7775 23.4501 12.8315 23.4878 12.8934C23.5266 12.9553 23.5586 13.0208 23.5838 13.09C23.609 13.1593 23.6273 13.2311 23.6389 13.3056C23.6504 13.38 23.6562 13.4524 23.6562 13.5227ZM23.1087 13.5746C23.1087 13.5505 23.1076 13.5206 23.1055 13.4849C23.1045 13.4482 23.1013 13.4099 23.0961 13.3701C23.0909 13.3302 23.0835 13.2904 23.0741 13.2505C23.0657 13.2106 23.0541 13.175 23.0395 13.1435C23.0248 13.1121 23.0064 13.0864 22.9844 13.0664C22.9634 13.0465 22.9383 13.0365 22.9089 13.0365C22.8806 13.0365 22.8559 13.046 22.835 13.0649C22.814 13.0837 22.7956 13.1084 22.7799 13.1388C22.7652 13.1692 22.7526 13.2038 22.7421 13.2426C22.7327 13.2804 22.7248 13.3187 22.7185 13.3575C22.7133 13.3952 22.7091 13.4319 22.7059 13.4676C22.7039 13.5022 22.7028 13.5316 22.7028 13.5557C22.7028 13.5903 22.7054 13.6323 22.7107 13.6816C22.7159 13.7308 22.7259 13.778 22.7406 13.8231C22.7552 13.8682 22.7752 13.907 22.8003 13.9396C22.8266 13.971 22.8606 13.9868 22.9026 13.9868C22.9425 13.9868 22.9755 13.9721 23.0017 13.9427C23.029 13.9133 23.0505 13.8777 23.0662 13.8357C23.0819 13.7927 23.093 13.7476 23.0992 13.7004C23.1055 13.6532 23.1087 13.6113 23.1087 13.5746ZM25.4118 14.4729C25.3793 14.4676 25.3437 14.464 25.3049 14.4619C25.2661 14.4608 25.2257 14.4603 25.1837 14.4603C25.1334 14.4603 25.082 14.4613 25.0296 14.4634C24.9782 14.4666 24.9278 14.4702 24.8785 14.4744C24.8292 14.4786 24.7826 14.4834 24.7385 14.4886C24.6945 14.4938 24.6562 14.4986 24.6237 14.5028C24.6688 14.3507 24.7034 14.1881 24.7275 14.0151C24.7527 13.842 24.7653 13.6501 24.7653 13.4393C24.7653 13.4236 24.7647 13.4026 24.7637 13.3764C24.7637 13.3501 24.7626 13.3218 24.7605 13.2914C24.7584 13.261 24.7548 13.2306 24.7495 13.2002C24.7453 13.1687 24.7385 13.1404 24.7291 13.1152C24.7207 13.09 24.7097 13.0696 24.696 13.0539C24.6824 13.0381 24.6656 13.0303 24.6457 13.0303C24.6163 13.0303 24.5875 13.0407 24.5592 13.0617C24.5319 13.0827 24.5073 13.1105 24.4852 13.1451C24.4643 13.1797 24.4469 13.2196 24.4333 13.2647C24.4207 13.3098 24.4144 13.3564 24.4144 13.4047C24.4144 13.4917 24.4165 13.5803 24.4207 13.6705C24.4249 13.7597 24.4317 13.8483 24.4412 13.9364C24.4506 14.0245 24.4627 14.111 24.4774 14.196C24.492 14.2799 24.5104 14.3596 24.5324 14.4351C24.5146 14.4341 24.4936 14.4325 24.4695 14.4304C24.4485 14.4293 24.4239 14.4283 24.3956 14.4272C24.3672 14.4262 24.3347 14.4257 24.298 14.4257C24.2298 14.4257 24.1512 14.4288 24.062 14.4351C23.9729 14.4404 23.8764 14.4508 23.7726 14.4666C23.7852 14.4078 23.7962 14.336 23.8056 14.2511C23.815 14.1661 23.8229 14.0738 23.8292 13.9742C23.8355 13.8745 23.8402 13.7707 23.8434 13.6627C23.8476 13.5536 23.8497 13.4461 23.8497 13.3402C23.8497 13.2615 23.8486 13.1844 23.8465 13.1089C23.8444 13.0334 23.8413 12.9621 23.8371 12.895C23.8339 12.8278 23.8292 12.766 23.8229 12.7093C23.8166 12.6527 23.8093 12.6039 23.8009 12.563C23.8858 12.5777 23.9645 12.5882 24.0369 12.5945C24.1092 12.5997 24.1748 12.6023 24.2335 12.6023C24.2713 12.6023 24.3048 12.6018 24.3342 12.6008C24.3646 12.5987 24.3903 12.5966 24.4113 12.5945C24.4365 12.5913 24.4585 12.5882 24.4774 12.585C24.4711 12.6176 24.4648 12.6522 24.4585 12.6889C24.4532 12.7256 24.448 12.7654 24.4428 12.8084C24.4774 12.7644 24.5141 12.7261 24.5529 12.6936C24.5917 12.66 24.6305 12.6322 24.6693 12.6102C24.7091 12.5882 24.7485 12.5719 24.7873 12.5614C24.8261 12.5499 24.8628 12.5441 24.8974 12.5441C24.9729 12.5441 25.0379 12.5599 25.0925 12.5913C25.1481 12.6217 25.1937 12.67 25.2293 12.7361C25.2661 12.8021 25.2933 12.8866 25.3112 12.9894C25.329 13.0921 25.3379 13.2154 25.3379 13.3591C25.3379 13.4576 25.3379 13.5578 25.3379 13.6595C25.3389 13.7613 25.3416 13.8609 25.3458 13.9584C25.35 14.056 25.3573 14.1488 25.3678 14.2369C25.3783 14.3239 25.393 14.4026 25.4118 14.4729Z" fill="#0F973D"/>
</g>
<defs>
<filter id="filter0_n_1091_607" x="0" y="0.00195312" width="32.625" height="26.0586" filterUnits="userSpaceOnUse" color-interpolation-filters="sRGB">
<feFlood flood-opacity="0" result="BackgroundImageFix"/>
<feBlend mode="normal" in="SourceGraphic" in2="BackgroundImageFix" result="shape"/>
<feTurbulence type="fractalNoise" baseFrequency="47.20306396484375 47.20306396484375" stitchTiles="stitch" numOctaves="3" result="noise" seed="9319" />
<feColorMatrix in="noise" type="luminanceToAlpha" result="alphaNoise" />
<feComponentTransfer in="alphaNoise" result="coloredNoise1">
<feFuncA type="discrete" tableValues="1 1 1 1 1 1 1 1 1 1 1 1 1 1 1 1 1 1 1 1 1 1 1 1 1 1 1 1 1 1 1 1 1 1 1 1 1 1 1 1 1 1 1 1 1 1 1 1 1 1 1 0 0 0 0 0 0 0 0 0 0 0 0 0 0 0 0 0 0 0 0 0 0 0 0 0 0 0 0 0 0 0 0 0 0 0 0 0 0 0 0 0 0 0 0 0 0 0 0 0 "/>
</feComponentTransfer>
<feComposite operator="in" in2="shape" in="coloredNoise1" result="noise1Clipped" />
<feFlood flood-color="rgba(0, 0, 0, 0.25)" result="color1Flood" />
<feComposite operator="in" in2="noise1Clipped" in="color1Flood" result="color1" />
<feMerge result="effect1_noise_1091_607">
<feMergeNode in="shape" />
<feMergeNode in="color1" />
</feMerge>
</filter>
<clipPath id="clip0_1091_607">
<rect y="26.0586" width="26.0576" height="32.625" rx="0.847403" transform="rotate(-90 0 26.0586)" fill="white"/>
</clipPath>
</defs>
</svg>
