<svg width="27" height="33" viewBox="0 0 27 33" fill="none" xmlns="http://www.w3.org/2000/svg">
<g clip-path="url(#clip0_1091_567)">
<rect width="26.0576" height="32.625" rx="0.847403" fill="white"/>
<g clip-path="url(#clip1_1091_567)">
<path d="M28.1344 -0.761719H-5.76172V33.1344H28.1344V-0.761719Z" fill="#4AC7F5"/>
<path d="M28.1343 14.7415C27.9719 14.6891 27.8082 14.6377 27.6431 14.5876C27.8105 14.6517 27.9744 14.7143 28.1343 14.775V14.7415ZM23.7992 1.20122C23.0904 0.868826 22.3815 0.536432 21.6727 0.204039C22.3747 0.578929 23.1079 0.984157 23.7992 1.20122ZM19.435 6.42724C20.7352 5.01673 22.0353 3.60619 23.3353 2.19569C21.9599 3.44099 19.8766 5.13863 19.435 6.42724ZM28.1343 8.08946C28.0584 7.91794 27.9811 7.74736 27.9019 7.57788C27.9794 7.79893 28.0569 8.02001 28.1343 8.24106V8.08946ZM20.3378 13.1175C20.0902 13.1942 19.8606 13.2994 19.6535 13.4387C19.9435 13.3828 20.168 13.2723 20.3378 13.1175ZM24.8452 2.28293C25.7179 3.60183 26.5103 4.87827 27.2062 6.18679C27.2325 5.3307 25.7853 3.48111 24.8452 2.28293ZM27.4332 6.24064C27.3905 6.28487 27.3478 6.32911 27.3052 6.37334C27.5133 6.77077 27.7121 7.17176 27.9019 7.57788L27.4332 6.24064ZM28.1343 18.1953V18.0908C27.0416 18.2472 25.9489 18.4035 24.8561 18.5599C25.5069 18.7059 26.881 18.4637 28.1343 18.1953ZM28.1343 1.20541V1.20219C26.9361 1.27863 25.6783 1.30303 24.501 1.35659C25.6027 1.51141 26.8989 1.35769 28.1343 1.20541ZM21.3294 12.9585C23.366 13.503 25.5966 13.9657 27.6432 14.5876C25.6615 13.8289 23.2044 12.8847 21.3294 12.9585ZM21.6727 0.204039C21.1521 -0.0739943 20.6486 -0.335206 20.1923 -0.490154C20.6858 -0.25877 21.1793 -0.0273871 21.6727 0.204039ZM16.9275 -0.258389C16.9748 -0.392702 17.0108 -0.512652 17.0307 -0.613281C16.9953 -0.506466 16.9612 -0.386771 16.9275 -0.258389ZM-5.76172 15.4717V15.6012C-4.85021 16.6114 -3.73308 18.0077 -2.71459 18.4085C-3.08066 17.5773 -4.65717 16.3512 -5.76172 15.4717ZM5.36925 33.1316C4.92873 32.5119 4.48821 31.8921 4.04769 31.2722C4.22433 31.8115 4.66782 32.476 5.17388 33.1316H5.36925ZM12.8277 33.1316C12.618 32.9191 12.4084 32.7065 12.1988 32.494C12.3702 32.7048 12.4952 32.9106 12.5688 33.1316H12.8277ZM15.8435 3.07572C16.4187 2.37402 16.6591 0.764002 16.9275 -0.258389C16.6013 0.669051 15.7329 2.28882 15.8435 3.07572ZM2.27454 14.5408C1.14368 13.4021 0.0304058 12.2484 -1.07956 11.0824C0.153491 12.4324 1.56522 13.9392 2.27454 14.5408ZM11.4098 31.6939C11.6728 31.9606 11.9358 32.2273 12.1988 32.494C11.9967 32.2455 11.7305 31.9898 11.4098 31.6939ZM21.3214 31.495C22.0055 31.8825 22.7623 32.1346 23.5658 32.2926C22.8176 32.0268 22.0695 31.7609 21.3214 31.495ZM20.3646 33.1316H20.4525C20.2801 32.4036 20.0811 31.6525 19.8464 30.9709C19.8155 30.9599 19.7846 30.949 19.7538 30.938C19.9575 31.6692 20.161 32.4004 20.3646 33.1316ZM2.64718 14.9454C2.77646 15.0655 2.9031 15.1818 3.02784 15.2947C2.90624 15.1739 2.78518 15.0527 2.66409 14.9316C2.65854 14.936 2.65269 14.941 2.64718 14.9454ZM9.33739 1.38413C8.4113 1.04953 7.32417 0.883486 6.00989 0.715743C7.2307 1.04428 8.42317 1.12631 9.33739 1.38413ZM-2.80924 7.22926C-2.21843 5.7191 -1.62758 4.20891 -1.03673 2.69875C-1.89803 3.90244 -2.31707 5.61852 -2.80924 7.22926ZM10.3892 1.88575C10.8752 2.28937 11.1113 2.92746 10.9697 4.01553C10.8293 5.09398 10.7746 5.97023 10.6869 6.71349C10.8678 5.32447 11.0486 3.93536 11.2295 2.5463C10.9657 2.28784 10.6867 2.07044 10.3892 1.88575ZM13.417 4.1487C14.1746 3.95735 15.1479 3.56789 15.5936 3.28757C14.8681 3.57462 14.1426 3.86168 13.417 4.1487ZM11.2745 2.20086C11.2595 2.31602 11.2445 2.43118 11.2295 2.54634C11.4446 2.75714 11.6497 2.99513 11.8465 3.26545C11.6564 2.91174 11.466 2.55736 11.2745 2.20086ZM10.3892 1.88575C10.112 1.65551 9.75367 1.5015 9.33739 1.38413C9.713 1.51984 10.0625 1.68293 10.3892 1.88575ZM7.24515 8.02806C7.38959 8.83632 7.53399 9.64457 7.67843 10.4528C7.68554 9.85498 7.44471 8.82217 7.24515 8.02806ZM10.6418 7.06003C10.658 6.94775 10.6729 6.83234 10.6869 6.71349C10.6719 6.82903 10.6568 6.94453 10.6418 7.06003ZM24.1888 1.30346C24.0608 1.27732 23.9307 1.24253 23.7992 1.20122C23.9045 1.25067 24.0099 1.30007 24.1153 1.34947C23.8553 1.63153 23.5953 1.91363 23.3353 2.19569C23.6637 1.89834 23.9518 1.62679 24.1675 1.39282C24.3004 1.58925 24.5474 1.90346 24.8452 2.28293C24.6452 1.98087 24.4415 1.6767 24.2334 1.36922C24.3219 1.36477 24.4115 1.3607 24.501 1.35663C24.3951 1.34176 24.2908 1.3243 24.1888 1.30346ZM14.9181 8.81462C14.9432 8.80217 14.9682 8.78963 14.9933 8.77717C14.95 8.77569 14.9097 8.77115 14.8755 8.76014C14.8414 8.74908 14.8063 8.73141 14.7705 8.70772C14.7832 8.73141 14.7957 8.75475 14.8085 8.77848C14.7401 8.78831 14.6716 8.79818 14.6031 8.80801C14.7616 8.83102 14.883 8.87538 14.9538 8.94733C16.415 10.4323 17.8764 11.9174 19.3378 13.4024C17.5246 12.6086 15.7113 11.8149 13.8984 11.0208C12.7377 10.5068 11.5769 9.99285 10.4162 9.4789C10.6207 9.4495 10.9847 9.36548 11.4215 9.26578C11.0591 9.31794 10.6967 9.37005 10.3342 9.42221C10.4367 8.63485 10.5392 7.84744 10.6418 7.06008C10.465 8.28551 10.1298 9.13926 9.00499 9.98569C9.75122 9.66855 10.4405 9.56369 10.9979 9.81049C12.7428 10.5832 13.7646 10.5113 14.0034 12.3675C14.0038 12.3708 14.0043 12.3741 14.0047 12.3774C13.975 11.8447 13.9467 11.3962 13.9085 11.0991C16.4361 12.2058 18.8429 12.9227 20.8072 14.8457C20.9813 15.0161 21.2497 15.2383 21.5653 15.4928C20.892 14.8337 20.2188 14.1747 19.5456 13.5156C19.5808 13.4889 19.6168 13.4633 19.6535 13.4387C19.6019 13.4486 19.5491 13.4575 19.4934 13.4639C17.9683 11.9141 16.4432 10.3644 14.9181 8.81462ZM7.24515 8.02806C7.01999 6.7681 6.79484 5.5081 6.56968 4.24818C6.27004 2.57126 6.4194 1.46014 5.91219 0.953863C6.2728 2.97187 6.63341 4.98987 6.99398 7.00788C7.023 7.17028 7.12681 7.55725 7.24515 8.02806ZM26.9972 25.6777C27.0663 25.9271 27.1316 26.1385 27.2102 26.313C27.1392 26.1013 27.0682 25.8894 26.9972 25.6777ZM9.00504 9.98569C8.59019 10.162 8.15784 10.4038 7.7205 10.688C7.72541 10.7153 7.73024 10.7427 7.73516 10.77C8.24415 10.5023 8.66137 10.2443 9.00504 9.98569ZM7.55483 10.903C7.59703 10.869 7.6272 10.8119 7.64724 10.7358C6.24212 11.6624 4.79455 13.0078 3.72656 13.9884C5.00262 12.9599 6.27873 11.9315 7.55483 10.903ZM-2.80924 7.22926C-2.98842 7.68724 -3.16761 8.14518 -3.34679 8.6032C-4.15178 8.10238 -4.95677 7.60161 -5.76172 7.10084V7.22125C-4.96991 7.71542 -4.1303 8.19564 -3.37886 8.66311C-4.17314 9.76371 -4.96745 10.8643 -5.76172 11.9649V12.159C-4.93249 11.0235 -4.12259 9.80947 -3.32666 8.70658C-2.57599 9.50348 -1.82846 10.2956 -1.07956 11.0824C-2.12018 9.94298 -3.03317 8.91568 -3.28828 8.63959C-3.11253 8.19038 -2.95754 7.71461 -2.80924 7.22926ZM7.72046 10.6879C7.70647 10.6095 7.69245 10.5312 7.67843 10.4528C7.67716 10.5634 7.66737 10.6592 7.64724 10.7358C7.67169 10.7197 7.69605 10.7038 7.72046 10.6879ZM5.91214 0.953863C5.89185 0.840311 5.87155 0.726843 5.85126 0.613292C5.83681 0.532534 5.36514 0.563337 4.73349 0.641341C5.32493 0.621469 5.6847 0.726801 5.91214 0.953863ZM28.1343 32.4713C28.1073 32.4758 28.0815 32.4809 28.0539 32.4852C28.0807 32.484 28.1075 32.4823 28.1343 32.4809V32.4713ZM2.7168 14.8022C2.66854 14.8411 2.51008 14.7406 2.27454 14.5408C2.40411 14.6713 2.53401 14.8015 2.66409 14.9315C2.9414 14.7065 3.30422 14.3761 3.72656 13.9883C3.38998 14.2596 3.05339 14.5309 2.7168 14.8022ZM-3.38412 33.1316C-2.69764 30.8659 -2.12585 27.9957 -1.94057 25.8108C-2.4552 28.251 -2.96982 30.6914 -3.48445 33.1316H-3.38412ZM24.3383 33.1316H24.4384C24.5735 33.0079 24.7086 32.8841 24.8436 32.7604C24.9535 32.8882 25.0553 33.0117 25.1519 33.1316H25.2422C25.1408 33.007 25.0334 32.8773 24.9167 32.7416C26.2905 32.6609 27.28 32.6082 28.0539 32.4852C26.5103 32.5586 24.9675 32.5683 23.5658 32.2926C23.9712 32.4367 24.3767 32.5808 24.7821 32.7249C24.6342 32.8605 24.4862 32.9961 24.3383 33.1316ZM26.7041 26.39C27.0121 26.7227 27.2761 27.0051 27.4693 27.1818C25.0512 27.5201 22.6331 27.8587 20.215 28.1971C17.9652 28.5119 17.6023 28.012 15.6824 26.5464C15.8712 26.4632 16.06 26.38 16.2488 26.2968C15.8215 26.3816 15.5039 26.3672 15.3569 26.2084C13.1127 23.7862 10.8687 21.3638 8.62459 18.9415C10.6867 18.7866 12.749 18.6317 14.8111 18.4769C17.5742 20.0524 20.3373 21.6279 23.1004 23.2032C22.8541 23.3118 22.424 23.5337 21.8881 23.8117C22.1562 23.6937 22.4242 23.5755 22.6923 23.4574C22.9602 23.3393 23.3008 23.4184 23.6785 23.6213C23.5637 23.5161 23.4488 23.411 23.3338 23.3058C23.2586 23.237 23.2371 23.0855 23.2545 22.8778C23.2164 22.9781 23.1829 23.0721 23.1561 23.1568C20.5066 21.6461 17.857 20.1355 15.2075 18.6248C15.0135 18.5142 14.8536 18.2737 14.7206 17.9434L14.7808 18.4112C8.91979 18.8512 7.17507 19.0504 3.0278 15.2946C3.99519 16.2556 4.97771 17.2053 5.9846 18.1417C3.28075 18.2675 0.576896 18.3932 -2.12691 18.5189C-2.31745 18.5278 -2.51418 18.4874 -2.71467 18.4085C-2.67438 18.5001 -2.64845 18.587 -2.63976 18.668C-2.37346 21.1549 -2.10717 23.6419 -1.84087 26.1288C-1.59093 28.4631 -1.34103 30.7973 -1.09109 33.1316H-1.02283C-1.54123 28.2903 -2.05963 23.4491 -2.57798 18.6078C0.289668 18.4745 3.15732 18.3412 6.02502 18.2078C5.28129 21.953 4.53761 25.6046 3.78999 29.3575C3.59212 30.3509 3.39815 31.3407 3.20393 32.3355C3.14194 32.653 3.06822 32.9153 2.98225 33.1316H3.12881C3.29214 32.3128 3.45573 31.4934 3.61933 30.6696L4.0476 31.2722C3.89333 30.8012 3.94219 30.4256 4.33157 30.2356C7.45653 28.7104 7.57407 27.9008 9.97251 30.3331C10.5244 30.8927 11.0095 31.3246 11.4097 31.6939C10.3278 30.5968 9.24591 29.4997 8.16399 28.4026C11.4767 28.4453 14.7894 28.488 18.1021 28.5306C16.5685 30.0643 15.0349 31.598 13.5013 33.1316H13.597C15.1177 31.6109 16.6384 30.0904 18.1591 28.5697C18.3778 30.0904 18.5966 31.6109 18.8154 33.1316H18.9267C18.7273 31.6041 18.4353 30.0139 18.2216 28.528C18.9072 28.7833 19.4323 29.7684 19.8465 30.9709C20.3381 31.1456 20.8297 31.3203 21.3214 31.495C20.2391 30.8823 19.3388 29.9307 18.7257 28.474C21.6578 28.0635 24.5898 27.6532 27.5219 27.2428C27.7266 27.6984 27.9306 28.1553 28.1343 28.6126V28.4488C27.9541 28.043 27.7739 27.6371 27.5936 27.2313C27.7789 27.1985 27.9592 27.1727 28.1343 27.1511V26.9526C27.6304 26.912 27.3866 26.7049 27.2102 26.313C27.2972 26.5726 27.3842 26.8324 27.4713 27.092L26.7041 26.39ZM15.5376 26.5036C13.1185 26.4719 10.6995 26.4404 8.28042 26.4088L8.58261 18.9959C10.901 21.4985 13.2193 24.001 15.5376 26.5036ZM3.65496 30.4905C4.12094 28.144 4.58693 25.7975 5.05292 23.451C5.1177 23.5126 5.18117 23.5734 5.24367 23.6334C5.13482 23.462 5.0805 23.312 5.10359 23.1956C5.43332 21.5354 5.76304 19.8752 6.09272 18.2149C8.3566 18.8901 8.53206 18.5707 8.43859 20.8637C8.36381 22.6978 8.28906 24.5319 8.21428 26.3661C7.96205 26.1261 7.28671 25.6085 6.62892 25.0465C9.04622 27.7431 7.88235 28.4275 3.65496 30.4905ZM8.11882 28.3342C8.16776 27.7566 8.07925 27.0162 8.27623 26.4764C12.3039 26.5292 14.8793 26.0185 18.0807 28.4624C14.7601 28.4197 11.4395 28.3769 8.11882 28.3342ZM6.62892 25.0465C6.25381 24.628 5.79321 24.1615 5.24367 23.6334C5.49937 24.0362 6.05734 24.558 6.62892 25.0465ZM1.42409 1.15851C1.70746 1.11686 3.51721 0.791543 4.73353 0.641298C4.51096 0.648798 4.25606 0.673754 3.96257 0.716887C2.83378 0.882808 -0.241992 0.667398 -0.705945 1.8533C-0.816235 2.1351 -0.926482 2.41695 -1.03673 2.69875C-0.463334 1.89736 0.305981 1.32282 1.42409 1.15851ZM12.5897 4.50596C14.8141 5.1949 17.0385 5.88388 19.2629 6.57282C19.0837 6.66214 18.787 6.8431 18.4294 7.06414C18.73 6.91428 19.0306 6.76442 19.3312 6.61455C19.3409 6.65269 19.3518 6.6926 19.3633 6.73332C19.3703 6.67773 19.3789 6.62413 19.3911 6.5749C19.4031 6.52634 19.4179 6.47711 19.4349 6.42728L19.3523 6.51693C19.1727 6.34402 18.9052 6.12721 18.597 5.88392C18.8071 6.0862 19.0172 6.28847 19.2273 6.49075C17.0341 5.81156 14.841 5.13228 12.6478 4.45304C12.9042 4.35161 13.1606 4.25017 13.417 4.1487C12.9029 4.27856 12.4884 4.31733 12.408 4.16747C12.2279 3.83224 12.0412 3.53314 11.8465 3.26545C12.2266 3.9729 12.6046 4.67663 12.9837 5.38213C12.8211 4.9989 12.6847 4.68265 12.5897 4.50596ZM11.4215 9.26574C12.4821 9.11316 13.5427 8.96059 14.6032 8.80797C13.8984 8.70565 12.4557 9.02969 11.4215 9.26574ZM24.5627 18.4265C24.2341 17.5802 22.6312 16.3525 21.5653 15.4928C22.5625 16.469 23.5597 17.4452 24.557 18.4214C24.5587 18.4231 24.5609 18.4247 24.5627 18.4265ZM23.6786 23.6213C24.6872 24.5442 25.6956 25.4671 26.7041 26.39C25.8439 25.4607 24.6408 24.1382 23.6786 23.6213ZM24.629 18.7183C24.3994 19.3949 23.341 21.8411 23.2545 22.8778C23.6781 21.759 24.7183 19.757 24.629 18.7183ZM16.2488 26.2968C17.6579 26.0171 20.2612 24.6559 21.8881 23.8118C20.0083 24.6402 18.1286 25.4685 16.2488 26.2968ZM14.0047 12.3774C14.1003 14.0905 14.2115 16.6786 14.7207 17.9435C14.482 16.0881 14.2433 14.2328 14.0047 12.3774ZM24.629 18.7183C24.6354 18.6992 24.6415 18.6811 24.6466 18.6649C25.4302 21.0025 26.2137 23.3401 26.9973 25.6777C26.8847 25.2708 26.762 24.7625 26.5552 24.1456C25.9338 22.2916 25.3123 20.4376 24.6908 18.5836C24.7459 18.5757 24.801 18.5678 24.8561 18.56C24.7283 18.5313 24.6283 18.4877 24.5627 18.4265C24.5811 18.4739 24.5971 18.5206 24.6072 18.5655C24.6179 18.6135 24.6244 18.6651 24.629 18.7183ZM20.9845 12.828C20.9354 12.6355 20.861 12.3962 20.7711 12.1256C20.7315 12.5352 20.5998 12.8787 20.3378 13.1175C20.6429 13.023 20.9757 12.9724 21.3293 12.9585C21.2293 12.9317 21.1296 12.9048 21.0305 12.8776C23.122 10.7095 25.2137 8.54146 27.3052 6.37334C27.2725 6.31106 27.2393 6.24894 27.2062 6.18679C27.2024 6.31373 27.1667 6.41914 27.0915 6.49702C25.0559 8.60735 23.0202 10.7177 20.9845 12.828ZM18.597 5.88388C17.6997 5.02004 16.8025 4.15628 15.9053 3.29244C16.2239 4.06667 17.6171 5.11029 18.597 5.88388ZM15.9053 3.29244C15.8857 3.24482 15.8688 3.19787 15.8576 3.15241C15.8517 3.12792 15.8472 3.10211 15.8435 3.07572C15.8264 3.09652 15.8093 3.11703 15.7916 3.13618C15.7507 3.18067 15.6818 3.2321 15.5936 3.28757C15.666 3.25892 15.7385 3.23028 15.8109 3.2016C15.8424 3.23189 15.8739 3.26214 15.9053 3.29244ZM20.7711 12.1256C20.9229 10.5554 19.7256 8.02001 19.3633 6.73328C19.2128 7.93752 20.2542 10.5684 20.7711 12.1256ZM18.4294 7.06414C17.284 7.63517 16.1386 8.20615 14.9933 8.77717C15.657 8.79967 17.3322 7.74224 18.4294 7.06414ZM14.7705 8.70772C14.1637 7.57835 13.5722 6.47745 12.9837 5.38218C13.4796 6.55096 14.2191 8.34347 14.7705 8.70772Z" fill="#45B8E6"/>
<path d="M10.6802 -0.395387C11.1217 0.0564484 11.2905 0.715474 11.037 1.78303C10.7858 2.84059 10.6408 3.70608 10.4767 4.43604C10.8003 3.07358 11.1238 1.71104 11.4474 0.34859C11.2118 0.0642022 10.9569 -0.180909 10.6802 -0.395387ZM11.528 0.00958711C11.5011 0.122546 11.4743 0.235547 11.4475 0.348548C11.6397 0.580482 11.8191 0.838474 11.9867 1.12773C11.8343 0.756276 11.6816 0.384054 11.528 0.00958711ZM16.8205 -0.761719C16.3993 0.000265625 15.9632 0.832457 15.9819 1.35272C16.4187 0.920291 16.7457 0.0575077 17.0271 -0.761719H16.8205ZM13.4551 2.1694C14.2291 2.05767 15.2409 1.76998 15.7134 1.53707C14.9606 1.74786 14.2079 1.95866 13.4551 2.1694ZM10.1354 -0.761719C10.3255 -0.64965 10.5077 -0.529064 10.6802 -0.395387C10.5431 -0.535632 10.379 -0.655412 10.1937 -0.761719H10.1354ZM7.09711 7.84488C7.08435 7.95483 7.06469 8.04915 7.03677 8.12321C7.06274 8.10974 7.08868 8.09648 7.11461 8.08326C7.10876 8.00377 7.10291 7.92433 7.09711 7.84488ZM10.3955 4.77826C10.4234 4.66759 10.4503 4.55353 10.4767 4.43604C10.4496 4.5501 10.4226 4.6642 10.3955 4.77826ZM27.1817 5.70028C27.1347 5.73989 27.0877 5.77947 27.0407 5.81904C27.2065 6.23588 27.3628 6.65534 27.5096 7.079C27.4003 6.61941 27.2911 6.15987 27.1817 5.70028ZM6.91712 5.38848C6.97711 6.20728 7.03711 7.02608 7.09711 7.84488C7.166 7.25098 7.03342 6.19893 6.91712 5.38848ZM28.1343 9.15056C27.953 8.44336 27.7439 7.75548 27.5096 7.079C27.7178 7.95488 27.9261 8.83079 28.1343 9.70671V9.15056ZM25.0171 1.49576C25.7487 2.898 26.4047 4.24969 26.9616 5.62333C27.0763 4.77449 25.8282 2.78479 25.0171 1.49576ZM22.2816 -0.761719C22.8778 -0.358059 23.4922 0.0538638 24.0888 0.311728C23.4948 -0.0460449 22.9008 -0.403903 22.3068 -0.761719H22.2816ZM28.1343 0.769495V0.749751C27.0164 0.697763 25.8608 0.602515 24.771 0.539002C25.7741 0.787926 26.9715 0.789409 28.1343 0.769495ZM12.5976 2.43845C14.7388 3.35395 16.8798 4.26944 19.021 5.18493C18.8335 5.25522 18.5197 5.40453 18.1411 5.58732C18.4557 5.4694 18.7701 5.35149 19.0846 5.23353C19.0903 5.27242 19.097 5.31331 19.1043 5.35496C19.1169 5.30039 19.1311 5.24802 19.1483 5.20027C19.1653 5.15324 19.185 5.10578 19.2072 5.05799C19.1767 5.08489 19.1462 5.11171 19.1157 5.13858C18.955 4.94804 18.7113 4.70466 18.43 4.43074C18.618 4.65373 18.806 4.87664 18.9941 5.09964L12.6609 2.39181C12.9256 2.31766 13.1903 2.24355 13.4551 2.1694C12.9311 2.24508 12.5163 2.24012 12.4518 2.08297C12.3074 1.73092 12.1527 1.41416 11.9867 1.12773C12.2915 1.87074 12.5948 2.60988 12.8987 3.35085C12.7767 2.95274 12.6737 2.62404 12.5976 2.43845ZM1.62784 11.7926C1.74385 11.9255 1.85774 12.0541 1.97002 12.1792C1.86168 12.0466 1.75394 11.9136 1.64606 11.7806C1.64009 11.7845 1.63373 11.7888 1.62784 11.7926ZM6.59761 -0.761719H6.39859C6.52333 0.941433 6.64815 2.64459 6.77293 4.34769C6.78497 4.51226 6.84818 4.90796 6.91716 5.38848C6.82365 4.11195 6.7301 2.83546 6.63659 1.55894C6.56579 0.592939 6.62036 -0.175782 6.59761 -0.761719ZM1.33079 28.1768C1.55802 29.2281 2.6918 30.8261 3.44429 31.9181C2.7398 30.671 2.03532 29.4239 1.33079 28.1768ZM-1.00999 30.7061C-1.38022 30.6351 -1.70986 30.5794 -2.00717 30.5404C-1.62932 30.6466 -1.30023 30.7174 -1.00999 30.7061ZM-5.76172 32.2369V32.3399C-5.33734 31.9129 -4.88944 31.4553 -4.54769 31.007C-4.92152 31.289 -5.29649 31.6927 -5.76172 32.2369ZM9.31154 30.2355C9.13621 29.9676 8.89809 29.6857 8.60989 29.3584C8.84373 29.6508 9.07761 29.9432 9.31154 30.2355ZM20.6385 31.2121C19.9219 30.8702 19.2052 30.5283 18.4886 30.1864C19.129 30.6426 19.8557 30.9717 20.6385 31.2121ZM17.6081 33.1344H17.6193C17.4992 32.0255 17.3464 30.6786 17.0758 29.5124C17.0463 29.4983 17.0167 29.4842 16.9871 29.4701C17.1941 30.6915 17.4011 31.913 17.6081 33.1344ZM4.13632 33.1344H4.22327C4.15408 33.028 4.08408 32.9125 4.01282 32.7863C3.89321 32.5745 3.68885 32.273 3.44434 31.9181C3.62293 32.2343 3.80147 32.5504 3.98006 32.8665C4.0337 32.9615 4.08569 33.0506 4.13632 33.1344ZM-3.00054 3.55309C-3.22616 3.99005 -3.45183 4.4271 -3.67745 4.86402C-4.37223 4.32456 -5.06698 3.7851 -5.76172 3.24569V3.37445C-5.07685 3.90154 -4.35965 4.42023 -3.71554 4.92033C-4.39761 5.68426 -5.07964 6.44819 -5.76172 7.21217V7.37729C-5.05346 6.56658 -4.35351 5.73655 -3.66813 4.96893C-3.00385 5.83938 -2.3422 6.70483 -1.67864 7.56494C-2.59582 6.32384 -3.39776 5.20734 -3.62296 4.90626C-3.4017 4.47769 -3.19833 4.02047 -3.00054 3.55309ZM1.71191 11.6573C1.65988 11.691 1.51268 11.5747 1.29909 11.3517C1.41447 11.4949 1.53022 11.6378 1.64611 11.7806C1.94528 11.5855 2.34042 11.2943 2.80069 10.9523C2.43771 11.1874 2.07481 11.4224 1.71191 11.6573ZM-5.76172 13.0122C-5.21993 13.7259 -4.64264 14.3819 -4.06361 14.6823C-4.25423 14.0894 -4.99198 13.2528 -5.76172 12.4666V13.0122ZM-0.77522 -0.761719C-1.7524 0.346345 -2.34575 2.00552 -3.00054 3.55309C-2.25792 2.11483 -1.5153 0.676535 -0.772636 -0.761719H-0.77522ZM20.4153 11.7502C22.3846 12.5026 24.5553 13.1937 26.5265 14.0241C24.6341 13.0643 22.2879 11.8709 20.4153 11.7502ZM1.29905 11.3517C0.292252 10.1022 -0.69548 8.83956 -1.67868 7.56503C-0.592097 9.03536 0.655872 10.6799 1.29905 11.3517ZM19.2072 5.05799C20.6464 3.7896 22.0855 2.52125 23.5246 1.2529C22.0277 2.3491 19.7798 3.82197 19.2072 5.05799ZM14.3316 6.8433C13.845 5.65727 13.3706 4.50112 12.8988 3.3509C13.2709 4.56463 13.8209 6.42383 14.3316 6.8433ZM10.943 7.05176C12.0137 7.00977 13.0843 6.96778 14.1549 6.92579C13.4645 6.75106 11.9961 6.92405 10.943 7.05176ZM14.4674 6.96498L14.5461 6.93549C14.5033 6.92956 14.4636 6.92092 14.4308 6.90634C14.3979 6.89181 14.3648 6.87058 14.3316 6.8433C14.3418 6.86821 14.3518 6.89274 14.3621 6.91766C14.2931 6.92037 14.2239 6.92308 14.1549 6.92579C14.3101 6.96507 14.4262 7.02176 14.4892 7.10061L18.3885 11.9855C16.6672 11.0083 14.9458 10.0312 13.2249 9.05375C12.1236 8.42239 11.0223 7.79103 9.92099 7.15963C10.1274 7.15154 10.4982 7.10569 10.943 7.05176C10.5771 7.06608 10.2112 7.08044 9.84532 7.0948C10.0287 6.32261 10.2121 5.55046 10.3955 4.77826C10.0928 5.97827 9.67084 6.79241 8.4649 7.5177C9.23998 7.2795 9.93637 7.24657 10.4652 7.54978C12.1208 8.49895 13.1446 8.53319 13.1899 10.4042C13.1899 10.4075 13.19 10.4108 13.1901 10.4141C13.2157 9.88106 13.2341 9.4322 13.2268 9.13277C15.6262 10.4951 17.9459 11.4572 19.7007 13.5732C19.8562 13.7608 20.1001 14.0096 20.3876 14.2954C19.7863 13.5702 19.1848 12.845 18.5835 12.1198C18.6213 12.0968 18.6597 12.0751 18.6987 12.0544C18.6464 12.0589 18.593 12.0623 18.5369 12.0629C17.1804 10.3636 15.824 8.66428 14.4674 6.96498ZM19.9463 10.864C20.2598 9.31788 19.3313 6.67216 19.1043 5.35496C18.8298 6.53709 19.5933 9.26157 19.9463 10.864ZM8.4649 7.5177C8.03408 7.65011 7.57898 7.8459 7.11456 8.08326C7.1166 8.11097 7.11863 8.13868 7.12062 8.16635C7.6547 7.95276 8.09632 7.73938 8.4649 7.5177ZM23.0654 17.5235C22.8261 16.6479 21.3589 15.2608 20.3876 14.2954C21.2785 15.3696 22.1693 16.4437 23.0601 17.5179C23.0616 17.5198 23.0637 17.5216 23.0654 17.5235ZM24.3709 25.666C24.6428 26.0288 24.8762 26.337 25.0499 26.5327C22.6098 26.619 20.1697 26.7053 17.7296 26.7915C15.4593 26.8719 15.1501 26.337 13.3922 24.6806C13.5885 24.6174 13.785 24.5542 13.9813 24.491C13.5477 24.5311 13.2332 24.4838 13.1034 24.3108C11.1221 21.6692 9.14079 19.0275 7.15952 16.386L13.3609 16.5643C15.9461 18.4172 18.5312 20.2703 21.1164 22.1233C20.8602 22.2057 20.4095 22.3819 19.8479 22.6029C20.1266 22.5132 20.4054 22.4235 20.6841 22.3338C20.9629 22.2441 21.2935 22.358 21.6481 22.5988C21.5447 22.4824 21.4414 22.3659 21.338 22.2495C21.2703 22.1732 21.2647 22.0204 21.3034 21.8155C21.2552 21.9113 21.2121 22.0014 21.1767 22.0829C18.6978 20.3061 16.2188 18.5293 13.7399 16.7524C13.5584 16.6224 13.4242 16.3665 13.3261 16.0243C13.33 16.1815 13.3338 16.3387 13.3376 16.4958C7.46238 16.3268 5.70648 16.3443 1.97007 12.1792C2.83289 13.2353 3.71186 14.2816 4.6165 15.3173C1.91418 15.1625 -0.788144 15.0076 -3.49047 14.8529C-3.68092 14.8419 -3.87235 14.7815 -4.06361 14.6822C-4.03298 14.7775 -4.0162 14.8666 -4.01598 14.948C-4.00857 17.4492 -4.00111 19.9504 -3.9937 22.4516C-3.98654 24.8789 -3.97929 27.3062 -3.97209 29.7335C-3.97095 30.1212 -4.20627 30.5593 -4.54769 31.007C-3.87498 30.4995 -3.20337 30.3834 -2.00722 30.5403C-2.5354 30.3918 -3.15867 30.1743 -3.90341 30.0166C-3.91841 24.9759 -3.93336 19.9353 -3.94836 14.8946C-1.08228 15.0588 1.78381 15.223 4.64985 15.3872C3.52247 19.0353 2.40478 22.5903 1.2727 26.2457C0.973013 27.2133 0.677693 28.1776 0.381526 29.147C0.0280743 30.3038 -0.406939 30.6825 -1.01004 30.706C-0.744502 30.7569 -0.458504 30.8154 -0.148355 30.8811C-0.36457 31.5887 -0.636713 32.3999 -0.830556 33.1344H-0.76484C-0.190343 31.2636 0.387416 29.4088 0.967081 27.5331L1.33074 28.1768C1.226 27.6923 1.31346 27.3238 1.72046 27.1751C4.98648 25.9815 5.18723 25.1885 7.32103 27.8559C7.8121 28.4698 8.24987 28.9496 8.60985 29.3584C7.64724 28.1551 6.68459 26.9519 5.72203 25.7486C9.01249 26.134 12.303 26.5193 15.5935 26.9047C13.7852 28.3721 11.977 29.8396 10.1687 31.3069C9.88294 30.9497 9.59724 30.5926 9.31154 30.2355C9.83566 31.0369 9.79689 31.7175 8.85373 33.1343H8.92322C9.51767 32.5307 9.86561 31.64 10.5929 31.0498C12.2773 29.683 13.9617 28.3162 15.6461 26.9494C15.7269 29.011 15.8077 31.0727 15.8887 33.1344H15.9414C15.9926 31.1576 15.7918 28.9347 15.7126 26.9144C16.3681 27.2393 16.7884 28.2735 17.0758 29.5124C17.5468 29.737 18.0177 29.9617 18.4886 30.1863C17.4757 29.4648 16.6787 28.4252 16.2197 26.9128C19.1784 26.8081 22.1372 26.7035 25.096 26.5988C25.6358 28.2358 26.1675 29.8844 26.701 31.528C26.7216 31.5187 26.7422 31.5092 26.7627 31.4994C26.2313 29.8646 25.7 28.2296 25.1685 26.5947C26.4498 26.5032 27.4735 26.6995 28.1344 26.472V26.2235C27.8556 26.3057 27.4921 26.3608 27.0178 26.3947C25.5435 26.5 25.1005 26.302 24.8823 25.6418C24.942 25.9091 25.0016 26.1764 25.0614 26.4437C24.8312 26.1845 24.6011 25.9253 24.3709 25.666ZM13.2526 24.623C10.8498 24.3412 8.44706 24.0594 6.04421 23.7776C6.4002 21.3303 6.75615 18.883 7.11211 16.4358C9.15892 19.1649 11.2058 21.8939 13.2526 24.623ZM1.0211 27.3586C1.72746 25.0729 2.43385 22.7873 3.1402 20.5016C3.19829 20.5696 3.25515 20.6367 3.31112 20.7029C3.22058 20.5211 3.18202 20.3663 3.2171 20.2529C3.7169 18.6357 4.2167 17.0185 4.71646 15.4013C6.89835 16.3071 7.10588 16.0078 6.7756 18.2786C6.51134 20.0952 6.24712 21.9117 5.98294 23.7282C5.7569 23.4634 5.13872 22.8787 4.54265 22.2515C6.66781 25.1839 5.43938 25.7442 1.0211 27.3586ZM5.68423 25.6759C5.79266 25.1065 5.78126 24.3609 6.03307 23.8445C10.0337 24.3138 12.6481 24.0725 15.5793 26.8347C12.2809 26.4484 8.98258 26.0621 5.68423 25.6759ZM28.1343 14.7626C27.6202 14.5023 27.0811 14.2578 26.5265 14.0241C27.1161 14.3231 27.6609 14.5987 28.1343 14.8127V14.7626ZM18.43 4.43074C17.6269 3.47868 16.8241 2.52671 16.021 1.57465C16.2577 2.3777 17.5355 3.55991 18.43 4.43074ZM16.021 1.57465C16.0064 1.52525 15.9944 1.47682 15.9881 1.43047C15.9846 1.40547 15.9828 1.37937 15.9819 1.35272C15.9628 1.37162 15.9437 1.39026 15.9241 1.40746C15.8789 1.44733 15.8065 1.49114 15.7134 1.53707C15.7878 1.51623 15.8621 1.49538 15.9366 1.47458L16.021 1.57465ZM24.4659 0.453838C24.3412 0.414518 24.2153 0.366513 24.0888 0.311728C24.1885 0.371809 24.2883 0.43189 24.3879 0.491971C24.1002 0.745599 23.8124 0.999226 23.5246 1.2529C23.882 0.991134 24.1966 0.750895 24.4353 0.540442C24.5472 0.749539 24.7603 1.08757 25.017 1.49572C24.8496 1.17464 24.6784 0.8511 24.5033 0.523791C24.5918 0.528494 24.6814 0.533748 24.771 0.538959C24.6672 0.513241 24.5653 0.485107 24.4659 0.453838ZM20.0859 11.5848C20.057 11.3882 20.0076 11.1425 19.9463 10.864C19.8645 11.2673 19.6979 11.5954 19.4125 11.8058C19.7259 11.7434 20.062 11.7275 20.4153 11.7502C20.3186 11.7133 20.2221 11.6762 20.1264 11.6389C22.4312 9.69892 24.7359 7.759 27.0407 5.81904C27.0147 5.75371 26.9881 5.6885 26.9616 5.62329C26.9446 5.74909 26.8982 5.85027 26.8155 5.91992C24.5723 7.80819 22.329 9.6965 20.0859 11.5848ZM23.101 17.8206C23.1094 17.8023 23.1173 17.7849 23.1241 17.7694C23.6615 20.1755 24.1988 22.5816 24.7362 24.9878C24.6663 24.5714 24.5969 24.0532 24.4551 23.4182L23.1764 17.693C23.232 17.6909 23.2876 17.6887 23.3432 17.6866C23.2191 17.6449 23.1242 17.5913 23.0653 17.5235C23.0787 17.5726 23.0897 17.6207 23.0951 17.6664C23.1009 17.7152 23.1019 17.7672 23.101 17.8206ZM18.1411 5.58732L14.5461 6.93549C15.2038 7.02663 16.9796 6.14821 18.1411 5.58732ZM3.31108 20.7029C3.52374 21.1299 4.02464 21.7066 4.54257 22.2516C4.2128 21.7965 3.803 21.2849 3.31108 20.7029ZM24.7362 24.9878C24.7791 25.243 24.8221 25.46 24.8822 25.6419C24.8336 25.4238 24.7848 25.2057 24.7362 24.9878ZM26.8383 31.9514C26.7924 31.8104 26.7467 31.6691 26.7009 31.528C26.2362 31.735 25.7304 31.8333 25.0825 31.8682C25.6697 31.9012 26.2579 31.9253 26.8383 31.9514ZM28.1085 30.4996C27.6319 30.9681 27.2147 31.287 26.7627 31.4995L26.8991 31.9193C27.3023 31.4461 27.7054 30.9728 28.1085 30.4996ZM28.1343 30.4693C28.1257 30.4794 28.1171 30.4895 28.1085 30.4996C28.1171 30.4912 28.1258 30.4824 28.1343 30.474V30.4693ZM19.4125 11.8058C19.1584 11.8564 18.9191 11.9373 18.6987 12.0544C18.9929 12.0288 19.2277 11.9421 19.4125 11.8058ZM27.9669 17.5089L23.3432 17.6866C24.2099 17.9782 26.5047 17.6844 27.9669 17.5089ZM7.03673 8.12321C5.54331 8.89931 3.9643 10.0876 2.80061 10.9523L6.9275 8.2799C6.973 8.25049 7.00898 8.19681 7.03673 8.12321ZM28.1343 17.4889C28.0799 17.4953 28.024 17.502 27.9669 17.5089C28.0227 17.5068 28.0785 17.5046 28.1343 17.5025V17.4889ZM21.3033 21.8156C21.8405 20.7466 23.0823 18.863 23.101 17.8206C22.8027 18.4697 21.4967 20.7934 21.3033 21.8156ZM13.3261 16.0244C13.2809 14.1543 13.2355 12.2842 13.1902 10.4141C13.1079 12.1277 12.9505 14.7134 13.3261 16.0244ZM21.6481 22.5989C22.5557 23.6213 23.4633 24.6436 24.3709 25.666C23.6116 24.6526 22.5516 23.2126 21.6481 22.5989ZM13.9813 24.491C15.4118 24.3586 18.1423 23.2741 19.8479 22.603C17.8923 23.2324 15.9368 23.8616 13.9813 24.491ZM-5.76172 27.4092V28.0161C-5.03702 26.0812 -4.39592 23.888 -4.05992 22.1248C-4.62722 23.8862 -5.19447 25.6478 -5.76172 27.4092ZM21.8036 31.7679C21.1893 32.2233 20.5751 32.6789 19.9609 33.1344H20.0745C20.67 32.6927 21.2655 32.2511 21.861 31.8095C22.2113 32.3147 22.4693 32.7597 22.7066 33.1344H22.8026C22.5641 32.7684 22.2999 32.3235 21.9357 31.7984C23.3104 31.8604 24.3001 31.9104 25.0826 31.8682C23.5396 31.7814 22.0042 31.6313 20.6386 31.2121C21.0269 31.3973 21.4152 31.5827 21.8036 31.7679Z" fill="white"/>
</g>
<path d="M5.65498 15.0586C5.64276 15.0586 5.63665 15.0525 5.63665 15.0403L5.64032 12.5227C5.64032 12.513 5.6452 12.5081 5.65498 12.5081H6.0654C6.07517 12.5081 6.08006 12.513 6.08006 12.5227L6.08372 15.0403C6.08372 15.0525 6.07884 15.0586 6.06907 15.0586H5.65498ZM7.08033 15.0952C6.94596 15.0952 6.82381 15.0623 6.71388 14.9963C6.60639 14.9279 6.52088 14.8375 6.45736 14.7251C6.39384 14.6127 6.36208 14.4869 6.36208 14.3477L6.36575 13.2043C6.36575 13.07 6.39629 12.9478 6.45736 12.8379C6.52088 12.7255 6.60639 12.6363 6.71388 12.5704C6.82381 12.502 6.94596 12.4678 7.08033 12.4678C7.2147 12.4678 7.33562 12.5008 7.44312 12.5667C7.55061 12.6327 7.63611 12.7219 7.69963 12.8342C7.76315 12.9442 7.79491 13.0675 7.79491 13.2043V13.3729C7.79491 13.3827 7.79002 13.3876 7.78025 13.3876H7.36983C7.36005 13.3876 7.35517 13.3827 7.35517 13.3729V13.2043C7.35517 13.1237 7.3283 13.0541 7.27455 12.9955C7.22325 12.9368 7.15851 12.9075 7.08033 12.9075C6.99238 12.9075 6.9252 12.9381 6.87878 12.9991C6.83236 13.0578 6.80916 13.1262 6.80916 13.2043V14.3477C6.80916 14.4381 6.83481 14.5114 6.88611 14.5675C6.93986 14.6237 7.0046 14.6518 7.08033 14.6518C7.15851 14.6518 7.22325 14.6213 7.27455 14.5602C7.3283 14.4967 7.35517 14.4259 7.35517 14.3477V14.1791C7.35517 14.1693 7.36005 14.1645 7.36983 14.1645H7.78392C7.79369 14.1645 7.79857 14.1693 7.79857 14.1791V14.3477C7.79857 14.4869 7.76559 14.6127 7.69963 14.7251C7.63611 14.8375 7.55061 14.9279 7.44312 14.9963C7.33562 15.0623 7.2147 15.0952 7.08033 15.0952ZM8.0812 15.0586C8.07143 15.0586 8.06654 15.0525 8.06654 15.0403L8.07021 12.5227C8.07021 12.513 8.07509 12.5081 8.08486 12.5081H9.26117C9.27095 12.5081 9.27583 12.5142 9.27583 12.5264V12.9368C9.27583 12.9466 9.27095 12.9515 9.26117 12.9515H8.50995V13.5232H9.26117C9.27095 13.5232 9.27583 13.528 9.27583 13.5378L9.2795 13.9519C9.2795 13.9617 9.27461 13.9666 9.26484 13.9666H8.50995V14.6079H9.26484C9.27461 14.6079 9.2795 14.614 9.2795 14.6262V15.0439C9.2795 15.0537 9.27461 15.0586 9.26484 15.0586H8.0812ZM9.62001 15.0586C9.61024 15.0586 9.60535 15.0525 9.60535 15.0403L9.61268 12.5227C9.61268 12.513 9.61757 12.5081 9.62734 12.5081H10.3309C10.4702 12.5081 10.5948 12.5423 10.7047 12.6107C10.8146 12.6767 10.9014 12.7646 10.9649 12.8745C11.0284 12.9845 11.0602 13.1042 11.0602 13.2337C11.0602 13.3387 11.0357 13.4364 10.9869 13.5268C10.9405 13.6172 10.8843 13.6905 10.8183 13.7467C10.8892 13.8175 10.9441 13.8994 10.9832 13.9922C11.0223 14.0851 11.0418 14.1828 11.0418 14.2854C11.0418 14.4271 11.0076 14.5566 10.9392 14.6738C10.8708 14.7911 10.778 14.8851 10.6607 14.956C10.5459 15.0244 10.4177 15.0586 10.276 15.0586H9.62001ZM10.0524 13.5195H10.3309C10.4164 13.5195 10.4848 13.4902 10.5361 13.4315C10.5899 13.3705 10.6168 13.3045 10.6168 13.2337C10.6168 13.1555 10.5887 13.0883 10.5325 13.0321C10.4763 12.9735 10.4091 12.9442 10.3309 12.9442H10.0524V13.5195ZM10.0488 14.6115H10.276C10.3639 14.6115 10.4396 14.5798 10.5032 14.5162C10.5667 14.4503 10.5984 14.3733 10.5984 14.2854C10.5984 14.1974 10.5667 14.1217 10.5032 14.0582C10.4396 13.9947 10.3639 13.9629 10.276 13.9629H10.0524L10.0488 14.6115ZM11.3199 15.0586C11.3101 15.0586 11.3052 15.0525 11.3052 15.0403L11.3125 12.5227C11.3125 12.513 11.3174 12.5081 11.3272 12.5081H12.0674C12.1993 12.5081 12.3203 12.5411 12.4302 12.607C12.5426 12.6706 12.6318 12.7573 12.6977 12.8672C12.7637 12.9747 12.7967 13.0969 12.7967 13.2337C12.7967 13.3241 12.7832 13.4059 12.7563 13.4792C12.7295 13.55 12.6977 13.6111 12.6611 13.6624C12.6244 13.7113 12.5914 13.7479 12.5621 13.7723C12.6941 13.9189 12.76 14.0912 12.76 14.289L12.7637 15.0403C12.7637 15.0525 12.7576 15.0586 12.7454 15.0586H12.3313C12.3215 15.0586 12.3166 15.0549 12.3166 15.0476V14.289C12.3166 14.2011 12.2848 14.1254 12.2213 14.0618C12.1603 13.9959 12.0845 13.9629 11.9941 13.9629H11.7523L11.7486 15.0403C11.7486 15.0525 11.7437 15.0586 11.7339 15.0586H11.3199ZM11.7523 13.5232H12.0674C12.1432 13.5232 12.2103 13.4951 12.269 13.4389C12.3276 13.3827 12.3569 13.3143 12.3569 13.2337C12.3569 13.1555 12.3276 13.0883 12.269 13.0321C12.2128 12.9759 12.1456 12.9478 12.0674 12.9478H11.7523V13.5232ZM13.0877 15.0586C13.0779 15.0586 13.073 15.0525 13.073 15.0403L13.0767 12.5227C13.0767 12.513 13.0816 12.5081 13.0914 12.5081H14.2677C14.2774 12.5081 14.2823 12.5142 14.2823 12.5264V12.9368C14.2823 12.9466 14.2774 12.9515 14.2677 12.9515H13.5164V13.5232H14.2677C14.2774 13.5232 14.2823 13.528 14.2823 13.5378L14.286 13.9519C14.286 13.9617 14.2811 13.9666 14.2713 13.9666H13.5164V14.6079H14.2713C14.2811 14.6079 14.286 14.614 14.286 14.6262V15.0439C14.286 15.0537 14.2811 15.0586 14.2713 15.0586H13.0877ZM14.4515 15.0403L14.9059 12.5227C14.9083 12.513 14.9144 12.5081 14.9242 12.5081H15.4556C15.4653 12.5081 15.4714 12.513 15.4739 12.5227L15.91 15.0403C15.9124 15.0525 15.9075 15.0586 15.8953 15.0586H15.4885C15.4788 15.0586 15.4727 15.0525 15.4702 15.0403L15.4299 14.7728H14.9315L14.8912 15.0403C14.8888 15.0525 14.8827 15.0586 14.8729 15.0586H14.4661C14.4564 15.0586 14.4515 15.0525 14.4515 15.0403ZM15.0048 14.3807H15.3566L15.2064 13.3509L15.1844 13.2153L15.1697 13.3509L15.0048 14.3807ZM16.1546 15.0586C16.1448 15.0586 16.1399 15.0525 16.1399 15.0403L16.1473 12.5264C16.1473 12.5142 16.1521 12.5081 16.1619 12.5081H16.5723C16.5821 12.5081 16.587 12.5142 16.587 12.5264V13.3949L17.1623 12.5227C17.1697 12.513 17.1782 12.5081 17.188 12.5081H17.6094C17.6192 12.5081 17.6216 12.513 17.6167 12.5227L16.9828 13.5342L17.6937 15.0439C17.6986 15.0537 17.6925 15.0586 17.6754 15.0586H17.2283C17.2161 15.0586 17.2087 15.0537 17.2063 15.0439L16.7116 13.9666L16.5833 14.1681V15.0403C16.5833 15.0525 16.5784 15.0586 16.5687 15.0586H16.1546ZM17.8723 15.0586C17.8626 15.0586 17.8577 15.0525 17.8577 15.0403L17.8613 12.5227C17.8613 12.513 17.8662 12.5081 17.876 12.5081H19.0523C19.0621 12.5081 19.067 12.5142 19.067 12.5264V12.9368C19.067 12.9466 19.0621 12.9515 19.0523 12.9515H18.3011V13.5232H19.0523C19.0621 13.5232 19.067 13.528 19.067 13.5378L19.0706 13.9519C19.0706 13.9617 19.0657 13.9666 19.056 13.9666H18.3011V14.6079H19.056C19.0657 14.6079 19.0706 14.614 19.0706 14.6262V15.0439C19.0706 15.0537 19.0657 15.0586 19.056 15.0586H17.8723ZM19.4111 15.0586C19.4014 15.0586 19.3965 15.0525 19.3965 15.0403L19.4038 12.5227C19.4038 12.513 19.4087 12.5081 19.4185 12.5081H20.1587C20.2906 12.5081 20.4115 12.5411 20.5215 12.607C20.6339 12.6706 20.723 12.7573 20.789 12.8672C20.855 12.9747 20.8879 13.0969 20.8879 13.2337C20.8879 13.3241 20.8745 13.4059 20.8476 13.4792C20.8208 13.55 20.789 13.6111 20.7523 13.6624C20.7157 13.7113 20.6827 13.7479 20.6534 13.7723C20.7853 13.9189 20.8513 14.0912 20.8513 14.289L20.855 15.0403C20.855 15.0525 20.8488 15.0586 20.8366 15.0586H20.4225C20.4128 15.0586 20.4079 15.0549 20.4079 15.0476V14.289C20.4079 14.2011 20.3761 14.1254 20.3126 14.0618C20.2515 13.9959 20.1758 13.9629 20.0854 13.9629H19.8435L19.8399 15.0403C19.8399 15.0525 19.835 15.0586 19.8252 15.0586H19.4111ZM19.8435 13.5232H20.1587C20.2344 13.5232 20.3016 13.4951 20.3602 13.4389C20.4189 13.3827 20.4482 13.3143 20.4482 13.2337C20.4482 13.1555 20.4189 13.0883 20.3602 13.0321C20.3041 12.9759 20.2369 12.9478 20.1587 12.9478H19.8435V13.5232Z" fill="black"/>
</g>
<defs>
<clipPath id="clip0_1091_567">
<rect width="26.0576" height="32.625" rx="0.847403" fill="white"/>
</clipPath>
<clipPath id="clip1_1091_567">
<rect width="33.8961" height="33.8961" fill="white" transform="translate(-5.76172 -0.761719)"/>
</clipPath>
</defs>
</svg>
