<svg width="27" height="33" viewBox="0 0 27 33" fill="none" xmlns="http://www.w3.org/2000/svg">
<rect width="26.0607" height="32.6289" rx="0.847503" fill="#E9B1BA"/>
<path d="M10.6105 7.20298L10.541 7.93792L9.14726 8.04717C9.15388 7.66204 9.16106 7.27912 9.16878 6.8984C9.17761 6.51769 9.18809 6.13477 9.20023 5.74964H10.061C10.0356 5.99131 10.0113 6.23298 9.98814 6.47465C9.96497 6.71522 9.94842 6.95799 9.93849 7.20298C9.99035 7.20518 10.0417 7.20629 10.0924 7.20629C10.1432 7.20629 10.1945 7.20629 10.2464 7.20629C10.3082 7.20629 10.3689 7.20573 10.4284 7.20463C10.488 7.20353 10.5487 7.20298 10.6105 7.20298ZM12.5356 6.80902C12.5356 6.90503 12.529 7.00103 12.5158 7.09704C12.3271 7.10918 12.1395 7.12904 11.953 7.15663C11.7665 7.18311 11.58 7.2096 11.3935 7.23608C11.4222 7.31553 11.4669 7.37899 11.5276 7.42644C11.5894 7.47389 11.6627 7.49762 11.7477 7.49762C11.7918 7.49762 11.8398 7.48934 11.8917 7.47279C11.9447 7.45623 11.9971 7.43582 12.049 7.41154C12.1008 7.38616 12.1505 7.35912 12.1979 7.33043C12.2454 7.30174 12.2862 7.27581 12.3204 7.25263L12.241 8.00413C12.1979 8.03724 12.151 8.06538 12.1003 8.08855C12.0506 8.11172 11.9988 8.13048 11.9447 8.14483C11.8906 8.15917 11.836 8.16966 11.7808 8.17628C11.7256 8.1829 11.6716 8.18621 11.6186 8.18621C11.5093 8.18621 11.4095 8.17131 11.319 8.14152C11.2285 8.11172 11.1463 8.07034 11.0724 8.01737C10.9995 7.9633 10.9355 7.89985 10.8803 7.82702C10.8252 7.75418 10.7794 7.67473 10.743 7.58866C10.7065 7.50258 10.6789 7.41154 10.6602 7.31553C10.6414 7.21953 10.632 7.12242 10.632 7.02421C10.632 6.92158 10.6414 6.81895 10.6602 6.71632C10.6789 6.6137 10.7071 6.51493 10.7446 6.42003C10.7832 6.32513 10.8312 6.2374 10.8886 6.15684C10.9471 6.07518 11.015 6.004 11.0922 5.94331C11.1695 5.88261 11.2566 5.83516 11.3537 5.80095C11.452 5.76675 11.5601 5.74964 11.6782 5.74964C11.7764 5.74964 11.8658 5.76343 11.9463 5.79102C12.028 5.81751 12.1003 5.85503 12.1632 5.90358C12.2272 5.95103 12.2824 6.00786 12.3287 6.07408C12.3762 6.14029 12.4148 6.21312 12.4446 6.29257C12.4755 6.37092 12.4981 6.45424 12.5124 6.54252C12.5279 6.6297 12.5356 6.71853 12.5356 6.80902ZM11.8735 6.72294C11.8735 6.69205 11.8702 6.6606 11.8636 6.62859C11.857 6.59549 11.8459 6.56569 11.8305 6.53921C11.8161 6.51272 11.7968 6.49121 11.7725 6.47465C11.7483 6.457 11.7179 6.44817 11.6815 6.44817C11.6374 6.44817 11.5982 6.46031 11.564 6.48458C11.5309 6.50776 11.5022 6.53755 11.4779 6.57397C11.4536 6.60928 11.4338 6.64791 11.4183 6.68984C11.4029 6.73177 11.3913 6.7704 11.3835 6.80571L11.8735 6.75936V6.72294ZM14.3978 5.81254L14.3813 6.51438L13.888 6.53424L13.8284 8.07034L13.1299 8.10676L13.067 6.57066L12.5737 6.59714L12.5936 5.81585L14.3978 5.81254ZM15.1692 6.05752C15.1681 6.10939 15.1565 6.16677 15.1344 6.22967C15.1134 6.29257 15.0831 6.35492 15.0434 6.41672C15.0036 6.47741 14.9556 6.53535 14.8994 6.59052C14.8442 6.64459 14.7818 6.68984 14.7123 6.72626C14.7123 6.72515 14.7118 6.71246 14.7107 6.68818C14.7096 6.6628 14.7079 6.63246 14.7057 6.59714C14.7046 6.56073 14.7029 6.5221 14.7007 6.48127C14.6985 6.44044 14.6969 6.40403 14.6958 6.37203C14.6273 6.34664 14.5733 6.30416 14.5335 6.24457C14.4938 6.18498 14.4739 6.11932 14.4739 6.04759C14.4739 6.00014 14.4828 5.95545 14.5004 5.91351C14.5192 5.87158 14.544 5.83516 14.5749 5.80426C14.6069 5.77226 14.6439 5.74688 14.6858 5.72812C14.7278 5.70936 14.773 5.69998 14.8216 5.69998C14.869 5.69998 14.9137 5.70936 14.9556 5.72812C14.9987 5.74688 15.0356 5.77226 15.0665 5.80426C15.0985 5.83516 15.1239 5.87158 15.1427 5.91351C15.1614 5.95545 15.1703 6.00014 15.1692 6.04759V6.05752ZM16.9668 7.29898C16.9668 7.45016 16.9403 7.58093 16.8873 7.69128C16.8355 7.80053 16.7638 7.89102 16.6722 7.96275C16.5817 8.03337 16.4752 8.08579 16.3527 8.12C16.2313 8.15311 16.1005 8.16966 15.9604 8.16966C15.9063 8.16966 15.8467 8.16249 15.7816 8.14814C15.7176 8.13379 15.6525 8.11614 15.5863 8.09517C15.5201 8.0731 15.4561 8.04993 15.3943 8.02565C15.3336 8.00027 15.2795 7.97654 15.2321 7.95447L15.3049 7.3056C15.3987 7.36188 15.5024 7.40492 15.6161 7.43471C15.7309 7.46341 15.8434 7.47775 15.9538 7.47775C15.9747 7.47775 16.0001 7.4772 16.0299 7.4761C16.0597 7.47389 16.0878 7.46892 16.1143 7.4612C16.1419 7.45237 16.1651 7.43968 16.1839 7.42313C16.2026 7.40657 16.212 7.38285 16.212 7.35195C16.212 7.33098 16.2054 7.31333 16.1921 7.29898C16.1789 7.28353 16.1618 7.27139 16.1408 7.26257C16.1198 7.25263 16.0961 7.24546 16.0696 7.24105C16.0432 7.23553 16.0172 7.23167 15.9918 7.22946C15.9665 7.22725 15.9427 7.22615 15.9207 7.22615C15.8986 7.22615 15.8809 7.22615 15.8677 7.22615C15.7728 7.22615 15.6862 7.21125 15.6078 7.18146C15.5306 7.15166 15.4638 7.10973 15.4075 7.05566C15.3523 7.00048 15.3093 6.93427 15.2784 6.85702C15.2475 6.77867 15.2321 6.69205 15.2321 6.59714C15.2321 6.46693 15.258 6.35051 15.3099 6.24788C15.3628 6.14415 15.4329 6.05642 15.5201 5.98469C15.6084 5.91186 15.7093 5.85613 15.823 5.81751C15.9367 5.77888 16.0542 5.75957 16.1756 5.75957C16.2296 5.75957 16.2854 5.76178 16.3428 5.76619C16.4001 5.7695 16.457 5.77613 16.5133 5.78606C16.5706 5.79599 16.6264 5.80868 16.6804 5.82413C16.7345 5.83958 16.7858 5.85889 16.8344 5.88206L16.7715 6.55411C16.6964 6.52873 16.6175 6.50776 16.5348 6.49121C16.4531 6.47355 16.3731 6.46472 16.2948 6.46472C16.2804 6.46472 16.2616 6.46527 16.2385 6.46638C16.2164 6.46638 16.1927 6.46803 16.1673 6.47134C16.143 6.47355 16.1182 6.47741 16.0928 6.48293C16.0674 6.48845 16.0448 6.49617 16.0249 6.5061C16.0051 6.51493 15.9891 6.52707 15.9769 6.54252C15.9648 6.55797 15.9593 6.57618 15.9604 6.59714C15.9615 6.62142 15.9703 6.64018 15.9869 6.65342C16.0045 6.66667 16.0266 6.6766 16.0531 6.68322C16.0807 6.68874 16.1105 6.69149 16.1425 6.69149C16.1756 6.69149 16.2081 6.69094 16.2401 6.68984C16.2721 6.68763 16.3019 6.68598 16.3295 6.68487C16.3571 6.68267 16.3797 6.68211 16.3974 6.68322C16.4857 6.68874 16.5651 6.7075 16.6357 6.7395C16.7064 6.7715 16.766 6.81398 16.8145 6.86695C16.8642 6.91992 16.9017 6.98338 16.9271 7.05731C16.9536 7.13014 16.9668 7.2107 16.9668 7.29898ZM6.14624 9.5508C6.14624 9.63687 6.13852 9.71522 6.12307 9.78585C6.10872 9.85537 6.08555 9.91937 6.05355 9.97786C6.02154 10.0363 5.98016 10.0904 5.9294 10.1401C5.87864 10.1897 5.81739 10.2372 5.74566 10.2824L6.13962 10.9843L5.39475 11.1299L5.13983 10.4248L4.93458 10.4314L4.90478 11.12H4.19301C4.19853 10.8684 4.2035 10.6179 4.20791 10.3685C4.21343 10.1191 4.2195 9.86861 4.22612 9.61701C4.22833 9.4901 4.23053 9.3643 4.23274 9.2396C4.23495 9.11491 4.23936 8.9891 4.24598 8.8622C4.32323 8.83351 4.39937 8.80978 4.47441 8.79102C4.54945 8.77226 4.62449 8.75792 4.69953 8.74799C4.77567 8.73695 4.85237 8.72978 4.92961 8.72647C5.00796 8.72205 5.08797 8.71985 5.16963 8.71985C5.29543 8.71985 5.41682 8.7375 5.53379 8.77281C5.65187 8.80702 5.75615 8.85889 5.84664 8.92841C5.93712 8.99793 6.00941 9.08456 6.06348 9.18829C6.11865 9.29202 6.14624 9.41286 6.14624 9.5508ZM5.40468 9.60376C5.40468 9.55742 5.39806 9.51493 5.38481 9.47631C5.37267 9.43768 5.35391 9.40458 5.32853 9.37699C5.30426 9.3483 5.27336 9.32623 5.23584 9.31078C5.19942 9.29423 5.15638 9.28595 5.10673 9.28595C5.08466 9.28595 5.06314 9.28761 5.04217 9.29092C5.0212 9.29312 5.00079 9.29699 4.98093 9.3025L4.95444 9.91827H4.99417C5.04162 9.91827 5.08962 9.9122 5.13818 9.90006C5.18784 9.88792 5.23198 9.86916 5.2706 9.84378C5.31033 9.8184 5.34233 9.78585 5.36661 9.74612C5.39199 9.70639 5.40468 9.65894 5.40468 9.60376ZM8.09285 9.80902C8.09285 9.90503 8.08623 10.001 8.07299 10.097C7.88428 10.1092 7.69669 10.129 7.51019 10.1566C7.3237 10.1831 7.1372 10.2096 6.95071 10.2361C6.9794 10.3155 7.02409 10.379 7.08478 10.4264C7.14658 10.4739 7.21997 10.4976 7.30494 10.4976C7.34908 10.4976 7.39708 10.4893 7.44895 10.4728C7.50191 10.4562 7.55433 10.4358 7.6062 10.4115C7.65806 10.3862 7.70772 10.3591 7.75517 10.3304C7.80262 10.3017 7.84345 10.2758 7.87766 10.2526L7.79821 11.0041C7.75517 11.0372 7.70827 11.0654 7.65751 11.0885C7.60785 11.1117 7.55599 11.1305 7.50191 11.1448C7.44784 11.1592 7.39322 11.1697 7.33804 11.1763C7.28287 11.1829 7.22879 11.1862 7.17582 11.1862C7.06658 11.1862 6.96671 11.1713 6.87622 11.1415C6.78573 11.1117 6.70352 11.0703 6.62958 11.0174C6.55675 10.9633 6.49275 10.8998 6.43757 10.827C6.38239 10.7542 6.3366 10.6747 6.30018 10.5887C6.26377 10.5026 6.23618 10.4115 6.21742 10.3155C6.19866 10.2195 6.18928 10.1224 6.18928 10.0242C6.18928 9.92158 6.19866 9.81895 6.21742 9.71632C6.23618 9.6137 6.26432 9.51493 6.30184 9.42003C6.34046 9.32513 6.38846 9.2374 6.44585 9.15684C6.50433 9.07518 6.5722 9.004 6.64945 8.94331C6.72669 8.88261 6.81387 8.83516 6.91098 8.80095C7.00919 8.76675 7.11734 8.74964 7.23541 8.74964C7.33363 8.74964 7.42301 8.76343 7.50357 8.79102C7.58523 8.81751 7.65751 8.85503 7.72041 8.90358C7.78442 8.95103 7.83959 9.00786 7.88594 9.07408C7.93339 9.14029 7.97201 9.21312 8.00181 9.29257C8.03271 9.37092 8.05533 9.45424 8.06968 9.54252C8.08512 9.6297 8.09285 9.71853 8.09285 9.80902ZM7.43074 9.72294C7.43074 9.69205 7.42743 9.6606 7.42081 9.62859C7.41419 9.59549 7.40315 9.56569 7.3877 9.53921C7.37335 9.51272 7.35404 9.49121 7.32977 9.47465C7.30549 9.457 7.27514 9.44817 7.23873 9.44817C7.19458 9.44817 7.15541 9.46031 7.1212 9.48458C7.0881 9.50776 7.0594 9.53755 7.03513 9.57397C7.01085 9.60928 6.99099 9.64791 6.97554 9.68984C6.96009 9.73177 6.9485 9.7704 6.94078 9.80571L7.43074 9.75936V9.72294ZM9.78123 8.88537L9.72164 9.5839C9.68964 9.57507 9.65819 9.569 9.62729 9.56569C9.59639 9.56238 9.56494 9.56073 9.53294 9.56073C9.45459 9.56073 9.37955 9.57066 9.30782 9.59052C9.2372 9.61039 9.1743 9.64073 9.11912 9.68156C9.06505 9.72239 9.02146 9.77426 8.98836 9.83716C8.95635 9.89896 8.94035 9.97234 8.94035 10.0573C8.94035 10.1191 8.94918 10.1732 8.96684 10.2195C8.9856 10.2648 9.01153 10.3028 9.04463 10.3337C9.07884 10.3635 9.11967 10.3862 9.16713 10.4016C9.21568 10.4171 9.2692 10.4248 9.32769 10.4248C9.36852 10.4248 9.41045 10.4209 9.45349 10.4132C9.49653 10.4044 9.53956 10.3928 9.5826 10.3784C9.62564 10.3641 9.66702 10.3475 9.70675 10.3288C9.74647 10.31 9.78344 10.2902 9.81765 10.2692L9.79117 11.0472C9.74813 11.0692 9.70178 11.0891 9.65212 11.1068C9.60246 11.1233 9.55115 11.1377 9.49818 11.1498C9.44632 11.163 9.3939 11.173 9.34093 11.1796C9.28906 11.1862 9.23941 11.1895 9.19195 11.1895C9.03525 11.1895 8.89235 11.1603 8.76324 11.1018C8.63523 11.0433 8.52488 10.9639 8.43218 10.8634C8.34059 10.7619 8.26941 10.6444 8.21865 10.5109C8.16789 10.3773 8.14251 10.235 8.14251 10.0838C8.14251 9.90282 8.16789 9.73398 8.21865 9.57728C8.27052 9.42058 8.34611 9.28485 8.44542 9.17008C8.54584 9.05421 8.66944 8.96372 8.81621 8.89862C8.96408 8.8324 9.13347 8.7993 9.32438 8.7993C9.40052 8.7993 9.47777 8.80537 9.55612 8.81751C9.63447 8.82965 9.70951 8.85227 9.78123 8.88537ZM11.9596 9.87854C11.9596 9.97896 11.948 10.0761 11.9248 10.1699C11.9016 10.2626 11.868 10.3497 11.8238 10.4314C11.7808 10.5131 11.7278 10.5881 11.6649 10.6565C11.6031 10.7238 11.5331 10.7818 11.4547 10.8303C11.3775 10.8789 11.2931 10.917 11.2015 10.9445C11.1099 10.971 11.0128 10.9843 10.9101 10.9843C10.8108 10.9843 10.7159 10.9716 10.6254 10.9462C10.536 10.9208 10.4522 10.8855 10.3738 10.8403C10.2955 10.7939 10.2243 10.7387 10.1603 10.6747C10.0974 10.6096 10.0433 10.5379 9.99808 10.4595C9.95393 10.3801 9.91917 10.2951 9.89379 10.2046C9.86952 10.1141 9.85738 10.0198 9.85738 9.92158C9.85738 9.82557 9.86896 9.73177 9.89214 9.64018C9.91531 9.54749 9.94842 9.46031 9.99145 9.37865C10.0356 9.29699 10.0886 9.22195 10.1504 9.15353C10.2122 9.08511 10.2811 9.02607 10.3573 8.97641C10.4345 8.92676 10.5178 8.88813 10.6072 8.86054C10.6966 8.83296 10.791 8.81916 10.8903 8.81916C11.0503 8.81916 11.1959 8.84399 11.3273 8.89365C11.4597 8.94331 11.5722 9.01449 11.6649 9.10718C11.7587 9.19877 11.831 9.31023 11.8818 9.44155C11.9336 9.57176 11.9596 9.71743 11.9596 9.87854ZM11.2246 9.92158C11.2246 9.87413 11.2175 9.82833 11.2031 9.78419C11.1899 9.73895 11.17 9.69922 11.1435 9.66501C11.117 9.6297 11.0839 9.60156 11.0442 9.58059C11.0056 9.55852 10.9609 9.54749 10.9101 9.54749C10.8583 9.54749 10.8119 9.55687 10.7711 9.57562C10.7303 9.59438 10.6949 9.62032 10.6652 9.65342C10.6365 9.68543 10.6144 9.7235 10.5989 9.76764C10.5835 9.81067 10.5758 9.85647 10.5758 9.90503C10.5758 9.95137 10.5824 9.99772 10.5956 10.0441C10.6089 10.0904 10.6287 10.1324 10.6552 10.1699C10.6817 10.2074 10.7143 10.2377 10.7529 10.2609C10.7926 10.2841 10.8384 10.2957 10.8903 10.2957C10.9421 10.2957 10.9885 10.2857 11.0293 10.2659C11.0712 10.2449 11.1066 10.2173 11.1353 10.1831C11.1639 10.1478 11.186 10.1075 11.2015 10.0623C11.2169 10.017 11.2246 9.97013 11.2246 9.92158ZM14.1131 10.3089C14.1131 10.4336 14.1114 10.5572 14.1081 10.6797C14.1059 10.8011 14.1021 10.9236 14.0965 11.0472L13.1431 11.0306C13.1762 10.8353 13.2049 10.6405 13.2292 10.4463C13.2535 10.251 13.2656 10.054 13.2656 9.85537C13.2656 9.84102 13.265 9.81785 13.2639 9.78585C13.2628 9.75384 13.2606 9.71798 13.2573 9.67825C13.254 9.63742 13.249 9.59604 13.2424 9.55411C13.2369 9.51107 13.2286 9.47189 13.2176 9.43658C13.2077 9.40127 13.195 9.37258 13.1795 9.35051C13.1652 9.32733 13.1475 9.31575 13.1266 9.31575C13.089 9.31575 13.057 9.32678 13.0305 9.34885C13.0052 9.37092 12.9836 9.39961 12.966 9.43493C12.9494 9.46914 12.9362 9.50776 12.9263 9.5508C12.9163 9.59383 12.9086 9.63687 12.9031 9.67991C12.8987 9.72294 12.8954 9.76377 12.8932 9.8024C12.8921 9.83992 12.8915 9.87082 12.8915 9.89509C12.886 10.0904 12.8816 10.2846 12.8783 10.4778C12.8749 10.6698 12.8705 10.864 12.865 11.0604L12.0208 11.0968C12.0429 10.7073 12.0639 10.3199 12.0837 9.93482C12.1047 9.54969 12.1212 9.16236 12.1334 8.77281L12.9147 8.73309L12.9081 8.99793C12.939 8.96041 12.9721 8.9251 13.0074 8.89199C13.0438 8.85889 13.0824 8.83075 13.1232 8.80758C13.1641 8.7833 13.2071 8.76454 13.2524 8.7513C13.2987 8.73695 13.3473 8.72978 13.398 8.72978C13.4918 8.72978 13.574 8.74523 13.6447 8.77613C13.7153 8.80702 13.776 8.84896 13.8267 8.90193C13.8775 8.9549 13.92 9.0178 13.9542 9.09063C13.9884 9.16236 14.016 9.23905 14.037 9.32071C14.0579 9.40237 14.0739 9.4879 14.085 9.57728C14.096 9.66556 14.1032 9.75274 14.1065 9.83881C14.1109 9.92489 14.1131 10.0082 14.1131 10.0888C14.1131 10.1693 14.1131 10.2427 14.1131 10.3089ZM16.3246 10.3089C16.3246 10.4336 16.3229 10.5572 16.3196 10.6797C16.3174 10.8011 16.3135 10.9236 16.308 11.0472L15.3546 11.0306C15.3877 10.8353 15.4164 10.6405 15.4406 10.4463C15.4649 10.251 15.477 10.054 15.477 9.85537C15.477 9.84102 15.4765 9.81785 15.4754 9.78585C15.4743 9.75384 15.4721 9.71798 15.4688 9.67825C15.4655 9.63742 15.4605 9.59604 15.4539 9.55411C15.4484 9.51107 15.4401 9.47189 15.429 9.43658C15.4191 9.40127 15.4064 9.37258 15.391 9.35051C15.3766 9.32733 15.359 9.31575 15.338 9.31575C15.3005 9.31575 15.2685 9.32678 15.242 9.34885C15.2166 9.37092 15.1951 9.39961 15.1774 9.43493C15.1609 9.46914 15.1476 9.50776 15.1377 9.5508C15.1278 9.59383 15.1201 9.63687 15.1145 9.67991C15.1101 9.72294 15.1068 9.76377 15.1046 9.8024C15.1035 9.83992 15.103 9.87082 15.103 9.89509C15.0974 10.0904 15.093 10.2846 15.0897 10.4778C15.0864 10.6698 15.082 10.864 15.0765 11.0604L14.2323 11.0968C14.2543 10.7073 14.2753 10.3199 14.2952 9.93482C14.3161 9.54969 14.3327 9.16236 14.3448 8.77281L15.1261 8.73309L15.1195 8.99793C15.1504 8.96041 15.1835 8.9251 15.2188 8.89199C15.2552 8.85889 15.2939 8.83075 15.3347 8.80758C15.3755 8.7833 15.4186 8.76454 15.4638 8.7513C15.5102 8.73695 15.5587 8.72978 15.6095 8.72978C15.7033 8.72978 15.7855 8.74523 15.8561 8.77613C15.9267 8.80702 15.9874 8.84896 16.0382 8.90193C16.0889 8.9549 16.1314 9.0178 16.1656 9.09063C16.1999 9.16236 16.2274 9.23905 16.2484 9.32071C16.2694 9.40237 16.2854 9.4879 16.2964 9.57728C16.3074 9.66556 16.3146 9.75274 16.3179 9.83881C16.3223 9.92489 16.3246 10.0082 16.3246 10.0888C16.3246 10.1693 16.3246 10.2427 16.3246 10.3089ZM18.3291 9.80902C18.3291 9.90503 18.3225 10.001 18.3092 10.097C18.1205 10.1092 17.9329 10.129 17.7464 10.1566C17.5599 10.1831 17.3734 10.2096 17.187 10.2361C17.2156 10.3155 17.2603 10.379 17.321 10.4264C17.3828 10.4739 17.4562 10.4976 17.5412 10.4976C17.5853 10.4976 17.6333 10.4893 17.6852 10.4728C17.7382 10.4562 17.7906 10.4358 17.8424 10.4115C17.8943 10.3862 17.944 10.3591 17.9914 10.3304C18.0389 10.3017 18.0797 10.2758 18.1139 10.2526L18.0345 11.0041C17.9914 11.0372 17.9445 11.0654 17.8938 11.0885C17.8441 11.1117 17.7922 11.1305 17.7382 11.1448C17.6841 11.1592 17.6295 11.1697 17.5743 11.1763C17.5191 11.1829 17.465 11.1862 17.4121 11.1862C17.3028 11.1862 17.203 11.1713 17.1125 11.1415C17.022 11.1117 16.9398 11.0703 16.8658 11.0174C16.793 10.9633 16.729 10.8998 16.6738 10.827C16.6186 10.7542 16.5728 10.6747 16.5364 10.5887C16.5 10.5026 16.4724 10.4115 16.4537 10.3155C16.4349 10.2195 16.4255 10.1224 16.4255 10.0242C16.4255 9.92158 16.4349 9.81895 16.4537 9.71632C16.4724 9.6137 16.5006 9.51493 16.5381 9.42003C16.5767 9.32513 16.6247 9.2374 16.6821 9.15684C16.7406 9.07518 16.8084 9.004 16.8857 8.94331C16.9629 8.88261 17.0501 8.83516 17.1472 8.80095C17.2454 8.76675 17.3536 8.74964 17.4717 8.74964C17.5699 8.74964 17.6593 8.76343 17.7398 8.79102C17.8215 8.81751 17.8938 8.85503 17.9567 8.90358C18.0207 8.95103 18.0758 9.00786 18.1222 9.07408C18.1696 9.14029 18.2083 9.21312 18.2381 9.29257C18.269 9.37092 18.2916 9.45424 18.3059 9.54252C18.3214 9.6297 18.3291 9.71853 18.3291 9.80902ZM17.667 9.72294C17.667 9.69205 17.6637 9.6606 17.657 9.62859C17.6504 9.59549 17.6394 9.56569 17.6239 9.53921C17.6096 9.51272 17.5903 9.49121 17.566 9.47465C17.5417 9.457 17.5114 9.44817 17.475 9.44817C17.4308 9.44817 17.3917 9.46031 17.3574 9.48458C17.3243 9.50776 17.2956 9.53755 17.2714 9.57397C17.2471 9.60928 17.2272 9.64791 17.2118 9.68984C17.1963 9.73177 17.1847 9.7704 17.177 9.80571L17.667 9.75936V9.72294ZM20.0175 8.88537L19.9579 9.5839C19.9259 9.57507 19.8944 9.569 19.8635 9.56569C19.8326 9.56238 19.8012 9.56073 19.7692 9.56073C19.6908 9.56073 19.6158 9.57066 19.5441 9.59052C19.4734 9.61039 19.4105 9.64073 19.3554 9.68156C19.3013 9.72239 19.2577 9.77426 19.2246 9.83716C19.1926 9.89896 19.1766 9.97234 19.1766 10.0573C19.1766 10.1191 19.1854 10.1732 19.2031 10.2195C19.2218 10.2648 19.2478 10.3028 19.2809 10.3337C19.3151 10.3635 19.3559 10.3862 19.4034 10.4016C19.4519 10.4171 19.5054 10.4248 19.5639 10.4248C19.6048 10.4248 19.6467 10.4209 19.6897 10.4132C19.7328 10.4044 19.7758 10.3928 19.8188 10.3784C19.8619 10.3641 19.9033 10.3475 19.943 10.3288C19.9827 10.31 20.0197 10.2902 20.0539 10.2692L20.0274 11.0472C19.9844 11.0692 19.938 11.0891 19.8884 11.1068C19.8387 11.1233 19.7874 11.1377 19.7344 11.1498C19.6826 11.163 19.6301 11.173 19.5772 11.1796C19.5253 11.1862 19.4757 11.1895 19.4282 11.1895C19.2715 11.1895 19.1286 11.1603 18.9995 11.1018C18.8715 11.0433 18.7611 10.9639 18.6684 10.8634C18.5768 10.7619 18.5057 10.6444 18.4549 10.5109C18.4041 10.3773 18.3788 10.235 18.3788 10.0838C18.3788 9.90282 18.4041 9.73398 18.4549 9.57728C18.5068 9.42058 18.5824 9.28485 18.6817 9.17008C18.7821 9.05421 18.9057 8.96372 19.0525 8.89862C19.2003 8.8324 19.3697 8.7993 19.5606 8.7993C19.6368 8.7993 19.714 8.80537 19.7924 8.81751C19.8707 8.82965 19.9457 8.85227 20.0175 8.88537ZM21.9293 8.81254L21.9128 9.51438L21.4195 9.53424L21.3599 11.0703L20.6614 11.1068L20.5985 9.57066L20.1052 9.59714L20.1251 8.81585L21.9293 8.81254Z" fill="#D22F49"/>
<g clip-path="url(#clip0_1091_632)">
<path fill-rule="evenodd" clip-rule="evenodd" d="M10.8815 27.9865C10.8009 27.9984 10.7248 28.0311 10.6606 28.0812C10.6208 28.114 10.5851 28.1515 10.5543 28.1929C10.4637 28.3207 10.4284 28.4921 10.4614 28.6452C10.504 28.8433 10.668 29.0491 10.9133 29.2121C11.0268 29.2876 11.1599 29.3498 11.2079 29.3498C11.256 29.3498 11.3895 29.2874 11.5025 29.2121C11.6902 29.0871 11.8277 28.9413 11.9036 28.7865C11.9542 28.6834 11.9733 28.5892 11.9647 28.4853C11.9578 28.4018 11.9407 28.3397 11.9047 28.2671C11.8751 28.2075 11.8499 28.1726 11.8017 28.1242C11.7317 28.054 11.6553 28.0111 11.5654 27.9918C11.5208 27.9822 11.4444 27.9823 11.3994 27.9919C11.34 28.0047 11.2906 28.0265 11.236 28.0641L11.2079 28.0834L11.1798 28.0641C11.1027 28.011 11.0313 27.9869 10.9437 27.9846C10.9229 27.984 10.9022 27.9846 10.8815 27.9865Z" fill="white"/>
</g>
<g clip-path="url(#clip1_1091_632)">
<path fill-rule="evenodd" clip-rule="evenodd" d="M12.7037 27.9865C12.6231 27.9984 12.5471 28.0311 12.4829 28.0812C12.4431 28.114 12.4074 28.1515 12.3766 28.1929C12.2859 28.3207 12.2506 28.4921 12.2836 28.6452C12.3262 28.8433 12.4903 29.0491 12.7356 29.2121C12.849 29.2876 12.9821 29.3498 13.0302 29.3498C13.0782 29.3498 13.2118 29.2874 13.3248 29.2121C13.5124 29.0871 13.6499 28.9413 13.7259 28.7865C13.7764 28.6834 13.7956 28.5892 13.787 28.4853C13.7801 28.4018 13.763 28.3397 13.7269 28.2671C13.6973 28.2075 13.6722 28.1726 13.624 28.1242C13.554 28.054 13.4775 28.0111 13.3877 27.9918C13.3431 27.9822 13.2667 27.9823 13.2217 27.9919C13.1623 28.0047 13.1129 28.0265 13.0583 28.0641L13.0302 28.0834L13.0021 28.0641C12.925 28.011 12.8535 27.9869 12.766 27.9846C12.7452 27.984 12.7244 27.9846 12.7037 27.9865Z" fill="white"/>
</g>
<g clip-path="url(#clip2_1091_632)">
<path fill-rule="evenodd" clip-rule="evenodd" d="M14.526 27.9865C14.4454 27.9984 14.3693 28.0311 14.3051 28.0812C14.2653 28.114 14.2296 28.1515 14.1988 28.1929C14.1082 28.3207 14.0729 28.4921 14.1059 28.6452C14.1485 28.8433 14.3126 29.0491 14.5579 29.2121C14.6713 29.2876 14.8044 29.3498 14.8525 29.3498C14.9005 29.3498 15.0341 29.2874 15.147 29.2121C15.3347 29.0871 15.4722 28.9413 15.5481 28.7865C15.5987 28.6834 15.6178 28.5892 15.6092 28.4853C15.6023 28.4018 15.5853 28.3397 15.5492 28.2671C15.5196 28.2075 15.4945 28.1726 15.4462 28.1242C15.3762 28.054 15.2998 28.0111 15.21 27.9918C15.1653 27.9822 15.089 27.9823 15.0439 27.9919C14.9846 28.0047 14.9351 28.0265 14.8805 28.0641L14.8525 28.0834L14.8244 28.0641C14.7472 28.011 14.6758 27.9869 14.5882 27.9846C14.5675 27.984 14.5467 27.9846 14.526 27.9865Z" fill="white"/>
</g>
<defs>
<clipPath id="clip0_1091_632">
<rect width="1.82213" height="1.82213" fill="white" transform="translate(10.2969 27.7559)"/>
</clipPath>
<clipPath id="clip1_1091_632">
<rect width="1.82213" height="1.82213" fill="white" transform="translate(12.1191 27.7559)"/>
</clipPath>
<clipPath id="clip2_1091_632">
<rect width="1.82213" height="1.82213" fill="white" transform="translate(13.9414 27.7559)"/>
</clipPath>
</defs>
</svg>
