<svg width="34" height="44" viewBox="0 0 34 44" fill="none" xmlns="http://www.w3.org/2000/svg">
<rect x="0.03125" y="0.03125" width="33.4615" height="43.5" rx="1.08818" fill="black"/>
<rect x="0.03125" y="0.03125" width="33.4615" height="43.5" rx="1.08818" stroke="#666666" stroke-width="0.0625"/>
<path d="M8.5046 20.039C8.54684 20.2912 8.76863 20.4197 8.99754 20.3246C8.99754 20.3246 11.3966 19.3278 12.9236 19.1465C14.2644 19.0932 15.5352 19.2416 16.8914 19.2801C18.9992 19.4663 22.4737 18.0799 22.4737 18.0799C22.7038 17.988 22.8575 17.7066 22.8152 17.4545L21.4442 9.27043C21.402 9.01826 21.1792 8.88703 20.9491 8.97885C20.9491 8.97885 17.4746 10.3653 15.3668 10.1791C14.0106 10.1406 12.7398 9.99224 11.399 10.0454C9.87194 10.2268 7.47293 11.2236 7.47293 11.2236C7.2441 11.3186 7.09136 11.6028 7.1336 11.855L8.5046 20.039Z" fill="#DA2E2B"/>
<path d="M11.1547 35.9608C10.8038 36.0246 10.47 35.7796 10.4091 35.4136L6.34651 10.9753C6.28566 10.6092 6.52079 10.2607 6.8717 10.1969C7.22261 10.133 7.5564 10.378 7.61725 10.744L11.6799 35.1823C11.7407 35.5483 11.5056 35.8969 11.1547 35.9608Z" fill="#E8E8E8"/>
<path d="M14.2608 13.6428C14.2002 13.648 14.1436 13.6539 14.0908 13.6606C14.0392 13.6681 13.9912 13.6754 13.9471 13.6827C13.8606 13.6968 13.7888 13.7109 13.7315 13.7249C13.6745 13.7399 13.628 13.7531 13.5921 13.7647C13.5499 13.7782 13.5166 13.7912 13.4922 13.8036C13.4912 13.7745 13.4906 13.7472 13.4902 13.7218C13.4898 13.6964 13.4887 13.672 13.4868 13.6487C13.4856 13.6243 13.4836 13.6006 13.4808 13.5774C13.4787 13.5532 13.4756 13.5282 13.4714 13.5024C13.4549 13.4012 13.437 13.3177 13.4178 13.2519C13.3994 13.186 13.3792 13.1316 13.3572 13.089C13.3351 13.0463 13.3112 13.0129 13.2855 12.9887C13.2599 12.9646 13.2324 12.9436 13.203 12.9257C13.2079 12.9674 13.2131 13.0076 13.2185 13.0464C13.2238 13.0852 13.2301 13.1262 13.2371 13.1695C13.244 13.2118 13.2522 13.2558 13.2615 13.3015C13.2708 13.3472 13.282 13.3954 13.295 13.4462C13.308 13.497 13.324 13.5511 13.3428 13.6084C13.3614 13.6649 13.3832 13.726 13.4081 13.7919C13.4066 13.7883 13.394 13.7861 13.3702 13.7853C13.3465 13.7845 13.315 13.7853 13.2757 13.788C13.2365 13.7906 13.1914 13.7951 13.1405 13.8015C13.0904 13.8069 13.0382 13.814 12.9839 13.8228C12.9131 13.8344 12.8426 13.8483 12.7725 13.8644C12.7026 13.8815 12.6403 13.9021 12.5856 13.9261C12.6031 13.894 12.617 13.8549 12.6274 13.8088C12.6386 13.7616 12.6468 13.7107 12.6521 13.656C12.6573 13.6013 12.6598 13.5442 12.6595 13.4848C12.6602 13.4251 12.6596 13.3667 12.6578 13.3094C12.6529 13.1751 12.6411 13.033 12.6223 12.8831C12.6162 12.8463 12.6087 12.7998 12.5995 12.7437C12.5913 12.6874 12.5804 12.6264 12.5668 12.5606C12.5541 12.4946 12.5394 12.4272 12.5224 12.3581C12.5064 12.289 12.4872 12.2232 12.4647 12.1607C12.4431 12.0981 12.4188 12.0416 12.3917 11.9913C12.3646 11.9409 12.3342 11.902 12.3004 11.8744C12.3683 11.8737 12.4338 11.8701 12.497 11.8636C12.56 11.8562 12.6136 11.8488 12.6577 11.8416C12.6964 11.8353 12.7316 11.8286 12.7635 11.8215C12.7963 11.8143 12.8287 11.8071 12.8606 11.8C12.8925 11.7929 12.9258 11.7856 12.9604 11.778C12.9951 11.7705 13.0336 11.7633 13.0759 11.7564C13.1339 11.7469 13.1928 11.7406 13.2528 11.7374C13.3125 11.7333 13.3704 11.7348 13.4263 11.7417C13.483 11.7475 13.5365 11.7601 13.5868 11.7792C13.638 11.7973 13.6839 11.8239 13.7245 11.8588C13.7659 11.8926 13.8009 11.936 13.8293 11.989C13.8587 12.0418 13.8795 12.1055 13.8917 12.18C13.8984 12.2214 13.8997 12.2637 13.8954 12.3069C13.892 12.35 13.8817 12.3937 13.8644 12.4381C13.8469 12.4815 13.8219 12.5248 13.7892 12.5679C13.7574 12.61 13.7163 12.6507 13.6661 12.69C13.7357 12.7061 13.7904 12.7311 13.8299 12.7653C13.8704 12.7993 13.9022 12.8404 13.9252 12.8886C13.9481 12.9368 13.965 12.9907 13.9756 13.0504C13.9871 13.1089 13.999 13.1703 14.0113 13.2344C14.0263 13.3028 14.0455 13.3653 14.0689 13.4219C14.0784 13.4459 14.0895 13.47 14.102 13.4945C14.1154 13.5187 14.1298 13.5409 14.1454 13.561C14.1619 13.581 14.1794 13.5985 14.1979 13.6134C14.2173 13.6282 14.2382 13.638 14.2608 13.6428ZM13.1503 12.6028C13.1681 12.5848 13.1877 12.5627 13.2089 12.5365C13.2309 12.5093 13.2503 12.4807 13.2671 12.4505C13.2847 12.4193 13.2984 12.3874 13.3081 12.3546C13.3179 12.3218 13.3203 12.2903 13.3154 12.2599C13.3105 12.2305 13.2979 12.208 13.2774 12.1924C13.2579 12.1767 13.2375 12.1706 13.2163 12.1741C13.1869 12.1789 13.1657 12.1965 13.1527 12.2269C13.1396 12.2565 13.131 12.2905 13.1269 12.3289C13.1237 12.3672 13.1233 12.4055 13.1258 12.4439C13.129 12.4811 13.1323 12.5099 13.1356 12.5301C13.1374 12.5411 13.1394 12.5531 13.1415 12.566C13.1434 12.5779 13.1464 12.5902 13.1503 12.6028ZM15.2842 12.1355C15.2954 12.2045 15.2963 12.2733 15.2867 12.342C15.278 12.4104 15.253 12.474 15.2116 12.5327C15.1702 12.5914 15.1096 12.6429 15.0299 12.687C14.9512 12.7311 14.8469 12.7637 14.7172 12.7848C14.7282 12.8293 14.7436 12.8655 14.7633 12.8935C14.7839 12.9213 14.8062 12.9427 14.8304 12.9576C14.8546 12.9726 14.8794 12.9827 14.9048 12.988C14.9302 12.9933 14.9533 12.9961 14.9742 12.9965C14.995 12.9969 15.0123 12.9959 15.0261 12.9937C15.0399 12.9914 15.0468 12.9903 15.0468 12.9903C15.1028 12.9746 15.1515 12.9515 15.1928 12.9211C15.2106 12.9088 15.2276 12.8942 15.2437 12.8774C15.2597 12.8597 15.2735 12.84 15.2851 12.8182C15.2974 12.7955 15.3062 12.7709 15.3113 12.7445C15.3172 12.7171 15.3184 12.6867 15.3148 12.6533C15.3485 12.7092 15.3742 12.7626 15.392 12.8135C15.4105 12.8634 15.4235 12.9109 15.4308 12.956C15.4443 13.0388 15.4416 13.1176 15.4227 13.1925C15.4045 13.2663 15.3733 13.3328 15.3291 13.3919C15.285 13.4511 15.2288 13.5004 15.1606 13.5399C15.0935 13.5801 15.0176 13.6071 14.933 13.6209C14.8502 13.6344 14.7678 13.6332 14.6859 13.6173C14.6049 13.6013 14.5294 13.5673 14.4596 13.5154C14.3905 13.4625 14.3299 13.3892 14.2778 13.2957C14.2266 13.2021 14.1895 13.0844 14.1663 12.9427C14.1413 12.7891 14.1411 12.6493 14.1659 12.5235C14.1907 12.3976 14.2338 12.2885 14.2953 12.1963C14.3566 12.1032 14.4326 12.028 14.5234 11.9707C14.6149 11.9123 14.7145 11.8743 14.8222 11.8567C14.8755 11.848 14.9276 11.8457 14.9783 11.8497C15.0299 11.8535 15.0764 11.8662 15.1177 11.8878C15.1599 11.9093 15.1956 11.9403 15.2249 11.9808C15.2541 12.0205 15.2738 12.072 15.2842 12.1355ZM14.6745 12.558C14.7001 12.5529 14.7292 12.543 14.7617 12.5282C14.7941 12.5125 14.8241 12.4935 14.8516 12.4711C14.8791 12.4486 14.9009 12.4229 14.9169 12.3938C14.9338 12.3646 14.9396 12.3334 14.9342 12.3003C14.9308 12.2791 14.9206 12.2633 14.9038 12.2528C14.887 12.2424 14.8671 12.239 14.8441 12.2428C14.8119 12.248 14.7844 12.2619 14.7616 12.2846C14.7398 12.307 14.7219 12.3335 14.708 12.3641C14.6951 12.3946 14.6858 12.4273 14.6801 12.4622C14.6745 12.4971 14.6726 12.5291 14.6745 12.558ZM17.0396 13.1864C17.0182 13.1881 16.9939 13.1901 16.967 13.1926C16.9437 13.1945 16.9163 13.1976 16.8849 13.2018C16.8544 13.2058 16.8207 13.2108 16.7839 13.2168C16.7315 13.2254 16.6761 13.2363 16.6178 13.2496C16.5595 13.2629 16.5023 13.2793 16.4459 13.2989C16.4497 13.287 16.4519 13.263 16.4526 13.227C16.4534 13.191 16.453 13.1514 16.4516 13.1081C16.4512 13.0648 16.4499 13.022 16.4477 12.9799C16.4465 12.9376 16.4454 12.9047 16.4444 12.8812C16.4409 12.9526 16.4305 13.019 16.4131 13.0804C16.3965 13.1407 16.374 13.194 16.3457 13.2402C16.3172 13.2855 16.2831 13.3227 16.2435 13.3518C16.2038 13.3809 16.1601 13.3994 16.1123 13.4072C16.0902 13.4108 16.0628 13.4139 16.0302 13.4164C15.9975 13.4189 15.9615 13.4153 15.9222 13.4056C15.8837 13.3959 15.8435 13.3779 15.8014 13.3517C15.7601 13.3244 15.72 13.2837 15.6809 13.2297C15.6427 13.1745 15.6069 13.1029 15.5736 13.0148C15.5413 12.9266 15.5144 12.8167 15.4929 12.6852C15.4749 12.5748 15.4666 12.475 15.4682 12.386C15.4705 12.2959 15.4795 12.2156 15.4954 12.145C15.5122 12.0742 15.5348 12.0129 15.5631 11.9611C15.5923 11.9081 15.6242 11.8637 15.659 11.8278C15.6947 11.7918 15.7322 11.7639 15.7715 11.7443C15.8115 11.7236 15.8509 11.7101 15.8895 11.7038C15.9328 11.6967 15.9731 11.6977 16.0104 11.7067C16.0476 11.7148 16.0824 11.728 16.1146 11.7464C16.1468 11.7638 16.1758 11.7855 16.2018 11.8115C16.2276 11.8366 16.2506 11.8621 16.2709 11.8881C16.2622 11.846 16.2528 11.8003 16.2429 11.751C16.233 11.7016 16.2225 11.6518 16.2115 11.6017C16.2004 11.5515 16.1886 11.5024 16.1761 11.4544C16.1643 11.4053 16.1522 11.3601 16.1398 11.3187C16.1283 11.2771 16.1167 11.2407 16.105 11.2096C16.0933 11.1784 16.0819 11.1553 16.0709 11.1401C16.1466 11.1409 16.2166 11.1385 16.2808 11.1327C16.3451 11.127 16.403 11.1199 16.4545 11.1115C16.4876 11.1061 16.5174 11.1007 16.5439 11.0954C16.5703 11.0893 16.5926 11.0837 16.6107 11.0789C16.6324 11.0734 16.6514 11.068 16.6675 11.0625C16.6649 11.1102 16.6655 11.1719 16.6694 11.2478C16.6731 11.3228 16.6794 11.4072 16.6881 11.5012C16.6977 11.595 16.7094 11.6956 16.7232 11.8029C16.7377 11.9092 16.7539 12.0175 16.7719 12.1279C16.7886 12.23 16.8066 12.3314 16.8259 12.4322C16.8461 12.5328 16.8675 12.6294 16.8902 12.7221C16.9127 12.8138 16.9366 12.8996 16.9619 12.9795C16.9871 13.0585 17.013 13.1275 17.0396 13.1864ZM16.3434 12.4883L16.3069 12.2647C16.3029 12.2399 16.2973 12.2148 16.2904 12.1895C16.2834 12.1642 16.2732 12.1418 16.2596 12.1223C16.2469 12.1026 16.2303 12.0878 16.2098 12.078C16.1892 12.0672 16.1632 12.0643 16.1319 12.0694C16.1099 12.073 16.0924 12.0848 16.0796 12.1049C16.0669 12.1249 16.0577 12.1495 16.052 12.1788C16.0464 12.208 16.0432 12.2402 16.0423 12.2753C16.0414 12.3104 16.0424 12.3452 16.0452 12.3797C16.0478 12.4132 16.0511 12.4448 16.055 12.4744C16.0587 12.5031 16.0619 12.5257 16.0646 12.5423C16.0687 12.5671 16.0746 12.5978 16.0825 12.6343C16.0911 12.6697 16.1023 12.7038 16.1161 12.7365C16.1298 12.7682 16.1469 12.7947 16.1674 12.8159C16.1887 12.837 16.2142 12.8451 16.2436 12.8403C16.2767 12.8349 16.3015 12.8191 16.318 12.7928C16.3345 12.7665 16.345 12.7355 16.3496 12.6998C16.3551 12.6639 16.3566 12.6273 16.3543 12.5899C16.3518 12.5516 16.3482 12.5177 16.3434 12.4883ZM15.0123 17.5447C14.9965 17.5464 14.9779 17.548 14.9564 17.5496C14.9379 17.5517 14.9157 17.5544 14.8898 17.5576C14.8648 17.5608 14.8362 17.565 14.804 17.5702C14.7442 17.58 14.6756 17.594 14.5983 17.6123C14.5218 17.6295 14.4391 17.6524 14.3503 17.6811C14.359 17.6532 14.3647 17.6159 14.3674 17.5692C14.3701 17.5216 14.3704 17.4686 14.3684 17.4104C14.3663 17.3512 14.3623 17.2891 14.3564 17.2239C14.3513 17.1577 14.3448 17.0917 14.3369 17.0259C14.3299 16.96 14.3219 16.8966 14.3129 16.8357C14.3047 16.7738 14.2971 16.7184 14.29 16.6695C14.2828 16.6196 14.2765 16.5777 14.2709 16.5437C14.2654 16.5096 14.2618 16.4875 14.2601 16.4774C14.2494 16.4178 14.2378 16.3554 14.2253 16.2904C14.2143 16.2346 14.2023 16.1723 14.1892 16.1036C14.1761 16.0349 14.1616 15.9665 14.1457 15.8982C14.1373 15.893 14.1265 15.8872 14.1132 15.8809C14.0997 15.8736 14.0827 15.8679 14.0622 15.8637C14.0415 15.8585 14.0165 15.8555 13.987 15.8547C13.9585 15.8537 13.9254 15.8562 13.8877 15.8624C13.8647 15.8661 13.8415 15.8747 13.8182 15.8879C13.7958 15.901 13.776 15.9184 13.7587 15.9401C13.7415 15.9618 13.7287 15.9875 13.7203 16.0172C13.7119 16.0469 13.7107 16.0802 13.7167 16.117L14.0595 16.0469C14.0563 16.0908 14.0564 16.1352 14.06 16.18C14.0643 16.2237 14.0702 16.269 14.0779 16.3159C14.0821 16.3416 14.0868 16.3673 14.0919 16.3929C14.097 16.4186 14.1027 16.4445 14.1089 16.4709C14.0497 16.473 13.9935 16.4756 13.9401 16.4786C13.8866 16.4808 13.8309 16.4865 13.7729 16.496C13.7819 16.5625 13.7916 16.6304 13.8019 16.6995C13.8121 16.7678 13.8227 16.8359 13.8339 16.904C13.8576 17.0494 13.8848 17.1927 13.9154 17.3341C13.9469 17.4754 13.9866 17.6115 14.0345 17.7426C13.928 17.7382 13.8191 17.7451 13.7077 17.7633C13.6498 17.7728 13.5927 17.7849 13.5366 17.7997C13.4814 17.8144 13.427 17.8313 13.3734 17.8504C13.3797 17.7559 13.3803 17.6552 13.3752 17.5484C13.37 17.4416 13.3613 17.3334 13.3491 17.224C13.3378 17.1143 13.3249 17.006 13.3102 16.8988C13.2956 16.7916 13.2815 16.691 13.268 16.5968C13.2389 16.6035 13.2071 16.6115 13.1728 16.6209C13.1383 16.6293 13.1067 16.6383 13.078 16.6477C13.076 16.6064 13.0733 16.5667 13.0699 16.5286C13.0663 16.4895 13.0613 16.4502 13.0549 16.4106C13.0492 16.3756 13.0426 16.3413 13.0352 16.3075C13.0277 16.2729 13.0176 16.2372 13.005 16.2006L13.2166 16.1774C13.201 16.0817 13.2023 15.9917 13.2207 15.9075C13.2389 15.8224 13.2719 15.7466 13.3196 15.6803C13.3681 15.6128 13.4298 15.557 13.5048 15.5126C13.5796 15.4674 13.6657 15.4368 13.7632 15.4208C13.8506 15.4066 13.9313 15.3972 14.0051 15.3927C14.0799 15.388 14.1512 15.3878 14.2189 15.3918C14.2865 15.395 14.3528 15.4016 14.4177 15.4118C14.4836 15.4218 14.5513 15.4344 14.6208 15.4495C14.6193 15.4922 14.62 15.546 14.623 15.6106C14.6269 15.6752 14.6326 15.7474 14.64 15.8275C14.6483 15.9073 14.6585 15.993 14.6706 16.0846C14.6827 16.1761 14.6966 16.2702 14.7124 16.3668C14.7304 16.4772 14.7504 16.5882 14.7724 16.6998C14.7944 16.8115 14.8181 16.919 14.8435 17.0226C14.8689 17.1261 14.8956 17.2228 14.9235 17.3127C14.9521 17.4015 14.9817 17.4789 15.0123 17.5447ZM16.5413 17.3207C16.5235 17.3217 16.503 17.3232 16.4797 17.3251C16.46 17.3264 16.4364 17.3288 16.4086 17.3324C16.3818 17.3359 16.3523 17.3402 16.3201 17.3455C16.2741 17.353 16.2238 17.3631 16.1692 17.3758C16.1155 17.3883 16.0605 17.4044 16.0042 17.4239L15.9464 17.0353C15.9338 17.178 15.8996 17.2922 15.8436 17.3779C15.7887 17.4634 15.7156 17.5135 15.6245 17.5284C15.596 17.5331 15.5632 17.5346 15.5261 17.5331C15.489 17.5316 15.4499 17.5234 15.4087 17.5084C15.3686 17.4941 15.3277 17.4715 15.2858 17.4406C15.2448 17.4095 15.2058 17.3672 15.1687 17.3138C15.1315 17.2594 15.0979 17.1922 15.0678 17.1121C15.0376 17.031 15.0132 16.9335 14.9945 16.8194C14.9693 16.6649 14.9634 16.5303 14.9768 16.4157C14.9901 16.3002 15.0154 16.2035 15.0527 16.1256C15.0901 16.0477 15.1356 15.9879 15.1892 15.9461C15.2428 15.9043 15.2977 15.8788 15.3538 15.8696C15.4017 15.8618 15.446 15.8617 15.4869 15.8692C15.5286 15.8756 15.5663 15.8869 15.6001 15.9031C15.6338 15.9184 15.6638 15.9371 15.69 15.9593C15.7163 15.9814 15.7385 16.0043 15.7565 16.0278C15.7486 15.9969 15.7391 15.9645 15.7278 15.9304C15.7165 15.8955 15.704 15.8597 15.6905 15.8232C15.7523 15.8254 15.8143 15.8233 15.8765 15.8169C15.9387 15.8105 15.9961 15.8031 16.0485 15.7945C16.1111 15.7843 16.1615 15.7747 16.1996 15.7656C16.2216 15.7611 16.2416 15.7564 16.2597 15.7515C16.2571 15.7992 16.2563 15.8522 16.2573 15.9106C16.2583 15.969 16.261 16.0314 16.2652 16.0978C16.2702 16.1631 16.2767 16.2319 16.2847 16.3042C16.2935 16.3755 16.304 16.4484 16.3162 16.523C16.3388 16.6619 16.3685 16.8001 16.4051 16.9377C16.4417 17.0753 16.4871 17.203 16.5413 17.3207ZM15.845 16.6225L15.8086 16.399C15.8045 16.3741 15.799 16.349 15.792 16.3237C15.7851 16.2984 15.7748 16.276 15.7612 16.2565C15.7486 16.2368 15.732 16.2221 15.7115 16.2122C15.6908 16.2014 15.6649 16.1986 15.6336 16.2037C15.6005 16.2091 15.5748 16.2251 15.5564 16.2517C15.539 16.2781 15.5267 16.3127 15.5195 16.3555C15.5131 16.3971 15.5116 16.446 15.5151 16.5021C15.5194 16.5571 15.5268 16.6168 15.5373 16.6812C15.5433 16.718 15.5517 16.7549 15.5624 16.7919C15.5741 16.8287 15.5885 16.8618 15.6055 16.8911C15.6224 16.9195 15.6426 16.9417 15.666 16.9578C15.6894 16.9738 15.7158 16.9794 15.7452 16.9746C15.7784 16.9692 15.8032 16.9533 15.8197 16.927C15.8361 16.9007 15.8467 16.8697 15.8512 16.834C15.8567 16.7982 15.8583 16.7616 15.856 16.7242C15.8535 16.6858 15.8499 16.652 15.845 16.6225ZM17.8001 15.4676C17.7963 15.5079 17.7953 15.5567 17.7971 15.614C17.7997 15.6702 17.8036 15.7319 17.8089 15.7991C17.814 15.8653 17.8205 15.9341 17.8284 16.0056C17.8372 16.0768 17.8458 16.1468 17.8541 16.2153C17.8747 16.3763 17.8992 16.5465 17.9276 16.7261C17.9429 16.8199 17.9519 16.9129 17.9547 17.005C17.9582 17.0961 17.9535 17.1832 17.9407 17.2666C17.9288 17.3497 17.908 17.4282 17.8785 17.502C17.849 17.5757 17.8092 17.6413 17.759 17.6986C17.7098 17.7557 17.6496 17.8038 17.5785 17.8428C17.5076 17.8827 17.4243 17.9105 17.3286 17.9261C17.2394 17.9406 17.1606 17.9441 17.0923 17.9363C17.024 17.9286 16.9654 17.9112 16.9166 17.8842C16.8689 17.858 16.8306 17.8232 16.8018 17.7797C16.774 17.737 16.7555 17.6871 16.7462 17.6301C16.737 17.574 16.7384 17.5218 16.7504 17.4736C16.7624 17.4253 16.7814 17.3826 16.8074 17.3453C16.8336 17.3089 16.8646 17.2793 16.9006 17.2564C16.9374 17.2334 16.9761 17.2186 17.0166 17.212C17.069 17.2034 17.1206 17.2101 17.1714 17.232C17.2222 17.254 17.2648 17.2947 17.2991 17.3543C17.2868 17.3487 17.2729 17.3472 17.2572 17.3498C17.2361 17.3532 17.2176 17.3647 17.202 17.3843C17.1864 17.4048 17.1806 17.427 17.1845 17.4509C17.1867 17.4647 17.1909 17.4758 17.197 17.4843C17.2042 17.4935 17.2124 17.5002 17.2215 17.5044C17.2307 17.5085 17.2401 17.5108 17.2496 17.5111C17.2601 17.5122 17.2696 17.5121 17.2778 17.5108C17.288 17.5091 17.3015 17.505 17.3183 17.4985C17.3363 17.4927 17.3546 17.4807 17.3734 17.4626C17.3922 17.4444 17.4096 17.4184 17.4258 17.3846C17.4421 17.3508 17.4545 17.3058 17.4633 17.2496C17.4721 17.1933 17.4748 17.1235 17.4716 17.0399C17.4693 16.9563 17.4586 16.856 17.4395 16.7392C17.4345 16.824 17.422 16.8922 17.402 16.9436C17.3821 16.995 17.3584 17.0353 17.3311 17.0643C17.3035 17.0924 17.2737 17.1119 17.2415 17.1228C17.2102 17.1336 17.1802 17.1413 17.1517 17.146C17.1296 17.1496 17.101 17.1505 17.0657 17.1487C17.0303 17.146 16.9918 17.1381 16.95 17.1251C16.9089 17.111 16.8659 17.0902 16.8208 17.0626C16.7764 17.0339 16.7343 16.9959 16.6945 16.9486C16.6545 16.9003 16.6184 16.8411 16.5861 16.7708C16.5546 16.6994 16.5307 16.6136 16.5143 16.5133C16.4891 16.3587 16.4834 16.2255 16.4973 16.1137C16.5121 16.0017 16.539 15.909 16.578 15.8356C16.6178 15.7611 16.6657 15.7046 16.7218 15.6662C16.7777 15.6269 16.8346 15.6025 16.8926 15.593C16.934 15.5862 16.9728 15.587 17.0091 15.5952C17.0453 15.6026 17.079 15.615 17.1102 15.6326C17.1414 15.6502 17.1698 15.671 17.1955 15.6952C17.221 15.7184 17.2443 15.7425 17.2653 15.7674C17.2532 15.7278 17.2397 15.6884 17.2248 15.6493C17.2108 15.61 17.1954 15.5705 17.1785 15.5307C17.2032 15.5371 17.2332 15.5417 17.2686 15.5444C17.2993 15.5469 17.3371 15.5474 17.3822 15.5457C17.4271 15.5431 17.4808 15.5367 17.5434 15.5265C17.617 15.5144 17.7025 15.4948 17.8001 15.4676ZM17.3253 16.2563C17.3211 16.2305 17.3142 16.2 17.3047 16.1647C17.295 16.1285 17.2824 16.0947 17.2669 16.0632C17.2512 16.0308 17.2322 16.0042 17.2099 15.9832C17.1885 15.9622 17.1636 15.954 17.135 15.9586C17.1139 15.9621 17.0966 15.9777 17.0832 16.0053C17.0696 16.0321 17.0592 16.064 17.052 16.1011C17.0456 16.1371 17.0417 16.1741 17.0404 16.2121C17.04 16.2499 17.0418 16.2817 17.046 16.3075C17.0533 16.3517 17.0629 16.3964 17.075 16.4416C17.0871 16.4869 17.1013 16.5275 17.1176 16.5636C17.1346 16.5986 17.1529 16.6268 17.1725 16.6481C17.1929 16.6694 17.2142 16.6782 17.2363 16.6746C17.2602 16.6707 17.2805 16.6617 17.2971 16.6476C17.3144 16.6325 17.328 16.6143 17.3377 16.5928C17.3482 16.5703 17.3546 16.5457 17.3568 16.5189C17.36 16.4919 17.3591 16.4637 17.3543 16.4343L17.3253 16.2563Z" fill="#E7F0FF"/>
<path d="M27.6517 21.7188C27.6094 21.4666 27.3876 21.3382 27.1587 21.4332C27.1587 21.4332 24.7597 22.43 23.2327 22.6114C21.8919 22.6646 20.6211 22.5162 19.2648 22.4777C17.1571 22.2915 13.6825 23.678 13.6825 23.678C13.4524 23.7698 13.2988 24.0512 13.341 24.3033L14.712 32.4874C14.7543 32.7395 14.977 32.8708 15.2071 32.779C15.2071 32.779 18.6817 31.3926 20.7894 31.5787C22.1457 31.6172 23.4165 31.7656 24.7573 31.7124C26.2843 31.5311 28.6833 30.5343 28.6833 30.5343C28.9121 30.4392 29.0649 30.155 29.0226 29.9028L27.6517 21.7188Z" fill="#08AD68"/>
<path d="M25.0016 5.79511C25.3525 5.73124 25.6863 5.9763 25.7471 6.34224L29.8097 30.7806C29.8706 31.1466 29.6355 31.4951 29.2845 31.559C28.9336 31.6229 28.5998 31.3779 28.539 31.0119L24.4764 6.57351C24.4155 6.20757 24.6507 5.85897 25.0016 5.79511Z" fill="#E8E8E8"/>
<path d="M18.1637 25.5821C18.1188 25.7812 18.1106 25.9685 18.1393 26.1443C18.1531 26.2289 18.1749 26.3132 18.2047 26.3971C18.2343 26.4801 18.2729 26.5635 18.3206 26.6474C18.266 26.6431 18.2157 26.6414 18.1696 26.6423C18.1234 26.6432 18.0783 26.6473 18.0341 26.6545C17.9872 26.6621 17.9401 26.6741 17.8926 26.6903C17.8452 26.7065 17.7944 26.7281 17.7403 26.7548L17.7608 26.5248C17.7472 26.5573 17.7301 26.5912 17.7094 26.6267C17.6886 26.6613 17.6623 26.6939 17.6305 26.7246C17.5996 26.7551 17.5624 26.782 17.5189 26.8051C17.4766 26.8291 17.4259 26.8458 17.3671 26.8554C17.2787 26.8698 17.1939 26.862 17.1124 26.8318C17.0319 26.8015 16.9585 26.7507 16.892 26.6793C16.8256 26.608 16.7678 26.5169 16.7185 26.4059C16.67 26.2939 16.6336 26.1638 16.6095 26.0157C16.5934 25.9172 16.5867 25.8182 16.5893 25.7186C16.5918 25.6181 16.6034 25.5213 16.6241 25.4282C16.6446 25.3341 16.6746 25.2457 16.7139 25.1627C16.7532 25.0789 16.801 25.0045 16.8575 24.9395C16.9138 24.8737 16.979 24.8191 17.0532 24.7758C17.1281 24.7315 17.2116 24.7018 17.3036 24.6868C17.3873 24.6731 17.4619 24.67 17.5273 24.6772C17.5925 24.6836 17.6505 24.6973 17.7011 24.7183C17.7517 24.7384 17.7946 24.7644 17.8301 24.7964C17.8663 24.8273 17.8964 24.8611 17.9203 24.8978C17.9442 24.9346 17.9631 24.9721 17.9769 25.0104C17.9906 25.0479 18.0002 25.0836 18.0058 25.1177C18.0137 25.1664 18.0126 25.2148 18.0025 25.2627C17.9933 25.3105 17.9763 25.3539 17.9515 25.3929C17.9267 25.4319 17.8952 25.4649 17.8572 25.4919C17.8191 25.5189 17.7752 25.5364 17.7255 25.5445C17.674 25.5529 17.6281 25.5524 17.5878 25.5429C17.5475 25.5334 17.5129 25.5183 17.484 25.4975C17.455 25.4758 17.4315 25.4503 17.4135 25.4212C17.3964 25.3918 17.3854 25.3615 17.3802 25.3303C17.3759 25.3036 17.3761 25.2757 17.3808 25.2466C17.3855 25.2175 17.3941 25.1896 17.4068 25.163C17.4155 25.1814 17.4258 25.1953 17.4377 25.2047C17.4495 25.2132 17.4608 25.2189 17.4716 25.2218C17.4836 25.2256 17.4965 25.2267 17.5105 25.2254C17.5418 25.2203 17.5626 25.2089 17.5729 25.1911C17.5841 25.1733 17.5881 25.1542 17.5848 25.1339C17.5833 25.1247 17.5795 25.1159 17.5734 25.1075C17.5681 25.098 17.5606 25.0897 17.551 25.0828C17.5413 25.0759 17.5292 25.0708 17.5145 25.0675C17.5007 25.0641 17.4841 25.064 17.4648 25.0671C17.4519 25.0692 17.4344 25.0749 17.4123 25.0842C17.391 25.0924 17.3682 25.106 17.3439 25.1251C17.3206 25.144 17.2978 25.1695 17.2756 25.2014C17.2533 25.2324 17.2348 25.2723 17.2201 25.321C17.2053 25.3697 17.1964 25.4278 17.1933 25.4954C17.1901 25.5629 17.1959 25.6418 17.2106 25.732C17.2228 25.8065 17.2394 25.8708 17.2605 25.925C17.2826 25.979 17.3077 26.0231 17.336 26.0572C17.3642 26.0913 17.3951 26.1156 17.4286 26.1299C17.4619 26.1434 17.4966 26.1472 17.5324 26.1413C17.5665 26.1357 17.5931 26.1224 17.6123 26.1013C17.6316 26.0803 17.6456 26.0562 17.6544 26.0293C17.6633 26.0024 17.6678 25.9752 17.668 25.9477C17.6683 25.9203 17.6669 25.8974 17.6639 25.879C17.6638 25.8781 17.6618 25.8718 17.658 25.8601C17.6551 25.8483 17.6487 25.8352 17.6388 25.8208C17.6289 25.8063 17.6143 25.7922 17.595 25.7783C17.5758 25.7645 17.5501 25.7545 17.5179 25.7484C17.6265 25.7307 17.7347 25.7083 17.8427 25.6812C17.9505 25.6532 18.0576 25.6202 18.1637 25.5821ZM18.9651 25.2317C18.9366 25.2364 18.9122 25.2488 18.8919 25.2692C18.8714 25.2885 18.8544 25.3145 18.8408 25.3469C18.828 25.3783 18.818 25.4153 18.8108 25.4581C18.8045 25.5006 18.8012 25.547 18.8009 25.5971C18.8136 25.6753 18.8284 25.7541 18.8451 25.8336C18.8619 25.913 18.8808 25.9911 18.9018 26.068C18.9229 26.1448 18.9459 26.2195 18.9709 26.2919C18.9969 26.3642 19.025 26.4323 19.0553 26.4963C19.0404 26.4978 19.0232 26.4992 19.0036 26.5005C18.9869 26.5023 18.9665 26.5047 18.9424 26.5076C18.9193 26.5105 18.8925 26.5144 18.8621 26.5193C18.8051 26.5286 18.7393 26.5422 18.6648 26.56C18.591 26.5768 18.5097 26.5995 18.4209 26.6282C18.4235 26.5749 18.4229 26.5103 18.419 26.4344C18.4151 26.3585 18.4088 26.2764 18.4001 26.1881C18.3913 26.0998 18.3806 26.0081 18.3679 25.9129C18.356 25.8166 18.3424 25.722 18.3272 25.6291C18.316 25.5601 18.304 25.4926 18.2914 25.4267C18.2787 25.3607 18.2658 25.2986 18.2525 25.2403C18.2401 25.1819 18.2271 25.1283 18.2135 25.0795C18.1998 25.0307 18.1864 24.989 18.1732 24.9543C18.2498 24.955 18.3189 24.9532 18.3806 24.9488C18.443 24.9434 18.4985 24.9367 18.5473 24.9287C18.5786 24.9236 18.6061 24.9186 18.6299 24.9138C18.6535 24.9081 18.6739 24.9028 18.6911 24.8981C18.7099 24.8922 18.727 24.8866 18.7422 24.8813C18.7386 24.9291 18.7387 24.9815 18.7423 25.0385C18.7807 24.9728 18.8257 24.9215 18.8773 24.8848C18.9298 24.8478 18.9809 24.8253 19.0306 24.8172C19.1134 24.8037 19.1858 24.8075 19.2478 24.8285C19.3097 24.8487 19.362 24.8803 19.405 24.9233C19.4477 24.9654 19.482 25.0161 19.5077 25.0751C19.5334 25.1342 19.5514 25.1955 19.5618 25.259C19.5718 25.3206 19.5729 25.3823 19.565 25.4441C19.5572 25.5058 19.5405 25.5628 19.515 25.6151C19.4894 25.6665 19.4546 25.7105 19.4105 25.747C19.3664 25.7834 19.3135 25.8067 19.2518 25.8168C19.1976 25.8256 19.1496 25.824 19.108 25.8119C19.0672 25.7997 19.0321 25.7809 19.0024 25.7555C18.9728 25.7301 18.9491 25.7009 18.9314 25.6679C18.9145 25.6338 18.9032 25.5993 18.8975 25.5643C18.8915 25.5275 18.8907 25.4908 18.8952 25.4542C18.9005 25.4174 18.9109 25.3832 18.9265 25.3513C18.9363 25.3705 18.9467 25.3849 18.9577 25.3944C18.9694 25.4029 18.9807 25.4086 18.9916 25.4115C19.0036 25.4153 19.016 25.4165 19.0291 25.4154C19.0631 25.4098 19.0871 25.3978 19.1011 25.3795C19.1161 25.361 19.1218 25.3412 19.1184 25.32C19.1167 25.3099 19.113 25.2987 19.1072 25.2864C19.1014 25.2741 19.0926 25.2633 19.0806 25.2539C19.0696 25.2444 19.0548 25.2374 19.0361 25.2329C19.0173 25.2274 18.9936 25.227 18.9651 25.2317ZM20.8077 24.8984C20.819 24.9674 20.8198 25.0362 20.8103 25.1048C20.8016 25.1733 20.7766 25.2369 20.7351 25.2956C20.6937 25.3543 20.6332 25.4057 20.5535 25.4499C20.4747 25.4939 20.3705 25.5265 20.2407 25.5477C20.2518 25.5922 20.2671 25.6284 20.2868 25.6564C20.3074 25.6842 20.3298 25.7055 20.354 25.7205C20.3781 25.7354 20.4029 25.7456 20.4283 25.7509C20.4538 25.7562 20.4769 25.759 20.4977 25.7594C20.5186 25.7597 20.5359 25.7588 20.5497 25.7566C20.5635 25.7543 20.5704 25.7532 20.5704 25.7532C20.6264 25.7374 20.675 25.7144 20.7164 25.684C20.7342 25.6717 20.7512 25.6571 20.7673 25.6403C20.7833 25.6226 20.7971 25.6028 20.8087 25.5811C20.821 25.5583 20.8297 25.5338 20.8349 25.5074C20.8408 25.48 20.842 25.4496 20.8384 25.4162C20.8721 25.4721 20.8978 25.5255 20.9156 25.5764C20.9341 25.6263 20.947 25.6738 20.9544 25.7188C20.9679 25.8016 20.9652 25.8805 20.9462 25.9554C20.9281 26.0292 20.8969 26.0956 20.8527 26.1548C20.8085 26.214 20.7523 26.2633 20.6842 26.3027C20.6171 26.343 20.5412 26.37 20.4565 26.3838C20.3737 26.3973 20.2914 26.3961 20.2094 26.3802C20.1284 26.3641 20.053 26.3302 19.9831 26.2783C19.914 26.2253 19.8534 26.1521 19.8013 26.0586C19.7502 25.965 19.713 25.8473 19.6899 25.7056C19.6648 25.552 19.6647 25.4122 19.6895 25.2863C19.7143 25.1604 19.7574 25.0514 19.8188 24.9592C19.8802 24.8661 19.9562 24.7908 20.047 24.7335C20.1385 24.6751 20.2381 24.6372 20.3457 24.6196C20.3991 24.6109 20.4511 24.6085 20.5018 24.6125C20.5535 24.6164 20.5999 24.6291 20.6412 24.6507C20.6834 24.6722 20.7192 24.7032 20.7485 24.7437C20.7776 24.7833 20.7974 24.8349 20.8077 24.8984ZM20.1981 25.3209C20.2237 25.3158 20.2528 25.3058 20.2853 25.2911C20.3177 25.2754 20.3476 25.2564 20.3751 25.2339C20.4026 25.2115 20.4244 25.1857 20.4404 25.1567C20.4574 25.1275 20.4632 25.0963 20.4578 25.0632C20.4543 25.042 20.4442 25.0262 20.4274 25.0157C20.4105 25.0052 20.3906 25.0019 20.3676 25.0056C20.3354 25.0109 20.3079 25.0248 20.2852 25.0474C20.2634 25.0699 20.2455 25.0964 20.2316 25.127C20.2186 25.1575 20.2093 25.1901 20.2037 25.2251C20.198 25.26 20.1962 25.2919 20.1981 25.3209ZM22.1298 24.6826C22.141 24.7516 22.1419 24.8204 22.1323 24.8891C22.1236 24.9575 22.0986 25.0211 22.0572 25.0798C22.0158 25.1385 21.9552 25.19 21.8755 25.2342C21.7968 25.2782 21.6925 25.3108 21.5628 25.3319C21.5738 25.3764 21.5892 25.4126 21.6089 25.4406C21.6295 25.4684 21.6518 25.4898 21.676 25.5047C21.7002 25.5197 21.7249 25.5298 21.7504 25.5351C21.7758 25.5404 21.7989 25.5432 21.8198 25.5436C21.8406 25.544 21.8579 25.543 21.8717 25.5408C21.8855 25.5385 21.8924 25.5374 21.8924 25.5374C21.9484 25.5217 21.9971 25.4986 22.0384 25.4683C22.0562 25.4559 22.0732 25.4413 22.0893 25.4245C22.1053 25.4068 22.1191 25.3871 22.1307 25.3654C22.143 25.3426 22.1518 25.318 22.1569 25.2917C22.1628 25.2642 22.164 25.2338 22.1604 25.2004C22.1941 25.2563 22.2198 25.3097 22.2376 25.3607C22.2561 25.4105 22.2691 25.458 22.2764 25.5031C22.2899 25.5859 22.2872 25.6647 22.2683 25.7396C22.2501 25.8134 22.2189 25.8799 22.1747 25.939C22.1306 25.9982 22.0744 26.0475 22.0062 26.087C21.9391 26.1272 21.8632 26.1542 21.7786 26.168C21.6958 26.1815 21.6134 26.1803 21.5315 26.1644C21.4505 26.1484 21.375 26.1144 21.3052 26.0625C21.2361 26.0096 21.1755 25.9364 21.1234 25.8429C21.0722 25.7492 21.0351 25.6315 21.0119 25.4899C20.9869 25.3362 20.9867 25.1964 21.0115 25.0706C21.0363 24.9447 21.0794 24.8356 21.1409 24.7434C21.2022 24.6503 21.2782 24.5751 21.369 24.5178C21.4605 24.4594 21.5601 24.4214 21.6678 24.4038C21.7211 24.3951 21.7731 24.3928 21.8239 24.3968C21.8755 24.4006 21.922 24.4134 21.9633 24.435C22.0055 24.4564 22.0412 24.4874 22.0705 24.528C22.0997 24.5676 22.1194 24.6191 22.1298 24.6826ZM21.5201 25.1051C21.5457 25.1 21.5748 25.0901 21.6073 25.0753C21.6397 25.0597 21.6697 25.0406 21.6972 25.0182C21.7247 24.9957 21.7465 24.97 21.7625 24.9409C21.7794 24.9117 21.7852 24.8805 21.7798 24.8474C21.7764 24.8263 21.7662 24.8104 21.7494 24.8C21.7326 24.7895 21.7127 24.7861 21.6897 24.7899C21.6575 24.7951 21.63 24.8091 21.6072 24.8317C21.5854 24.8541 21.5675 24.8806 21.5536 24.9112C21.5407 24.9417 21.5314 24.9744 21.5257 25.0093C21.5201 25.0442 21.5182 25.0762 21.5201 25.1051ZM23.8976 25.74C23.8683 25.7401 23.8365 25.742 23.8022 25.7457C23.768 25.7503 23.7325 25.7556 23.6957 25.7616C23.6516 25.7689 23.6066 25.7771 23.5609 25.7865C23.5163 25.7966 23.4727 25.807 23.43 25.8178C23.3874 25.8285 23.3471 25.8393 23.3092 25.8502C23.2713 25.8611 23.2384 25.8707 23.2105 25.8791C23.2283 25.7392 23.2354 25.5917 23.2318 25.4364C23.2291 25.281 23.2126 25.1109 23.1825 24.9259C23.1802 24.9121 23.1768 24.8938 23.1721 24.871C23.1683 24.848 23.1634 24.8233 23.1572 24.7969C23.151 24.7705 23.1434 24.7444 23.1344 24.7184C23.1262 24.6914 23.1162 24.6676 23.1043 24.6468C23.0934 24.626 23.0808 24.6096 23.0666 24.5977C23.0524 24.5859 23.0365 24.5814 23.019 24.5842C22.9933 24.5885 22.9695 24.6018 22.9476 24.6242C22.9267 24.6465 22.9091 24.6744 22.8947 24.708C22.8813 24.7413 22.8718 24.7788 22.8663 24.8203C22.8617 24.8616 22.8629 24.9035 22.8698 24.9458C22.8822 25.0222 22.8968 25.0996 22.9134 25.1781C22.9298 25.2557 22.9485 25.3325 22.9694 25.4084C22.9902 25.4843 23.0132 25.5585 23.0383 25.6309C23.0632 25.7024 23.0907 25.7697 23.1208 25.8328C23.105 25.8344 23.0864 25.8361 23.0649 25.8377C23.0464 25.8398 23.0246 25.8424 22.9996 25.8455C22.9746 25.8486 22.946 25.8528 22.9138 25.8581C22.854 25.8678 22.7855 25.8819 22.7082 25.9001C22.6307 25.9175 22.5476 25.9405 22.4588 25.9692C22.4614 25.9159 22.4608 25.8513 22.4569 25.7754C22.453 25.6995 22.4467 25.6174 22.4379 25.5291C22.4292 25.4408 22.4185 25.3491 22.4058 25.2539C22.3938 25.1576 22.3803 25.063 22.3651 24.9701C22.3539 24.9011 22.3419 24.8336 22.3293 24.7677C22.3166 24.7017 22.3036 24.6396 22.2903 24.5813C22.278 24.5229 22.265 24.4693 22.2513 24.4205C22.2377 24.3717 22.2243 24.33 22.2111 24.2953C22.2877 24.2961 22.3582 24.294 22.4226 24.2891C22.4868 24.2834 22.5447 24.2763 22.5962 24.2679C22.6293 24.2625 22.6587 24.2572 22.6843 24.2521C22.7107 24.2459 22.7329 24.2404 22.751 24.2355C22.7727 24.2292 22.7915 24.2233 22.8076 24.2178C22.8068 24.2472 22.8062 24.2785 22.8059 24.3116C22.8066 24.3445 22.8077 24.3803 22.8093 24.4187C22.8333 24.3751 22.86 24.3363 22.8894 24.3022C22.9186 24.2672 22.9487 24.2373 22.9796 24.2124C23.0114 24.1874 23.0436 24.1675 23.0761 24.1527C23.1085 24.1371 23.1399 24.1267 23.1702 24.1218C23.2365 24.111 23.2958 24.1155 23.3481 24.1353C23.4012 24.154 23.4482 24.1898 23.4889 24.2426C23.5306 24.2953 23.5666 24.3655 23.5969 24.4531C23.6273 24.5407 23.6527 24.6475 23.6733 24.7736C23.6874 24.8601 23.7018 24.9479 23.7163 25.0372C23.7318 25.1262 23.7484 25.2133 23.766 25.2982C23.7837 25.3832 23.8034 25.4636 23.8252 25.5393C23.8469 25.6142 23.871 25.6811 23.8976 25.74ZM20.2916 30.3475C20.2758 30.3491 20.2572 30.3507 20.2357 30.3523C20.2172 30.3544 20.195 30.3571 20.1691 30.3604C20.1441 30.3635 20.1155 30.3677 20.0833 30.373C20.0235 30.3827 19.9549 30.3967 19.8776 30.415C19.8011 30.4322 19.7184 30.4552 19.6296 30.4838C19.6383 30.456 19.644 30.4187 19.6467 30.3719C19.6494 30.3243 19.6497 30.2713 19.6477 30.2131C19.6456 30.1539 19.6416 30.0918 19.6357 30.0266C19.6306 29.9604 19.6241 29.8944 19.6162 29.8287C19.6092 29.7627 19.6012 29.6993 19.5922 29.6385C19.584 29.5765 19.5764 29.5211 19.5693 29.4722C19.5621 29.4224 19.5558 29.3804 19.5502 29.3464C19.5447 29.3123 19.541 29.2903 19.5394 29.2801C19.5287 29.2205 19.5171 29.1582 19.5046 29.0931C19.4936 29.0373 19.4816 28.9751 19.4685 28.9064C19.4554 28.8377 19.4409 28.7692 19.425 28.7009C19.4166 28.6957 19.4058 28.6899 19.3924 28.6836C19.379 28.6763 19.362 28.6706 19.3415 28.6664C19.3208 28.6613 19.2958 28.6583 19.2663 28.6574C19.2378 28.6564 19.2047 28.659 19.167 28.6651C19.144 28.6689 19.1208 28.6774 19.0975 28.6906C19.0751 28.7037 19.0553 28.7211 19.038 28.7429C19.0208 28.7646 19.008 28.7903 18.9996 28.82C18.9912 28.8497 18.99 28.8829 18.996 28.9197L19.3388 28.8496C19.3356 28.8936 19.3357 28.9379 19.3393 28.9827C19.3436 29.0264 19.3495 29.0717 19.3572 29.1186C19.3614 29.1444 19.3661 29.1701 19.3712 29.1957C19.3763 29.2213 19.382 29.2473 19.3882 29.2737C19.329 29.2758 19.2727 29.2783 19.2194 29.2814C19.1659 29.2835 19.1102 29.2893 19.0522 29.2987C19.0612 29.3653 19.0709 29.4331 19.0812 29.5023C19.0914 29.5705 19.102 29.6387 19.1132 29.7067C19.1369 29.8521 19.1641 29.9955 19.1947 30.1369C19.2262 30.2781 19.2659 30.4143 19.3138 30.5453C19.2073 30.541 19.0984 30.5479 18.987 30.566C18.9291 30.5755 18.872 30.5876 18.8159 30.6025C18.7607 30.6171 18.7063 30.6341 18.6527 30.6532C18.659 30.5586 18.6596 30.458 18.6545 30.3511C18.6493 30.2443 18.6406 30.1362 18.6284 30.0267C18.6171 29.9171 18.6042 29.8087 18.5895 29.7015C18.5749 29.5943 18.5608 29.4937 18.5473 29.3996C18.5182 29.4062 18.4864 29.4142 18.4521 29.4236C18.4176 29.4321 18.386 29.441 18.3573 29.4504C18.3553 29.4092 18.3526 29.3695 18.3492 29.3313C18.3456 29.2922 18.3406 29.2529 18.3342 29.2133C18.3285 29.1784 18.3219 29.144 18.3145 29.1103C18.307 29.0756 18.2969 29.04 18.2843 29.0033L18.4959 28.9801C18.4802 28.8844 18.4816 28.7945 18.5 28.7102C18.5182 28.6251 18.5512 28.5493 18.5989 28.483C18.6474 28.4156 18.7091 28.3597 18.7841 28.3153C18.8589 28.2701 18.945 28.2395 19.0425 28.2236C19.1299 28.2093 19.2106 28.1999 19.2844 28.1954C19.3592 28.1908 19.4305 28.1905 19.4982 28.1945C19.5658 28.1977 19.6321 28.2043 19.697 28.2145C19.7629 28.2246 19.8306 28.2371 19.9001 28.2522C19.8986 28.295 19.8993 28.3487 19.9023 28.4134C19.9062 28.4779 19.9119 28.5502 19.9193 28.6302C19.9276 28.7101 19.9378 28.7958 19.9499 28.8873C19.962 28.9788 19.9759 29.0729 19.9917 29.1695C20.0097 29.2799 20.0297 29.3909 20.0517 29.5026C20.0737 29.6142 20.0974 29.7218 20.1228 29.8253C20.1482 29.9288 20.1749 30.0255 20.2028 30.1154C20.2314 30.2043 20.261 30.2816 20.2916 30.3475ZM21.8206 30.1234C21.8028 30.1244 21.7823 30.1259 21.759 30.1278C21.7393 30.1291 21.7156 30.1316 21.6879 30.1352C21.6611 30.1386 21.6316 30.1429 21.5994 30.1482C21.5534 30.1557 21.5031 30.1658 21.4485 30.1785C21.3948 30.191 21.3398 30.2071 21.2835 30.2267L21.2257 29.838C21.2131 29.9808 21.1789 30.095 21.1229 30.1806C21.0679 30.2661 20.9949 30.3163 20.9038 30.3311C20.8753 30.3358 20.8425 30.3374 20.8054 30.3359C20.7683 30.3344 20.7292 30.3261 20.688 30.3111C20.6479 30.2969 20.6069 30.2743 20.5651 30.2433C20.5241 30.2122 20.4851 30.17 20.448 30.1165C20.4108 30.0621 20.3772 29.9949 20.3471 29.9148C20.3169 29.8338 20.2925 29.7362 20.2738 29.6221C20.2486 29.4676 20.2427 29.333 20.2561 29.2184C20.2694 29.1029 20.2947 29.0062 20.332 28.9284C20.3694 28.8505 20.4149 28.7906 20.4685 28.7488C20.5221 28.707 20.577 28.6815 20.6331 28.6724C20.681 28.6646 20.7253 28.6644 20.7662 28.6719C20.8079 28.6783 20.8456 28.6896 20.8794 28.7058C20.9131 28.7211 20.9431 28.7398 20.9693 28.762C20.9956 28.7842 21.0178 28.807 21.0358 28.8305C21.0279 28.7997 21.0184 28.7672 21.0071 28.7332C20.9958 28.6982 20.9833 28.6624 20.9698 28.6259C21.0316 28.6281 21.0936 28.626 21.1558 28.6197C21.218 28.6133 21.2754 28.6058 21.3278 28.5972C21.3904 28.587 21.4408 28.5774 21.4789 28.5683C21.5009 28.5638 21.5209 28.5591 21.539 28.5543C21.5364 28.6019 21.5356 28.655 21.5366 28.7133C21.5376 28.7717 21.5403 28.8341 21.5445 28.9005C21.5495 28.9658 21.556 29.0346 21.564 29.107C21.5728 29.1783 21.5833 29.2512 21.5955 29.3257C21.6181 29.4646 21.6478 29.6029 21.6844 29.7405C21.721 29.878 21.7664 30.0057 21.8206 30.1234ZM21.1243 29.4253L21.0879 29.2017C21.0838 29.1769 21.0783 29.1518 21.0713 29.1265C21.0644 29.1012 21.0541 29.0788 21.0405 29.0592C21.0279 29.0396 21.0113 29.0248 20.9908 29.0149C20.9701 29.0041 20.9442 29.0013 20.9129 29.0064C20.8798 29.0118 20.8541 29.0278 20.8357 29.0544C20.8183 29.0809 20.806 29.1155 20.7988 29.1582C20.7924 29.1999 20.7909 29.2487 20.7944 29.3048C20.7987 29.3599 20.8061 29.4196 20.8166 29.484C20.8226 29.5208 20.831 29.5577 20.8417 29.5946C20.8534 29.6315 20.8678 29.6645 20.8848 29.6939C20.9017 29.7223 20.9219 29.7445 20.9453 29.7605C20.9687 29.7765 20.9951 29.7821 21.0245 29.7773C21.0577 29.7719 21.0825 29.7561 21.099 29.7297C21.1154 29.7034 21.126 29.6724 21.1305 29.6368C21.136 29.6009 21.1376 29.5643 21.1353 29.5269C21.1328 29.4886 21.1291 29.4547 21.1243 29.4253ZM23.0794 28.2703C23.0756 28.3106 23.0746 28.3594 23.0764 28.4167C23.079 28.473 23.0829 28.5347 23.0882 28.6018C23.0933 28.668 23.0998 28.7369 23.1077 28.8083C23.1165 28.8796 23.1251 28.9495 23.1334 29.018C23.154 29.179 23.1785 29.3493 23.2069 29.5288C23.2222 29.6227 23.2312 29.7156 23.234 29.8077C23.2375 29.8988 23.2328 29.986 23.22 30.0693C23.2081 30.1525 23.1873 30.2309 23.1578 30.3047C23.1283 30.3785 23.0885 30.444 23.0383 30.5013C22.9891 30.5585 22.9289 30.6065 22.8578 30.6455C22.7869 30.6854 22.7036 30.7132 22.6079 30.7288C22.5187 30.7434 22.4399 30.7468 22.3716 30.739C22.3033 30.7313 22.2447 30.7139 22.1959 30.687C22.1482 30.6608 22.1099 30.6259 22.0811 30.5824C22.0533 30.5397 22.0348 30.4899 22.0255 30.4328C22.0163 30.3767 22.0177 30.3245 22.0297 30.2763C22.0417 30.2281 22.0607 30.1853 22.0867 30.148C22.1129 30.1116 22.1439 30.082 22.1799 30.0591C22.2167 30.0361 22.2554 30.0213 22.2959 30.0147C22.3483 30.0061 22.3999 30.0128 22.4507 30.0348C22.5015 30.0567 22.5441 30.0974 22.5784 30.157C22.5661 30.1515 22.5522 30.15 22.5365 30.1525C22.5154 30.156 22.4969 30.1675 22.4812 30.187C22.4657 30.2075 22.4599 30.2297 22.4638 30.2536C22.466 30.2674 22.4702 30.2786 22.4763 30.287C22.4835 30.2962 22.4917 30.3029 22.5008 30.3071C22.51 30.3113 22.5194 30.3135 22.5289 30.3139C22.5394 30.315 22.5489 30.3148 22.5571 30.3135C22.5673 30.3118 22.5808 30.3077 22.5976 30.3012C22.6156 30.2954 22.6339 30.2835 22.6527 30.2653C22.6715 30.2471 22.6889 30.2211 22.7051 30.1873C22.7213 30.1535 22.7338 30.1085 22.7426 30.0523C22.7514 29.9961 22.7541 29.9262 22.7509 29.8427C22.7486 29.759 22.7379 29.6587 22.7188 29.5419C22.7138 29.6268 22.7013 29.6949 22.6813 29.7463C22.6614 29.7978 22.6377 29.838 22.6104 29.867C22.5828 29.8951 22.553 29.9146 22.5207 29.9256C22.4894 29.9363 22.4595 29.9441 22.431 29.9487C22.4089 29.9523 22.3803 29.9532 22.345 29.9514C22.3096 29.9487 22.2711 29.9408 22.2293 29.9278C22.1882 29.9137 22.1452 29.8929 22.1001 29.8653C22.0557 29.8366 22.0136 29.7987 21.9738 29.7513C21.9338 29.7031 21.8977 29.6438 21.8654 29.5735C21.8339 29.5021 21.81 29.4163 21.7936 29.316C21.7684 29.1615 21.7627 29.0283 21.7766 28.9164C21.7914 28.8045 21.8183 28.7118 21.8573 28.6383C21.8971 28.5638 21.945 28.5074 22.0011 28.4689C22.057 28.4296 22.1139 28.4052 22.1719 28.3957C22.2133 28.389 22.2521 28.3897 22.2884 28.398C22.3246 28.4053 22.3583 28.4177 22.3895 28.4353C22.4207 28.4529 22.4491 28.4738 22.4748 28.4979C22.5003 28.5211 22.5236 28.5452 22.5446 28.5701C22.5325 28.5305 22.519 28.4912 22.5041 28.452C22.4901 28.4127 22.4747 28.3732 22.4578 28.3335C22.4825 28.3398 22.5125 28.3444 22.5479 28.3471C22.5785 28.3497 22.6164 28.3501 22.6615 28.3484C22.7064 28.3458 22.7601 28.3394 22.8227 28.3292C22.8963 28.3172 22.9818 28.2976 23.0794 28.2703ZM22.6046 29.059C22.6004 29.0332 22.5935 29.0027 22.584 28.9674C22.5743 28.9312 22.5617 28.8974 22.5462 28.8659C22.5305 28.8335 22.5115 28.8069 22.4892 28.786C22.4678 28.7649 22.4429 28.7567 22.4143 28.7614C22.3932 28.7648 22.3759 28.7804 22.3625 28.8081C22.3489 28.8349 22.3385 28.8668 22.3313 28.9038C22.3249 28.9398 22.321 28.9768 22.3197 29.0148C22.3193 29.0527 22.3211 29.0845 22.3253 29.1102C22.3326 29.1544 22.3422 29.1991 22.3543 29.2444C22.3664 29.2896 22.3806 29.3303 22.3969 29.3663C22.4139 29.4013 22.4322 29.4295 22.4518 29.4509C22.4722 29.4721 22.4935 29.4809 22.5156 29.4773C22.5395 29.4734 22.5598 29.4644 22.5764 29.4504C22.5937 29.4353 22.6073 29.417 22.617 29.3956C22.6275 29.3731 22.6339 29.3484 22.6361 29.3216C22.6393 29.2947 22.6384 29.2665 22.6336 29.237L22.6046 29.059Z" fill="#E7F0FF"/>
</svg>
