<svg width="45" height="44" viewBox="0 0 45 44" fill="none" xmlns="http://www.w3.org/2000/svg">
<path d="M44.9501 30.4119C44.9501 28.894 43.8296 27.6256 42.2994 27.204C43.3908 26.6157 44.1292 25.5506 44.1292 24.3206C44.1292 23.6475 43.9048 23.0238 43.5278 22.4976C44.3879 21.8804 44.9501 20.9394 44.9501 19.871C44.9501 18.6582 44.2331 17.604 43.1668 17.0105C43.5543 16.4793 43.7834 15.8456 43.7834 15.1623C43.7834 13.9258 43.0367 12.8564 41.9359 12.2702C42.8048 11.6532 43.3729 10.7072 43.3729 9.6325C43.3729 9.01559 43.1756 8.44502 42.8545 7.94768C43.1756 7.45033 43.3729 6.87976 43.3729 6.26285C43.3729 4.45485 41.79 2.99148 39.8078 2.90887C39.2843 1.6178 37.9226 0.691233 36.3096 0.691233C34.679 0.691233 33.307 1.63908 32.7966 2.95222C32.1248 2.05712 30.9886 1.46887 29.6999 1.46887C29.1142 1.46887 28.5671 1.60102 28.0736 1.81768C27.4495 0.742076 26.2146 0 24.7751 0C23.219 0 21.8871 0.858447 21.3249 2.07829C20.6707 1.57086 19.8304 1.25281 18.8997 1.25281C17.7321 1.25281 16.7026 1.74566 16.0172 2.50212C15.4419 1.30965 14.1265 0.473974 12.5921 0.473974C11.1092 0.473974 9.83938 1.2592 9.23565 2.38815C8.55121 1.69672 7.5662 1.25281 6.45753 1.25281C4.39382 1.25281 2.72088 2.76153 2.72088 4.62247C2.72088 4.99266 2.80319 5.34217 2.92545 5.6753C1.64707 6.2105 0.755162 7.37062 0.755162 8.72531C0.755162 9.88852 1.40884 10.9139 2.40293 11.5195C1.64827 12.1361 1.16561 13.0179 1.16561 14.0085C1.16561 14.747 1.4367 15.4242 1.88341 15.9795C1.0807 16.5976 0.560777 17.5055 0.560777 18.5319C0.560777 19.5853 1.10797 20.5137 1.94724 21.1317C1.59493 21.646 1.38167 22.2464 1.38167 22.8952C1.38167 23.7891 1.77443 24.5962 2.40443 25.1994C1.00079 25.6841 0 26.902 0 28.3381C0 29.7744 1.00079 30.9923 2.40453 31.4772C1.77453 32.0805 1.38177 32.8876 1.38177 33.7815C1.38177 34.3306 1.54119 34.8413 1.7996 35.2993C1.15582 35.9045 0.755262 36.722 0.755262 37.627C0.755262 39.488 2.4284 40.9967 4.49221 40.9967C4.79158 40.9967 5.07876 40.9565 5.35775 40.8967C5.88177 42.1869 7.24316 43.1127 8.85537 43.1127C9.6366 43.1127 10.3604 42.8952 10.96 42.5258C11.6349 43.1272 12.5616 43.5 13.5855 43.5C14.7966 43.5 15.862 42.9722 16.5448 42.1668C17.2277 42.9722 18.2929 43.5 19.504 43.5C20.7305 43.5 21.8092 42.9599 22.4905 42.137C23.0747 42.478 23.7675 42.6809 24.5153 42.6809C25.2207 42.6809 25.873 42.4942 26.4357 42.1881C27.1195 42.9809 28.1756 43.5 29.3756 43.5C30.573 43.5 31.6269 42.983 32.3107 42.1931C32.9793 42.7595 33.8728 43.1127 34.8624 43.1127C36.0439 43.1127 37.0843 42.6085 37.7693 41.8367C38.4265 42.3558 39.2773 42.6809 40.2194 42.6809C42.2833 42.6809 43.9563 41.1722 43.9563 39.3113C43.9563 38.7043 43.7643 38.1429 43.453 37.6511C43.8765 37.1047 44.1292 36.4428 44.1292 35.7256C44.1292 34.7931 43.7089 33.9497 43.03 33.3394C44.1704 32.7624 44.9501 31.6749 44.9501 30.4119Z" fill="url(#paint0_linear_1091_590)"/>
<path opacity="0.3" d="M38.262 37.3892H7.01237C6.92147 37.3892 6.84766 37.3155 6.84766 37.2245V7.61784C6.84766 7.52694 6.92137 7.45312 7.01237 7.45312H38.262C38.3529 7.45312 38.4267 7.52684 38.4267 7.61784V37.2246C38.4266 37.3155 38.3529 37.3892 38.262 37.3892Z" fill="#C43333"/>
<path d="M37.6435 36.6311H7.63183C7.54503 36.6311 7.47461 36.5606 7.47461 36.4738V8.36426C7.47461 8.27745 7.54503 8.20703 7.63183 8.20703H37.6435C37.7303 8.20703 37.8007 8.27745 37.8007 8.36426V36.4738C37.8008 36.5606 37.7304 36.6311 37.6435 36.6311Z" fill="#FFDEDE"/>
<path d="M11.9581 24.6684C11.631 24.6931 11.3052 24.7165 10.9808 24.7385C10.6592 24.7605 10.3348 24.7811 10.0076 24.8003C9.99388 24.2753 9.98288 23.7543 9.97464 23.2375C9.96639 22.7179 9.95127 22.1942 9.92928 21.6664C10.1135 21.6636 10.2949 21.6581 10.4736 21.6499C10.6523 21.6416 10.8324 21.6306 11.0138 21.6169C10.9836 21.8203 10.9547 22.0251 10.9272 22.2313C10.9025 22.4348 10.8832 22.6396 10.8695 22.8457C10.8585 23.0189 10.8488 23.1921 10.8406 23.3653C10.8351 23.5358 10.8296 23.7076 10.8241 23.8808C11.0055 23.8863 11.1842 23.889 11.3602 23.889C11.5389 23.889 11.7176 23.8918 11.8963 23.8973L11.9581 24.6684ZM15.1539 22.9117C15.1539 23.1426 15.1457 23.3722 15.1292 23.6004C15.1127 23.8285 15.0962 24.0567 15.0797 24.2849C14.7718 24.3124 14.4653 24.3358 14.1601 24.355C13.855 24.3742 13.5485 24.3839 13.2406 24.3839C13.2131 24.3839 13.1622 24.3839 13.088 24.3839C13.0138 24.3811 12.9354 24.3784 12.8529 24.3756C12.7705 24.3701 12.6921 24.3646 12.6179 24.3591C12.5437 24.3509 12.4942 24.3399 12.4694 24.3261C12.3787 24.2766 12.3155 24.2148 12.2798 24.1406C12.244 24.0636 12.2261 23.977 12.2261 23.8808C12.2261 23.8478 12.2275 23.8038 12.2303 23.7488C12.233 23.6938 12.2385 23.6361 12.2468 23.5756C12.255 23.5151 12.266 23.4588 12.2798 23.4066C12.2935 23.3543 12.31 23.3158 12.3292 23.2911C12.354 23.2581 12.4103 23.2306 12.4983 23.2086C12.5863 23.1839 12.6907 23.1646 12.8117 23.1509C12.9354 23.1371 13.0674 23.1262 13.2076 23.1179C13.3505 23.1097 13.4866 23.1042 13.6158 23.1014C13.745 23.0959 13.8605 23.0932 13.9622 23.0932C14.0639 23.0932 14.1368 23.0932 14.1808 23.0932C14.189 23.0327 14.1931 22.9736 14.1931 22.9158C14.1931 22.9103 14.1931 22.8966 14.1931 22.8746C14.1931 22.8499 14.1917 22.8347 14.189 22.8292C14.1808 22.8128 14.1546 22.799 14.1107 22.788C14.0667 22.777 14.0117 22.7688 13.9457 22.7633C13.8825 22.7578 13.8124 22.7536 13.7354 22.7509C13.6612 22.7454 13.5883 22.7427 13.5168 22.7427C13.4454 22.7427 13.3821 22.7427 13.3272 22.7427C13.2722 22.7427 13.2323 22.7427 13.2076 22.7427C13.0344 22.7427 12.8612 22.7468 12.688 22.755C12.5148 22.7605 12.3416 22.766 12.1684 22.7715C12.1794 22.6671 12.1877 22.5612 12.1932 22.454C12.2014 22.3468 12.2028 22.2409 12.1973 22.1365C12.398 22.1007 12.5986 22.076 12.7993 22.0623C13.0028 22.0458 13.2076 22.0375 13.4138 22.0375C13.488 22.0375 13.5691 22.0389 13.6571 22.0416C13.745 22.0416 13.833 22.0444 13.921 22.0499C14.0089 22.0526 14.0955 22.0581 14.1808 22.0664C14.2687 22.0746 14.3498 22.0856 14.424 22.0994C14.501 22.1131 14.5766 22.1379 14.6508 22.1736C14.7278 22.2093 14.7993 22.2533 14.8653 22.3055C14.9313 22.3578 14.989 22.4183 15.0385 22.487C15.088 22.553 15.1237 22.6244 15.1457 22.7014C15.1484 22.7097 15.1498 22.7234 15.1498 22.7427C15.1526 22.7619 15.1539 22.7839 15.1539 22.8086C15.1539 22.8306 15.1539 22.8512 15.1539 22.8705C15.1539 22.8897 15.1539 22.9035 15.1539 22.9117ZM14.2344 23.8808V23.353C14.1546 23.3502 14.0749 23.3488 13.9952 23.3488C13.9155 23.3461 13.8357 23.3447 13.756 23.3447C13.7395 23.3447 13.6928 23.3461 13.6158 23.3488C13.5416 23.3488 13.4605 23.3516 13.3725 23.3571C13.2873 23.3626 13.2089 23.3694 13.1375 23.3777C13.066 23.3859 13.0248 23.3983 13.0138 23.4148C13 23.4368 12.9904 23.4602 12.9849 23.4849C12.9821 23.5069 12.9808 23.5303 12.9808 23.555C12.9808 23.5743 12.9821 23.6004 12.9849 23.6334C12.9876 23.6663 12.9918 23.7007 12.9973 23.7364C13.0055 23.7722 13.0138 23.8052 13.022 23.8354C13.0303 23.8657 13.0413 23.8877 13.055 23.9014C13.066 23.9151 13.0839 23.9261 13.1086 23.9344C13.1361 23.9399 13.165 23.9454 13.1952 23.9509C13.2254 23.9536 13.2557 23.9564 13.2859 23.9591C13.3162 23.9591 13.3395 23.9591 13.356 23.9591C13.422 23.9591 13.4921 23.9564 13.5663 23.9509C13.6433 23.9454 13.7203 23.9399 13.7973 23.9344C13.877 23.9261 13.954 23.9179 14.0282 23.9096C14.1024 23.8986 14.1711 23.889 14.2344 23.8808ZM17.6034 24.0416L17.5333 24.7674C17.4453 24.7729 17.3573 24.777 17.2694 24.7797C17.1814 24.7852 17.0934 24.788 17.0054 24.788C16.9587 24.788 16.8969 24.7866 16.8199 24.7839C16.7429 24.7811 16.6632 24.777 16.5807 24.7715C16.4982 24.7632 16.4199 24.7536 16.3457 24.7426C16.2714 24.7289 16.2123 24.7124 16.1683 24.6931C16.1024 24.6629 16.0474 24.623 16.0034 24.5735C15.9622 24.5241 15.9278 24.4705 15.9003 24.4127C15.8728 24.3522 15.8508 24.289 15.8343 24.223C15.8178 24.1543 15.8055 24.087 15.7972 24.021C15.789 23.9578 15.7821 23.8904 15.7766 23.8189C15.7739 23.7447 15.7711 23.6691 15.7684 23.5921C15.7684 23.5151 15.7684 23.4409 15.7684 23.3694C15.7684 23.2952 15.7684 23.2265 15.7684 23.1633V23.0396H15.5127C15.5237 22.9158 15.5292 22.7935 15.5292 22.6725C15.5319 22.5516 15.5388 22.4293 15.5498 22.3055L15.7972 22.3138V21.7035C15.9539 21.7337 16.1092 21.7502 16.2632 21.753C16.4199 21.753 16.5766 21.7585 16.7333 21.7695L16.725 22.4004L17.0714 22.421C17.0714 22.4403 17.0714 22.4581 17.0714 22.4746C17.0742 22.4911 17.0756 22.509 17.0756 22.5282C17.0756 22.6052 17.0687 22.6808 17.0549 22.755C17.0439 22.8265 17.0288 22.8994 17.0096 22.9736H16.7085C16.703 23.1 16.6989 23.2265 16.6962 23.353C16.6934 23.4794 16.6921 23.6059 16.6921 23.7323C16.6921 23.7928 16.6934 23.8478 16.6962 23.8973C16.7017 23.944 16.7127 23.9839 16.7292 24.0169C16.7484 24.0498 16.7786 24.0746 16.8199 24.0911C16.8611 24.1076 16.9189 24.1158 16.9931 24.1158C17.0948 24.1158 17.1965 24.109 17.2982 24.0952C17.3999 24.0815 17.5017 24.0636 17.6034 24.0416ZM20.4281 23.2416C20.0679 23.2609 19.7092 23.2774 19.3518 23.2911C18.9944 23.3021 18.6357 23.3145 18.2755 23.3282C18.2728 23.3392 18.2714 23.3502 18.2714 23.3612C18.2714 23.3722 18.2714 23.3832 18.2714 23.3942C18.2714 23.4877 18.292 23.5591 18.3333 23.6086C18.3772 23.6581 18.4309 23.6938 18.4941 23.7158C18.5573 23.7351 18.6274 23.7461 18.7044 23.7488C18.7814 23.7516 18.8528 23.7529 18.9188 23.7529C19.103 23.7529 19.2872 23.7474 19.4714 23.7364C19.6556 23.7227 19.8411 23.709 20.0281 23.6952L20.0611 24.3509C19.8796 24.3591 19.6982 24.366 19.5167 24.3715C19.3381 24.377 19.158 24.3797 18.9766 24.3797C18.9381 24.3797 18.8666 24.3797 18.7621 24.3797C18.6604 24.377 18.5504 24.3729 18.4322 24.3674C18.3168 24.3591 18.2082 24.3495 18.1065 24.3385C18.0047 24.3275 17.9374 24.3124 17.9044 24.2931C17.8192 24.2437 17.7518 24.1804 17.7023 24.1035C17.6556 24.0265 17.6185 23.9426 17.591 23.8519C17.5663 23.7612 17.5484 23.6691 17.5374 23.5756C17.5292 23.4794 17.5237 23.3873 17.5209 23.2993C17.5182 23.2856 17.5168 23.2719 17.5168 23.2581C17.5195 23.2416 17.5209 23.2265 17.5209 23.2127C17.5209 23.067 17.536 22.9323 17.5663 22.8086C17.5993 22.6822 17.6584 22.5598 17.7436 22.4416C17.8013 22.3592 17.8865 22.2904 17.9992 22.2354C18.112 22.1805 18.2343 22.1379 18.3663 22.1076C18.4982 22.0746 18.6302 22.0526 18.7621 22.0416C18.8941 22.0279 19.0082 22.021 19.1044 22.021C19.1896 22.021 19.2941 22.0293 19.4178 22.0458C19.5415 22.0595 19.6638 22.0842 19.7848 22.12C19.9085 22.1557 20.0198 22.2025 20.1188 22.2602C20.2178 22.3152 20.2851 22.3839 20.3209 22.4664C20.3264 22.4829 20.3319 22.5117 20.3374 22.553C20.3456 22.5915 20.3538 22.6368 20.3621 22.689C20.3703 22.7385 20.3772 22.7921 20.3827 22.8499C20.391 22.9076 20.3978 22.9626 20.4033 23.0148C20.4088 23.067 20.413 23.1138 20.4157 23.155C20.4212 23.1963 20.4253 23.2251 20.4281 23.2416ZM19.8673 22.9406C19.8508 22.8196 19.8191 22.7248 19.7724 22.6561C19.7284 22.5846 19.6721 22.5323 19.6033 22.4994C19.5374 22.4636 19.4604 22.4416 19.3724 22.4334C19.2872 22.4224 19.1951 22.4169 19.0961 22.4169C19.0631 22.4169 19.0219 22.4183 18.9724 22.421C18.9229 22.421 18.8735 22.4251 18.824 22.4334C18.7745 22.4389 18.7278 22.4485 18.6838 22.4622C18.6398 22.476 18.6054 22.4952 18.5807 22.52C18.5614 22.5365 18.5449 22.5598 18.5312 22.5901C18.5202 22.6176 18.5106 22.6478 18.5023 22.6808C18.4941 22.7138 18.4872 22.7468 18.4817 22.7798C18.479 22.81 18.4776 22.8361 18.4776 22.8581C18.4776 22.9021 18.4817 22.9447 18.49 22.9859L19.8673 22.9406Z" fill="#FF440E"/>
<path d="M13.187 26.9124C13.187 27.1543 13.1856 27.3935 13.1828 27.6299C13.1828 27.8636 13.1815 28.1014 13.1787 28.3433C13.0083 28.3351 12.8392 28.331 12.6715 28.331C12.589 28.331 12.5052 28.3351 12.42 28.3433C12.3375 28.3516 12.255 28.3626 12.1725 28.3763C12.0681 28.1481 11.9636 27.9227 11.8591 27.7C11.7547 27.4746 11.6502 27.2478 11.5457 27.0196C11.4688 26.8519 11.3959 26.6842 11.3272 26.5166C11.2585 26.3489 11.1897 26.1798 11.121 26.0093C11.0963 26.3805 11.0702 26.7502 11.0427 27.1186C11.0179 27.4842 10.9973 27.8526 10.9808 28.2237L10.0901 28.199C10.0764 27.6712 10.064 27.1461 10.053 26.6238C10.042 26.1014 10.0227 25.5764 9.99525 25.0485L11.6076 25.0403C11.6626 25.1777 11.7134 25.3166 11.7602 25.4568C11.8097 25.5942 11.8564 25.7344 11.9004 25.8774C11.9636 26.0946 12.0351 26.3104 12.1148 26.5248C12.1945 26.7365 12.2743 26.9495 12.354 27.164C12.3512 26.8203 12.3444 26.4781 12.3334 26.1372C12.3251 25.7963 12.3182 25.4527 12.3127 25.1063L13.1457 25.2052C13.1567 25.4911 13.1663 25.7757 13.1746 26.0588C13.1828 26.342 13.187 26.6265 13.187 26.9124ZM14.4364 25.4815C14.4364 25.5365 14.424 25.5887 14.3993 25.6382C14.3773 25.6849 14.3457 25.7262 14.3045 25.7619C14.266 25.7977 14.222 25.8265 14.1725 25.8485C14.123 25.8678 14.0735 25.8774 14.0241 25.8774C13.9691 25.8774 13.9168 25.865 13.8674 25.8403C13.8206 25.8155 13.7794 25.7839 13.7436 25.7454C13.7079 25.7069 13.6804 25.663 13.6612 25.6135C13.6419 25.5612 13.6323 25.509 13.6323 25.4568C13.6323 25.4045 13.6419 25.3564 13.6612 25.3124C13.6832 25.2657 13.7107 25.2259 13.7436 25.1929C13.7794 25.1599 13.8192 25.1338 13.8632 25.1145C13.91 25.0953 13.9595 25.0856 14.0117 25.0856C14.0639 25.0856 14.1148 25.0966 14.1643 25.1186C14.2165 25.1379 14.2619 25.1667 14.3003 25.2052C14.3416 25.241 14.3746 25.2836 14.3993 25.3331C14.424 25.3798 14.4364 25.4293 14.4364 25.4815ZM14.6055 26.1825C14.5917 26.3282 14.5807 26.4726 14.5725 26.6155C14.5643 26.7585 14.556 26.9014 14.5478 27.0444C14.5368 27.2121 14.5175 27.3784 14.49 27.5433C14.4653 27.7083 14.4364 27.8732 14.4034 28.0382L13.7725 28.1042C13.7725 28.0162 13.7725 27.9296 13.7725 27.8444C13.7753 27.7591 13.7766 27.6725 13.7766 27.5846C13.7766 27.3591 13.7725 27.1337 13.7643 26.9083C13.756 26.6829 13.7478 26.4574 13.7395 26.232C13.8852 26.2265 14.0282 26.2183 14.1684 26.2073C14.3113 26.1963 14.457 26.188 14.6055 26.1825ZM17.7807 26.7805C17.7807 26.8959 17.7793 27.0114 17.7766 27.1269C17.7766 27.2396 17.7766 27.3537 17.7766 27.4691C17.7738 27.5296 17.7724 27.5914 17.7724 27.6547C17.7752 27.7179 17.7738 27.7811 17.7683 27.8444C17.7601 27.9048 17.7518 27.9694 17.7436 28.0382C17.7353 28.1042 17.7216 28.1701 17.7023 28.2361C17.6831 28.3021 17.657 28.3639 17.624 28.4217C17.5938 28.4794 17.5525 28.5289 17.5003 28.5701C17.4865 28.5811 17.459 28.5907 17.4178 28.599C17.3766 28.6072 17.3285 28.6155 17.2735 28.6237C17.2185 28.632 17.1594 28.6389 17.0962 28.6444C17.0329 28.6498 16.9725 28.654 16.9147 28.6567C16.857 28.6622 16.8048 28.6663 16.758 28.6691C16.7113 28.6746 16.6783 28.6773 16.6591 28.6773C16.4859 28.6828 16.3141 28.687 16.1436 28.6897C15.9759 28.6925 15.8055 28.6938 15.6323 28.6938H15.3684C15.3629 28.6471 15.3574 28.599 15.3519 28.5495C15.3464 28.5 15.3436 28.4505 15.3436 28.4011C15.3436 28.3461 15.3381 28.2897 15.3271 28.232C15.3161 28.1715 15.3038 28.1124 15.29 28.0547L15.5622 28.0588C15.5787 28.0588 15.624 28.0588 15.6983 28.0588C15.7752 28.056 15.8646 28.0547 15.9663 28.0547C16.068 28.0519 16.1766 28.0492 16.2921 28.0464C16.4103 28.0409 16.5189 28.0341 16.6178 28.0258C16.7168 28.0176 16.8006 28.0079 16.8694 27.9969C16.9408 27.9859 16.9807 27.9736 16.989 27.9598C17.0109 27.9241 17.0247 27.8842 17.0302 27.8402C17.0357 27.7935 17.0384 27.7495 17.0384 27.7083C17.0384 27.6863 17.0371 27.6643 17.0343 27.6423C17.0343 27.6176 17.0329 27.5942 17.0302 27.5722C16.8762 27.5832 16.7237 27.5928 16.5725 27.6011C16.4213 27.6093 16.2673 27.6134 16.1106 27.6134C16.0749 27.6134 16.0295 27.6134 15.9745 27.6134C15.9223 27.6134 15.8673 27.6121 15.8096 27.6093C15.7546 27.6066 15.6996 27.6024 15.6446 27.5969C15.5924 27.5914 15.5498 27.5832 15.5168 27.5722C15.4618 27.5557 15.4055 27.5378 15.3477 27.5186C15.2928 27.4966 15.2405 27.4705 15.191 27.4402C15.1416 27.41 15.0976 27.3743 15.0591 27.333C15.0234 27.289 14.9986 27.2368 14.9849 27.1763C14.9766 27.1461 14.9711 27.1131 14.9684 27.0774C14.9684 27.0416 14.9684 27.0086 14.9684 26.9784C14.9684 26.9014 14.9725 26.8038 14.9807 26.6856C14.989 26.5674 15.0027 26.4478 15.022 26.3269C15.044 26.2032 15.0715 26.0877 15.1044 25.9805C15.1402 25.8705 15.1842 25.788 15.2364 25.7331C15.2666 25.7001 15.3148 25.6712 15.3807 25.6465C15.4495 25.6217 15.5264 25.6011 15.6117 25.5846C15.6969 25.5681 15.7862 25.5544 15.8797 25.5434C15.9759 25.5296 16.0694 25.52 16.1601 25.5145C16.2508 25.509 16.3333 25.5049 16.4075 25.5021C16.4845 25.4994 16.545 25.498 16.589 25.498C16.7429 25.498 16.8969 25.5021 17.0508 25.5104L17.0797 25.2465L17.7724 25.3496C17.7752 25.5887 17.7766 25.8265 17.7766 26.063C17.7793 26.2994 17.7807 26.5385 17.7807 26.7805ZM17.0508 26.7021C17.0508 26.6141 17.0494 26.5289 17.0467 26.4464C17.0439 26.3612 17.0398 26.2746 17.0343 26.1867C16.9134 26.1592 16.7924 26.1372 16.6714 26.1207C16.5505 26.1042 16.4268 26.0959 16.3003 26.0959C16.2783 26.0959 16.2453 26.0973 16.2013 26.1001C16.1574 26.1028 16.1106 26.1083 16.0611 26.1166C16.0144 26.1221 15.9704 26.1317 15.9292 26.1454C15.8879 26.1564 15.8591 26.1702 15.8426 26.1867C15.8178 26.2142 15.8027 26.2458 15.7972 26.2815C15.7917 26.3172 15.789 26.353 15.789 26.3887C15.789 26.419 15.7917 26.4657 15.7972 26.5289C15.8055 26.5894 15.8151 26.6526 15.8261 26.7186C15.8371 26.7846 15.8508 26.8464 15.8673 26.9042C15.8838 26.9619 15.9003 27.0018 15.9168 27.0238C15.9333 27.0458 15.9539 27.0622 15.9787 27.0732C16.0034 27.0842 16.0295 27.0925 16.057 27.098C16.0873 27.1007 16.1161 27.1035 16.1436 27.1062C16.1738 27.1062 16.2 27.1062 16.222 27.1062C16.2769 27.1062 16.3429 27.1049 16.4199 27.1021C16.4996 27.0966 16.578 27.0884 16.6549 27.0774C16.7347 27.0664 16.8089 27.0513 16.8776 27.032C16.9463 27.01 16.9986 26.9811 17.0343 26.9454C17.0398 26.9427 17.0439 26.9289 17.0467 26.9042C17.0494 26.8794 17.0508 26.8533 17.0508 26.8258C17.0508 26.7983 17.0508 26.7722 17.0508 26.7475C17.0508 26.7227 17.0508 26.7076 17.0508 26.7021ZM21.0136 26.632C21.0136 26.7337 21.0068 26.8368 20.993 26.9413C20.982 27.043 20.9696 27.1447 20.9559 27.2464C20.9339 27.4251 20.9092 27.6024 20.8817 27.7784C20.8542 27.9516 20.8267 28.1275 20.7992 28.3062C20.6645 28.309 20.5325 28.3145 20.4033 28.3227C20.2741 28.331 20.1435 28.3406 20.0116 28.3516C20.0116 28.1509 20.0116 27.953 20.0116 27.7578C20.0116 27.5598 20.0075 27.3619 19.9992 27.164C19.9992 27.1255 19.9978 27.076 19.9951 27.0155C19.9951 26.955 19.9896 26.9055 19.9786 26.8671C19.9621 26.8038 19.9415 26.7612 19.9167 26.7392C19.892 26.7145 19.8439 26.7021 19.7724 26.7021C19.7229 26.7021 19.6652 26.7076 19.5992 26.7186C19.5332 26.7296 19.4659 26.7434 19.3972 26.7598C19.3284 26.7763 19.2625 26.7956 19.1992 26.8176C19.1387 26.8368 19.0879 26.8574 19.0467 26.8794C19.0247 27.1021 18.9972 27.3234 18.9642 27.5433C18.9339 27.7633 18.9147 27.9859 18.9064 28.2114L18.325 28.1825C18.2948 27.6877 18.2659 27.1956 18.2384 26.7062C18.2109 26.2142 18.1848 25.7207 18.1601 25.2259L19.0673 25.1681C19.0618 25.3496 19.0563 25.531 19.0508 25.7124C19.0453 25.8911 19.0398 26.0712 19.0343 26.2526C19.0865 26.2087 19.1456 26.1757 19.2116 26.1537C19.2776 26.1289 19.3449 26.1124 19.4137 26.1042C19.4851 26.0959 19.5566 26.0918 19.6281 26.0918C19.6996 26.0918 19.7683 26.0918 19.8343 26.0918C19.9332 26.0918 20.0446 26.0959 20.1683 26.1042C20.2947 26.1097 20.4143 26.1289 20.527 26.1619C20.6425 26.1922 20.7442 26.2416 20.8322 26.3104C20.9202 26.3791 20.9793 26.4753 21.0095 26.599C21.0123 26.6045 21.0136 26.61 21.0136 26.6155C21.0136 26.621 21.0136 26.6265 21.0136 26.632ZM23.4012 27.5103L23.3311 28.2361C23.2431 28.2416 23.1552 28.2457 23.0672 28.2485C22.9792 28.254 22.8913 28.2567 22.8033 28.2567C22.7566 28.2567 22.6947 28.2554 22.6177 28.2526C22.5408 28.2499 22.461 28.2457 22.3786 28.2402C22.2961 28.232 22.2177 28.2224 22.1435 28.2114C22.0693 28.1976 22.0102 28.1811 21.9662 28.1619C21.9002 28.1316 21.8452 28.0918 21.8012 28.0423C21.76 27.9928 21.7256 27.9392 21.6982 27.8815C21.6707 27.821 21.6487 27.7578 21.6322 27.6918C21.6157 27.6231 21.6033 27.5557 21.5951 27.4897C21.5868 27.4265 21.5799 27.3591 21.5744 27.2877C21.5717 27.2134 21.5689 27.1378 21.5662 27.0609C21.5662 26.9839 21.5662 26.9097 21.5662 26.8382C21.5662 26.764 21.5662 26.6952 21.5662 26.632V26.5083H21.3105C21.3215 26.3846 21.327 26.2623 21.327 26.1413C21.3298 26.0203 21.3366 25.898 21.3476 25.7743L21.5951 25.7825V25.1722C21.7518 25.2025 21.9071 25.219 22.061 25.2217C22.2177 25.2217 22.3744 25.2272 22.5311 25.2382L22.5229 25.8691L22.8693 25.8898C22.8693 25.909 22.8693 25.9269 22.8693 25.9434C22.872 25.9599 22.8734 25.9777 22.8734 25.997C22.8734 26.0739 22.8665 26.1495 22.8528 26.2238C22.8418 26.2952 22.8267 26.3681 22.8074 26.4423H22.5064C22.5009 26.5688 22.4968 26.6952 22.494 26.8217C22.4913 26.9482 22.4899 27.0746 22.4899 27.2011C22.4899 27.2616 22.4913 27.3165 22.494 27.366C22.4995 27.4128 22.5105 27.4526 22.527 27.4856C22.5463 27.5186 22.5765 27.5433 22.6177 27.5598C22.659 27.5763 22.7167 27.5846 22.7909 27.5846C22.8926 27.5846 22.9944 27.5777 23.0961 27.564C23.1978 27.5502 23.2995 27.5323 23.4012 27.5103Z" fill="#FF440E"/>
<path d="M13.7349 30.0424V30.4834L12.519 30.5464C12.5022 30.79 12.4896 31.0315 12.4812 31.2709C12.4728 31.5103 12.4686 31.7497 12.4686 31.9891C12.4686 32.2831 12.4602 32.5771 12.4434 32.8711C12.4308 33.1609 12.414 33.4507 12.393 33.7405C12.2418 33.7489 12.0906 33.7552 11.9394 33.7594C11.7882 33.7678 11.637 33.772 11.4858 33.772C11.4312 33.772 11.3766 33.7699 11.322 33.7657C11.2716 33.7657 11.2212 33.7657 11.1708 33.7657C11.1792 33.5095 11.1855 33.2554 11.1897 33.0034C11.1981 32.7472 11.2023 32.4931 11.2023 32.2411C11.2023 31.9891 11.196 31.7371 11.1834 31.4851C11.1708 31.2289 11.1561 30.9727 11.1393 30.7165C11.0175 30.7207 10.8936 30.7249 10.7676 30.7291C10.6458 30.7333 10.5219 30.7354 10.3959 30.7354C10.3245 30.7354 10.2531 30.7354 10.1817 30.7354C10.1145 30.7354 10.0452 30.7333 9.97383 30.7291C9.96123 30.4183 9.95283 30.1096 9.94863 29.803C9.94443 29.4964 9.94023 29.1898 9.93603 28.8832C10.566 28.8958 11.1918 28.9147 11.8134 28.9399C12.435 28.9609 13.0587 28.9798 13.6845 28.9966C13.7013 29.1772 13.7139 29.3536 13.7223 29.5258C13.7307 29.6938 13.7349 29.866 13.7349 30.0424ZM18.7498 30.8677C18.7498 31.2205 18.7372 31.5712 18.712 31.9198C18.6868 32.2684 18.6616 32.617 18.6364 32.9656C18.1659 33.0076 17.6976 33.0433 17.2314 33.0727C16.7652 33.1021 16.2969 33.1168 15.8265 33.1168C15.7845 33.1168 15.7068 33.1168 15.5934 33.1168C15.48 33.1126 15.3603 33.1084 15.2343 33.1042C15.1083 33.0958 14.9886 33.0874 14.8752 33.079C14.7618 33.0664 14.6862 33.0496 14.6484 33.0286C14.5098 32.953 14.4132 32.8585 14.3586 32.7451C14.304 32.6275 14.2767 32.4952 14.2767 32.3482C14.2767 32.2978 14.2788 32.2306 14.283 32.1466C14.2872 32.0626 14.2956 31.9744 14.3082 31.882C14.3208 31.7896 14.3376 31.7035 14.3586 31.6237C14.3796 31.5439 14.4048 31.4851 14.4342 31.4473C14.472 31.3969 14.5581 31.3549 14.6925 31.3213C14.8269 31.2835 14.9865 31.2541 15.1713 31.2331C15.3603 31.2121 15.5619 31.1953 15.7761 31.1827C15.9945 31.1701 16.2024 31.1617 16.3998 31.1575C16.5972 31.1491 16.7736 31.1449 16.929 31.1449C17.0844 31.1449 17.1957 31.1449 17.2629 31.1449C17.2755 31.0525 17.2818 30.9622 17.2818 30.874C17.2818 30.8656 17.2818 30.8446 17.2818 30.811C17.2818 30.7732 17.2797 30.7501 17.2755 30.7417C17.2629 30.7165 17.223 30.6955 17.1558 30.6787C17.0886 30.6619 17.0046 30.6493 16.9038 30.6409C16.8072 30.6325 16.7001 30.6262 16.5825 30.622C16.4691 30.6136 16.3578 30.6094 16.2486 30.6094C16.1394 30.6094 16.0428 30.6094 15.9588 30.6094C15.8748 30.6094 15.8139 30.6094 15.7761 30.6094C15.5115 30.6094 15.2469 30.6157 14.9823 30.6283C14.7177 30.6367 14.4531 30.6451 14.1885 30.6535C14.2053 30.4939 14.2179 30.3322 14.2263 30.1684C14.2389 30.0046 14.241 29.8429 14.2326 29.6833C14.5392 29.6287 14.8458 29.5909 15.1524 29.5699C15.4632 29.5447 15.7761 29.5321 16.0911 29.5321C16.2045 29.5321 16.3284 29.5342 16.4628 29.5384C16.5972 29.5384 16.7316 29.5426 16.866 29.551C17.0004 29.5552 17.1327 29.5636 17.2629 29.5762C17.3973 29.5888 17.5212 29.6056 17.6346 29.6266C17.7522 29.6476 17.8677 29.6854 17.9811 29.74C18.0987 29.7946 18.208 29.8618 18.3088 29.9416C18.4096 30.0214 18.4978 30.1138 18.5734 30.2188C18.649 30.3196 18.7036 30.4288 18.7372 30.5464C18.7414 30.559 18.7435 30.58 18.7435 30.6094C18.7477 30.6388 18.7498 30.6724 18.7498 30.7102C18.7498 30.7438 18.7498 30.7753 18.7498 30.8047C18.7498 30.8341 18.7498 30.8551 18.7498 30.8677ZM17.3448 32.3482V31.5418C17.223 31.5376 17.1012 31.5355 16.9794 31.5355C16.8576 31.5313 16.7358 31.5292 16.614 31.5292C16.5888 31.5292 16.5174 31.5313 16.3998 31.5355C16.2864 31.5355 16.1625 31.5397 16.0281 31.5481C15.8979 31.5565 15.7782 31.567 15.669 31.5796C15.5598 31.5922 15.4968 31.6111 15.48 31.6363C15.459 31.6699 15.4443 31.7056 15.4359 31.7434C15.4317 31.777 15.4296 31.8127 15.4296 31.8505C15.4296 31.8799 15.4317 31.9198 15.4359 31.9702C15.4401 32.0206 15.4464 32.0731 15.4548 32.1277C15.4674 32.1823 15.48 32.2327 15.4926 32.2789C15.5052 32.3251 15.522 32.3587 15.543 32.3797C15.5598 32.4007 15.5871 32.4175 15.6249 32.4301C15.6669 32.4385 15.711 32.4469 15.7572 32.4553C15.8034 32.4595 15.8496 32.4637 15.8958 32.4679C15.942 32.4679 15.9777 32.4679 16.0029 32.4679C16.1037 32.4679 16.2108 32.4637 16.3242 32.4553C16.4418 32.4469 16.5594 32.4385 16.677 32.4301C16.7988 32.4175 16.9164 32.4049 17.0298 32.3923C17.1432 32.3755 17.2482 32.3608 17.3448 32.3482ZM20.7658 28.8643C20.7322 29.2717 20.6986 29.677 20.665 30.0802C20.6356 30.4834 20.6104 30.8887 20.5894 31.2961C20.5684 31.6657 20.5453 32.0332 20.5201 32.3986C20.4991 32.7598 20.4781 33.1252 20.4571 33.4948L19.4932 33.5452C19.4932 33.163 19.4932 32.785 19.4932 32.4112C19.4974 32.0332 19.4953 31.6531 19.4869 31.2709C19.4785 30.8887 19.4617 30.5107 19.4365 30.1369C19.4113 29.7589 19.3861 29.3788 19.3609 28.9966L20.7658 28.8643ZM25.5979 30.2377L23.9788 31.4095C23.9914 31.4599 24.0166 31.5418 24.0544 31.6552C24.0922 31.7644 24.1342 31.8799 24.1804 32.0017C24.2266 32.1193 24.2749 32.2306 24.3253 32.3356C24.3799 32.4364 24.4303 32.5015 24.4765 32.5309C24.5059 32.5519 24.5437 32.5687 24.5899 32.5813C24.6361 32.5939 24.6823 32.6044 24.7285 32.6128C24.7789 32.6212 24.8272 32.6275 24.8734 32.6317C24.9238 32.6317 24.9658 32.6317 24.9994 32.6317C25.0582 32.6317 25.1191 32.6296 25.1821 32.6254C25.2451 32.6212 25.306 32.6149 25.3648 32.6065C25.3564 32.6611 25.3501 32.7178 25.3459 32.7766C25.3417 32.8312 25.3396 32.8879 25.3396 32.9467C25.3396 33.0475 25.3417 33.1483 25.3459 33.2491C25.3501 33.3499 25.3522 33.4486 25.3522 33.5452C25.3228 33.5494 25.2703 33.5557 25.1947 33.5641C25.1233 33.5683 25.0393 33.5746 24.9427 33.583C24.8503 33.5872 24.7516 33.5935 24.6466 33.6019C24.5416 33.6103 24.4429 33.6187 24.3505 33.6271C24.2623 33.6313 24.1846 33.6334 24.1174 33.6334C24.0544 33.6334 24.0145 33.6292 23.9977 33.6208C23.9263 33.5872 23.857 33.5515 23.7898 33.5137C23.7226 33.4759 23.6659 33.4234 23.6197 33.3562C23.5987 33.3268 23.563 33.247 23.5126 33.1168C23.4664 32.9866 23.416 32.8438 23.3614 32.6884C23.311 32.533 23.2627 32.3881 23.2165 32.2537C23.1745 32.1193 23.1472 32.0332 23.1346 31.9954L22.5298 32.386V33.4822L21.2824 33.5893C21.3076 33.0013 21.3349 32.4175 21.3643 31.8379C21.3937 31.2541 21.4084 30.6661 21.4084 30.0739C21.4084 29.8933 21.4063 29.7148 21.4021 29.5384C21.4021 29.362 21.4 29.1814 21.3958 28.9966C21.568 29.0302 21.7381 29.0512 21.9061 29.0596C22.0783 29.068 22.2505 29.0806 22.4227 29.0974V31.4536C22.7503 31.252 23.0695 31.0462 23.3803 30.8362C23.6953 30.6262 23.9998 30.3952 24.2938 30.1432C24.5164 30.1684 24.7327 30.1873 24.9427 30.1999C25.1569 30.2125 25.3753 30.2251 25.5979 30.2377ZM29.1889 29.3368L29.1511 30.1558C29.0209 30.1474 28.8907 30.1411 28.7605 30.1369C28.6303 30.1327 28.5001 30.1306 28.3699 30.1306C28.3153 30.1306 28.2376 30.1327 28.1368 30.1369C28.036 30.1369 27.9226 30.139 27.7966 30.1432C27.6748 30.1474 27.5488 30.1537 27.4186 30.1621C27.2884 30.1705 27.1687 30.1789 27.0595 30.1873C26.9503 30.1957 26.8579 30.2062 26.7823 30.2188C26.7067 30.2314 26.6605 30.244 26.6437 30.2566C26.5891 30.3112 26.5618 30.3742 26.5618 30.4456C26.5618 30.4918 26.5744 30.5296 26.5996 30.559C26.608 30.5716 26.6542 30.5821 26.7382 30.5905C26.8222 30.5989 26.9251 30.6073 27.0469 30.6157C27.1687 30.6199 27.301 30.6241 27.4438 30.6283C27.5908 30.6283 27.7294 30.6304 27.8596 30.6346C27.994 30.6346 28.1116 30.6367 28.2124 30.6409C28.3174 30.6451 28.3909 30.6493 28.4329 30.6535C28.5925 30.6745 28.7185 30.7207 28.8109 30.7921C28.9075 30.8635 28.981 30.9538 29.0314 31.063C29.0818 31.168 29.1133 31.2877 29.1259 31.4221C29.1427 31.5565 29.1511 31.693 29.1511 31.8316C29.1511 31.8988 29.1448 31.9786 29.1322 32.071C29.1238 32.1634 29.1091 32.2558 29.0881 32.3482C29.0671 32.4406 29.0356 32.5267 28.9936 32.6065C28.9558 32.6863 28.9096 32.7493 28.855 32.7955C28.792 32.8459 28.6891 32.8879 28.5463 32.9215C28.4077 32.9551 28.2565 32.9824 28.0927 33.0034C27.9331 33.0244 27.7777 33.0391 27.6265 33.0475C27.4753 33.0559 27.3598 33.0601 27.28 33.0601C27.0028 33.0601 26.7256 33.0454 26.4484 33.016C26.1712 32.9824 25.8961 32.9467 25.6231 32.9089V31.7056C25.8877 31.7602 26.1523 31.7917 26.4169 31.8001C26.6857 31.8085 26.9545 31.8232 27.2233 31.8442C27.2779 31.8484 27.3598 31.8526 27.469 31.8568C27.5824 31.8568 27.6958 31.8547 27.8092 31.8505C27.9226 31.8421 28.0255 31.8274 28.1179 31.8064C28.2103 31.7854 28.267 31.756 28.288 31.7182C28.2964 31.7056 28.3006 31.6909 28.3006 31.6741C28.3006 31.6573 28.3006 31.6426 28.3006 31.63C28.3006 31.5964 28.2964 31.5544 28.288 31.504C28.2838 31.4494 28.2712 31.4074 28.2502 31.378C28.246 31.3738 28.2313 31.3717 28.2061 31.3717C28.1809 31.3675 28.1662 31.3654 28.162 31.3654C27.9268 31.3528 27.6916 31.3465 27.4564 31.3465C27.2212 31.3423 26.9839 31.3297 26.7445 31.3087C26.6479 31.3003 26.5492 31.2919 26.4484 31.2835C26.3518 31.2709 26.2552 31.2541 26.1586 31.2331C26.0788 31.2163 26.0053 31.1974 25.9381 31.1764C25.8751 31.1554 25.8184 31.1281 25.768 31.0945C25.7218 31.0609 25.6819 31.0189 25.6483 30.9685C25.6147 30.9139 25.5916 30.8425 25.579 30.7543C25.5706 30.7249 25.5664 30.6976 25.5664 30.6724C25.5664 30.643 25.5664 30.6115 25.5664 30.5779C25.5664 30.5023 25.5706 30.4162 25.579 30.3196C25.5874 30.223 25.6021 30.1264 25.6231 30.0298C25.6483 29.9332 25.6777 29.8429 25.7113 29.7589C25.7491 29.6707 25.7974 29.5993 25.8562 29.5447C25.894 29.5069 25.9612 29.4754 26.0578 29.4502C26.1544 29.425 26.2657 29.404 26.3917 29.3872C26.5177 29.3662 26.6521 29.3494 26.7949 29.3368C26.9377 29.3242 27.0742 29.3158 27.2044 29.3116C27.3388 29.3032 27.4585 29.299 27.5635 29.299C27.6727 29.2948 27.7546 29.2927 27.8092 29.2927C28.0444 29.2927 28.2754 29.2969 28.5022 29.3053C28.7332 29.3137 28.9621 29.3242 29.1889 29.3368Z" fill="#FF440E"/>
<g clip-path="url(#clip0_1091_590)">
<path fill-rule="evenodd" clip-rule="evenodd" d="M27.7033 20.9527C27.0858 21.0043 26.484 21.1735 25.9302 21.4514C24.8 22.0208 24.0449 22.9878 23.8584 24.1047C23.8355 24.2415 23.8273 24.3784 23.8282 24.6115C23.8299 25.0631 23.8843 25.3618 24.0358 25.7512C24.2944 26.4144 24.7693 27.0028 25.4009 27.4418C25.4972 27.5088 25.5097 27.5243 25.5296 27.605C25.5447 27.6646 25.5512 27.7993 25.549 28.0134C25.5451 28.3942 25.5594 28.4572 25.6768 28.5747C25.7951 28.6925 25.8905 28.715 26.1664 28.6891C26.5778 28.6506 26.861 28.5418 27.1843 28.2997C27.2914 28.2189 27.3212 28.2047 27.3657 28.2116C28.0219 28.3182 28.8076 28.2742 29.4646 28.0933C29.7544 28.0156 30.0353 27.9078 30.3026 27.7717C31.4501 27.2096 32.2255 26.2279 32.4111 25.1011C32.4538 24.8442 32.4538 24.3616 32.4111 24.1047C32.301 23.4368 31.979 22.8061 31.4855 22.2915C30.5647 21.3314 29.1599 20.8345 27.7033 20.9527ZM28.6876 21.8317C30.1658 22.0428 31.2878 22.9576 31.5472 24.1634C31.5917 24.3702 31.5921 24.8395 31.5477 25.0424C31.3905 25.7629 30.9208 26.398 30.2236 26.834C29.4616 27.3097 28.4411 27.5049 27.4796 27.3577C27.1377 27.3054 27.0354 27.3309 26.7695 27.5342C26.614 27.6529 26.4586 27.7544 26.4314 27.7544C26.4228 27.7544 26.4064 27.6784 26.3956 27.5852C26.3559 27.2532 26.2372 26.9942 26.0627 26.859C26.0174 26.8245 25.903 26.739 25.8072 26.6695C25.4946 26.4416 25.1881 26.1053 25.0098 25.7936C24.7711 25.3761 24.6653 24.9487 24.6873 24.4906C24.7041 24.1422 24.7728 23.8871 24.9411 23.5491C25.2528 22.9218 25.8633 22.3878 26.611 22.0882C26.9288 21.9626 27.2608 21.8769 27.5996 21.833L27.8241 21.8067C27.9299 21.7946 28.5529 21.8123 28.6876 21.8317Z" fill="#ED3F19"/>
<g clip-path="url(#clip1_1091_590)">
<path fill-rule="evenodd" clip-rule="evenodd" d="M28.3628 24.0688C28.3274 24.0737 28.2828 24.0855 28.2456 24.0999C28.1449 24.1388 28.0495 24.2113 27.982 24.3005C27.8612 24.4599 27.8137 24.6696 27.8538 24.8677C27.8742 24.969 27.9298 25.0866 28.003 25.1837C28.101 25.3136 28.2441 25.4414 28.4252 25.561C28.552 25.6448 28.6667 25.7096 28.7061 25.7199C28.7347 25.7273 28.7926 25.7273 28.8212 25.7199C28.8606 25.7096 28.9753 25.6448 29.1021 25.561C29.3125 25.422 29.4714 25.2719 29.5678 25.1209C29.5966 25.0758 29.6368 24.9925 29.6527 24.9452C29.6883 24.8358 29.6967 24.7195 29.6771 24.6062C29.6356 24.3634 29.472 24.1628 29.2573 24.0912C29.1989 24.0717 29.1675 24.0669 29.1002 24.0669C28.9869 24.0671 28.8999 24.0941 28.8053 24.1585L28.7636 24.1868L28.722 24.1585C28.6622 24.1168 28.5942 24.088 28.5226 24.074C28.4855 24.0668 28.3979 24.0639 28.3628 24.0688ZM28.4919 24.2568C28.5593 24.2707 28.6185 24.3037 28.6811 24.3624C28.7196 24.3985 28.7337 24.4058 28.7639 24.4056C28.7943 24.4055 28.8078 24.3984 28.8462 24.3624C28.9088 24.3037 28.968 24.2707 29.0354 24.2568C29.1592 24.2312 29.2906 24.2834 29.3836 24.395C29.4397 24.4624 29.4777 24.543 29.494 24.6291C29.5103 24.7153 29.5044 24.8041 29.4769 24.8874C29.4059 25.0989 29.1904 25.3063 28.8247 25.5149C28.7901 25.5346 28.773 25.5423 28.7636 25.5423C28.7543 25.5423 28.7372 25.5346 28.7026 25.5149C28.3362 25.3055 28.1193 25.097 28.0503 24.8876C28.027 24.8168 28.0192 24.7418 28.0275 24.6677C28.0358 24.5936 28.0601 24.5222 28.0985 24.4583C28.189 24.3064 28.345 24.2265 28.4919 24.2568Z" fill="#FE4A0B"/>
</g>
<g clip-path="url(#clip2_1091_590)">
<path fill-rule="evenodd" clip-rule="evenodd" d="M27.0186 23.8111C26.9205 23.8257 26.8278 23.8655 26.7496 23.9265C26.7012 23.9665 26.6577 24.0122 26.6202 24.0626C26.5098 24.2182 26.4668 24.427 26.507 24.6135C26.5589 24.8547 26.7587 25.1053 27.0575 25.3039C27.1956 25.3959 27.3577 25.4716 27.4162 25.4716C27.4748 25.4716 27.6374 25.3956 27.775 25.3039C28.0036 25.1516 28.1711 24.974 28.2635 24.7855C28.3251 24.6599 28.3484 24.5452 28.338 24.4187C28.3295 24.317 28.3087 24.2414 28.2648 24.153C28.2288 24.0804 28.1981 24.0379 28.1394 23.9789C28.0542 23.8933 27.9611 23.8411 27.8517 23.8176C27.7973 23.806 27.7043 23.8061 27.6494 23.8178C27.5771 23.8333 27.5169 23.8599 27.4504 23.9056L27.4162 23.9292L27.382 23.9056C27.2881 23.841 27.2011 23.8117 27.0944 23.8089C27.0692 23.8081 27.0438 23.8088 27.0186 23.8111Z" fill="#FB7445"/>
</g>
</g>
<path opacity="0.4" d="M39.1001 2.84297C39.0723 3.23953 38.1291 3.49645 36.9932 3.41694C35.8575 3.33762 34.959 2.95165 34.987 2.55519C35.0146 2.15873 35.958 1.90172 37.0938 1.98123C38.2295 2.06074 39.128 2.44661 39.1001 2.84297Z" fill="white"/>
<path d="M40.9766 3.9171C40.9291 4.02538 40.7033 4.03078 40.4722 3.92939C40.241 3.8278 40.0922 3.65789 40.1397 3.54961C40.1872 3.44153 40.4131 3.43604 40.6442 3.53753C40.8754 3.63901 41.0242 3.80902 40.9766 3.9171Z" fill="white"/>
<defs>
<linearGradient id="paint0_linear_1091_590" x1="-27.0581" y1="56.2738" x2="103.926" y2="-32.8918" gradientUnits="userSpaceOnUse">
<stop stop-color="#FF3015"/>
<stop offset="1" stop-color="#FF6700"/>
</linearGradient>
<clipPath id="clip0_1091_590">
<rect width="10.3611" height="10.3611" fill="white" transform="translate(22.9531 19.6387)"/>
</clipPath>
<clipPath id="clip1_1091_590">
<rect width="2.21923" height="2.21923" fill="white" transform="translate(27.6543 23.7871)"/>
</clipPath>
<clipPath id="clip2_1091_590">
<rect width="2.21923" height="2.21923" fill="white" transform="translate(26.3066 23.5293)"/>
</clipPath>
</defs>
</svg>
