<svg width="34" height="33" viewBox="0 0 34 33" fill="none" xmlns="http://www.w3.org/2000/svg">
<path d="M33.7126 22.8089C33.7126 21.6705 32.8722 20.7192 31.7246 20.403C32.5431 19.9618 33.0969 19.163 33.0969 18.2404C33.0969 17.7357 32.9286 17.2679 32.6458 16.8732C33.2909 16.4103 33.7126 15.7046 33.7126 14.9033C33.7126 13.9936 33.1748 13.203 32.3751 12.7579C32.6658 12.3595 32.8375 11.8842 32.8375 11.3717C32.8375 10.4444 32.2775 9.64232 31.452 9.20263C32.1036 8.73987 32.5297 8.03041 32.5297 7.22438C32.5297 6.76169 32.3817 6.33377 32.1409 5.96076C32.3817 5.58775 32.5297 5.15982 32.5297 4.69713C32.5297 3.34114 31.3425 2.24361 29.8559 2.18165C29.4632 1.21335 28.4419 0.518425 27.2322 0.518425C26.0092 0.518425 24.9803 1.22931 24.5974 2.21417C24.0936 1.54284 23.2414 1.10165 22.2749 1.10165C21.8356 1.10165 21.4253 1.20077 21.0552 1.36326C20.5871 0.556557 19.6609 0 18.5813 0C17.4143 0 16.4153 0.643835 15.9937 1.55872C15.5031 1.17814 14.8728 0.939607 14.1748 0.939607C13.2991 0.939607 12.5269 1.30925 12.0129 1.87659C11.5814 0.982234 10.5949 0.355481 9.44409 0.355481C8.33188 0.355481 7.37953 0.944401 6.92673 1.79111C6.4134 1.27254 5.67465 0.939607 4.84315 0.939607C3.29537 0.939607 2.04066 2.07115 2.04066 3.46685C2.04066 3.74449 2.10239 4.00663 2.19409 4.25647C1.2353 4.65788 0.566371 5.52796 0.566371 6.54398C0.566371 7.41639 1.05663 8.18541 1.8022 8.63963C1.2362 9.10209 0.874204 9.76346 0.874204 10.5064C0.874204 11.0603 1.07753 11.5681 1.41256 11.9846C0.810525 12.4482 0.420583 13.1291 0.420583 13.8989C0.420583 14.6889 0.830977 15.3853 1.46043 15.8488C1.1962 16.2345 1.03625 16.6848 1.03625 17.1714C1.03625 17.8418 1.33082 18.4471 1.80332 18.8996C0.750592 19.2631 0 20.1765 0 21.2536C0 22.3308 0.750592 23.2442 1.8034 23.6079C1.3309 24.0604 1.03632 24.6657 1.03632 25.3361C1.03632 25.7479 1.15589 26.131 1.3497 26.4745C0.866862 26.9284 0.566446 27.5415 0.566446 28.2203C0.566446 29.616 1.8213 30.7475 3.36916 30.7475C3.59369 30.7475 3.80907 30.7174 4.01831 30.6725C4.41133 31.6401 5.43237 32.3345 6.64153 32.3345C7.22745 32.3345 7.7703 32.1714 8.22002 31.8943C8.72616 32.3454 9.42117 32.625 10.1891 32.625C11.0974 32.625 11.8965 32.2291 12.4086 31.6251C12.9208 32.2291 13.7197 32.625 14.628 32.625C15.5479 32.625 16.3569 32.2199 16.8679 31.6028C17.306 31.8585 17.8256 32.0107 18.3865 32.0107C18.9155 32.0107 19.4047 31.8707 19.8268 31.641C20.3396 32.2357 21.1317 32.625 22.0317 32.625C22.9297 32.625 23.7202 32.2372 24.233 31.6449C24.7345 32.0696 25.4046 32.3345 26.1468 32.3345C27.0329 32.3345 27.8132 31.9564 28.327 31.3776C28.8199 31.7668 29.458 32.0107 30.1646 32.0107C31.7124 32.0107 32.9672 30.8791 32.9672 29.4834C32.9672 29.0282 32.8232 28.6072 32.5897 28.2383C32.9074 27.8285 33.0969 27.3321 33.0969 26.7942C33.0969 26.0948 32.7817 25.4623 32.2725 25.0045C33.1278 24.5718 33.7126 23.7562 33.7126 22.8089Z" fill="url(#paint0_linear_1091_590)"/>
<path opacity="0.3" d="M28.6975 28.0419H5.26026C5.19208 28.0419 5.13672 27.9866 5.13672 27.9183V5.71338C5.13672 5.64521 5.19201 5.58984 5.26026 5.58984H28.6975C28.7656 5.58984 28.821 5.64513 28.821 5.71338V27.9184C28.8209 27.9866 28.7656 28.0419 28.6975 28.0419Z" fill="#C43333"/>
<path d="M28.2341 27.4743H5.72534C5.66024 27.4743 5.60742 27.4215 5.60742 27.3564V6.27417C5.60742 6.20907 5.66024 6.15625 5.72534 6.15625H28.2341C28.2992 6.15625 28.352 6.20907 28.352 6.27417V27.3564C28.3521 27.4215 28.2993 27.4743 28.2341 27.4743Z" fill="#FFDEDE"/>
<path d="M8.97005 18.2508C8.72469 18.2694 8.48036 18.2869 8.23707 18.3034C7.99584 18.3199 7.75254 18.3353 7.50718 18.3498C7.49688 17.956 7.48863 17.5653 7.48244 17.1776C7.47626 16.7879 7.46492 16.3952 7.44842 15.9993C7.58656 15.9972 7.72264 15.9931 7.85666 15.9869C7.99068 15.9807 8.12573 15.9725 8.26181 15.9622C8.23913 16.1148 8.21748 16.2684 8.19686 16.423C8.17831 16.5756 8.16387 16.7292 8.15357 16.8838C8.14532 17.0137 8.1381 17.1436 8.13192 17.2735C8.12779 17.4013 8.12367 17.5302 8.11955 17.6601C8.25563 17.6642 8.38964 17.6663 8.5216 17.6663C8.65562 17.6663 8.78964 17.6683 8.92366 17.6725L8.97005 18.2508ZM11.3669 16.9333C11.3669 17.1065 11.3607 17.2787 11.3484 17.4498C11.336 17.6209 11.3236 17.7921 11.3112 17.9632C11.0803 17.9838 10.8504 18.0013 10.6216 18.0158C10.3927 18.0302 10.1628 18.0374 9.93189 18.0374C9.91127 18.0374 9.87312 18.0374 9.81746 18.0374C9.76179 18.0353 9.70302 18.0333 9.64117 18.0312C9.57932 18.0271 9.52055 18.023 9.46488 18.0189C9.40921 18.0127 9.3721 18.0044 9.35355 17.9941C9.28551 17.957 9.23808 17.9106 9.21128 17.8549C9.18448 17.7972 9.17107 17.7323 9.17107 17.6601C9.17107 17.6354 9.17211 17.6024 9.17417 17.5611C9.17623 17.5199 9.18035 17.4766 9.18654 17.4312C9.19272 17.3859 9.20097 17.3436 9.21128 17.3044C9.22159 17.2653 9.23396 17.2364 9.24839 17.2178C9.26695 17.1931 9.30922 17.1725 9.37519 17.156C9.44117 17.1374 9.51952 17.123 9.61024 17.1127C9.70302 17.1024 9.80199 17.0941 9.90714 17.0879C10.0144 17.0818 10.1164 17.0776 10.2133 17.0756C10.3102 17.0714 10.3968 17.0694 10.4731 17.0694C10.5494 17.0694 10.604 17.0694 10.637 17.0694C10.6432 17.024 10.6463 16.9797 10.6463 16.9364C10.6463 16.9323 10.6463 16.922 10.6463 16.9055C10.6463 16.8869 10.6453 16.8756 10.6432 16.8714C10.637 16.8591 10.6174 16.8488 10.5845 16.8405C10.5515 16.8323 10.5102 16.8261 10.4607 16.822C10.4133 16.8178 10.3607 16.8147 10.303 16.8127C10.2473 16.8086 10.1927 16.8065 10.1391 16.8065C10.0855 16.8065 10.0381 16.8065 9.99683 16.8065C9.9556 16.8065 9.9257 16.8065 9.90714 16.8065C9.77725 16.8065 9.64736 16.8096 9.51746 16.8158C9.38757 16.8199 9.25767 16.824 9.12778 16.8281C9.13602 16.7498 9.14221 16.6704 9.14633 16.59C9.15252 16.5096 9.15355 16.4302 9.14943 16.3519C9.29994 16.3251 9.45045 16.3065 9.60096 16.2962C9.75354 16.2838 9.90714 16.2776 10.0618 16.2776C10.1175 16.2776 10.1783 16.2787 10.2443 16.2807C10.3102 16.2807 10.3762 16.2828 10.4422 16.2869C10.5082 16.289 10.5731 16.2931 10.637 16.2993C10.703 16.3055 10.7638 16.3137 10.8195 16.324C10.8772 16.3343 10.9339 16.3529 10.9896 16.3797C11.0473 16.4065 11.1009 16.4395 11.1504 16.4787C11.1999 16.5178 11.2432 16.5632 11.2803 16.6148C11.3174 16.6642 11.3442 16.7178 11.3607 16.7756C11.3628 16.7818 11.3638 16.7921 11.3638 16.8065C11.3659 16.8209 11.3669 16.8374 11.3669 16.856C11.3669 16.8725 11.3669 16.8879 11.3669 16.9024C11.3669 16.9168 11.3669 16.9271 11.3669 16.9333ZM10.6772 17.6601V17.2642C10.6174 17.2622 10.5576 17.2611 10.4979 17.2611C10.4381 17.2591 10.3783 17.258 10.3185 17.258C10.3061 17.258 10.2711 17.2591 10.2133 17.2611C10.1577 17.2611 10.0968 17.2632 10.0309 17.2673C9.96694 17.2714 9.90818 17.2766 9.85457 17.2828C9.80096 17.289 9.77003 17.2982 9.76179 17.3106C9.75148 17.3271 9.74426 17.3446 9.74014 17.3632C9.73808 17.3797 9.73704 17.3972 9.73704 17.4158C9.73704 17.4302 9.73808 17.4498 9.74014 17.4745C9.7422 17.4993 9.74529 17.525 9.74942 17.5518C9.7556 17.5787 9.76179 17.6034 9.76797 17.6261C9.77416 17.6488 9.7824 17.6652 9.79271 17.6756C9.80096 17.6859 9.81436 17.6941 9.83292 17.7003C9.85354 17.7044 9.87519 17.7085 9.89787 17.7127C9.92055 17.7147 9.94323 17.7168 9.96591 17.7189C9.98859 17.7189 10.0061 17.7189 10.0185 17.7189C10.068 17.7189 10.1205 17.7168 10.1762 17.7127C10.2339 17.7085 10.2917 17.7044 10.3494 17.7003C10.4092 17.6941 10.4669 17.6879 10.5226 17.6817C10.5783 17.6735 10.6298 17.6663 10.6772 17.6601ZM13.204 17.7807L13.1514 18.325C13.0854 18.3292 13.0195 18.3322 12.9535 18.3343C12.8875 18.3384 12.8215 18.3405 12.7556 18.3405C12.7205 18.3405 12.6741 18.3395 12.6164 18.3374C12.5586 18.3353 12.4989 18.3322 12.437 18.3281C12.3751 18.3219 12.3164 18.3147 12.2607 18.3065C12.205 18.2962 12.1607 18.2838 12.1277 18.2694C12.0782 18.2467 12.037 18.2168 12.004 18.1797C11.9731 18.1426 11.9473 18.1024 11.9267 18.0591C11.9061 18.0137 11.8896 17.9663 11.8772 17.9168C11.8648 17.8652 11.8556 17.8147 11.8494 17.7652C11.8432 17.7178 11.838 17.6673 11.8339 17.6137C11.8319 17.558 11.8298 17.5013 11.8277 17.4436C11.8277 17.3859 11.8277 17.3302 11.8277 17.2766C11.8277 17.2209 11.8277 17.1694 11.8277 17.122V17.0292H11.636C11.6442 16.9364 11.6484 16.8446 11.6484 16.7539C11.6504 16.6632 11.6556 16.5715 11.6638 16.4787L11.8494 16.4849V16.0271C11.9669 16.0498 12.0834 16.0622 12.1989 16.0642C12.3164 16.0642 12.4339 16.0684 12.5514 16.0766L12.5452 16.5498L12.805 16.5653C12.805 16.5797 12.805 16.5931 12.805 16.6055C12.8071 16.6178 12.8081 16.6312 12.8081 16.6457C12.8081 16.7034 12.803 16.7601 12.7927 16.8158C12.7844 16.8694 12.7731 16.924 12.7586 16.9797H12.5329C12.5288 17.0745 12.5257 17.1694 12.5236 17.2642C12.5215 17.3591 12.5205 17.4539 12.5205 17.5488C12.5205 17.5941 12.5215 17.6354 12.5236 17.6725C12.5277 17.7075 12.536 17.7374 12.5483 17.7622C12.5628 17.7869 12.5855 17.8055 12.6164 17.8178C12.6473 17.8302 12.6906 17.8364 12.7463 17.8364C12.8226 17.8364 12.8988 17.8312 12.9751 17.8209C13.0514 17.8106 13.1277 17.7972 13.204 17.7807ZM15.3225 17.1807C15.0524 17.1952 14.7834 17.2075 14.5153 17.2178C14.2473 17.2261 13.9782 17.2354 13.7081 17.2457C13.7061 17.2539 13.705 17.2622 13.705 17.2704C13.705 17.2787 13.705 17.2869 13.705 17.2952C13.705 17.3653 13.7205 17.4189 13.7514 17.456C13.7844 17.4931 13.8246 17.5199 13.872 17.5364C13.9195 17.5508 13.972 17.5591 14.0298 17.5611C14.0875 17.5632 14.1411 17.5642 14.1906 17.5642C14.3287 17.5642 14.4669 17.5601 14.605 17.5518C14.7431 17.5415 14.8823 17.5312 15.0225 17.5209L15.0473 18.0127C14.9112 18.0189 14.7751 18.024 14.639 18.0281C14.505 18.0323 14.37 18.0343 14.2339 18.0343C14.205 18.0343 14.1514 18.0343 14.0731 18.0343C13.9968 18.0323 13.9143 18.0292 13.8256 18.025C13.739 18.0189 13.6576 18.0116 13.5813 18.0034C13.505 17.9951 13.4545 17.9838 13.4298 17.9694C13.3659 17.9323 13.3153 17.8848 13.2782 17.8271C13.2432 17.7694 13.2153 17.7065 13.1947 17.6384C13.1762 17.5704 13.1628 17.5013 13.1545 17.4312C13.1483 17.3591 13.1442 17.29 13.1421 17.224C13.1401 17.2137 13.1391 17.2034 13.1391 17.1931C13.1411 17.1807 13.1421 17.1694 13.1421 17.1591C13.1421 17.0498 13.1535 16.9488 13.1762 16.856C13.2009 16.7611 13.2452 16.6694 13.3092 16.5807C13.3524 16.5189 13.4164 16.4673 13.5009 16.4261C13.5854 16.3849 13.6772 16.3529 13.7762 16.3302C13.8751 16.3055 13.9741 16.289 14.0731 16.2807C14.172 16.2704 14.2576 16.2653 14.3298 16.2653C14.3937 16.2653 14.472 16.2715 14.5648 16.2838C14.6576 16.2941 14.7493 16.3127 14.8401 16.3395C14.9328 16.3663 15.0163 16.4014 15.0906 16.4447C15.1648 16.4859 15.2153 16.5374 15.2421 16.5993C15.2462 16.6117 15.2504 16.6333 15.2545 16.6642C15.2607 16.6931 15.2669 16.7271 15.273 16.7663C15.2792 16.8034 15.2844 16.8436 15.2885 16.8869C15.2947 16.9302 15.2998 16.9714 15.304 17.0106C15.3081 17.0498 15.3112 17.0848 15.3132 17.1158C15.3174 17.1467 15.3205 17.1684 15.3225 17.1807ZM14.9019 16.955C14.8895 16.8642 14.8658 16.7931 14.8308 16.7416C14.7978 16.6879 14.7555 16.6488 14.704 16.624C14.6545 16.5972 14.5968 16.5807 14.5308 16.5745C14.4669 16.5663 14.3978 16.5622 14.3236 16.5622C14.2988 16.5622 14.2679 16.5632 14.2308 16.5653C14.1937 16.5653 14.1566 16.5684 14.1194 16.5745C14.0823 16.5787 14.0473 16.5859 14.0143 16.5962C13.9813 16.6065 13.9555 16.6209 13.937 16.6395C13.9225 16.6519 13.9102 16.6694 13.8999 16.6921C13.8916 16.7127 13.8844 16.7354 13.8782 16.7601C13.872 16.7849 13.8669 16.8096 13.8628 16.8343C13.8607 16.857 13.8597 16.8766 13.8597 16.8931C13.8597 16.9261 13.8628 16.958 13.8689 16.989L14.9019 16.955Z" fill="#FF440E"/>
<path d="M9.89168 19.6838C9.89168 19.8653 9.89065 20.0446 9.88859 20.222C9.88859 20.3972 9.88756 20.5756 9.8855 20.757C9.75766 20.7508 9.63086 20.7477 9.50509 20.7477C9.44323 20.7477 9.38035 20.7508 9.31643 20.757C9.25458 20.7632 9.19272 20.7714 9.13087 20.7817C9.05252 20.6106 8.97417 20.4415 8.89582 20.2745C8.81747 20.1055 8.73912 19.9354 8.66077 19.7642C8.60304 19.6385 8.5484 19.5127 8.49686 19.3869C8.44531 19.2612 8.39377 19.1344 8.34222 19.0065C8.32367 19.2849 8.30408 19.5622 8.28346 19.8385C8.2649 20.1127 8.24944 20.389 8.23707 20.6673L7.56904 20.6488C7.55873 20.2529 7.54945 19.8591 7.5412 19.4673C7.53296 19.0756 7.51852 18.6818 7.49791 18.2859L8.70716 18.2797C8.7484 18.3828 8.78654 18.4869 8.8216 18.5921C8.85871 18.6952 8.89376 18.8003 8.92675 18.9076C8.97417 19.0704 9.02778 19.2323 9.08757 19.3931C9.14736 19.5519 9.20716 19.7117 9.26695 19.8725C9.26489 19.6148 9.25973 19.3581 9.25149 19.1024C9.2453 18.8467 9.24015 18.589 9.23602 18.3292L9.86075 18.4034C9.869 18.6179 9.87622 18.8313 9.8824 19.0436C9.88859 19.256 9.89168 19.4694 9.89168 19.6838ZM10.8288 18.6106C10.8288 18.6519 10.8195 18.6911 10.8009 18.7282C10.7845 18.7632 10.7607 18.7942 10.7298 18.821C10.7009 18.8478 10.668 18.8694 10.6308 18.8859C10.5937 18.9003 10.5566 18.9076 10.5195 18.9076C10.4783 18.9076 10.4391 18.8983 10.402 18.8797C10.3669 18.8612 10.336 18.8374 10.3092 18.8086C10.2824 18.7797 10.2618 18.7467 10.2473 18.7096C10.2329 18.6704 10.2257 18.6313 10.2257 18.5921C10.2257 18.5529 10.2329 18.5168 10.2473 18.4838C10.2638 18.4488 10.2845 18.4189 10.3092 18.3942C10.336 18.3694 10.3659 18.3498 10.3989 18.3354C10.4339 18.321 10.4711 18.3137 10.5102 18.3137C10.5494 18.3137 10.5875 18.322 10.6247 18.3385C10.6638 18.3529 10.6979 18.3746 10.7267 18.4034C10.7576 18.4302 10.7824 18.4622 10.8009 18.4993C10.8195 18.5344 10.8288 18.5715 10.8288 18.6106ZM10.9556 19.1364C10.9453 19.2457 10.937 19.3539 10.9308 19.4612C10.9247 19.5684 10.9185 19.6756 10.9123 19.7828C10.904 19.9086 10.8896 20.0333 10.869 20.157C10.8504 20.2807 10.8288 20.4044 10.804 20.5281L10.3308 20.5776C10.3308 20.5116 10.3308 20.4467 10.3308 20.3828C10.3329 20.3189 10.3339 20.2539 10.3339 20.1879C10.3339 20.0189 10.3308 19.8498 10.3247 19.6807C10.3185 19.5117 10.3123 19.3426 10.3061 19.1735C10.4154 19.1694 10.5226 19.1632 10.6278 19.155C10.735 19.1467 10.8442 19.1405 10.9556 19.1364ZM13.337 19.5849C13.337 19.6715 13.336 19.7581 13.3339 19.8446C13.3339 19.9292 13.3339 20.0147 13.3339 20.1013C13.3318 20.1467 13.3308 20.1931 13.3308 20.2405C13.3329 20.2879 13.3318 20.3354 13.3277 20.3828C13.3215 20.4281 13.3153 20.4766 13.3092 20.5281C13.303 20.5776 13.2927 20.6271 13.2782 20.6766C13.2638 20.7261 13.2442 20.7725 13.2195 20.8158C13.1968 20.8591 13.1659 20.8962 13.1267 20.9271C13.1164 20.9354 13.0958 20.9426 13.0648 20.9488C13.0339 20.9549 12.9978 20.9611 12.9566 20.9673C12.9153 20.9735 12.871 20.9787 12.8236 20.9828C12.7762 20.9869 12.7308 20.99 12.6875 20.9921C12.6442 20.9962 12.605 20.9993 12.57 21.0013C12.5349 21.0055 12.5102 21.0075 12.4958 21.0075C12.3659 21.0116 12.237 21.0147 12.1092 21.0168C11.9834 21.0189 11.8556 21.0199 11.7257 21.0199H11.5277C11.5236 20.9848 11.5195 20.9488 11.5154 20.9116C11.5112 20.8745 11.5092 20.8374 11.5092 20.8003C11.5092 20.7591 11.5051 20.7168 11.4968 20.6735C11.4886 20.6281 11.4793 20.5838 11.469 20.5405L11.6731 20.5436C11.6855 20.5436 11.7195 20.5436 11.7752 20.5436C11.8329 20.5415 11.8999 20.5405 11.9762 20.5405C12.0525 20.5385 12.1339 20.5364 12.2205 20.5343C12.3092 20.5302 12.3906 20.5251 12.4648 20.5189C12.5391 20.5127 12.6019 20.5055 12.6535 20.4972C12.7071 20.489 12.737 20.4797 12.7432 20.4694C12.7597 20.4426 12.77 20.4127 12.7741 20.3797C12.7782 20.3446 12.7803 20.3117 12.7803 20.2807C12.7803 20.2642 12.7793 20.2477 12.7772 20.2312C12.7772 20.2127 12.7762 20.1952 12.7741 20.1787C12.6586 20.1869 12.5442 20.1941 12.4308 20.2003C12.3174 20.2065 12.202 20.2096 12.0844 20.2096C12.0576 20.2096 12.0236 20.2096 11.9824 20.2096C11.9432 20.2096 11.902 20.2086 11.8587 20.2065C11.8174 20.2044 11.7762 20.2013 11.7349 20.1972C11.6958 20.1931 11.6638 20.1869 11.6391 20.1787C11.5978 20.1663 11.5556 20.1529 11.5123 20.1385C11.471 20.122 11.4319 20.1024 11.3947 20.0797C11.3576 20.057 11.3246 20.0302 11.2958 19.9993C11.269 19.9663 11.2504 19.9271 11.2401 19.8818C11.2339 19.8591 11.2298 19.8343 11.2277 19.8075C11.2277 19.7807 11.2277 19.756 11.2277 19.7333C11.2277 19.6756 11.2308 19.6024 11.237 19.5137C11.2432 19.4251 11.2535 19.3354 11.2679 19.2447C11.2844 19.1519 11.3051 19.0653 11.3298 18.9849C11.3566 18.9024 11.3896 18.8405 11.4288 18.7993C11.4514 18.7746 11.4875 18.7529 11.537 18.7344C11.5886 18.7158 11.6463 18.7003 11.7102 18.688C11.7741 18.6756 11.8411 18.6653 11.9112 18.657C11.9834 18.6467 12.0535 18.6395 12.1215 18.6354C12.1896 18.6313 12.2514 18.6282 12.3071 18.6261C12.3648 18.6241 12.4102 18.623 12.4432 18.623C12.5586 18.623 12.6741 18.6261 12.7896 18.6323L12.8112 18.4344L13.3308 18.5117C13.3329 18.6911 13.3339 18.8694 13.3339 19.0467C13.336 19.224 13.337 19.4034 13.337 19.5849ZM12.7896 19.5261C12.7896 19.4601 12.7885 19.3962 12.7865 19.3343C12.7844 19.2704 12.7813 19.2055 12.7772 19.1395C12.6865 19.1189 12.5958 19.1024 12.505 19.09C12.4143 19.0777 12.3215 19.0715 12.2267 19.0715C12.2102 19.0715 12.1855 19.0725 12.1525 19.0746C12.1195 19.0766 12.0844 19.0807 12.0473 19.0869C12.0123 19.0911 11.9793 19.0983 11.9483 19.1086C11.9174 19.1168 11.8958 19.1271 11.8834 19.1395C11.8648 19.1601 11.8535 19.1838 11.8494 19.2106C11.8453 19.2374 11.8432 19.2642 11.8432 19.2911C11.8432 19.3137 11.8453 19.3488 11.8494 19.3962C11.8556 19.4416 11.8628 19.489 11.871 19.5385C11.8793 19.588 11.8896 19.6343 11.902 19.6776C11.9143 19.7209 11.9267 19.7508 11.9391 19.7673C11.9514 19.7838 11.9669 19.7962 11.9855 19.8044C12.004 19.8127 12.0236 19.8189 12.0442 19.823C12.0669 19.8251 12.0886 19.8271 12.1092 19.8292C12.1319 19.8292 12.1514 19.8292 12.1679 19.8292C12.2092 19.8292 12.2587 19.8282 12.3164 19.8261C12.3762 19.822 12.4349 19.8158 12.4927 19.8075C12.5525 19.7993 12.6081 19.7879 12.6597 19.7735C12.7112 19.757 12.7504 19.7354 12.7772 19.7086C12.7813 19.7065 12.7844 19.6962 12.7865 19.6776C12.7885 19.6591 12.7896 19.6395 12.7896 19.6189C12.7896 19.5983 12.7896 19.5787 12.7896 19.5601C12.7896 19.5416 12.7896 19.5302 12.7896 19.5261ZM15.7617 19.4735C15.7617 19.5498 15.7565 19.6271 15.7462 19.7055C15.738 19.7818 15.7287 19.8581 15.7184 19.9343C15.7019 20.0684 15.6833 20.2013 15.6627 20.3333C15.6421 20.4632 15.6215 20.5952 15.6009 20.7292C15.4998 20.7312 15.4009 20.7354 15.304 20.7415C15.2071 20.7477 15.1091 20.7549 15.0102 20.7632C15.0102 20.6127 15.0102 20.4642 15.0102 20.3178C15.0102 20.1694 15.0071 20.0209 15.0009 19.8725C15.0009 19.8436 14.9998 19.8065 14.9978 19.7611C14.9978 19.7158 14.9937 19.6787 14.9854 19.6498C14.973 19.6024 14.9576 19.5704 14.939 19.5539C14.9205 19.5354 14.8844 19.5261 14.8308 19.5261C14.7937 19.5261 14.7504 19.5302 14.7009 19.5385C14.6514 19.5467 14.6009 19.557 14.5493 19.5694C14.4978 19.5818 14.4483 19.5962 14.4009 19.6127C14.3555 19.6271 14.3174 19.6426 14.2865 19.6591C14.27 19.8261 14.2493 19.9921 14.2246 20.157C14.2019 20.322 14.1875 20.489 14.1813 20.658L13.7452 20.6364C13.7225 20.2653 13.7009 19.8962 13.6803 19.5292C13.6597 19.1601 13.6401 18.79 13.6215 18.4189L14.3019 18.3756C14.2978 18.5117 14.2937 18.6478 14.2895 18.7838C14.2854 18.9179 14.2813 19.0529 14.2772 19.189C14.3164 19.156 14.3607 19.1313 14.4102 19.1148C14.4596 19.0962 14.5102 19.0838 14.5617 19.0777C14.6153 19.0715 14.6689 19.0684 14.7225 19.0684C14.7761 19.0684 14.8277 19.0684 14.8772 19.0684C14.9514 19.0684 15.0349 19.0715 15.1277 19.0777C15.2225 19.0818 15.3122 19.0962 15.3967 19.121C15.4833 19.1436 15.5596 19.1807 15.6256 19.2323C15.6916 19.2838 15.7359 19.356 15.7586 19.4488C15.7607 19.4529 15.7617 19.457 15.7617 19.4612C15.7617 19.4653 15.7617 19.4694 15.7617 19.4735ZM17.5524 20.1323L17.4998 20.6766C17.4338 20.6807 17.3678 20.6838 17.3019 20.6859C17.2359 20.69 17.1699 20.6921 17.1039 20.6921C17.0689 20.6921 17.0225 20.691 16.9648 20.689C16.907 20.6869 16.8472 20.6838 16.7854 20.6797C16.7235 20.6735 16.6648 20.6663 16.6091 20.658C16.5534 20.6477 16.5091 20.6354 16.4761 20.6209C16.4266 20.5982 16.3854 20.5683 16.3524 20.5312C16.3215 20.4941 16.2957 20.4539 16.2751 20.4106C16.2545 20.3653 16.238 20.3178 16.2256 20.2684C16.2132 20.2168 16.2039 20.1663 16.1978 20.1168C16.1916 20.0694 16.1864 20.0189 16.1823 19.9653C16.1802 19.9096 16.1782 19.8529 16.1761 19.7952C16.1761 19.7374 16.1761 19.6818 16.1761 19.6282C16.1761 19.5725 16.1761 19.5209 16.1761 19.4735V19.3807H15.9844C15.9926 19.288 15.9967 19.1962 15.9967 19.1055C15.9988 19.0148 16.004 18.923 16.0122 18.8302L16.1978 18.8364V18.3787C16.3153 18.4014 16.4318 18.4137 16.5472 18.4158C16.6648 18.4158 16.7823 18.4199 16.8998 18.4282L16.8936 18.9014L17.1534 18.9168C17.1534 18.9313 17.1534 18.9447 17.1534 18.957C17.1555 18.9694 17.1565 18.9828 17.1565 18.9972C17.1565 19.055 17.1514 19.1117 17.141 19.1673C17.1328 19.2209 17.1215 19.2756 17.107 19.3313H16.8813C16.8771 19.4261 16.874 19.5209 16.872 19.6158C16.8699 19.7106 16.8689 19.8055 16.8689 19.9003C16.8689 19.9457 16.8699 19.9869 16.872 20.024C16.8761 20.0591 16.8843 20.089 16.8967 20.1137C16.9112 20.1385 16.9338 20.157 16.9648 20.1694C16.9957 20.1818 17.039 20.1879 17.0947 20.1879C17.1709 20.1879 17.2472 20.1828 17.3235 20.1725C17.3998 20.1622 17.4761 20.1488 17.5524 20.1323Z" fill="#FF440E"/>
<path d="M10.3027 22.2813V22.612L9.39074 22.6593C9.37814 22.842 9.36869 23.0231 9.36239 23.2027C9.35609 23.3822 9.35294 23.5618 9.35294 23.7413C9.35294 23.9618 9.34664 24.1823 9.33404 24.4028C9.32459 24.6202 9.31199 24.8375 9.29624 25.0549C9.18284 25.0612 9.06944 25.0659 8.95604 25.0691C8.84264 25.0754 8.72924 25.0785 8.61584 25.0785C8.57489 25.0785 8.53394 25.0769 8.49299 25.0738C8.45519 25.0738 8.41739 25.0738 8.37959 25.0738C8.38589 24.8816 8.39062 24.691 8.39377 24.502C8.40007 24.3099 8.40322 24.1193 8.40322 23.9303C8.40322 23.7413 8.39849 23.5523 8.38904 23.3633C8.37959 23.1712 8.36857 22.979 8.35597 22.7869C8.26462 22.79 8.17169 22.7932 8.07719 22.7963C7.98584 22.7995 7.89292 22.801 7.79842 22.801C7.74487 22.801 7.69132 22.801 7.63777 22.801C7.58737 22.801 7.53539 22.7995 7.48184 22.7963C7.47239 22.5632 7.46609 22.3317 7.46294 22.1017C7.45979 21.8718 7.45664 21.6418 7.45349 21.4119C7.92599 21.4213 8.39534 21.4355 8.86154 21.4544C9.32774 21.4702 9.79552 21.4843 10.2649 21.4969C10.2775 21.6324 10.2869 21.7647 10.2932 21.8938C10.2995 22.0198 10.3027 22.149 10.3027 22.2813ZM14.0638 22.9003C14.0638 23.1649 14.0543 23.4279 14.0354 23.6893C14.0165 23.9508 13.9976 24.2122 13.9787 24.4737C13.6259 24.5052 13.2747 24.532 12.9251 24.554C12.5754 24.5761 12.2242 24.5871 11.8714 24.5871C11.8399 24.5871 11.7816 24.5871 11.6965 24.5871C11.6115 24.5839 11.5217 24.5808 11.4272 24.5776C11.3327 24.5713 11.2429 24.565 11.1579 24.5587C11.0728 24.5493 11.0161 24.5367 10.9878 24.5209C10.8838 24.4642 10.8114 24.3934 10.7704 24.3083C10.7295 24.2201 10.709 24.1209 10.709 24.0106C10.709 23.9728 10.7106 23.9224 10.7137 23.8594C10.7169 23.7964 10.7232 23.7303 10.7326 23.661C10.7421 23.5917 10.7547 23.5271 10.7704 23.4673C10.7862 23.4074 10.8051 23.3633 10.8271 23.335C10.8555 23.2972 10.9201 23.2657 11.0209 23.2405C11.1217 23.2121 11.2414 23.1901 11.38 23.1743C11.5217 23.1586 11.6729 23.146 11.8336 23.1365C11.9974 23.1271 12.1533 23.1208 12.3013 23.1176C12.4494 23.1113 12.5817 23.1082 12.6983 23.1082C12.8148 23.1082 12.8983 23.1082 12.9487 23.1082C12.9581 23.0389 12.9629 22.9711 12.9629 22.905C12.9629 22.8987 12.9629 22.8829 12.9629 22.8577C12.9629 22.8294 12.9613 22.8121 12.9581 22.8058C12.9487 22.7869 12.9188 22.7711 12.8684 22.7585C12.818 22.7459 12.755 22.7365 12.6794 22.7302C12.6069 22.7239 12.5266 22.7191 12.4384 22.716C12.3533 22.7097 12.2698 22.7065 12.1879 22.7065C12.106 22.7065 12.0336 22.7065 11.9706 22.7065C11.9076 22.7065 11.8619 22.7065 11.8336 22.7065C11.6351 22.7065 11.4367 22.7113 11.2382 22.7207C11.0398 22.727 10.8413 22.7333 10.6429 22.7396C10.6555 22.6199 10.6649 22.4986 10.6712 22.3758C10.6807 22.2529 10.6822 22.1317 10.6759 22.012C10.9059 21.971 11.1358 21.9427 11.3658 21.9269C11.5989 21.908 11.8336 21.8986 12.0698 21.8986C12.1549 21.8986 12.2478 21.9001 12.3486 21.9033C12.4494 21.9033 12.5502 21.9064 12.651 21.9127C12.7518 21.9159 12.851 21.9222 12.9487 21.9316C13.0495 21.9411 13.1424 21.9537 13.2275 21.9694C13.3157 21.9852 13.4023 22.0135 13.4873 22.0545C13.5755 22.0954 13.6574 22.1458 13.733 22.2057C13.8086 22.2655 13.8748 22.3348 13.9315 22.4136C13.9882 22.4892 14.0291 22.5711 14.0543 22.6593C14.0575 22.6687 14.0591 22.6845 14.0591 22.7065C14.0622 22.7286 14.0638 22.7538 14.0638 22.7821C14.0638 22.8073 14.0638 22.831 14.0638 22.853C14.0638 22.8751 14.0638 22.8908 14.0638 22.9003ZM13.0101 24.0106V23.4058C12.9188 23.4027 12.8274 23.4011 12.7361 23.4011C12.6447 23.398 12.5534 23.3964 12.462 23.3964C12.4431 23.3964 12.3896 23.398 12.3013 23.4011C12.2163 23.4011 12.1234 23.4043 12.0226 23.4106C11.9249 23.4169 11.8351 23.4247 11.7532 23.4342C11.6713 23.4436 11.6241 23.4578 11.6115 23.4767C11.5957 23.5019 11.5847 23.5287 11.5784 23.557C11.5753 23.5822 11.5737 23.609 11.5737 23.6374C11.5737 23.6594 11.5753 23.6893 11.5784 23.7271C11.5816 23.7649 11.5863 23.8043 11.5926 23.8453C11.602 23.8862 11.6115 23.924 11.6209 23.9587C11.6304 23.9933 11.643 24.0185 11.6587 24.0343C11.6713 24.05 11.6918 24.0626 11.7202 24.0721C11.7517 24.0784 11.7847 24.0847 11.8194 24.091C11.854 24.0941 11.8887 24.0973 11.9233 24.1004C11.958 24.1004 11.9848 24.1004 12.0037 24.1004C12.0793 24.1004 12.1596 24.0973 12.2446 24.091C12.3328 24.0847 12.4211 24.0784 12.5093 24.0721C12.6006 24.0626 12.6888 24.0532 12.7739 24.0437C12.8589 24.0311 12.9377 24.0201 13.0101 24.0106ZM15.5758 21.3977C15.5506 21.7033 15.5254 22.0072 15.5002 22.3096C15.4781 22.612 15.4592 22.916 15.4435 23.2216C15.4277 23.4988 15.4104 23.7744 15.3915 24.0484C15.3758 24.3193 15.36 24.5934 15.3443 24.8706L14.6213 24.9084C14.6213 24.6217 14.6213 24.3382 14.6213 24.0579C14.6245 23.7744 14.6229 23.4893 14.6166 23.2027C14.6103 22.916 14.5977 22.6325 14.5788 22.3522C14.5599 22.0687 14.541 21.7836 14.5221 21.4969L15.5758 21.3977ZM19.1999 22.4278L17.9855 23.3066C17.995 23.3444 18.0139 23.4058 18.0422 23.4909C18.0706 23.5728 18.1021 23.6594 18.1367 23.7508C18.1714 23.839 18.2076 23.9224 18.2454 24.0012C18.2864 24.0768 18.3242 24.1256 18.3588 24.1477C18.3809 24.1634 18.4092 24.176 18.4439 24.1855C18.4785 24.1949 18.5132 24.2028 18.5478 24.2091C18.5856 24.2154 18.6218 24.2201 18.6565 24.2233C18.6943 24.2233 18.7258 24.2233 18.751 24.2233C18.7951 24.2233 18.8408 24.2217 18.888 24.2185C18.9353 24.2154 18.9809 24.2107 19.025 24.2044C19.0187 24.2453 19.014 24.2878 19.0109 24.3319C19.0077 24.3729 19.0061 24.4154 19.0061 24.4595C19.0061 24.5351 19.0077 24.6107 19.0109 24.6863C19.014 24.7619 19.0156 24.8359 19.0156 24.9084C18.9935 24.9115 18.9542 24.9163 18.8975 24.9226C18.8439 24.9257 18.7809 24.9304 18.7085 24.9367C18.6392 24.9399 18.5651 24.9446 18.4864 24.9509C18.4076 24.9572 18.3336 24.9635 18.2643 24.9698C18.1982 24.973 18.1399 24.9745 18.0895 24.9745C18.0422 24.9745 18.0123 24.9714 17.9997 24.9651C17.9462 24.9399 17.8942 24.9131 17.8438 24.8848C17.7934 24.8564 17.7509 24.817 17.7162 24.7666C17.7005 24.7446 17.6737 24.6847 17.6359 24.5871C17.6012 24.4894 17.5634 24.3823 17.5225 24.2658C17.4847 24.1492 17.4485 24.0406 17.4138 23.9398C17.3823 23.839 17.3618 23.7744 17.3524 23.746L16.8988 24.039V24.8611L15.9632 24.9415C15.9821 24.5005 16.0026 24.0626 16.0247 23.6279C16.0467 23.1901 16.0577 22.7491 16.0577 22.3049C16.0577 22.1695 16.0562 22.0356 16.053 21.9033C16.053 21.771 16.0514 21.6355 16.0483 21.4969C16.1774 21.5221 16.305 21.5379 16.431 21.5442C16.5602 21.5505 16.6893 21.5599 16.8185 21.5725V23.3397C17.0642 23.1885 17.3036 23.0341 17.5367 22.8766C17.7729 22.7191 18.0013 22.5459 18.2218 22.3569C18.3887 22.3758 18.551 22.39 18.7085 22.3994C18.8691 22.4089 19.0329 22.4183 19.1999 22.4278ZM21.8931 21.7521L21.8648 22.3663C21.7671 22.36 21.6695 22.3553 21.5718 22.3522C21.4742 22.349 21.3765 22.3474 21.2789 22.3474C21.2379 22.3474 21.1796 22.349 21.104 22.3522C21.0284 22.3522 20.9434 22.3537 20.8489 22.3569C20.7575 22.36 20.663 22.3648 20.5654 22.3711C20.4677 22.3774 20.378 22.3837 20.2961 22.39C20.2142 22.3963 20.1449 22.4041 20.0882 22.4136C20.0315 22.423 19.9968 22.4325 19.9842 22.4419C19.9433 22.4829 19.9228 22.5301 19.9228 22.5837C19.9228 22.6183 19.9322 22.6467 19.9511 22.6687C19.9574 22.6782 19.9921 22.6861 20.0551 22.6924C20.1181 22.6987 20.1953 22.705 20.2866 22.7113C20.378 22.7144 20.4772 22.7176 20.5843 22.7207C20.6945 22.7207 20.7985 22.7223 20.8961 22.7254C20.9969 22.7254 21.0851 22.727 21.1607 22.7302C21.2395 22.7333 21.2946 22.7365 21.3261 22.7396C21.4458 22.7554 21.5403 22.79 21.6096 22.8436C21.6821 22.8971 21.7372 22.9648 21.775 23.0467C21.8128 23.1255 21.8364 23.2153 21.8459 23.3161C21.8585 23.4169 21.8648 23.5192 21.8648 23.6232C21.8648 23.6736 21.86 23.7334 21.8506 23.8027C21.8443 23.872 21.8333 23.9413 21.8175 24.0106C21.8018 24.0799 21.7781 24.1445 21.7466 24.2044C21.7183 24.2642 21.6836 24.3115 21.6427 24.3461C21.5954 24.3839 21.5183 24.4154 21.4112 24.4406C21.3072 24.4658 21.1938 24.4863 21.071 24.502C20.9513 24.5178 20.8347 24.5288 20.7213 24.5351C20.6079 24.5414 20.5213 24.5446 20.4614 24.5446C20.2535 24.5446 20.0456 24.5335 19.8377 24.5115C19.6298 24.4863 19.4235 24.4595 19.2188 24.4312V23.5287C19.4172 23.5696 19.6157 23.5933 19.8141 23.5996C20.0157 23.6059 20.2173 23.6169 20.4189 23.6326C20.4599 23.6358 20.5213 23.6389 20.6032 23.6421C20.6882 23.6421 20.7733 23.6405 20.8583 23.6374C20.9434 23.6311 21.0206 23.62 21.0899 23.6043C21.1592 23.5885 21.2017 23.5665 21.2174 23.5381C21.2237 23.5287 21.2269 23.5177 21.2269 23.5051C21.2269 23.4925 21.2269 23.4814 21.2269 23.472C21.2269 23.4468 21.2237 23.4153 21.2174 23.3775C21.2143 23.3365 21.2048 23.305 21.1891 23.283C21.1859 23.2798 21.1749 23.2783 21.156 23.2783C21.1371 23.2751 21.1261 23.2735 21.1229 23.2735C20.9465 23.2641 20.7701 23.2594 20.5937 23.2594C20.4173 23.2562 20.2394 23.2468 20.0598 23.231C19.9874 23.2247 19.9133 23.2184 19.8377 23.2121C19.7653 23.2027 19.6928 23.1901 19.6204 23.1743C19.5605 23.1617 19.5054 23.1475 19.455 23.1318C19.4078 23.116 19.3652 23.0956 19.3274 23.0704C19.2928 23.0452 19.2629 23.0137 19.2377 22.9759C19.2125 22.9349 19.1951 22.8814 19.1857 22.8152C19.1794 22.7932 19.1762 22.7727 19.1762 22.7538C19.1762 22.7317 19.1762 22.7081 19.1762 22.6829C19.1762 22.6262 19.1794 22.5616 19.1857 22.4892C19.192 22.4167 19.203 22.3443 19.2188 22.2718C19.2377 22.1994 19.2597 22.1317 19.2849 22.0687C19.3133 22.0025 19.3495 21.949 19.3936 21.908C19.4219 21.8797 19.4723 21.856 19.5448 21.8371C19.6172 21.8182 19.7007 21.8025 19.7952 21.7899C19.8897 21.7741 19.9905 21.7615 20.0976 21.7521C20.2047 21.7426 20.3071 21.7363 20.4047 21.7332C20.5055 21.7269 20.5953 21.7237 20.6741 21.7237C20.756 21.7206 20.8174 21.719 20.8583 21.719C21.0347 21.719 21.208 21.7222 21.3781 21.7285C21.5513 21.7348 21.723 21.7426 21.8931 21.7521Z" fill="#FF440E"/>
<path fill-rule="evenodd" clip-rule="evenodd" d="M20.7774 15.7141C20.3144 15.7527 19.863 15.8796 19.4477 16.088C18.6 16.5151 18.0337 17.2404 17.8938 18.078C17.8766 18.1807 17.8705 18.2833 17.8711 18.4582C17.8724 18.7968 17.9132 19.0209 18.0269 19.3129C18.2208 19.8103 18.577 20.2516 19.0507 20.5809C19.1229 20.6311 19.1323 20.6427 19.1472 20.7033C19.1585 20.748 19.1634 20.849 19.1617 21.0096C19.1588 21.2952 19.1695 21.3424 19.2576 21.4305C19.3463 21.5189 19.4179 21.5357 19.6248 21.5163C19.9333 21.4875 20.1457 21.4059 20.3882 21.2243C20.4685 21.1637 20.4909 21.153 20.5242 21.1582C21.0164 21.2382 21.6057 21.2051 22.0985 21.0695C22.3158 21.0112 22.5265 20.9304 22.727 20.8283C23.5876 20.4067 24.1691 19.6704 24.3083 18.8253C24.3404 18.6327 24.3404 18.2707 24.3083 18.078C24.2258 17.5771 23.9842 17.1041 23.6141 16.7181C22.9235 15.998 21.8699 15.6254 20.7774 15.7141ZM21.5157 16.3733C22.6243 16.5316 23.4658 17.2177 23.6604 18.1221C23.6938 18.2772 23.6941 18.6291 23.6608 18.7813C23.5429 19.3217 23.1906 19.798 22.6677 20.125C22.0962 20.4818 21.3308 20.6282 20.6097 20.5178C20.3533 20.4786 20.2765 20.4977 20.0771 20.6502C19.9605 20.7392 19.844 20.8153 19.8236 20.8153C19.8171 20.8153 19.8048 20.7583 19.7967 20.6884C19.7669 20.4394 19.6779 20.2451 19.5471 20.1438C19.5131 20.1179 19.4273 20.0538 19.3554 20.0016C19.121 19.8307 18.8911 19.5785 18.7573 19.3447C18.5783 19.0316 18.499 18.711 18.5155 18.3675C18.5281 18.1062 18.5796 17.9148 18.7059 17.6613C18.9396 17.1909 19.3975 16.7903 19.9583 16.5656C20.1966 16.4715 20.4456 16.4072 20.6997 16.3743L20.8681 16.3545C20.9474 16.3455 21.4147 16.3587 21.5157 16.3733Z" fill="#ED3F19"/>
<g clip-path="url(#clip0_1091_590)">
<path fill-rule="evenodd" clip-rule="evenodd" d="M21.2731 18.0526C21.2465 18.0563 21.2131 18.0651 21.1852 18.0759C21.1097 18.105 21.0381 18.1595 20.9875 18.2263C20.8968 18.3459 20.8613 18.5032 20.8913 18.6517C20.9066 18.7277 20.9483 18.816 21.0032 18.8888C21.0767 18.9861 21.184 19.0821 21.3199 19.1717C21.415 19.2346 21.501 19.2832 21.5306 19.2909C21.552 19.2964 21.5954 19.2964 21.6168 19.2909C21.6464 19.2832 21.7325 19.2346 21.8275 19.1717C21.9854 19.0675 22.1045 18.9549 22.1769 18.8416C22.1984 18.8078 22.2286 18.7454 22.2405 18.7098C22.2672 18.6279 22.2735 18.5406 22.2588 18.4556C22.2277 18.2735 22.105 18.1231 21.944 18.0694C21.9001 18.0548 21.8766 18.0512 21.8261 18.0512C21.7411 18.0513 21.6759 18.0715 21.6049 18.1199L21.5737 18.1411L21.5425 18.1199C21.4976 18.0886 21.4466 18.067 21.3929 18.0565C21.3651 18.0511 21.2994 18.0489 21.2731 18.0526ZM21.3699 18.1936C21.4204 18.204 21.4648 18.2288 21.5118 18.2728C21.5407 18.2998 21.5512 18.3053 21.5739 18.3052C21.5967 18.3051 21.6068 18.2998 21.6356 18.2728C21.6826 18.2288 21.727 18.204 21.7775 18.1936C21.8704 18.1744 21.9689 18.2135 22.0387 18.2972C22.0807 18.3478 22.1092 18.4082 22.1214 18.4728C22.1337 18.5374 22.1293 18.6041 22.1086 18.6665C22.0554 18.8252 21.8938 18.9807 21.6195 19.1371C21.5935 19.152 21.5807 19.1577 21.5737 19.1577C21.5667 19.1577 21.5539 19.152 21.5279 19.1371C21.2531 18.9801 21.0905 18.8237 21.0387 18.6666C21.0212 18.6135 21.0154 18.5573 21.0216 18.5017C21.0279 18.4462 21.046 18.3926 21.0749 18.3447C21.1427 18.2308 21.2597 18.1709 21.3699 18.1936Z" fill="#FE4A0B"/>
</g>
<g clip-path="url(#clip1_1091_590)">
<path fill-rule="evenodd" clip-rule="evenodd" d="M20.264 17.8574C20.1904 17.8683 20.1209 17.8981 20.0622 17.9439C20.0259 17.9739 19.9933 18.0081 19.9651 18.0459C19.8823 18.1627 19.8501 18.3193 19.8802 18.4591C19.9192 18.6401 20.069 18.828 20.2931 18.977C20.3967 19.0459 20.5183 19.1027 20.5622 19.1027C20.6061 19.1027 20.7281 19.0457 20.8313 18.977C21.0027 18.8628 21.1283 18.7295 21.1976 18.5881C21.2438 18.4939 21.2613 18.408 21.2535 18.3131C21.2472 18.2368 21.2316 18.1801 21.1986 18.1138C21.1716 18.0593 21.1486 18.0274 21.1046 17.9832C21.0406 17.919 20.9708 17.8798 20.8888 17.8622C20.848 17.8535 20.7782 17.8536 20.7371 17.8624C20.6828 17.874 20.6377 17.8939 20.5878 17.9283L20.5622 17.9459L20.5365 17.9283C20.4661 17.8798 20.4008 17.8578 20.3208 17.8557C20.3019 17.8551 20.2829 17.8557 20.264 17.8574Z" fill="#FB7445"/>
</g>
<path opacity="0.4" d="M29.3256 2.13174C29.3047 2.42916 28.5973 2.62185 27.7454 2.56221C26.8936 2.50273 26.2197 2.21325 26.2407 1.91591C26.2615 1.61856 26.969 1.4258 27.8209 1.48543C28.6726 1.54507 29.3465 1.83447 29.3256 2.13174Z" fill="white"/>
<path d="M30.7339 2.93685C30.6983 3.01806 30.5289 3.02211 30.3556 2.94607C30.1822 2.86988 30.0706 2.74244 30.1062 2.66123C30.1418 2.58017 30.3113 2.57605 30.4846 2.65217C30.658 2.72828 30.7696 2.85579 30.7339 2.93685Z" fill="white"/>
<defs>
<linearGradient id="paint0_linear_1091_590" x1="-20.2936" y1="42.2054" x2="77.9442" y2="-24.6688" gradientUnits="userSpaceOnUse">
<stop stop-color="#FF3015"/>
<stop offset="1" stop-color="#FF6700"/>
</linearGradient>
<clipPath id="clip0_1091_590">
<rect width="1.66442" height="1.66442" fill="white" transform="translate(20.7422 17.8398)"/>
</clipPath>
<clipPath id="clip1_1091_590">
<rect width="1.66442" height="1.66442" fill="white" transform="translate(19.7305 17.6465)"/>
</clipPath>
</defs>
</svg>
