<svg width="27" height="33" viewBox="0 0 27 33" fill="none" xmlns="http://www.w3.org/2000/svg">
<rect width="26.0607" height="32.6289" rx="0.847503" fill="#BB33FF"/>
<rect x="3.72852" y="2.45898" width="18.6027" height="18.6027" rx="0.254251" fill="#FEFEFE"/>
<path d="M8.05865 8.36673C8.04348 8.41529 8.01768 8.4517 7.98127 8.47598C7.94789 8.50026 7.9145 8.5124 7.88112 8.5124C7.82953 8.5124 7.78553 8.49722 7.74911 8.46688C7.7127 8.43349 7.69146 8.38646 7.68539 8.32576C7.69449 8.24079 7.69904 8.15582 7.69904 8.07085C7.69904 7.87967 7.68083 7.68848 7.64442 7.4973C7.61104 7.30611 7.58828 7.10886 7.57614 6.90553V6.77353C7.57614 6.72801 7.57765 6.67642 7.58069 6.61876C7.58372 6.5611 7.58828 6.50496 7.59435 6.45033C7.60041 6.39571 7.60648 6.34564 7.61255 6.30012C7.62166 6.25156 7.63076 6.21363 7.63987 6.18632L7.65352 6.1408C7.65352 6.12259 7.65959 6.1059 7.67173 6.09072C7.6869 6.07252 7.70359 6.05734 7.7218 6.0452C7.74304 6.03306 7.76429 6.02396 7.78553 6.01789C7.80677 6.00879 7.82498 6.00424 7.84015 6.00424C7.88264 6.00424 7.92361 6.01941 7.96306 6.04976C8.08141 6.14687 8.20128 6.25308 8.32267 6.3684C8.44709 6.48068 8.56392 6.596 8.67317 6.71435C8.78546 6.8327 8.88864 6.95105 8.98271 7.06941C9.07679 7.18776 9.15265 7.29701 9.21031 7.39715L9.23762 7.10127C9.2528 6.97078 9.26342 6.83574 9.26949 6.69614C9.27859 6.55655 9.28466 6.4124 9.2877 6.2637C9.28163 6.23942 9.27859 6.21818 9.27859 6.19997C9.27859 6.13928 9.29528 6.09224 9.32866 6.05886C9.36204 6.02548 9.40453 6.00879 9.45612 6.00879C9.49861 6.00879 9.5335 6.01637 9.56082 6.03155C9.59116 6.04672 9.61392 6.06645 9.6291 6.09072C9.6473 6.115 9.65944 6.14231 9.66551 6.17266C9.67158 6.19997 9.67462 6.22728 9.67462 6.2546C9.67462 6.30315 9.67006 6.35171 9.66096 6.40026C9.65489 6.44578 9.65186 6.48827 9.65186 6.52772C9.63365 6.78263 9.61392 7.03299 9.59268 7.2788C9.57144 7.52157 9.56082 7.77042 9.56082 8.02533C9.55778 8.08299 9.53957 8.13154 9.50619 8.17099C9.47585 8.21045 9.43033 8.23017 9.36963 8.23017C9.33625 8.23017 9.30439 8.21955 9.27404 8.19831C9.24673 8.17706 9.22093 8.15279 9.19666 8.12547C9.17238 8.09816 9.15113 8.07085 9.13293 8.04354C9.11775 8.01623 9.10713 7.9965 9.10106 7.98436L9.02368 7.81594C8.88105 7.55799 8.71718 7.32129 8.53206 7.10582C8.34998 6.88733 8.1588 6.69311 7.95851 6.52317C7.95244 6.56565 7.94637 6.60965 7.9403 6.65517C7.93726 6.69766 7.93575 6.74014 7.93575 6.78263C7.93575 6.89795 7.94182 7.01327 7.95395 7.12858C7.96913 7.2439 7.9843 7.35922 7.99947 7.47454C8.01465 7.58682 8.0283 7.70062 8.04044 7.81594C8.05562 7.93126 8.0632 8.04809 8.0632 8.16644C8.0632 8.19982 8.0632 8.23321 8.0632 8.26659C8.0632 8.29997 8.06169 8.33335 8.05865 8.36673ZM10.2527 8.5124C10.2254 8.47598 10.2027 8.43198 10.1844 8.38039C10.1693 8.3288 10.1571 8.27417 10.148 8.21652C10.1389 8.15886 10.1313 8.09968 10.1253 8.03899C10.1222 7.97829 10.1192 7.92063 10.1162 7.86601L10.0888 7.31977C10.0797 7.23176 10.0722 7.165 10.0661 7.11948C10.0631 7.07396 10.0585 7.02844 10.0524 6.98292C10.0494 6.93436 10.0464 6.87671 10.0433 6.80994C10.0433 6.74014 10.0433 6.63848 10.0433 6.50496C10.0433 6.45944 10.0418 6.41543 10.0388 6.37295C10.0388 6.33046 10.0388 6.28798 10.0388 6.24549C10.0388 6.13624 10.0661 6.06189 10.1207 6.02244C10.1784 5.97996 10.2512 5.95872 10.3392 5.95872C10.3908 5.95872 10.4454 5.96175 10.5031 5.96782C10.5607 5.97085 10.6184 5.97237 10.6761 5.97237C10.7823 5.97237 10.887 5.95872 10.9901 5.9314C11.0933 5.90106 11.1935 5.87678 11.2906 5.85857C11.3513 5.85857 11.4029 5.87526 11.4454 5.90864C11.4878 5.93899 11.5091 5.97692 11.5091 6.02244C11.5091 6.06493 11.4954 6.10741 11.4681 6.1499C11.4408 6.18935 11.3968 6.21515 11.3361 6.22728C11.2177 6.25156 11.0964 6.27887 10.9719 6.30922C10.8475 6.33957 10.7216 6.35474 10.5941 6.35474C10.5607 6.35474 10.5274 6.35474 10.494 6.35474C10.4606 6.35474 10.4318 6.35171 10.4075 6.34564C10.4105 6.46095 10.4136 6.57172 10.4166 6.67793C10.4196 6.78415 10.4242 6.88733 10.4303 6.98747H10.4348C10.6654 6.96319 10.8824 6.94954 11.0857 6.9465C11.2891 6.94043 11.5045 6.9374 11.7321 6.9374C11.8444 6.96775 11.9006 7.02996 11.9006 7.12403C11.9006 7.16652 11.8839 7.20597 11.8505 7.24238C11.8201 7.27577 11.7776 7.29701 11.723 7.30611C11.6987 7.30611 11.6502 7.30611 11.5774 7.30611C11.5076 7.30611 11.4256 7.30763 11.3316 7.31066C11.2375 7.31066 11.1388 7.31218 11.0357 7.31522C10.9325 7.31522 10.8369 7.31825 10.7489 7.32432C10.6639 7.32735 10.5926 7.33191 10.5349 7.33798C10.4803 7.34405 10.453 7.35163 10.453 7.36074C10.453 7.4973 10.4606 7.63386 10.4758 7.77042C10.494 7.90394 10.5092 8.03595 10.5213 8.16644C10.6032 8.1361 10.6928 8.1103 10.7899 8.08906C10.887 8.06478 10.9871 8.04657 11.0903 8.03443C11.1965 8.0223 11.3042 8.01319 11.4135 8.00712C11.5227 8.00105 11.6289 7.99802 11.7321 7.99802C11.7928 8.0223 11.8353 8.05113 11.8596 8.08451C11.8869 8.11485 11.9006 8.14975 11.9006 8.1892C11.9006 8.23169 11.8839 8.27114 11.8505 8.30756C11.8201 8.34094 11.7776 8.36218 11.723 8.37128C11.5834 8.37128 11.4378 8.38191 11.286 8.40315C11.1343 8.42136 10.9932 8.44412 10.8627 8.47143C10.7352 8.49571 10.626 8.51695 10.5349 8.53516C10.4439 8.5564 10.3893 8.56702 10.3711 8.56702C10.3559 8.56702 10.3377 8.56095 10.3165 8.54881C10.2982 8.53971 10.277 8.52757 10.2527 8.5124ZM13.2889 7.94795C13.2889 7.92063 13.2965 7.8827 13.3117 7.83415C13.3299 7.78559 13.3496 7.734 13.3709 7.67938C13.3951 7.62475 13.4179 7.57165 13.4391 7.52006C13.4634 7.46543 13.4831 7.41991 13.4983 7.3835C13.5772 7.18321 13.6591 6.97988 13.7441 6.77353C13.8291 6.56717 13.8898 6.35929 13.9262 6.1499C13.9383 6.0801 13.9657 6.03458 14.0081 6.01334C14.0506 5.98906 14.0946 5.97692 14.1401 5.97692C14.1857 5.98299 14.2236 6.00575 14.2539 6.0452C14.2843 6.08465 14.2995 6.13473 14.2995 6.19542C14.2661 6.35626 14.2236 6.51103 14.172 6.65973C14.1235 6.80842 14.0688 6.95561 14.0081 7.10127C13.9505 7.24694 13.8928 7.3926 13.8352 7.53826C13.7775 7.68393 13.7259 7.83111 13.6804 7.97981C13.6713 8.00712 13.6546 8.05568 13.6303 8.12547C13.6091 8.19224 13.5818 8.26204 13.5484 8.33487C13.515 8.40467 13.4756 8.46688 13.43 8.5215C13.3875 8.57309 13.3405 8.59888 13.2889 8.59888C13.2373 8.59585 13.1979 8.58523 13.1706 8.56702C13.1463 8.55185 13.1281 8.53364 13.1159 8.5124C13.1068 8.49115 13.0977 8.46839 13.0886 8.44412C13.0826 8.4168 13.0719 8.39253 13.0568 8.37128C12.987 8.16796 12.9126 7.97829 12.8337 7.80228C12.7548 7.62324 12.6774 7.44874 12.6016 7.2788C12.5287 7.10582 12.4605 6.93285 12.3967 6.75987C12.333 6.58386 12.2814 6.39571 12.242 6.19542C12.2389 6.18935 12.2374 6.17873 12.2374 6.16356C12.2374 6.11197 12.2541 6.06645 12.2875 6.027C12.3239 5.98451 12.3664 5.96327 12.4149 5.96327C12.4544 5.96327 12.4923 5.97541 12.5287 5.99968C12.5651 6.02396 12.5909 6.06645 12.6061 6.12714C12.6304 6.23639 12.6638 6.35474 12.7063 6.4822C12.7487 6.60965 12.7943 6.73863 12.8428 6.86912C12.8944 6.99961 12.946 7.12707 12.9976 7.25149C13.0492 7.37287 13.0962 7.48212 13.1387 7.57923C13.1812 7.67634 13.2161 7.75828 13.2434 7.82504C13.2707 7.8918 13.2859 7.93277 13.2889 7.94795ZM14.8776 8.5124C14.8503 8.47598 14.8275 8.43198 14.8093 8.38039C14.7941 8.3288 14.782 8.27417 14.7729 8.21652C14.7638 8.15886 14.7562 8.09968 14.7501 8.03899C14.7471 7.97829 14.744 7.92063 14.741 7.86601L14.7137 7.31977C14.7046 7.23176 14.697 7.165 14.6909 7.11948C14.6879 7.07396 14.6834 7.02844 14.6773 6.98292C14.6742 6.93436 14.6712 6.87671 14.6682 6.80994C14.6682 6.74014 14.6682 6.63848 14.6682 6.50496C14.6682 6.45944 14.6667 6.41543 14.6636 6.37295C14.6636 6.33046 14.6636 6.28798 14.6636 6.24549C14.6636 6.13624 14.6909 6.06189 14.7456 6.02244C14.8032 5.97996 14.8761 5.95872 14.9641 5.95872C15.0156 5.95872 15.0703 5.96175 15.1279 5.96782C15.1856 5.97085 15.2432 5.97237 15.3009 5.97237C15.4071 5.97237 15.5118 5.95872 15.615 5.9314C15.7182 5.90106 15.8183 5.87678 15.9154 5.85857C15.9761 5.85857 16.0277 5.87526 16.0702 5.90864C16.1127 5.93899 16.1339 5.97692 16.1339 6.02244C16.1339 6.06493 16.1203 6.10741 16.093 6.1499C16.0656 6.18935 16.0216 6.21515 15.961 6.22728C15.8426 6.25156 15.7212 6.27887 15.5968 6.30922C15.4724 6.33957 15.3464 6.35474 15.219 6.35474C15.1856 6.35474 15.1522 6.35474 15.1188 6.35474C15.0854 6.35474 15.0566 6.35171 15.0323 6.34564C15.0354 6.46095 15.0384 6.57172 15.0414 6.67793C15.0445 6.78415 15.049 6.88733 15.0551 6.98747H15.0597C15.2903 6.96319 15.5073 6.94954 15.7106 6.9465C15.9139 6.94043 16.1294 6.9374 16.357 6.9374C16.4693 6.96775 16.5254 7.02996 16.5254 7.12403C16.5254 7.16652 16.5087 7.20597 16.4753 7.24238C16.445 7.27577 16.4025 7.29701 16.3479 7.30611C16.3236 7.30611 16.275 7.30611 16.2022 7.30611C16.1324 7.30611 16.0505 7.30763 15.9564 7.31066C15.8623 7.31066 15.7637 7.31218 15.6605 7.31522C15.5573 7.31522 15.4617 7.31825 15.3737 7.32432C15.2888 7.32735 15.2175 7.33191 15.1598 7.33798C15.1052 7.34405 15.0779 7.35163 15.0779 7.36074C15.0779 7.4973 15.0854 7.63386 15.1006 7.77042C15.1188 7.90394 15.134 8.03595 15.1461 8.16644C15.2281 8.1361 15.3176 8.1103 15.4147 8.08906C15.5118 8.06478 15.612 8.04657 15.7151 8.03443C15.8214 8.0223 15.9291 8.01319 16.0383 8.00712C16.1476 8.00105 16.2538 7.99802 16.357 7.99802C16.4177 8.0223 16.4602 8.05113 16.4844 8.08451C16.5117 8.11485 16.5254 8.14975 16.5254 8.1892C16.5254 8.23169 16.5087 8.27114 16.4753 8.30756C16.445 8.34094 16.4025 8.36218 16.3479 8.37128C16.2083 8.37128 16.0626 8.38191 15.9109 8.40315C15.7591 8.42136 15.618 8.44412 15.4875 8.47143C15.3601 8.49571 15.2508 8.51695 15.1598 8.53516C15.0688 8.5564 15.0141 8.56702 14.9959 8.56702C14.9807 8.56702 14.9625 8.56095 14.9413 8.54881C14.9231 8.53971 14.9018 8.52757 14.8776 8.5124ZM17.2628 8.55792C17.2628 8.60951 17.2431 8.65199 17.2037 8.68537C17.1672 8.71875 17.1278 8.73544 17.0853 8.73544C17.0428 8.73544 17.0003 8.72027 16.9578 8.68992C16.9184 8.66261 16.8956 8.61709 16.8896 8.55336C16.8896 8.35004 16.8911 8.14823 16.8941 7.94795C16.9002 7.74766 16.9032 7.54585 16.9032 7.34253C16.9032 7.28487 16.8987 7.19383 16.8896 7.06941C16.8835 6.94195 16.8805 6.80994 16.8805 6.67338C16.8805 6.52772 16.885 6.38509 16.8941 6.24549C16.9063 6.1059 16.9336 5.98451 16.9761 5.88133L17.0034 5.83581L17.0534 5.79484C17.1354 5.7645 17.2203 5.74932 17.3083 5.74932C17.4328 5.74932 17.5663 5.76298 17.7089 5.79029C17.8516 5.81457 17.9836 5.85857 18.105 5.9223C18.2263 5.98603 18.3265 6.07252 18.4054 6.18176C18.4873 6.28798 18.5283 6.42454 18.5283 6.59145C18.5283 6.67035 18.5161 6.74318 18.4919 6.80994C18.4706 6.87671 18.4418 6.9374 18.4054 6.99202C18.372 7.04665 18.3326 7.0952 18.287 7.13769C18.2445 7.18017 18.2021 7.21507 18.1596 7.24238C18.0716 7.30004 17.9745 7.34556 17.8682 7.37894C17.762 7.40929 17.6513 7.44419 17.5359 7.48364L17.4813 7.50185C17.4753 7.49881 17.4722 7.4973 17.4722 7.4973C17.5451 7.54889 17.6133 7.60351 17.6771 7.66117C17.7438 7.71579 17.8106 7.77042 17.8774 7.82504C17.9471 7.87967 18.0185 7.93277 18.0913 7.98436C18.1672 8.03292 18.2491 8.07844 18.3371 8.12092C18.3948 8.17555 18.4236 8.23321 18.4236 8.2939C18.4236 8.34549 18.4054 8.38797 18.369 8.42136C18.3356 8.4517 18.2946 8.46688 18.2461 8.46688C18.2096 8.46688 18.1672 8.45625 18.1186 8.43501C18.0701 8.41377 18.02 8.38797 17.9684 8.35763C17.9168 8.32425 17.8637 8.28935 17.8091 8.25293C17.7575 8.21652 17.7089 8.18313 17.6634 8.15279C17.5845 8.1012 17.5117 8.04809 17.4449 7.99347C17.3812 7.93884 17.3235 7.88574 17.2719 7.83415V7.92974C17.2719 8.02988 17.2689 8.13306 17.2628 8.23928C17.2598 8.34245 17.2598 8.44867 17.2628 8.55792ZM17.2765 7.16045C17.2704 7.16652 17.2674 7.16955 17.2674 7.16955C17.2643 7.16955 17.2719 7.16652 17.2901 7.16045C17.3569 7.14224 17.4388 7.12403 17.5359 7.10582C17.6361 7.08458 17.7317 7.05575 17.8227 7.01933C17.9138 6.97988 17.9912 6.92829 18.0549 6.86457C18.1216 6.7978 18.155 6.70828 18.155 6.596C18.155 6.50496 18.1368 6.43364 18.1004 6.38205C18.067 6.33046 18.0215 6.29101 17.9638 6.2637C17.9092 6.23335 17.847 6.21211 17.7772 6.19997C17.7074 6.1848 17.6376 6.16963 17.5678 6.15445C17.5284 6.14535 17.4844 6.13776 17.4358 6.13169C17.3872 6.12259 17.3463 6.11804 17.3129 6.11804C17.3008 6.11804 17.2917 6.13776 17.2856 6.17721C17.2795 6.21363 17.275 6.25763 17.2719 6.30922C17.2719 6.36081 17.2719 6.4124 17.2719 6.46399C17.2719 6.51254 17.2719 6.54896 17.2719 6.57324C17.2719 6.68552 17.2719 6.79173 17.2719 6.89188C17.275 6.99202 17.2765 7.08155 17.2765 7.16045ZM8.50702 11.6202C8.51309 11.5899 8.51613 11.5762 8.51613 11.5792C8.47971 11.6156 8.44633 11.6354 8.41598 11.6384H7.82422C7.64821 11.6384 7.4813 11.6339 7.3235 11.6248C7.32957 11.7522 7.33412 11.8827 7.33716 12.0162C7.34019 12.1498 7.34171 12.2878 7.34171 12.4305C7.34171 12.482 7.3235 12.523 7.28708 12.5534C7.25067 12.5867 7.21122 12.6034 7.16873 12.6034C7.12625 12.6034 7.08224 12.5898 7.03672 12.5625C6.99424 12.5352 6.973 12.4881 6.973 12.4214C6.973 12.0451 6.96086 11.6748 6.93658 11.3107C6.9123 10.9435 6.89409 10.5702 6.88195 10.1909C6.89713 10.1362 6.91989 10.0953 6.95024 10.068C6.98058 10.0407 7.01852 10.024 7.06404 10.0179C7.15204 10.0179 7.21577 10.0725 7.25522 10.1818C7.26129 10.3669 7.26736 10.549 7.27343 10.728C7.28253 10.904 7.29315 11.0785 7.30529 11.2515C7.4722 11.2606 7.64973 11.2651 7.83788 11.2651H8.42509C8.45544 11.2773 8.48426 11.3 8.51158 11.3334C8.51461 11.3334 8.51613 11.3243 8.51613 11.3061V11.2697C8.51916 11.1969 8.52068 11.1119 8.52068 11.0148C8.52372 10.9146 8.52675 10.8084 8.52978 10.6961C8.53585 10.5808 8.54192 10.464 8.54799 10.3456C8.5571 10.2242 8.5662 10.1089 8.5753 9.99968C8.59048 9.94506 8.61627 9.90409 8.65269 9.87678C8.69214 9.84643 8.73007 9.83126 8.76649 9.83126C8.81504 9.83126 8.85601 9.85098 8.88939 9.89043C8.92581 9.92685 8.94402 9.97692 8.94402 10.0407C8.92581 10.2895 8.91215 10.5353 8.90305 10.7781C8.89698 11.0209 8.88939 11.2712 8.88029 11.5292L8.85298 12.0344C8.84994 12.0739 8.84691 12.13 8.84387 12.2029C8.84084 12.2727 8.83174 12.3425 8.81656 12.4123C8.80139 12.479 8.77711 12.5382 8.74373 12.5898C8.71338 12.6414 8.66635 12.6672 8.60262 12.6672C8.5571 12.6672 8.51613 12.6505 8.47971 12.6171C8.4433 12.5867 8.42509 12.5382 8.42509 12.4714C8.42509 12.4502 8.42661 12.435 8.42964 12.4259C8.44178 12.3713 8.45088 12.3015 8.45695 12.2165C8.46606 12.1285 8.47364 12.0435 8.47971 11.9616C8.48882 11.8766 8.49489 11.8023 8.49792 11.7386C8.50096 11.6718 8.50399 11.6323 8.50702 11.6202ZM9.88173 11.6703C9.86656 11.6672 9.8529 11.6657 9.84077 11.6657C9.8347 11.6657 9.81952 11.6885 9.79524 11.734C9.77097 11.7765 9.74214 11.8266 9.70876 11.8842C9.67841 11.9388 9.64806 11.995 9.61772 12.0526C9.58737 12.1073 9.56461 12.1467 9.54944 12.171C9.50088 12.2287 9.44626 12.2575 9.38556 12.2575C9.34004 12.2575 9.30059 12.2423 9.26721 12.212C9.23383 12.1786 9.21714 12.1315 9.21714 12.0709C9.21714 12.0466 9.21866 12.0268 9.22169 12.0117C9.32184 11.8357 9.41743 11.6627 9.50847 11.4927C9.59951 11.3228 9.69358 11.1544 9.79069 10.9875C9.89084 10.8206 9.99553 10.6582 10.1048 10.5004C10.214 10.3396 10.3369 10.1833 10.4735 10.0315C10.4947 10.0073 10.5175 9.9921 10.5418 9.98603C10.5661 9.97692 10.5888 9.97085 10.6101 9.96782C10.6556 9.96782 10.6935 9.98451 10.7239 10.0179C10.7572 10.0513 10.777 10.0922 10.783 10.1408C10.7739 10.1742 10.7633 10.1969 10.7512 10.2091L10.7876 10.1909C10.827 10.1909 10.868 10.2015 10.9105 10.2227C10.956 10.244 10.9879 10.2849 11.0061 10.3456C11.0304 10.5156 11.0592 10.681 11.0926 10.8418C11.126 10.9996 11.1578 11.1589 11.1882 11.3198C11.2215 11.4776 11.2504 11.6369 11.2747 11.7977C11.302 11.9586 11.3187 12.1255 11.3247 12.2985C11.3247 12.3591 11.3065 12.4062 11.2701 12.4396C11.2337 12.4699 11.1942 12.4851 11.1517 12.4851C11.1062 12.4851 11.0622 12.4714 11.0197 12.4441C10.9803 12.4168 10.9575 12.3698 10.9515 12.303C10.9454 12.0906 10.9272 11.8903 10.8968 11.7021C10.8908 11.7082 10.8741 11.7128 10.8468 11.7158C10.6829 11.7158 10.519 11.7082 10.3551 11.693C10.1943 11.6779 10.0365 11.6703 9.88173 11.6703ZM10.0411 11.3061C10.1503 11.3122 10.2778 11.3198 10.4234 11.3289C10.5691 11.338 10.7026 11.3425 10.824 11.3425H10.8286L10.824 11.3198C10.8149 11.2894 10.8043 11.2454 10.7921 11.1878C10.78 11.1301 10.7663 11.0679 10.7512 11.0011C10.739 10.9344 10.7254 10.8661 10.7102 10.7963C10.6981 10.7235 10.6859 10.6582 10.6738 10.6005C10.6616 10.5429 10.651 10.4959 10.6419 10.4594C10.6359 10.423 10.6328 10.4048 10.6328 10.4048C10.6055 10.4291 10.5676 10.4731 10.519 10.5368C10.4765 10.5914 10.4219 10.6719 10.3551 10.7781C10.2884 10.8813 10.2049 11.0224 10.1048 11.2014L10.0411 11.3061ZM12.745 11.9479C12.745 11.9206 12.7525 11.8827 12.7677 11.8341C12.7859 11.7856 12.8056 11.734 12.8269 11.6794C12.8512 11.6248 12.8739 11.5716 12.8952 11.5201C12.9194 11.4654 12.9392 11.4199 12.9543 11.3835C13.0332 11.1832 13.1152 10.9799 13.2002 10.7735C13.2851 10.5672 13.3458 10.3593 13.3822 10.1499C13.3944 10.0801 13.4217 10.0346 13.4642 10.0133C13.5067 9.98906 13.5507 9.97692 13.5962 9.97692C13.6417 9.98299 13.6796 10.0058 13.71 10.0452C13.7403 10.0847 13.7555 10.1347 13.7555 10.1954C13.7221 10.3563 13.6796 10.511 13.628 10.6597C13.5795 10.8084 13.5249 10.9556 13.4642 11.1013C13.4065 11.2469 13.3489 11.3926 13.2912 11.5383C13.2335 11.6839 13.1819 11.8311 13.1364 11.9798C13.1273 12.0071 13.1106 12.0557 13.0864 12.1255C13.0651 12.1922 13.0378 12.262 13.0044 12.3349C12.971 12.4047 12.9316 12.4669 12.8861 12.5215C12.8436 12.5731 12.7965 12.5989 12.745 12.5989C12.6934 12.5958 12.6539 12.5852 12.6266 12.567C12.6023 12.5518 12.5841 12.5336 12.572 12.5124C12.5629 12.4912 12.5538 12.4684 12.5447 12.4441C12.5386 12.4168 12.528 12.3925 12.5128 12.3713C12.443 12.168 12.3687 11.9783 12.2898 11.8023C12.2108 11.6232 12.1335 11.4487 12.0576 11.2788C11.9848 11.1058 11.9165 10.9328 11.8528 10.7599C11.789 10.5839 11.7374 10.3957 11.698 10.1954C11.695 10.1894 11.6934 10.1787 11.6934 10.1636C11.6934 10.112 11.7101 10.0664 11.7435 10.027C11.7799 9.98451 11.8224 9.96327 11.871 9.96327C11.9104 9.96327 11.9483 9.97541 11.9848 9.99968C12.0212 10.024 12.047 10.0664 12.0621 10.1271C12.0864 10.2364 12.1198 10.3547 12.1623 10.4822C12.2048 10.6097 12.2503 10.7386 12.2989 10.8691C12.3504 10.9996 12.402 11.1271 12.4536 11.2515C12.5052 11.3729 12.5522 11.4821 12.5947 11.5792C12.6372 11.6763 12.6721 11.7583 12.6994 11.825C12.7267 11.8918 12.7419 11.9328 12.745 11.9479ZM14.3336 12.5124C14.3063 12.476 14.2835 12.432 14.2653 12.3804C14.2502 12.3288 14.238 12.2742 14.2289 12.2165C14.2198 12.1589 14.2122 12.0997 14.2061 12.039C14.2031 11.9783 14.2001 11.9206 14.197 11.866L14.1697 11.3198C14.1606 11.2318 14.153 11.165 14.147 11.1195C14.1439 11.074 14.1394 11.0284 14.1333 10.9829C14.1303 10.9344 14.1272 10.8767 14.1242 10.8099C14.1242 10.7401 14.1242 10.6385 14.1242 10.505C14.1242 10.4594 14.1227 10.4154 14.1197 10.3729C14.1197 10.3305 14.1197 10.288 14.1197 10.2455C14.1197 10.1362 14.147 10.0619 14.2016 10.0224C14.2593 9.97996 14.3321 9.95872 14.4201 9.95872C14.4717 9.95872 14.5263 9.96175 14.584 9.96782C14.6416 9.97085 14.6993 9.97237 14.7569 9.97237C14.8632 9.97237 14.9679 9.95872 15.071 9.9314C15.1742 9.90106 15.2744 9.87678 15.3715 9.85857C15.4322 9.85857 15.4837 9.87526 15.5262 9.90864C15.5687 9.93899 15.59 9.97692 15.59 10.0224C15.59 10.0649 15.5763 10.1074 15.549 10.1499C15.5217 10.1894 15.4777 10.2151 15.417 10.2273C15.2986 10.2516 15.1772 10.2789 15.0528 10.3092C14.9284 10.3396 14.8025 10.3547 14.675 10.3547C14.6416 10.3547 14.6082 10.3547 14.5749 10.3547C14.5415 10.3547 14.5127 10.3517 14.4884 10.3456C14.4914 10.461 14.4944 10.5717 14.4975 10.6779C14.5005 10.7841 14.5051 10.8873 14.5111 10.9875H14.5157C14.7463 10.9632 14.9633 10.9495 15.1666 10.9465C15.3699 10.9404 15.5854 10.9374 15.813 10.9374C15.9253 10.9677 15.9814 11.03 15.9814 11.124C15.9814 11.1665 15.9647 11.206 15.9314 11.2424C15.901 11.2758 15.8585 11.297 15.8039 11.3061C15.7796 11.3061 15.7311 11.3061 15.6582 11.3061C15.5884 11.3061 15.5065 11.3076 15.4124 11.3107C15.3184 11.3107 15.2197 11.3122 15.1166 11.3152C15.0134 11.3152 14.9178 11.3183 14.8298 11.3243C14.7448 11.3274 14.6735 11.3319 14.6158 11.338C14.5612 11.344 14.5339 11.3516 14.5339 11.3607C14.5339 11.4973 14.5415 11.6339 14.5567 11.7704C14.5749 11.9039 14.59 12.036 14.6022 12.1664C14.6841 12.1361 14.7736 12.1103 14.8707 12.0891C14.9679 12.0648 15.068 12.0466 15.1712 12.0344C15.2774 12.0223 15.3851 12.0132 15.4944 12.0071C15.6036 12.0011 15.7098 11.998 15.813 11.998C15.8737 12.0223 15.9162 12.0511 15.9405 12.0845C15.9678 12.1149 15.9814 12.1498 15.9814 12.1892C15.9814 12.2317 15.9647 12.2711 15.9314 12.3076C15.901 12.3409 15.8585 12.3622 15.8039 12.3713C15.6643 12.3713 15.5186 12.3819 15.3669 12.4031C15.2152 12.4214 15.0741 12.4441 14.9436 12.4714C14.8161 12.4957 14.7069 12.5169 14.6158 12.5352C14.5248 12.5564 14.4702 12.567 14.452 12.567C14.4368 12.567 14.4186 12.561 14.3973 12.5488C14.3791 12.5397 14.3579 12.5276 14.3336 12.5124ZM17.8478 12.6034C17.781 12.6004 17.734 12.5776 17.7066 12.5352C17.6793 12.4927 17.6657 12.4502 17.6657 12.4077C17.6657 12.3652 17.6824 12.3258 17.7158 12.2893C17.7491 12.2529 17.7962 12.2347 17.8569 12.2347L18.2165 12.2165L18.2119 12.1619C18.2119 12.0223 18.2104 11.9009 18.2074 11.7977C18.2074 11.6915 18.2059 11.5944 18.2028 11.5064C18.1998 11.4154 18.1967 11.3304 18.1937 11.2515C18.1907 11.1696 18.1861 11.0846 18.1801 10.9966C18.177 10.9055 18.174 10.8069 18.171 10.7007C18.1679 10.5945 18.1649 10.4716 18.1619 10.332C18.1619 10.3198 18.1619 10.3107 18.1619 10.3047C18.1649 10.2986 18.1664 10.2925 18.1664 10.2865C18.1664 10.2804 18.1649 10.2774 18.1619 10.2774C18.1163 10.2804 18.0647 10.2819 18.0071 10.2819C17.9525 10.2819 17.8902 10.2819 17.8204 10.2819C17.7537 10.2758 17.7066 10.2531 17.6793 10.2136C17.652 10.1711 17.6384 10.1271 17.6384 10.0816C17.6384 10.0391 17.6551 9.99968 17.6884 9.96327C17.7218 9.92685 17.7643 9.90864 17.8159 9.90864C17.9889 9.90864 18.1543 9.90561 18.3121 9.89954C18.4699 9.89043 18.6307 9.88588 18.7946 9.88588C18.8462 9.90409 18.8871 9.92989 18.9175 9.96327C18.9478 9.99665 18.963 10.0315 18.963 10.068C18.963 10.1256 18.9448 10.1681 18.9084 10.1954C18.875 10.2197 18.834 10.2379 18.7855 10.25C18.74 10.2591 18.6914 10.2637 18.6398 10.2637C18.5913 10.2607 18.5518 10.2607 18.5215 10.2637H18.5169C18.5169 10.2698 18.5184 10.2774 18.5215 10.2865C18.5245 10.2925 18.529 10.3032 18.5351 10.3183C18.5382 10.4579 18.5412 10.5808 18.5442 10.687C18.5473 10.7933 18.5503 10.8919 18.5533 10.9829C18.5594 11.0709 18.5639 11.1559 18.567 11.2378C18.57 11.3198 18.573 11.4063 18.5761 11.4973C18.5791 11.5853 18.5806 11.6839 18.5806 11.7932C18.5837 11.8994 18.5852 12.0223 18.5852 12.1619V12.1938C18.6459 12.1907 18.7081 12.1892 18.7718 12.1892C18.8386 12.1862 18.9084 12.1847 18.9812 12.1847C19.0328 12.1998 19.0723 12.2241 19.0996 12.2575C19.1299 12.2909 19.1451 12.3273 19.1451 12.3667C19.139 12.4092 19.1223 12.4487 19.095 12.4851C19.0677 12.5185 19.0267 12.5412 18.9721 12.5534C18.7809 12.5534 18.5928 12.5594 18.4077 12.5716C18.2256 12.5837 18.0389 12.5943 17.8478 12.6034ZM9.01457 17.5124C8.98726 17.476 8.9645 17.432 8.94629 17.3804C8.93112 17.3288 8.91898 17.2742 8.90988 17.2165C8.90077 17.1589 8.89319 17.0997 8.88712 17.039C8.88408 16.9783 8.88105 16.9206 8.87801 16.866L8.8507 16.3198C8.8416 16.2318 8.83401 16.165 8.82794 16.1195C8.82491 16.074 8.82035 16.0284 8.81429 15.9829C8.81125 15.9344 8.80822 15.8767 8.80518 15.8099C8.80518 15.7401 8.80518 15.6385 8.80518 15.505C8.80518 15.4594 8.80366 15.4154 8.80063 15.3729C8.80063 15.3305 8.80063 15.288 8.80063 15.2455C8.80063 15.1362 8.82794 15.0619 8.88257 15.0224C8.94022 14.98 9.01306 14.9587 9.10106 14.9587C9.15265 14.9587 9.20728 14.9617 9.26494 14.9678C9.32259 14.9709 9.38025 14.9724 9.43791 14.9724C9.54413 14.9724 9.64882 14.9587 9.752 14.9314C9.85518 14.9011 9.95532 14.8768 10.0524 14.8586C10.1131 14.8586 10.1647 14.8753 10.2072 14.9086C10.2497 14.939 10.2709 14.9769 10.2709 15.0224C10.2709 15.0649 10.2573 15.1074 10.23 15.1499C10.2027 15.1894 10.1586 15.2151 10.098 15.2273C9.9796 15.2516 9.85821 15.2789 9.73379 15.3092C9.60937 15.3396 9.48343 15.3547 9.35598 15.3547C9.32259 15.3547 9.28921 15.3547 9.25583 15.3547C9.22245 15.3547 9.19362 15.3517 9.16934 15.3456C9.17238 15.461 9.17541 15.5717 9.17845 15.6779C9.18148 15.7841 9.18603 15.8873 9.1921 15.9875H9.19665C9.42729 15.9632 9.64427 15.9495 9.84759 15.9465C10.0509 15.9404 10.2664 15.9374 10.494 15.9374C10.6063 15.9677 10.6624 16.03 10.6624 16.124C10.6624 16.1665 10.6457 16.206 10.6123 16.2424C10.582 16.2758 10.5395 16.297 10.4849 16.3061C10.4606 16.3061 10.412 16.3061 10.3392 16.3061C10.2694 16.3061 10.1875 16.3076 10.0934 16.3107C9.99933 16.3107 9.9007 16.3122 9.79752 16.3152C9.69434 16.3152 9.59875 16.3183 9.51074 16.3243C9.42577 16.3274 9.35446 16.3319 9.2968 16.338C9.24218 16.344 9.21486 16.3516 9.21486 16.3607C9.21486 16.4973 9.22245 16.6339 9.23762 16.7704C9.25583 16.9039 9.271 17.036 9.28314 17.1664C9.36508 17.1361 9.4546 17.1103 9.55171 17.0891C9.64882 17.0648 9.74897 17.0466 9.85215 17.0344C9.95836 17.0223 10.0661 17.0132 10.1753 17.0071C10.2846 17.0011 10.3908 16.998 10.494 16.998C10.5547 17.0223 10.5972 17.0511 10.6214 17.0845C10.6487 17.1149 10.6624 17.1498 10.6624 17.1892C10.6624 17.2317 10.6457 17.2711 10.6123 17.3076C10.582 17.3409 10.5395 17.3622 10.4849 17.3713C10.3453 17.3713 10.1996 17.3819 10.0479 17.4031C9.89615 17.4214 9.75504 17.4441 9.62454 17.4714C9.49709 17.4957 9.38784 17.5169 9.2968 17.5352C9.20576 17.5564 9.15113 17.567 9.13293 17.567C9.11775 17.567 9.09955 17.561 9.0783 17.5488C9.06009 17.5397 9.03885 17.5276 9.01457 17.5124ZM12.0508 16.9479C12.0508 16.9206 12.0584 16.8827 12.0735 16.8341C12.0917 16.7856 12.1115 16.734 12.1327 16.6794C12.157 16.6248 12.1797 16.5716 12.201 16.5201C12.2253 16.4654 12.245 16.4199 12.2602 16.3835C12.3391 16.1832 12.421 15.9799 12.506 15.7735C12.5909 15.5672 12.6516 15.3593 12.6881 15.1499C12.7002 15.0801 12.7275 15.0346 12.77 15.0133C12.8125 14.9891 12.8565 14.9769 12.902 14.9769C12.9475 14.983 12.9854 15.0058 13.0158 15.0452C13.0461 15.0847 13.0613 15.1347 13.0613 15.1954C13.0279 15.3563 12.9854 15.511 12.9339 15.6597C12.8853 15.8084 12.8307 15.9556 12.77 16.1013C12.7123 16.2469 12.6547 16.3926 12.597 16.5383C12.5394 16.6839 12.4878 16.8311 12.4422 16.9798C12.4331 17.0071 12.4164 17.0557 12.3922 17.1255C12.3709 17.1922 12.3436 17.262 12.3102 17.3349C12.2769 17.4047 12.2374 17.4669 12.1919 17.5215C12.1494 17.5731 12.1024 17.5989 12.0508 17.5989C11.9992 17.5958 11.9597 17.5852 11.9324 17.567C11.9081 17.5518 11.8899 17.5336 11.8778 17.5124C11.8687 17.4912 11.8596 17.4684 11.8505 17.4441C11.8444 17.4168 11.8338 17.3925 11.8186 17.3713C11.7488 17.168 11.6745 16.9783 11.5956 16.8023C11.5167 16.6232 11.4393 16.4487 11.3634 16.2788C11.2906 16.1058 11.2223 15.9328 11.1586 15.7599C11.0948 15.5839 11.0433 15.3957 11.0038 15.1954C11.0008 15.1894 10.9993 15.1787 10.9993 15.1636C10.9993 15.112 11.0159 15.0664 11.0493 15.027C11.0857 14.9845 11.1282 14.9633 11.1768 14.9633C11.2162 14.9633 11.2542 14.9754 11.2906 14.9997C11.327 15.024 11.3528 15.0664 11.368 15.1271C11.3922 15.2364 11.4256 15.3547 11.4681 15.4822C11.5106 15.6097 11.5561 15.7386 11.6047 15.8691C11.6563 15.9996 11.7079 16.1271 11.7594 16.2515C11.811 16.3729 11.8581 16.4821 11.9006 16.5792C11.943 16.6763 11.9779 16.7583 12.0052 16.825C12.0326 16.8918 12.0477 16.9328 12.0508 16.9479ZM13.6394 17.5124C13.6121 17.476 13.5893 17.432 13.5711 17.3804C13.556 17.3288 13.5438 17.2742 13.5347 17.2165C13.5256 17.1589 13.518 17.0997 13.512 17.039C13.5089 16.9783 13.5059 16.9206 13.5029 16.866L13.4755 16.3198C13.4664 16.2318 13.4589 16.165 13.4528 16.1195C13.4498 16.074 13.4452 16.0284 13.4391 15.9829C13.4361 15.9344 13.4331 15.8767 13.43 15.8099C13.43 15.7401 13.43 15.6385 13.43 15.505C13.43 15.4594 13.4285 15.4154 13.4255 15.3729C13.4255 15.3305 13.4255 15.288 13.4255 15.2455C13.4255 15.1362 13.4528 15.0619 13.5074 15.0224C13.5651 14.98 13.6379 14.9587 13.7259 14.9587C13.7775 14.9587 13.8321 14.9617 13.8898 14.9678C13.9474 14.9709 14.0051 14.9724 14.0628 14.9724C14.169 14.9724 14.2737 14.9587 14.3768 14.9314C14.48 14.9011 14.5802 14.8768 14.6773 14.8586C14.738 14.8586 14.7896 14.8753 14.8321 14.9086C14.8745 14.939 14.8958 14.9769 14.8958 15.0224C14.8958 15.0649 14.8821 15.1074 14.8548 15.1499C14.8275 15.1894 14.7835 15.2151 14.7228 15.2273C14.6044 15.2516 14.4831 15.2789 14.3586 15.3092C14.2342 15.3396 14.1083 15.3547 13.9808 15.3547C13.9474 15.3547 13.9141 15.3547 13.8807 15.3547C13.8473 15.3547 13.8185 15.3517 13.7942 15.3456C13.7972 15.461 13.8003 15.5717 13.8033 15.6779C13.8063 15.7841 13.8109 15.8873 13.817 15.9875H13.8215C14.0521 15.9632 14.2691 15.9495 14.4724 15.9465C14.6758 15.9404 14.8912 15.9374 15.1188 15.9374C15.2311 15.9677 15.2873 16.03 15.2873 16.124C15.2873 16.1665 15.2706 16.206 15.2372 16.2424C15.2068 16.2758 15.1643 16.297 15.1097 16.3061C15.0854 16.3061 15.0369 16.3061 14.9641 16.3061C14.8943 16.3061 14.8123 16.3076 14.7182 16.3107C14.6242 16.3107 14.5255 16.3122 14.4224 16.3152C14.3192 16.3152 14.2236 16.3183 14.1356 16.3243C14.0506 16.3274 13.9793 16.3319 13.9216 16.338C13.867 16.344 13.8397 16.3516 13.8397 16.3607C13.8397 16.4973 13.8473 16.6339 13.8625 16.7704C13.8807 16.9039 13.8959 17.036 13.908 17.1664C13.9899 17.1361 14.0795 17.1103 14.1766 17.0891C14.2737 17.0648 14.3738 17.0466 14.477 17.0344C14.5832 17.0223 14.6909 17.0132 14.8002 17.0071C14.9094 17.0011 15.0156 16.998 15.1188 16.998C15.1795 17.0223 15.222 17.0511 15.2463 17.0845C15.2736 17.1149 15.2873 17.1498 15.2873 17.1892C15.2873 17.2317 15.2706 17.2711 15.2372 17.3076C15.2068 17.3409 15.1643 17.3622 15.1097 17.3713C14.9701 17.3713 14.8245 17.3819 14.6727 17.4031C14.521 17.4214 14.3799 17.4441 14.2494 17.4714C14.1219 17.4957 14.0127 17.5169 13.9216 17.5352C13.8306 17.5564 13.776 17.567 13.7578 17.567C13.7426 17.567 13.7244 17.561 13.7032 17.5488C13.6849 17.5397 13.6637 17.5276 13.6394 17.5124ZM16.0247 17.5579C16.0247 17.6095 16.005 17.652 15.9655 17.6854C15.9291 17.7188 15.8896 17.7354 15.8472 17.7354C15.8047 17.7354 15.7622 17.7203 15.7197 17.6899C15.6802 17.6626 15.6575 17.6171 15.6514 17.5534C15.6514 17.35 15.6529 17.1482 15.656 16.9479C15.662 16.7477 15.6651 16.5459 15.6651 16.3425C15.6651 16.2849 15.6605 16.1938 15.6514 16.0694C15.6453 15.942 15.6423 15.8099 15.6423 15.6734C15.6423 15.5277 15.6469 15.3851 15.656 15.2455C15.6681 15.1059 15.6954 14.9845 15.7379 14.8813L15.7652 14.8358L15.8153 14.7948C15.8972 14.7645 15.9822 14.7493 16.0702 14.7493C16.1946 14.7493 16.3281 14.763 16.4708 14.7903C16.6134 14.8146 16.7454 14.8586 16.8668 14.9223C16.9882 14.986 17.0883 15.0725 17.1672 15.1818C17.2492 15.288 17.2901 15.4245 17.2901 15.5914C17.2901 15.6703 17.278 15.7432 17.2537 15.8099C17.2325 15.8767 17.2037 15.9374 17.1672 15.992C17.1339 16.0466 17.0944 16.0952 17.0489 16.1377C17.0064 16.1802 16.9639 16.2151 16.9214 16.2424C16.8334 16.3 16.7363 16.3456 16.6301 16.3789C16.5239 16.4093 16.4131 16.4442 16.2978 16.4836L16.2432 16.5018C16.2371 16.4988 16.2341 16.4973 16.2341 16.4973C16.3069 16.5489 16.3752 16.6035 16.4389 16.6612C16.5057 16.7158 16.5724 16.7704 16.6392 16.825C16.709 16.8797 16.7803 16.9328 16.8531 16.9844C16.929 17.0329 17.0109 17.0784 17.099 17.1209C17.1566 17.1755 17.1854 17.2332 17.1854 17.2939C17.1854 17.3455 17.1672 17.388 17.1308 17.4214C17.0974 17.4517 17.0565 17.4669 17.0079 17.4669C16.9715 17.4669 16.929 17.4563 16.8805 17.435C16.8319 17.4138 16.7818 17.388 16.7302 17.3576C16.6787 17.3242 16.6255 17.2893 16.5709 17.2529C16.5193 17.2165 16.4708 17.1831 16.4253 17.1528C16.3464 17.1012 16.2735 17.0481 16.2068 16.9935C16.143 16.9388 16.0854 16.8857 16.0338 16.8341V16.9297C16.0338 17.0299 16.0307 17.1331 16.0247 17.2393C16.0216 17.3425 16.0216 17.4487 16.0247 17.5579ZM16.0383 16.1604C16.0323 16.1665 16.0292 16.1696 16.0292 16.1696C16.0262 16.1696 16.0338 16.1665 16.052 16.1604C16.1188 16.1422 16.2007 16.124 16.2978 16.1058C16.3979 16.0846 16.4935 16.0558 16.5846 16.0193C16.6756 15.9799 16.753 15.9283 16.8167 15.8646C16.8835 15.7978 16.9169 15.7083 16.9169 15.596C16.9169 15.505 16.8987 15.4336 16.8623 15.3821C16.8289 15.3305 16.7833 15.291 16.7257 15.2637C16.6711 15.2334 16.6089 15.2121 16.5391 15.2C16.4693 15.1848 16.3995 15.1696 16.3297 15.1545C16.2902 15.1453 16.2462 15.1378 16.1977 15.1317C16.1491 15.1226 16.1081 15.118 16.0748 15.118C16.0626 15.118 16.0535 15.1378 16.0474 15.1772C16.0414 15.2136 16.0368 15.2576 16.0338 15.3092C16.0338 15.3608 16.0338 15.4124 16.0338 15.464C16.0338 15.5125 16.0338 15.549 16.0338 15.5732C16.0338 15.6855 16.0338 15.7917 16.0338 15.8919C16.0368 15.992 16.0383 16.0815 16.0383 16.1604Z" fill="#BB33FF"/>
<path d="M13.0295 23.9434L15.4332 19.78H10.6258L13.0295 23.9434Z" fill="#FEFEFE"/>
<path d="M8.78946 31.2163C8.69115 31.2163 8.63487 31.2875 8.63487 31.3946C8.63487 31.5051 8.6986 31.5654 8.79013 31.5654C8.87624 31.5654 8.92845 31.518 8.92845 31.4387V31.4366H8.77861V31.36H9.00913V31.6387H8.93591L8.93048 31.5817C8.90336 31.6197 8.84709 31.6461 8.77996 31.6461C8.64097 31.6461 8.54402 31.5451 8.54402 31.3926C8.54402 31.242 8.64233 31.1349 8.79149 31.1349C8.90472 31.1349 8.99218 31.2007 9.00642 31.3017H8.91489C8.89929 31.2434 8.84912 31.2163 8.78946 31.2163ZM9.14556 31.6387H9.05539L9.23438 31.1431H9.3232L9.50219 31.6387H9.41066L9.37066 31.5241H9.18556L9.14556 31.6387ZM9.2676 31.2909L9.21133 31.4509H9.34557L9.28862 31.2909C9.28455 31.278 9.27981 31.2631 9.27845 31.2529C9.27642 31.2624 9.27235 31.2773 9.2676 31.2909ZM9.64841 31.6387H9.56434V31.1431H9.64841L9.80842 31.5376L9.96843 31.1431H10.0539V31.6387H9.96978V31.4861C9.96978 31.3865 9.96978 31.3573 9.97453 31.322L9.84842 31.6387H9.76842L9.64299 31.3227C9.64773 31.3526 9.64841 31.3993 9.64841 31.461V31.6387ZM10.4714 31.6387H10.1636V31.1431H10.4714V31.2231H10.2503V31.3505H10.4483V31.4271H10.2503V31.5587H10.4714V31.6387ZM11.2004 31.3905C11.2004 31.541 11.1014 31.6468 10.9591 31.6468C10.8174 31.6468 10.7197 31.5417 10.7197 31.3905C10.7197 31.24 10.818 31.1342 10.9597 31.1342C11.1014 31.1342 11.2004 31.2393 11.2004 31.3905ZM11.1089 31.3905C11.1089 31.2848 11.0506 31.2176 10.9597 31.2176C10.8689 31.2176 10.8106 31.2848 10.8106 31.3905C10.8106 31.4963 10.8689 31.5634 10.9597 31.5634C11.0506 31.5634 11.1089 31.4949 11.1089 31.3905ZM11.5524 31.4359H11.368V31.6387H11.2812V31.1431H11.5877V31.2231H11.368V31.358H11.5524V31.4359ZM12.0446 31.4678H11.9354V31.6387H11.8486V31.1431H12.0446C12.1442 31.1431 12.2086 31.2081 12.2086 31.3051C12.2086 31.4007 12.1436 31.4678 12.0446 31.4678ZM12.0276 31.2203H11.9354V31.3905H12.0263C12.0859 31.3905 12.1178 31.3587 12.1178 31.3044C12.1178 31.2502 12.0852 31.2203 12.0276 31.2203ZM12.7339 31.3905C12.7339 31.541 12.6349 31.6468 12.4925 31.6468C12.3508 31.6468 12.2532 31.5417 12.2532 31.3905C12.2532 31.24 12.3515 31.1342 12.4932 31.1342C12.6349 31.1342 12.7339 31.2393 12.7339 31.3905ZM12.6423 31.3905C12.6423 31.2848 12.584 31.2176 12.4932 31.2176C12.4023 31.2176 12.344 31.2848 12.344 31.3905C12.344 31.4963 12.4023 31.5634 12.4932 31.5634C12.584 31.5634 12.6423 31.4949 12.6423 31.3905ZM13.2669 31.3905C13.2669 31.541 13.1679 31.6468 13.0255 31.6468C12.8838 31.6468 12.7862 31.5417 12.7862 31.3905C12.7862 31.24 12.8845 31.1342 13.0262 31.1342C13.1679 31.1342 13.2669 31.2393 13.2669 31.3905ZM13.1753 31.3905C13.1753 31.2848 13.117 31.2176 13.0262 31.2176C12.9353 31.2176 12.877 31.2848 12.877 31.3905C12.877 31.4963 12.9353 31.5634 13.0262 31.5634C13.117 31.5634 13.1753 31.4949 13.1753 31.3905ZM13.4344 31.6387H13.3476V31.1431H13.5368C13.6494 31.1431 13.7151 31.2 13.7151 31.2976C13.7151 31.3641 13.6839 31.4115 13.6256 31.4353L13.7199 31.6387H13.6249L13.5409 31.4536H13.4344V31.6387ZM13.4344 31.2203V31.377H13.5368C13.5917 31.377 13.6243 31.3478 13.6243 31.2976C13.6243 31.2481 13.5917 31.2203 13.5368 31.2203H13.4344ZM14.1629 31.6387H13.9846V31.1431H14.1582C14.3046 31.1431 14.4056 31.2441 14.4056 31.3919C14.4056 31.5376 14.3066 31.6387 14.1629 31.6387ZM14.15 31.2231H14.0714V31.5587H14.1548C14.2538 31.5587 14.3141 31.4949 14.3141 31.3919C14.3141 31.2868 14.2524 31.2231 14.15 31.2231ZM14.7943 31.6387H14.4865V31.1431H14.7943V31.2231H14.5733V31.3505H14.7712V31.4271H14.5733V31.5587H14.7943V31.6387ZM15.0979 31.6468C14.9535 31.6468 14.8599 31.5465 14.8599 31.3912C14.8599 31.2373 14.9569 31.1349 15.1019 31.1349C15.2192 31.1349 15.3067 31.2034 15.3237 31.3098H15.2321C15.2152 31.2522 15.1657 31.2183 15.0999 31.2183C15.0084 31.2183 14.9508 31.2848 14.9508 31.3905C14.9508 31.4956 15.0091 31.5634 15.0999 31.5634C15.167 31.5634 15.2186 31.5282 15.2348 31.4732H15.325C15.306 31.5777 15.2152 31.6468 15.0979 31.6468ZM15.4896 31.1431V31.6387H15.4028V31.1431H15.4896ZM15.571 31.2814C15.571 31.1946 15.6429 31.1342 15.7473 31.1342C15.8476 31.1342 15.9114 31.1898 15.9141 31.2793H15.8273C15.8253 31.2366 15.7947 31.2115 15.7459 31.2115C15.6924 31.2115 15.6578 31.2373 15.6578 31.2787C15.6578 31.3139 15.6768 31.3336 15.7181 31.3431L15.7961 31.36C15.8809 31.3783 15.9222 31.4217 15.9222 31.4956C15.9222 31.5878 15.8503 31.6475 15.7412 31.6475C15.6354 31.6475 15.5663 31.5912 15.5642 31.5024H15.651C15.6517 31.5444 15.6856 31.5695 15.7412 31.5695C15.7988 31.5695 15.8354 31.5444 15.8354 31.5031C15.8354 31.4698 15.8185 31.4502 15.7778 31.4414L15.6992 31.4237C15.6151 31.4054 15.571 31.3573 15.571 31.2814ZM16.0875 31.1431V31.6387H16.0007V31.1431H16.0875ZM16.6496 31.3905C16.6496 31.541 16.5506 31.6468 16.4082 31.6468C16.2665 31.6468 16.1689 31.5417 16.1689 31.3905C16.1689 31.24 16.2672 31.1342 16.4089 31.1342C16.5506 31.1342 16.6496 31.2393 16.6496 31.3905ZM16.5581 31.3905C16.5581 31.2848 16.4998 31.2176 16.4089 31.2176C16.3181 31.2176 16.2597 31.2848 16.2597 31.3905C16.2597 31.4963 16.3181 31.5634 16.4089 31.5634C16.4998 31.5634 16.5581 31.4949 16.5581 31.3905ZM16.8158 31.6387H16.7304V31.1431H16.8165L17.049 31.4943V31.1431H17.1345V31.6387H17.049L16.8158 31.2875V31.6387ZM17.2104 31.2814C17.2104 31.1946 17.2823 31.1342 17.3867 31.1342C17.487 31.1342 17.5508 31.1898 17.5535 31.2793H17.4667C17.4646 31.2366 17.4341 31.2115 17.3853 31.2115C17.3318 31.2115 17.2972 31.2373 17.2972 31.2787C17.2972 31.3139 17.3162 31.3336 17.3575 31.3431L17.4355 31.36C17.5202 31.3783 17.5616 31.4217 17.5616 31.4956C17.5616 31.5878 17.4897 31.6475 17.3806 31.6475C17.2748 31.6475 17.2057 31.5912 17.2036 31.5024H17.2904C17.2911 31.5444 17.325 31.5695 17.3806 31.5695C17.4382 31.5695 17.4748 31.5444 17.4748 31.5031C17.4748 31.4698 17.4579 31.4502 17.4172 31.4414L17.3385 31.4237C17.2545 31.4054 17.2104 31.3573 17.2104 31.2814Z" fill="#FEFEFE"/>
</svg>
