<svg width="35" height="44" viewBox="0 0 35 44" fill="none" xmlns="http://www.w3.org/2000/svg">
<rect width="34.7476" height="43.5051" rx="1.13" fill="#BB33FF"/>
<rect x="4.9707" y="3.27734" width="24.8036" height="24.8036" rx="0.339001" fill="#FEFEFE"/>
<path d="M10.7442 10.8223C10.724 10.887 10.6896 10.9356 10.641 10.968C10.5965 11.0003 10.552 11.0165 10.5075 11.0165C10.4387 11.0165 10.3801 10.9963 10.3315 10.9558C10.2829 10.9113 10.2546 10.8486 10.2465 10.7677C10.2587 10.6544 10.2647 10.5411 10.2647 10.4278C10.2647 10.1729 10.2405 9.91798 10.1919 9.66306C10.1474 9.40815 10.1171 9.14514 10.1009 8.87405V8.69803C10.1009 8.63734 10.1029 8.56856 10.1069 8.49168C10.111 8.4148 10.1171 8.33994 10.1251 8.26711C10.1332 8.19428 10.1413 8.12752 10.1494 8.06682C10.1616 8.00208 10.1737 7.9515 10.1858 7.91509L10.204 7.85439C10.204 7.83012 10.2121 7.80786 10.2283 7.78763C10.2486 7.76335 10.2708 7.74312 10.2951 7.72694C10.3234 7.71075 10.3517 7.69861 10.3801 7.69052C10.4084 7.67838 10.4327 7.67231 10.4529 7.67231C10.5095 7.67231 10.5642 7.69254 10.6168 7.73301C10.7746 7.86249 10.9344 8.00411 11.0962 8.15786C11.2621 8.30757 11.4179 8.46133 11.5636 8.61913C11.7133 8.77694 11.8509 8.93474 11.9763 9.09254C12.1017 9.25035 12.2029 9.39601 12.2798 9.52954L12.3162 9.13503C12.3364 8.96104 12.3506 8.78098 12.3587 8.59486C12.3708 8.40873 12.3789 8.21653 12.3829 8.01827C12.3749 7.9859 12.3708 7.95757 12.3708 7.9333C12.3708 7.85237 12.3931 7.78965 12.4376 7.74515C12.4821 7.70064 12.5387 7.67838 12.6075 7.67838C12.6642 7.67838 12.7107 7.6885 12.7471 7.70873C12.7876 7.72896 12.8179 7.75526 12.8381 7.78763C12.8624 7.82 12.8786 7.85642 12.8867 7.89688C12.8948 7.9333 12.8988 7.96971 12.8988 8.00613C12.8988 8.07087 12.8928 8.13561 12.8806 8.20035C12.8725 8.26104 12.8685 8.31769 12.8685 8.37029C12.8442 8.71017 12.8179 9.04399 12.7896 9.37173C12.7613 9.69543 12.7471 10.0272 12.7471 10.3671C12.7431 10.444 12.7188 10.5087 12.6743 10.5613C12.6338 10.6139 12.5731 10.6402 12.4922 10.6402C12.4477 10.6402 12.4052 10.6261 12.3647 10.5977C12.3283 10.5694 12.2939 10.537 12.2616 10.5006C12.2292 10.4642 12.2009 10.4278 12.1766 10.3914C12.1564 10.355 12.1422 10.3287 12.1341 10.3125L12.0309 10.0879C11.8407 9.74399 11.6223 9.42838 11.3754 9.1411C11.1327 8.84977 10.8777 8.59081 10.6107 8.36422C10.6026 8.42087 10.5945 8.47954 10.5864 8.54023C10.5824 8.59688 10.5803 8.65353 10.5803 8.71017C10.5803 8.86393 10.5884 9.01769 10.6046 9.17144C10.6249 9.3252 10.6451 9.47896 10.6653 9.63272C10.6855 9.78243 10.7038 9.93416 10.7199 10.0879C10.7402 10.2417 10.7503 10.3975 10.7503 10.5553C10.7503 10.5998 10.7503 10.6443 10.7503 10.6888C10.7503 10.7333 10.7483 10.7778 10.7442 10.8223ZM13.6696 11.0165C13.6332 10.968 13.6029 10.9093 13.5786 10.8405C13.5584 10.7717 13.5422 10.6989 13.5301 10.622C13.5179 10.5451 13.5078 10.4662 13.4997 10.3853C13.4957 10.3044 13.4916 10.2275 13.4876 10.1547L13.4511 9.42636C13.439 9.30902 13.4289 9.22 13.4208 9.15931C13.4168 9.09861 13.4107 9.03792 13.4026 8.97723C13.3985 8.91249 13.3945 8.83561 13.3905 8.74659C13.3905 8.65353 13.3905 8.51798 13.3905 8.33994C13.3905 8.27925 13.3884 8.22058 13.3844 8.16393C13.3844 8.10728 13.3844 8.05064 13.3844 7.99399C13.3844 7.84833 13.4208 7.74919 13.4936 7.69659C13.5705 7.63994 13.6676 7.61162 13.785 7.61162C13.8537 7.61162 13.9266 7.61567 14.0035 7.62376C14.0803 7.62781 14.1572 7.62983 14.2341 7.62983C14.3757 7.62983 14.5153 7.61162 14.6529 7.5752C14.7905 7.53474 14.924 7.50237 15.0535 7.47809C15.1344 7.47809 15.2032 7.50035 15.2598 7.54486C15.3165 7.58532 15.3448 7.6359 15.3448 7.69659C15.3448 7.75324 15.3266 7.80989 15.2902 7.86653C15.2537 7.91913 15.1951 7.95353 15.1142 7.96971C14.9563 8.00208 14.7945 8.0385 14.6286 8.07896C14.4627 8.11942 14.2948 8.13965 14.1248 8.13965C14.0803 8.13965 14.0358 8.13965 13.9913 8.13965C13.9468 8.13965 13.9084 8.13561 13.876 8.12752C13.8801 8.28127 13.8841 8.42896 13.8881 8.57058C13.8922 8.7122 13.8983 8.84977 13.9064 8.98329H13.9124C14.2199 8.95092 14.5092 8.93272 14.7803 8.92867C15.0514 8.92058 15.3387 8.91653 15.6422 8.91653C15.7919 8.95699 15.8668 9.03994 15.8668 9.16538C15.8668 9.22202 15.8445 9.27462 15.8 9.32318C15.7595 9.36769 15.7029 9.39601 15.63 9.40815C15.5977 9.40815 15.5329 9.40815 15.4358 9.40815C15.3428 9.40815 15.2335 9.41017 15.1081 9.41422C14.9826 9.41422 14.8511 9.41624 14.7136 9.42029C14.576 9.42029 14.4485 9.42433 14.3312 9.43243C14.2179 9.43647 14.1228 9.44254 14.0459 9.45063C13.9731 9.45873 13.9367 9.46884 13.9367 9.48098C13.9367 9.66306 13.9468 9.84514 13.967 10.0272C13.9913 10.2053 14.0116 10.3813 14.0277 10.5553C14.137 10.5148 14.2564 10.4804 14.3858 10.4521C14.5153 10.4197 14.6488 10.3954 14.7864 10.3792C14.928 10.3631 15.0717 10.3509 15.2173 10.3428C15.363 10.3347 15.5046 10.3307 15.6422 10.3307C15.7231 10.3631 15.7798 10.4015 15.8121 10.446C15.8485 10.4865 15.8668 10.533 15.8668 10.5856C15.8668 10.6423 15.8445 10.6949 15.8 10.7434C15.7595 10.7879 15.7029 10.8162 15.63 10.8284C15.4439 10.8284 15.2497 10.8425 15.0474 10.8709C14.8451 10.8951 14.6569 10.9255 14.4829 10.9619C14.313 10.9943 14.1673 11.0226 14.0459 11.0469C13.9246 11.0752 13.8517 11.0894 13.8274 11.0894C13.8072 11.0894 13.7829 11.0813 13.7546 11.0651C13.7303 11.0529 13.702 11.0368 13.6696 11.0165ZM17.7179 10.2639C17.7179 10.2275 17.728 10.1769 17.7483 10.1122C17.7725 10.0475 17.7988 9.97867 17.8272 9.90584C17.8595 9.833 17.8899 9.76219 17.9182 9.69341C17.9506 9.62058 17.9769 9.55988 17.9971 9.51133C18.1023 9.24428 18.2115 8.97318 18.3248 8.69803C18.4381 8.42289 18.5191 8.14572 18.5676 7.86653C18.5838 7.77347 18.6202 7.71278 18.6769 7.68445C18.7335 7.65208 18.7922 7.6359 18.8529 7.6359C18.9136 7.64399 18.9641 7.67434 19.0046 7.72694C19.0451 7.77954 19.0653 7.8463 19.0653 7.92723C19.0208 8.14168 18.9641 8.34804 18.8954 8.5463C18.8306 8.74457 18.7578 8.94081 18.6769 9.13503C18.6 9.32925 18.5231 9.52347 18.4462 9.71769C18.3693 9.91191 18.3006 10.1081 18.2399 10.3064C18.2277 10.3428 18.2055 10.4076 18.1731 10.5006C18.1448 10.5897 18.1084 10.6827 18.0639 10.7798C18.0194 10.8729 17.9667 10.9558 17.9061 11.0287C17.8494 11.0975 17.7867 11.1318 17.7179 11.1318C17.6491 11.1278 17.5965 11.1136 17.5601 11.0894C17.5277 11.0691 17.5035 11.0449 17.4873 11.0165C17.4751 10.9882 17.463 10.9579 17.4509 10.9255C17.4428 10.8891 17.4286 10.8567 17.4084 10.8284C17.3153 10.5573 17.2162 10.3044 17.111 10.0697C17.0058 9.83098 16.9026 9.59832 16.8014 9.37173C16.7043 9.1411 16.6133 8.91046 16.5283 8.67983C16.4433 8.44514 16.3746 8.19428 16.322 7.92723C16.3179 7.91913 16.3159 7.90497 16.3159 7.88474C16.3159 7.81596 16.3381 7.75526 16.3826 7.70266C16.4312 7.64601 16.4878 7.61769 16.5526 7.61769C16.6052 7.61769 16.6558 7.63387 16.7043 7.66624C16.7529 7.69861 16.7873 7.75526 16.8075 7.83619C16.8399 7.98185 16.8844 8.13965 16.941 8.3096C16.9977 8.47954 17.0584 8.6515 17.1231 8.82549C17.1919 8.99948 17.2607 9.16942 17.3295 9.33532C17.3983 9.49717 17.461 9.64283 17.5176 9.77231C17.5743 9.90179 17.6208 10.011 17.6572 10.1001C17.6936 10.1891 17.7139 10.2437 17.7179 10.2639ZM19.8361 11.0165C19.7997 10.968 19.7693 10.9093 19.7451 10.8405C19.7248 10.7717 19.7087 10.6989 19.6965 10.622C19.6844 10.5451 19.6743 10.4662 19.6662 10.3853C19.6621 10.3044 19.6581 10.2275 19.654 10.1547L19.6176 9.42636C19.6055 9.30902 19.5954 9.22 19.5873 9.15931C19.5832 9.09861 19.5772 9.03792 19.5691 8.97723C19.565 8.91249 19.561 8.83561 19.5569 8.74659C19.5569 8.65353 19.5569 8.51798 19.5569 8.33994C19.5569 8.27925 19.5549 8.22058 19.5509 8.16393C19.5509 8.10728 19.5509 8.05064 19.5509 7.99399C19.5509 7.84833 19.5873 7.74919 19.6601 7.69659C19.737 7.63994 19.8341 7.61162 19.9514 7.61162C20.0202 7.61162 20.093 7.61567 20.1699 7.62376C20.2468 7.62781 20.3237 7.62983 20.4006 7.62983C20.5422 7.62983 20.6818 7.61162 20.8193 7.5752C20.9569 7.53474 21.0904 7.50237 21.2199 7.47809C21.3008 7.47809 21.3696 7.50035 21.4263 7.54486C21.4829 7.58532 21.5113 7.6359 21.5113 7.69659C21.5113 7.75324 21.493 7.80989 21.4566 7.86653C21.4202 7.91913 21.3615 7.95353 21.2806 7.96971C21.1228 8.00208 20.961 8.0385 20.7951 8.07896C20.6292 8.11942 20.4613 8.13965 20.2913 8.13965C20.2468 8.13965 20.2023 8.13965 20.1578 8.13965C20.1133 8.13965 20.0748 8.13561 20.0425 8.12752C20.0465 8.28127 20.0506 8.42896 20.0546 8.57058C20.0587 8.7122 20.0647 8.84977 20.0728 8.98329H20.0789C20.3864 8.95092 20.6757 8.93272 20.9468 8.92867C21.2179 8.92058 21.5052 8.91653 21.8087 8.91653C21.9584 8.95699 22.0332 9.03994 22.0332 9.16538C22.0332 9.22202 22.011 9.27462 21.9665 9.32318C21.926 9.36769 21.8693 9.39601 21.7965 9.40815C21.7641 9.40815 21.6994 9.40815 21.6023 9.40815C21.5092 9.40815 21.4 9.41017 21.2745 9.41422C21.1491 9.41422 21.0176 9.41624 20.88 9.42029C20.7425 9.42029 20.615 9.42433 20.4977 9.43243C20.3844 9.43647 20.2893 9.44254 20.2124 9.45063C20.1396 9.45873 20.1032 9.46884 20.1032 9.48098C20.1032 9.66306 20.1133 9.84514 20.1335 10.0272C20.1578 10.2053 20.178 10.3813 20.1942 10.5553C20.3035 10.5148 20.4228 10.4804 20.5523 10.4521C20.6818 10.4197 20.8153 10.3954 20.9529 10.3792C21.0945 10.3631 21.2381 10.3509 21.3838 10.3428C21.5295 10.3347 21.6711 10.3307 21.8087 10.3307C21.8896 10.3631 21.9462 10.4015 21.9786 10.446C22.015 10.4865 22.0332 10.533 22.0332 10.5856C22.0332 10.6423 22.011 10.6949 21.9665 10.7434C21.926 10.7879 21.8693 10.8162 21.7965 10.8284C21.6104 10.8284 21.4162 10.8425 21.2139 10.8709C21.0115 10.8951 20.8234 10.9255 20.6494 10.9619C20.4795 10.9943 20.3338 11.0226 20.2124 11.0469C20.091 11.0752 20.0182 11.0894 19.9939 11.0894C19.9737 11.0894 19.9494 11.0813 19.9211 11.0651C19.8968 11.0529 19.8685 11.0368 19.8361 11.0165ZM23.0165 11.0772C23.0165 11.146 22.9902 11.2027 22.9376 11.2472C22.889 11.2917 22.8364 11.3139 22.7797 11.3139C22.7231 11.3139 22.6665 11.2937 22.6098 11.2532C22.5572 11.2168 22.5269 11.1561 22.5188 11.0712C22.5188 10.8001 22.5208 10.531 22.5248 10.2639C22.5329 9.99688 22.537 9.7278 22.537 9.4567C22.537 9.37983 22.5309 9.25844 22.5188 9.09254C22.5107 8.9226 22.5066 8.74659 22.5066 8.56451C22.5066 8.37029 22.5127 8.18012 22.5248 7.99399C22.541 7.80786 22.5774 7.64601 22.6341 7.50844L22.6705 7.44775L22.7373 7.39312C22.8465 7.35266 22.9598 7.33243 23.0771 7.33243C23.243 7.33243 23.4211 7.35064 23.6112 7.38705C23.8014 7.41942 23.9774 7.47809 24.1393 7.56307C24.3011 7.64804 24.4347 7.76335 24.5399 7.90902C24.6491 8.05064 24.7037 8.23272 24.7037 8.45526C24.7037 8.56046 24.6875 8.65757 24.6552 8.74659C24.6269 8.83561 24.5884 8.91653 24.5399 8.98936C24.4954 9.0622 24.4428 9.12694 24.3821 9.18358C24.3254 9.24023 24.2688 9.28676 24.2121 9.32318C24.0948 9.40006 23.9653 9.46075 23.8237 9.50526C23.6821 9.54572 23.5344 9.59225 23.3806 9.64485L23.3078 9.66913C23.2997 9.66509 23.2956 9.66306 23.2956 9.66306C23.3928 9.73185 23.4838 9.80468 23.5688 9.88156C23.6578 9.95439 23.7468 10.0272 23.8358 10.1001C23.9289 10.1729 24.024 10.2437 24.1211 10.3125C24.2222 10.3772 24.3315 10.4379 24.4488 10.4946C24.5257 10.5674 24.5641 10.6443 24.5641 10.7252C24.5641 10.794 24.5399 10.8506 24.4913 10.8951C24.4468 10.9356 24.3922 10.9558 24.3274 10.9558C24.2789 10.9558 24.2222 10.9417 24.1575 10.9133C24.0928 10.885 24.026 10.8506 23.9572 10.8102C23.8884 10.7657 23.8176 10.7191 23.7448 10.6706C23.676 10.622 23.6112 10.5775 23.5506 10.537C23.4454 10.4683 23.3482 10.3975 23.2592 10.3246C23.1743 10.2518 23.0974 10.181 23.0286 10.1122V10.2397C23.0286 10.3732 23.0245 10.5107 23.0165 10.6524C23.0124 10.7899 23.0124 10.9316 23.0165 11.0772ZM23.0347 9.21393C23.0266 9.22202 23.0225 9.22607 23.0225 9.22607C23.0185 9.22607 23.0286 9.22202 23.0529 9.21393C23.1419 9.18965 23.2511 9.16538 23.3806 9.1411C23.5141 9.11277 23.6416 9.07433 23.763 9.02578C23.8844 8.97318 23.9875 8.90439 24.0725 8.81942C24.1615 8.7304 24.206 8.61104 24.206 8.46133C24.206 8.33994 24.1818 8.24486 24.1332 8.17607C24.0887 8.10728 24.028 8.05468 23.9511 8.01827C23.8783 7.9778 23.7954 7.94948 23.7023 7.9333C23.6092 7.91306 23.5162 7.89283 23.4231 7.8726C23.3705 7.86046 23.3118 7.85035 23.2471 7.84226C23.1823 7.83012 23.1277 7.82405 23.0832 7.82405C23.067 7.82405 23.0549 7.85035 23.0468 7.90295C23.0387 7.9515 23.0326 8.01017 23.0286 8.07896C23.0286 8.14775 23.0286 8.21653 23.0286 8.28532C23.0286 8.35006 23.0286 8.39861 23.0286 8.43098C23.0286 8.58069 23.0286 8.72231 23.0286 8.85584C23.0326 8.98936 23.0347 9.10873 23.0347 9.21393ZM11.342 15.8269C11.3501 15.7865 11.3542 15.7683 11.3542 15.7723C11.3056 15.8209 11.2611 15.8472 11.2207 15.8512H10.4316C10.197 15.8512 9.97442 15.8451 9.76402 15.833C9.77211 16.0029 9.77818 16.1769 9.78222 16.355C9.78627 16.533 9.78829 16.7171 9.78829 16.9073C9.78829 16.9761 9.76402 17.0307 9.71546 17.0712C9.66691 17.1157 9.61431 17.1379 9.55766 17.1379C9.50101 17.1379 9.44234 17.1197 9.38165 17.0833C9.325 17.0469 9.29668 16.9842 9.29668 16.8951C9.29668 16.3934 9.28049 15.8998 9.24812 15.4142C9.21575 14.9246 9.19147 14.4269 9.17529 13.9212C9.19552 13.8483 9.22587 13.7937 9.26633 13.7573C9.30679 13.7209 9.35737 13.6986 9.41806 13.6905C9.5354 13.6905 9.62037 13.7634 9.67298 13.909C9.68107 14.1558 9.68916 14.3986 9.69725 14.6373C9.70939 14.872 9.72355 15.1047 9.73974 15.3353C9.96228 15.3475 10.199 15.3535 10.4499 15.3535H11.2328C11.2733 15.3697 11.3117 15.4001 11.3481 15.4446C11.3522 15.4446 11.3542 15.4324 11.3542 15.4081V15.3596C11.3582 15.2625 11.3603 15.1492 11.3603 15.0197C11.3643 14.8862 11.3683 14.7446 11.3724 14.5949C11.3805 14.4411 11.3886 14.2853 11.3967 14.1275C11.4088 13.9657 11.4209 13.8119 11.4331 13.6662C11.4533 13.5934 11.4877 13.5388 11.5363 13.5024C11.5889 13.4619 11.6394 13.4417 11.688 13.4417C11.7527 13.4417 11.8074 13.468 11.8519 13.5206C11.9004 13.5691 11.9247 13.6359 11.9247 13.7209C11.9004 14.0527 11.8822 14.3804 11.8701 14.7041C11.862 15.0278 11.8519 15.3616 11.8397 15.7055L11.8033 16.3792C11.7993 16.4318 11.7952 16.5067 11.7912 16.6038C11.7871 16.6969 11.775 16.7899 11.7548 16.883C11.7345 16.972 11.7022 17.0509 11.6577 17.1197C11.6172 17.1885 11.5545 17.2229 11.4695 17.2229C11.4088 17.2229 11.3542 17.2006 11.3056 17.1561C11.2571 17.1157 11.2328 17.0509 11.2328 16.9619C11.2328 16.9336 11.2348 16.9133 11.2389 16.9012C11.2551 16.8284 11.2672 16.7353 11.2753 16.622C11.2874 16.5047 11.2975 16.3914 11.3056 16.2821C11.3178 16.1688 11.3259 16.0697 11.3299 15.9847C11.334 15.8957 11.338 15.8431 11.342 15.8269ZM13.175 15.8937C13.1548 15.8897 13.1366 15.8876 13.1204 15.8876C13.1123 15.8876 13.092 15.918 13.0597 15.9787C13.0273 16.0353 12.9889 16.1021 12.9444 16.179C12.9039 16.2518 12.8634 16.3266 12.823 16.4035C12.7825 16.4764 12.7522 16.529 12.7319 16.5613C12.6672 16.6382 12.5944 16.6766 12.5134 16.6766C12.4527 16.6766 12.4001 16.6564 12.3556 16.616C12.3111 16.5714 12.2889 16.5087 12.2889 16.4278C12.2889 16.3954 12.2909 16.3691 12.2949 16.3489C12.4285 16.1142 12.5559 15.8836 12.6773 15.657C12.7987 15.4304 12.9241 15.2058 13.0536 14.9833C13.1871 14.7608 13.3267 14.5443 13.4724 14.3339C13.6181 14.1194 13.7819 13.911 13.964 13.7087C13.9923 13.6764 14.0227 13.6561 14.055 13.648C14.0874 13.6359 14.1178 13.6278 14.1461 13.6238C14.2068 13.6238 14.2574 13.646 14.2978 13.6905C14.3423 13.735 14.3686 13.7897 14.3767 13.8544C14.3646 13.8989 14.3504 13.9292 14.3342 13.9454L14.3828 13.9212C14.4354 13.9212 14.49 13.9353 14.5467 13.9636C14.6074 13.992 14.6498 14.0466 14.6741 14.1275C14.7065 14.3541 14.7449 14.5746 14.7894 14.7891C14.834 14.9995 14.8764 15.2119 14.9169 15.4264C14.9614 15.6368 14.9998 15.8492 15.0322 16.0636C15.0686 16.2781 15.0909 16.5006 15.099 16.7313C15.099 16.8122 15.0747 16.8749 15.0261 16.9194C14.9776 16.9599 14.925 16.9801 14.8683 16.9801C14.8076 16.9801 14.749 16.9619 14.6923 16.9255C14.6397 16.8891 14.6094 16.8264 14.6013 16.7373C14.5932 16.4541 14.5689 16.187 14.5285 15.9362C14.5204 15.9443 14.4981 15.9503 14.4617 15.9544C14.2432 15.9544 14.0247 15.9443 13.8062 15.924C13.5918 15.9038 13.3814 15.8937 13.175 15.8937ZM13.3874 15.4081C13.5331 15.4162 13.703 15.4264 13.8972 15.4385C14.0915 15.4506 14.2695 15.4567 14.4313 15.4567H14.4374L14.4313 15.4264C14.4192 15.3859 14.405 15.3272 14.3889 15.2503C14.3727 15.1735 14.3545 15.0905 14.3342 15.0015C14.3181 14.9125 14.2998 14.8214 14.2796 14.7284C14.2634 14.6313 14.2472 14.5443 14.2311 14.4674C14.2149 14.3905 14.2007 14.3278 14.1886 14.2792C14.1805 14.2307 14.1764 14.2064 14.1764 14.2064C14.14 14.2388 14.0894 14.2975 14.0247 14.3824C13.9681 14.4553 13.8952 14.5625 13.8062 14.7041C13.7172 14.8417 13.6059 15.0298 13.4724 15.2686L13.3874 15.4081ZM16.9926 16.2639C16.9926 16.2275 17.0027 16.1769 17.023 16.1122C17.0472 16.0475 17.0735 15.9787 17.1019 15.9058C17.1342 15.833 17.1646 15.7622 17.1929 15.6934C17.2253 15.6206 17.2516 15.5599 17.2718 15.5113C17.377 15.2443 17.4863 14.9732 17.5996 14.698C17.7128 14.4229 17.7938 14.1457 17.8423 13.8665C17.8585 13.7735 17.8949 13.7128 17.9516 13.6845C18.0082 13.6521 18.0669 13.6359 18.1276 13.6359C18.1883 13.644 18.2389 13.6743 18.2793 13.7269C18.3198 13.7795 18.34 13.8463 18.34 13.9272C18.2955 14.1417 18.2389 14.348 18.1701 14.5463C18.1053 14.7446 18.0325 14.9408 17.9516 15.135C17.8747 15.3292 17.7978 15.5235 17.7209 15.7177C17.6441 15.9119 17.5753 16.1081 17.5146 16.3064C17.5024 16.3428 17.4802 16.4076 17.4478 16.5006C17.4195 16.5897 17.3831 16.6827 17.3386 16.7798C17.2941 16.8729 17.2415 16.9558 17.1808 17.0287C17.1241 17.0975 17.0614 17.1318 16.9926 17.1318C16.9238 17.1278 16.8712 17.1136 16.8348 17.0894C16.8024 17.0691 16.7782 17.0449 16.762 17.0165C16.7498 16.9882 16.7377 16.9579 16.7256 16.9255C16.7175 16.8891 16.7033 16.8567 16.6831 16.8284C16.59 16.5573 16.4909 16.3044 16.3857 16.0697C16.2805 15.831 16.1773 15.5983 16.0761 15.3717C15.979 15.1411 15.888 14.9105 15.803 14.6798C15.7181 14.4451 15.6493 14.1943 15.5967 13.9272C15.5926 13.9191 15.5906 13.905 15.5906 13.8847C15.5906 13.816 15.6129 13.7553 15.6574 13.7027C15.7059 13.646 15.7626 13.6177 15.8273 13.6177C15.8799 13.6177 15.9305 13.6339 15.979 13.6662C16.0276 13.6986 16.062 13.7553 16.0822 13.8362C16.1146 13.9819 16.1591 14.1397 16.2157 14.3096C16.2724 14.4795 16.3331 14.6515 16.3978 14.8255C16.4666 14.9995 16.5354 15.1694 16.6042 15.3353C16.673 15.4972 16.7357 15.6428 16.7923 15.7723C16.849 15.9018 16.8955 16.011 16.9319 16.1001C16.9683 16.1891 16.9886 16.2437 16.9926 16.2639ZM19.1108 17.0165C19.0744 16.968 19.0441 16.9093 19.0198 16.8405C18.9996 16.7717 18.9834 16.6989 18.9712 16.622C18.9591 16.5451 18.949 16.4662 18.9409 16.3853C18.9368 16.3044 18.9328 16.2275 18.9287 16.1547L18.8923 15.4264C18.8802 15.309 18.8701 15.22 18.862 15.1593C18.8579 15.0986 18.8519 15.0379 18.8438 14.9772C18.8397 14.9125 18.8357 14.8356 18.8316 14.7466C18.8316 14.6535 18.8316 14.518 18.8316 14.3399C18.8316 14.2792 18.8296 14.2206 18.8256 14.1639C18.8256 14.1073 18.8256 14.0506 18.8256 13.994C18.8256 13.8483 18.862 13.7492 18.9348 13.6966C19.0117 13.6399 19.1088 13.6116 19.2261 13.6116C19.2949 13.6116 19.3678 13.6157 19.4446 13.6238C19.5215 13.6278 19.5984 13.6298 19.6753 13.6298C19.8169 13.6298 19.9565 13.6116 20.0941 13.5752C20.2316 13.5347 20.3652 13.5024 20.4946 13.4781C20.5756 13.4781 20.6443 13.5003 20.701 13.5449C20.7576 13.5853 20.786 13.6359 20.786 13.6966C20.786 13.7532 20.7678 13.8099 20.7313 13.8665C20.6949 13.9191 20.6363 13.9535 20.5553 13.9697C20.3975 14.0021 20.2357 14.0385 20.0698 14.079C19.9039 14.1194 19.736 14.1397 19.566 14.1397C19.5215 14.1397 19.477 14.1397 19.4325 14.1397C19.388 14.1397 19.3496 14.1356 19.3172 14.1275C19.3212 14.2813 19.3253 14.429 19.3293 14.5706C19.3334 14.7122 19.3394 14.8498 19.3475 14.9833H19.3536C19.6611 14.9509 19.9504 14.9327 20.2215 14.9287C20.4926 14.9206 20.7799 14.9165 21.0834 14.9165C21.2331 14.957 21.3079 15.0399 21.3079 15.1654C21.3079 15.222 21.2857 15.2746 21.2412 15.3232C21.2007 15.3677 21.1441 15.396 21.0712 15.4081C21.0389 15.4081 20.9741 15.4081 20.877 15.4081C20.7839 15.4081 20.6747 15.4102 20.5493 15.4142C20.4238 15.4142 20.2923 15.4162 20.1548 15.4203C20.0172 15.4203 19.8897 15.4243 19.7724 15.4324C19.6591 15.4365 19.564 15.4425 19.4871 15.4506C19.4143 15.4587 19.3779 15.4688 19.3779 15.481C19.3779 15.6631 19.388 15.8451 19.4082 16.0272C19.4325 16.2053 19.4527 16.3813 19.4689 16.5553C19.5782 16.5148 19.6975 16.4804 19.827 16.4521C19.9565 16.4197 20.09 16.3954 20.2276 16.3792C20.3692 16.3631 20.5128 16.3509 20.6585 16.3428C20.8042 16.3347 20.9458 16.3307 21.0834 16.3307C21.1643 16.3631 21.2209 16.4015 21.2533 16.446C21.2897 16.4865 21.3079 16.533 21.3079 16.5856C21.3079 16.6423 21.2857 16.6949 21.2412 16.7434C21.2007 16.7879 21.1441 16.8162 21.0712 16.8284C20.8851 16.8284 20.6909 16.8425 20.4886 16.8709C20.2863 16.8951 20.0981 16.9255 19.9241 16.9619C19.7542 16.9943 19.6085 17.0226 19.4871 17.0469C19.3657 17.0752 19.2929 17.0894 19.2686 17.0894C19.2484 17.0894 19.2241 17.0813 19.1958 17.0651C19.1715 17.0529 19.1432 17.0368 19.1108 17.0165ZM23.7964 17.1379C23.7073 17.1339 23.6446 17.1035 23.6082 17.0469C23.5718 16.9902 23.5536 16.9336 23.5536 16.8769C23.5536 16.8203 23.5758 16.7677 23.6204 16.7191C23.6649 16.6706 23.7276 16.6463 23.8085 16.6463L24.288 16.622L24.2819 16.5492C24.2819 16.3631 24.2799 16.2012 24.2758 16.0636C24.2758 15.922 24.2738 15.7925 24.2698 15.6752C24.2657 15.5538 24.2617 15.4405 24.2576 15.3353C24.2536 15.2261 24.2475 15.1128 24.2394 14.9954C24.2354 14.874 24.2313 14.7425 24.2273 14.6009C24.2232 14.4593 24.2192 14.2954 24.2151 14.1093C24.2151 14.0931 24.2151 14.081 24.2151 14.0729C24.2192 14.0648 24.2212 14.0567 24.2212 14.0486C24.2212 14.0405 24.2192 14.0365 24.2151 14.0365C24.1545 14.0405 24.0857 14.0425 24.0088 14.0425C23.936 14.0425 23.853 14.0425 23.7599 14.0425C23.6709 14.0345 23.6082 14.0041 23.5718 13.9515C23.5354 13.8949 23.5172 13.8362 23.5172 13.7755C23.5172 13.7188 23.5394 13.6662 23.5839 13.6177C23.6284 13.5691 23.6851 13.5449 23.7539 13.5449C23.9845 13.5449 24.205 13.5408 24.4154 13.5327C24.6258 13.5206 24.8403 13.5145 25.0588 13.5145C25.1276 13.5388 25.1822 13.5732 25.2227 13.6177C25.2631 13.6622 25.2834 13.7087 25.2834 13.7573C25.2834 13.8342 25.2591 13.8908 25.2105 13.9272C25.166 13.9596 25.1114 13.9839 25.0467 14.0001C24.986 14.0122 24.9212 14.0183 24.8524 14.0183C24.7877 14.0142 24.7351 14.0142 24.6946 14.0183H24.6886C24.6886 14.0264 24.6906 14.0365 24.6946 14.0486C24.6987 14.0567 24.7047 14.0709 24.7128 14.0911C24.7169 14.2772 24.7209 14.4411 24.725 14.5827C24.729 14.7243 24.7331 14.8558 24.7371 14.9772C24.7452 15.0946 24.7513 15.2079 24.7553 15.3171C24.7594 15.4264 24.7634 15.5417 24.7675 15.6631C24.7715 15.7804 24.7735 15.9119 24.7735 16.0576C24.7776 16.1992 24.7796 16.3631 24.7796 16.5492V16.5917C24.8605 16.5876 24.9435 16.5856 25.0284 16.5856C25.1175 16.5816 25.2105 16.5795 25.3076 16.5795C25.3764 16.5998 25.429 16.6321 25.4654 16.6766C25.5059 16.7212 25.5261 16.7697 25.5261 16.8223C25.518 16.879 25.4958 16.9316 25.4594 16.9801C25.423 17.0246 25.3683 17.055 25.2955 17.0712C25.0406 17.0712 24.7897 17.0792 24.5429 17.0954C24.3001 17.1116 24.0513 17.1258 23.7964 17.1379ZM12.0188 23.0165C11.9824 22.968 11.952 22.9093 11.9277 22.8405C11.9075 22.7717 11.8913 22.6989 11.8792 22.622C11.867 22.5451 11.8569 22.4662 11.8488 22.3853C11.8448 22.3044 11.8407 22.2275 11.8367 22.1547L11.8003 21.4264C11.7881 21.309 11.778 21.22 11.7699 21.1593C11.7659 21.0986 11.7598 21.0379 11.7517 20.9772C11.7477 20.9125 11.7436 20.8356 11.7396 20.7466C11.7396 20.6535 11.7396 20.518 11.7396 20.3399C11.7396 20.2792 11.7376 20.2206 11.7335 20.1639C11.7335 20.1073 11.7335 20.0506 11.7335 19.994C11.7335 19.8483 11.7699 19.7492 11.8428 19.6966C11.9196 19.6399 12.0168 19.6116 12.1341 19.6116C12.2029 19.6116 12.2757 19.6157 12.3526 19.6238C12.4295 19.6278 12.5064 19.6298 12.5832 19.6298C12.7248 19.6298 12.8644 19.6116 13.002 19.5752C13.1396 19.5347 13.2731 19.5024 13.4026 19.4781C13.4835 19.4781 13.5523 19.5003 13.609 19.5449C13.6656 19.5853 13.6939 19.6359 13.6939 19.6966C13.6939 19.7532 13.6757 19.8099 13.6393 19.8665C13.6029 19.9191 13.5442 19.9535 13.4633 19.9697C13.3055 20.0021 13.1436 20.0385 12.9777 20.079C12.8118 20.1194 12.6439 20.1397 12.474 20.1397C12.4295 20.1397 12.385 20.1397 12.3405 20.1397C12.2959 20.1397 12.2575 20.1356 12.2251 20.1275C12.2292 20.2813 12.2332 20.429 12.2373 20.5706C12.2413 20.7122 12.2474 20.8498 12.2555 20.9833H12.2616C12.5691 20.9509 12.8584 20.9327 13.1295 20.9287C13.4006 20.9206 13.6879 20.9165 13.9913 20.9165C14.141 20.957 14.2159 21.0399 14.2159 21.1654C14.2159 21.222 14.1936 21.2746 14.1491 21.3232C14.1087 21.3677 14.052 21.396 13.9792 21.4081C13.9468 21.4081 13.8821 21.4081 13.785 21.4081C13.6919 21.4081 13.5827 21.4102 13.4572 21.4142C13.3318 21.4142 13.2003 21.4162 13.0627 21.4203C12.9251 21.4203 12.7977 21.4243 12.6803 21.4324C12.567 21.4365 12.472 21.4425 12.3951 21.4506C12.3222 21.4587 12.2858 21.4688 12.2858 21.481C12.2858 21.6631 12.2959 21.8451 12.3162 22.0272C12.3405 22.2053 12.3607 22.3813 12.3769 22.5553C12.4861 22.5148 12.6055 22.4804 12.735 22.4521C12.8644 22.4197 12.998 22.3954 13.1355 22.3792C13.2772 22.3631 13.4208 22.3509 13.5665 22.3428C13.7121 22.3347 13.8537 22.3307 13.9913 22.3307C14.0722 22.3631 14.1289 22.4015 14.1613 22.446C14.1977 22.4865 14.2159 22.533 14.2159 22.5856C14.2159 22.6423 14.1936 22.6949 14.1491 22.7434C14.1087 22.7879 14.052 22.8162 13.9792 22.8284C13.7931 22.8284 13.5988 22.8425 13.3965 22.8709C13.1942 22.8951 13.0061 22.9255 12.8321 22.9619C12.6621 22.9943 12.5165 23.0226 12.3951 23.0469C12.2737 23.0752 12.2009 23.0894 12.1766 23.0894C12.1564 23.0894 12.1321 23.0813 12.1038 23.0651C12.0795 23.0529 12.0512 23.0368 12.0188 23.0165ZM16.067 22.2639C16.067 22.2275 16.0772 22.1769 16.0974 22.1122C16.1217 22.0475 16.148 21.9787 16.1763 21.9058C16.2087 21.833 16.239 21.7622 16.2673 21.6934C16.2997 21.6206 16.326 21.5599 16.3462 21.5113C16.4514 21.2443 16.5607 20.9732 16.674 20.698C16.7873 20.4229 16.8682 20.1457 16.9168 19.8665C16.9329 19.7735 16.9694 19.7128 17.026 19.6845C17.0826 19.6521 17.1413 19.6359 17.202 19.6359C17.2627 19.644 17.3133 19.6743 17.3537 19.7269C17.3942 19.7795 17.4144 19.8463 17.4144 19.9272C17.3699 20.1417 17.3133 20.348 17.2445 20.5463C17.1798 20.7446 17.1069 20.9408 17.026 21.135C16.9491 21.3292 16.8722 21.5235 16.7954 21.7177C16.7185 21.9119 16.6497 22.1081 16.589 22.3064C16.5769 22.3428 16.5546 22.4076 16.5222 22.5006C16.4939 22.5897 16.4575 22.6827 16.413 22.7798C16.3685 22.8729 16.3159 22.9558 16.2552 23.0287C16.1985 23.0975 16.1358 23.1318 16.067 23.1318C15.9983 23.1278 15.9457 23.1136 15.9092 23.0894C15.8769 23.0691 15.8526 23.0449 15.8364 23.0165C15.8243 22.9882 15.8121 22.9579 15.8 22.9255C15.7919 22.8891 15.7777 22.8567 15.7575 22.8284C15.6644 22.5573 15.5653 22.3044 15.4601 22.0697C15.3549 21.831 15.2517 21.5983 15.1506 21.3717C15.0535 21.1411 14.9624 20.9105 14.8774 20.6798C14.7925 20.4451 14.7237 20.1943 14.6711 19.9272C14.667 19.9191 14.665 19.905 14.665 19.8847C14.665 19.816 14.6873 19.7553 14.7318 19.7027C14.7803 19.646 14.837 19.6177 14.9017 19.6177C14.9543 19.6177 15.0049 19.6339 15.0535 19.6662C15.102 19.6986 15.1364 19.7553 15.1566 19.8362C15.189 19.9819 15.2335 20.1397 15.2902 20.3096C15.3468 20.4795 15.4075 20.6515 15.4722 20.8255C15.541 20.9995 15.6098 21.1694 15.6786 21.3353C15.7474 21.4972 15.8101 21.6428 15.8668 21.7723C15.9234 21.9018 15.9699 22.011 16.0063 22.1001C16.0428 22.1891 16.063 22.2437 16.067 22.2639ZM18.1852 23.0165C18.1488 22.968 18.1185 22.9093 18.0942 22.8405C18.074 22.7717 18.0578 22.6989 18.0457 22.622C18.0335 22.5451 18.0234 22.4662 18.0153 22.3853C18.0113 22.3044 18.0072 22.2275 18.0032 22.1547L17.9667 21.4264C17.9546 21.309 17.9445 21.22 17.9364 21.1593C17.9324 21.0986 17.9263 21.0379 17.9182 20.9772C17.9141 20.9125 17.9101 20.8356 17.9061 20.7466C17.9061 20.6535 17.9061 20.518 17.9061 20.3399C17.9061 20.2792 17.904 20.2206 17.9 20.1639C17.9 20.1073 17.9 20.0506 17.9 19.994C17.9 19.8483 17.9364 19.7492 18.0092 19.6966C18.0861 19.6399 18.1832 19.6116 18.3006 19.6116C18.3693 19.6116 18.4422 19.6157 18.5191 19.6238C18.5959 19.6278 18.6728 19.6298 18.7497 19.6298C18.8913 19.6298 19.0309 19.6116 19.1685 19.5752C19.3061 19.5347 19.4396 19.5024 19.5691 19.4781C19.65 19.4781 19.7188 19.5003 19.7754 19.5449C19.8321 19.5853 19.8604 19.6359 19.8604 19.6966C19.8604 19.7532 19.8422 19.8099 19.8058 19.8665C19.7693 19.9191 19.7107 19.9535 19.6298 19.9697C19.4719 20.0021 19.3101 20.0385 19.1442 20.079C18.9783 20.1194 18.8104 20.1397 18.6404 20.1397C18.5959 20.1397 18.5514 20.1397 18.5069 20.1397C18.4624 20.1397 18.424 20.1356 18.3916 20.1275C18.3956 20.2813 18.3997 20.429 18.4037 20.5706C18.4078 20.7122 18.4139 20.8498 18.4219 20.9833H18.428C18.7355 20.9509 19.0248 20.9327 19.2959 20.9287C19.567 20.9206 19.8543 20.9165 20.1578 20.9165C20.3075 20.957 20.3824 21.0399 20.3824 21.1654C20.3824 21.222 20.3601 21.2746 20.3156 21.3232C20.2751 21.3677 20.2185 21.396 20.1456 21.4081C20.1133 21.4081 20.0485 21.4081 19.9514 21.4081C19.8584 21.4081 19.7491 21.4102 19.6237 21.4142C19.4982 21.4142 19.3667 21.4162 19.2292 21.4203C19.0916 21.4203 18.9641 21.4243 18.8468 21.4324C18.7335 21.4365 18.6384 21.4425 18.5615 21.4506C18.4887 21.4587 18.4523 21.4688 18.4523 21.481C18.4523 21.6631 18.4624 21.8451 18.4826 22.0272C18.5069 22.2053 18.5272 22.3813 18.5433 22.5553C18.6526 22.5148 18.7719 22.4804 18.9014 22.4521C19.0309 22.4197 19.1644 22.3954 19.302 22.3792C19.4436 22.3631 19.5873 22.3509 19.7329 22.3428C19.8786 22.3347 20.0202 22.3307 20.1578 22.3307C20.2387 22.3631 20.2954 22.4015 20.3277 22.446C20.3641 22.4865 20.3824 22.533 20.3824 22.5856C20.3824 22.6423 20.3601 22.6949 20.3156 22.7434C20.2751 22.7879 20.2185 22.8162 20.1456 22.8284C19.9595 22.8284 19.7653 22.8425 19.563 22.8709C19.3607 22.8951 19.1725 22.9255 18.9985 22.9619C18.8286 22.9943 18.6829 23.0226 18.5615 23.0469C18.4402 23.0752 18.3673 23.0894 18.343 23.0894C18.3228 23.0894 18.2985 23.0813 18.2702 23.0651C18.2459 23.0529 18.2176 23.0368 18.1852 23.0165ZM21.3656 23.0772C21.3656 23.146 21.3393 23.2027 21.2867 23.2472C21.2381 23.2917 21.1855 23.3139 21.1289 23.3139C21.0722 23.3139 21.0156 23.2937 20.9589 23.2532C20.9063 23.2168 20.876 23.1561 20.8679 23.0712C20.8679 22.8001 20.8699 22.531 20.874 22.2639C20.8821 21.9969 20.8861 21.7278 20.8861 21.4567C20.8861 21.3798 20.88 21.2584 20.8679 21.0925C20.8598 20.9226 20.8558 20.7466 20.8558 20.5645C20.8558 20.3703 20.8618 20.1801 20.874 19.994C20.8902 19.8079 20.9266 19.646 20.9832 19.5084L21.0196 19.4477L21.0864 19.3931C21.1956 19.3527 21.3089 19.3324 21.4263 19.3324C21.5922 19.3324 21.7702 19.3506 21.9604 19.3871C22.1506 19.4194 22.3266 19.4781 22.4884 19.5631C22.6503 19.648 22.7838 19.7634 22.889 19.909C22.9982 20.0506 23.0529 20.2327 23.0529 20.4553C23.0529 20.5605 23.0367 20.6576 23.0043 20.7466C22.976 20.8356 22.9376 20.9165 22.889 20.9894C22.8445 21.0622 22.7919 21.1269 22.7312 21.1836C22.6745 21.2402 22.6179 21.2868 22.5613 21.3232C22.4439 21.4001 22.3144 21.4608 22.1728 21.5053C22.0312 21.5457 21.8835 21.5923 21.7297 21.6449L21.6569 21.6691C21.6488 21.6651 21.6448 21.6631 21.6448 21.6631C21.7419 21.7318 21.8329 21.8047 21.9179 21.8816C22.0069 21.9544 22.0959 22.0272 22.185 22.1001C22.278 22.1729 22.3731 22.2437 22.4702 22.3125C22.5714 22.3772 22.6806 22.4379 22.798 22.4946C22.8748 22.5674 22.9133 22.6443 22.9133 22.7252C22.9133 22.794 22.889 22.8506 22.8404 22.8951C22.7959 22.9356 22.7413 22.9558 22.6766 22.9558C22.628 22.9558 22.5714 22.9417 22.5066 22.9133C22.4419 22.885 22.3751 22.8506 22.3063 22.8102C22.2376 22.7657 22.1667 22.7191 22.0939 22.6706C22.0251 22.622 21.9604 22.5775 21.8997 22.537C21.7945 22.4683 21.6974 22.3975 21.6084 22.3246C21.5234 22.2518 21.4465 22.181 21.3777 22.1122V22.2397C21.3777 22.3732 21.3737 22.5107 21.3656 22.6524C21.3615 22.7899 21.3615 22.9316 21.3656 23.0772ZM21.3838 21.2139C21.3757 21.222 21.3717 21.2261 21.3717 21.2261C21.3676 21.2261 21.3777 21.222 21.402 21.2139C21.491 21.1897 21.6003 21.1654 21.7297 21.1411C21.8633 21.1128 21.9907 21.0743 22.1121 21.0258C22.2335 20.9732 22.3367 20.9044 22.4217 20.8194C22.5107 20.7304 22.5552 20.611 22.5552 20.4613C22.5552 20.3399 22.5309 20.2449 22.4823 20.1761C22.4378 20.1073 22.3771 20.0547 22.3003 20.0183C22.2274 19.9778 22.1445 19.9495 22.0514 19.9333C21.9584 19.9131 21.8653 19.8928 21.7722 19.8726C21.7196 19.8605 21.661 19.8503 21.5962 19.8423C21.5315 19.8301 21.4769 19.824 21.4324 19.824C21.4162 19.824 21.404 19.8503 21.3959 19.9029C21.3878 19.9515 21.3818 20.0102 21.3777 20.079C21.3777 20.1477 21.3777 20.2165 21.3777 20.2853C21.3777 20.3501 21.3777 20.3986 21.3777 20.431C21.3777 20.5807 21.3777 20.7223 21.3777 20.8558C21.3818 20.9894 21.3838 21.1087 21.3838 21.2139Z" fill="#BB33FF"/>
<path d="M17.3726 31.9238L20.5776 26.3727H14.1677L17.3726 31.9238Z" fill="#FEFEFE"/>
<path d="M11.718 41.2864C11.5869 41.2864 11.5119 41.3813 11.5119 41.5242C11.5119 41.6715 11.5968 41.752 11.7189 41.752C11.8337 41.752 11.9033 41.6887 11.9033 41.5829V41.5802H11.7035V41.4781H12.0109V41.8496H11.9132L11.906 41.7737C11.8698 41.8243 11.7948 41.8596 11.7053 41.8596C11.52 41.8596 11.3907 41.7249 11.3907 41.5215C11.3907 41.3208 11.5218 41.1779 11.7207 41.1779C11.8717 41.1779 11.9883 41.2656 12.0073 41.4003H11.8852C11.8644 41.3226 11.7975 41.2864 11.718 41.2864ZM12.1928 41.8496H12.0725L12.3112 41.1888H12.4296L12.6683 41.8496H12.5462L12.4929 41.6968H12.2461L12.1928 41.8496ZM12.3555 41.3859L12.2805 41.5992H12.4595L12.3835 41.3859C12.3781 41.3687 12.3718 41.3488 12.37 41.3352C12.3673 41.3479 12.3618 41.3678 12.3555 41.3859ZM12.8632 41.8496H12.7512V41.1888H12.8632L13.0766 41.7149L13.2899 41.1888H13.4038V41.8496H13.2917V41.6462C13.2917 41.5133 13.2917 41.4744 13.2981 41.4274L13.1299 41.8496H13.0233L12.856 41.4283C12.8623 41.4681 12.8632 41.5305 12.8632 41.6128V41.8496ZM13.9605 41.8496H13.5501V41.1888H13.9605V41.2955H13.6658V41.4654H13.9298V41.5676H13.6658V41.7429H13.9605V41.8496ZM14.9326 41.5187C14.9326 41.7194 14.8006 41.8605 14.6108 41.8605C14.4218 41.8605 14.2917 41.7203 14.2917 41.5187C14.2917 41.3181 14.4227 41.177 14.6117 41.177C14.8006 41.177 14.9326 41.3172 14.9326 41.5187ZM14.8106 41.5187C14.8106 41.3777 14.7328 41.2882 14.6117 41.2882C14.4905 41.2882 14.4128 41.3777 14.4128 41.5187C14.4128 41.6598 14.4905 41.7493 14.6117 41.7493C14.7328 41.7493 14.8106 41.658 14.8106 41.5187ZM15.4019 41.5793H15.156V41.8496H15.0403V41.1888H15.4489V41.2955H15.156V41.4754H15.4019V41.5793ZM16.0581 41.6218H15.9126V41.8496H15.7969V41.1888H16.0581C16.191 41.1888 16.2769 41.2756 16.2769 41.4048C16.2769 41.5323 16.1901 41.6218 16.0581 41.6218ZM16.0355 41.2918H15.9126V41.5187H16.0337C16.1133 41.5187 16.1558 41.4763 16.1558 41.4039C16.1558 41.3316 16.1124 41.2918 16.0355 41.2918ZM16.9772 41.5187C16.9772 41.7194 16.8452 41.8605 16.6554 41.8605C16.4664 41.8605 16.3363 41.7203 16.3363 41.5187C16.3363 41.3181 16.4673 41.177 16.6563 41.177C16.8452 41.177 16.9772 41.3172 16.9772 41.5187ZM16.8552 41.5187C16.8552 41.3777 16.7774 41.2882 16.6563 41.2882C16.5351 41.2882 16.4574 41.3777 16.4574 41.5187C16.4574 41.6598 16.5351 41.7493 16.6563 41.7493C16.7774 41.7493 16.8552 41.658 16.8552 41.5187ZM17.6879 41.5187C17.6879 41.7194 17.5559 41.8605 17.366 41.8605C17.1771 41.8605 17.0469 41.7203 17.0469 41.5187C17.0469 41.3181 17.178 41.177 17.3669 41.177C17.5559 41.177 17.6879 41.3172 17.6879 41.5187ZM17.5658 41.5187C17.5658 41.3777 17.4881 41.2882 17.3669 41.2882C17.2458 41.2882 17.1681 41.3777 17.1681 41.5187C17.1681 41.6598 17.2458 41.7493 17.3669 41.7493C17.4881 41.7493 17.5658 41.658 17.5658 41.5187ZM17.9113 41.8496H17.7956V41.1888H18.0478C18.1978 41.1888 18.2855 41.2647 18.2855 41.3949C18.2855 41.4835 18.2439 41.5468 18.1662 41.5784L18.2919 41.8496H18.1653L18.0532 41.6028H17.9113V41.8496ZM17.9113 41.2918V41.5007H18.0478C18.121 41.5007 18.1644 41.4618 18.1644 41.3949C18.1644 41.3289 18.121 41.2918 18.0478 41.2918H17.9113ZM18.8826 41.8496H18.6448V41.1888H18.8762C19.0715 41.1888 19.2062 41.3235 19.2062 41.5206C19.2062 41.7149 19.0742 41.8496 18.8826 41.8496ZM18.8654 41.2955H18.7605V41.7429H18.8717C19.0037 41.7429 19.0842 41.658 19.0842 41.5206C19.0842 41.3804 19.0019 41.2955 18.8654 41.2955ZM19.7244 41.8496H19.314V41.1888H19.7244V41.2955H19.4297V41.4654H19.6937V41.5676H19.4297V41.7429H19.7244V41.8496ZM20.1292 41.8605C19.9367 41.8605 19.8119 41.7267 19.8119 41.5196C19.8119 41.3144 19.9412 41.1779 20.1346 41.1779C20.291 41.1779 20.4076 41.2692 20.4302 41.4112H20.3082C20.2856 41.3343 20.2196 41.2891 20.1319 41.2891C20.0099 41.2891 19.933 41.3777 19.933 41.5187C19.933 41.6589 20.0108 41.7493 20.1319 41.7493C20.2214 41.7493 20.2901 41.7023 20.3118 41.629H20.432C20.4067 41.7682 20.2856 41.8605 20.1292 41.8605ZM20.6515 41.1888V41.8496H20.5358V41.1888H20.6515ZM20.76 41.3732C20.76 41.2575 20.8559 41.177 20.9951 41.177C21.1289 41.177 21.2139 41.2512 21.2175 41.3705H21.1018C21.099 41.3135 21.0584 41.2801 20.9933 41.2801C20.9219 41.2801 20.8758 41.3144 20.8758 41.3696C20.8758 41.4166 20.9011 41.4428 20.9562 41.4555L21.0602 41.4781C21.1732 41.5025 21.2283 41.5603 21.2283 41.6589C21.2283 41.7818 21.1325 41.8614 20.9869 41.8614C20.8459 41.8614 20.7537 41.7863 20.751 41.6679H20.8667C20.8676 41.724 20.9128 41.7574 20.9869 41.7574C21.0638 41.7574 21.1126 41.724 21.1126 41.6688C21.1126 41.6245 21.09 41.5983 21.0358 41.5865L20.9309 41.563C20.8188 41.5386 20.76 41.4744 20.76 41.3732ZM21.4487 41.1888V41.8496H21.333V41.1888H21.4487ZM22.1982 41.5187C22.1982 41.7194 22.0662 41.8605 21.8763 41.8605C21.6874 41.8605 21.5572 41.7203 21.5572 41.5187C21.5572 41.3181 21.6883 41.177 21.8772 41.177C22.0662 41.177 22.1982 41.3172 22.1982 41.5187ZM22.0761 41.5187C22.0761 41.3777 21.9984 41.2882 21.8772 41.2882C21.7561 41.2882 21.6784 41.3777 21.6784 41.5187C21.6784 41.6598 21.7561 41.7493 21.8772 41.7493C21.9984 41.7493 22.0761 41.658 22.0761 41.5187ZM22.4198 41.8496H22.3059V41.1888H22.4207L22.7307 41.6571V41.1888H22.8446V41.8496H22.7307L22.4198 41.3813V41.8496ZM22.9459 41.3732C22.9459 41.2575 23.0417 41.177 23.1809 41.177C23.3147 41.177 23.3997 41.2512 23.4033 41.3705H23.2876C23.2849 41.3135 23.2442 41.2801 23.1791 41.2801C23.1077 41.2801 23.0616 41.3144 23.0616 41.3696C23.0616 41.4166 23.0869 41.4428 23.1421 41.4555L23.246 41.4781C23.359 41.5025 23.4142 41.5603 23.4142 41.6589C23.4142 41.7818 23.3183 41.8614 23.1728 41.8614C23.0318 41.8614 22.9396 41.7863 22.9369 41.6679H23.0526C23.0535 41.724 23.0987 41.7574 23.1728 41.7574C23.2496 41.7574 23.2985 41.724 23.2985 41.6688C23.2985 41.6245 23.2759 41.5983 23.2216 41.5865L23.1167 41.563C23.0047 41.5386 22.9459 41.4744 22.9459 41.3732Z" fill="#FEFEFE"/>
</svg>
