<svg width="35" height="44" viewBox="0 0 35 44" fill="none" xmlns="http://www.w3.org/2000/svg">
<g clip-path="url(#clip0_1091_641)">
<rect x="0.03125" y="0.03125" width="34.7476" height="43.5051" rx="1.13" fill="black"/>
<path d="M14.2502 9.10144C14.2502 9.24416 14.2288 9.3707 14.1861 9.48105C14.1435 9.5914 14.0846 9.68778 14.0096 9.77017C13.936 9.85257 13.8492 9.92246 13.7492 9.97984C13.6491 10.0372 13.5417 10.0843 13.4269 10.1211C13.3136 10.1564 13.1959 10.1829 13.0738 10.2005C12.9517 10.2167 12.8318 10.2256 12.7141 10.227V11.2555H11.6856C11.6856 10.9186 11.6863 10.5831 11.6878 10.2491C11.6893 9.9151 11.6915 9.57816 11.6944 9.23827C11.6973 9.05877 11.6981 8.87926 11.6966 8.69976C11.6951 8.52025 11.6988 8.33927 11.7076 8.15683C11.896 8.10091 12.0843 8.05898 12.2726 8.03103C12.461 8.00307 12.6552 7.98909 12.8553 7.98909C12.9686 7.98909 13.0819 7.99866 13.1952 8.01778C13.3085 8.03544 13.4166 8.06413 13.5196 8.10386C13.6241 8.14358 13.7205 8.19361 13.8087 8.25394C13.8985 8.31279 13.9757 8.38342 14.0405 8.46581C14.1052 8.54821 14.156 8.64237 14.1928 8.74831C14.231 8.85278 14.2502 8.97049 14.2502 9.10144ZM13.2702 9.17648C13.2702 9.08084 13.2408 9.00654 13.1819 8.95357C13.1246 8.89913 13.0495 8.87191 12.9568 8.87191C12.9259 8.87191 12.8936 8.87485 12.8597 8.88073C12.8273 8.88515 12.7964 8.89103 12.767 8.89839L12.7405 9.54285C12.7611 9.54579 12.781 9.54726 12.8001 9.54726C12.8193 9.54726 12.8391 9.54726 12.8597 9.54726C12.9127 9.54726 12.9634 9.53843 13.012 9.52078C13.062 9.50312 13.1062 9.47811 13.1444 9.44574C13.1827 9.4119 13.2128 9.3729 13.2349 9.32876C13.2585 9.28315 13.2702 9.23239 13.2702 9.17648ZM17.0112 8.77038C17.0112 8.87926 17.006 8.99918 16.9957 9.13013C16.9854 9.26108 16.9685 9.39645 16.9449 9.53623C16.9214 9.676 16.8905 9.81799 16.8522 9.96218C16.8155 10.1049 16.7691 10.2425 16.7132 10.3749C16.6573 10.5073 16.5918 10.6317 16.5168 10.7479C16.4432 10.8627 16.3579 10.9634 16.2608 11.0503C16.1651 11.1356 16.0577 11.2025 15.9385 11.2511C15.8194 11.3011 15.6869 11.3261 15.5413 11.3261C15.3706 11.3261 15.222 11.2982 15.0954 11.2423C14.9704 11.1878 14.863 11.1143 14.7732 11.0216C14.6835 10.9274 14.6099 10.8185 14.5525 10.6949C14.4951 10.5699 14.4503 10.4382 14.4179 10.2999C14.3855 10.1601 14.3627 10.0181 14.3495 9.8739C14.3377 9.72824 14.3318 9.58846 14.3318 9.45456C14.3318 9.24857 14.3421 9.04332 14.3627 8.8388C14.3833 8.63281 14.4127 8.42756 14.451 8.22304L15.4839 8.26276C15.4442 8.49377 15.4096 8.72624 15.3802 8.96019C15.3522 9.19266 15.3382 9.42661 15.3382 9.66203C15.3382 9.68704 15.339 9.72456 15.3404 9.77459C15.3434 9.82314 15.3478 9.87832 15.3537 9.94011C15.3596 10.0004 15.3676 10.063 15.3779 10.1277C15.3897 10.191 15.4052 10.2491 15.4243 10.3021C15.4434 10.355 15.4662 10.3984 15.4927 10.4323C15.5207 10.4661 15.553 10.483 15.5898 10.483C15.6325 10.483 15.6707 10.4632 15.7046 10.4235C15.7384 10.3823 15.7679 10.3278 15.7929 10.2601C15.8194 10.1925 15.8422 10.1145 15.8613 10.0262C15.8804 9.93791 15.8966 9.84595 15.9098 9.75031C15.9231 9.65467 15.9334 9.55903 15.9407 9.46339C15.9496 9.36775 15.9562 9.27874 15.9606 9.19634C15.9665 9.11395 15.9702 9.04111 15.9716 8.97784C15.9731 8.91458 15.9738 8.86749 15.9738 8.83659C15.9738 8.72183 15.9716 8.6078 15.9672 8.4945C15.9643 8.37974 15.9591 8.26571 15.9518 8.15241H16.9847C17.0023 8.35546 17.0112 8.56145 17.0112 8.77038ZM19.5206 8.06854L19.4985 9.00433L18.8408 9.03081L18.6731 11.1231L17.7417 11.1716L17.7461 9.07937L17.0884 9.11468L17.1149 8.07296L19.5206 8.06854ZM23.3078 11.0348L22.2131 11.1761L22.0807 10.6773H21.5775L21.4672 11.1761L20.3416 11.0657L21.22 8.12593L22.4471 8.06413L23.3078 11.0348ZM22.0013 10.0019L21.8335 9.23386L21.6702 10.0019H22.0013ZM12.3698 13.0421C12.3609 13.1804 12.3528 13.3172 12.3455 13.4526C12.3381 13.5879 12.3286 13.7248 12.3168 13.8631L11.381 13.9116V14.1897H12.1932L12.1491 14.8739L11.3766 14.896L11.381 16.2025L10.2642 16.2246L10.3349 13.0421H12.3698ZM13.6741 13.1171L13.4313 16.1231L12.5 16.1716V13.1789L13.6741 13.1171ZM16.8302 13.0597L16.6713 16.0525L15.5148 16.1584L14.8968 14.5561L14.7997 16.1893H13.8065L13.886 13.0597L14.9895 13.0067L15.7531 14.5958L15.7885 13.095L16.8302 13.0597ZM19.6751 15.7744C19.6059 15.8612 19.5206 15.937 19.419 16.0017C19.3175 16.0664 19.2086 16.1201 19.0924 16.1628C18.9762 16.2055 18.857 16.2371 18.7349 16.2577C18.6127 16.2798 18.4965 16.2908 18.3861 16.2908C18.1728 16.2908 17.9764 16.2526 17.7969 16.1761C17.6174 16.0995 17.4621 15.9943 17.3312 15.8604C17.2017 15.7251 17.1002 15.5662 17.0266 15.3837C16.953 15.2013 16.9163 15.0049 16.9163 14.7944C16.9163 14.6341 16.9346 14.4774 16.9714 14.3243C17.0082 14.1699 17.0604 14.0249 17.1281 13.8896C17.1973 13.7527 17.2812 13.6277 17.3797 13.5144C17.4783 13.3996 17.5901 13.301 17.7152 13.2186C17.8403 13.1362 17.9771 13.0722 18.1257 13.0266C18.2743 12.981 18.4332 12.9582 18.6024 12.9582C18.6657 12.9582 18.7334 12.9611 18.8055 12.967C18.8776 12.9714 18.9489 12.9803 19.0196 12.9935C19.0917 13.0053 19.1615 13.0222 19.2292 13.0443C19.2969 13.0663 19.3587 13.0936 19.4146 13.1259L19.3528 13.969C19.2704 13.9381 19.1851 13.9175 19.0968 13.9072C19.01 13.8954 18.9247 13.8896 18.8408 13.8896C18.7231 13.8896 18.6127 13.908 18.5097 13.9447C18.4082 13.9801 18.3192 14.0315 18.2427 14.0992C18.1676 14.1669 18.1081 14.2493 18.0639 14.3464C18.0198 14.4435 17.9977 14.5531 17.9977 14.6753C17.9977 14.7518 18.008 14.8261 18.0286 14.8982C18.0492 14.9688 18.0801 15.0321 18.1213 15.088C18.164 15.1424 18.2162 15.1866 18.278 15.2204C18.3413 15.2542 18.4141 15.2712 18.4965 15.2712C18.5524 15.2712 18.6098 15.2638 18.6686 15.2491C18.729 15.2344 18.7805 15.2094 18.8231 15.1741L18.832 15.0019L18.3023 14.9931L18.3288 14.331C18.548 14.3236 18.7672 14.3177 18.9865 14.3133C19.2057 14.3074 19.4264 14.3001 19.6486 14.2912L19.6751 15.7744ZM21.9351 13.0421C21.9262 13.1804 21.9181 13.3172 21.9108 13.4526C21.9034 13.5879 21.8939 13.7248 21.8821 13.8631L20.9463 13.9116L20.9242 14.1897H21.5819L21.5334 14.8739L20.8713 14.896L20.8492 15.2182H21.3965H21.785C21.7762 15.38 21.7666 15.5412 21.7563 15.7015C21.7475 15.8604 21.7394 16.0201 21.732 16.1805L19.8295 16.2246L19.9002 13.0421H21.9351ZM24.599 14.097C24.599 14.2118 24.5887 14.3163 24.5681 14.4104C24.5489 14.5031 24.518 14.5885 24.4754 14.6664C24.4327 14.7444 24.3775 14.8165 24.3098 14.8827C24.2421 14.9489 24.1605 15.0122 24.0649 15.0725L24.5901 16.0083L23.597 16.2025L23.2571 15.2623L22.9834 15.2712L22.9437 16.1893H21.9946C22.002 15.8538 22.0086 15.5198 22.0145 15.1873C22.0219 14.8548 22.03 14.5208 22.0388 14.1853C22.0417 14.0161 22.0447 13.8484 22.0476 13.6821C22.0506 13.5158 22.0564 13.3481 22.0653 13.1789C22.1683 13.1406 22.2698 13.109 22.3698 13.084C22.4699 13.059 22.5699 13.0399 22.67 13.0266C22.7715 13.0119 22.8738 13.0023 22.9768 12.9979C23.0812 12.992 23.1879 12.9891 23.2968 12.9891C23.4645 12.9891 23.6264 13.0126 23.7823 13.0597C23.9398 13.1053 24.0788 13.1745 24.1995 13.2672C24.3201 13.3599 24.4165 13.4754 24.4886 13.6137C24.5622 13.752 24.599 13.9131 24.599 14.097ZM23.6102 14.1676C23.6102 14.1059 23.6014 14.0492 23.5837 13.9977C23.5675 13.9462 23.5425 13.9021 23.5087 13.8653C23.4763 13.827 23.4351 13.7976 23.3851 13.777C23.3365 13.7549 23.2791 13.7439 23.2129 13.7439C23.1835 13.7439 23.1548 13.7461 23.1269 13.7505C23.0989 13.7535 23.0717 13.7586 23.0452 13.766L23.0099 14.587H23.0629C23.1261 14.587 23.1901 14.5789 23.2549 14.5627C23.3211 14.5465 23.3799 14.5215 23.4314 14.4877C23.4844 14.4538 23.5271 14.4104 23.5594 14.3575C23.5933 14.3045 23.6102 14.2412 23.6102 14.1676ZM13.6631 19.4722C13.6631 19.6782 13.6366 19.8643 13.5836 20.0306C13.5307 20.1954 13.4564 20.3425 13.3607 20.472C13.2665 20.6 13.154 20.7104 13.023 20.8031C12.8921 20.8958 12.7486 20.9723 12.5927 21.0326C12.4367 21.0915 12.2704 21.1356 12.0939 21.165C11.9188 21.193 11.7385 21.207 11.5532 21.207C11.484 21.207 11.4163 21.2055 11.3501 21.2025C11.2839 21.1981 11.2162 21.1922 11.1471 21.1849L11.2089 18.223C11.3707 18.1715 11.537 18.1355 11.7076 18.1149C11.8798 18.0928 12.0505 18.0818 12.2197 18.0818C12.4301 18.0818 12.6236 18.1134 12.8001 18.1767C12.9767 18.24 13.129 18.3312 13.257 18.4504C13.385 18.5695 13.4843 18.7152 13.5549 18.8874C13.627 19.0595 13.6631 19.2545 13.6631 19.4722ZM12.7582 19.6135C12.7597 19.534 12.7508 19.4575 12.7317 19.3839C12.7141 19.3104 12.6839 19.2456 12.6412 19.1897C12.6 19.1323 12.5471 19.0867 12.4823 19.0529C12.4176 19.0176 12.3403 18.9984 12.2506 18.9955L12.1623 20.3639C12.2506 20.3506 12.3308 20.3219 12.4029 20.2778C12.475 20.2322 12.5368 20.177 12.5883 20.1123C12.6412 20.0461 12.6817 19.9732 12.7096 19.8938C12.7391 19.8128 12.7553 19.7297 12.7582 19.6444V19.6135ZM16.5256 19.6664C16.5256 19.8003 16.5102 19.9298 16.4793 20.0549C16.4484 20.1785 16.4035 20.2947 16.3446 20.4036C16.2872 20.5125 16.2166 20.6125 16.1328 20.7037C16.0504 20.7935 15.9569 20.8707 15.8525 20.9355C15.7495 21.0002 15.6369 21.051 15.5148 21.0878C15.3927 21.1231 15.2632 21.1407 15.1263 21.1407C14.9939 21.1407 14.8674 21.1238 14.7467 21.09C14.6276 21.0561 14.5157 21.0091 14.4113 20.9487C14.3068 20.8869 14.2119 20.8134 14.1266 20.728C14.0427 20.6412 13.9706 20.5456 13.9103 20.4411C13.8514 20.3352 13.8051 20.2219 13.7712 20.1012C13.7389 19.9806 13.7227 19.8548 13.7227 19.7238C13.7227 19.5958 13.7381 19.4707 13.769 19.3486C13.7999 19.225 13.8441 19.1088 13.9014 18.9999C13.9603 18.891 14.0309 18.791 14.1133 18.6998C14.1957 18.6085 14.2877 18.5298 14.3892 18.4636C14.4922 18.3974 14.6033 18.3459 14.7225 18.3091C14.8416 18.2723 14.9674 18.2539 15.0999 18.2539C15.3132 18.2539 15.5074 18.287 15.6825 18.3533C15.8591 18.4195 16.0092 18.5144 16.1328 18.638C16.2578 18.7601 16.3542 18.9087 16.4219 19.0838C16.491 19.2574 16.5256 19.4516 16.5256 19.6664ZM15.5457 19.7238C15.5457 19.6606 15.5361 19.5995 15.517 19.5406C15.4993 19.4803 15.4729 19.4273 15.4375 19.3817C15.4022 19.3346 15.3581 19.2971 15.3051 19.2692C15.2536 19.2397 15.194 19.225 15.1263 19.225C15.0572 19.225 14.9954 19.2375 14.941 19.2626C14.8865 19.2876 14.8394 19.3221 14.7997 19.3663C14.7614 19.409 14.732 19.4597 14.7114 19.5186C14.6908 19.576 14.6805 19.637 14.6805 19.7018C14.6805 19.7636 14.6894 19.8253 14.707 19.8871C14.7247 19.9489 14.7511 20.0049 14.7865 20.0549C14.8218 20.1049 14.8652 20.1454 14.9167 20.1763C14.9696 20.2072 15.0307 20.2226 15.0999 20.2226C15.169 20.2226 15.2308 20.2094 15.2853 20.1829C15.3412 20.1549 15.3882 20.1181 15.4265 20.0725C15.4648 20.0255 15.4942 19.9717 15.5148 19.9114C15.5354 19.8511 15.5457 19.7886 15.5457 19.7238ZM20.5866 18.1612L20.0701 21.2202L18.8165 21.2467L18.5473 19.662L18.278 21.1319L17.0244 21.1761L16.5035 18.1612L17.5982 18.0641L17.8189 19.896L18.1147 18.0641H18.9754L19.3197 19.918L19.4963 18.0641L20.5866 18.1612ZM23.6897 18.0597L23.5307 21.0525L22.3743 21.1584L21.7563 19.5561L21.6592 21.1893H20.666L20.7455 18.0597L21.849 18.0067L22.6126 19.5958L22.6479 18.095L23.6897 18.0597Z" fill="#ED8251"/>
<path d="M4.86706 43.6881C4.86706 43.6881 2.39157 42.3558 2.01121 42.1749C1.63085 41.9941 2.23653 41.3342 3.0186 41.5393C3.80074 41.7443 4.13601 41.5814 4.13601 41.5814C4.13601 41.5814 4.20483 37.2578 4.35529 36.9654C4.50569 36.673 4.94469 36.874 5.16561 37.2786C5.38653 37.6831 5.63473 39.7995 5.63473 39.7995C5.63473 39.7995 6.78287 36.5874 6.94836 36.2621C7.48161 35.2138 7.89655 36.4489 7.76648 37.0026C7.68552 37.3475 7.17052 39.3113 7.05842 39.6827C7.05842 39.6827 8.65806 37.1419 8.71778 37.0641C8.7775 36.9864 9.13204 36.8977 9.16424 37.7165C9.19645 38.5353 8.22058 40.2551 8.22058 40.2551C8.22058 40.2551 9.91196 38.9702 9.98976 39.0299C10.0675 39.0896 10.3432 39.401 10.0931 39.8394C9.84298 40.2778 8.48494 41.1504 8.52839 41.6411C8.57184 42.1319 8.648 43.1918 7.063 43.7425C5.47794 44.2932 4.86706 43.6881 4.86706 43.6881Z" fill="#FFB08C"/>
<path d="M7.7332 42.9663L7.73241 43.9507C7.73224 44.1948 7.49669 44.3852 7.20628 44.3761L5.39844 44.3197C5.10809 44.3106 4.87288 44.1054 4.87305 43.8614L4.87384 42.877L7.7332 42.9663Z" fill="#FFB08C"/>
<path d="M5.07792 37.9897C5.08335 38.0101 4.99561 38.0512 4.88195 38.0816C4.76828 38.112 4.67168 38.1201 4.66625 38.0998C4.66083 38.0794 4.74856 38.0383 4.86223 38.0079C4.97589 37.9776 5.07244 37.9693 5.07792 37.9897Z" fill="#FF8F53"/>
<path d="M5.2071 39.3972C5.20784 39.4183 5.1192 39.4384 5.00915 39.4422C4.8991 39.4459 4.80933 39.4318 4.8086 39.4107C4.80786 39.3897 4.8965 39.3696 5.00655 39.3658C5.1166 39.3621 5.20643 39.3762 5.2071 39.3972Z" fill="#FF8F53"/>
<path d="M7.42289 37.3188C7.41108 37.3367 7.33233 37.3051 7.23759 37.2672C7.14313 37.2287 7.06455 37.1967 7.0685 37.1756C7.07201 37.1552 7.16375 37.1548 7.26617 37.1964C7.36882 37.2376 7.43452 37.3016 7.42289 37.3188Z" fill="#FF8F53"/>
<path d="M6.93295 38.5033C6.92747 38.5237 6.86516 38.5247 6.7937 38.5055C6.72223 38.4863 6.66873 38.4543 6.67421 38.4339C6.67969 38.4135 6.74201 38.4126 6.81347 38.4317C6.88493 38.4509 6.93843 38.4829 6.93295 38.5033Z" fill="#FF8F53"/>
<path d="M8.82512 38.2292C8.81229 38.2459 8.75902 38.2265 8.70614 38.186C8.65326 38.1453 8.62084 38.0989 8.63366 38.0822C8.64648 38.0655 8.69976 38.0848 8.75264 38.1254C8.80551 38.166 8.838 38.2125 8.82512 38.2292Z" fill="#FF8F53"/>
<path d="M8.24763 39.3478C8.2361 39.3655 8.16774 39.3412 8.09498 39.2937C8.02222 39.2462 7.97256 39.1933 7.98408 39.1757C7.99561 39.158 8.06396 39.1823 8.13673 39.2298C8.20955 39.2773 8.25921 39.3302 8.24763 39.3478Z" fill="#FF8F53"/>
<path d="M9.70304 40.0243C9.68626 40.0371 9.6296 39.9908 9.57644 39.9211C9.52328 39.8514 9.49379 39.7845 9.51057 39.7717C9.52735 39.7589 9.58401 39.8051 9.63717 39.8748C9.69033 39.9446 9.71982 40.0115 9.70304 40.0243Z" fill="#FF8F53"/>
<path d="M8.88875 40.6124C8.874 40.6269 8.82356 40.5987 8.79424 40.5382C8.7648 40.4778 8.77378 40.4207 8.79435 40.4181C8.81553 40.415 8.83892 40.4564 8.86288 40.5048C8.88626 40.5537 8.90429 40.5976 8.88875 40.6124Z" fill="#FF8F53"/>
<path d="M2.75725 41.929C2.75217 41.946 2.63822 41.922 2.4993 41.9364C2.36021 41.9488 2.25299 41.9941 2.24469 41.9784C2.23565 41.9653 2.33999 41.89 2.49343 41.8758C2.64681 41.8604 2.76363 41.9143 2.75725 41.929Z" fill="white"/>
<path d="M4.38082 38.2369C4.36404 38.2362 4.3602 38.0068 4.37229 37.7246C4.38438 37.4423 4.40782 37.2141 4.4246 37.2148C4.44144 37.2156 4.44522 37.4449 4.43313 37.7272C4.42104 38.0094 4.39765 38.2377 4.38082 38.2369Z" fill="white"/>
<path d="M6.81911 37.2358C6.80324 37.2302 6.85883 37.0283 6.94334 36.7847C7.02786 36.5411 7.10926 36.3481 7.12514 36.3536C7.14101 36.3592 7.08542 36.5611 7.00091 36.8047C6.91639 37.0483 6.83499 37.2413 6.81911 37.2358Z" fill="white"/>
<path d="M8.63938 37.4085C8.65424 37.4165 8.5821 37.5799 8.47838 37.7736C8.3746 37.9672 8.2785 38.1178 8.26365 38.1099C8.24884 38.1019 8.32093 37.9385 8.42465 37.7448C8.52843 37.5511 8.62453 37.4005 8.63938 37.4085Z" fill="white"/>
<path d="M9.77941 39.2118C9.79184 39.2226 9.70456 39.3429 9.57095 39.467C9.43763 39.5914 9.31131 39.6699 9.30148 39.6566C9.29108 39.643 9.39865 39.5445 9.52943 39.4224C9.66055 39.3007 9.76653 39.2005 9.77941 39.2118Z" fill="white"/>
<path d="M5.94146 41.48C5.93728 41.4903 5.84123 41.4552 5.68201 41.42C5.60251 41.402 5.50663 41.3869 5.39979 41.3764C5.29278 41.3677 5.17464 41.3647 5.05102 41.3725C4.92751 41.3817 4.81089 41.4008 4.70608 41.4241C4.60167 41.4491 4.50873 41.4771 4.43251 41.5059C4.27956 41.5625 4.18927 41.6104 4.18374 41.6008C4.17967 41.5944 4.26216 41.5311 4.41437 41.4615C4.49019 41.4262 4.58427 41.3925 4.69111 41.3633C4.7984 41.3359 4.91875 41.3142 5.04644 41.3047C5.17424 41.2966 5.2964 41.3017 5.40646 41.3142C5.51635 41.3284 5.6141 41.349 5.69404 41.3735C5.85428 41.4217 5.94462 41.4732 5.94146 41.48Z" fill="#2E2842"/>
<path d="M5.42383 38.3262C5.43343 38.3253 5.45157 38.433 5.47711 38.6073C5.50168 38.7819 5.53564 39.0228 5.57316 39.2889C5.60932 39.5556 5.63638 39.7981 5.6496 39.9743C5.66293 40.1505 5.66423 40.26 5.65514 40.2608C5.64553 40.2617 5.62734 40.154 5.60186 39.9797C5.57728 39.8051 5.54332 39.5642 5.50581 39.298C5.46965 39.0314 5.44258 38.7889 5.42936 38.6127C5.41597 38.4365 5.41473 38.327 5.42383 38.3262Z" fill="#2E2842"/>
<path d="M7.42402 38.4239C7.44216 38.4287 7.34803 38.841 7.21373 39.3447C7.07943 39.8484 6.95592 40.2527 6.93778 40.2479C6.91965 40.243 7.01378 39.8308 7.14808 39.3271C7.28232 38.8234 7.40589 38.4191 7.42402 38.4239Z" fill="#2E2842"/>
<path d="M8.68034 39.2501C8.69735 39.2581 8.56485 39.5779 8.38439 39.9643C8.20393 40.3508 8.04387 40.6576 8.02686 40.6497C8.00985 40.6417 8.14235 40.322 8.32281 39.9356C8.50327 39.5491 8.66328 39.2422 8.68034 39.2501Z" fill="#2E2842"/>
<path d="M8.20674 40.9568C8.19945 40.9671 8.04696 40.8557 7.77807 40.7176C7.74428 40.7007 7.70891 40.6831 7.67202 40.6647C7.63507 40.6464 7.59501 40.6308 7.55456 40.6127C7.47404 40.5752 7.38443 40.544 7.2911 40.509C7.10233 40.4449 6.89057 40.3866 6.66389 40.3466C6.43681 40.309 6.21776 40.2934 6.01843 40.2911C5.91876 40.2932 5.82384 40.2927 5.73548 40.3013C5.69129 40.3049 5.6483 40.3063 5.60739 40.3112C5.56648 40.3163 5.52722 40.3212 5.48976 40.3259C5.19019 40.3668 5.00934 40.4211 5.00589 40.409C5.00453 40.4045 5.04872 40.388 5.13019 40.362C5.17076 40.3484 5.22093 40.3333 5.28031 40.3206C5.33958 40.3072 5.40659 40.289 5.48247 40.2785C5.52027 40.2724 5.55987 40.2659 5.60118 40.2592C5.64253 40.2528 5.68598 40.2501 5.73079 40.2452C5.82034 40.2341 5.91673 40.2323 6.01809 40.2286C6.22081 40.2274 6.44416 40.2413 6.67536 40.2797C6.90616 40.3204 7.12137 40.3815 7.31223 40.4501C7.40658 40.4873 7.49687 40.521 7.57766 40.5613C7.61829 40.5808 7.65835 40.5979 7.69524 40.6176C7.73197 40.6377 7.76717 40.6569 7.80078 40.6753C7.86881 40.7105 7.92599 40.7499 7.97746 40.7822C8.02921 40.814 8.07153 40.8449 8.10526 40.8712C8.17335 40.9228 8.20951 40.953 8.20674 40.9568Z" fill="#2E2842"/>
<path d="M5.63983 43.8466C5.64096 43.8504 5.61565 43.864 5.56491 43.8747C5.51446 43.8846 5.43795 43.8883 5.34716 43.8709C5.25625 43.8545 5.15263 43.818 5.04319 43.7703C4.93397 43.7228 4.81515 43.6685 4.6917 43.6084C4.44474 43.4886 4.22665 43.3692 4.07201 43.2773C3.91725 43.1856 3.82567 43.1221 3.83024 43.1142C3.83504 43.1058 3.93499 43.1546 4.09511 43.2352C4.25512 43.316 4.47564 43.4281 4.72142 43.5473C4.84465 43.6061 4.96205 43.6621 5.06884 43.7132C5.1754 43.7633 5.27275 43.8027 5.3575 43.824C5.52785 43.8697 5.63768 43.8354 5.63983 43.8466Z" fill="#2E2842"/>
<path d="M19.447 40.7362C19.447 40.7362 18.5167 40.9004 18.389 40.262C18.6809 38.6021 19.6111 39.0216 19.898 39.1858C20.1849 39.35 19.8665 40.4444 19.2281 41.8672C18.5897 43.2899 17.8965 43.4723 17.8418 43.5453" fill="#FFB08C"/>
<path d="M18.8472 39.5596C18.8472 39.5596 19.3856 38.8296 18.333 38.1896C17.2804 37.5495 16.48 37.5463 15.8096 38.3481C15.3874 38.8531 14.7146 40.1022 14.782 41.1261C14.8494 42.1499 15.2091 43.6525 15.5797 43.9725C15.9502 44.2925 17.3216 44.1232 18.03 43.4294C18.7385 42.7356 19.7399 40.8228 19.7062 40.2334C19.6725 39.6439 18.8472 39.5596 18.8472 39.5596Z" fill="#FFB08C"/>
<path d="M17.2329 38.4803C17.202 38.3675 18.5511 35.2611 18.7177 35.1444C18.8842 35.0276 19.3242 35.3235 19.3482 35.8838C19.3721 36.444 18.7538 39.0458 18.7538 39.0458L17.5538 38.8275L17.2329 38.4803Z" fill="#FFB08C"/>
<path d="M17.9552 42.9886L17.9546 43.9453C17.9545 44.1824 17.7256 44.3676 17.4434 44.3588L15.6865 44.3043C15.4043 44.2955 15.1757 44.0962 15.1758 43.8591L15.1763 42.9023L17.9552 42.9886Z" fill="#FFB08C"/>
<path d="M19.0992 40.3721C18.8594 40.2844 18.7133 40.0194 18.7797 39.809C18.8461 39.5985 19.0141 39.644 19.254 39.7317C19.4938 39.8194 19.7147 39.9159 19.6483 40.1264C19.5819 40.3369 19.3391 40.4598 19.0992 40.3721Z" fill="#FFEBE8"/>
<path d="M17.0502 39.7304C17.0677 39.7469 17.034 39.811 16.975 39.8736C16.9161 39.9363 16.8541 39.9738 16.8366 39.9574C16.8192 39.9409 16.8529 39.8768 16.9118 39.8142C16.9708 39.7515 17.0328 39.714 17.0502 39.7304Z" fill="#FF8F53"/>
<path d="M17.6511 39.1905C17.6661 39.2092 17.6334 39.2603 17.5781 39.3045C17.5228 39.3487 17.4659 39.3694 17.4509 39.3507C17.4359 39.332 17.4686 39.281 17.5239 39.2367C17.5792 39.1925 17.6361 39.1718 17.6511 39.1905Z" fill="#FF8F53"/>
<path d="M18.3324 38.5494C18.3438 38.5709 18.3097 38.6109 18.2661 38.6517C18.222 38.6919 18.1795 38.7226 18.1589 38.7096C18.1388 38.6972 18.154 38.6368 18.2072 38.5878C18.2602 38.5387 18.3217 38.5283 18.3324 38.5494Z" fill="#FF8F53"/>
<path d="M17.7152 40.5516C17.7198 40.5554 17.7117 40.5717 17.6917 40.5989C17.6865 40.6056 17.6808 40.6132 17.6746 40.6213C17.6674 40.6286 17.6587 40.6354 17.6495 40.6433C17.631 40.6587 17.61 40.6773 17.5821 40.6898C17.5685 40.6968 17.5543 40.7046 17.5391 40.7116C17.5232 40.7167 17.5067 40.722 17.4897 40.7275C17.4726 40.7336 17.4545 40.7376 17.4357 40.7399C17.417 40.7426 17.3975 40.7465 17.3777 40.7481C17.2979 40.7538 17.2109 40.7458 17.1227 40.7274C16.9468 40.6875 16.8005 40.6173 16.701 40.5584C16.6012 40.4993 16.5471 40.4513 16.5532 40.4417C16.5598 40.431 16.6245 40.46 16.7286 40.5035C16.8324 40.5472 16.9769 40.6053 17.1412 40.6426C17.2234 40.6597 17.3022 40.6691 17.3735 40.6682C17.3912 40.6678 17.4082 40.6654 17.4249 40.6643C17.4418 40.6637 17.4579 40.6616 17.4728 40.6574C17.4882 40.6543 17.503 40.6512 17.5173 40.6483C17.5308 40.6434 17.5438 40.6386 17.5562 40.6341C17.6555 40.5956 17.7037 40.5412 17.7152 40.5516Z" fill="#2E2842"/>
<path d="M17.8714 40.2916C17.8749 40.2834 17.9161 40.3112 17.9952 40.2985C18.0731 40.2887 18.1824 40.2378 18.292 40.1449C18.3463 40.0986 18.402 40.0404 18.4417 39.9707C18.4812 39.9001 18.5016 39.8131 18.5006 39.7209C18.4997 39.6288 18.4776 39.5314 18.4355 39.4395C18.3931 39.3471 18.3315 39.259 18.2578 39.1769C18.1842 39.0947 18.1034 39.0209 18.023 38.9518C17.9429 38.8824 17.8632 38.8186 17.785 38.7611C17.6282 38.6466 17.4768 38.5585 17.3433 38.4987C17.0753 38.3781 16.8884 38.3663 16.8906 38.3507C16.891 38.3459 16.9378 38.3419 17.0216 38.3521C17.1052 38.3619 17.2259 38.3872 17.367 38.4421C17.6505 38.5515 18.0032 38.7837 18.3225 39.1191C18.4004 39.2059 18.4671 39.3016 18.513 39.4044C18.5589 39.5076 18.5818 39.6165 18.5806 39.721C18.5795 39.8254 18.5531 39.9258 18.5041 40.0066C18.4539 40.0873 18.3914 40.1456 18.3306 40.1926C18.2083 40.2857 18.0864 40.332 17.9976 40.3322C17.9073 40.3348 17.8679 40.2929 17.8714 40.2916Z" fill="#2E2842"/>
<path d="M19.0464 39.1557C19.033 39.1594 18.9981 39.0412 18.9088 38.8673C18.8206 38.6939 18.6687 38.4665 18.4434 38.274C18.2181 38.0814 17.9699 37.9667 17.7849 37.9065C17.5992 37.8454 17.4769 37.8293 17.4785 37.8155C17.479 37.8055 17.6051 37.7997 17.8019 37.8475C17.9974 37.8942 18.263 38.0053 18.4998 38.2079C18.7368 38.4103 18.8879 38.6553 18.9644 38.8412C19.0423 39.0282 19.0562 39.1537 19.0464 39.1557Z" fill="#2E2842"/>
<path d="M17.5111 40.6658C17.5086 40.66 17.5369 40.6432 17.5861 40.6126C17.6342 40.5817 17.7065 40.5365 17.7653 40.4584C17.8224 40.3823 17.864 40.2594 17.8019 40.1522C17.7425 40.0447 17.6103 39.9566 17.4893 39.8547C16.9931 39.4553 16.5518 39.1831 16.5647 39.1613C16.5706 39.1514 16.6887 39.2069 16.8697 39.3149C17.0503 39.4231 17.2928 39.5854 17.5437 39.787C17.6065 39.8375 17.6665 39.8869 17.7246 39.9376C17.7823 39.9889 17.8376 40.0456 17.8729 40.1152C17.9092 40.1846 17.9158 40.266 17.8989 40.3321C17.8827 40.3991 17.8498 40.4539 17.8133 40.4967C17.7381 40.5817 17.656 40.6196 17.6015 40.6427C17.5459 40.6649 17.5133 40.671 17.5111 40.6658Z" fill="#2E2842"/>
<path d="M16.8304 40.5518C16.8401 40.5576 16.8286 40.6004 16.7922 40.6613C16.7559 40.7216 16.6906 40.7993 16.5987 40.86C16.5068 40.9205 16.4123 40.9513 16.3442 40.9656C16.2755 40.9796 16.2316 40.9785 16.2288 40.9673C16.2214 40.9409 16.3857 40.8941 16.5508 40.7876C16.7151 40.6796 16.8075 40.5374 16.8304 40.5518Z" fill="#2E2842"/>
<path d="M17.011 41.5201C16.9871 41.5099 17.0515 41.333 17.0961 41.1121C17.118 41.0016 17.1278 40.9009 17.1302 40.8271C17.1331 40.7534 17.1319 40.7061 17.1443 40.7032C17.1552 40.7006 17.1782 40.7449 17.1915 40.8231C17.2052 40.901 17.2046 41.0116 17.1813 41.1289C17.1333 41.3643 17.0307 41.5296 17.011 41.5201Z" fill="#2E2842"/>
<path d="M19.5627 40.7439C19.5638 40.7495 19.5259 40.7632 19.4548 40.7779C19.3837 40.7913 19.2787 40.808 19.1464 40.7989C19.0806 40.7941 19.0078 40.7825 18.9328 40.756C18.8581 40.7296 18.7804 40.6877 18.715 40.6238C18.5807 40.4969 18.5119 40.2929 18.5202 40.0884C18.5286 39.8806 18.6076 39.6986 18.6906 39.5484C18.7327 39.4731 18.7767 39.4042 18.819 39.3413C18.8609 39.2784 18.9025 39.219 18.9482 39.1699C18.9938 39.121 19.0434 39.0824 19.0929 39.0594C19.1419 39.0358 19.1887 39.0268 19.2267 39.0254C19.304 39.0245 19.3405 39.0515 19.3381 39.0552C19.3359 39.0623 19.2972 39.0481 19.23 39.0591C19.1629 39.0698 19.071 39.1137 18.9943 39.2105C18.9553 39.2579 18.9187 39.3159 18.8796 39.3802C18.8404 39.4441 18.7998 39.5128 18.7611 39.5865C18.6846 39.7332 18.6142 39.9053 18.607 40.0915C18.5997 40.277 18.6594 40.4559 18.7711 40.5668C18.8825 40.68 19.0309 40.7216 19.1526 40.7379C19.2762 40.7542 19.3796 40.7475 19.4505 40.7445C19.5217 40.7401 19.5616 40.7377 19.5627 40.7439Z" fill="#2E2842"/>
<path d="M17.3175 42.0503C17.3077 42.0494 17.3086 41.912 17.3547 41.6953C17.3771 41.587 17.4145 41.4602 17.4658 41.3229C17.519 41.1864 17.5873 41.0398 17.6731 40.8938C17.7602 40.7485 17.8562 40.6184 17.9506 40.5063C18.0467 40.3956 18.1401 40.3022 18.2245 40.2306C18.3926 40.0863 18.5128 40.0198 18.5184 40.028C18.5266 40.0394 18.4201 40.1231 18.2663 40.2755C18.1889 40.3513 18.1024 40.4469 18.0123 40.5574C17.9237 40.6692 17.8325 40.7969 17.7478 40.9381C17.6644 41.08 17.596 41.2212 17.5401 41.3525C17.4862 41.4846 17.4437 41.6063 17.4142 41.7104C17.3539 41.9185 17.3314 42.0521 17.3175 42.0503Z" fill="#2E2842"/>
<path d="M19.334 41.6075C19.3435 41.6102 19.3144 41.7588 19.2238 41.9854C19.2009 42.0419 19.175 42.1035 19.1426 42.1676C19.1127 42.2329 19.0748 42.2996 19.0357 42.3703C18.9541 42.5096 18.855 42.6576 18.738 42.8029C18.6197 42.9472 18.495 43.0745 18.3753 43.1829C18.3141 43.2355 18.2566 43.2863 18.1988 43.329C18.1427 43.3737 18.0876 43.4116 18.037 43.4456C17.8337 43.5807 17.6942 43.6395 17.6897 43.6308C17.6828 43.6185 17.8108 43.541 18.0012 43.3957C18.0487 43.3591 18.1005 43.3192 18.1536 43.2729C18.2083 43.2288 18.2628 43.177 18.3212 43.1239C18.4352 43.0147 18.5551 42.889 18.6706 42.7481C18.7848 42.6063 18.8834 42.4633 18.967 42.3293C19.007 42.2613 19.0465 42.1973 19.0785 42.1347C19.113 42.0734 19.1415 42.0144 19.1675 41.9605C19.2708 41.7444 19.3205 41.6033 19.334 41.6075Z" fill="#2E2842"/>
<path d="M14.9772 40.4224C14.9605 40.4167 14.9911 40.2809 15.0456 40.119C15.1002 39.9571 15.1579 39.8305 15.1747 39.8361C15.1914 39.8418 15.1608 39.9776 15.1063 40.1394C15.0517 40.3013 14.9939 40.4279 14.9772 40.4224Z" fill="white"/>
<path d="M16.728 37.9085C16.7347 37.9269 16.4925 38.0149 16.2384 38.1979C15.9827 38.3786 15.8208 38.579 15.8056 38.5667C15.7919 38.5587 15.9361 38.3335 16.2013 38.1458C16.465 37.9561 16.7249 37.8929 16.728 37.9085Z" fill="white"/>
<path d="M18.0274 37.0978C18.0106 37.0904 18.1005 36.8569 18.193 36.5635C18.2865 36.2704 18.3475 36.0277 18.3655 36.0313C18.3822 36.0343 18.3487 36.2857 18.254 36.5828C18.1602 36.8802 18.0427 37.105 18.0274 37.0978Z" fill="white"/>
<path d="M17.6899 41.9344C17.6732 41.9338 17.6708 41.7355 17.7316 41.5004C17.7914 41.265 17.8888 41.0923 17.9039 41.0998C17.9208 41.1075 17.8516 41.2875 17.7936 41.5163C17.7344 41.7448 17.7085 41.9358 17.6899 41.9344Z" fill="white"/>
<path d="M31.1853 44.1309C31.1853 44.1309 32.9767 42.803 32.254 41.0677C31.5314 39.3323 30.2179 36.6504 30.0491 36.6779C29.8801 36.7055 29.413 37.0142 29.5116 37.8365C29.5827 38.4299 29.8805 40.0178 29.8805 40.0178" fill="#FFB08C"/>
<path d="M29.7767 39.4463L28.1193 36.3613C28.1193 36.3613 27.162 36.7235 27.4658 37.7163C27.7697 38.709 28.5939 40.7227 28.5939 40.7227L30.2575 41.1288L29.7767 39.4463Z" fill="#FFB08C"/>
<path d="M28.5745 40.2231L26.8204 37.9066C26.7321 37.79 26.5549 37.7915 26.4712 37.9114C26.3172 38.1321 26.1518 38.5075 26.3276 38.9707C26.614 39.725 27.9011 41.064 27.7828 41.5485C27.6646 42.033 27.6471 43.4191 28.5515 43.8324C29.456 44.2457 31.2565 42.6532 31.2565 42.6532L30.8623 41.5516L28.5745 40.2231Z" fill="#FFB08C"/>
<path d="M29.4396 39.4688L31.4244 40.1379L32.0612 42.2041L31.2571 44.173C31.2571 44.173 28.5918 44.6993 28.1107 43.5917C27.6295 42.484 29.4396 39.4688 29.4396 39.4688Z" fill="#FFB08C"/>
<path d="M31.2736 43.3186L31.273 44.2754C31.2728 44.5125 31.044 44.6976 30.7618 44.6889L29.0048 44.6344C28.7227 44.6256 28.494 44.4263 28.4941 44.1891L28.4947 43.2324L31.2736 43.3186Z" fill="#FFB08C"/>
<path d="M31.4271 42.323L29.0162 43.2903C28.9885 42.5858 29.9247 42.3586 30.0451 42.3321C30.0101 42.3253 29.8852 42.236 29.449 41.6055C28.9688 40.9111 29.1366 40.1913 29.3117 39.8981C29.3434 39.8444 29.3756 39.8054 29.4038 39.7828C29.5507 39.6658 29.7033 39.8608 30.2756 40.3828C30.4225 40.5167 30.5971 40.6721 30.8062 40.8495C31.8305 41.7179 31.461 42.1818 31.4271 42.323Z" fill="#FFB08C"/>
<path d="M30.2754 40.4293C30.1918 40.5441 30.0161 40.756 29.8529 40.7172C29.6648 40.6724 29.2699 40.2786 29.3117 40.0122C29.3433 39.966 29.3755 39.9325 29.4038 39.913C29.5506 39.8124 29.7032 39.9801 30.2754 40.4293Z" fill="#FFEBE8"/>
<path d="M27.6916 41.1379C27.6916 41.1379 25.7538 40.6572 25.634 40.6356C25.5142 40.6141 25.2667 41.0002 25.7037 41.4999C26.1406 41.9995 28.2592 42.5166 28.2592 42.5166L28.6257 41.4808L27.6916 41.1379Z" fill="#FFB08C"/>
<path d="M28.936 43.3749C28.9337 43.3741 28.9405 43.3488 28.9556 43.3012C28.9711 43.2536 28.9976 43.1848 29.0376 43.0984C29.1197 42.928 29.2628 42.6862 29.511 42.4496C29.5736 42.3916 29.6411 42.3325 29.7165 42.2774C29.7539 42.2495 29.7933 42.2226 29.834 42.1961C29.8452 42.189 29.8567 42.1818 29.8681 42.1745C29.8704 42.1734 29.8658 42.1716 29.865 42.1702L29.8478 42.1547C29.7015 42.0184 29.5537 41.8615 29.4234 41.676C29.2934 41.491 29.1823 41.275 29.1249 41.0322C29.0684 40.7907 29.0682 40.5232 29.1514 40.2702C29.194 40.1444 29.2561 40.0263 29.338 39.9248C29.3591 39.8995 29.3855 39.8699 29.4271 39.8561C29.4686 39.8423 29.5113 39.8527 29.5429 39.8672C29.5753 39.8819 29.6022 39.9014 29.6271 39.9188C29.6522 39.9365 29.6772 39.954 29.702 39.9716C29.901 40.1115 30.0919 40.2489 30.268 40.388C30.621 40.6646 30.9106 40.9544 31.1071 41.2333C31.3068 41.5101 31.4157 41.7678 31.4712 41.9492C31.4981 42.0404 31.514 42.1126 31.5221 42.1619C31.5297 42.2113 31.5325 42.2374 31.5301 42.2378C31.5235 42.2391 31.5064 42.1355 31.4448 41.9579C31.3819 41.7815 31.268 41.5316 31.0663 41.2631C30.8678 40.9926 30.5796 40.7113 30.2274 40.4398C30.0518 40.3034 29.8611 40.1678 29.6618 40.0288C29.612 39.9958 29.561 39.954 29.5139 39.9316C29.4641 39.9083 29.4308 39.9211 29.393 39.9697C29.3173 40.0639 29.2591 40.1746 29.2191 40.2928C29.1407 40.5307 29.1399 40.7857 29.193 41.0165C29.2467 41.248 29.3524 41.4578 29.4773 41.6385C29.6025 41.82 29.7459 41.9755 29.8883 42.1116L29.9256 42.1465L29.95 42.1693L29.9621 42.1807C29.9629 42.1816 29.9646 42.1826 29.9647 42.1834L29.9612 42.1856L29.9541 42.19C29.924 42.2083 29.8941 42.2264 29.8646 42.2444C29.8246 42.2696 29.7858 42.2952 29.7489 42.3219C29.6745 42.3745 29.6077 42.4311 29.5453 42.4866C29.2983 42.7132 29.1509 42.9463 29.0623 43.1109C28.9757 43.2777 28.9421 43.3772 28.936 43.3749Z" fill="#2E2842"/>
<path d="M27.5662 41.912C27.5587 41.9106 27.5735 41.7828 27.6413 41.5873C27.6586 41.5385 27.6781 41.4854 27.7039 41.4302C27.727 41.3739 27.758 41.3166 27.7896 41.2559C27.8565 41.1364 27.9394 41.01 28.0394 40.8873C28.1407 40.7657 28.249 40.6602 28.3535 40.5718C28.4071 40.5292 28.4574 40.4879 28.5083 40.4544C28.5575 40.4186 28.606 40.3893 28.6506 40.363C28.8296 40.2591 28.9521 40.2203 28.9549 40.2274C28.96 40.2383 28.8457 40.2933 28.6774 40.4058C28.6355 40.4342 28.5897 40.4652 28.5432 40.5023C28.495 40.537 28.4473 40.579 28.3963 40.6219C28.2968 40.7107 28.193 40.8145 28.0945 40.9328C27.9972 41.0521 27.9151 41.1738 27.8469 41.2883C27.8146 41.3467 27.7824 41.4015 27.7575 41.4554C27.73 41.5082 27.7083 41.559 27.6884 41.6056C27.61 41.7922 27.5779 41.9148 27.5662 41.912Z" fill="#2E2842"/>
<path d="M29.8684 39.7929C29.8635 39.7938 29.851 39.7479 29.8324 39.6645C29.8139 39.581 29.7895 39.4598 29.7606 39.3098C29.7031 39.0097 29.6284 38.5944 29.5503 38.1349C29.5127 37.9058 29.4681 37.6855 29.4688 37.4782C29.469 37.3751 29.4802 37.2762 29.5042 37.1866C29.5284 37.0964 29.5659 37.0173 29.6099 36.9518C29.6969 36.819 29.8087 36.7447 29.8902 36.7138C29.9731 36.6831 30.0227 36.6862 30.0228 36.6895C30.0239 36.6959 29.9763 36.7026 29.9015 36.7392C29.8278 36.7762 29.7287 36.8513 29.6525 36.9789C29.614 37.0418 29.5816 37.117 29.5616 37.201C29.5416 37.2856 29.533 37.3791 29.5345 37.4778C29.5371 37.6755 29.5828 37.8927 29.6207 38.1229C29.6988 38.5824 29.7656 38.9991 29.8104 39.3013C29.8328 39.4524 29.8497 39.5749 29.8598 39.6599C29.8699 39.7447 29.8732 39.7921 29.8684 39.7929Z" fill="#2E2842"/>
<path d="M28.3187 40.04C28.3136 40.0417 28.2914 39.989 28.2515 39.894C28.2119 39.7988 28.1537 39.6617 28.0785 39.4934C27.9315 39.1563 27.703 38.6963 27.5334 38.1553C27.4458 37.8869 27.3827 37.6178 27.3869 37.3675C27.3866 37.1164 27.4678 36.895 27.5727 36.7387C27.6252 36.66 27.6837 36.5964 27.741 36.5478C27.7996 36.5007 27.8546 36.4661 27.903 36.4449C27.9511 36.4235 27.9901 36.4109 28.0174 36.4062C28.0444 36.4008 28.0587 36.3991 28.0592 36.4014C28.0611 36.4082 28.0045 36.4209 27.9156 36.4697C27.8711 36.4936 27.8207 36.5301 27.7674 36.5777C27.7154 36.6268 27.6625 36.6895 27.6152 36.766C27.5207 36.9187 27.4489 37.1287 27.4527 37.3679C27.4522 37.6073 27.5146 37.8676 27.6015 38.1334C27.7693 38.6691 27.989 39.1295 28.125 39.4736C28.1945 39.645 28.2459 39.7858 28.2777 39.8843C28.3096 39.9828 28.323 40.0386 28.3187 40.04Z" fill="#2E2842"/>
<path d="M27.2739 40.4378C27.2669 40.4435 27.155 40.3236 26.9951 40.1122C26.8356 39.9006 26.6292 39.5974 26.4407 39.2376C26.348 39.0567 26.2778 38.8708 26.2532 38.6927C26.2266 38.5144 26.2508 38.3489 26.2978 38.2218C26.3443 38.0935 26.414 38.0044 26.469 37.9532C26.5247 37.9018 26.563 37.884 26.565 37.8871C26.5687 37.892 26.5363 37.9174 26.4892 37.9723C26.4426 38.0272 26.3835 38.1152 26.3456 38.238C26.3073 38.3601 26.2897 38.5154 26.3182 38.6828C26.3449 38.8508 26.4136 39.028 26.5043 39.2052C26.6898 39.5593 26.8883 39.8655 27.0361 40.0828C27.1844 40.3002 27.2822 40.4311 27.2739 40.4378Z" fill="#2E2842"/>
<path d="M28.275 43.8152C28.268 43.8199 28.1761 43.7007 28.066 43.4843C27.9567 43.2684 27.8354 42.951 27.7783 42.5835C27.7735 42.5495 27.7687 42.5157 27.764 42.4823L27.7585 42.4323L27.7558 42.4075L27.7559 42.4074C27.6102 42.3669 27.473 42.3288 27.3493 42.2944C27.2188 42.2564 27.1025 42.2226 27.0052 42.1943C26.8113 42.1359 26.695 42.0963 26.6973 42.0877C26.6996 42.079 26.8201 42.1028 27.0173 42.149C27.1156 42.1731 27.2334 42.2018 27.3654 42.2341C27.504 42.2699 27.6576 42.3095 27.8207 42.3517C27.8253 42.3918 27.8299 42.4324 27.8345 42.4735C27.8392 42.5061 27.844 42.5391 27.8487 42.5724C27.9047 42.9317 28.0155 43.2446 28.1116 43.4628C28.2084 43.6812 28.2846 43.8093 28.275 43.8152Z" fill="#2E2842"/>
<path d="M26.761 39.1171C26.7479 39.1276 26.6423 39.0123 26.5646 38.8381C26.486 38.6642 26.4698 38.5088 26.4864 38.5059C26.5044 38.5021 26.5475 38.6455 26.623 38.8118C26.6973 38.9787 26.7759 39.1061 26.761 39.1171Z" fill="white"/>
<path d="M26.3691 41.6154C26.36 41.6306 26.2237 41.5655 26.0648 41.47C25.9058 41.3746 25.7844 41.2849 25.7934 41.2698C25.8025 41.2546 25.9387 41.3198 26.0977 41.4152C26.2567 41.5107 26.3782 41.6003 26.3691 41.6154Z" fill="white"/>
<path d="M28.0132 38.5058C27.9996 38.5153 27.877 38.3537 27.7933 38.1204C27.7084 37.8876 27.6993 37.6849 27.7158 37.6836C27.7344 37.6811 27.7712 37.8737 27.8535 38.0987C27.9342 38.3243 28.0291 38.4959 28.0132 38.5058Z" fill="white"/>
<path d="M29.8728 38.4245C29.8565 38.4292 29.7828 38.2149 29.7418 37.9396C29.7 37.6643 29.7075 37.4378 29.7245 37.4375C29.7428 37.4368 29.7639 37.659 29.8051 37.9301C29.8454 38.2012 29.8906 38.4198 29.8728 38.4245Z" fill="white"/>
<path d="M29.9731 41.8296C29.9598 41.8406 29.8218 41.6937 29.6842 41.4877C29.5462 41.2819 29.4632 41.0982 29.4783 41.0902C29.4943 41.0815 29.6012 41.2491 29.7374 41.4521C29.8731 41.6554 29.9872 41.8182 29.9731 41.8296Z" fill="white"/>
<path d="M29.854 42.6159C29.8676 42.6301 29.6818 42.8013 29.5429 43.0728C29.4006 43.3425 29.3673 43.593 29.3478 43.59C29.3398 43.5891 29.3376 43.5251 29.3551 43.4234C29.3725 43.322 29.4134 43.1837 29.4861 43.0433C29.5592 42.9031 29.6489 42.7901 29.7219 42.7176C29.795 42.6448 29.8487 42.6099 29.854 42.6159Z" fill="white"/>
<path d="M27.1006 39.3066C27.116 39.3249 27.0802 39.3807 27.0206 39.4312C26.9609 39.4817 26.8999 39.5078 26.8845 39.4895C26.869 39.4712 26.9048 39.4154 26.9645 39.3649C27.0241 39.3144 27.085 39.2883 27.1006 39.3066Z" fill="#FF8F53"/>
<path d="M27.6823 40.2386C27.6972 40.2574 27.6722 40.3023 27.6263 40.339C27.5803 40.3757 27.531 40.3903 27.5161 40.3716C27.5011 40.3529 27.5261 40.308 27.572 40.2712C27.618 40.2345 27.6673 40.2199 27.6823 40.2386Z" fill="#FF8F53"/>
<path d="M28.1992 38.5921C28.2128 38.6118 28.1756 38.6613 28.116 38.7027C28.0564 38.7441 27.997 38.7617 27.9833 38.7419C27.9696 38.7222 28.0069 38.6727 28.0665 38.6313C28.1261 38.5899 28.1855 38.5724 28.1992 38.5921Z" fill="#FF8F53"/>
<path d="M28.748 39.7066C28.7627 39.7256 28.7411 39.767 28.6999 39.7991C28.6586 39.8312 28.6131 39.8419 28.5984 39.823C28.5836 39.8041 28.6052 39.7627 28.6465 39.7305C28.6878 39.6984 28.7332 39.6877 28.748 39.7066Z" fill="#FF8F53"/>
<path d="M30.2277 38.4924C30.2398 38.5131 30.1864 38.5671 30.1084 38.613C30.0304 38.6589 29.9572 38.6793 29.9451 38.6587C29.9329 38.638 29.9863 38.5841 30.0643 38.5381C30.1424 38.4922 30.2155 38.4718 30.2277 38.4924Z" fill="#FF8F53"/>
<path d="M30.4106 39.6059C30.4233 39.6257 30.3616 39.6866 30.2625 39.7161C30.1636 39.746 30.0784 39.7291 30.0781 39.7056C30.0773 39.6812 30.1508 39.6594 30.2375 39.6329C30.3245 39.6073 30.3978 39.5851 30.4106 39.6059Z" fill="#FF8F53"/>
<path d="M26.6697 41.6015C26.6912 41.6122 26.6862 41.6656 26.6587 41.7206C26.6311 41.7757 26.5914 41.8117 26.57 41.801C26.5485 41.7902 26.5535 41.7369 26.581 41.6818C26.6086 41.6267 26.6482 41.5908 26.6697 41.6015Z" fill="#FF8F53"/>
<path d="M27.4664 41.8673C27.4902 41.8697 27.5059 41.9088 27.5013 41.9548C27.4967 42.0007 27.4736 42.0359 27.4498 42.0336C27.4259 42.0312 27.4103 41.992 27.4149 41.9461C27.4194 41.9002 27.4425 41.8649 27.4664 41.8673Z" fill="#FF8F53"/>
<path d="M30.6579 40.9164C30.6689 40.9384 30.6179 40.9855 30.5639 41.0459C30.509 41.1053 30.4668 41.1605 30.444 41.1516C30.4218 41.144 30.4329 41.0606 30.4997 40.9875C30.5662 40.914 30.6481 40.8951 30.6579 40.9164Z" fill="#FF8F53"/>
<path d="M31.2748 41.9503C31.294 41.9647 31.2872 42.0061 31.2596 42.0428C31.2321 42.0795 31.1942 42.0976 31.175 42.0833C31.1558 42.0689 31.1626 42.0274 31.1901 41.9907C31.2177 41.9539 31.2556 41.9359 31.2748 41.9503Z" fill="#FF8F53"/>
</g>
<rect x="0.03125" y="0.03125" width="34.7476" height="43.5051" rx="1.13" stroke="white" stroke-opacity="0.4" stroke-width="0.0625074"/>
<defs>
<clipPath id="clip0_1091_641">
<rect x="0.03125" y="0.03125" width="34.7476" height="43.5051" rx="1.13" fill="white"/>
</clipPath>
</defs>
</svg>
