<svg width="27" height="33" viewBox="0 0 27 33" fill="none" xmlns="http://www.w3.org/2000/svg">
<g clip-path="url(#clip0_1091_641)">
<rect x="0.0234375" y="0.0234375" width="26.0607" height="32.6289" rx="0.847503" fill="black"/>
<path d="M10.6866 6.57754C10.6866 6.68459 10.6706 6.77949 10.6386 6.86225C10.6066 6.94502 10.5625 7.0173 10.5062 7.07909C10.451 7.14089 10.3859 7.19331 10.3109 7.23634C10.2358 7.27938 10.1553 7.31469 10.0692 7.34228C9.98425 7.36877 9.89597 7.38863 9.80437 7.40187C9.71278 7.41401 9.62285 7.42063 9.53456 7.42174V8.1931H8.7632C8.7632 7.94039 8.76376 7.68879 8.76486 7.43829C8.76596 7.18779 8.76762 6.93508 8.76982 6.68017C8.77203 6.54554 8.77258 6.41091 8.77148 6.27628C8.77038 6.14165 8.77314 6.00592 8.77976 5.86908C8.92101 5.82715 9.06226 5.7957 9.20351 5.77473C9.34476 5.75377 9.49042 5.74328 9.6405 5.74328C9.72547 5.74328 9.81044 5.75046 9.89541 5.7648C9.98039 5.77804 10.0615 5.79956 10.1387 5.82936C10.2171 5.85915 10.2894 5.89667 10.3556 5.94192C10.4229 5.98606 10.4808 6.03903 10.5294 6.10082C10.5779 6.16262 10.616 6.23325 10.6436 6.3127C10.6723 6.39105 10.6866 6.47933 10.6866 6.57754ZM9.95169 6.63382C9.95169 6.56209 9.92962 6.50637 9.88548 6.46664C9.84245 6.42581 9.78617 6.40539 9.71664 6.40539C9.69347 6.40539 9.66919 6.4076 9.64381 6.41202C9.61953 6.41533 9.59636 6.41974 9.57429 6.42526L9.55443 6.9086C9.56988 6.91081 9.58477 6.91191 9.59912 6.91191C9.61347 6.91191 9.62836 6.91191 9.64381 6.91191C9.68354 6.91191 9.72161 6.90529 9.75803 6.89205C9.79555 6.8788 9.82865 6.86004 9.85734 6.83577C9.88603 6.81039 9.90866 6.78114 9.92521 6.74804C9.94287 6.71383 9.95169 6.67576 9.95169 6.63382ZM12.7574 6.32925C12.7574 6.41091 12.7535 6.50085 12.7458 6.59906C12.7381 6.69728 12.7254 6.7988 12.7077 6.90363C12.6901 7.00847 12.6669 7.11496 12.6382 7.2231C12.6106 7.33014 12.5759 7.43332 12.5339 7.53264C12.492 7.63196 12.4429 7.7252 12.3866 7.81238C12.3314 7.89846 12.2674 7.97405 12.1946 8.03915C12.1229 8.10316 12.0423 8.15337 11.9529 8.18979C11.8635 8.2273 11.7642 8.24606 11.655 8.24606C11.527 8.24606 11.4155 8.2251 11.3206 8.18316C11.2268 8.14233 11.1463 8.08716 11.0789 8.01764C11.0116 7.94701 10.9564 7.86535 10.9134 7.77265C10.8704 7.67886 10.8367 7.58009 10.8124 7.47636C10.7882 7.37153 10.7711 7.26504 10.7611 7.15689C10.7523 7.04764 10.7479 6.94281 10.7479 6.84239C10.7479 6.6879 10.7556 6.53395 10.7711 6.38057C10.7865 6.22607 10.8086 6.07213 10.8373 5.91874L11.6119 5.94854C11.5821 6.12179 11.5562 6.29615 11.5341 6.47161C11.5132 6.64596 11.5027 6.82142 11.5027 6.99798C11.5027 7.01674 11.5032 7.04488 11.5043 7.0824C11.5066 7.11882 11.5099 7.1602 11.5143 7.20655C11.5187 7.25179 11.5248 7.29869 11.5325 7.34725C11.5413 7.3947 11.5529 7.43829 11.5672 7.47802C11.5816 7.51774 11.5987 7.5503 11.6186 7.57568C11.6395 7.60106 11.6638 7.61375 11.6914 7.61375C11.7234 7.61375 11.7521 7.59885 11.7775 7.56906C11.8028 7.53816 11.8249 7.49733 11.8437 7.44657C11.8635 7.3958 11.8806 7.33732 11.895 7.27111C11.9093 7.20489 11.9215 7.13592 11.9314 7.0642C11.9413 6.99247 11.9491 6.92074 11.9546 6.84901C11.9612 6.77728 11.9662 6.71052 11.9695 6.64872C11.9739 6.58692 11.9767 6.5323 11.9778 6.48485C11.9789 6.4374 11.9794 6.40208 11.9794 6.37891C11.9794 6.29284 11.9778 6.20731 11.9744 6.12234C11.9722 6.03627 11.9684 5.95074 11.9629 5.86577H12.7375C12.7508 6.01806 12.7574 6.17255 12.7574 6.32925ZM14.6394 5.80287L14.6229 6.50471L14.1296 6.52457L14.0038 8.09378L13.3053 8.1302L13.3086 6.56099L12.8153 6.58748L12.8352 5.80618L14.6394 5.80287ZM17.4799 8.02757L16.6589 8.13351L16.5596 7.75941H16.1822L16.0994 8.13351L15.2552 8.05074L15.914 5.84591L16.8343 5.79956L17.4799 8.02757ZM16.5 7.2529L16.3742 6.67686L16.2517 7.2529H16.5ZM9.27634 8.78301C9.26972 8.88674 9.26365 8.98937 9.25813 9.09089C9.25261 9.19242 9.24544 9.29504 9.23661 9.39877L8.53477 9.43519V9.64375H9.14392L9.11081 10.1569L8.53146 10.1734L8.53477 11.1534L7.6972 11.1699L7.75017 8.78301H9.27634ZM10.2546 8.83929L10.0725 11.0938L9.374 11.1302V8.88564L10.2546 8.83929ZM12.6217 8.79625L12.5025 11.0408L11.6351 11.1203L11.1716 9.91853L11.0988 11.1434H10.3539L10.4135 8.79625L11.2412 8.75653L11.8139 9.94833L11.8404 8.82274L12.6217 8.79625ZM14.7553 10.8322C14.7034 10.8974 14.6394 10.9542 14.5633 11.0027C14.4872 11.0513 14.4055 11.0916 14.3183 11.1236C14.2311 11.1556 14.1418 11.1793 14.0502 11.1948C13.9586 11.2113 13.8714 11.2196 13.7886 11.2196C13.6286 11.2196 13.4813 11.1909 13.3467 11.1335C13.212 11.0761 13.0956 10.9972 12.9974 10.8968C12.9003 10.7953 12.8242 10.6761 12.769 10.5393C12.7138 10.4024 12.6862 10.2551 12.6862 10.0973C12.6862 9.97702 12.7 9.85949 12.7276 9.74473C12.7552 9.62886 12.7944 9.52016 12.8451 9.41864C12.897 9.31601 12.9599 9.22221 13.0338 9.13724C13.1078 9.05117 13.1916 8.97723 13.2854 8.91543C13.3792 8.85364 13.4819 8.80563 13.5933 8.77142C13.7048 8.73721 13.8239 8.72011 13.9508 8.72011C13.9983 8.72011 14.0491 8.72232 14.1031 8.72673C14.1572 8.73004 14.2107 8.73666 14.2637 8.74659C14.3178 8.75542 14.3702 8.76811 14.4209 8.78467C14.4717 8.80122 14.5181 8.82163 14.56 8.84591L14.5136 9.47823C14.4518 9.45505 14.3878 9.4396 14.3216 9.43188C14.2565 9.42305 14.1925 9.41864 14.1296 9.41864C14.0413 9.41864 13.9586 9.43243 13.8813 9.46002C13.8052 9.4865 13.7384 9.52513 13.681 9.57589C13.6248 9.62665 13.5801 9.68845 13.547 9.76128C13.5139 9.83411 13.4973 9.91632 13.4973 10.0079C13.4973 10.0653 13.505 10.121 13.5205 10.1751C13.5359 10.2281 13.5591 10.2755 13.59 10.3175C13.622 10.3583 13.6612 10.3914 13.7075 10.4168C13.755 10.4422 13.8096 10.4548 13.8714 10.4548C13.9133 10.4548 13.9564 10.4493 14.0005 10.4383C14.0457 10.4273 14.0844 10.4085 14.1164 10.382L14.123 10.2529L13.7257 10.2463L13.7456 9.74969C13.91 9.74418 14.0744 9.73976 14.2389 9.73645C14.4033 9.73204 14.5688 9.72652 14.7354 9.7199L14.7553 10.8322ZM16.4503 8.78301C16.4437 8.88674 16.4376 8.98937 16.4321 9.09089C16.4266 9.19242 16.4194 9.29504 16.4106 9.39877L15.7088 9.43519L15.6922 9.64375H16.1855L16.1491 10.1569L15.6525 10.1734L15.6359 10.4151H16.0464H16.3378C16.3311 10.5365 16.324 10.6573 16.3162 10.7776C16.3096 10.8968 16.3035 11.0165 16.298 11.1368L14.8712 11.1699L14.9242 8.78301H16.4503ZM18.4482 9.57423C18.4482 9.66031 18.4405 9.73866 18.4251 9.80928C18.4107 9.8788 18.3875 9.94281 18.3555 10.0013C18.3235 10.0598 18.2822 10.1139 18.2314 10.1635C18.1806 10.2132 18.1194 10.2606 18.0477 10.3059L18.4416 11.0077L17.6967 11.1534L17.4418 10.4482L17.2366 10.4548L17.2068 11.1434H16.495C16.5005 10.8918 16.5055 10.6413 16.5099 10.3919C16.5154 10.1425 16.5215 9.89205 16.5281 9.64044C16.5303 9.51354 16.5325 9.38774 16.5347 9.26304C16.5369 9.13834 16.5414 9.01254 16.548 8.88564C16.6252 8.85695 16.7014 8.83322 16.7764 8.81446C16.8514 8.7957 16.9265 8.78135 17.0015 8.77142C17.0777 8.76039 17.1544 8.75321 17.2316 8.7499C17.31 8.74549 17.39 8.74328 17.4716 8.74328C17.5974 8.74328 17.7188 8.76094 17.8358 8.79625C17.9539 8.83046 18.0581 8.88233 18.1486 8.95185C18.2391 9.02137 18.3114 9.108 18.3655 9.21173C18.4207 9.31546 18.4482 9.43629 18.4482 9.57423ZM17.7067 9.6272C17.7067 9.58085 17.7001 9.53837 17.6868 9.49975C17.6747 9.46112 17.6559 9.42802 17.6305 9.40043C17.6063 9.37174 17.5754 9.34967 17.5378 9.33422C17.5014 9.31766 17.4584 9.30939 17.4087 9.30939C17.3867 9.30939 17.3651 9.31104 17.3442 9.31435C17.3232 9.31656 17.3028 9.32042 17.2829 9.32594L17.2564 9.94171H17.2962C17.3436 9.94171 17.3916 9.93564 17.4402 9.9235C17.4898 9.91136 17.534 9.8926 17.5726 9.86722C17.6123 9.84184 17.6443 9.80928 17.6686 9.76956C17.694 9.72983 17.7067 9.68238 17.7067 9.6272ZM10.2463 12.8556C10.2463 13.0101 10.2265 13.1497 10.1867 13.2744C10.147 13.398 10.0913 13.5084 10.0196 13.6055C9.94893 13.7015 9.86452 13.7842 9.7663 13.8538C9.66809 13.9233 9.5605 13.9807 9.44352 14.0259C9.32655 14.0701 9.20185 14.1032 9.06943 14.1252C8.93811 14.1462 8.80293 14.1567 8.66389 14.1567C8.61202 14.1567 8.56126 14.1556 8.5116 14.1534C8.46194 14.1501 8.41118 14.1456 8.35932 14.1401L8.40566 11.9187C8.52705 11.8801 8.65175 11.8531 8.77976 11.8376C8.90887 11.8211 9.03688 11.8128 9.16378 11.8128C9.32158 11.8128 9.4667 11.8365 9.59912 11.884C9.73154 11.9314 9.84576 11.9999 9.94176 12.0892C10.0378 12.1786 10.1123 12.2879 10.1652 12.417C10.2193 12.5461 10.2463 12.6923 10.2463 12.8556ZM9.56767 12.9616C9.56877 12.902 9.56215 12.8446 9.54781 12.7894C9.53456 12.7342 9.51194 12.6857 9.47994 12.6438C9.44904 12.6007 9.40931 12.5665 9.36076 12.5411C9.3122 12.5146 9.25427 12.5003 9.18695 12.4981L9.12074 13.5244C9.18695 13.5144 9.2471 13.4929 9.30117 13.4598C9.35524 13.4256 9.40159 13.3842 9.44021 13.3357C9.47994 13.286 9.51029 13.2314 9.53125 13.1718C9.55332 13.1111 9.56546 13.0487 9.56767 12.9847V12.9616ZM12.3932 13.0013C12.3932 13.1017 12.3816 13.1988 12.3585 13.2926C12.3353 13.3853 12.3016 13.4725 12.2575 13.5542C12.2145 13.6358 12.1615 13.7109 12.0986 13.7793C12.0368 13.8466 11.9667 13.9045 11.8884 13.9531C11.8111 14.0016 11.7267 14.0397 11.6351 14.0673C11.5435 14.0938 11.4464 14.107 11.3438 14.107C11.2445 14.107 11.1496 14.0943 11.0591 14.0689C10.9697 14.0436 10.8858 14.0083 10.8075 13.963C10.7291 13.9167 10.6579 13.8615 10.5939 13.7975C10.531 13.7324 10.477 13.6606 10.4317 13.5823C10.3876 13.5028 10.3528 13.4179 10.3274 13.3274C10.3032 13.2369 10.291 13.1425 10.291 13.0443C10.291 12.9483 10.3026 12.8545 10.3258 12.7629C10.349 12.6702 10.3821 12.5831 10.4251 12.5014C10.4692 12.4197 10.5222 12.3447 10.584 12.2763C10.6458 12.2079 10.7148 12.1488 10.7909 12.0992C10.8682 12.0495 10.9515 12.0109 11.0409 11.9833C11.1303 11.9557 11.2246 11.9419 11.3239 11.9419C11.4839 11.9419 11.6296 11.9667 11.7609 12.0164C11.8933 12.0661 12.0059 12.1372 12.0986 12.2299C12.1924 12.3215 12.2647 12.433 12.3154 12.5643C12.3673 12.6945 12.3932 12.8402 12.3932 13.0013ZM11.6583 13.0443C11.6583 12.9969 11.6511 12.9511 11.6368 12.9069C11.6235 12.8617 11.6037 12.822 11.5772 12.7878C11.5507 12.7525 11.5176 12.7243 11.4779 12.7033C11.4392 12.6813 11.3945 12.6702 11.3438 12.6702C11.2919 12.6702 11.2456 12.6796 11.2047 12.6984C11.1639 12.7171 11.1286 12.7431 11.0988 12.7762C11.0701 12.8082 11.048 12.8463 11.0326 12.8904C11.0171 12.9334 11.0094 12.9792 11.0094 13.0278C11.0094 13.0741 11.016 13.1205 11.0293 13.1668C11.0425 13.2132 11.0624 13.2551 11.0889 13.2926C11.1154 13.3301 11.1479 13.3605 11.1865 13.3837C11.2263 13.4068 11.2721 13.4184 11.3239 13.4184C11.3758 13.4184 11.4221 13.4085 11.463 13.3886C11.5049 13.3677 11.5402 13.3401 11.5689 13.3059C11.5976 13.2706 11.6197 13.2303 11.6351 13.185C11.6506 13.1398 11.6583 13.0929 11.6583 13.0443ZM15.4389 11.8724L15.0516 14.1666L14.1114 14.1865L13.9095 12.998L13.7075 14.1004L12.7673 14.1335L12.3767 11.8724L13.1977 11.7996L13.3632 13.1734L13.585 11.7996H14.2306L14.4888 13.19L14.6212 11.7996L15.4389 11.8724ZM17.7663 11.7963L17.6471 14.0408L16.7797 14.1203L16.3162 12.9185L16.2434 14.1434H15.4985L15.5581 11.7963L16.3858 11.7565L16.9585 12.9483L16.985 11.8227L17.7663 11.7963Z" fill="#ED8251"/>
<path d="M3.64932 32.7666C3.64932 32.7666 1.7927 31.7673 1.50743 31.6317C1.22216 31.4961 1.67642 31.0012 2.26298 31.1549C2.84958 31.3087 3.10103 31.1865 3.10103 31.1865C3.10103 31.1865 3.15264 27.9439 3.26549 27.7245C3.37829 27.5052 3.70754 27.656 3.87323 27.9594C4.03892 28.2628 4.22507 29.8501 4.22507 29.8501C4.22507 29.8501 5.08618 27.441 5.21029 27.1971C5.61023 26.4108 5.92143 27.3372 5.82389 27.7525C5.76316 28.0111 5.37691 29.484 5.29284 29.7625C5.29284 29.7625 6.49257 27.8569 6.53736 27.7986C6.58215 27.7403 6.84805 27.6737 6.8722 28.2878C6.89636 28.9019 6.16446 30.1918 6.16446 30.1918C6.16446 30.1918 7.433 29.2281 7.49135 29.2729C7.54966 29.3177 7.75645 29.5512 7.56885 29.88C7.38126 30.2088 6.36273 30.8633 6.39531 31.2313C6.4279 31.5994 6.48502 32.3943 5.29627 32.8074C4.10748 33.2204 3.64932 32.7666 3.64932 32.7666Z" fill="#FFB08C"/>
<path d="M5.79941 32.2252L5.79882 32.9635C5.79869 33.1466 5.62203 33.2894 5.40422 33.2826L4.04834 33.2403C3.83058 33.2334 3.65417 33.0796 3.6543 32.8965L3.65489 32.1582L5.79941 32.2252Z" fill="#FFB08C"/>
<path d="M3.80893 28.4928C3.813 28.5081 3.7472 28.5389 3.66195 28.5617C3.5767 28.5845 3.50425 28.5906 3.50018 28.5753C3.49611 28.56 3.56191 28.5292 3.64716 28.5064C3.73241 28.4837 3.80482 28.4775 3.80893 28.4928Z" fill="#FF8F53"/>
<path d="M3.90435 29.5494C3.9049 29.5652 3.83842 29.5803 3.75589 29.5831C3.67335 29.5859 3.60602 29.5753 3.60547 29.5595C3.60492 29.5437 3.6714 29.5286 3.75394 29.5258C3.83647 29.523 3.90384 29.5336 3.90435 29.5494Z" fill="#FF8F53"/>
<path d="M5.56668 27.9905C5.55782 28.004 5.49876 27.9803 5.4277 27.9519C5.35686 27.923 5.29792 27.899 5.30089 27.8832C5.30352 27.8679 5.37232 27.8676 5.44914 27.8988C5.52613 27.9297 5.5754 27.9777 5.56668 27.9905Z" fill="#FF8F53"/>
<path d="M5.2002 28.8784C5.19609 28.8937 5.14936 28.8945 5.09576 28.8801C5.04216 28.8657 5.00204 28.8417 5.00615 28.8264C5.01026 28.8111 5.05699 28.8104 5.11059 28.8248C5.16419 28.8391 5.20431 28.8632 5.2002 28.8784Z" fill="#FF8F53"/>
<path d="M6.61835 28.6733C6.60873 28.6859 6.56878 28.6714 6.52912 28.6409C6.48946 28.6105 6.46514 28.5756 6.47476 28.5631C6.48437 28.5506 6.52433 28.5651 6.56399 28.5955C6.60365 28.6259 6.62801 28.6608 6.61835 28.6733Z" fill="#FF8F53"/>
<path d="M6.18523 29.5123C6.17659 29.5256 6.12532 29.5074 6.07075 29.4718C6.01617 29.4361 5.97893 29.3965 5.98757 29.3832C5.99622 29.37 6.04749 29.3882 6.10206 29.4238C6.15667 29.4594 6.19392 29.4991 6.18523 29.5123Z" fill="#FF8F53"/>
<path d="M7.27679 30.0192C7.26421 30.0288 7.22171 29.9941 7.18184 29.9418C7.14197 29.8895 7.11985 29.8393 7.13244 29.8297C7.14502 29.8201 7.18752 29.8548 7.22739 29.9071C7.26726 29.9594 7.28938 30.0096 7.27679 30.0192Z" fill="#FF8F53"/>
<path d="M6.66705 30.4602C6.65599 30.4712 6.61816 30.45 6.59617 30.4047C6.57409 30.3594 6.58083 30.3165 6.59625 30.3146C6.61214 30.3122 6.62968 30.3433 6.64765 30.3796C6.66519 30.4162 6.6787 30.4492 6.66705 30.4602Z" fill="#FF8F53"/>
<path d="M2.06843 31.4482C2.06461 31.4609 1.97915 31.443 1.87496 31.4538C1.77065 31.4631 1.69023 31.4971 1.684 31.4853C1.67722 31.4755 1.75548 31.419 1.87056 31.4083C1.98559 31.3967 2.07321 31.4372 2.06843 31.4482Z" fill="white"/>
<path d="M3.28513 28.6787C3.27254 28.6781 3.26966 28.5061 3.27873 28.2944C3.2878 28.0827 3.30538 27.9116 3.31796 27.9121C3.33059 27.9127 3.33343 28.0847 3.32436 28.2964C3.31529 28.508 3.29775 28.6792 3.28513 28.6787Z" fill="white"/>
<path d="M5.11336 27.9273C5.10145 27.9232 5.14314 27.7717 5.20653 27.589C5.26992 27.4063 5.33097 27.2616 5.34288 27.2657C5.35478 27.2699 5.31309 27.4213 5.2497 27.604C5.18632 27.7867 5.12526 27.9314 5.11336 27.9273Z" fill="white"/>
<path d="M6.47856 28.0569C6.4897 28.0628 6.4356 28.1854 6.35781 28.3307C6.27997 28.4759 6.2079 28.5888 6.19676 28.5829C6.18566 28.5769 6.23972 28.4543 6.31751 28.3091C6.39535 28.1638 6.46742 28.0509 6.47856 28.0569Z" fill="white"/>
<path d="M7.33358 29.4089C7.3429 29.417 7.27744 29.5072 7.17724 29.6002C7.07724 29.6935 6.9825 29.7524 6.97513 29.7425C6.96733 29.7322 7.04801 29.6583 7.14609 29.5668C7.24444 29.4756 7.32392 29.4003 7.33358 29.4089Z" fill="white"/>
<path d="M4.45512 31.111C4.45198 31.1187 4.37994 31.0924 4.26053 31.066C4.20091 31.0524 4.129 31.0411 4.04887 31.0333C3.96861 31.0268 3.88 31.0245 3.78728 31.0304C3.69465 31.0372 3.60719 31.0516 3.52858 31.0691C3.45028 31.0878 3.38057 31.1088 3.3234 31.1304C3.20869 31.1728 3.14098 31.2088 3.13683 31.2016C3.13378 31.1968 3.19564 31.1493 3.3098 31.0971C3.36667 31.0706 3.43722 31.0453 3.51736 31.0235C3.59783 31.0029 3.68808 30.9866 3.78385 30.9795C3.87971 30.9734 3.97132 30.9772 4.05387 30.9866C4.13629 30.9973 4.2096 31.0127 4.26956 31.0311C4.38973 31.0672 4.45749 31.1058 4.45512 31.111Z" fill="#2E2842"/>
<path d="M4.06689 28.7461C4.0741 28.7454 4.0877 28.8262 4.10685 28.957C4.12529 29.0879 4.15075 29.2686 4.17889 29.4682C4.20601 29.6681 4.22631 29.8501 4.23622 29.9822C4.24622 30.1143 4.2472 30.1964 4.24038 30.1971C4.23317 30.1977 4.21953 30.1169 4.20042 29.9862C4.18198 29.8553 4.15652 29.6746 4.12838 29.475C4.10126 29.275 4.08096 29.0931 4.07105 28.961C4.061 28.8289 4.06007 28.7467 4.06689 28.7461Z" fill="#2E2842"/>
<path d="M5.56753 28.8184C5.58113 28.822 5.51054 29.1312 5.40981 29.509C5.30908 29.8868 5.21645 30.19 5.20285 30.1864C5.18925 30.1827 5.25984 29.8736 5.36057 29.4958C5.46125 29.1181 5.55393 28.8148 5.56753 28.8184Z" fill="#2E2842"/>
<path d="M6.51074 29.4376C6.5235 29.4435 6.42413 29.6834 6.28878 29.9732C6.15344 30.2631 6.03339 30.4932 6.02063 30.4873C6.00788 30.4813 6.10725 30.2415 6.24259 29.9517C6.37794 29.6618 6.49795 29.4317 6.51074 29.4376Z" fill="#2E2842"/>
<path d="M6.15456 30.7181C6.1491 30.7258 6.03473 30.6423 5.83307 30.5387C5.80772 30.526 5.7812 30.5128 5.75353 30.499C5.72581 30.4853 5.69577 30.4736 5.66543 30.46C5.60504 30.4319 5.53784 30.4085 5.46783 30.3822C5.32626 30.3341 5.16744 30.2904 4.99743 30.2604C4.82712 30.2322 4.66283 30.2206 4.51333 30.2188C4.43858 30.2204 4.36739 30.22 4.30112 30.2265C4.26798 30.2292 4.23573 30.2302 4.20505 30.2339C4.17438 30.2377 4.14492 30.2414 4.11683 30.2449C3.89216 30.2756 3.75651 30.3163 3.75393 30.3072C3.75291 30.3039 3.78605 30.2915 3.84715 30.272C3.87758 30.2618 3.91521 30.2505 3.95975 30.2409C4.0042 30.2309 4.05445 30.2173 4.11136 30.2093C4.13971 30.2048 4.16942 30.1999 4.20039 30.1949C4.23141 30.1901 4.264 30.188 4.2976 30.1844C4.36477 30.176 4.43706 30.1747 4.51308 30.1719C4.66512 30.171 4.83263 30.1815 5.00603 30.2102C5.17913 30.2408 5.34054 30.2866 5.48368 30.338C5.55445 30.366 5.62216 30.3913 5.68276 30.4215C5.71323 30.4361 5.74327 30.4489 5.77094 30.4637C5.79849 30.4788 5.82489 30.4932 5.8501 30.5069C5.90112 30.5333 5.944 30.5629 5.98261 30.5872C6.02142 30.611 6.05316 30.6342 6.07846 30.6539C6.12952 30.6926 6.15664 30.7153 6.15456 30.7181Z" fill="#2E2842"/>
<path d="M4.23036 32.8859C4.23121 32.8887 4.21222 32.899 4.17417 32.907C4.13633 32.9145 4.07895 32.9172 4.01086 32.9042C3.94268 32.8919 3.86496 32.8645 3.78288 32.8287C3.70097 32.7931 3.61185 32.7523 3.51926 32.7073C3.33404 32.6174 3.17047 32.5279 3.05449 32.459C2.93843 32.3902 2.86974 32.3426 2.87317 32.3366C2.87677 32.3304 2.95173 32.3669 3.07182 32.4274C3.19183 32.488 3.35722 32.572 3.54155 32.6614C3.63397 32.7056 3.72203 32.7476 3.80212 32.7859C3.88204 32.8234 3.95505 32.853 4.01861 32.869C4.14637 32.9033 4.22875 32.8776 4.23036 32.8859Z" fill="#2E2842"/>
<path d="M14.5847 30.5522C14.5847 30.5522 13.887 30.6753 13.7913 30.1965C14.0102 28.9516 14.7078 29.2662 14.923 29.3893C15.1382 29.5125 14.8994 30.3333 14.4206 31.4004C13.9418 32.4675 13.4219 32.6042 13.3809 32.659" fill="#FFB08C"/>
<path d="M14.1344 29.6697C14.1344 29.6697 14.5382 29.1222 13.7488 28.6422C12.9593 28.1622 12.359 28.1597 11.8562 28.7611C11.5396 29.1398 11.035 30.0766 11.0856 30.8445C11.1361 31.6125 11.4058 32.7393 11.6838 32.9794C11.9617 33.2194 12.9902 33.0924 13.5215 32.572C14.0529 32.0517 14.8039 30.6171 14.7787 30.175C14.7534 29.7329 14.1344 29.6697 14.1344 29.6697Z" fill="#FFB08C"/>
<path d="M12.9242 28.8607C12.901 28.7761 13.9128 26.4463 14.0378 26.3588C14.1627 26.2712 14.4927 26.4931 14.5107 26.9133C14.5286 27.3335 14.0648 29.2848 14.0648 29.2848L13.1649 29.1211L12.9242 28.8607Z" fill="#FFB08C"/>
<path d="M13.4654 32.2424L13.465 32.9599C13.4649 33.1378 13.2932 33.2766 13.0816 33.2701L11.7639 33.2292C11.5523 33.2226 11.3808 33.0731 11.3809 32.8953L11.3813 32.1777L13.4654 32.2424Z" fill="#FFB08C"/>
<path d="M14.3239 30.2795C14.144 30.2138 14.0345 30.0151 14.0843 29.8572C14.1341 29.6993 14.2601 29.7335 14.44 29.7993C14.6199 29.865 14.7855 29.9374 14.7357 30.0953C14.686 30.2532 14.5038 30.3453 14.3239 30.2795Z" fill="#FFEBE8"/>
<path d="M12.7867 29.7978C12.7998 29.8102 12.7745 29.8582 12.7303 29.9052C12.6861 29.9522 12.6396 29.9804 12.6265 29.968C12.6134 29.9557 12.6387 29.9076 12.6829 29.8606C12.7271 29.8136 12.7736 29.7855 12.7867 29.7978Z" fill="#FF8F53"/>
<path d="M13.2388 29.3939C13.25 29.4079 13.2256 29.4462 13.1841 29.4794C13.1426 29.5125 13.0999 29.528 13.0887 29.514C13.0774 29.5 13.1019 29.4617 13.1434 29.4285C13.1849 29.3953 13.2276 29.3798 13.2388 29.3939Z" fill="#FF8F53"/>
<path d="M13.7498 28.9121C13.7583 28.9282 13.7328 28.9582 13.7001 28.9887C13.667 29.0189 13.6351 29.042 13.6197 29.0322C13.6046 29.0229 13.616 28.9776 13.6559 28.9409C13.6957 28.904 13.7418 28.8962 13.7498 28.9121Z" fill="#FF8F53"/>
<path d="M13.2859 30.4142C13.2894 30.417 13.2833 30.4292 13.2683 30.4497C13.2644 30.4547 13.2601 30.4604 13.2554 30.4665C13.2501 30.472 13.2435 30.477 13.2367 30.4829C13.2228 30.4945 13.207 30.5084 13.1861 30.5179C13.1759 30.5231 13.1653 30.529 13.1539 30.5342C13.1419 30.538 13.1296 30.542 13.1168 30.5461C13.1039 30.5507 13.0904 30.5537 13.0763 30.5554C13.0622 30.5574 13.0477 30.5604 13.0328 30.5615C12.973 30.5658 12.9077 30.5598 12.8415 30.546C12.7096 30.5161 12.5999 30.4635 12.5253 30.4193C12.4504 30.375 12.4099 30.3389 12.4144 30.3317C12.4194 30.3237 12.4679 30.3455 12.5459 30.3781C12.6238 30.4109 12.7322 30.4545 12.8554 30.4824C12.9171 30.4952 12.9762 30.5023 13.0296 30.5017C13.0429 30.5014 13.0556 30.4996 13.0682 30.4987C13.0809 30.4982 13.0929 30.4967 13.1041 30.4936C13.1157 30.4912 13.1268 30.4889 13.1375 30.4867C13.1476 30.483 13.1574 30.4795 13.1667 30.4761C13.2411 30.4472 13.2773 30.4064 13.2859 30.4142Z" fill="#2E2842"/>
<path d="M13.4035 30.2192C13.4062 30.2131 13.4371 30.2339 13.4964 30.2244C13.5549 30.217 13.6368 30.1789 13.719 30.1092C13.7597 30.0744 13.8015 30.0308 13.8313 29.9785C13.8609 29.9255 13.8762 29.8603 13.8755 29.7912C13.8747 29.7221 13.8582 29.649 13.8266 29.5801C13.7948 29.5108 13.7486 29.4447 13.6933 29.3832C13.6381 29.3215 13.5776 29.2662 13.5173 29.2143C13.4572 29.1623 13.3974 29.1144 13.3387 29.0713C13.2211 28.9854 13.1076 28.9193 13.0075 28.8745C12.8065 28.784 12.6663 28.7752 12.668 28.7635C12.6682 28.7599 12.7034 28.7569 12.7662 28.7646C12.8289 28.7719 12.9194 28.7909 13.0252 28.832C13.2379 28.9141 13.5024 29.0882 13.7419 29.3398C13.8003 29.4049 13.8503 29.4767 13.8847 29.5538C13.9192 29.6312 13.9363 29.7129 13.9354 29.7913C13.9346 29.8695 13.9148 29.9449 13.8781 30.0054C13.8404 30.066 13.7936 30.1097 13.7479 30.145C13.6563 30.2148 13.5648 30.2495 13.4982 30.2497C13.4305 30.2516 13.4009 30.2202 13.4035 30.2192Z" fill="#2E2842"/>
<path d="M14.2853 29.3678C14.2753 29.3706 14.2491 29.2819 14.1821 29.1514C14.116 29.0214 14.002 28.8508 13.833 28.7065C13.6641 28.562 13.4779 28.476 13.3391 28.4309C13.1999 28.385 13.1082 28.373 13.1094 28.3626C13.1098 28.3551 13.2043 28.3507 13.3519 28.3866C13.4986 28.4216 13.6977 28.505 13.8754 28.6569C14.0531 28.8087 14.1664 28.9925 14.2238 29.1319C14.2822 29.2722 14.2926 29.3662 14.2853 29.3678Z" fill="#2E2842"/>
<path d="M13.1338 30.5004C13.132 30.496 13.1532 30.4834 13.1901 30.4604C13.2261 30.4372 13.2804 30.4034 13.3245 30.3448C13.3673 30.2877 13.3985 30.1956 13.3519 30.1151C13.3073 30.0345 13.2082 29.9684 13.1175 29.892C12.7453 29.5925 12.4143 29.3883 12.424 29.3719C12.4284 29.3645 12.517 29.4061 12.6527 29.4872C12.7882 29.5683 12.9701 29.6901 13.1582 29.8412C13.2054 29.8791 13.2504 29.9162 13.2939 29.9541C13.3372 29.9926 13.3787 30.0352 13.4051 30.0874C13.4324 30.1394 13.4373 30.2005 13.4246 30.2501C13.4125 30.3003 13.3879 30.3414 13.3605 30.3735C13.3041 30.4373 13.2425 30.4657 13.2016 30.483C13.1599 30.4997 13.1355 30.5043 13.1338 30.5004Z" fill="#2E2842"/>
<path d="M12.6233 30.4148C12.6305 30.4192 12.6219 30.4513 12.5946 30.4969C12.5674 30.5422 12.5185 30.6004 12.4495 30.646C12.3806 30.6914 12.3097 30.7145 12.2586 30.7252C12.2071 30.7356 12.1742 30.7349 12.1721 30.7265C12.1665 30.7067 12.2898 30.6715 12.4136 30.5917C12.5368 30.5107 12.6061 30.404 12.6233 30.4148Z" fill="#2E2842"/>
<path d="M12.7578 31.1401C12.7399 31.1324 12.7881 30.9998 12.8216 30.8341C12.838 30.7512 12.8454 30.6756 12.8471 30.6203C12.8493 30.5651 12.8485 30.5295 12.8578 30.5274C12.8659 30.5254 12.8832 30.5587 12.8931 30.6173C12.9034 30.6757 12.903 30.7587 12.8855 30.8466C12.8495 31.0232 12.7725 31.1472 12.7578 31.1401Z" fill="#2E2842"/>
<path d="M14.6711 30.5584C14.6718 30.5626 14.6434 30.5729 14.5901 30.5839C14.5368 30.5939 14.458 30.6065 14.3589 30.5997C14.3095 30.5961 14.2549 30.5874 14.1986 30.5675C14.1426 30.5477 14.0844 30.5162 14.0352 30.4683C13.9345 30.3732 13.883 30.2202 13.8892 30.0668C13.8955 29.9109 13.9547 29.7744 14.017 29.6618C14.0486 29.6053 14.0815 29.5537 14.1133 29.5064C14.1447 29.4593 14.1759 29.4148 14.2102 29.3779C14.2444 29.3412 14.2816 29.3123 14.3187 29.295C14.3554 29.2773 14.3906 29.2706 14.419 29.2695C14.477 29.2688 14.5044 29.2891 14.5026 29.2919C14.501 29.2972 14.4719 29.2866 14.4215 29.2948C14.3712 29.3028 14.3023 29.3358 14.2448 29.4084C14.2155 29.4439 14.188 29.4874 14.1587 29.5356C14.1293 29.5836 14.0989 29.6351 14.0698 29.6904C14.0124 29.8004 13.9597 29.9295 13.9543 30.0691C13.9488 30.2082 13.9935 30.3424 14.0773 30.4256C14.1609 30.5105 14.2722 30.5417 14.3635 30.5539C14.4562 30.5661 14.5337 30.5611 14.5869 30.5589C14.6403 30.5556 14.6702 30.5537 14.6711 30.5584Z" fill="#2E2842"/>
<path d="M12.9881 31.5387C12.9808 31.538 12.9814 31.4349 13.016 31.2725C13.0329 31.1912 13.0609 31.0962 13.0993 30.9931C13.1393 30.8908 13.1904 30.7808 13.2548 30.6713C13.3202 30.5624 13.3922 30.4648 13.463 30.3807C13.535 30.2977 13.6051 30.2276 13.6684 30.1739C13.7944 30.0657 13.8846 30.0158 13.8888 30.022C13.895 30.0305 13.8151 30.0933 13.6997 30.2076C13.6417 30.2645 13.5768 30.3361 13.5092 30.419C13.4428 30.5029 13.3744 30.5987 13.3108 30.7045C13.2483 30.811 13.197 30.9169 13.1551 31.0153C13.1146 31.1144 13.0828 31.2057 13.0607 31.2838C13.0154 31.4398 12.9986 31.5401 12.9881 31.5387Z" fill="#2E2842"/>
<path d="M14.501 31.2071C14.5081 31.2091 14.4863 31.3205 14.4183 31.4905C14.4011 31.5329 14.3817 31.5791 14.3575 31.6272C14.335 31.6762 14.3066 31.7262 14.2773 31.7792C14.216 31.8837 14.1418 31.9947 14.054 32.1037C13.9652 32.2119 13.8718 32.3073 13.782 32.3886C13.7361 32.4281 13.693 32.4662 13.6496 32.4982C13.6075 32.5317 13.5662 32.5602 13.5283 32.5857C13.3758 32.687 13.2712 32.7311 13.2678 32.7246C13.2626 32.7154 13.3586 32.6572 13.5014 32.5482C13.537 32.5208 13.5759 32.4909 13.6157 32.4562C13.6567 32.4231 13.6976 32.3842 13.7414 32.3444C13.8269 32.2625 13.9168 32.1682 14.0034 32.0626C14.0891 31.9562 14.163 31.8489 14.2257 31.7484C14.2557 31.6974 14.2854 31.6495 14.3094 31.6025C14.3352 31.5565 14.3566 31.5122 14.3761 31.4718C14.4536 31.3098 14.4909 31.2039 14.501 31.2071Z" fill="#2E2842"/>
<path d="M11.2319 30.3168C11.2194 30.3125 11.2424 30.2107 11.2833 30.0893C11.3241 29.9678 11.3675 29.8729 11.38 29.8771C11.3926 29.8813 11.3696 29.9832 11.3287 30.1046C11.2878 30.226 11.2445 30.321 11.2319 30.3168Z" fill="white"/>
<path d="M12.546 28.4314C12.551 28.4452 12.3694 28.5111 12.1788 28.6484C11.9871 28.7839 11.8656 28.9342 11.8542 28.9251C11.8439 28.919 11.9521 28.7502 12.1509 28.6094C12.3488 28.4671 12.5437 28.4197 12.546 28.4314Z" fill="white"/>
<path d="M13.5211 27.8234C13.5084 27.8178 13.5759 27.6427 13.6453 27.4226C13.7154 27.2028 13.7611 27.0208 13.7746 27.0235C13.7871 27.0257 13.762 27.2142 13.691 27.4371C13.6206 27.6602 13.5325 27.8287 13.5211 27.8234Z" fill="white"/>
<path d="M13.2674 31.4523C13.2549 31.4518 13.2531 31.3031 13.2987 31.1268C13.3435 30.9502 13.4166 30.8207 13.4279 30.8264C13.4406 30.8321 13.3887 30.9671 13.3452 31.1387C13.3008 31.31 13.2813 31.4533 13.2674 31.4523Z" fill="white"/>
<path d="M23.3885 33.0997C23.3885 33.0997 24.732 32.1037 24.19 30.8022C23.6481 29.5007 22.663 27.4893 22.5363 27.5099C22.4096 27.5306 22.0592 27.7621 22.1332 28.3789C22.1865 28.8239 22.4099 30.0148 22.4099 30.0148" fill="#FFB08C"/>
<path d="M22.3325 29.5852L21.0895 27.2715C21.0895 27.2715 20.3715 27.5431 20.5994 28.2877C20.8272 29.0323 21.4455 30.5425 21.4455 30.5425L22.6932 30.8471L22.3325 29.5852Z" fill="#FFB08C"/>
<path d="M21.4314 30.1673L20.1158 28.43C20.0496 28.3425 19.9166 28.3436 19.8539 28.4336C19.7384 28.5991 19.6143 28.8806 19.7462 29.228C19.961 29.7938 20.9263 30.798 20.8376 31.1614C20.7489 31.5248 20.7358 32.5643 21.4141 32.8743C22.0925 33.1843 23.4428 31.9899 23.4428 31.9899L23.1472 31.1637L21.4314 30.1673Z" fill="#FFB08C"/>
<path d="M22.0792 29.6016L23.5678 30.1034L24.0454 31.6531L23.4423 33.1297C23.4423 33.1297 21.4434 33.5244 21.0825 32.6938C20.7216 31.863 22.0792 29.6016 22.0792 29.6016Z" fill="#FFB08C"/>
<path d="M23.4557 32.4904L23.4552 33.208C23.4551 33.3858 23.2835 33.5247 23.0718 33.5181L21.7541 33.4772C21.5425 33.4707 21.371 33.3212 21.3711 33.1433L21.3715 32.4258L23.4557 32.4904Z" fill="#FFB08C"/>
<path d="M23.5703 31.7423L21.7622 32.4677C21.7414 31.9393 22.4436 31.769 22.5338 31.7491C22.5075 31.744 22.4139 31.677 22.0868 31.2041C21.7266 30.6833 21.8524 30.1435 21.9838 29.9235C22.0075 29.8833 22.0317 29.854 22.0529 29.8371C22.163 29.7494 22.2775 29.8956 22.7067 30.2871C22.8169 30.3875 22.9478 30.5041 23.1046 30.6371C23.8729 31.2884 23.5957 31.6363 23.5703 31.7423Z" fill="#FFB08C"/>
<path d="M22.7056 30.3225C22.6429 30.4085 22.5111 30.5675 22.3887 30.5384C22.2476 30.5048 21.9514 30.2094 21.9828 30.0096C22.0065 29.975 22.0307 29.9498 22.0518 29.9352C22.162 29.8598 22.2764 29.9856 22.7056 30.3225Z" fill="#FFEBE8"/>
<path d="M20.7692 30.8539C20.7692 30.8539 19.3158 30.4934 19.226 30.4772C19.1362 30.4611 18.9505 30.7507 19.2782 31.1254C19.6059 31.5001 21.1949 31.888 21.1949 31.888L21.4698 31.1111L20.7692 30.8539Z" fill="#FFB08C"/>
<path d="M21.7015 32.5326C21.6998 32.532 21.7049 32.5131 21.7162 32.4773C21.7278 32.4417 21.7477 32.39 21.7777 32.3253C21.8393 32.1974 21.9466 32.0161 22.1328 31.8387C22.1797 31.7952 22.2303 31.7508 22.2869 31.7095C22.315 31.6886 22.3445 31.6684 22.375 31.6485C22.3834 31.6432 22.392 31.6378 22.4006 31.6323C22.4023 31.6315 22.3988 31.6301 22.3982 31.6291L22.3854 31.6175C22.2756 31.5153 22.1648 31.3976 22.067 31.2585C21.9696 31.1197 21.8863 30.9577 21.8432 30.7756C21.8008 30.5945 21.8007 30.3938 21.8631 30.2041C21.895 30.1098 21.9416 30.0212 22.003 29.945C22.0188 29.9261 22.0386 29.9039 22.0698 29.8935C22.101 29.8832 22.133 29.891 22.1567 29.9019C22.181 29.9129 22.2012 29.9275 22.2198 29.9406C22.2387 29.9538 22.2574 29.967 22.276 29.9801C22.4252 30.0851 22.5685 30.1881 22.7005 30.2925C22.9653 30.4999 23.1824 30.7173 23.3298 30.9265C23.4796 31.134 23.5613 31.3273 23.6029 31.4633C23.6231 31.5318 23.635 31.5859 23.6411 31.6229C23.6468 31.66 23.6489 31.6795 23.6471 31.6798C23.6421 31.6808 23.6293 31.6031 23.5831 31.4699C23.5359 31.3376 23.4505 31.1502 23.2993 30.9488C23.1504 30.7459 22.9342 30.5349 22.6701 30.3313C22.5383 30.229 22.3954 30.1273 22.2459 30.0231C22.2085 29.9984 22.1703 29.967 22.135 29.9502C22.0976 29.9327 22.0726 29.9423 22.0443 29.9787C21.9875 30.0494 21.9438 30.1324 21.9138 30.2211C21.8551 30.3995 21.8544 30.5908 21.8943 30.7639C21.9346 30.9375 22.0138 31.0948 22.1075 31.2304C22.2014 31.3665 22.3089 31.4831 22.4157 31.5851L22.4437 31.6113L22.462 31.6284L22.4711 31.637C22.4717 31.6376 22.473 31.6384 22.4731 31.639L22.4704 31.6407L22.4651 31.6439C22.4425 31.6577 22.4201 31.6713 22.3979 31.6848C22.3679 31.7037 22.3389 31.7229 22.3112 31.7429C22.2554 31.7823 22.2053 31.8248 22.1585 31.8664C21.9732 32.0363 21.8627 32.2112 21.7962 32.3347C21.7313 32.4597 21.7061 32.5343 21.7015 32.5326Z" fill="#2E2842"/>
<path d="M20.6752 31.434C20.6695 31.4329 20.6806 31.3371 20.7315 31.1905C20.7444 31.1539 20.7591 31.114 20.7784 31.0727C20.7958 31.0304 20.819 30.9875 20.8427 30.9419C20.8928 30.8523 20.955 30.7575 21.0301 30.6655C21.106 30.5742 21.1873 30.4952 21.2656 30.4289C21.3058 30.3969 21.3435 30.3659 21.3817 30.3408C21.4186 30.314 21.455 30.2919 21.4884 30.2723C21.6227 30.1944 21.7146 30.1652 21.7167 30.1705C21.7205 30.1787 21.6348 30.2199 21.5086 30.3044C21.4771 30.3256 21.4428 30.3489 21.4079 30.3767C21.3717 30.4028 21.336 30.4343 21.2977 30.4664C21.2231 30.5331 21.1452 30.6109 21.0714 30.6996C20.9984 30.789 20.9368 30.8803 20.8856 30.9663C20.8614 31.01 20.8373 31.0511 20.8186 31.0916C20.798 31.1311 20.7817 31.1693 20.7668 31.2042C20.708 31.3441 20.6839 31.4361 20.6752 31.434Z" fill="#2E2842"/>
<path d="M22.4013 29.8447C22.3976 29.8453 22.3882 29.811 22.3743 29.7484C22.3604 29.6857 22.3421 29.5948 22.3205 29.4823C22.2773 29.2573 22.2213 28.9458 22.1628 28.6011C22.1345 28.4293 22.1011 28.2641 22.1016 28.1087C22.1017 28.0313 22.1102 27.9572 22.1282 27.8899C22.1463 27.8223 22.1745 27.763 22.2074 27.7139C22.2727 27.6142 22.3565 27.5586 22.4176 27.5353C22.4798 27.5123 22.5171 27.5147 22.5171 27.5172C22.5179 27.5219 22.4822 27.5269 22.4261 27.5544C22.3708 27.5822 22.2965 27.6385 22.2394 27.7342C22.2105 27.7814 22.1862 27.8377 22.1712 27.9008C22.1562 27.9642 22.1497 28.0343 22.1509 28.1083C22.1528 28.2566 22.1871 28.4195 22.2155 28.5922C22.2741 28.9368 22.3242 29.2493 22.3578 29.476C22.3746 29.5893 22.3873 29.6812 22.3948 29.7449C22.4024 29.8085 22.4049 29.8441 22.4013 29.8447Z" fill="#2E2842"/>
<path d="M21.238 30.0305C21.2343 30.0318 21.2176 29.9923 21.1877 29.921C21.158 29.8496 21.1143 29.7467 21.0579 29.6205C20.9476 29.3677 20.7763 29.0227 20.6491 28.617C20.5834 28.4156 20.536 28.2139 20.5392 28.0261C20.539 27.8378 20.5999 27.6717 20.6785 27.5545C20.7179 27.4955 20.7618 27.4478 20.8048 27.4114C20.8487 27.376 20.89 27.35 20.9263 27.3342C20.9623 27.3181 20.9916 27.3087 21.012 27.3052C21.0323 27.3011 21.043 27.2998 21.0434 27.3016C21.0448 27.3066 21.0024 27.3162 20.9358 27.3528C20.9023 27.3707 20.8646 27.3981 20.8246 27.4338C20.7855 27.4706 20.7459 27.5176 20.7104 27.575C20.6395 27.6895 20.5857 27.847 20.5886 28.0264C20.5882 28.206 20.635 28.4012 20.7001 28.6006C20.826 29.0023 20.9908 29.3476 21.0928 29.6057C21.1449 29.7342 21.1835 29.8398 21.2073 29.9137C21.2312 29.9876 21.2413 30.0294 21.238 30.0305Z" fill="#2E2842"/>
<path d="M20.4554 30.3293C20.4502 30.3336 20.3662 30.2437 20.2463 30.0851C20.1267 29.9264 19.9719 29.6991 19.8305 29.4292C19.761 29.2935 19.7084 29.1541 19.6899 29.0205C19.67 28.8868 19.6881 28.7627 19.7233 28.6673C19.7582 28.5711 19.8105 28.5043 19.8518 28.4659C19.8935 28.4273 19.9222 28.4139 19.9238 28.4163C19.9265 28.42 19.9022 28.439 19.8669 28.4802C19.832 28.5214 19.7876 28.5874 19.7592 28.6795C19.7305 28.771 19.7173 28.8875 19.7387 29.013C19.7587 29.1391 19.8102 29.272 19.8782 29.4048C20.0174 29.6704 20.1662 29.9001 20.2771 30.0631C20.3883 30.2262 20.4617 30.3243 20.4554 30.3293Z" fill="#2E2842"/>
<path d="M21.2067 32.8614C21.2015 32.8649 21.1325 32.7755 21.05 32.6132C20.968 32.4513 20.8771 32.2132 20.8342 31.9376C20.8306 31.9121 20.827 31.8868 20.8235 31.8618L20.8194 31.8243L20.8174 31.8057L20.8174 31.8055C20.7082 31.7752 20.6053 31.7466 20.5124 31.7208C20.4146 31.6923 20.3273 31.6669 20.2544 31.6457C20.1089 31.6019 20.0217 31.5723 20.0235 31.5658C20.0252 31.5593 20.1155 31.5771 20.2634 31.6118C20.3372 31.6298 20.4255 31.6514 20.5245 31.6756C20.6285 31.7024 20.7437 31.7321 20.8661 31.7637C20.8694 31.7938 20.8729 31.8243 20.8764 31.8551C20.8799 31.8796 20.8835 31.9043 20.887 31.9293C20.929 32.1988 21.0121 32.4334 21.0842 32.5971C21.1568 32.7609 21.214 32.857 21.2067 32.8614Z" fill="#2E2842"/>
<path d="M20.0698 29.3393C20.0599 29.3472 19.9808 29.2607 19.9225 29.13C19.8635 28.9996 19.8513 28.883 19.8638 28.8809C19.8774 28.878 19.9097 28.9856 19.9662 29.1103C20.022 29.2355 20.081 29.3311 20.0698 29.3393Z" fill="white"/>
<path d="M19.7758 31.2121C19.769 31.2234 19.6668 31.1746 19.5476 31.103C19.4284 31.0314 19.3373 30.9642 19.3441 30.9528C19.3509 30.9415 19.4531 30.9903 19.5723 31.0619C19.6915 31.1335 19.7826 31.2007 19.7758 31.2121Z" fill="white"/>
<path d="M21.0094 28.8803C20.9992 28.8875 20.9072 28.7663 20.8445 28.5913C20.7808 28.4166 20.7739 28.2647 20.7864 28.2637C20.8003 28.2618 20.8279 28.4062 20.8896 28.575C20.9502 28.7442 21.0213 28.8729 21.0094 28.8803Z" fill="white"/>
<path d="M22.4046 28.8184C22.3924 28.8219 22.3371 28.6612 22.3064 28.4547C22.275 28.2482 22.2806 28.0784 22.2934 28.0781C22.3071 28.0776 22.3229 28.2442 22.3538 28.4476C22.3841 28.6509 22.4179 28.8148 22.4046 28.8184Z" fill="white"/>
<path d="M22.4798 31.3732C22.4699 31.3814 22.3663 31.2713 22.2631 31.1167C22.1596 30.9624 22.0974 30.8247 22.1088 30.8186C22.1207 30.8121 22.2009 30.9378 22.303 31.09C22.4048 31.2425 22.4904 31.3646 22.4798 31.3732Z" fill="white"/>
<path d="M22.39 31.9634C22.4002 31.974 22.2609 32.1025 22.1567 32.306C22.05 32.5084 22.025 32.6962 22.0104 32.6939C22.0044 32.6933 22.0027 32.6453 22.0159 32.569C22.0289 32.493 22.0596 32.3892 22.1141 32.2839C22.1689 32.1788 22.2362 32.0941 22.2909 32.0397C22.3458 31.9851 22.3861 31.9589 22.39 31.9634Z" fill="white"/>
<path d="M20.3249 29.4809C20.3365 29.4947 20.3097 29.5365 20.2649 29.5744C20.2202 29.6123 20.1745 29.6318 20.1629 29.6181C20.1512 29.6044 20.1781 29.5626 20.2229 29.5247C20.2676 29.4868 20.3133 29.4672 20.3249 29.4809Z" fill="#FF8F53"/>
<path d="M20.7607 30.18C20.7719 30.194 20.7532 30.2277 20.7187 30.2552C20.6843 30.2828 20.6473 30.2937 20.6361 30.2797C20.6248 30.2657 20.6436 30.2319 20.6781 30.2044C20.7125 30.1769 20.7495 30.1659 20.7607 30.18Z" fill="#FF8F53"/>
<path d="M21.1484 28.9455C21.1586 28.9603 21.1307 28.9974 21.086 29.0285C21.0413 29.0595 20.9967 29.0727 20.9865 29.0579C20.9762 29.0431 21.0042 29.006 21.0489 28.975C21.0936 28.9439 21.1381 28.9307 21.1484 28.9455Z" fill="#FF8F53"/>
<path d="M21.561 29.7805C21.572 29.7947 21.5559 29.8257 21.5249 29.8498C21.4939 29.8739 21.4598 29.8819 21.4488 29.8677C21.4377 29.8535 21.4539 29.8225 21.4849 29.7984C21.5159 29.7743 21.5499 29.7663 21.561 29.7805Z" fill="#FF8F53"/>
<path d="M22.6703 28.8693C22.6794 28.8848 22.6393 28.9253 22.5808 28.9597C22.5223 28.9942 22.4674 29.0095 22.4583 28.994C22.4492 28.9785 22.4893 28.9381 22.5478 28.9036C22.6063 28.8692 22.6611 28.8538 22.6703 28.8693Z" fill="#FF8F53"/>
<path d="M22.8079 29.7054C22.8175 29.7202 22.7712 29.7659 22.6969 29.7881C22.6227 29.8105 22.5588 29.7978 22.5586 29.7802C22.558 29.7619 22.6131 29.7455 22.6781 29.7257C22.7434 29.7065 22.7984 29.6898 22.8079 29.7054Z" fill="#FF8F53"/>
<path d="M20.0028 31.2026C20.0189 31.2106 20.0151 31.2506 19.9945 31.2919C19.9738 31.3333 19.944 31.3602 19.928 31.3522C19.9119 31.3441 19.9156 31.3041 19.9362 31.2628C19.9569 31.2215 19.9867 31.1946 20.0028 31.2026Z" fill="#FF8F53"/>
<path d="M20.5998 31.4005C20.6177 31.4023 20.6294 31.4316 20.626 31.4661C20.6225 31.5005 20.6052 31.5269 20.5873 31.5252C20.5694 31.5234 20.5577 31.494 20.5611 31.4596C20.5646 31.4251 20.5819 31.3987 20.5998 31.4005Z" fill="#FF8F53"/>
<path d="M22.9924 30.6878C23.0007 30.7043 22.9625 30.7396 22.922 30.7849C22.8808 30.8295 22.8491 30.8709 22.832 30.8642C22.8154 30.8585 22.8237 30.7959 22.8738 30.7411C22.9237 30.686 22.9851 30.6718 22.9924 30.6878Z" fill="#FF8F53"/>
<path d="M23.4561 31.4627C23.4705 31.4735 23.4654 31.5046 23.4447 31.5321C23.4241 31.5596 23.3956 31.5732 23.3812 31.5624C23.3668 31.5517 23.3719 31.5206 23.3926 31.493C23.4133 31.4655 23.4417 31.4519 23.4561 31.4627Z" fill="#FF8F53"/>
</g>
<rect x="0.0234375" y="0.0234375" width="26.0607" height="32.6289" rx="0.847503" stroke="white" stroke-opacity="0.4" stroke-width="0.0468805"/>
<defs>
<clipPath id="clip0_1091_641">
<rect x="0.0234375" y="0.0234375" width="26.0607" height="32.6289" rx="0.847503" fill="white"/>
</clipPath>
</defs>
</svg>
