<svg width="27" height="33" viewBox="0 0 27 33" fill="none" xmlns="http://www.w3.org/2000/svg">
<g clip-path="url(#clip0_1091_434)">
<rect width="26.0576" height="32.625" rx="0.847403" fill="#DF91B5"/>
<g clip-path="url(#clip1_1091_434)">
<path d="M26.0462 0H-6.56836V32.6145H26.0462V0Z" fill="#DF91B5"/>
<path d="M2.12939 2.17383H-0.0449219V4.34813H2.12939V2.17383Z" fill="#B70012"/>
<path d="M4.3032 0H2.12891V2.1743H4.3032V0Z" fill="#B70012"/>
<path d="M6.47703 2.17383H4.30273V4.34813H6.47703V2.17383Z" fill="#B70012"/>
<path d="M8.65283 0H6.47852V2.1743H8.65283V0Z" fill="#B70012"/>
<path d="M10.8266 2.17383H8.65234V4.34813H10.8266V2.17383Z" fill="#B70012"/>
<path d="M13.0005 0H10.8262V2.1743H13.0005V0Z" fill="#B70012"/>
<path d="M15.1763 2.17383H13.002V4.34813H15.1763V2.17383Z" fill="#B70012"/>
<path d="M17.3501 0H15.1758V2.1743H17.3501V0Z" fill="#B70012"/>
<path d="M19.5239 2.17383H17.3496V4.34813H19.5239V2.17383Z" fill="#B70012"/>
<path d="M21.6978 0H19.5234V2.1743H21.6978V0Z" fill="#B70012"/>
<path d="M23.8716 2.17383H21.6973V4.34813H23.8716V2.17383Z" fill="#B70012"/>
<path d="M26.0454 0H23.8711V2.1743H26.0454V0Z" fill="#B70012"/>
<path d="M2.12939 6.52344H-0.0449219V8.69774H2.12939V6.52344Z" fill="#B70012"/>
<path d="M4.3032 4.34766H2.12891V6.52195H4.3032V4.34766Z" fill="#B70012"/>
<path d="M6.47703 6.52344H4.30273V8.69774H6.47703V6.52344Z" fill="#B70012"/>
<path d="M8.65283 4.34766H6.47852V6.52195H8.65283V4.34766Z" fill="#B70012"/>
<path d="M10.8266 6.52344H8.65234V8.69774H10.8266V6.52344Z" fill="#B70012"/>
<path d="M13.0005 4.34766H10.8262V6.52195H13.0005V4.34766Z" fill="#B70012"/>
<path d="M15.1763 6.52344H13.002V8.69774H15.1763V6.52344Z" fill="#B70012"/>
<path d="M17.3501 4.34766H15.1758V6.52195H17.3501V4.34766Z" fill="#B70012"/>
<path d="M19.5239 6.52344H17.3496V8.69774H19.5239V6.52344Z" fill="#B70012"/>
<path d="M21.6978 4.34766H19.5234V6.52195H21.6978V4.34766Z" fill="#B70012"/>
<path d="M23.8716 6.52344H21.6973V8.69774H23.8716V6.52344Z" fill="#B70012"/>
<path d="M26.0454 4.34766H23.8711V6.52195H26.0454V4.34766Z" fill="#B70012"/>
<path d="M2.12939 10.8711H-0.0449219V13.0454H2.12939V10.8711Z" fill="#B70012"/>
<path d="M4.3032 8.69727H2.12891V10.8716H4.3032V8.69727Z" fill="#B70012"/>
<path d="M6.47703 10.8711H4.30273V13.0454H6.47703V10.8711Z" fill="#B70012"/>
<path d="M8.65283 8.69727H6.47852V10.8716H8.65283V8.69727Z" fill="#B70012"/>
<path d="M10.8266 10.8711H8.65234V13.0454H10.8266V10.8711Z" fill="#B70012"/>
<path d="M13.0005 8.69727H10.8262V10.8716H13.0005V8.69727Z" fill="#B70012"/>
<path d="M15.1763 10.8711H13.002V13.0454H15.1763V10.8711Z" fill="#B70012"/>
<path d="M17.3501 8.69727H15.1758V10.8716H17.3501V8.69727Z" fill="#B70012"/>
<path d="M19.5239 10.8711H17.3496V13.0454H19.5239V10.8711Z" fill="#B70012"/>
<path d="M21.6978 8.69727H19.5234V10.8716H21.6978V8.69727Z" fill="#B70012"/>
<path d="M23.8716 10.8711H21.6973V13.0454H23.8716V10.8711Z" fill="#B70012"/>
<path d="M26.0454 8.69727H23.8711V10.8716H26.0454V8.69727Z" fill="#B70012"/>
<path d="M2.12939 15.2188H-0.0449219V17.393H2.12939V15.2188Z" fill="#B70012"/>
<path d="M4.3032 13.0469H2.12891V15.2212H4.3032V13.0469Z" fill="#B70012"/>
<path d="M6.47703 15.2188H4.30273V17.393H6.47703V15.2188Z" fill="#B70012"/>
<path d="M8.65283 13.0469H6.47852V15.2212H8.65283V13.0469Z" fill="#B70012"/>
<path d="M10.8266 15.2188H8.65234V17.393H10.8266V15.2188Z" fill="#B70012"/>
<path d="M13.0005 13.0469H10.8262V15.2212H13.0005V13.0469Z" fill="#B70012"/>
<path d="M15.1763 15.2188H13.002V17.393H15.1763V15.2188Z" fill="#B70012"/>
<path d="M17.3501 13.0469H15.1758V15.2212H17.3501V13.0469Z" fill="#B70012"/>
<path d="M19.5239 15.2188H17.3496V17.393H19.5239V15.2188Z" fill="#B70012"/>
<path d="M21.6978 13.0469H19.5234V15.2212H21.6978V13.0469Z" fill="#B70012"/>
<path d="M23.8716 15.2188H21.6973V17.393H23.8716V15.2188Z" fill="#B70012"/>
<path d="M26.0454 13.0469H23.8711V15.2212H26.0454V13.0469Z" fill="#B70012"/>
<path d="M2.12939 19.5684H-0.0449219V21.7427H2.12939V19.5684Z" fill="#B70012"/>
<path d="M4.3032 17.3945H2.12891V19.5688H4.3032V17.3945Z" fill="#B70012"/>
<path d="M6.47703 19.5684H4.30273V21.7427H6.47703V19.5684Z" fill="#B70012"/>
<path d="M8.65283 17.3945H6.47852V19.5688H8.65283V17.3945Z" fill="#B70012"/>
<path d="M10.8266 19.5684H8.65234V21.7427H10.8266V19.5684Z" fill="#B70012"/>
<path d="M13.0005 17.3945H10.8262V19.5688H13.0005V17.3945Z" fill="#B70012"/>
<path d="M15.1763 19.5684H13.002V21.7427H15.1763V19.5684Z" fill="#B70012"/>
<path d="M17.3501 17.3945H15.1758V19.5688H17.3501V17.3945Z" fill="#B70012"/>
<path d="M19.5239 19.5684H17.3496V21.7427H19.5239V19.5684Z" fill="#B70012"/>
<path d="M21.6978 17.3945H19.5234V19.5688H21.6978V17.3945Z" fill="#B70012"/>
<path d="M23.8716 19.5684H21.6973V21.7427H23.8716V19.5684Z" fill="#B70012"/>
<path d="M26.0454 17.3945H23.8711V19.5688H26.0454V17.3945Z" fill="#B70012"/>
<path d="M2.12939 23.918H-0.0449219V26.0923H2.12939V23.918Z" fill="#B70012"/>
<path d="M4.3032 21.7422H2.12891V23.9165H4.3032V21.7422Z" fill="#B70012"/>
<path d="M6.47703 23.918H4.30273V26.0923H6.47703V23.918Z" fill="#B70012"/>
<path d="M8.65283 21.7422H6.47852V23.9165H8.65283V21.7422Z" fill="#B70012"/>
<path d="M10.8266 23.918H8.65234V26.0923H10.8266V23.918Z" fill="#B70012"/>
<path d="M13.0005 21.7422H10.8262V23.9165H13.0005V21.7422Z" fill="#B70012"/>
<path d="M15.1763 23.918H13.002V26.0923H15.1763V23.918Z" fill="#B70012"/>
<path d="M17.3501 21.7422H15.1758V23.9165H17.3501V21.7422Z" fill="#B70012"/>
<path d="M19.5239 23.918H17.3496V26.0923H19.5239V23.918Z" fill="#B70012"/>
<path d="M21.6978 21.7422H19.5234V23.9165H21.6978V21.7422Z" fill="#B70012"/>
<path d="M23.8716 23.918H21.6973V26.0923H23.8716V23.918Z" fill="#B70012"/>
<path d="M26.0454 21.7422H23.8711V23.9165H26.0454V21.7422Z" fill="#B70012"/>
<path d="M2.12939 28.2656H-0.0449219V30.4399H2.12939V28.2656Z" fill="#B70012"/>
<path d="M4.3032 26.0918H2.12891V28.2661H4.3032V26.0918Z" fill="#B70012"/>
<path d="M6.47703 28.2656H4.30273V30.4399H6.47703V28.2656Z" fill="#B70012"/>
<path d="M8.65283 26.0918H6.47852V28.2661H8.65283V26.0918Z" fill="#B70012"/>
<path d="M10.8266 28.2656H8.65234V30.4399H10.8266V28.2656Z" fill="#B70012"/>
<path d="M13.0005 26.0918H10.8262V28.2661H13.0005V26.0918Z" fill="#B70012"/>
<path d="M15.1763 28.2656H13.002V30.4399H15.1763V28.2656Z" fill="#B70012"/>
<path d="M17.3501 26.0918H15.1758V28.2661H17.3501V26.0918Z" fill="#B70012"/>
<path d="M19.5239 28.2656H17.3496V30.4399H19.5239V28.2656Z" fill="#B70012"/>
<path d="M21.6978 26.0918H19.5234V28.2661H21.6978V26.0918Z" fill="#B70012"/>
<path d="M23.8716 28.2656H21.6973V30.4399H23.8716V28.2656Z" fill="#B70012"/>
<path d="M26.0454 26.0918H23.8711V28.2661H26.0454V26.0918Z" fill="#B70012"/>
<path d="M4.3032 30.4395H2.12891V32.6138H4.3032V30.4395Z" fill="#B70012"/>
<path d="M8.65283 30.4395H6.47852V32.6138H8.65283V30.4395Z" fill="#B70012"/>
<path d="M13.0005 30.4395H10.8262V32.6138H13.0005V30.4395Z" fill="#B70012"/>
<path d="M17.3501 30.4395H15.1758V32.6138H17.3501V30.4395Z" fill="#B70012"/>
<path d="M21.6978 30.4395H19.5234V32.6138H21.6978V30.4395Z" fill="#B70012"/>
<path d="M26.0454 30.4395H23.8711V32.6138H26.0454V30.4395Z" fill="#B70012"/>
<rect width="22.1384" height="28.4727" transform="translate(1.73633 2.16016)" fill="#B70012"/>
</g>
<path d="M7.87544 9.4467L9.16694 9.2622L9.15344 8.8932L7.81694 7.9077L7.95194 7.5927L9.56294 7.3002L9.62144 7.6647L8.36594 7.8852L9.52244 8.7042L9.55394 9.5682L7.92944 9.7977L7.87544 9.4467ZM10.861 9.2667L11.4865 9.3432L11.617 7.8222L10.582 7.7322L10.6585 10.8912H10.267L10.177 7.3317L12.0445 7.5027L11.8465 9.7437L10.816 9.6402L10.861 9.2667ZM12.5982 6.4317H13.1202V6.9537H12.5982V6.4317ZM12.6612 7.3632H13.0527V9.7527H12.6612V7.3632ZM13.7584 7.4127L15.6079 7.2867L15.1309 8.5062L14.7529 8.3847L15.0274 7.6827L14.1634 7.7502L14.2444 9.3792L15.6214 9.1632L15.6574 9.5322L13.8664 9.7887L13.7584 7.4127ZM17.895 7.3272L18.264 7.4802L16.725 10.8912L16.356 10.7472L17.895 7.3272ZM15.9015 7.4937L16.2705 7.3317L17.0355 9.1137L16.671 9.2847L15.9015 7.4937ZM5.2585 16.4467L6.55 16.2622L6.5365 15.8932L5.2 14.9077L5.335 14.5927L6.946 14.3002L7.0045 14.6647L5.749 14.8852L6.9055 15.7042L6.937 16.5682L5.3125 16.7977L5.2585 16.4467ZM7.82561 14.8177L7.32611 14.8627L7.29461 14.4982L7.82561 14.4487V13.5577H8.21711V14.4172L8.81561 14.3632L8.84711 14.7277L8.21711 14.7817V16.3612L8.77061 16.2847L8.80211 16.6582L7.82561 16.7752V14.8177ZM10.6348 16.3477L9.37027 16.7662L9.00127 15.5197L10.0858 15.0787L10.2163 15.4072L9.45127 15.7132L9.63127 16.2892L10.5538 15.9967L10.2703 14.7322L9.13177 14.9527L9.04627 14.5972L10.5763 14.3137L11.1073 16.6582L10.7248 16.7662L10.6348 16.3477ZM11.9608 14.8132L12.7168 14.3182L12.9283 14.6422L12.1813 15.1372L11.9608 14.8132ZM11.5153 14.3407L11.9068 14.3272L11.9923 16.7527L11.6008 16.7662L11.5153 14.3407ZM13.5693 14.8177L13.0698 14.8627L13.0383 14.4982L13.5693 14.4487V13.5577H13.9608V14.4172L14.5593 14.3632L14.5908 14.7277L13.9608 14.7817V16.3612L14.5143 16.2847L14.5458 16.6582L13.5693 16.7752V14.8177ZM14.8979 14.4712L16.7024 14.2957L16.5899 15.7087H15.6269V15.3532H16.2119L16.2704 14.6827L15.3119 14.7817L15.4334 16.3702L16.8734 16.1452L16.9004 16.5142L15.0734 16.7797L14.8979 14.4712ZM17.7791 14.8132L18.5351 14.3182L18.7466 14.6422L17.9996 15.1372L17.7791 14.8132ZM17.3336 14.3407L17.7251 14.3272L17.8106 16.7527L17.4191 16.7662L17.3336 14.3407ZM18.9826 16.4467L20.2741 16.2622L20.2606 15.8932L18.9241 14.9077L19.0591 14.5927L20.6701 14.3002L20.7286 14.6647L19.4731 14.8852L20.6296 15.7042L20.6611 16.5682L19.0366 16.7977L18.9826 16.4467Z" fill="#DF91B5"/>
<path d="M9.65265 26.9396C9.59075 26.9396 9.53564 26.9241 9.48731 26.8929C9.43898 26.8618 9.40108 26.818 9.3736 26.7614C9.34646 26.7044 9.33289 26.6374 9.33289 26.5603C9.33289 26.4828 9.34646 26.4156 9.3736 26.3587C9.40108 26.3017 9.43898 26.2577 9.48731 26.2266C9.53564 26.1955 9.59075 26.1799 9.65265 26.1799C9.69204 26.1799 9.72812 26.1861 9.76089 26.1983C9.79399 26.2106 9.82329 26.2276 9.84878 26.2494C9.87427 26.2713 9.89512 26.2969 9.91134 26.3264C9.92789 26.3555 9.93915 26.3872 9.9451 26.4212H9.87708C9.87211 26.3958 9.86301 26.3723 9.84977 26.3507C9.83653 26.3292 9.81998 26.3104 9.80012 26.2941C9.78059 26.2779 9.75841 26.2653 9.73358 26.2564C9.70876 26.2475 9.68178 26.243 9.65265 26.243C9.60598 26.243 9.56328 26.2552 9.52455 26.2797C9.48615 26.3039 9.45536 26.3397 9.43219 26.387C9.40935 26.434 9.39793 26.4918 9.39793 26.5603C9.39793 26.6288 9.40935 26.6866 9.43219 26.7336C9.45536 26.7806 9.48615 26.8161 9.52455 26.8403C9.56328 26.8645 9.60598 26.8766 9.65265 26.8766C9.68178 26.8766 9.70876 26.8721 9.73358 26.8632C9.75841 26.8542 9.78059 26.8416 9.80012 26.8254C9.81998 26.8092 9.83653 26.7903 9.84977 26.7688C9.86301 26.7473 9.87211 26.7238 9.87708 26.6983H9.9451C9.93915 26.7324 9.92789 26.7642 9.91134 26.7936C9.89512 26.8228 9.87427 26.8483 9.84878 26.8701C9.82329 26.892 9.79399 26.909 9.76089 26.9212C9.72812 26.9335 9.69204 26.9396 9.65265 26.9396ZM10.3602 26.9396C10.298 26.9396 10.2427 26.9241 10.1944 26.8929C10.146 26.8618 10.1081 26.8178 10.0807 26.7609C10.0535 26.7039 10.0399 26.6371 10.0399 26.5603C10.0399 26.4831 10.0537 26.4161 10.0812 26.3592C10.1086 26.3019 10.1464 26.2577 10.1944 26.2266C10.2427 26.1955 10.298 26.1799 10.3602 26.1799C10.4224 26.1799 10.4775 26.1955 10.5255 26.2266C10.5735 26.2577 10.6111 26.3019 10.6383 26.3592C10.6657 26.4161 10.6795 26.4831 10.6795 26.5603C10.6795 26.6371 10.6657 26.7039 10.6383 26.7609C10.6111 26.8178 10.5735 26.8618 10.5255 26.8929C10.4775 26.9241 10.4224 26.9396 10.3602 26.9396ZM10.3602 26.8766C10.4085 26.8766 10.4519 26.864 10.4903 26.8388C10.5287 26.8137 10.559 26.7776 10.5812 26.7306C10.6033 26.6832 10.6144 26.6265 10.6144 26.5603C10.6144 26.4937 10.6033 26.4368 10.5812 26.3895C10.559 26.3421 10.5287 26.3059 10.4903 26.2807C10.4519 26.2556 10.4085 26.243 10.3602 26.243C10.3119 26.243 10.2683 26.2556 10.2296 26.2807C10.1912 26.3059 10.1608 26.3421 10.1383 26.3895C10.1161 26.4368 10.105 26.4937 10.105 26.5603C10.105 26.6261 10.1161 26.6827 10.1383 26.7301C10.1604 26.7774 10.1907 26.8137 10.2291 26.8388C10.2678 26.864 10.3115 26.8766 10.3602 26.8766ZM11.3875 26.1899V26.9297H11.321L10.8845 26.3105H10.8781V26.9297H10.8105V26.1899H10.8761L11.315 26.81H11.3205V26.1899H11.3875ZM11.5538 26.1899L11.7847 26.8418H11.7917L12.0231 26.1899H12.0936L11.8245 26.9297H11.7525L11.4828 26.1899H11.5538ZM12.1879 26.9297V26.1899H12.6174V26.2509H12.2554V26.527H12.5946V26.5876H12.2554V26.8691H12.6244V26.9297H12.1879ZM12.7599 26.9297V26.1899H12.9992C13.0519 26.1899 13.0957 26.1995 13.1308 26.2187C13.1659 26.2375 13.1924 26.2637 13.2103 26.2971C13.2285 26.3305 13.2376 26.3688 13.2376 26.4118C13.2376 26.4548 13.2286 26.4929 13.2107 26.526C13.1929 26.5588 13.1662 26.5844 13.1308 26.603C13.0957 26.6215 13.0522 26.6308 13.0002 26.6308H12.7971V26.5692H12.9982C13.037 26.5692 13.0691 26.5628 13.0946 26.5498C13.1201 26.5369 13.1391 26.5187 13.1517 26.4952C13.1646 26.4717 13.171 26.4439 13.171 26.4118C13.171 26.3794 13.1646 26.3511 13.1517 26.3269C13.1388 26.3027 13.1196 26.284 13.0941 26.2708C13.0686 26.2576 13.0363 26.2509 12.9972 26.2509H12.8274V26.9297H12.7599ZM13.1899 26.9297L13.0102 26.5955H13.0866L13.2683 26.9297H13.1899ZM13.5916 26.9421C13.5413 26.9421 13.4976 26.9338 13.4605 26.9173C13.4234 26.9007 13.3943 26.8776 13.3731 26.8478C13.3519 26.818 13.34 26.7835 13.3374 26.7445H13.4064C13.409 26.7739 13.4186 26.7988 13.4352 26.819C13.4521 26.8392 13.4741 26.8545 13.5012 26.8651C13.5284 26.8754 13.5585 26.8805 13.5916 26.8805C13.6287 26.8805 13.6616 26.8744 13.6904 26.8622C13.7192 26.8496 13.7417 26.8322 13.7579 26.81C13.7745 26.7878 13.7827 26.7619 13.7827 26.7321C13.7827 26.7069 13.7761 26.6859 13.7629 26.669C13.75 26.6521 13.7319 26.6379 13.7088 26.6263C13.6856 26.6147 13.6586 26.6045 13.6278 26.5955L13.5399 26.5697C13.482 26.5528 13.437 26.529 13.4049 26.4982C13.3728 26.4674 13.3567 26.4284 13.3567 26.381C13.3567 26.3413 13.3673 26.3064 13.3885 26.2763C13.41 26.2458 13.439 26.2221 13.4754 26.2053C13.5118 26.188 13.5527 26.1794 13.598 26.1794C13.644 26.1794 13.6848 26.188 13.7202 26.2053C13.7556 26.2221 13.7837 26.2453 13.8046 26.2748C13.8254 26.3039 13.8367 26.3372 13.8384 26.3746H13.7723C13.7683 26.3335 13.7503 26.3009 13.7182 26.2768C13.6861 26.2523 13.6454 26.24 13.5961 26.24C13.562 26.24 13.5318 26.246 13.5057 26.2579C13.4795 26.2698 13.459 26.2862 13.4441 26.307C13.4296 26.3279 13.4223 26.3516 13.4223 26.378C13.4223 26.4039 13.4296 26.4255 13.4441 26.4431C13.4587 26.4603 13.4772 26.4744 13.4997 26.4853C13.5222 26.4962 13.5454 26.5053 13.5692 26.5126L13.6472 26.535C13.6707 26.5419 13.6942 26.5505 13.7177 26.5608C13.7412 26.5707 13.7627 26.5833 13.7822 26.5985C13.8021 26.6137 13.818 26.6324 13.8299 26.6546C13.8422 26.6765 13.8483 26.7028 13.8483 26.7336C13.8483 26.7726 13.838 26.808 13.8175 26.8398C13.797 26.8713 13.7675 26.8963 13.7291 26.9148C13.6911 26.933 13.6452 26.9421 13.5916 26.9421ZM13.9809 26.9297H13.9099L14.1795 26.1899H14.2515L14.5206 26.9297H14.4501L14.2177 26.2778H14.2127L13.9809 26.9297ZM14.032 26.6462H14.3989V26.7067H14.032V26.6462ZM14.4838 26.2509V26.1899H15.0206V26.2509H14.7862V26.9297H14.7192V26.2509H14.4838ZM15.2078 26.1899V26.9297H15.1402V26.1899H15.2078ZM15.6601 26.9396C15.5979 26.9396 15.5426 26.9241 15.4943 26.8929C15.4459 26.8618 15.408 26.8178 15.3806 26.7609C15.3534 26.7039 15.3398 26.6371 15.3398 26.5603C15.3398 26.4831 15.3536 26.4161 15.3811 26.3592C15.4085 26.3019 15.4463 26.2577 15.4943 26.2266C15.5426 26.1955 15.5979 26.1799 15.6601 26.1799C15.7223 26.1799 15.7775 26.1955 15.8254 26.2266C15.8734 26.2577 15.911 26.3019 15.9382 26.3592C15.9656 26.4161 15.9794 26.4831 15.9794 26.5603C15.9794 26.6371 15.9656 26.7039 15.9382 26.7609C15.911 26.8178 15.8734 26.8618 15.8254 26.8929C15.7775 26.9241 15.7223 26.9396 15.6601 26.9396ZM15.6601 26.8766C15.7084 26.8766 15.7518 26.864 15.7902 26.8388C15.8286 26.8137 15.8589 26.7776 15.8811 26.7306C15.9032 26.6832 15.9143 26.6265 15.9143 26.5603C15.9143 26.4937 15.9032 26.4368 15.8811 26.3895C15.8589 26.3421 15.8286 26.3059 15.7902 26.2807C15.7518 26.2556 15.7084 26.243 15.6601 26.243C15.6118 26.243 15.5682 26.2556 15.5295 26.2807C15.4911 26.3059 15.4607 26.3421 15.4382 26.3895C15.416 26.4368 15.4049 26.4937 15.4049 26.5603C15.4049 26.6261 15.416 26.6827 15.4382 26.7301C15.4603 26.7774 15.4906 26.8137 15.529 26.8388C15.5678 26.864 15.6114 26.8766 15.6601 26.8766ZM16.6874 26.1899V26.9297H16.6209L16.1844 26.3105H16.178V26.9297H16.1105V26.1899H16.176L16.6149 26.81H16.6204V26.1899H16.6874ZM9.27877 27.9396C9.21687 27.9396 9.16175 27.9241 9.11342 27.8929C9.0651 27.8618 9.02719 27.818 8.99972 27.7614C8.97258 27.7044 8.95901 27.6374 8.95901 27.5603C8.95901 27.4828 8.97258 27.4156 8.99972 27.3587C9.02719 27.3017 9.0651 27.2577 9.11342 27.2266C9.16175 27.1955 9.21687 27.1799 9.27877 27.1799C9.31816 27.1799 9.35424 27.1861 9.38701 27.1983C9.42011 27.2106 9.44941 27.2276 9.47489 27.2494C9.50038 27.2713 9.52124 27.2969 9.53746 27.3264C9.55401 27.3555 9.56526 27.3872 9.57122 27.4212H9.5032C9.49823 27.3958 9.48913 27.3723 9.47589 27.3507C9.46265 27.3292 9.4461 27.3104 9.42624 27.2941C9.40671 27.2779 9.38453 27.2653 9.3597 27.2564C9.33487 27.2475 9.3079 27.243 9.27877 27.243C9.23209 27.243 9.18939 27.2552 9.15066 27.2797C9.11227 27.3039 9.08148 27.3397 9.05831 27.387C9.03547 27.434 9.02405 27.4918 9.02405 27.5603C9.02405 27.6288 9.03547 27.6866 9.05831 27.7336C9.08148 27.7806 9.11227 27.8161 9.15066 27.8403C9.18939 27.8645 9.23209 27.8766 9.27877 27.8766C9.3079 27.8766 9.33487 27.8721 9.3597 27.8632C9.38453 27.8542 9.40671 27.8416 9.42624 27.8254C9.4461 27.8092 9.46265 27.7903 9.47589 27.7688C9.48913 27.7473 9.49823 27.7238 9.5032 27.6983H9.57122C9.56526 27.7324 9.55401 27.7642 9.53746 27.7936C9.52124 27.8228 9.50038 27.8483 9.47489 27.8701C9.44941 27.892 9.42011 27.909 9.38701 27.9212C9.35424 27.9335 9.31816 27.9396 9.27877 27.9396ZM9.70032 27.9297H9.62931L9.89893 27.1899H9.97092L10.24 27.9297H10.1695L9.93716 27.2778H9.93219L9.70032 27.9297ZM9.75146 27.6462H10.1184V27.7067H9.75146V27.6462ZM10.3344 27.9297V27.1899H10.5737C10.6263 27.1899 10.6702 27.1995 10.7053 27.2187C10.7404 27.2375 10.7669 27.2637 10.7847 27.2971C10.8029 27.3305 10.812 27.3688 10.812 27.4118C10.812 27.4548 10.8031 27.4929 10.7852 27.526C10.7673 27.5588 10.7407 27.5844 10.7053 27.603C10.6702 27.6215 10.6267 27.6308 10.5747 27.6308H10.3716V27.5692H10.5727C10.6114 27.5692 10.6435 27.5628 10.669 27.5498C10.6945 27.5369 10.7136 27.5187 10.7261 27.4952C10.739 27.4717 10.7455 27.4439 10.7455 27.4118C10.7455 27.3794 10.739 27.3511 10.7261 27.3269C10.7132 27.3027 10.694 27.284 10.6685 27.2708C10.6431 27.2576 10.6108 27.2509 10.5717 27.2509H10.4019V27.9297H10.3344ZM10.7644 27.9297L10.5846 27.5955H10.6611L10.8428 27.9297H10.7644ZM11.1621 27.9297H10.9828V27.8691H11.1581C11.2217 27.8691 11.2748 27.8567 11.3175 27.8319C11.3605 27.8067 11.3928 27.771 11.4143 27.7246C11.4358 27.6779 11.4466 27.6223 11.4466 27.5578C11.4466 27.4942 11.436 27.4396 11.4148 27.3939C11.394 27.3479 11.363 27.3127 11.322 27.2882C11.2813 27.2634 11.2309 27.2509 11.171 27.2509H10.9804V27.1899H11.175C11.2455 27.1899 11.3059 27.2046 11.3562 27.2341C11.4065 27.2635 11.4449 27.3057 11.4714 27.3607C11.4982 27.4156 11.5116 27.4813 11.5116 27.5578C11.5116 27.6356 11.4979 27.7023 11.4704 27.7579C11.4433 27.8132 11.4036 27.8557 11.3513 27.8855C11.2993 27.915 11.2362 27.9297 11.1621 27.9297ZM11.0126 27.1899V27.9297H10.9451V27.1899H11.0126ZM11.8642 27.9421C11.8139 27.9421 11.7702 27.9338 11.7331 27.9173C11.696 27.9007 11.6669 27.8776 11.6457 27.8478C11.6245 27.818 11.6126 27.7835 11.61 27.7445H11.679C11.6816 27.7739 11.6912 27.7988 11.7078 27.819C11.7246 27.8392 11.7467 27.8545 11.7738 27.8651C11.8009 27.8754 11.8311 27.8805 11.8642 27.8805C11.9012 27.8805 11.9342 27.8744 11.963 27.8622C11.9918 27.8496 12.0143 27.8322 12.0305 27.81C12.0471 27.7878 12.0553 27.7619 12.0553 27.7321C12.0553 27.7069 12.0487 27.6859 12.0355 27.669C12.0226 27.6521 12.0045 27.6379 11.9814 27.6263C11.9582 27.6147 11.9312 27.6045 11.9004 27.5955L11.8125 27.5697C11.7546 27.5528 11.7096 27.529 11.6775 27.4982C11.6454 27.4674 11.6293 27.4284 11.6293 27.381C11.6293 27.3413 11.6399 27.3064 11.6611 27.2763C11.6826 27.2458 11.7116 27.2221 11.748 27.2053C11.7844 27.188 11.8253 27.1794 11.8706 27.1794C11.9166 27.1794 11.9574 27.188 11.9928 27.2053C12.0282 27.2221 12.0563 27.2453 12.0772 27.2748C12.098 27.3039 12.1093 27.3372 12.1109 27.3746H12.0449C12.0409 27.3335 12.0229 27.3009 11.9908 27.2768C11.9587 27.2523 11.918 27.24 11.8686 27.24C11.8345 27.24 11.8044 27.246 11.7783 27.2579C11.7521 27.2698 11.7316 27.2862 11.7167 27.307C11.7021 27.3279 11.6949 27.3516 11.6949 27.378C11.6949 27.4039 11.7021 27.4255 11.7167 27.4431C11.7313 27.4603 11.7498 27.4744 11.7723 27.4853C11.7948 27.4962 11.818 27.5053 11.8418 27.5126L11.9198 27.535C11.9433 27.5419 11.9668 27.5505 11.9903 27.5608C12.0138 27.5707 12.0353 27.5833 12.0548 27.5985C12.0747 27.6137 12.0906 27.6324 12.1025 27.6546C12.1148 27.6765 12.1209 27.7028 12.1209 27.7336C12.1209 27.7726 12.1106 27.808 12.0901 27.8398C12.0696 27.8713 12.0401 27.8963 12.0017 27.9148C11.9636 27.933 11.9178 27.9421 11.8642 27.9421ZM12.4615 27.2509V27.1899H12.9982V27.2509H12.7639V27.9297H12.6968V27.2509H12.4615ZM13.3756 27.9396C13.3134 27.9396 13.2581 27.9241 13.2098 27.8929C13.1614 27.8618 13.1235 27.8178 13.0961 27.7609C13.0689 27.7039 13.0553 27.6371 13.0553 27.5603C13.0553 27.4831 13.0691 27.4161 13.0965 27.3592C13.124 27.3019 13.1618 27.2577 13.2098 27.2266C13.2581 27.1955 13.3134 27.1799 13.3756 27.1799C13.4378 27.1799 13.4929 27.1955 13.5409 27.2266C13.5889 27.2577 13.6265 27.3019 13.6536 27.3592C13.6811 27.4161 13.6949 27.4831 13.6949 27.5603C13.6949 27.6371 13.6811 27.7039 13.6536 27.7609C13.6265 27.8178 13.5889 27.8618 13.5409 27.8929C13.4929 27.9241 13.4378 27.9396 13.3756 27.9396ZM13.3756 27.8766C13.4239 27.8766 13.4673 27.864 13.5057 27.8388C13.5441 27.8137 13.5744 27.7776 13.5965 27.7306C13.6187 27.6832 13.6298 27.6265 13.6298 27.5603C13.6298 27.4937 13.6187 27.4368 13.5965 27.3895C13.5744 27.3421 13.5441 27.3059 13.5057 27.2807C13.4673 27.2556 13.4239 27.243 13.3756 27.243C13.3273 27.243 13.2837 27.2556 13.245 27.2807C13.2066 27.3059 13.1762 27.3421 13.1536 27.3895C13.1315 27.4368 13.1204 27.4937 13.1204 27.5603C13.1204 27.6261 13.1315 27.6827 13.1536 27.7301C13.1758 27.7774 13.2061 27.8137 13.2445 27.8388C13.2832 27.864 13.3269 27.8766 13.3756 27.8766ZM14.3011 27.9421C14.2508 27.9421 14.2071 27.9338 14.17 27.9173C14.133 27.9007 14.1038 27.8776 14.0826 27.8478C14.0615 27.818 14.0495 27.7835 14.0469 27.7445H14.1159C14.1186 27.7739 14.1282 27.7988 14.1447 27.819C14.1616 27.8392 14.1836 27.8545 14.2107 27.8651C14.2379 27.8754 14.268 27.8805 14.3011 27.8805C14.3382 27.8805 14.3711 27.8744 14.3999 27.8622C14.4287 27.8496 14.4512 27.8322 14.4675 27.81C14.484 27.7878 14.4923 27.7619 14.4923 27.7321C14.4923 27.7069 14.4857 27.6859 14.4724 27.669C14.4595 27.6521 14.4415 27.6379 14.4183 27.6263C14.3951 27.6147 14.3681 27.6045 14.3374 27.5955L14.2495 27.5697C14.1916 27.5528 14.1465 27.529 14.1144 27.4982C14.0823 27.4674 14.0663 27.4284 14.0663 27.381C14.0663 27.3413 14.0769 27.3064 14.098 27.2763C14.1196 27.2458 14.1485 27.2221 14.1849 27.2053C14.2213 27.188 14.2622 27.1794 14.3076 27.1794C14.3536 27.1794 14.3943 27.188 14.4297 27.2053C14.4651 27.2221 14.4933 27.2453 14.5141 27.2748C14.535 27.3039 14.5462 27.3372 14.5479 27.3746H14.4819C14.4779 27.3335 14.4598 27.3009 14.4277 27.2768C14.3956 27.2523 14.3549 27.24 14.3056 27.24C14.2715 27.24 14.2414 27.246 14.2152 27.2579C14.1891 27.2698 14.1685 27.2862 14.1536 27.307C14.1391 27.3279 14.1318 27.3516 14.1318 27.378C14.1318 27.4039 14.1391 27.4255 14.1536 27.4431C14.1682 27.4603 14.1868 27.4744 14.2093 27.4853C14.2318 27.4962 14.2549 27.5053 14.2788 27.5126L14.3567 27.535C14.3802 27.5419 14.4037 27.5505 14.4272 27.5608C14.4507 27.5707 14.4723 27.5833 14.4918 27.5985C14.5116 27.6137 14.5275 27.6324 14.5394 27.6546C14.5517 27.6765 14.5578 27.7028 14.5578 27.7336C14.5578 27.7726 14.5476 27.808 14.527 27.8398C14.5065 27.8713 14.4771 27.8963 14.4387 27.9148C14.4006 27.933 14.3547 27.9421 14.3011 27.9421ZM14.6889 27.9297V27.1899H14.7564V27.529H15.1765V27.1899H15.2435V27.9297H15.1765V27.5896H14.7564V27.9297H14.6889ZM15.4094 27.9297H15.3384L15.608 27.1899H15.68L15.9491 27.9297H15.8786L15.6462 27.2778H15.6412L15.4094 27.9297ZM15.4605 27.6462H15.8274V27.7067H15.4605V27.6462ZM16.0434 27.9297V27.1899H16.2827C16.3354 27.1899 16.3792 27.1995 16.4143 27.2187C16.4494 27.2375 16.4759 27.2637 16.4938 27.2971C16.512 27.3305 16.5211 27.3688 16.5211 27.4118C16.5211 27.4548 16.5121 27.4929 16.4943 27.526C16.4764 27.5588 16.4497 27.5844 16.4143 27.603C16.3792 27.6215 16.3357 27.6308 16.2837 27.6308H16.0807V27.5692H16.2818C16.3205 27.5692 16.3526 27.5628 16.3781 27.5498C16.4036 27.5369 16.4226 27.5187 16.4352 27.4952C16.4481 27.4717 16.4545 27.4439 16.4545 27.4118C16.4545 27.3794 16.4481 27.3511 16.4352 27.3269C16.4223 27.3027 16.4031 27.284 16.3776 27.2708C16.3521 27.2576 16.3198 27.2509 16.2808 27.2509H16.111V27.9297H16.0434ZM16.4734 27.9297L16.2937 27.5955H16.3701L16.5519 27.9297H16.4734ZM16.6541 27.9297V27.1899H17.0836V27.2509H16.7217V27.527H17.0608V27.5876H16.7217V27.8691H17.0906V27.9297H16.6541Z" fill="#DF91B5"/>
</g>
<defs>
<clipPath id="clip0_1091_434">
<rect width="26.0576" height="32.625" rx="0.847403" fill="white"/>
</clipPath>
<clipPath id="clip1_1091_434">
<rect width="32.625" height="32.625" fill="white" transform="translate(-6.56836)"/>
</clipPath>
</defs>
</svg>
