<svg width="27" height="33" viewBox="0 0 27 33" fill="none" xmlns="http://www.w3.org/2000/svg">
<g clip-path="url(#clip0_1091_959)">
<rect width="26.0576" height="32.625" rx="0.847403" fill="#FFD5F4"/>
<rect x="0.679688" y="0.677734" width="24.7018" height="31.2692" rx="0.423701" fill="#FB3757"/>
<path d="M9.31704 11.6771C9.31346 11.7271 9.30453 11.7745 9.29023 11.8192C9.27593 11.8639 9.26878 11.9086 9.26878 11.9532C9.26878 11.9747 9.27057 12.0024 9.27414 12.0364C9.27772 12.0703 9.2795 12.1069 9.2795 12.1463C9.2795 12.2142 9.26342 12.275 9.23125 12.3286C9.19908 12.3822 9.15797 12.4322 9.10792 12.4787C9.05788 12.5252 9.00158 12.5708 8.93902 12.6154C8.87825 12.6583 8.81748 12.703 8.75671 12.7495C8.71382 12.7835 8.67807 12.8174 8.64947 12.8514C8.62088 12.8853 8.58781 12.9157 8.55028 12.9425C8.51274 12.9693 8.46538 12.9908 8.40819 13.0069C8.35099 13.0247 8.27146 13.0337 8.16958 13.0337C8.11417 13.0337 8.05698 13.0292 7.998 13.0203C7.9408 13.0131 7.88361 13.0042 7.82641 12.9935C7.76922 12.9827 7.71381 12.9729 7.66019 12.964C7.60836 12.9568 7.5601 12.9532 7.51542 12.9532C7.47788 12.9532 7.44214 12.9568 7.40818 12.964C7.37422 12.9711 7.34026 12.9747 7.3063 12.9747C7.292 12.9747 7.26698 12.9684 7.23123 12.9559C7.19549 12.9452 7.15706 12.9291 7.11595 12.9077C7.07484 12.888 7.03374 12.8639 6.99263 12.8353C6.95152 12.8049 6.91756 12.7709 6.89075 12.7334C6.86573 12.6994 6.84964 12.6637 6.84249 12.6262C6.83713 12.5868 6.82551 12.5493 6.80764 12.5136C6.78262 12.4689 6.74955 12.426 6.70844 12.3849C6.66912 12.3438 6.63427 12.2946 6.60388 12.2374C6.57707 12.1856 6.55384 12.123 6.53418 12.0498C6.51452 11.9765 6.49218 11.9041 6.46715 11.8326C6.43498 11.7379 6.40281 11.653 6.37064 11.5779C6.34025 11.5028 6.32506 11.4394 6.32506 11.3876C6.32506 11.3286 6.33311 11.266 6.34919 11.1999C6.36528 11.132 6.38673 11.0694 6.41353 11.0122C6.44034 10.9532 6.47073 10.905 6.50469 10.8674C6.54043 10.8299 6.57707 10.8111 6.61461 10.8111C6.63427 10.8111 6.65482 10.8147 6.67627 10.8219C6.69772 10.829 6.72006 10.8326 6.7433 10.8326C6.77368 10.829 6.7987 10.8201 6.81836 10.8058C6.83981 10.7915 6.86215 10.7843 6.88539 10.7843C6.90862 10.7843 6.94169 10.7888 6.98458 10.7977C7.02748 10.8049 7.07127 10.8147 7.11595 10.8272C7.16242 10.8397 7.20532 10.8522 7.24464 10.8648C7.28575 10.8773 7.31613 10.8889 7.33579 10.8996C7.36439 10.9139 7.39477 10.9389 7.42695 10.9747C7.45912 11.0104 7.48861 11.0497 7.51542 11.0926C7.54223 11.1355 7.56457 11.1802 7.58244 11.2267C7.60032 11.2732 7.60925 11.3143 7.60925 11.35C7.60925 11.3697 7.60836 11.3902 7.60657 11.4117C7.60478 11.4313 7.60389 11.451 7.60389 11.4707C7.60389 11.5064 7.61015 11.543 7.62266 11.5806C7.63517 11.6163 7.64589 11.6565 7.65483 11.7012C7.66198 11.7513 7.66645 11.7986 7.66823 11.8433C7.67181 11.888 7.67628 11.93 7.68164 11.9693C7.687 12.0069 7.69415 12.0426 7.70309 12.0766C7.71381 12.1105 7.73168 12.1427 7.75671 12.1731C7.79245 12.2196 7.8425 12.2571 7.90684 12.2857C7.97119 12.3125 8.03464 12.3259 8.09719 12.3259C8.13651 12.3259 8.16779 12.3196 8.19103 12.3071C8.21605 12.2946 8.2375 12.2794 8.25537 12.2616C8.27324 12.2437 8.29022 12.2258 8.30631 12.2079C8.32418 12.1883 8.34474 12.1713 8.36797 12.157C8.40372 12.1355 8.43768 12.1195 8.46985 12.1087C8.50202 12.0962 8.53062 12.081 8.55564 12.0632C8.58066 12.0435 8.60032 12.0176 8.61462 11.9854C8.62892 11.9532 8.63607 11.9059 8.63607 11.8433C8.63607 11.7933 8.62624 11.7405 8.60658 11.6851C8.5887 11.6279 8.57709 11.5708 8.57173 11.5136C8.56636 11.4635 8.56279 11.4215 8.561 11.3876C8.55921 11.3518 8.55564 11.3187 8.55028 11.2884C8.5467 11.2562 8.53955 11.2249 8.52883 11.1945C8.51811 11.1623 8.49934 11.1257 8.47253 11.0846C8.46538 11.0775 8.44929 11.0596 8.42427 11.031C8.39925 11.0006 8.36976 10.9693 8.3358 10.9371C8.30363 10.905 8.26877 10.8764 8.23124 10.8514C8.19371 10.8245 8.15885 10.8111 8.12668 10.8111C8.11238 10.8111 8.09809 10.812 8.08379 10.8138C8.07128 10.8156 8.05787 10.8165 8.04357 10.8165C7.98638 10.8165 7.9274 10.804 7.86663 10.779C7.80765 10.7539 7.74688 10.7236 7.68432 10.6878C7.62176 10.6503 7.55831 10.611 7.49397 10.5699C7.42963 10.5287 7.36528 10.4921 7.30094 10.4599C7.24732 10.4331 7.18655 10.4081 7.11863 10.3849C7.0525 10.3616 6.98995 10.3357 6.93096 10.3071C6.87198 10.2785 6.82283 10.2455 6.78351 10.2079C6.74419 10.1686 6.72453 10.1203 6.72453 10.0631C6.72453 10.0524 6.72632 10.031 6.72989 9.9988C6.73525 9.96663 6.74151 9.92999 6.74866 9.88888C6.75581 9.84599 6.76474 9.80041 6.77547 9.75215C6.78619 9.70211 6.7987 9.65474 6.813 9.61006C6.8273 9.56359 6.8416 9.52159 6.8559 9.48406C6.87198 9.44652 6.88896 9.41703 6.90684 9.39558C6.93186 9.3652 6.96314 9.33571 7.00067 9.30711C7.03999 9.27851 7.07842 9.25349 7.11595 9.23204C7.15349 9.20881 7.18655 9.19093 7.21515 9.17842C7.24553 9.16412 7.26519 9.15698 7.27413 9.15698C7.29022 9.15698 7.30541 9.15876 7.31971 9.16234C7.33579 9.16412 7.35188 9.16502 7.36796 9.16502C7.40192 9.16502 7.43052 9.16144 7.45376 9.15429C7.47878 9.14536 7.50023 9.13463 7.5181 9.12212C7.53776 9.10961 7.55653 9.09799 7.5744 9.08727C7.59227 9.07476 7.61283 9.06403 7.63606 9.0551C7.66645 9.04259 7.70309 9.03633 7.74598 9.03633C7.79067 9.03454 7.83446 9.02918 7.87735 9.02025C7.9274 9.00952 7.98995 8.99701 8.06502 8.98271C8.14187 8.96663 8.21873 8.95233 8.29558 8.93982C8.37423 8.92552 8.44751 8.9139 8.51542 8.90496C8.58334 8.89603 8.63428 8.89245 8.66824 8.89424C8.68611 8.89424 8.70488 8.89871 8.72454 8.90764C8.74599 8.91658 8.76208 8.93624 8.7728 8.96663C8.79603 8.98271 8.82284 8.99433 8.85323 9.00148C8.88361 9.00863 8.90864 9.02025 8.9283 9.03633C8.95511 9.05957 8.98281 9.08995 9.01141 9.12748C9.04179 9.16502 9.07039 9.19719 9.0972 9.224C9.12401 9.25081 9.14724 9.27494 9.1669 9.29639C9.18835 9.31605 9.20533 9.33571 9.21784 9.35537C9.23214 9.37324 9.24197 9.3929 9.24733 9.41435C9.25448 9.43401 9.25806 9.45814 9.25806 9.48674C9.25806 9.54393 9.2518 9.59934 9.23929 9.65296C9.22678 9.70658 9.20533 9.75483 9.17495 9.79773C9.14635 9.83884 9.10703 9.8728 9.05698 9.89961C9.00873 9.92463 8.94706 9.93714 8.872 9.93714C8.82731 9.93714 8.77905 9.93267 8.72722 9.92374C8.67539 9.91301 8.62892 9.89961 8.58781 9.88352C8.56636 9.87637 8.54492 9.86475 8.52347 9.84867C8.50202 9.83258 8.48057 9.8165 8.45912 9.80041C8.43768 9.78254 8.41533 9.76556 8.3921 9.74947C8.36886 9.73339 8.34384 9.72088 8.31703 9.71194C8.29022 9.703 8.25537 9.69496 8.21247 9.68781C8.16958 9.67887 8.12489 9.67172 8.07842 9.66636C8.03374 9.661 7.98995 9.65653 7.94706 9.65296C7.90416 9.64938 7.86841 9.6476 7.83982 9.6476C7.80228 9.6476 7.76564 9.65028 7.7299 9.65564C7.69415 9.65921 7.66198 9.66815 7.63338 9.68245C7.60657 9.69496 7.58423 9.71283 7.56636 9.73607C7.54848 9.7593 7.53955 9.78969 7.53955 9.82722C7.53955 9.84867 7.54312 9.86744 7.55027 9.88352C7.55921 9.89961 7.57083 9.9148 7.58512 9.9291C7.60121 9.94161 7.62087 9.95501 7.64411 9.96931C7.66734 9.98361 7.69415 10.0006 7.72454 10.0203C7.75134 10.0381 7.77726 10.0578 7.80228 10.0792C7.82909 10.1007 7.85501 10.1212 7.88003 10.1409C7.90684 10.1606 7.93365 10.1793 7.96046 10.1972C7.98727 10.2151 8.01497 10.2294 8.04357 10.2401C8.07753 10.2508 8.11238 10.258 8.14813 10.2615C8.18566 10.2633 8.21873 10.2669 8.24733 10.2723C8.35278 10.2973 8.45108 10.3339 8.54223 10.3822C8.63518 10.4287 8.72097 10.4832 8.79961 10.5457C8.87825 10.6083 8.94885 10.6762 9.01141 10.7495C9.07575 10.821 9.13205 10.8943 9.18031 10.9693C9.20354 11.0069 9.22231 11.0408 9.23661 11.0712C9.25091 11.0998 9.26163 11.1293 9.26878 11.1597C9.27593 11.1883 9.2804 11.2195 9.28219 11.2535C9.28397 11.2875 9.28487 11.3286 9.28487 11.3768C9.28487 11.4322 9.29023 11.4859 9.30095 11.5377C9.31168 11.5895 9.31704 11.636 9.31704 11.6771ZM10.3787 9.75752C10.3644 9.79505 10.3367 9.82633 10.2956 9.85135C10.2545 9.87458 10.2062 9.89335 10.1508 9.90765C10.0972 9.92195 10.04 9.93267 9.97924 9.93982C9.91847 9.94518 9.86128 9.94787 9.80766 9.94787C9.71472 9.94787 9.64412 9.92463 9.59586 9.87816C9.5476 9.83169 9.52347 9.745 9.52347 9.6181C9.52347 9.56806 9.53062 9.52159 9.54492 9.47869C9.56101 9.4358 9.57709 9.39648 9.59318 9.36073C9.61105 9.32498 9.62714 9.29371 9.64144 9.2669C9.65752 9.24009 9.66557 9.21685 9.66557 9.19719C9.68701 9.1811 9.7165 9.16681 9.75404 9.15429C9.79336 9.14 9.83268 9.12838 9.872 9.11944C9.91132 9.10872 9.94707 9.10067 9.97924 9.09531C10.0114 9.08995 10.0329 9.08727 10.0436 9.08727C10.1347 9.08727 10.2098 9.10336 10.2688 9.13553C10.3278 9.1677 10.3573 9.20434 10.3573 9.24545C10.3573 9.26511 10.3555 9.28656 10.3519 9.30979C10.3483 9.33124 10.3465 9.35001 10.3465 9.36609C10.3501 9.41256 10.359 9.46439 10.3733 9.52159C10.3876 9.577 10.3948 9.62793 10.3948 9.6744C10.3948 9.70658 10.3894 9.73428 10.3787 9.75752ZM10.5342 12.6932C10.5199 12.7146 10.4904 12.7379 10.4457 12.7629C10.4028 12.7861 10.3537 12.8085 10.2983 12.8299C10.2429 12.8496 10.1866 12.8657 10.1294 12.8782C10.074 12.8907 10.0275 12.8969 9.98997 12.8969C9.92026 12.8898 9.86128 12.8737 9.81302 12.8487C9.76476 12.8237 9.72544 12.7897 9.69506 12.7468C9.66467 12.7039 9.64233 12.6539 9.62803 12.5967C9.61373 12.5395 9.6039 12.4751 9.59854 12.4036C9.59854 12.3679 9.6039 12.3322 9.61463 12.2964C9.62714 12.2589 9.63339 12.2178 9.63339 12.1731C9.63339 12.123 9.62982 12.073 9.62267 12.0229C9.61552 11.9711 9.61195 11.9202 9.61195 11.8701C9.61195 11.829 9.61284 11.7763 9.61463 11.712C9.6182 11.6476 9.62267 11.5779 9.62803 11.5028C9.63339 11.4278 9.63965 11.3509 9.6468 11.2723C9.65574 11.1936 9.66467 11.1195 9.67361 11.0497C9.68255 10.98 9.69238 10.9184 9.7031 10.8648C9.71382 10.8094 9.72544 10.7691 9.73795 10.7441C9.76834 10.6816 9.80676 10.636 9.85323 10.6074C9.89971 10.5788 9.95064 10.5645 10.0061 10.5645C10.0775 10.5645 10.1374 10.5788 10.1857 10.6074C10.2339 10.636 10.2724 10.6771 10.301 10.7307C10.3313 10.7843 10.3528 10.8496 10.3653 10.9264C10.3778 11.0015 10.3841 11.0855 10.3841 11.1784C10.3841 11.2195 10.3823 11.2598 10.3787 11.2991C10.3751 11.3384 10.3733 11.3768 10.3733 11.4144C10.3733 11.4894 10.3805 11.5636 10.3948 11.6369C10.4109 11.7102 10.4279 11.7808 10.4457 11.8487C10.4654 11.9166 10.4833 11.9818 10.4994 12.0444C10.5154 12.1069 10.5235 12.1641 10.5235 12.216C10.5235 12.2321 10.5226 12.2508 10.5208 12.2723C10.519 12.2919 10.5181 12.3098 10.5181 12.3259C10.5181 12.392 10.5244 12.4465 10.5369 12.4894C10.5494 12.5305 10.5557 12.5681 10.5557 12.602C10.5557 12.6342 10.5485 12.6646 10.5342 12.6932ZM13.3466 11.5243C13.343 11.5439 13.3296 11.5806 13.3063 11.6342C13.2831 11.686 13.2563 11.7414 13.2259 11.8004C13.1973 11.8594 13.1687 11.9139 13.1401 11.964C13.1133 12.014 13.0928 12.0471 13.0785 12.0632C13.0213 12.1257 12.9283 12.1731 12.7996 12.2053C12.6709 12.2374 12.5154 12.2517 12.3331 12.2481C12.2831 12.2481 12.2313 12.2401 12.1776 12.224C12.124 12.2079 12.0695 12.1999 12.0141 12.1999C11.9587 12.1999 11.9033 12.2079 11.8479 12.224C11.7925 12.2401 11.7362 12.2481 11.679 12.2481C11.6432 12.2481 11.6066 12.2428 11.5691 12.2321V12.2616C11.5691 12.2919 11.5726 12.3187 11.5798 12.342C11.5869 12.3652 11.595 12.3876 11.6039 12.409C11.6146 12.4287 11.6245 12.4492 11.6334 12.4707C11.6441 12.4903 11.6522 12.5136 11.6575 12.5404C11.6611 12.5725 11.6647 12.6101 11.6683 12.653C11.6718 12.6941 11.6745 12.7352 11.6763 12.7763C11.6799 12.8174 11.6835 12.8558 11.687 12.8916C11.6924 12.9273 11.6986 12.955 11.7058 12.9747C11.7201 13.0122 11.7308 13.0515 11.738 13.0927C11.7451 13.1356 11.7514 13.1776 11.7567 13.2187C11.7621 13.2616 11.7666 13.3027 11.7701 13.342C11.7737 13.3831 11.78 13.4197 11.7889 13.4519C11.7978 13.4769 11.8104 13.5011 11.8264 13.5243C11.8443 13.5475 11.855 13.5726 11.8586 13.5994C11.8586 13.6137 11.8559 13.6262 11.8506 13.6369C11.847 13.6476 11.8425 13.6583 11.8372 13.6691C11.8318 13.6798 11.8255 13.6914 11.8184 13.7039C11.813 13.7182 11.8086 13.7352 11.805 13.7549C11.8014 13.7799 11.7987 13.8049 11.7969 13.8299C11.7969 13.8567 11.7969 13.8827 11.7969 13.9077C11.7969 13.9327 11.7952 13.9559 11.7916 13.9774C11.788 13.9988 11.7818 14.0158 11.7728 14.0283C11.7675 14.0355 11.7505 14.0453 11.7219 14.0578C11.6951 14.0721 11.6656 14.0864 11.6334 14.1007C11.6012 14.1168 11.57 14.1302 11.5396 14.1409C11.511 14.1516 11.4931 14.1579 11.486 14.1597C11.4645 14.165 11.4413 14.1677 11.4162 14.1677C11.393 14.1695 11.3689 14.1704 11.3439 14.1704C11.1347 14.1704 10.9846 14.1329 10.8935 14.0578C10.8023 13.9845 10.7567 13.8612 10.7567 13.6878C10.7567 13.6503 10.7603 13.6119 10.7674 13.5726C10.7764 13.535 10.7853 13.4957 10.7943 13.4546C10.8032 13.4153 10.8112 13.3751 10.8184 13.3339C10.8273 13.2928 10.8318 13.2517 10.8318 13.2106C10.8318 13.1713 10.8309 13.1347 10.8291 13.1007C10.8273 13.0667 10.8264 13.0319 10.8264 12.9961C10.8264 12.9497 10.83 12.8987 10.8372 12.8433C10.8443 12.7861 10.8523 12.7263 10.8613 12.6637C10.872 12.5994 10.8809 12.5314 10.8881 12.4599C10.8952 12.3885 10.8988 12.3143 10.8988 12.2374C10.8988 12.2106 10.8961 12.1758 10.8908 12.1329C10.8872 12.09 10.8827 12.0426 10.8774 11.9908C10.872 11.9372 10.8666 11.8809 10.8613 11.8219C10.8577 11.7629 10.8559 11.7021 10.8559 11.6396C10.8559 11.5681 10.8595 11.493 10.8666 11.4144C10.8738 11.3339 10.8818 11.2499 10.8908 11.1623C10.8997 11.0748 10.9078 10.9836 10.9149 10.8889C10.9221 10.7942 10.9256 10.695 10.9256 10.5913C10.9256 10.5305 10.9221 10.476 10.9149 10.4278C10.9078 10.3795 10.9042 10.333 10.9042 10.2883C10.9042 10.2008 10.931 10.1329 10.9846 10.0846C11.04 10.0346 11.107 10.0095 11.1857 10.0095C11.2214 10.0095 11.2554 10.0167 11.2876 10.031C11.3197 10.0453 11.3456 10.0676 11.3653 10.098C11.3814 10.123 11.3894 10.165 11.3894 10.224C11.3912 10.2812 11.3921 10.3402 11.3921 10.401C11.3921 10.4617 11.3939 10.5153 11.3975 10.5618C11.4028 10.6065 11.4162 10.6288 11.4377 10.6288C11.4574 10.6288 11.4797 10.6217 11.5047 10.6074C11.5315 10.5913 11.5583 10.5734 11.5851 10.5538C11.612 10.5323 11.637 10.5127 11.6602 10.4948C11.6852 10.4751 11.7058 10.4617 11.7219 10.4546C11.7791 10.4313 11.8461 10.4135 11.923 10.401C12.0016 10.3867 12.0811 10.3643 12.1616 10.3339C12.1991 10.3196 12.2393 10.3044 12.2822 10.2883C12.3269 10.2705 12.3725 10.2544 12.4189 10.2401C12.4654 10.224 12.5128 10.2106 12.561 10.1999C12.6111 10.1892 12.6611 10.1838 12.7112 10.1838C12.7666 10.1838 12.83 10.1972 12.9015 10.224C12.973 10.249 13.0409 10.2928 13.1053 10.3554C13.1696 10.4179 13.2241 10.5019 13.2688 10.6074C13.3135 10.7111 13.3358 10.8415 13.3358 10.9988C13.3358 11.0346 13.3349 11.0712 13.3331 11.1087C13.3314 11.1445 13.3305 11.1784 13.3305 11.2106C13.3305 11.2464 13.3349 11.2821 13.3439 11.3178C13.3546 11.3536 13.36 11.3929 13.36 11.4358C13.36 11.4501 13.3582 11.4653 13.3546 11.4814C13.3528 11.4957 13.3501 11.51 13.3466 11.5243ZM12.7219 11.1999C12.7326 11.1892 12.7407 11.1731 12.746 11.1516C12.7514 11.1284 12.7541 11.1043 12.7541 11.0792C12.7541 11.0238 12.7496 10.9774 12.7407 10.9398C12.7317 10.9005 12.7201 10.8701 12.7058 10.8487C12.6933 10.8254 12.6781 10.8094 12.6602 10.8004C12.6441 10.7897 12.6281 10.7843 12.612 10.7843C12.5977 10.7843 12.5843 10.7861 12.5718 10.7897C12.5592 10.7933 12.5467 10.7951 12.5342 10.7951H12.4967C12.3912 10.7951 12.2911 10.8076 12.1964 10.8326C12.1035 10.8576 12.0177 10.888 11.939 10.9237C11.8622 10.9577 11.7934 10.9926 11.7326 11.0283C11.6736 11.064 11.6245 11.0926 11.5851 11.1141C11.5637 11.1266 11.5449 11.1346 11.5288 11.1382C11.5128 11.14 11.5003 11.1427 11.4913 11.1463C11.4824 11.1498 11.4752 11.1579 11.4699 11.1704C11.4663 11.1811 11.4645 11.2008 11.4645 11.2294C11.4645 11.2723 11.4681 11.3035 11.4752 11.3232C11.4824 11.3411 11.5029 11.35 11.5369 11.35C11.5726 11.35 11.6182 11.3429 11.6736 11.3286C11.7308 11.3143 11.7871 11.3044 11.8425 11.2991C11.8997 11.2937 11.9614 11.2901 12.0275 11.2884C12.0936 11.2848 12.1607 11.2812 12.2286 11.2776C12.2983 11.2741 12.3662 11.2696 12.4323 11.2642C12.5003 11.2571 12.5637 11.2472 12.6227 11.2347C12.6209 11.2347 12.6245 11.2329 12.6334 11.2294C12.6423 11.224 12.6522 11.2195 12.6629 11.216C12.6754 11.2106 12.687 11.2061 12.6978 11.2026C12.7103 11.1972 12.7183 11.1945 12.7219 11.1945V11.1999ZM17.0678 11.2508C17.0678 11.2615 17.0687 11.2714 17.0704 11.2803C17.0722 11.2892 17.0731 11.2991 17.0731 11.3098C17.0731 11.3509 17.0678 11.3929 17.057 11.4358C17.0481 11.4787 17.0365 11.5216 17.0222 11.5645C17.0079 11.6074 16.9936 11.6512 16.9793 11.6959C16.965 11.7388 16.9543 11.7826 16.9471 11.8272C16.9435 11.8451 16.9418 11.8657 16.9418 11.8889C16.9418 11.9103 16.9418 11.9327 16.9418 11.9559C16.9418 11.9792 16.9409 12.0015 16.9391 12.0229C16.9373 12.0444 16.9346 12.0632 16.931 12.0792C16.9221 12.1239 16.9042 12.1722 16.8774 12.224C16.8506 12.2759 16.8247 12.325 16.7997 12.3715C16.7621 12.4412 16.7282 12.5002 16.6978 12.5484C16.6692 12.5949 16.6343 12.6333 16.5932 12.6637C16.5539 12.6923 16.5039 12.7129 16.4431 12.7254C16.3823 12.7379 16.3019 12.7441 16.2018 12.7441C16.116 12.7441 16.0293 12.7397 15.9417 12.7307C15.8542 12.7218 15.7693 12.7093 15.6871 12.6932C15.6048 12.6771 15.528 12.6592 15.4565 12.6396C15.385 12.6181 15.3233 12.5958 15.2715 12.5725C15.2107 12.5457 15.1625 12.5171 15.1267 12.4868C15.091 12.4564 15.0597 12.4197 15.0329 12.3768C15.0079 12.3339 14.9846 12.2812 14.9632 12.2187C14.9417 12.1543 14.9149 12.0748 14.8828 11.98C14.8667 11.9318 14.8497 11.8844 14.8318 11.838C14.8157 11.7915 14.8014 11.745 14.7889 11.6985C14.7764 11.6503 14.7666 11.6029 14.7594 11.5565C14.7523 11.5082 14.7496 11.459 14.7514 11.409C14.7514 11.3804 14.7532 11.3473 14.7568 11.3098C14.7621 11.2705 14.7684 11.2321 14.7755 11.1945C14.7827 11.1552 14.7907 11.1186 14.7996 11.0846C14.8086 11.0489 14.8184 11.0203 14.8291 10.9988C14.8381 10.9774 14.8479 10.9595 14.8586 10.9452C14.8711 10.9309 14.8828 10.9166 14.8935 10.9023C14.9042 10.888 14.9131 10.8737 14.9203 10.8594C14.9274 10.8451 14.931 10.8272 14.931 10.8058C14.931 10.7897 14.9292 10.7763 14.9257 10.7656C14.9221 10.7531 14.9176 10.7414 14.9122 10.7307C14.9069 10.72 14.9024 10.7093 14.8988 10.6985C14.8953 10.686 14.8935 10.6726 14.8935 10.6583C14.8935 10.6601 14.8971 10.6503 14.9042 10.6288C14.9131 10.6074 14.9248 10.5815 14.9391 10.5511C14.9534 10.5189 14.9703 10.485 14.99 10.4492C15.0114 10.4117 15.0338 10.3777 15.057 10.3473C15.082 10.3152 15.1089 10.2883 15.1375 10.2669C15.1678 10.2455 15.1982 10.2347 15.2286 10.2347H15.2903H15.3117C15.3367 10.2347 15.3671 10.2374 15.4029 10.2428C15.4386 10.2481 15.477 10.2535 15.5182 10.2589C15.561 10.2642 15.6057 10.2696 15.6522 10.2749C15.7005 10.2803 15.7478 10.283 15.7943 10.283C15.8765 10.283 15.9596 10.2803 16.0436 10.2749C16.1276 10.2696 16.2072 10.2669 16.2822 10.2669C16.3895 10.2669 16.4708 10.2803 16.5262 10.3071C16.5834 10.3339 16.6254 10.3679 16.6522 10.409C16.6808 10.4483 16.7005 10.4921 16.7112 10.5404C16.7237 10.5868 16.7398 10.6315 16.7594 10.6744C16.7737 10.7066 16.7988 10.7414 16.8345 10.779C16.8703 10.8147 16.9024 10.8585 16.931 10.9103C16.9453 10.9354 16.9543 10.9657 16.9578 11.0015C16.9614 11.0372 16.9703 11.0685 16.9846 11.0953C16.9989 11.1346 17.015 11.165 17.0329 11.1865C17.0526 11.2061 17.0642 11.2276 17.0678 11.2508ZM16.427 11.3876C16.4306 11.3518 16.4342 11.3044 16.4377 11.2455C16.4413 11.1847 16.4431 11.1257 16.4431 11.0685C16.4431 11.0399 16.4395 11.006 16.4324 10.9666C16.4252 10.9255 16.41 10.8871 16.3868 10.8514C16.3636 10.8138 16.3296 10.7825 16.2849 10.7575C16.242 10.7307 16.1848 10.7173 16.1133 10.7173C16.0686 10.7173 16.0222 10.7218 15.9739 10.7307C15.9274 10.7396 15.8819 10.7441 15.8372 10.7441C15.8157 10.7441 15.7934 10.7432 15.7702 10.7414C15.7469 10.7396 15.7237 10.7388 15.7005 10.7388C15.6379 10.7388 15.587 10.7522 15.5476 10.779C15.5083 10.804 15.4779 10.8388 15.4565 10.8835C15.435 10.9264 15.4198 10.9774 15.4109 11.0363C15.4038 11.0953 15.4002 11.1579 15.4002 11.224C15.4002 11.3098 15.4029 11.3813 15.4082 11.4385C15.4154 11.4957 15.4261 11.543 15.4404 11.5806C15.4547 11.6181 15.4726 11.6485 15.494 11.6717C15.5155 11.6932 15.5423 11.712 15.5745 11.728C15.603 11.7388 15.6263 11.7441 15.6442 11.7441C15.662 11.7441 15.6844 11.7495 15.7112 11.7602C15.7273 11.7656 15.7398 11.7736 15.7487 11.7843C15.7577 11.7933 15.7657 11.8031 15.7728 11.8138C15.7818 11.8228 15.7907 11.8308 15.7997 11.838C15.8104 11.8451 15.8229 11.8487 15.8372 11.8487C15.8497 11.8487 15.8631 11.8478 15.8774 11.846C15.8935 11.8442 15.9096 11.8433 15.9257 11.8433C15.9471 11.8433 15.9659 11.8469 15.982 11.854C15.998 11.8612 16.0115 11.8701 16.0222 11.8809C16.0347 11.8898 16.0454 11.8978 16.0543 11.905C16.0651 11.9121 16.0758 11.9157 16.0865 11.9157C16.0919 11.9139 16.1098 11.905 16.1401 11.8889C16.1723 11.8728 16.2063 11.8549 16.242 11.8353C16.2778 11.8138 16.3099 11.7942 16.3385 11.7763C16.3689 11.7584 16.385 11.7477 16.3868 11.7441C16.3957 11.7298 16.402 11.7075 16.4056 11.6771C16.4109 11.6449 16.4145 11.611 16.4163 11.5752C16.4199 11.5395 16.4216 11.5046 16.4216 11.4707C16.4234 11.4367 16.4252 11.409 16.427 11.3876ZM19.7648 11.1141C19.763 11.132 19.7577 11.1472 19.7487 11.1597C19.7416 11.1704 19.7327 11.1838 19.7219 11.1999C19.713 11.2142 19.7049 11.2321 19.6978 11.2535C19.6907 11.275 19.6871 11.3035 19.6871 11.3393C19.6871 11.3536 19.688 11.3661 19.6898 11.3768C19.6915 11.3876 19.6924 11.4001 19.6924 11.4144C19.6924 11.468 19.6799 11.51 19.6549 11.5404C19.6317 11.569 19.5995 11.5922 19.5584 11.6101C19.5191 11.6279 19.4726 11.6422 19.419 11.653C19.3654 11.6619 19.31 11.6744 19.2528 11.6905C19.2116 11.7012 19.1679 11.7137 19.1214 11.728C19.0749 11.7423 19.0293 11.7495 18.9847 11.7495C18.9096 11.7495 18.856 11.728 18.8238 11.6851C18.7934 11.6422 18.7738 11.5886 18.7648 11.5243C18.7559 11.4582 18.7532 11.3876 18.7568 11.3125C18.7603 11.2374 18.7595 11.1677 18.7541 11.1034C18.7505 11.0372 18.7371 10.9827 18.7139 10.9398C18.6924 10.8969 18.6513 10.8755 18.5906 10.8755C18.5655 10.8755 18.5396 10.88 18.5128 10.8889C18.486 10.8978 18.4601 10.9086 18.4351 10.9211C18.4118 10.9318 18.3895 10.9434 18.368 10.9559C18.3484 10.9666 18.3323 10.9747 18.3198 10.98C18.293 10.9926 18.2617 11.006 18.2259 11.0203C18.192 11.0328 18.1589 11.0471 18.1267 11.0632C18.0946 11.0775 18.0669 11.0944 18.0436 11.1141C18.0222 11.132 18.0115 11.1534 18.0115 11.1784C18.0115 11.2195 18.0204 11.2723 18.0383 11.3366C18.0579 11.3992 18.0785 11.4626 18.0999 11.527C18.1214 11.5895 18.141 11.6458 18.1589 11.6959C18.1786 11.7441 18.1884 11.7745 18.1884 11.787C18.1884 11.7995 18.1857 11.812 18.1804 11.8246C18.175 11.8353 18.1723 11.8487 18.1723 11.8648C18.1723 11.8898 18.175 11.9166 18.1804 11.9452C18.1875 11.9738 18.1947 12.0042 18.2018 12.0364C18.2107 12.0667 18.2188 12.0989 18.2259 12.1329C18.2331 12.165 18.2367 12.1981 18.2367 12.2321C18.2367 12.2428 18.2358 12.266 18.234 12.3018C18.2322 12.3357 18.2295 12.3733 18.2259 12.4144C18.2224 12.4537 18.217 12.4921 18.2099 12.5297C18.2045 12.5654 18.1973 12.5913 18.1884 12.6074C18.1795 12.6217 18.1687 12.6324 18.1562 12.6396C18.1437 12.6467 18.1303 12.653 18.116 12.6583C18.1017 12.6619 18.0865 12.6664 18.0704 12.6717C18.0544 12.6753 18.0374 12.6825 18.0195 12.6932C17.9802 12.7182 17.9516 12.7414 17.9337 12.7629C17.9158 12.7826 17.898 12.8004 17.8801 12.8165C17.864 12.8308 17.8426 12.8424 17.8158 12.8514C17.7907 12.8603 17.7505 12.8648 17.6951 12.8648C17.6183 12.8648 17.5539 12.8558 17.5021 12.838C17.4502 12.8183 17.4082 12.7888 17.3761 12.7495C17.3439 12.7084 17.3207 12.6566 17.3064 12.594C17.2939 12.5314 17.2876 12.4573 17.2876 12.3715C17.2876 12.3125 17.2921 12.2544 17.301 12.1972C17.3117 12.1382 17.3233 12.0792 17.3359 12.0203C17.3502 11.9613 17.3636 11.9023 17.3761 11.8433C17.3904 11.7826 17.4011 11.72 17.4082 11.6557C17.4172 11.5699 17.4243 11.4778 17.4297 11.3795C17.4368 11.2794 17.4404 11.1865 17.4404 11.1007C17.4404 11.0292 17.4351 10.9488 17.4243 10.8594C17.4208 10.838 17.4145 10.8165 17.4056 10.7951C17.3966 10.7736 17.3922 10.7531 17.3922 10.7334C17.3922 10.7066 17.3948 10.678 17.4002 10.6476C17.4073 10.6172 17.4145 10.5868 17.4216 10.5564C17.4306 10.5261 17.4386 10.4957 17.4458 10.4653C17.4529 10.4331 17.4574 10.4018 17.4592 10.3715C17.4592 10.3411 17.4547 10.3169 17.4458 10.2991C17.4386 10.2794 17.4351 10.2598 17.4351 10.2401C17.4351 10.19 17.4449 10.1516 17.4645 10.1248C17.4842 10.0962 17.5048 10.0766 17.5262 10.0658C17.5477 10.0533 17.5664 10.0462 17.5825 10.0444C17.5986 10.0426 17.6031 10.0417 17.5959 10.0417C17.6638 10.0417 17.7166 10.056 17.7541 10.0846C17.7934 10.1114 17.822 10.1454 17.8399 10.1865C17.8595 10.2276 17.8721 10.2723 17.8774 10.3205C17.8828 10.367 17.8872 10.4108 17.8908 10.4519C17.8944 10.493 17.8989 10.5279 17.9042 10.5564C17.9114 10.5833 17.9257 10.5967 17.9471 10.5967C17.9614 10.5967 17.9793 10.5904 18.0007 10.5779C18.024 10.5654 18.0454 10.552 18.0651 10.5377C18.0847 10.5234 18.0999 10.5118 18.1107 10.5028C18.1214 10.4921 18.1232 10.4903 18.116 10.4975L18.1107 10.5028C18.1124 10.5028 18.1142 10.5019 18.116 10.5001C18.1214 10.4948 18.1276 10.4903 18.1348 10.4867C18.1276 10.4903 18.1241 10.4921 18.1241 10.4921H18.1214C18.1446 10.4742 18.1679 10.4564 18.1911 10.4385C18.2107 10.4242 18.2322 10.409 18.2554 10.3929C18.2787 10.375 18.3001 10.3607 18.3198 10.35C18.3502 10.3304 18.3841 10.3169 18.4217 10.3098C18.4592 10.3009 18.4931 10.2866 18.5235 10.2669C18.5503 10.2472 18.5771 10.2258 18.604 10.2026C18.6308 10.1793 18.6549 10.1606 18.6763 10.1463C18.6978 10.1373 18.7237 10.1284 18.7541 10.1194C18.7863 10.1105 18.8202 10.1034 18.856 10.098C18.8917 10.0909 18.9266 10.0855 18.9605 10.0819C18.9945 10.0766 19.0249 10.0739 19.0517 10.0739C19.0767 10.0739 19.0982 10.0783 19.116 10.0873C19.1339 10.0944 19.1509 10.1043 19.167 10.1168C19.1831 10.1293 19.2 10.1418 19.2179 10.1543C19.2376 10.1668 19.2608 10.1766 19.2876 10.1838C19.3216 10.1945 19.3609 10.2026 19.4056 10.2079C19.4503 10.2115 19.4914 10.2213 19.5289 10.2374C19.5682 10.2535 19.6013 10.2803 19.6281 10.3178C19.6549 10.3536 19.6674 10.4099 19.6656 10.4867C19.6656 10.5207 19.6692 10.5511 19.6764 10.5779C19.6835 10.6047 19.6907 10.6288 19.6978 10.6503C19.7067 10.6717 19.7148 10.6923 19.7219 10.7119C19.7291 10.7316 19.7327 10.7522 19.7327 10.7736C19.7327 10.7933 19.7309 10.8147 19.7273 10.838C19.7255 10.8594 19.7246 10.8817 19.7246 10.905C19.7246 10.9407 19.7309 10.9791 19.7434 11.0203C19.7577 11.0596 19.7648 11.0909 19.7648 11.1141ZM10.9632 18.6771C10.9596 18.7271 10.9507 18.7745 10.9364 18.8192C10.9221 18.8639 10.9149 18.9086 10.9149 18.9532C10.9149 18.9747 10.9167 19.0024 10.9203 19.0364C10.9238 19.0703 10.9256 19.1069 10.9256 19.1463C10.9256 19.2142 10.9095 19.275 10.8774 19.3286C10.8452 19.3822 10.8041 19.4322 10.754 19.4787C10.704 19.5252 10.6477 19.5708 10.5851 19.6154C10.5244 19.6583 10.4636 19.703 10.4028 19.7495C10.3599 19.7835 10.3242 19.8174 10.2956 19.8514C10.267 19.8853 10.2339 19.9157 10.1964 19.9425C10.1589 19.9693 10.1115 19.9908 10.0543 20.0069C9.99711 20.0247 9.91758 20.0337 9.8157 20.0337C9.76029 20.0337 9.7031 20.0292 9.64412 20.0203C9.58692 20.0131 9.52973 20.0042 9.47254 19.9935C9.41534 19.9827 9.35993 19.9729 9.30631 19.964C9.25448 19.9568 9.20622 19.9532 9.16154 19.9532C9.12401 19.9532 9.08826 19.9568 9.0543 19.964C9.02034 19.9711 8.98638 19.9747 8.95242 19.9747C8.93813 19.9747 8.9131 19.9684 8.87736 19.9559C8.84161 19.9452 8.80318 19.9291 8.76208 19.9077C8.72097 19.888 8.67986 19.8639 8.63875 19.8353C8.59764 19.8049 8.56368 19.7709 8.53687 19.7334C8.51185 19.6994 8.49576 19.6637 8.48861 19.6262C8.48325 19.5868 8.47164 19.5493 8.45376 19.5136C8.42874 19.4689 8.39567 19.426 8.35457 19.3849C8.31524 19.3438 8.28039 19.2946 8.25001 19.2374C8.2232 19.1856 8.19996 19.123 8.1803 19.0498C8.16064 18.9765 8.1383 18.9041 8.11328 18.8326C8.08111 18.7379 8.04893 18.653 8.01676 18.5779C7.98638 18.5028 7.97119 18.4394 7.97119 18.3876C7.97119 18.3286 7.97923 18.266 7.99531 18.1999C8.0114 18.132 8.03285 18.0694 8.05966 18.0122C8.08647 17.9532 8.11685 17.905 8.15081 17.8674C8.18656 17.8299 8.2232 17.8111 8.26073 17.8111C8.28039 17.8111 8.30095 17.8147 8.32239 17.8219C8.34384 17.829 8.36618 17.8326 8.38942 17.8326C8.4198 17.829 8.44483 17.8201 8.46449 17.8058C8.48593 17.7915 8.50828 17.7843 8.53151 17.7843C8.55475 17.7843 8.58781 17.7888 8.63071 17.7977C8.6736 17.8049 8.71739 17.8147 8.76208 17.8272C8.80855 17.8397 8.85144 17.8522 8.89076 17.8648C8.93187 17.8773 8.96226 17.8889 8.98192 17.8996C9.01051 17.9139 9.0409 17.9389 9.07307 17.9747C9.10524 18.0104 9.13473 18.0497 9.16154 18.0926C9.18835 18.1355 9.21069 18.1802 9.22857 18.2267C9.24644 18.2732 9.25538 18.3143 9.25538 18.35C9.25538 18.3697 9.25448 18.3902 9.25269 18.4117C9.25091 18.4313 9.25001 18.451 9.25001 18.4707C9.25001 18.5064 9.25627 18.543 9.26878 18.5806C9.28129 18.6163 9.29202 18.6565 9.30095 18.7012C9.3081 18.7513 9.31257 18.7986 9.31436 18.8433C9.31793 18.888 9.3224 18.93 9.32776 18.9693C9.33312 19.0069 9.34027 19.0426 9.34921 19.0766C9.35993 19.1105 9.37781 19.1427 9.40283 19.1731C9.43858 19.2196 9.48862 19.2571 9.55296 19.2857C9.61731 19.3125 9.68076 19.3259 9.74331 19.3259C9.78264 19.3259 9.81391 19.3196 9.83715 19.3071C9.86217 19.2946 9.88362 19.2794 9.90149 19.2616C9.91937 19.2437 9.93635 19.2258 9.95243 19.2079C9.9703 19.1883 9.99086 19.1713 10.0141 19.157C10.0498 19.1355 10.0838 19.1195 10.116 19.1087C10.1481 19.0962 10.1767 19.081 10.2018 19.0632C10.2268 19.0435 10.2464 19.0176 10.2607 18.9854C10.275 18.9532 10.2822 18.9059 10.2822 18.8433C10.2822 18.7933 10.2724 18.7405 10.2527 18.6851C10.2348 18.6279 10.2232 18.5708 10.2178 18.5136C10.2125 18.4635 10.2089 18.4215 10.2071 18.3876C10.2053 18.3518 10.2018 18.3187 10.1964 18.2884C10.1928 18.2562 10.1857 18.2249 10.175 18.1945C10.1642 18.1623 10.1455 18.1257 10.1187 18.0846C10.1115 18.0775 10.0954 18.0596 10.0704 18.031C10.0454 18.0006 10.0159 17.9693 9.98192 17.9371C9.94975 17.905 9.9149 17.8764 9.87736 17.8514C9.83983 17.8245 9.80498 17.8111 9.77281 17.8111C9.75851 17.8111 9.74421 17.812 9.72991 17.8138C9.7174 17.8156 9.70399 17.8165 9.68969 17.8165C9.6325 17.8165 9.57352 17.804 9.51275 17.779C9.45377 17.7539 9.393 17.7236 9.33044 17.6878C9.26789 17.6503 9.20444 17.611 9.14009 17.5699C9.07575 17.5287 9.01141 17.4921 8.94706 17.4599C8.89344 17.4331 8.83267 17.4081 8.76476 17.3849C8.69863 17.3616 8.63607 17.3357 8.57709 17.3071C8.51811 17.2785 8.46895 17.2455 8.42963 17.2079C8.39031 17.1686 8.37065 17.1203 8.37065 17.0631C8.37065 17.0524 8.37244 17.031 8.37601 16.9988C8.38138 16.9666 8.38763 16.93 8.39478 16.8889C8.40193 16.846 8.41087 16.8004 8.42159 16.7522C8.43231 16.7021 8.44483 16.6547 8.45912 16.6101C8.47342 16.5636 8.48772 16.5216 8.50202 16.4841C8.51811 16.4465 8.53509 16.417 8.55296 16.3956C8.57798 16.3652 8.60926 16.3357 8.64679 16.3071C8.68611 16.2785 8.72454 16.2535 8.76208 16.232C8.79961 16.2088 8.83267 16.1909 8.86127 16.1784C8.89166 16.1641 8.91132 16.157 8.92025 16.157C8.93634 16.157 8.95153 16.1588 8.96583 16.1623C8.98192 16.1641 8.998 16.165 9.01409 16.165C9.04805 16.165 9.07664 16.1614 9.09988 16.1543C9.1249 16.1454 9.14635 16.1346 9.16422 16.1221C9.18388 16.1096 9.20265 16.098 9.22052 16.0873C9.2384 16.0748 9.25895 16.064 9.28219 16.0551C9.31257 16.0426 9.34921 16.0363 9.39211 16.0363C9.43679 16.0345 9.48058 16.0292 9.52347 16.0202C9.57352 16.0095 9.63608 15.997 9.71114 15.9827C9.788 15.9666 9.86485 15.9523 9.94171 15.9398C10.0203 15.9255 10.0936 15.9139 10.1615 15.905C10.2295 15.896 10.2804 15.8925 10.3144 15.8942C10.3322 15.8942 10.351 15.8987 10.3707 15.9076C10.3921 15.9166 10.4082 15.9362 10.4189 15.9666C10.4422 15.9827 10.469 15.9943 10.4994 16.0015C10.5297 16.0086 10.5548 16.0202 10.5744 16.0363C10.6012 16.0596 10.6289 16.09 10.6575 16.1275C10.6879 16.165 10.7165 16.1972 10.7433 16.224C10.7701 16.2508 10.7934 16.2749 10.813 16.2964C10.8345 16.316 10.8515 16.3357 10.864 16.3554C10.8783 16.3732 10.8881 16.3929 10.8935 16.4143C10.9006 16.434 10.9042 16.4581 10.9042 16.4867C10.9042 16.5439 10.8979 16.5993 10.8854 16.653C10.8729 16.7066 10.8515 16.7548 10.8211 16.7977C10.7925 16.8388 10.7532 16.8728 10.7031 16.8996C10.6548 16.9246 10.5932 16.9371 10.5181 16.9371C10.4734 16.9371 10.4252 16.9327 10.3733 16.9237C10.3215 16.913 10.275 16.8996 10.2339 16.8835C10.2125 16.8764 10.191 16.8648 10.1696 16.8487C10.1481 16.8326 10.1267 16.8165 10.1052 16.8004C10.0838 16.7825 10.0615 16.7656 10.0382 16.7495C10.015 16.7334 9.98996 16.7209 9.96315 16.7119C9.93635 16.703 9.90149 16.695 9.8586 16.6878C9.8157 16.6789 9.77102 16.6717 9.72455 16.6664C9.67986 16.661 9.63608 16.6565 9.59318 16.653C9.55028 16.6494 9.51454 16.6476 9.48594 16.6476C9.44841 16.6476 9.41177 16.6503 9.37602 16.6556C9.34027 16.6592 9.3081 16.6681 9.2795 16.6824C9.25269 16.695 9.23035 16.7128 9.21248 16.7361C9.19461 16.7593 9.18567 16.7897 9.18567 16.8272C9.18567 16.8487 9.18924 16.8674 9.19639 16.8835C9.20533 16.8996 9.21695 16.9148 9.23125 16.9291C9.24733 16.9416 9.26699 16.955 9.29023 16.9693C9.31346 16.9836 9.34027 17.0006 9.37066 17.0203C9.39747 17.0381 9.42338 17.0578 9.44841 17.0792C9.47522 17.1007 9.50113 17.1212 9.52615 17.1409C9.55296 17.1606 9.57977 17.1793 9.60658 17.1972C9.63339 17.2151 9.6611 17.2294 9.68969 17.2401C9.72365 17.2508 9.75851 17.258 9.79425 17.2615C9.83179 17.2633 9.86485 17.2669 9.89345 17.2723C9.9989 17.2973 10.0972 17.3339 10.1884 17.3822C10.2813 17.4287 10.3671 17.4832 10.4457 17.5457C10.5244 17.6083 10.595 17.6762 10.6575 17.7495C10.7219 17.821 10.7782 17.8943 10.8264 17.9693C10.8497 18.0069 10.8684 18.0408 10.8827 18.0712C10.897 18.0998 10.9078 18.1293 10.9149 18.1597C10.9221 18.1883 10.9265 18.2195 10.9283 18.2535C10.9301 18.2875 10.931 18.3286 10.931 18.3768C10.931 18.4322 10.9364 18.4859 10.9471 18.5377C10.9578 18.5895 10.9632 18.636 10.9632 18.6771ZM13.7541 18.5243C13.7505 18.5439 13.7371 18.5806 13.7138 18.6342C13.6906 18.686 13.6638 18.7414 13.6334 18.8004C13.6048 18.8594 13.5762 18.9139 13.5476 18.964C13.5208 19.014 13.5003 19.0471 13.486 19.0632C13.4288 19.1257 13.3358 19.1731 13.2071 19.2053C13.0785 19.2374 12.923 19.2517 12.7407 19.2481C12.6906 19.2481 12.6388 19.2401 12.5852 19.224C12.5315 19.2079 12.477 19.1999 12.4216 19.1999C12.3662 19.1999 12.3108 19.2079 12.2554 19.224C12.2 19.2401 12.1437 19.2481 12.0865 19.2481C12.0507 19.2481 12.0141 19.2428 11.9766 19.2321V19.2616C11.9766 19.2919 11.9801 19.3187 11.9873 19.342C11.9944 19.3652 12.0025 19.3876 12.0114 19.409C12.0221 19.4287 12.032 19.4492 12.0409 19.4707C12.0516 19.4903 12.0597 19.5136 12.065 19.5404C12.0686 19.5725 12.0722 19.6101 12.0758 19.653C12.0793 19.6941 12.082 19.7352 12.0838 19.7763C12.0874 19.8174 12.091 19.8558 12.0945 19.8916C12.0999 19.9273 12.1062 19.955 12.1133 19.9747C12.1276 20.0122 12.1383 20.0515 12.1455 20.0927C12.1526 20.1356 12.1589 20.1776 12.1642 20.2187C12.1696 20.2616 12.1741 20.3027 12.1776 20.342C12.1812 20.3831 12.1875 20.4197 12.1964 20.4519C12.2053 20.4769 12.2179 20.5011 12.2339 20.5243C12.2518 20.5475 12.2625 20.5726 12.2661 20.5994C12.2661 20.6137 12.2634 20.6262 12.2581 20.6369C12.2545 20.6476 12.25 20.6583 12.2447 20.6691C12.2393 20.6798 12.2331 20.6914 12.2259 20.7039C12.2205 20.7182 12.2161 20.7352 12.2125 20.7549C12.2089 20.7799 12.2062 20.8049 12.2045 20.8299C12.2045 20.8567 12.2045 20.8827 12.2045 20.9077C12.2045 20.9327 12.2027 20.9559 12.1991 20.9774C12.1955 20.9988 12.1893 21.0158 12.1803 21.0283C12.175 21.0355 12.158 21.0453 12.1294 21.0578C12.1026 21.0721 12.0731 21.0864 12.0409 21.1007C12.0087 21.1168 11.9775 21.1302 11.9471 21.1409C11.9185 21.1516 11.9006 21.1579 11.8935 21.1597C11.872 21.165 11.8488 21.1677 11.8238 21.1677C11.8005 21.1695 11.7764 21.1704 11.7514 21.1704C11.5423 21.1704 11.3921 21.1329 11.301 21.0578C11.2098 20.9845 11.1642 20.8612 11.1642 20.6878C11.1642 20.6503 11.1678 20.6119 11.175 20.5726C11.1839 20.535 11.1928 20.4957 11.2018 20.4546C11.2107 20.4153 11.2187 20.3751 11.2259 20.3339C11.2348 20.2928 11.2393 20.2517 11.2393 20.2106C11.2393 20.1713 11.2384 20.1347 11.2366 20.1007C11.2348 20.0667 11.2339 20.0319 11.2339 19.9961C11.2339 19.9497 11.2375 19.8987 11.2447 19.8433C11.2518 19.7861 11.2599 19.7263 11.2688 19.6637C11.2795 19.5994 11.2885 19.5314 11.2956 19.4599C11.3028 19.3885 11.3063 19.3143 11.3063 19.2374C11.3063 19.2106 11.3036 19.1758 11.2983 19.1329C11.2947 19.09 11.2902 19.0426 11.2849 18.9908C11.2795 18.9372 11.2742 18.8809 11.2688 18.8219C11.2652 18.7629 11.2634 18.7021 11.2634 18.6396C11.2634 18.5681 11.267 18.493 11.2742 18.4144C11.2813 18.3339 11.2893 18.2499 11.2983 18.1623C11.3072 18.0748 11.3153 17.9836 11.3224 17.8889C11.3296 17.7942 11.3331 17.695 11.3331 17.5913C11.3331 17.5305 11.3296 17.476 11.3224 17.4278C11.3153 17.3795 11.3117 17.333 11.3117 17.2883C11.3117 17.2008 11.3385 17.1329 11.3921 17.0846C11.4475 17.0346 11.5146 17.0095 11.5932 17.0095C11.6289 17.0095 11.6629 17.0167 11.6951 17.031C11.7272 17.0453 11.7532 17.0676 11.7728 17.098C11.7889 17.123 11.7969 17.165 11.7969 17.224C11.7987 17.2812 11.7996 17.3402 11.7996 17.401C11.7996 17.4617 11.8014 17.5153 11.805 17.5618C11.8104 17.6065 11.8238 17.6288 11.8452 17.6288C11.8649 17.6288 11.8872 17.6217 11.9122 17.6074C11.939 17.5913 11.9658 17.5734 11.9927 17.5538C12.0195 17.5323 12.0445 17.5127 12.0677 17.4948C12.0927 17.4751 12.1133 17.4617 12.1294 17.4546C12.1866 17.4313 12.2536 17.4135 12.3305 17.401C12.4091 17.3867 12.4886 17.3643 12.5691 17.3339C12.6066 17.3196 12.6468 17.3044 12.6897 17.2883C12.7344 17.2705 12.78 17.2544 12.8264 17.2401C12.8729 17.224 12.9203 17.2106 12.9685 17.1999C13.0186 17.1892 13.0686 17.1838 13.1187 17.1838C13.1741 17.1838 13.2375 17.1972 13.309 17.224C13.3805 17.249 13.4484 17.2928 13.5128 17.3554C13.5771 17.4179 13.6316 17.5019 13.6763 17.6074C13.721 17.7111 13.7433 17.8415 13.7433 17.9988C13.7433 18.0346 13.7424 18.0712 13.7407 18.1087C13.7389 18.1445 13.738 18.1784 13.738 18.2106C13.738 18.2464 13.7424 18.2821 13.7514 18.3178C13.7621 18.3536 13.7675 18.3929 13.7675 18.4358C13.7675 18.4501 13.7657 18.4653 13.7621 18.4814C13.7603 18.4957 13.7576 18.51 13.7541 18.5243ZM13.1294 18.1999C13.1401 18.1892 13.1482 18.1731 13.1535 18.1516C13.1589 18.1284 13.1616 18.1043 13.1616 18.0792C13.1616 18.0238 13.1571 17.9774 13.1482 17.9398C13.1392 17.9005 13.1276 17.8701 13.1133 17.8487C13.1008 17.8254 13.0856 17.8094 13.0677 17.8004C13.0516 17.7897 13.0356 17.7843 13.0195 17.7843C13.0052 17.7843 12.9918 17.7861 12.9793 17.7897C12.9667 17.7933 12.9542 17.7951 12.9417 17.7951H12.9042C12.7987 17.7951 12.6987 17.8076 12.6039 17.8326C12.511 17.8576 12.4252 17.888 12.3465 17.9237C12.2697 17.9577 12.2009 17.9926 12.1401 18.0283C12.0811 18.064 12.032 18.0926 11.9927 18.1141C11.9712 18.1266 11.9524 18.1346 11.9364 18.1382C11.9203 18.14 11.9078 18.1427 11.8988 18.1463C11.8899 18.1498 11.8827 18.1579 11.8774 18.1704C11.8738 18.1811 11.872 18.2008 11.872 18.2294C11.872 18.2723 11.8756 18.3035 11.8827 18.3232C11.8899 18.3411 11.9104 18.35 11.9444 18.35C11.9801 18.35 12.0257 18.3429 12.0811 18.3286C12.1383 18.3143 12.1946 18.3044 12.25 18.2991C12.3072 18.2937 12.3689 18.2901 12.435 18.2884C12.5012 18.2848 12.5682 18.2812 12.6361 18.2776C12.7058 18.2741 12.7737 18.2696 12.8398 18.2642C12.9078 18.2571 12.9712 18.2472 13.0302 18.2347C13.0284 18.2347 13.032 18.2329 13.0409 18.2294C13.0499 18.224 13.0597 18.2195 13.0704 18.216C13.0829 18.2106 13.0945 18.2061 13.1053 18.2026C13.1178 18.1972 13.1258 18.1945 13.1294 18.1945V18.1999ZM14.7755 16.7575C14.7612 16.795 14.7335 16.8263 14.6924 16.8513C14.6513 16.8746 14.603 16.8934 14.5476 16.9077C14.494 16.9219 14.4368 16.9327 14.3761 16.9398C14.3153 16.9452 14.2581 16.9479 14.2045 16.9479C14.1115 16.9479 14.0409 16.9246 13.9927 16.8782C13.9444 16.8317 13.9203 16.745 13.9203 16.6181C13.9203 16.5681 13.9274 16.5216 13.9417 16.4787C13.9578 16.4358 13.9739 16.3965 13.99 16.3607C14.0079 16.325 14.0239 16.2937 14.0382 16.2669C14.0543 16.2401 14.0624 16.2169 14.0624 16.1972C14.0838 16.1811 14.1133 16.1668 14.1508 16.1543C14.1902 16.14 14.2295 16.1284 14.2688 16.1194C14.3081 16.1087 14.3439 16.1007 14.3761 16.0953C14.4082 16.09 14.4297 16.0873 14.4404 16.0873C14.5315 16.0873 14.6066 16.1034 14.6656 16.1355C14.7246 16.1677 14.7541 16.2043 14.7541 16.2454C14.7541 16.2651 14.7523 16.2866 14.7487 16.3098C14.7451 16.3312 14.7433 16.35 14.7433 16.3661C14.7469 16.4126 14.7559 16.4644 14.7702 16.5216C14.7845 16.577 14.7916 16.6279 14.7916 16.6744C14.7916 16.7066 14.7862 16.7343 14.7755 16.7575ZM14.931 19.6932C14.9167 19.7146 14.8872 19.7379 14.8425 19.7629C14.7996 19.7861 14.7505 19.8085 14.6951 19.8299C14.6397 19.8496 14.5834 19.8657 14.5262 19.8782C14.4708 19.8907 14.4243 19.8969 14.3868 19.8969C14.3171 19.8898 14.2581 19.8737 14.2098 19.8487C14.1616 19.8237 14.1223 19.7897 14.0919 19.7468C14.0615 19.7039 14.0391 19.6539 14.0248 19.5967C14.0105 19.5395 14.0007 19.4751 13.9954 19.4036C13.9954 19.3679 14.0007 19.3322 14.0114 19.2964C14.0239 19.2589 14.0302 19.2178 14.0302 19.1731C14.0302 19.123 14.0266 19.073 14.0195 19.0229C14.0123 18.9711 14.0088 18.9202 14.0088 18.8701C14.0088 18.829 14.0097 18.7763 14.0114 18.712C14.015 18.6476 14.0195 18.5779 14.0248 18.5028C14.0302 18.4278 14.0365 18.3509 14.0436 18.2723C14.0525 18.1936 14.0615 18.1195 14.0704 18.0497C14.0794 17.98 14.0892 17.9184 14.0999 17.8648C14.1106 17.8094 14.1223 17.7691 14.1348 17.7441C14.1651 17.6816 14.2036 17.636 14.25 17.6074C14.2965 17.5788 14.3475 17.5645 14.4029 17.5645C14.4744 17.5645 14.5342 17.5788 14.5825 17.6074C14.6307 17.636 14.6692 17.6771 14.6978 17.7307C14.7282 17.7843 14.7496 17.8496 14.7621 17.9264C14.7746 18.0015 14.7809 18.0855 14.7809 18.1784C14.7809 18.2195 14.7791 18.2598 14.7755 18.2991C14.7719 18.3384 14.7702 18.3768 14.7702 18.4144C14.7702 18.4894 14.7773 18.5636 14.7916 18.6369C14.8077 18.7102 14.8247 18.7808 14.8425 18.8487C14.8622 18.9166 14.8801 18.9818 14.8962 19.0444C14.9122 19.1069 14.9203 19.1641 14.9203 19.216C14.9203 19.2321 14.9194 19.2508 14.9176 19.2723C14.9158 19.2919 14.9149 19.3098 14.9149 19.3259C14.9149 19.392 14.9212 19.4465 14.9337 19.4894C14.9462 19.5305 14.9525 19.5681 14.9525 19.602C14.9525 19.6342 14.9453 19.6646 14.931 19.6932ZM16.62 19.3044C16.6236 19.3187 16.6254 19.3313 16.6254 19.342C16.6254 19.3527 16.6254 19.3625 16.6254 19.3715C16.6254 19.4126 16.6174 19.4483 16.6013 19.4787C16.5852 19.5091 16.5691 19.5404 16.553 19.5725C16.5441 19.5886 16.5351 19.6101 16.5262 19.6369C16.5173 19.6637 16.5056 19.6896 16.4913 19.7146C16.477 19.7379 16.4592 19.7584 16.4377 19.7763C16.4181 19.7942 16.3939 19.8031 16.3653 19.8031C16.3332 19.8031 16.2956 19.8013 16.2527 19.7977C16.2098 19.7942 16.1705 19.7924 16.1348 19.7924C16.0919 19.7924 16.04 19.7951 15.9793 19.8004C15.9185 19.8058 15.8551 19.8085 15.7889 19.8085H15.7353C15.6674 19.8085 15.6004 19.8147 15.5342 19.8272C15.4681 19.838 15.4109 19.8433 15.3627 19.8433C15.3394 19.8433 15.3135 19.8371 15.2849 19.8246C15.2581 19.812 15.2331 19.7951 15.2098 19.7736C15.1866 19.7504 15.1669 19.7218 15.1509 19.6878C15.1348 19.6539 15.1267 19.6154 15.1267 19.5725C15.1267 19.535 15.141 19.5073 15.1696 19.4894C15.1982 19.4698 15.2295 19.4519 15.2635 19.4358C15.2992 19.4197 15.3314 19.4019 15.36 19.3822C15.3904 19.3607 15.4055 19.3313 15.4055 19.2937C15.4055 19.258 15.402 19.2178 15.3948 19.1731C15.3877 19.1284 15.3796 19.0828 15.3707 19.0364C15.3635 18.9881 15.3564 18.9407 15.3492 18.8943C15.3421 18.846 15.3385 18.8013 15.3385 18.7602C15.3385 18.6941 15.3394 18.6279 15.3412 18.5618C15.343 18.4957 15.3439 18.4287 15.3439 18.3607C15.3439 18.1766 15.3385 18.0077 15.3278 17.854C15.3189 17.6985 15.309 17.5511 15.2983 17.4117C15.2876 17.2705 15.2769 17.132 15.2661 16.9961C15.2572 16.8585 15.2527 16.7146 15.2527 16.5645C15.2527 16.5037 15.2581 16.4492 15.2688 16.4009C15.2795 16.3527 15.2992 16.3116 15.3278 16.2776C15.3582 16.2437 15.4002 16.2177 15.4538 16.1999C15.5092 16.1802 15.5807 16.1704 15.6683 16.1704C15.7577 16.1704 15.8318 16.1793 15.8908 16.1972C15.9516 16.2151 15.9998 16.2428 16.0356 16.2803C16.0731 16.316 16.0999 16.3625 16.116 16.4197C16.1321 16.4751 16.1401 16.5412 16.1401 16.6181C16.1401 16.6878 16.1357 16.7548 16.1267 16.8192C16.1178 16.8817 16.1133 16.9505 16.1133 17.0256V17.1731C16.1133 17.2178 16.1106 17.2624 16.1053 17.3071C16.0999 17.3518 16.0937 17.3983 16.0865 17.4465C16.0794 17.493 16.0731 17.5413 16.0678 17.5913C16.0624 17.6396 16.0597 17.6905 16.0597 17.7441C16.0597 17.8889 16.0651 18.0372 16.0758 18.1892C16.0865 18.3411 16.0919 18.4966 16.0919 18.6557C16.0919 18.8129 16.0928 18.9318 16.0946 19.0122C16.0981 19.0927 16.1178 19.1329 16.1535 19.1329C16.1804 19.1329 16.2116 19.1275 16.2474 19.1168C16.2831 19.1061 16.3171 19.1007 16.3493 19.1007C16.4118 19.1043 16.469 19.1221 16.5208 19.1543C16.5727 19.1865 16.6057 19.2365 16.62 19.3044ZM18.1321 19.3044C18.1357 19.3187 18.1375 19.3313 18.1375 19.342C18.1375 19.3527 18.1375 19.3625 18.1375 19.3715C18.1375 19.4126 18.1294 19.4483 18.1133 19.4787C18.0973 19.5091 18.0812 19.5404 18.0651 19.5725C18.0561 19.5886 18.0472 19.6101 18.0383 19.6369C18.0293 19.6637 18.0177 19.6896 18.0034 19.7146C17.9891 19.7379 17.9712 19.7584 17.9498 19.7763C17.9301 19.7942 17.906 19.8031 17.8774 19.8031C17.8452 19.8031 17.8077 19.8013 17.7648 19.7977C17.7219 19.7942 17.6826 19.7924 17.6468 19.7924C17.604 19.7924 17.5521 19.7951 17.4914 19.8004C17.4306 19.8058 17.3671 19.8085 17.301 19.8085H17.2474C17.1795 19.8085 17.1124 19.8147 17.0463 19.8272C16.9802 19.838 16.923 19.8433 16.8747 19.8433C16.8515 19.8433 16.8256 19.8371 16.797 19.8246C16.7702 19.812 16.7451 19.7951 16.7219 19.7736C16.6987 19.7504 16.679 19.7218 16.6629 19.6878C16.6468 19.6539 16.6388 19.6154 16.6388 19.5725C16.6388 19.535 16.6531 19.5073 16.6817 19.4894C16.7103 19.4698 16.7416 19.4519 16.7755 19.4358C16.8113 19.4197 16.8434 19.4019 16.872 19.3822C16.9024 19.3607 16.9176 19.3313 16.9176 19.2937C16.9176 19.258 16.914 19.2178 16.9069 19.1731C16.8997 19.1284 16.8917 19.0828 16.8828 19.0364C16.8756 18.9881 16.8685 18.9407 16.8613 18.8943C16.8542 18.846 16.8506 18.8013 16.8506 18.7602C16.8506 18.6941 16.8515 18.6279 16.8533 18.5618C16.8551 18.4957 16.856 18.4287 16.856 18.3607C16.856 18.1766 16.8506 18.0077 16.8399 17.854C16.8309 17.6985 16.8211 17.5511 16.8104 17.4117C16.7997 17.2705 16.7889 17.132 16.7782 16.9961C16.7693 16.8585 16.7648 16.7146 16.7648 16.5645C16.7648 16.5037 16.7702 16.4492 16.7809 16.4009C16.7916 16.3527 16.8113 16.3116 16.8399 16.2776C16.8703 16.2437 16.9123 16.2177 16.9659 16.1999C17.0213 16.1802 17.0928 16.1704 17.1804 16.1704C17.2697 16.1704 17.3439 16.1793 17.4029 16.1972C17.4636 16.2151 17.5119 16.2428 17.5477 16.2803C17.5852 16.316 17.612 16.3625 17.6281 16.4197C17.6442 16.4751 17.6522 16.5412 17.6522 16.6181C17.6522 16.6878 17.6477 16.7548 17.6388 16.8192C17.6299 16.8817 17.6254 16.9505 17.6254 17.0256V17.1731C17.6254 17.2178 17.6227 17.2624 17.6174 17.3071C17.612 17.3518 17.6057 17.3983 17.5986 17.4465C17.5914 17.493 17.5852 17.5413 17.5798 17.5913C17.5745 17.6396 17.5718 17.6905 17.5718 17.7441C17.5718 17.8889 17.5771 18.0372 17.5879 18.1892C17.5986 18.3411 17.604 18.4966 17.604 18.6557C17.604 18.8129 17.6048 18.9318 17.6066 19.0122C17.6102 19.0927 17.6299 19.1329 17.6656 19.1329C17.6924 19.1329 17.7237 19.1275 17.7595 19.1168C17.7952 19.1061 17.8292 19.1007 17.8613 19.1007C17.9239 19.1043 17.9811 19.1221 18.0329 19.1543C18.0847 19.1865 18.1178 19.2365 18.1321 19.3044Z" fill="#FFD7F7"/>
</g>
<defs>
<clipPath id="clip0_1091_959">
<rect width="26.0576" height="32.625" rx="0.847403" fill="white"/>
</clipPath>
</defs>
</svg>
