<svg width="35" height="44" viewBox="0 0 35 44" fill="none" xmlns="http://www.w3.org/2000/svg">
<rect width="34.7435" height="43.5" rx="1.12987" fill="#FFD5F4"/>
<rect x="0.904297" y="0.904297" width="32.9357" height="41.6922" rx="0.564935" fill="#FB3757"/>
<path d="M12.4227 15.9028C12.418 15.9695 12.406 16.0327 12.387 16.0923C12.3679 16.1518 12.3584 16.2114 12.3584 16.271C12.3584 16.2996 12.3608 16.3365 12.3655 16.3818C12.3703 16.4271 12.3727 16.4759 12.3727 16.5284C12.3727 16.6189 12.3512 16.6999 12.3083 16.7714C12.2654 16.8429 12.2106 16.9097 12.1439 16.9716C12.0772 17.0336 12.0021 17.0943 11.9187 17.1539C11.8377 17.2111 11.7566 17.2707 11.6756 17.3327C11.6184 17.3779 11.5708 17.4232 11.5326 17.4685C11.4945 17.5138 11.4504 17.5543 11.4004 17.59C11.3503 17.6258 11.2872 17.6544 11.2109 17.6758C11.1347 17.6997 11.0286 17.7116 10.8928 17.7116C10.8189 17.7116 10.7426 17.7056 10.664 17.6937C10.5877 17.6842 10.5115 17.6722 10.4352 17.6579C10.359 17.6436 10.2851 17.6305 10.2136 17.6186C10.1445 17.6091 10.0801 17.6043 10.0206 17.6043C9.97051 17.6043 9.92285 17.6091 9.87757 17.6186C9.83229 17.6282 9.78701 17.6329 9.74174 17.6329C9.72267 17.6329 9.68931 17.6246 9.64165 17.6079C9.59398 17.5936 9.54275 17.5722 9.48794 17.5436C9.43312 17.5173 9.37831 17.4852 9.3235 17.447C9.26869 17.4065 9.22341 17.3613 9.18767 17.3112C9.1543 17.2659 9.13285 17.2183 9.12332 17.1682C9.11617 17.1158 9.10068 17.0657 9.07685 17.0181C9.04349 16.9585 8.9994 16.9013 8.94459 16.8465C8.89216 16.7917 8.84569 16.7262 8.80518 16.6499C8.76943 16.5808 8.73845 16.4974 8.71224 16.3997C8.68602 16.302 8.65624 16.2055 8.62287 16.1101C8.57998 15.9838 8.53708 15.8706 8.49419 15.7705C8.45367 15.6704 8.43342 15.5858 8.43342 15.5167C8.43342 15.4381 8.44414 15.3547 8.46559 15.2665C8.48704 15.176 8.51563 15.0925 8.55138 15.0163C8.58713 14.9376 8.62764 14.8733 8.67292 14.8233C8.72058 14.7732 8.76943 14.7482 8.81948 14.7482C8.84569 14.7482 8.8731 14.753 8.90169 14.7625C8.93029 14.772 8.96008 14.7768 8.99106 14.7768C9.03157 14.772 9.06494 14.7601 9.09115 14.741C9.11975 14.722 9.14954 14.7124 9.18052 14.7124C9.2115 14.7124 9.25558 14.7184 9.31278 14.7303C9.36997 14.7398 9.42836 14.753 9.48794 14.7696C9.5499 14.7863 9.60709 14.803 9.65952 14.8197C9.71433 14.8364 9.75484 14.8519 9.78106 14.8662C9.81919 14.8852 9.8597 14.9186 9.90259 14.9662C9.94549 15.0139 9.98481 15.0663 10.0206 15.1235C10.0563 15.1807 10.0861 15.2403 10.1099 15.3023C10.1338 15.3642 10.1457 15.419 10.1457 15.4667C10.1457 15.4929 10.1445 15.5203 10.1421 15.5489C10.1397 15.5751 10.1385 15.6013 10.1385 15.6276C10.1385 15.6752 10.1469 15.7241 10.1635 15.7741C10.1802 15.8218 10.1945 15.8754 10.2064 15.935C10.216 16.0017 10.2219 16.0648 10.2243 16.1244C10.2291 16.184 10.235 16.24 10.2422 16.2924C10.2493 16.3425 10.2589 16.3901 10.2708 16.4354C10.2851 16.4807 10.3089 16.5236 10.3423 16.5641C10.3899 16.6261 10.4567 16.6761 10.5425 16.7142C10.6282 16.75 10.7128 16.7679 10.7963 16.7679C10.8487 16.7679 10.8904 16.7595 10.9214 16.7428C10.9547 16.7262 10.9833 16.7059 11.0072 16.6821C11.031 16.6582 11.0536 16.6344 11.0751 16.6106C11.0989 16.5844 11.1263 16.5617 11.1573 16.5427C11.205 16.5141 11.2502 16.4926 11.2931 16.4783C11.336 16.4616 11.3742 16.4414 11.4075 16.4175C11.4409 16.3913 11.4671 16.3568 11.4862 16.3139C11.5052 16.271 11.5148 16.2078 11.5148 16.1244C11.5148 16.0577 11.5017 15.9874 11.4754 15.9135C11.4516 15.8373 11.4361 15.761 11.429 15.6847C11.4218 15.618 11.4171 15.562 11.4147 15.5167C11.4123 15.4691 11.4075 15.425 11.4004 15.3845C11.3956 15.3416 11.3861 15.2999 11.3718 15.2594C11.3575 15.2165 11.3325 15.1676 11.2967 15.1128C11.2872 15.1033 11.2657 15.0794 11.2324 15.0413C11.199 15.0008 11.1597 14.9591 11.1144 14.9162C11.0715 14.8733 11.025 14.8352 10.975 14.8018C10.9249 14.7661 10.8785 14.7482 10.8356 14.7482C10.8165 14.7482 10.7974 14.7494 10.7784 14.7518C10.7617 14.7541 10.7438 14.7553 10.7248 14.7553C10.6485 14.7553 10.5699 14.7387 10.4888 14.7053C10.4102 14.6719 10.3292 14.6314 10.2458 14.5838C10.1624 14.5337 10.0778 14.4813 9.99196 14.4265C9.90617 14.3717 9.82038 14.3228 9.73459 14.2799C9.66309 14.2442 9.58207 14.2108 9.49151 14.1798C9.40334 14.1488 9.31993 14.1143 9.24129 14.0762C9.16264 14.038 9.09711 13.9939 9.04468 13.9439C8.99225 13.8915 8.96604 13.8271 8.96604 13.7509C8.96604 13.7366 8.96842 13.708 8.97319 13.6651C8.98034 13.6222 8.98868 13.5733 8.99821 13.5185C9.00774 13.4613 9.01966 13.4005 9.03396 13.3362C9.04825 13.2695 9.06494 13.2063 9.084 13.1467C9.10307 13.0848 9.12213 13.0288 9.1412 12.9787C9.16264 12.9287 9.18528 12.8894 9.20911 12.8608C9.24248 12.8203 9.28418 12.7809 9.33423 12.7428C9.38665 12.7047 9.43789 12.6713 9.48794 12.6427C9.53798 12.6117 9.58207 12.5879 9.6202 12.5712C9.66071 12.5522 9.68692 12.5426 9.69884 12.5426C9.72029 12.5426 9.74054 12.545 9.75961 12.5498C9.78106 12.5522 9.8025 12.5534 9.82395 12.5534C9.86923 12.5534 9.90736 12.5486 9.93834 12.5391C9.9717 12.5271 10.0003 12.5128 10.0241 12.4962C10.0503 12.4795 10.0754 12.464 10.0992 12.4497C10.123 12.433 10.1504 12.4187 10.1814 12.4068C10.2219 12.3901 10.2708 12.3818 10.328 12.3818C10.3876 12.3794 10.4459 12.3722 10.5031 12.3603C10.5699 12.346 10.6533 12.3293 10.7534 12.3103C10.8558 12.2888 10.9583 12.2698 11.0608 12.2531C11.1656 12.234 11.2633 12.2185 11.3539 12.2066C11.4445 12.1947 11.5124 12.1899 11.5577 12.1923C11.5815 12.1923 11.6065 12.1983 11.6327 12.2102C11.6613 12.2221 11.6828 12.2483 11.6971 12.2888C11.728 12.3103 11.7638 12.3258 11.8043 12.3353C11.8448 12.3448 11.8782 12.3603 11.9044 12.3818C11.9401 12.4128 11.9771 12.4533 12.0152 12.5033C12.0557 12.5534 12.0939 12.5963 12.1296 12.632C12.1653 12.6677 12.1963 12.6999 12.2225 12.7285C12.2511 12.7547 12.2738 12.7809 12.2905 12.8072C12.3095 12.831 12.3226 12.8572 12.3298 12.8858C12.3393 12.912 12.3441 12.9442 12.3441 12.9823C12.3441 13.0586 12.3357 13.1324 12.3191 13.2039C12.3024 13.2754 12.2738 13.3398 12.2333 13.397C12.1951 13.4518 12.1427 13.4971 12.076 13.5328C12.0116 13.5662 11.9294 13.5829 11.8293 13.5829C11.7697 13.5829 11.7054 13.5769 11.6363 13.565C11.5672 13.5507 11.5052 13.5328 11.4504 13.5114C11.4218 13.5018 11.3932 13.4863 11.3646 13.4649C11.336 13.4434 11.3074 13.422 11.2788 13.4005C11.2502 13.3767 11.2204 13.3541 11.1895 13.3326C11.1585 13.3112 11.1251 13.2945 11.0894 13.2826C11.0536 13.2707 11.0072 13.2599 10.95 13.2504C10.8928 13.2385 10.8332 13.229 10.7712 13.2218C10.7117 13.2147 10.6533 13.2087 10.5961 13.2039C10.5389 13.1992 10.4912 13.1968 10.4531 13.1968C10.403 13.1968 10.3542 13.2004 10.3065 13.2075C10.2589 13.2123 10.216 13.2242 10.1778 13.2433C10.1421 13.2599 10.1123 13.2838 10.0885 13.3148C10.0646 13.3457 10.0527 13.3862 10.0527 13.4363C10.0527 13.4649 10.0575 13.4899 10.067 13.5114C10.0789 13.5328 10.0944 13.5531 10.1135 13.5721C10.1349 13.5888 10.1612 13.6067 10.1921 13.6258C10.2231 13.6448 10.2589 13.6675 10.2994 13.6937C10.3351 13.7175 10.3697 13.7437 10.403 13.7723C10.4388 13.8009 10.4733 13.8283 10.5067 13.8545C10.5425 13.8807 10.5782 13.9058 10.6139 13.9296C10.6497 13.9534 10.6866 13.9725 10.7248 13.9868C10.77 14.0011 10.8165 14.0106 10.8642 14.0154C10.9142 14.0178 10.9583 14.0225 10.9964 14.0297C11.137 14.063 11.2681 14.1119 11.3896 14.1762C11.5136 14.2382 11.628 14.3109 11.7328 14.3943C11.8377 14.4777 11.9318 14.5683 12.0152 14.666C12.101 14.7613 12.1761 14.859 12.2404 14.9591C12.2714 15.0091 12.2964 15.0544 12.3155 15.0949C12.3345 15.1331 12.3488 15.1724 12.3584 15.2129C12.3679 15.251 12.3739 15.2927 12.3762 15.338C12.3786 15.3833 12.3798 15.4381 12.3798 15.5024C12.3798 15.5763 12.387 15.6478 12.4013 15.7169C12.4156 15.786 12.4227 15.848 12.4227 15.9028ZM13.8383 13.3434C13.8192 13.3934 13.7823 13.4351 13.7275 13.4685C13.6727 13.4994 13.6083 13.5245 13.5344 13.5435C13.4629 13.5626 13.3867 13.5769 13.3057 13.5864C13.2246 13.5936 13.1484 13.5972 13.0769 13.5972C12.953 13.5972 12.8588 13.5662 12.7945 13.5042C12.7301 13.4423 12.698 13.3267 12.698 13.1575C12.698 13.0907 12.7075 13.0288 12.7266 12.9716C12.748 12.9144 12.7695 12.862 12.7909 12.8143C12.8147 12.7666 12.8362 12.7249 12.8552 12.6892C12.8767 12.6534 12.8874 12.6225 12.8874 12.5963C12.916 12.5748 12.9553 12.5557 13.0054 12.5391C13.0578 12.52 13.1102 12.5045 13.1627 12.4926C13.2151 12.4783 13.2628 12.4676 13.3057 12.4604C13.3485 12.4533 13.3771 12.4497 13.3914 12.4497C13.513 12.4497 13.6131 12.4711 13.6917 12.514C13.7704 12.5569 13.8097 12.6058 13.8097 12.6606C13.8097 12.6868 13.8073 12.7154 13.8025 12.7464C13.7978 12.775 13.7954 12.8 13.7954 12.8215C13.8001 12.8834 13.8121 12.9525 13.8311 13.0288C13.8502 13.1027 13.8597 13.1706 13.8597 13.2325C13.8597 13.2754 13.8526 13.3124 13.8383 13.3434ZM14.0456 17.2576C14.0265 17.2862 13.9872 17.3172 13.9276 17.3505C13.8704 17.3815 13.8049 17.4113 13.731 17.4399C13.6572 17.4661 13.5821 17.4876 13.5058 17.5042C13.432 17.5209 13.37 17.5293 13.32 17.5293C13.227 17.5197 13.1484 17.4983 13.084 17.4649C13.0197 17.4316 12.9673 17.3863 12.9267 17.3291C12.8862 17.2719 12.8564 17.2052 12.8374 17.1289C12.8183 17.0526 12.8052 16.9668 12.7981 16.8715C12.7981 16.8239 12.8052 16.7762 12.8195 16.7285C12.8362 16.6785 12.8445 16.6237 12.8445 16.5641C12.8445 16.4974 12.8398 16.4307 12.8302 16.3639C12.8207 16.2948 12.8159 16.2269 12.8159 16.1602C12.8159 16.1054 12.8171 16.0351 12.8195 15.9493C12.8243 15.8635 12.8302 15.7705 12.8374 15.6704C12.8445 15.5704 12.8529 15.4679 12.8624 15.363C12.8743 15.2582 12.8862 15.1593 12.8981 15.0663C12.9101 14.9734 12.9232 14.8912 12.9375 14.8197C12.9518 14.7458 12.9673 14.6922 12.9839 14.6588C13.0244 14.5754 13.0757 14.5146 13.1376 14.4765C13.1996 14.4384 13.2675 14.4193 13.3414 14.4193C13.4367 14.4193 13.5166 14.4384 13.5809 14.4765C13.6452 14.5146 13.6965 14.5695 13.7346 14.6409C13.7751 14.7124 13.8037 14.7994 13.8204 14.9019C13.8371 15.002 13.8454 15.114 13.8454 15.2379C13.8454 15.2927 13.843 15.3463 13.8383 15.3988C13.8335 15.4512 13.8311 15.5024 13.8311 15.5525C13.8311 15.6526 13.8407 15.7515 13.8597 15.8492C13.8812 15.9469 13.9038 16.041 13.9276 16.1316C13.9539 16.2221 13.9777 16.3091 13.9991 16.3925C14.0206 16.4759 14.0313 16.5522 14.0313 16.6213C14.0313 16.6427 14.0301 16.6678 14.0277 16.6964C14.0253 16.7226 14.0242 16.7464 14.0242 16.7679C14.0242 16.856 14.0325 16.9287 14.0492 16.9859C14.0659 17.0407 14.0742 17.0908 14.0742 17.136C14.0742 17.1789 14.0647 17.2195 14.0456 17.2576ZM17.7954 15.699C17.7906 15.7253 17.7728 15.7741 17.7418 15.8456C17.7108 15.9147 17.6751 15.9886 17.6345 16.0672C17.5964 16.1459 17.5583 16.2186 17.5202 16.2853C17.4844 16.352 17.457 16.3961 17.4379 16.4175C17.3617 16.501 17.2378 16.5641 17.0662 16.607C16.8946 16.6499 16.6873 16.669 16.4442 16.6642C16.3775 16.6642 16.3084 16.6535 16.2369 16.632C16.1654 16.6106 16.0927 16.5999 16.0188 16.5999C15.9449 16.5999 15.8711 16.6106 15.7972 16.632C15.7233 16.6535 15.6482 16.6642 15.572 16.6642C15.5243 16.6642 15.4755 16.657 15.4254 16.6427V16.6821C15.4254 16.7226 15.4302 16.7583 15.4397 16.7893C15.4492 16.8203 15.46 16.8501 15.4719 16.8787C15.4862 16.9049 15.4993 16.9323 15.5112 16.9609C15.5255 16.9871 15.5362 17.0181 15.5434 17.0538C15.5481 17.0967 15.5529 17.1468 15.5577 17.204C15.5624 17.2588 15.566 17.3136 15.5684 17.3684C15.5732 17.4232 15.5779 17.4744 15.5827 17.5221C15.5899 17.5698 15.5982 17.6067 15.6077 17.6329C15.6268 17.683 15.6411 17.7354 15.6506 17.7902C15.6602 17.8474 15.6685 17.9034 15.6756 17.9582C15.6828 18.0154 15.6887 18.0702 15.6935 18.1227C15.6983 18.1775 15.7066 18.2263 15.7185 18.2692C15.7305 18.3026 15.7471 18.3347 15.7686 18.3657C15.7924 18.3967 15.8067 18.4301 15.8115 18.4658C15.8115 18.4849 15.8079 18.5016 15.8008 18.5159C15.796 18.5302 15.79 18.5445 15.7829 18.5588C15.7757 18.5731 15.7674 18.5885 15.7579 18.6052C15.7507 18.6243 15.7448 18.6469 15.74 18.6731C15.7352 18.7065 15.7316 18.7399 15.7293 18.7732C15.7293 18.809 15.7293 18.8435 15.7293 18.8769C15.7293 18.9103 15.7269 18.9412 15.7221 18.9698C15.7173 18.9984 15.709 19.0211 15.6971 19.0378C15.6899 19.0473 15.6673 19.0604 15.6292 19.0771C15.5934 19.0961 15.5541 19.1152 15.5112 19.1343C15.4683 19.1557 15.4266 19.1736 15.3861 19.1879C15.348 19.2022 15.3241 19.2105 15.3146 19.2129C15.286 19.2201 15.255 19.2236 15.2217 19.2236C15.1907 19.226 15.1585 19.2272 15.1251 19.2272C14.8463 19.2272 14.6461 19.1772 14.5246 19.0771C14.4031 18.9794 14.3423 18.8149 14.3423 18.5838C14.3423 18.5337 14.3471 18.4825 14.3566 18.4301C14.3685 18.38 14.3804 18.3276 14.3923 18.2728C14.4043 18.2204 14.415 18.1667 14.4245 18.1119C14.4364 18.0571 14.4424 18.0023 14.4424 17.9475C14.4424 17.8951 14.4412 17.8462 14.4388 17.8009C14.4364 17.7557 14.4352 17.7092 14.4352 17.6615C14.4352 17.5996 14.44 17.5316 14.4495 17.4578C14.4591 17.3815 14.4698 17.3017 14.4817 17.2183C14.496 17.1325 14.5079 17.0419 14.5175 16.9466C14.527 16.8513 14.5318 16.7524 14.5318 16.6499C14.5318 16.6142 14.5282 16.5677 14.521 16.5105C14.5163 16.4533 14.5103 16.3901 14.5032 16.321C14.496 16.2495 14.4889 16.1745 14.4817 16.0958C14.4769 16.0172 14.4746 15.9362 14.4746 15.8528C14.4746 15.7574 14.4793 15.6573 14.4889 15.5525C14.4984 15.4452 14.5091 15.3332 14.521 15.2165C14.5329 15.0997 14.5437 14.9782 14.5532 14.8519C14.5627 14.7255 14.5675 14.5933 14.5675 14.4551C14.5675 14.374 14.5627 14.3014 14.5532 14.237C14.5437 14.1727 14.5389 14.1107 14.5389 14.0511C14.5389 13.9344 14.5747 13.8438 14.6461 13.7795C14.72 13.7127 14.8094 13.6794 14.9142 13.6794C14.9619 13.6794 15.0072 13.6889 15.0501 13.708C15.093 13.727 15.1275 13.7568 15.1537 13.7973C15.1752 13.8307 15.1859 13.8867 15.1859 13.9653C15.1883 14.0416 15.1895 14.1202 15.1895 14.2013C15.1895 14.2823 15.1919 14.3538 15.1966 14.4157C15.2038 14.4753 15.2217 14.5051 15.2503 14.5051C15.2765 14.5051 15.3063 14.4956 15.3396 14.4765C15.3754 14.4551 15.4111 14.4312 15.4469 14.405C15.4826 14.3764 15.516 14.3502 15.547 14.3264C15.5803 14.3002 15.6077 14.2823 15.6292 14.2728C15.7054 14.2418 15.7948 14.2179 15.8973 14.2013C16.0021 14.1822 16.1082 14.1524 16.2154 14.1119C16.2655 14.0928 16.3191 14.0726 16.3763 14.0511C16.4358 14.0273 16.4966 14.0059 16.5586 13.9868C16.6205 13.9653 16.6837 13.9475 16.748 13.9332C16.8148 13.9189 16.8815 13.9117 16.9482 13.9117C17.0221 13.9117 17.1067 13.9296 17.202 13.9653C17.2973 13.9987 17.3879 14.0571 17.4737 14.1405C17.5595 14.2239 17.6322 14.3359 17.6917 14.4765C17.7513 14.6147 17.7811 14.7887 17.7811 14.9984C17.7811 15.0461 17.7799 15.0949 17.7775 15.145C17.7751 15.1926 17.774 15.2379 17.774 15.2808C17.774 15.3285 17.7799 15.3761 17.7918 15.4238C17.8061 15.4715 17.8133 15.5239 17.8133 15.5811C17.8133 15.6001 17.8109 15.6204 17.8061 15.6418C17.8037 15.6609 17.8002 15.68 17.7954 15.699ZM16.9625 15.2665C16.9768 15.2522 16.9875 15.2308 16.9947 15.2022C17.0018 15.1712 17.0054 15.139 17.0054 15.1057C17.0054 15.0318 16.9995 14.9698 16.9875 14.9198C16.9756 14.8673 16.9601 14.8268 16.9411 14.7982C16.9244 14.7673 16.9041 14.7458 16.8803 14.7339C16.8588 14.7196 16.8374 14.7124 16.816 14.7124C16.7969 14.7124 16.779 14.7148 16.7623 14.7196C16.7457 14.7244 16.729 14.7267 16.7123 14.7267H16.6622C16.5216 14.7267 16.3882 14.7434 16.2619 14.7768C16.138 14.8101 16.0236 14.8507 15.9187 14.8983C15.8162 14.9436 15.7245 14.9901 15.6435 15.0377C15.5648 15.0854 15.4993 15.1235 15.4469 15.1521C15.4183 15.1688 15.3932 15.1795 15.3718 15.1843C15.3503 15.1867 15.3337 15.1903 15.3218 15.195C15.3098 15.1998 15.3003 15.2105 15.2932 15.2272C15.2884 15.2415 15.286 15.2677 15.286 15.3058C15.286 15.363 15.2908 15.4047 15.3003 15.4309C15.3098 15.4548 15.3372 15.4667 15.3825 15.4667C15.4302 15.4667 15.491 15.4572 15.5648 15.4381C15.6411 15.419 15.7162 15.4059 15.79 15.3988C15.8663 15.3916 15.9485 15.3869 16.0367 15.3845C16.1249 15.3797 16.2142 15.3749 16.3048 15.3702C16.3977 15.3654 16.4883 15.3595 16.5765 15.3523C16.667 15.3428 16.7516 15.3297 16.8303 15.313C16.8279 15.313 16.8326 15.3106 16.8445 15.3058C16.8565 15.2987 16.8696 15.2927 16.8839 15.288C16.9006 15.2808 16.916 15.2749 16.9303 15.2701C16.947 15.2629 16.9577 15.2594 16.9625 15.2594V15.2665ZM22.757 15.3344C22.757 15.3487 22.7582 15.3618 22.7606 15.3738C22.763 15.3857 22.7642 15.3988 22.7642 15.4131C22.7642 15.4679 22.757 15.5239 22.7427 15.5811C22.7308 15.6383 22.7153 15.6955 22.6962 15.7527C22.6772 15.8099 22.6581 15.8682 22.639 15.9278C22.62 15.985 22.6057 16.0434 22.5961 16.103C22.5914 16.1268 22.589 16.1542 22.589 16.1852C22.589 16.2138 22.589 16.2436 22.589 16.2746C22.589 16.3055 22.5878 16.3353 22.5854 16.3639C22.583 16.3925 22.5795 16.4175 22.5747 16.439C22.5628 16.4986 22.539 16.5629 22.5032 16.632C22.4675 16.7011 22.4329 16.7667 22.3995 16.8286C22.3495 16.9216 22.3042 17.0002 22.2637 17.0646C22.2256 17.1265 22.1791 17.1778 22.1243 17.2183C22.0719 17.2564 22.0051 17.2838 21.9241 17.3005C21.8431 17.3172 21.7359 17.3255 21.6024 17.3255C21.488 17.3255 21.3724 17.3195 21.2557 17.3076C21.1389 17.2957 21.0257 17.279 20.9161 17.2576C20.8064 17.2361 20.704 17.2123 20.6086 17.1861C20.5133 17.1575 20.4311 17.1277 20.362 17.0967C20.281 17.061 20.2166 17.0229 20.169 16.9823C20.1213 16.9418 20.0796 16.893 20.0439 16.8358C20.0105 16.7786 19.9795 16.7083 19.9509 16.6249C19.9223 16.5391 19.8866 16.433 19.8437 16.3067C19.8222 16.2424 19.7996 16.1792 19.7758 16.1173C19.7543 16.0553 19.7352 15.9934 19.7186 15.9314C19.7019 15.8671 19.6888 15.8039 19.6792 15.7419C19.6697 15.6776 19.6661 15.6121 19.6685 15.5453C19.6685 15.5072 19.6709 15.4631 19.6757 15.4131C19.6828 15.3606 19.6912 15.3094 19.7007 15.2594C19.7102 15.2069 19.7209 15.1581 19.7329 15.1128C19.7448 15.0651 19.7579 15.027 19.7722 14.9984C19.7841 14.9698 19.7972 14.946 19.8115 14.9269C19.8282 14.9079 19.8437 14.8888 19.858 14.8697C19.8723 14.8507 19.8842 14.8316 19.8937 14.8125C19.9033 14.7935 19.908 14.7696 19.908 14.741C19.908 14.7196 19.9056 14.7017 19.9009 14.6874C19.8961 14.6707 19.8901 14.6552 19.883 14.6409C19.8758 14.6267 19.8699 14.6124 19.8651 14.5981C19.8604 14.5814 19.858 14.5635 19.858 14.5444C19.858 14.5468 19.8627 14.5337 19.8723 14.5051C19.8842 14.4765 19.8997 14.442 19.9187 14.4014C19.9378 14.3586 19.9604 14.3133 19.9867 14.2656C20.0153 14.2156 20.045 14.1703 20.076 14.1298C20.1094 14.0869 20.1451 14.0511 20.1833 14.0225C20.2238 13.9939 20.2643 13.9796 20.3048 13.9796H20.387H20.4156C20.449 13.9796 20.4895 13.9832 20.5372 13.9904C20.5848 13.9975 20.6361 14.0047 20.6909 14.0118C20.7481 14.019 20.8076 14.0261 20.8696 14.0333C20.9339 14.0404 20.9971 14.044 21.0591 14.044C21.1687 14.044 21.2795 14.0404 21.3915 14.0333C21.5035 14.0261 21.6095 14.0225 21.7096 14.0225C21.8526 14.0225 21.9611 14.0404 22.0349 14.0762C22.1112 14.1119 22.1672 14.1572 22.2029 14.212C22.2411 14.2644 22.2673 14.3228 22.2816 14.3871C22.2983 14.4491 22.3197 14.5087 22.3459 14.5659C22.365 14.6088 22.3984 14.6552 22.446 14.7053C22.4937 14.753 22.5366 14.8113 22.5747 14.8805C22.5938 14.9138 22.6057 14.9543 22.6104 15.002C22.6152 15.0496 22.6271 15.0914 22.6462 15.1271C22.6653 15.1795 22.6867 15.22 22.7105 15.2486C22.7368 15.2749 22.7522 15.3034 22.757 15.3344ZM21.9027 15.5167C21.9074 15.4691 21.9122 15.4059 21.917 15.3273C21.9217 15.2463 21.9241 15.1676 21.9241 15.0914C21.9241 15.0532 21.9194 15.0079 21.9098 14.9555C21.9003 14.9007 21.88 14.8495 21.849 14.8018C21.8181 14.7518 21.7728 14.7101 21.7132 14.6767C21.656 14.6409 21.5798 14.6231 21.4844 14.6231C21.4249 14.6231 21.3629 14.629 21.2986 14.6409C21.2366 14.6529 21.1758 14.6588 21.1162 14.6588C21.0877 14.6588 21.0579 14.6576 21.0269 14.6552C20.9959 14.6529 20.9649 14.6517 20.9339 14.6517C20.8505 14.6517 20.7826 14.6695 20.7302 14.7053C20.6778 14.7387 20.6372 14.7851 20.6086 14.8447C20.5801 14.9019 20.5598 14.9698 20.5479 15.0485C20.5383 15.1271 20.5336 15.2105 20.5336 15.2987C20.5336 15.4131 20.5372 15.5084 20.5443 15.5847C20.5538 15.6609 20.5681 15.7241 20.5872 15.7741C20.6063 15.8242 20.6301 15.8647 20.6587 15.8956C20.6873 15.9242 20.723 15.9493 20.7659 15.9707C20.8041 15.985 20.835 15.9922 20.8589 15.9922C20.8827 15.9922 20.9125 15.9993 20.9482 16.0136C20.9697 16.0208 20.9864 16.0315 20.9983 16.0458C21.0102 16.0577 21.0209 16.0708 21.0305 16.0851C21.0424 16.097 21.0543 16.1077 21.0662 16.1173C21.0805 16.1268 21.0972 16.1316 21.1162 16.1316C21.1329 16.1316 21.1508 16.1304 21.1699 16.128C21.1913 16.1256 21.2128 16.1244 21.2342 16.1244C21.2628 16.1244 21.2878 16.1292 21.3093 16.1387C21.3307 16.1483 21.3486 16.1602 21.3629 16.1745C21.3796 16.1864 21.3939 16.1971 21.4058 16.2066C21.4201 16.2162 21.4344 16.2209 21.4487 16.2209C21.4558 16.2186 21.4797 16.2066 21.5202 16.1852C21.5631 16.1637 21.6084 16.1399 21.656 16.1137C21.7037 16.0851 21.7466 16.0589 21.7847 16.0351C21.8252 16.0112 21.8467 15.9969 21.849 15.9922C21.861 15.9731 21.8693 15.9433 21.8741 15.9028C21.8812 15.8599 21.886 15.8146 21.8884 15.767C21.8931 15.7193 21.8955 15.6728 21.8955 15.6276C21.8979 15.5823 21.9003 15.5453 21.9027 15.5167ZM26.3531 15.1521C26.3507 15.176 26.3436 15.1962 26.3317 15.2129C26.3221 15.2272 26.3102 15.2451 26.2959 15.2665C26.284 15.2856 26.2733 15.3094 26.2637 15.338C26.2542 15.3666 26.2494 15.4047 26.2494 15.4524C26.2494 15.4715 26.2506 15.4881 26.253 15.5024C26.2554 15.5167 26.2566 15.5334 26.2566 15.5525C26.2566 15.624 26.2399 15.68 26.2065 15.7205C26.1756 15.7586 26.1327 15.7896 26.0779 15.8134C26.0254 15.8373 25.9635 15.8563 25.892 15.8706C25.8205 15.8825 25.7466 15.8992 25.6703 15.9207C25.6155 15.935 25.5571 15.9517 25.4952 15.9707C25.4332 15.9898 25.3725 15.9993 25.3129 15.9993C25.2128 15.9993 25.1413 15.9707 25.0984 15.9135C25.0579 15.8563 25.0317 15.7848 25.0198 15.699C25.0078 15.6109 25.0043 15.5167 25.009 15.4166C25.0138 15.3166 25.0126 15.2236 25.0055 15.1378C25.0007 15.0496 24.9828 14.977 24.9518 14.9198C24.9232 14.8626 24.8684 14.834 24.7874 14.834C24.754 14.834 24.7195 14.8399 24.6837 14.8519C24.648 14.8638 24.6134 14.8781 24.5801 14.8947C24.5491 14.909 24.5193 14.9245 24.4907 14.9412C24.4645 14.9555 24.443 14.9662 24.4264 14.9734C24.3906 14.9901 24.3489 15.0079 24.3013 15.027C24.256 15.0437 24.2119 15.0628 24.169 15.0842C24.1261 15.1033 24.0892 15.1259 24.0582 15.1521C24.0296 15.176 24.0153 15.2046 24.0153 15.2379C24.0153 15.2927 24.0272 15.363 24.051 15.4488C24.0772 15.5322 24.1047 15.6168 24.1332 15.7026C24.1618 15.786 24.1881 15.8611 24.2119 15.9278C24.2381 15.9922 24.2512 16.0327 24.2512 16.0494C24.2512 16.066 24.2476 16.0827 24.2405 16.0994C24.2333 16.1137 24.2298 16.1316 24.2298 16.153C24.2298 16.1864 24.2333 16.2221 24.2405 16.2603C24.25 16.2984 24.2596 16.3389 24.2691 16.3818C24.281 16.4223 24.2917 16.4652 24.3013 16.5105C24.3108 16.5534 24.3156 16.5975 24.3156 16.6427C24.3156 16.657 24.3144 16.688 24.312 16.7357C24.3096 16.781 24.306 16.831 24.3013 16.8858C24.2965 16.9383 24.2893 16.9895 24.2798 17.0395C24.2727 17.0872 24.2631 17.1218 24.2512 17.1432C24.2393 17.1623 24.225 17.1766 24.2083 17.1861C24.1916 17.1956 24.1738 17.204 24.1547 17.2111C24.1356 17.2159 24.1154 17.2218 24.0939 17.229C24.0725 17.2338 24.0498 17.2433 24.026 17.2576C23.9736 17.291 23.9355 17.3219 23.9116 17.3505C23.8878 17.3767 23.864 17.4006 23.8401 17.422C23.8187 17.4411 23.7901 17.4566 23.7543 17.4685C23.721 17.4804 23.6674 17.4864 23.5935 17.4864C23.491 17.4864 23.4052 17.4744 23.3361 17.4506C23.267 17.4244 23.211 17.3851 23.1681 17.3327C23.1252 17.2778 23.0942 17.2087 23.0752 17.1253C23.0585 17.0419 23.0501 16.943 23.0501 16.8286C23.0501 16.75 23.0561 16.6725 23.068 16.5963C23.0823 16.5176 23.0978 16.439 23.1145 16.3604C23.1335 16.2817 23.1514 16.2031 23.1681 16.1244C23.1872 16.0434 23.2015 15.96 23.211 15.8742C23.2229 15.7598 23.2324 15.6371 23.2396 15.506C23.2491 15.3726 23.2539 15.2486 23.2539 15.1342C23.2539 15.0389 23.2467 14.9317 23.2324 14.8125C23.2277 14.7839 23.2193 14.7553 23.2074 14.7267C23.1955 14.6981 23.1895 14.6707 23.1895 14.6445C23.1895 14.6088 23.1931 14.5706 23.2003 14.5301C23.2098 14.4896 23.2193 14.4491 23.2289 14.4086C23.2408 14.3681 23.2515 14.3276 23.261 14.2871C23.2706 14.2442 23.2765 14.2025 23.2789 14.1619C23.2789 14.1214 23.273 14.0893 23.261 14.0654C23.2515 14.0392 23.2467 14.013 23.2467 13.9868C23.2467 13.9201 23.2598 13.8688 23.2861 13.8331C23.3123 13.795 23.3397 13.7687 23.3683 13.7544C23.3969 13.7378 23.4219 13.7282 23.4433 13.7258C23.4648 13.7235 23.4707 13.7223 23.4612 13.7223C23.5518 13.7223 23.6221 13.7413 23.6721 13.7795C23.7245 13.8152 23.7627 13.8605 23.7865 13.9153C23.8127 13.9701 23.8294 14.0297 23.8366 14.094C23.8437 14.156 23.8497 14.2144 23.8544 14.2692C23.8592 14.324 23.8651 14.3705 23.8723 14.4086C23.8818 14.4443 23.9009 14.4622 23.9295 14.4622C23.9486 14.4622 23.9724 14.4539 24.001 14.4372C24.032 14.4205 24.0606 14.4026 24.0868 14.3836C24.113 14.3645 24.1332 14.349 24.1475 14.3371C24.1618 14.3228 24.1642 14.3204 24.1547 14.33L24.1475 14.3371C24.1499 14.3371 24.1523 14.3359 24.1547 14.3335C24.1618 14.3264 24.1702 14.3204 24.1797 14.3157C24.1702 14.3204 24.1654 14.3228 24.1654 14.3228H24.1618C24.1928 14.299 24.2238 14.2751 24.2548 14.2513C24.281 14.2322 24.3096 14.212 24.3406 14.1905C24.3716 14.1667 24.4002 14.1476 24.4264 14.1333C24.4669 14.1071 24.5122 14.0893 24.5622 14.0797C24.6122 14.0678 24.6575 14.0488 24.698 14.0225C24.7338 13.9963 24.7695 13.9677 24.8053 13.9367C24.841 13.9058 24.8732 13.8807 24.9018 13.8617C24.9304 13.8498 24.9649 13.8378 25.0055 13.8259C25.0484 13.814 25.0936 13.8045 25.1413 13.7973C25.189 13.7878 25.2354 13.7807 25.2807 13.7759C25.326 13.7687 25.3665 13.7652 25.4022 13.7652C25.4356 13.7652 25.4642 13.7711 25.488 13.783C25.5119 13.7926 25.5345 13.8057 25.556 13.8224C25.5774 13.839 25.6 13.8557 25.6239 13.8724C25.6501 13.8891 25.6811 13.9022 25.7168 13.9117C25.7621 13.926 25.8145 13.9367 25.8741 13.9439C25.9337 13.9487 25.9885 13.9618 26.0385 13.9832C26.091 14.0047 26.135 14.0404 26.1708 14.0905C26.2065 14.1381 26.2232 14.2132 26.2208 14.3157C26.2208 14.3609 26.2256 14.4014 26.2351 14.4372C26.2447 14.4729 26.2542 14.5051 26.2637 14.5337C26.2756 14.5623 26.2864 14.5897 26.2959 14.6159C26.3054 14.6421 26.3102 14.6695 26.3102 14.6981C26.3102 14.7244 26.3078 14.753 26.3031 14.7839C26.3007 14.8125 26.2995 14.8423 26.2995 14.8733C26.2995 14.921 26.3078 14.9722 26.3245 15.027C26.3436 15.0794 26.3531 15.1211 26.3531 15.1521ZM14.6175 24.9028C14.6128 24.9695 14.6009 25.0327 14.5818 25.0923C14.5627 25.1518 14.5532 25.2114 14.5532 25.271C14.5532 25.2996 14.5556 25.3365 14.5604 25.3818C14.5651 25.4271 14.5675 25.4759 14.5675 25.5284C14.5675 25.6189 14.5461 25.6999 14.5032 25.7714C14.4603 25.8429 14.4055 25.9097 14.3387 25.9716C14.272 26.0336 14.1969 26.0943 14.1135 26.1539C14.0325 26.2111 13.9515 26.2707 13.8704 26.3327C13.8133 26.3779 13.7656 26.4232 13.7275 26.4685C13.6893 26.5138 13.6452 26.5543 13.5952 26.59C13.5452 26.6258 13.482 26.6544 13.4057 26.6758C13.3295 26.6997 13.2234 26.7116 13.0876 26.7116C13.0137 26.7116 12.9375 26.7056 12.8588 26.6937C12.7826 26.6842 12.7063 26.6722 12.63 26.6579C12.5538 26.6436 12.4799 26.6305 12.4084 26.6186C12.3393 26.6091 12.275 26.6043 12.2154 26.6043C12.1653 26.6043 12.1177 26.6091 12.0724 26.6186C12.0271 26.6282 11.9818 26.6329 11.9366 26.6329C11.9175 26.6329 11.8841 26.6246 11.8365 26.6079C11.7888 26.5936 11.7376 26.5722 11.6828 26.5436C11.628 26.5173 11.5731 26.4852 11.5183 26.447C11.4635 26.4065 11.4182 26.3613 11.3825 26.3112C11.3491 26.2659 11.3277 26.2183 11.3182 26.1682C11.311 26.1158 11.2955 26.0657 11.2717 26.0181C11.2383 25.9585 11.1942 25.9013 11.1394 25.8465C11.087 25.7917 11.0405 25.7262 11 25.6499C10.9643 25.5808 10.9333 25.4974 10.9071 25.3997C10.8809 25.302 10.8511 25.2055 10.8177 25.1101C10.7748 24.9838 10.7319 24.8706 10.689 24.7705C10.6485 24.6704 10.6282 24.5858 10.6282 24.5167C10.6282 24.4381 10.639 24.3547 10.6604 24.2665C10.6819 24.176 10.7105 24.0925 10.7462 24.0163C10.782 23.9376 10.8225 23.8733 10.8677 23.8233C10.9154 23.7732 10.9643 23.7482 11.0143 23.7482C11.0405 23.7482 11.0679 23.753 11.0965 23.7625C11.1251 23.772 11.1549 23.7768 11.1859 23.7768C11.2264 23.772 11.2598 23.7601 11.286 23.741C11.3146 23.722 11.3444 23.7124 11.3753 23.7124C11.4063 23.7124 11.4504 23.7184 11.5076 23.7303C11.5648 23.7398 11.6232 23.753 11.6828 23.7696C11.7447 23.7863 11.8019 23.803 11.8543 23.8197C11.9092 23.8364 11.9497 23.8519 11.9759 23.8662C12.014 23.8852 12.0545 23.9186 12.0974 23.9662C12.1403 24.0139 12.1796 24.0663 12.2154 24.1235C12.2511 24.1807 12.2809 24.2403 12.3048 24.3023C12.3286 24.3642 12.3405 24.419 12.3405 24.4667C12.3405 24.4929 12.3393 24.5203 12.3369 24.5489C12.3345 24.5751 12.3334 24.6013 12.3334 24.6276C12.3334 24.6752 12.3417 24.7241 12.3584 24.7741C12.3751 24.8218 12.3894 24.8754 12.4013 24.935C12.4108 25.0017 12.4168 25.0648 12.4191 25.1244C12.4239 25.184 12.4299 25.24 12.437 25.2924C12.4442 25.3425 12.4537 25.3901 12.4656 25.4354C12.4799 25.4807 12.5037 25.5236 12.5371 25.5641C12.5848 25.6261 12.6515 25.6761 12.7373 25.7142C12.8231 25.75 12.9077 25.7679 12.9911 25.7679C13.0435 25.7679 13.0852 25.7595 13.1162 25.7428C13.1496 25.7262 13.1782 25.7059 13.202 25.6821C13.2258 25.6582 13.2485 25.6344 13.2699 25.6106C13.2937 25.5844 13.3211 25.5617 13.3521 25.5427C13.3998 25.5141 13.4451 25.4926 13.488 25.4783C13.5309 25.4616 13.569 25.4414 13.6023 25.4175C13.6357 25.3913 13.6619 25.3568 13.681 25.3139C13.7001 25.271 13.7096 25.2078 13.7096 25.1244C13.7096 25.0577 13.6965 24.9874 13.6703 24.9135C13.6464 24.8373 13.6309 24.761 13.6238 24.6847C13.6166 24.618 13.6119 24.562 13.6095 24.5167C13.6071 24.4691 13.6023 24.425 13.5952 24.3845C13.5904 24.3416 13.5809 24.2999 13.5666 24.2594C13.5523 24.2165 13.5273 24.1676 13.4915 24.1128C13.482 24.1033 13.4606 24.0794 13.4272 24.0413C13.3938 24.0008 13.3545 23.9591 13.3092 23.9162C13.2663 23.8733 13.2199 23.8352 13.1698 23.8018C13.1198 23.7661 13.0733 23.7482 13.0304 23.7482C13.0113 23.7482 12.9923 23.7494 12.9732 23.7518C12.9565 23.7541 12.9387 23.7553 12.9196 23.7553C12.8433 23.7553 12.7647 23.7387 12.6837 23.7053C12.605 23.6719 12.524 23.6314 12.4406 23.5838C12.3572 23.5337 12.2726 23.4813 12.1868 23.4265C12.101 23.3717 12.0152 23.3228 11.9294 23.2799C11.8579 23.2442 11.7769 23.2108 11.6863 23.1798C11.5982 23.1488 11.5148 23.1143 11.4361 23.0762C11.3575 23.038 11.2919 22.9939 11.2395 22.9439C11.1871 22.8915 11.1609 22.8271 11.1609 22.7509C11.1609 22.7366 11.1633 22.708 11.168 22.6651C11.1752 22.6222 11.1835 22.5733 11.193 22.5185C11.2026 22.4613 11.2145 22.4005 11.2288 22.3362C11.2431 22.2695 11.2598 22.2063 11.2788 22.1467C11.2979 22.0848 11.317 22.0288 11.336 21.9787C11.3575 21.9287 11.3801 21.8894 11.4039 21.8608C11.4373 21.8203 11.479 21.7809 11.5291 21.7428C11.5815 21.7047 11.6327 21.6713 11.6828 21.6427C11.7328 21.6117 11.7769 21.5879 11.815 21.5712C11.8555 21.5522 11.8818 21.5426 11.8937 21.5426C11.9151 21.5426 11.9354 21.545 11.9544 21.5498C11.9759 21.5522 11.9973 21.5534 12.0188 21.5534C12.0641 21.5534 12.1022 21.5486 12.1332 21.5391C12.1665 21.5271 12.1951 21.5128 12.219 21.4962C12.2452 21.4795 12.2702 21.464 12.294 21.4497C12.3179 21.433 12.3453 21.4187 12.3762 21.4068C12.4168 21.3901 12.4656 21.3818 12.5228 21.3818C12.5824 21.3794 12.6408 21.3722 12.698 21.3603C12.7647 21.346 12.8481 21.3293 12.9482 21.3103C13.0507 21.2888 13.1531 21.2698 13.2556 21.2531C13.3605 21.234 13.4582 21.2185 13.5487 21.2066C13.6393 21.1947 13.7072 21.1899 13.7525 21.1923C13.7763 21.1923 13.8013 21.1983 13.8276 21.2102C13.8561 21.2221 13.8776 21.2483 13.8919 21.2888C13.9229 21.3103 13.9586 21.3258 13.9991 21.3353C14.0396 21.3448 14.073 21.3603 14.0992 21.3818C14.135 21.4128 14.1719 21.4533 14.21 21.5033C14.2506 21.5534 14.2887 21.5963 14.3244 21.632C14.3602 21.6677 14.3912 21.6999 14.4174 21.7285C14.446 21.7547 14.4686 21.7809 14.4853 21.8072C14.5044 21.831 14.5175 21.8572 14.5246 21.8858C14.5341 21.912 14.5389 21.9442 14.5389 21.9823C14.5389 22.0586 14.5306 22.1324 14.5139 22.2039C14.4972 22.2754 14.4686 22.3398 14.4281 22.397C14.39 22.4518 14.3375 22.4971 14.2708 22.5328C14.2065 22.5662 14.1242 22.5829 14.0242 22.5829C13.9646 22.5829 13.9002 22.5769 13.8311 22.565C13.762 22.5507 13.7001 22.5328 13.6452 22.5114C13.6166 22.5018 13.5881 22.4863 13.5595 22.4649C13.5309 22.4434 13.5023 22.422 13.4737 22.4005C13.4451 22.3767 13.4153 22.3541 13.3843 22.3326C13.3533 22.3112 13.32 22.2945 13.2842 22.2826C13.2485 22.2707 13.202 22.2599 13.1448 22.2504C13.0876 22.2385 13.028 22.229 12.9661 22.2218C12.9065 22.2147 12.8481 22.2087 12.7909 22.2039C12.7337 22.1992 12.686 22.1968 12.6479 22.1968C12.5979 22.1968 12.549 22.2004 12.5014 22.2075C12.4537 22.2123 12.4108 22.2242 12.3727 22.2433C12.3369 22.2599 12.3071 22.2838 12.2833 22.3148C12.2595 22.3457 12.2476 22.3862 12.2476 22.4363C12.2476 22.4649 12.2523 22.4899 12.2619 22.5114C12.2738 22.5328 12.2893 22.5531 12.3083 22.5721C12.3298 22.5888 12.356 22.6067 12.387 22.6258C12.418 22.6448 12.4537 22.6675 12.4942 22.6937C12.53 22.7175 12.5645 22.7437 12.5979 22.7723C12.6336 22.8009 12.6682 22.8283 12.7015 22.8545C12.7373 22.8807 12.773 22.9058 12.8088 22.9296C12.8445 22.9534 12.8815 22.9725 12.9196 22.9868C12.9649 23.0011 13.0113 23.0106 13.059 23.0154C13.109 23.0178 13.1531 23.0225 13.1913 23.0297C13.3319 23.063 13.4629 23.1119 13.5845 23.1762C13.7084 23.2382 13.8228 23.3109 13.9276 23.3943C14.0325 23.4777 14.1266 23.5683 14.21 23.666C14.2958 23.7613 14.3709 23.859 14.4352 23.9591C14.4662 24.0091 14.4912 24.0544 14.5103 24.0949C14.5294 24.1331 14.5437 24.1724 14.5532 24.2129C14.5627 24.251 14.5687 24.2927 14.5711 24.338C14.5735 24.3833 14.5747 24.4381 14.5747 24.5024C14.5747 24.5763 14.5818 24.6478 14.5961 24.7169C14.6104 24.786 14.6175 24.848 14.6175 24.9028ZM18.3388 24.699C18.334 24.7253 18.3161 24.7741 18.2851 24.8456C18.2542 24.9147 18.2184 24.9886 18.1779 25.0672C18.1398 25.1459 18.1016 25.2186 18.0635 25.2853C18.0278 25.352 18.0004 25.3961 17.9813 25.4175C17.905 25.501 17.7811 25.5641 17.6095 25.607C17.4379 25.6499 17.2306 25.669 16.9875 25.6642C16.9208 25.6642 16.8517 25.6535 16.7802 25.632C16.7087 25.6106 16.636 25.5999 16.5622 25.5999C16.4883 25.5999 16.4144 25.6106 16.3405 25.632C16.2666 25.6535 16.1916 25.6642 16.1153 25.6642C16.0677 25.6642 16.0188 25.657 15.9688 25.6427V25.6821C15.9688 25.7226 15.9735 25.7583 15.9831 25.7893C15.9926 25.8203 16.0033 25.8501 16.0152 25.8787C16.0295 25.9049 16.0426 25.9323 16.0546 25.9609C16.0689 25.9871 16.0796 26.0181 16.0867 26.0538C16.0915 26.0967 16.0963 26.1468 16.101 26.204C16.1058 26.2588 16.1094 26.3136 16.1117 26.3684C16.1165 26.4232 16.1213 26.4744 16.126 26.5221C16.1332 26.5698 16.1415 26.6067 16.1511 26.6329C16.1701 26.683 16.1844 26.7354 16.194 26.7902C16.2035 26.8474 16.2118 26.9034 16.219 26.9582C16.2261 27.0154 16.2321 27.0702 16.2369 27.1227C16.2416 27.1775 16.25 27.2263 16.2619 27.2692C16.2738 27.3026 16.2905 27.3347 16.3119 27.3657C16.3358 27.3967 16.3501 27.4301 16.3548 27.4658C16.3548 27.4849 16.3512 27.5016 16.3441 27.5159C16.3393 27.5302 16.3334 27.5445 16.3262 27.5588C16.3191 27.5731 16.3107 27.5885 16.3012 27.6052C16.2941 27.6243 16.2881 27.6469 16.2833 27.6731C16.2786 27.7065 16.275 27.7399 16.2726 27.7732C16.2726 27.809 16.2726 27.8435 16.2726 27.8769C16.2726 27.9103 16.2702 27.9412 16.2655 27.9698C16.2607 27.9984 16.2524 28.0211 16.2404 28.0378C16.2333 28.0473 16.2106 28.0604 16.1725 28.0771C16.1368 28.0961 16.0975 28.1152 16.0546 28.1343C16.0117 28.1557 15.97 28.1736 15.9294 28.1879C15.8913 28.2022 15.8675 28.2105 15.8579 28.2129C15.8294 28.2201 15.7984 28.2236 15.765 28.2236C15.734 28.226 15.7019 28.2272 15.6685 28.2272C15.3897 28.2272 15.1895 28.1772 15.068 28.0771C14.9464 27.9794 14.8856 27.8149 14.8856 27.5838C14.8856 27.5337 14.8904 27.4825 14.8999 27.4301C14.9119 27.38 14.9238 27.3276 14.9357 27.2728C14.9476 27.2204 14.9583 27.1667 14.9679 27.1119C14.9798 27.0571 14.9857 27.0023 14.9857 26.9475C14.9857 26.8951 14.9845 26.8462 14.9822 26.8009C14.9798 26.7557 14.9786 26.7092 14.9786 26.6615C14.9786 26.5996 14.9834 26.5316 14.9929 26.4578C15.0024 26.3815 15.0131 26.3017 15.0251 26.2183C15.0394 26.1325 15.0513 26.0419 15.0608 25.9466C15.0703 25.8513 15.0751 25.7524 15.0751 25.6499C15.0751 25.6142 15.0715 25.5677 15.0644 25.5105C15.0596 25.4533 15.0537 25.3901 15.0465 25.321C15.0394 25.2495 15.0322 25.1745 15.0251 25.0958C15.0203 25.0172 15.0179 24.9362 15.0179 24.8528C15.0179 24.7574 15.0227 24.6573 15.0322 24.5525C15.0417 24.4452 15.0525 24.3332 15.0644 24.2165C15.0763 24.0997 15.087 23.9782 15.0966 23.8519C15.1061 23.7255 15.1108 23.5933 15.1108 23.4551C15.1108 23.374 15.1061 23.3014 15.0966 23.237C15.087 23.1727 15.0823 23.1107 15.0823 23.0511C15.0823 22.9344 15.118 22.8438 15.1895 22.7795C15.2634 22.7127 15.3527 22.6794 15.4576 22.6794C15.5053 22.6794 15.5505 22.6889 15.5934 22.708C15.6363 22.727 15.6709 22.7568 15.6971 22.7973C15.7185 22.8307 15.7293 22.8867 15.7293 22.9653C15.7316 23.0416 15.7328 23.1202 15.7328 23.2013C15.7328 23.2823 15.7352 23.3538 15.74 23.4157C15.7471 23.4753 15.765 23.5051 15.7936 23.5051C15.8198 23.5051 15.8496 23.4956 15.883 23.4765C15.9187 23.4551 15.9545 23.4312 15.9902 23.405C16.026 23.3764 16.0593 23.3502 16.0903 23.3264C16.1237 23.3002 16.1511 23.2823 16.1725 23.2728C16.2488 23.2418 16.3381 23.2179 16.4406 23.2013C16.5455 23.1822 16.6515 23.1524 16.7588 23.1119C16.8088 23.0928 16.8624 23.0726 16.9196 23.0511C16.9792 23.0273 17.04 23.0059 17.1019 22.9868C17.1639 22.9653 17.227 22.9475 17.2914 22.9332C17.3581 22.9189 17.4248 22.9117 17.4916 22.9117C17.5654 22.9117 17.65 22.9296 17.7454 22.9653C17.8407 22.9987 17.9312 23.0571 18.017 23.1405C18.1028 23.2239 18.1755 23.3359 18.2351 23.4765C18.2947 23.6147 18.3245 23.7887 18.3245 23.9984C18.3245 24.0461 18.3233 24.0949 18.3209 24.145C18.3185 24.1926 18.3173 24.2379 18.3173 24.2808C18.3173 24.3285 18.3233 24.3761 18.3352 24.4238C18.3495 24.4715 18.3566 24.5239 18.3566 24.5811C18.3566 24.6001 18.3542 24.6204 18.3495 24.6418C18.3471 24.6609 18.3435 24.68 18.3388 24.699ZM17.5059 24.2665C17.5202 24.2522 17.5309 24.2308 17.538 24.2022C17.5452 24.1712 17.5488 24.139 17.5488 24.1057C17.5488 24.0318 17.5428 23.9698 17.5309 23.9198C17.519 23.8673 17.5035 23.8268 17.4844 23.7982C17.4677 23.7673 17.4475 23.7458 17.4236 23.7339C17.4022 23.7196 17.3807 23.7124 17.3593 23.7124C17.3402 23.7124 17.3224 23.7148 17.3057 23.7196C17.289 23.7244 17.2723 23.7267 17.2556 23.7267H17.2056C17.065 23.7267 16.9315 23.7434 16.8052 23.7768C16.6813 23.8101 16.5669 23.8507 16.4621 23.8983C16.3596 23.9436 16.2678 23.9901 16.1868 24.0377C16.1082 24.0854 16.0426 24.1235 15.9902 24.1521C15.9616 24.1688 15.9366 24.1795 15.9151 24.1843C15.8937 24.1867 15.877 24.1903 15.8651 24.195C15.8532 24.1998 15.8437 24.2105 15.8365 24.2272C15.8317 24.2415 15.8294 24.2677 15.8294 24.3058C15.8294 24.363 15.8341 24.4047 15.8437 24.4309C15.8532 24.4548 15.8806 24.4667 15.9259 24.4667C15.9735 24.4667 16.0343 24.4572 16.1082 24.4381C16.1844 24.419 16.2595 24.4059 16.3334 24.3988C16.4096 24.3916 16.4919 24.3869 16.58 24.3845C16.6682 24.3797 16.7576 24.3749 16.8481 24.3702C16.9411 24.3654 17.0316 24.3595 17.1198 24.3523C17.2104 24.3428 17.295 24.3297 17.3736 24.313C17.3712 24.313 17.376 24.3106 17.3879 24.3058C17.3998 24.2987 17.4129 24.2927 17.4272 24.288C17.4439 24.2808 17.4594 24.2749 17.4737 24.2701C17.4904 24.2629 17.5011 24.2594 17.5059 24.2594V24.2665ZM19.7007 22.3434C19.6816 22.3934 19.6447 22.4351 19.5899 22.4685C19.5351 22.4994 19.4707 22.5245 19.3968 22.5435C19.3254 22.5626 19.2491 22.5769 19.1681 22.5864C19.087 22.5936 19.0108 22.5972 18.9393 22.5972C18.8154 22.5972 18.7212 22.5662 18.6569 22.5042C18.5926 22.4423 18.5604 22.3267 18.5604 22.1575C18.5604 22.0907 18.5699 22.0288 18.589 21.9716C18.6104 21.9144 18.6319 21.862 18.6533 21.8143C18.6772 21.7666 18.6986 21.7249 18.7177 21.6892C18.7391 21.6534 18.7498 21.6225 18.7498 21.5963C18.7784 21.5748 18.8178 21.5557 18.8678 21.5391C18.9202 21.52 18.9727 21.5045 19.0251 21.4926C19.0775 21.4783 19.1252 21.4676 19.1681 21.4604C19.211 21.4533 19.2396 21.4497 19.2539 21.4497C19.3754 21.4497 19.4755 21.4711 19.5541 21.514C19.6328 21.5569 19.6721 21.6058 19.6721 21.6606C19.6721 21.6868 19.6697 21.7154 19.6649 21.7464C19.6602 21.775 19.6578 21.8 19.6578 21.8215C19.6626 21.8834 19.6745 21.9525 19.6935 22.0288C19.7126 22.1027 19.7221 22.1706 19.7221 22.2325C19.7221 22.2754 19.715 22.3124 19.7007 22.3434ZM19.908 26.2576C19.889 26.2862 19.8496 26.3172 19.7901 26.3505C19.7329 26.3815 19.6673 26.4113 19.5935 26.4399C19.5196 26.4661 19.4445 26.4876 19.3682 26.5042C19.2944 26.5209 19.2324 26.5293 19.1824 26.5293C19.0894 26.5197 19.0108 26.4983 18.9464 26.4649C18.8821 26.4316 18.8297 26.3863 18.7892 26.3291C18.7486 26.2719 18.7189 26.2052 18.6998 26.1289C18.6807 26.0526 18.6676 25.9668 18.6605 25.8715C18.6605 25.8239 18.6676 25.7762 18.6819 25.7285C18.6986 25.6785 18.7069 25.6237 18.7069 25.5641C18.7069 25.4974 18.7022 25.4307 18.6926 25.3639C18.6831 25.2948 18.6783 25.2269 18.6783 25.1602C18.6783 25.1054 18.6795 25.0351 18.6819 24.9493C18.6867 24.8635 18.6926 24.7705 18.6998 24.6704C18.7069 24.5704 18.7153 24.4679 18.7248 24.363C18.7367 24.2582 18.7486 24.1593 18.7606 24.0663C18.7725 23.9734 18.7856 23.8912 18.7999 23.8197C18.8142 23.7458 18.8297 23.6922 18.8464 23.6588C18.8869 23.5754 18.9381 23.5146 19.0001 23.4765C19.062 23.4384 19.1299 23.4193 19.2038 23.4193C19.2991 23.4193 19.379 23.4384 19.4433 23.4765C19.5077 23.5146 19.5589 23.5695 19.597 23.6409C19.6375 23.7124 19.6661 23.7994 19.6828 23.9019C19.6995 24.002 19.7078 24.114 19.7078 24.2379C19.7078 24.2927 19.7055 24.3463 19.7007 24.3988C19.6959 24.4512 19.6935 24.5024 19.6935 24.5525C19.6935 24.6526 19.7031 24.7515 19.7221 24.8492C19.7436 24.9469 19.7662 25.041 19.7901 25.1316C19.8163 25.2221 19.8401 25.3091 19.8615 25.3925C19.883 25.4759 19.8937 25.5522 19.8937 25.6213C19.8937 25.6427 19.8925 25.6678 19.8901 25.6964C19.8878 25.7226 19.8866 25.7464 19.8866 25.7679C19.8866 25.856 19.8949 25.9287 19.9116 25.9859C19.9283 26.0407 19.9366 26.0908 19.9366 26.136C19.9366 26.1789 19.9271 26.2195 19.908 26.2576ZM22.16 25.7393C22.1648 25.7583 22.1672 25.775 22.1672 25.7893C22.1672 25.8036 22.1672 25.8167 22.1672 25.8286C22.1672 25.8834 22.1565 25.9311 22.135 25.9716C22.1136 26.0121 22.0921 26.0538 22.0707 26.0967C22.0588 26.1182 22.0468 26.1468 22.0349 26.1825C22.023 26.2183 22.0075 26.2528 21.9885 26.2862C21.9694 26.3172 21.9456 26.3446 21.917 26.3684C21.8908 26.3922 21.8586 26.4041 21.8205 26.4041C21.7776 26.4041 21.7275 26.4018 21.6703 26.397C21.6131 26.3922 21.5607 26.3898 21.513 26.3898C21.4558 26.3898 21.3867 26.3934 21.3057 26.4006C21.2247 26.4077 21.1401 26.4113 21.0519 26.4113H20.9804C20.8899 26.4113 20.8005 26.4196 20.7123 26.4363C20.6241 26.4506 20.5479 26.4578 20.4835 26.4578C20.4526 26.4578 20.418 26.4494 20.3799 26.4327C20.3441 26.4161 20.3108 26.3934 20.2798 26.3648C20.2488 26.3338 20.2226 26.2957 20.2011 26.2504C20.1797 26.2052 20.169 26.1539 20.169 26.0967C20.169 26.0467 20.188 26.0097 20.2262 25.9859C20.2643 25.9597 20.306 25.9359 20.3513 25.9144C20.3989 25.893 20.4418 25.8691 20.48 25.8429C20.5205 25.8143 20.5407 25.775 20.5407 25.725C20.5407 25.6773 20.536 25.6237 20.5264 25.5641C20.5169 25.5045 20.5062 25.4438 20.4943 25.3818C20.4847 25.3175 20.4752 25.2543 20.4657 25.1923C20.4561 25.128 20.4514 25.0684 20.4514 25.0136C20.4514 24.9254 20.4526 24.8373 20.4549 24.7491C20.4573 24.6609 20.4585 24.5715 20.4585 24.481C20.4585 24.2355 20.4514 24.0103 20.4371 23.8054C20.4251 23.5981 20.412 23.4014 20.3977 23.2156C20.3834 23.0273 20.3691 22.8426 20.3548 22.6615C20.3429 22.478 20.337 22.2862 20.337 22.086C20.337 22.005 20.3441 21.9323 20.3584 21.8679C20.3727 21.8036 20.3989 21.7488 20.4371 21.7035C20.4776 21.6582 20.5336 21.6237 20.6051 21.5998C20.6789 21.5736 20.7743 21.5605 20.891 21.5605C21.0102 21.5605 21.1091 21.5724 21.1877 21.5963C21.2688 21.6201 21.3331 21.657 21.3808 21.7071C21.4308 21.7547 21.4666 21.8167 21.488 21.8929C21.5095 21.9668 21.5202 22.055 21.5202 22.1575C21.5202 22.2504 21.5142 22.3398 21.5023 22.4256C21.4904 22.509 21.4844 22.6007 21.4844 22.7008V22.8974C21.4844 22.957 21.4809 23.0166 21.4737 23.0762C21.4666 23.1357 21.4582 23.1977 21.4487 23.262C21.4392 23.324 21.4308 23.3883 21.4237 23.4551C21.4165 23.5194 21.4129 23.5873 21.4129 23.6588C21.4129 23.8519 21.4201 24.0496 21.4344 24.2522C21.4487 24.4548 21.4558 24.6621 21.4558 24.8742C21.4558 25.0839 21.457 25.2424 21.4594 25.3496C21.4642 25.4569 21.4904 25.5105 21.5381 25.5105C21.5738 25.5105 21.6155 25.5033 21.6632 25.489C21.7108 25.4747 21.7561 25.4676 21.799 25.4676C21.8824 25.4724 21.9587 25.4962 22.0278 25.5391C22.0969 25.582 22.141 25.6487 22.16 25.7393ZM24.1761 25.7393C24.1809 25.7583 24.1833 25.775 24.1833 25.7893C24.1833 25.8036 24.1833 25.8167 24.1833 25.8286C24.1833 25.8834 24.1726 25.9311 24.1511 25.9716C24.1297 26.0121 24.1082 26.0538 24.0868 26.0967C24.0749 26.1182 24.0629 26.1468 24.051 26.1825C24.0391 26.2183 24.0236 26.2528 24.0046 26.2862C23.9855 26.3172 23.9617 26.3446 23.9331 26.3684C23.9069 26.3922 23.8747 26.4041 23.8366 26.4041C23.7937 26.4041 23.7436 26.4018 23.6864 26.397C23.6292 26.3922 23.5768 26.3898 23.5291 26.3898C23.4719 26.3898 23.4028 26.3934 23.3218 26.4006C23.2408 26.4077 23.1562 26.4113 23.068 26.4113H22.9965C22.906 26.4113 22.8166 26.4196 22.7284 26.4363C22.6402 26.4506 22.564 26.4578 22.4996 26.4578C22.4687 26.4578 22.4341 26.4494 22.396 26.4327C22.3602 26.4161 22.3269 26.3934 22.2959 26.3648C22.2649 26.3338 22.2387 26.2957 22.2172 26.2504C22.1958 26.2052 22.1851 26.1539 22.1851 26.0967C22.1851 26.0467 22.2041 26.0097 22.2423 25.9859C22.2804 25.9597 22.3221 25.9359 22.3674 25.9144C22.415 25.893 22.4579 25.8691 22.4961 25.8429C22.5366 25.8143 22.5568 25.775 22.5568 25.725C22.5568 25.6773 22.5521 25.6237 22.5425 25.5641C22.533 25.5045 22.5223 25.4438 22.5104 25.3818C22.5008 25.3175 22.4913 25.2543 22.4818 25.1923C22.4722 25.128 22.4675 25.0684 22.4675 25.0136C22.4675 24.9254 22.4687 24.8373 22.471 24.7491C22.4734 24.6609 22.4746 24.5715 22.4746 24.481C22.4746 24.2355 22.4675 24.0103 22.4532 23.8054C22.4412 23.5981 22.4281 23.4014 22.4138 23.2156C22.3995 23.0273 22.3852 22.8426 22.3709 22.6615C22.359 22.478 22.3531 22.2862 22.3531 22.086C22.3531 22.005 22.3602 21.9323 22.3745 21.8679C22.3888 21.8036 22.415 21.7488 22.4532 21.7035C22.4937 21.6582 22.5497 21.6237 22.6212 21.5998C22.695 21.5736 22.7904 21.5605 22.9071 21.5605C23.0263 21.5605 23.1252 21.5724 23.2038 21.5963C23.2849 21.6201 23.3492 21.657 23.3969 21.7071C23.4469 21.7547 23.4827 21.8167 23.5041 21.8929C23.5256 21.9668 23.5363 22.055 23.5363 22.1575C23.5363 22.2504 23.5303 22.3398 23.5184 22.4256C23.5065 22.509 23.5005 22.6007 23.5005 22.7008V22.8974C23.5005 22.957 23.497 23.0166 23.4898 23.0762C23.4827 23.1357 23.4743 23.1977 23.4648 23.262C23.4553 23.324 23.4469 23.3883 23.4398 23.4551C23.4326 23.5194 23.429 23.5873 23.429 23.6588C23.429 23.8519 23.4362 24.0496 23.4505 24.2522C23.4648 24.4548 23.4719 24.6621 23.4719 24.8742C23.4719 25.0839 23.4731 25.2424 23.4755 25.3496C23.4803 25.4569 23.5065 25.5105 23.5542 25.5105C23.5899 25.5105 23.6316 25.5033 23.6793 25.489C23.7269 25.4747 23.7722 25.4676 23.8151 25.4676C23.8985 25.4724 23.9748 25.4962 24.0439 25.5391C24.113 25.582 24.1571 25.6487 24.1761 25.7393Z" fill="#FFD7F7"/>
</svg>
