<svg width="35" height="44" viewBox="0 0 35 44" fill="none" xmlns="http://www.w3.org/2000/svg">
<g clip-path="url(#clip0_1091_434)">
<rect width="34.7435" height="43.5" rx="1.12987" fill="#DF91B5"/>
<g clip-path="url(#clip1_1091_434)">
<path d="M34.7302 0H-8.75586V43.4861H34.7302V0Z" fill="#DF91B5"/>
<path d="M2.84049 2.89844H-0.0585938V5.7975H2.84049V2.89844Z" fill="#B70012"/>
<path d="M5.73891 0H2.83984V2.89906H5.73891V0Z" fill="#B70012"/>
<path d="M8.63735 2.89844H5.73828V5.7975H8.63735V2.89844Z" fill="#B70012"/>
<path d="M11.5378 0H8.63867V2.89906H11.5378V0Z" fill="#B70012"/>
<path d="M14.4362 2.89844H11.5371V5.7975H14.4362V2.89844Z" fill="#B70012"/>
<path d="M17.3346 0H14.4355V2.89906H17.3346V0Z" fill="#B70012"/>
<path d="M20.235 2.89844H17.3359V5.7975H20.235V2.89844Z" fill="#B70012"/>
<path d="M23.1334 0H20.2344V2.89906H23.1334V0Z" fill="#B70012"/>
<path d="M26.0319 2.89844H23.1328V5.7975H26.0319V2.89844Z" fill="#B70012"/>
<path d="M28.9323 0H26.0332V2.89906H28.9323V0Z" fill="#B70012"/>
<path d="M31.8307 2.89844H28.9316V5.7975H31.8307V2.89844Z" fill="#B70012"/>
<path d="M34.7291 0H31.8301V2.89906H34.7291V0Z" fill="#B70012"/>
<path d="M2.84049 8.69727H-0.0585938V11.5963H2.84049V8.69727Z" fill="#B70012"/>
<path d="M5.73891 5.79688H2.83984V8.69594H5.73891V5.79688Z" fill="#B70012"/>
<path d="M8.63735 8.69727H5.73828V11.5963H8.63735V8.69727Z" fill="#B70012"/>
<path d="M11.5378 5.79688H8.63867V8.69594H11.5378V5.79688Z" fill="#B70012"/>
<path d="M14.4362 8.69727H11.5371V11.5963H14.4362V8.69727Z" fill="#B70012"/>
<path d="M17.3346 5.79688H14.4355V8.69594H17.3346V5.79688Z" fill="#B70012"/>
<path d="M20.235 8.69727H17.3359V11.5963H20.235V8.69727Z" fill="#B70012"/>
<path d="M23.1334 5.79688H20.2344V8.69594H23.1334V5.79688Z" fill="#B70012"/>
<path d="M26.0319 8.69727H23.1328V11.5963H26.0319V8.69727Z" fill="#B70012"/>
<path d="M28.9323 5.79688H26.0332V8.69594H28.9323V5.79688Z" fill="#B70012"/>
<path d="M31.8307 8.69727H28.9316V11.5963H31.8307V8.69727Z" fill="#B70012"/>
<path d="M34.7291 5.79688H31.8301V8.69594H34.7291V5.79688Z" fill="#B70012"/>
<path d="M2.84049 14.4961H-0.0585938V17.3952H2.84049V14.4961Z" fill="#B70012"/>
<path d="M5.73891 11.5957H2.83984V14.4948H5.73891V11.5957Z" fill="#B70012"/>
<path d="M8.63735 14.4961H5.73828V17.3952H8.63735V14.4961Z" fill="#B70012"/>
<path d="M11.5378 11.5957H8.63867V14.4948H11.5378V11.5957Z" fill="#B70012"/>
<path d="M14.4362 14.4961H11.5371V17.3952H14.4362V14.4961Z" fill="#B70012"/>
<path d="M17.3346 11.5957H14.4355V14.4948H17.3346V11.5957Z" fill="#B70012"/>
<path d="M20.235 14.4961H17.3359V17.3952H20.235V14.4961Z" fill="#B70012"/>
<path d="M23.1334 11.5957H20.2344V14.4948H23.1334V11.5957Z" fill="#B70012"/>
<path d="M26.0319 14.4961H23.1328V17.3952H26.0319V14.4961Z" fill="#B70012"/>
<path d="M28.9323 11.5957H26.0332V14.4948H28.9323V11.5957Z" fill="#B70012"/>
<path d="M31.8307 14.4961H28.9316V17.3952H31.8307V14.4961Z" fill="#B70012"/>
<path d="M34.7291 11.5957H31.8301V14.4948H34.7291V11.5957Z" fill="#B70012"/>
<path d="M2.84049 20.293H-0.0585938V23.192H2.84049V20.293Z" fill="#B70012"/>
<path d="M5.73891 17.3945H2.83984V20.2936H5.73891V17.3945Z" fill="#B70012"/>
<path d="M8.63735 20.293H5.73828V23.192H8.63735V20.293Z" fill="#B70012"/>
<path d="M11.5378 17.3945H8.63867V20.2936H11.5378V17.3945Z" fill="#B70012"/>
<path d="M14.4362 20.293H11.5371V23.192H14.4362V20.293Z" fill="#B70012"/>
<path d="M17.3346 17.3945H14.4355V20.2936H17.3346V17.3945Z" fill="#B70012"/>
<path d="M20.235 20.293H17.3359V23.192H20.235V20.293Z" fill="#B70012"/>
<path d="M23.1334 17.3945H20.2344V20.2936H23.1334V17.3945Z" fill="#B70012"/>
<path d="M26.0319 20.293H23.1328V23.192H26.0319V20.293Z" fill="#B70012"/>
<path d="M28.9323 17.3945H26.0332V20.2936H28.9323V17.3945Z" fill="#B70012"/>
<path d="M31.8307 20.293H28.9316V23.192H31.8307V20.293Z" fill="#B70012"/>
<path d="M34.7291 17.3945H31.8301V20.2936H34.7291V17.3945Z" fill="#B70012"/>
<path d="M2.84049 26.0918H-0.0585938V28.9909H2.84049V26.0918Z" fill="#B70012"/>
<path d="M5.73891 23.1914H2.83984V26.0905H5.73891V23.1914Z" fill="#B70012"/>
<path d="M8.63735 26.0918H5.73828V28.9909H8.63735V26.0918Z" fill="#B70012"/>
<path d="M11.5378 23.1914H8.63867V26.0905H11.5378V23.1914Z" fill="#B70012"/>
<path d="M14.4362 26.0918H11.5371V28.9909H14.4362V26.0918Z" fill="#B70012"/>
<path d="M17.3346 23.1914H14.4355V26.0905H17.3346V23.1914Z" fill="#B70012"/>
<path d="M20.235 26.0918H17.3359V28.9909H20.235V26.0918Z" fill="#B70012"/>
<path d="M23.1334 23.1914H20.2344V26.0905H23.1334V23.1914Z" fill="#B70012"/>
<path d="M26.0319 26.0918H23.1328V28.9909H26.0319V26.0918Z" fill="#B70012"/>
<path d="M28.9323 23.1914H26.0332V26.0905H28.9323V23.1914Z" fill="#B70012"/>
<path d="M31.8307 26.0918H28.9316V28.9909H31.8307V26.0918Z" fill="#B70012"/>
<path d="M34.7291 23.1914H31.8301V26.0905H34.7291V23.1914Z" fill="#B70012"/>
<path d="M2.84049 31.8906H-0.0585938V34.7897H2.84049V31.8906Z" fill="#B70012"/>
<path d="M5.73891 28.9902H2.83984V31.8893H5.73891V28.9902Z" fill="#B70012"/>
<path d="M8.63735 31.8906H5.73828V34.7897H8.63735V31.8906Z" fill="#B70012"/>
<path d="M11.5378 28.9902H8.63867V31.8893H11.5378V28.9902Z" fill="#B70012"/>
<path d="M14.4362 31.8906H11.5371V34.7897H14.4362V31.8906Z" fill="#B70012"/>
<path d="M17.3346 28.9902H14.4355V31.8893H17.3346V28.9902Z" fill="#B70012"/>
<path d="M20.235 31.8906H17.3359V34.7897H20.235V31.8906Z" fill="#B70012"/>
<path d="M23.1334 28.9902H20.2344V31.8893H23.1334V28.9902Z" fill="#B70012"/>
<path d="M26.0319 31.8906H23.1328V34.7897H26.0319V31.8906Z" fill="#B70012"/>
<path d="M28.9323 28.9902H26.0332V31.8893H28.9323V28.9902Z" fill="#B70012"/>
<path d="M31.8307 31.8906H28.9316V34.7897H31.8307V31.8906Z" fill="#B70012"/>
<path d="M34.7291 28.9902H31.8301V31.8893H34.7291V28.9902Z" fill="#B70012"/>
<path d="M2.84049 37.6875H-0.0585938V40.5866H2.84049V37.6875Z" fill="#B70012"/>
<path d="M5.73891 34.7891H2.83984V37.6881H5.73891V34.7891Z" fill="#B70012"/>
<path d="M8.63735 37.6875H5.73828V40.5866H8.63735V37.6875Z" fill="#B70012"/>
<path d="M11.5378 34.7891H8.63867V37.6881H11.5378V34.7891Z" fill="#B70012"/>
<path d="M14.4362 37.6875H11.5371V40.5866H14.4362V37.6875Z" fill="#B70012"/>
<path d="M17.3346 34.7891H14.4355V37.6881H17.3346V34.7891Z" fill="#B70012"/>
<path d="M20.235 37.6875H17.3359V40.5866H20.235V37.6875Z" fill="#B70012"/>
<path d="M23.1334 34.7891H20.2344V37.6881H23.1334V34.7891Z" fill="#B70012"/>
<path d="M26.0319 37.6875H23.1328V40.5866H26.0319V37.6875Z" fill="#B70012"/>
<path d="M28.9323 34.7891H26.0332V37.6881H28.9323V34.7891Z" fill="#B70012"/>
<path d="M31.8307 37.6875H28.9316V40.5866H31.8307V37.6875Z" fill="#B70012"/>
<path d="M34.7291 34.7891H31.8301V37.6881H34.7291V34.7891Z" fill="#B70012"/>
<path d="M5.73891 40.5859H2.83984V43.485H5.73891V40.5859Z" fill="#B70012"/>
<path d="M11.5378 40.5859H8.63867V43.485H11.5378V40.5859Z" fill="#B70012"/>
<path d="M17.3346 40.5859H14.4355V43.485H17.3346V40.5859Z" fill="#B70012"/>
<path d="M23.1334 40.5859H20.2344V43.485H23.1334V40.5859Z" fill="#B70012"/>
<path d="M28.9323 40.5859H26.0332V43.485H28.9323V40.5859Z" fill="#B70012"/>
<path d="M34.7291 40.5859H31.8301V43.485H34.7291V40.5859Z" fill="#B70012"/>
<rect width="29.5179" height="37.9636" transform="translate(2.31641 2.88086)" fill="#B70012"/>
</g>
<path d="M10.5019 12.9289L12.2239 12.6829L12.2059 12.1909L10.4239 10.8769L10.6039 10.4569L12.7519 10.0669L12.8299 10.5529L11.1559 10.8469L12.6979 11.9389L12.7399 13.0909L10.5739 13.3969L10.5019 12.9289ZM14.4827 12.6889L15.3167 12.7909L15.4907 10.7629L14.1107 10.6429L14.2127 14.8549H13.6907L13.5707 10.1089L16.0607 10.3369L15.7967 13.3249L14.4227 13.1869L14.4827 12.6889ZM16.7989 8.90894H17.4949V9.60494H16.7989V8.90894ZM16.8829 10.1509H17.4049V13.3369H16.8829V10.1509ZM18.3458 10.2169L20.8118 10.0489L20.1758 11.6749L19.6718 11.5129L20.0378 10.5769L18.8858 10.6669L18.9938 12.8389L20.8298 12.5509L20.8778 13.0429L18.4898 13.3849L18.3458 10.2169ZM23.8613 10.1029L24.3533 10.3069L22.3013 14.8549L21.8093 14.6629L23.8613 10.1029ZM21.2033 10.3249L21.6953 10.1089L22.7153 12.4849L22.2293 12.7129L21.2033 10.3249ZM7.01263 21.9289L8.73463 21.6829L8.71663 21.1909L6.93463 19.8769L7.11463 19.4569L9.26263 19.0669L9.34063 19.5529L7.66663 19.8469L9.20863 20.9389L9.25063 22.0909L7.08463 22.3969L7.01263 21.9289ZM10.4354 19.7569L9.76944 19.8169L9.72744 19.3309L10.4354 19.2649V18.0769H10.9574V19.2229L11.7554 19.1509L11.7974 19.6369L10.9574 19.7089V21.8149L11.6954 21.7129L11.7374 22.2109L10.4354 22.3669V19.7569ZM14.181 21.7969L12.495 22.3549L12.003 20.6929L13.449 20.1049L13.623 20.5429L12.603 20.9509L12.843 21.7189L14.073 21.3289L13.695 19.6429L12.177 19.9369L12.063 19.4629L14.103 19.0849L14.811 22.2109L14.301 22.3549L14.181 21.7969ZM15.949 19.7509L16.957 19.0909L17.239 19.5229L16.243 20.1829L15.949 19.7509ZM15.355 19.1209L15.877 19.1029L15.991 22.3369L15.469 22.3549L15.355 19.1209ZM18.0936 19.7569L17.4276 19.8169L17.3856 19.3309L18.0936 19.2649V18.0769H18.6156V19.2229L19.4136 19.1509L19.4556 19.6369L18.6156 19.7089V21.8149L19.3536 21.7129L19.3956 22.2109L18.0936 22.3669V19.7569ZM19.8652 19.2949L22.2712 19.0609L22.1212 20.9449H20.8372V20.4709H21.6172L21.6952 19.5769L20.4172 19.7089L20.5792 21.8269L22.4992 21.5269L22.5352 22.0189L20.0992 22.3729L19.8652 19.2949ZM23.7068 19.7509L24.7148 19.0909L24.9968 19.5229L24.0008 20.1829L23.7068 19.7509ZM23.1128 19.1209L23.6348 19.1029L23.7488 22.3369L23.2268 22.3549L23.1128 19.1209ZM25.3115 21.9289L27.0335 21.6829L27.0155 21.1909L25.2335 19.8769L25.4135 19.4569L27.5615 19.0669L27.6395 19.5529L25.9655 19.8469L27.5075 20.9389L27.5495 22.0909L25.3835 22.3969L25.3115 21.9289Z" fill="#DF91B5"/>
<path d="M12.8722 35.5875C12.7896 35.5875 12.7161 35.5667 12.6517 35.5252C12.5873 35.4837 12.5367 35.4253 12.5001 35.3498C12.4639 35.2739 12.4458 35.1845 12.4458 35.0817C12.4458 34.9784 12.4639 34.8888 12.5001 34.8129C12.5367 34.737 12.5873 34.6783 12.6517 34.6368C12.7161 34.5953 12.7896 34.5745 12.8722 34.5745C12.9247 34.5745 12.9728 34.5827 13.0165 34.599C13.0606 34.6154 13.0997 34.6381 13.1337 34.6672C13.1676 34.6964 13.1954 34.7306 13.2171 34.7698C13.2391 34.8087 13.2541 34.8508 13.2621 34.8963H13.1714C13.1648 34.8623 13.1526 34.831 13.135 34.8023C13.1173 34.7736 13.0953 34.7484 13.0688 34.7268C13.0427 34.7052 13.0132 34.6884 12.9801 34.6765C12.947 34.6646 12.911 34.6586 12.8722 34.6586C12.8099 34.6586 12.753 34.675 12.7013 34.7076C12.6502 34.7398 12.6091 34.7875 12.5782 34.8506C12.5478 34.9133 12.5325 34.9903 12.5325 35.0817C12.5325 35.173 12.5478 35.25 12.5782 35.3127C12.6091 35.3754 12.6502 35.4228 12.7013 35.4551C12.753 35.4873 12.8099 35.5034 12.8722 35.5034C12.911 35.5034 12.947 35.4974 12.9801 35.4855C13.0132 35.4736 13.0427 35.4568 13.0688 35.4352C13.0953 35.4136 13.1173 35.3884 13.135 35.3597C13.1526 35.331 13.1648 35.2997 13.1714 35.2657H13.2621C13.2541 35.3112 13.2391 35.3535 13.2171 35.3928C13.1954 35.4317 13.1676 35.4656 13.1337 35.4948C13.0997 35.5239 13.0606 35.5466 13.0165 35.563C12.9728 35.5793 12.9247 35.5875 12.8722 35.5875ZM13.8156 35.5875C13.7326 35.5875 13.6589 35.5667 13.5944 35.5252C13.53 35.4837 13.4795 35.425 13.4428 35.3491C13.4066 35.2732 13.3885 35.1841 13.3885 35.0817C13.3885 34.9788 13.4069 34.8895 13.4435 34.8135C13.4801 34.7372 13.5304 34.6783 13.5944 34.6368C13.6589 34.5953 13.7326 34.5745 13.8156 34.5745C13.8985 34.5745 13.972 34.5953 14.036 34.6368C14.1 34.6783 14.1501 34.7372 14.1863 34.8135C14.2229 34.8895 14.2412 34.9788 14.2412 35.0817C14.2412 35.1841 14.2229 35.2732 14.1863 35.3491C14.1501 35.425 14.1 35.4837 14.036 35.5252C13.972 35.5667 13.8985 35.5875 13.8156 35.5875ZM13.8156 35.5034C13.88 35.5034 13.9378 35.4866 13.989 35.4531C14.0402 35.4195 14.0806 35.3714 14.1102 35.3087C14.1397 35.2456 14.1545 35.1699 14.1545 35.0817C14.1545 34.993 14.1397 34.917 14.1102 34.8539C14.0806 34.7908 14.0402 34.7425 13.989 34.7089C13.9378 34.6754 13.88 34.6586 13.8156 34.6586C13.7511 34.6586 13.6931 34.6754 13.6414 34.7089C13.5902 34.7425 13.5496 34.7908 13.5196 34.8539C13.4901 34.917 13.4753 34.993 13.4753 35.0817C13.4753 35.1695 13.4901 35.245 13.5196 35.3081C13.5492 35.3712 13.5896 35.4195 13.6408 35.4531C13.6924 35.4866 13.7507 35.5034 13.8156 35.5034ZM15.1853 34.5878V35.5742H15.0966L14.5147 34.7487H14.5061V35.5742H14.416V34.5878H14.5034L15.0886 35.4147H15.0959V34.5878H15.1853ZM15.4071 34.5878L15.7149 35.457H15.7242L16.0327 34.5878H16.1267L15.7679 35.5742H15.6719L15.3124 34.5878H15.4071ZM16.2525 35.5742V34.5878H16.8252V34.6692H16.3425V35.0373H16.7947V35.1181H16.3425V35.4935H16.8344V35.5742H16.2525ZM17.0152 35.5742V34.5878H17.3343C17.4044 34.5878 17.4629 34.6006 17.5097 34.6262C17.5565 34.6513 17.5918 34.6862 17.6156 34.7308C17.6399 34.7754 17.652 34.8263 17.652 34.8837C17.652 34.9411 17.6401 34.9919 17.6163 35.036C17.5925 35.0797 17.5569 35.1139 17.5097 35.1386C17.4629 35.1633 17.4049 35.1757 17.3356 35.1757H17.0648V35.0936H17.3329C17.3846 35.0936 17.4274 35.085 17.4614 35.0678C17.4954 35.0506 17.5207 35.0263 17.5375 34.9949C17.5547 34.9636 17.5633 34.9265 17.5633 34.8837C17.5633 34.8405 17.5547 34.8027 17.5375 34.7705C17.5203 34.7383 17.4947 34.7134 17.4607 34.6957C17.4267 34.678 17.3837 34.6692 17.3316 34.6692H17.1052V35.5742H17.0152ZM17.5885 35.5742L17.3488 35.1287H17.4508L17.6931 35.5742H17.5885ZM18.1241 35.5908C18.057 35.5908 17.9987 35.5797 17.9493 35.5577C17.8999 35.5356 17.861 35.5047 17.8328 35.465C17.8045 35.4253 17.7886 35.3794 17.7851 35.3273H17.8771C17.8807 35.3666 17.8935 35.3997 17.9155 35.4266C17.938 35.4535 17.9674 35.474 18.0036 35.4882C18.0398 35.5018 18.0799 35.5087 18.1241 35.5087C18.1735 35.5087 18.2174 35.5005 18.2558 35.4842C18.2942 35.4674 18.3242 35.4442 18.3458 35.4147C18.3679 35.3851 18.3789 35.3505 18.3789 35.3107C18.3789 35.2772 18.3701 35.2492 18.3525 35.2267C18.3353 35.2041 18.3112 35.1852 18.2803 35.1697C18.2494 35.1543 18.2134 35.1406 18.1724 35.1287L18.0552 35.0942C17.978 35.0717 17.918 35.04 17.8751 34.9989C17.8323 34.9579 17.8109 34.9058 17.8109 34.8427C17.8109 34.7897 17.825 34.7431 17.8533 34.703C17.882 34.6624 17.9206 34.6308 17.9691 34.6083C18.0177 34.5854 18.0722 34.5739 18.1327 34.5739C18.194 34.5739 18.2483 34.5854 18.2955 34.6083C18.3428 34.6308 18.3803 34.6617 18.4081 34.701C18.4359 34.7398 18.4509 34.7842 18.4531 34.8341H18.365C18.3597 34.7793 18.3357 34.7359 18.2929 34.7036C18.2501 34.671 18.1958 34.6547 18.13 34.6547C18.0846 34.6547 18.0444 34.6626 18.0095 34.6785C17.9747 34.6944 17.9473 34.7162 17.9274 34.744C17.908 34.7718 17.8983 34.8034 17.8983 34.8387C17.8983 34.8731 17.908 34.902 17.9274 34.9254C17.9469 34.9484 17.9716 34.9671 18.0016 34.9817C18.0316 34.9963 18.0625 35.0084 18.0943 35.0181L18.1982 35.0479C18.2295 35.0572 18.2609 35.0686 18.2922 35.0823C18.3236 35.0956 18.3522 35.1123 18.3783 35.1326C18.4048 35.1529 18.426 35.1779 18.4418 35.2075C18.4582 35.2366 18.4663 35.2717 18.4663 35.3127C18.4663 35.3648 18.4527 35.412 18.4253 35.4544C18.3979 35.4963 18.3586 35.5296 18.3074 35.5544C18.2567 35.5786 18.1956 35.5908 18.1241 35.5908ZM18.6431 35.5742H18.5484L18.9079 34.5878H19.0039L19.3627 35.5742H19.2687L18.9589 34.705H18.9523L18.6431 35.5742ZM18.7113 35.1962H19.2005V35.277H18.7113V35.1962ZM19.3137 34.6692V34.5878H20.0294V34.6692H19.7169V35.5742H19.6275V34.6692H19.3137ZM20.279 34.5878V35.5742H20.1889V34.5878H20.279ZM20.8821 35.5875C20.7991 35.5875 20.7254 35.5667 20.661 35.5252C20.5965 35.4837 20.546 35.425 20.5094 35.3491C20.4732 35.2732 20.4551 35.1841 20.4551 35.0817C20.4551 34.9788 20.4734 34.8895 20.51 34.8135C20.5467 34.7372 20.597 34.6783 20.661 34.6368C20.7254 34.5953 20.7991 34.5745 20.8821 34.5745C20.9651 34.5745 21.0386 34.5953 21.1026 34.6368C21.1665 34.6783 21.2166 34.7372 21.2528 34.8135C21.2895 34.8895 21.3078 34.9788 21.3078 35.0817C21.3078 35.1841 21.2895 35.2732 21.2528 35.3491C21.2166 35.425 21.1665 35.4837 21.1026 35.5252C21.0386 35.5667 20.9651 35.5875 20.8821 35.5875ZM20.8821 35.5034C20.9465 35.5034 21.0043 35.4866 21.0555 35.4531C21.1067 35.4195 21.1471 35.3714 21.1767 35.3087C21.2063 35.2456 21.2211 35.1699 21.2211 35.0817C21.2211 34.993 21.2063 34.917 21.1767 34.8539C21.1471 34.7908 21.1067 34.7425 21.0555 34.7089C21.0043 34.6754 20.9465 34.6586 20.8821 34.6586C20.8177 34.6586 20.7596 34.6754 20.708 34.7089C20.6568 34.7425 20.6162 34.7908 20.5862 34.8539C20.5566 34.917 20.5418 34.993 20.5418 35.0817C20.5418 35.1695 20.5566 35.245 20.5862 35.3081C20.6157 35.3712 20.6561 35.4195 20.7073 35.4531C20.759 35.4866 20.8172 35.5034 20.8821 35.5034ZM22.2518 34.5878V35.5742H22.1631L21.5812 34.7487H21.5726V35.5742H21.4826V34.5878H21.5699L22.1552 35.4147H22.1625V34.5878H22.2518ZM12.3736 37.5875C12.2911 37.5875 12.2176 37.5667 12.1532 37.5252C12.0887 37.4837 12.0382 37.4253 12.0016 37.3498C11.9654 37.2739 11.9473 37.1845 11.9473 37.0817C11.9473 36.9784 11.9654 36.8888 12.0016 36.8129C12.0382 36.737 12.0887 36.6783 12.1532 36.6368C12.2176 36.5953 12.2911 36.5745 12.3736 36.5745C12.4262 36.5745 12.4743 36.5827 12.518 36.599C12.5621 36.6154 12.6012 36.6381 12.6351 36.6672C12.6691 36.6964 12.6969 36.7306 12.7186 36.7698C12.7406 36.8087 12.7556 36.8508 12.7636 36.8963H12.6729C12.6663 36.8623 12.6541 36.831 12.6365 36.8023C12.6188 36.7736 12.5967 36.7484 12.5703 36.7268C12.5442 36.7052 12.5147 36.6884 12.4816 36.6765C12.4485 36.6646 12.4125 36.6586 12.3736 36.6586C12.3114 36.6586 12.2545 36.675 12.2028 36.7076C12.1516 36.7398 12.1106 36.7875 12.0797 36.8506C12.0492 36.9133 12.034 36.9903 12.034 37.0817C12.034 37.173 12.0492 37.25 12.0797 37.3127C12.1106 37.3754 12.1516 37.4228 12.2028 37.4551C12.2545 37.4873 12.3114 37.5034 12.3736 37.5034C12.4125 37.5034 12.4485 37.4974 12.4816 37.4855C12.5147 37.4736 12.5442 37.4568 12.5703 37.4352C12.5967 37.4136 12.6188 37.3884 12.6365 37.3597C12.6541 37.331 12.6663 37.2997 12.6729 37.2657H12.7636C12.7556 37.3112 12.7406 37.3535 12.7186 37.3928C12.6969 37.4317 12.6691 37.4656 12.6351 37.4948C12.6012 37.5239 12.5621 37.5466 12.518 37.563C12.4743 37.5793 12.4262 37.5875 12.3736 37.5875ZM12.9357 37.5742H12.841L13.2005 36.5878H13.2965L13.6553 37.5742H13.5613L13.2515 36.705H13.2449L12.9357 37.5742ZM13.0039 37.1962H13.4931V37.277H13.0039V37.1962ZM13.7811 37.5742V36.5878H14.1002C14.1704 36.5878 14.2289 36.6006 14.2757 36.6262C14.3224 36.6513 14.3578 36.6862 14.3816 36.7308C14.4059 36.7754 14.418 36.8263 14.418 36.8837C14.418 36.9411 14.4061 36.9919 14.3823 37.036C14.3584 37.0797 14.3229 37.1139 14.2757 37.1386C14.2289 37.1633 14.1708 37.1757 14.1016 37.1757H13.8308V37.0936H14.0989C14.1505 37.0936 14.1934 37.085 14.2273 37.0678C14.2613 37.0506 14.2867 37.0263 14.3035 36.9949C14.3207 36.9636 14.3293 36.9265 14.3293 36.8837C14.3293 36.8405 14.3207 36.8027 14.3035 36.7705C14.2863 36.7383 14.2607 36.7134 14.2267 36.6957C14.1927 36.678 14.1497 36.6692 14.0976 36.6692H13.8712V37.5742H13.7811ZM14.3544 37.5742L14.1148 37.1287H14.2167L14.459 37.5742H14.3544ZM14.8847 37.5742H14.6457V37.4935H14.8794C14.9642 37.4935 15.035 37.4769 15.092 37.4438C15.1493 37.4103 15.1924 37.3626 15.221 37.3008C15.2497 37.2386 15.2641 37.1644 15.2641 37.0784C15.2641 36.9936 15.25 36.9208 15.2217 36.8599C15.1939 36.7985 15.1526 36.7515 15.0979 36.7189C15.0436 36.6858 14.9765 36.6692 14.8967 36.6692H14.6424V36.5878H14.9019C14.996 36.5878 15.0765 36.6074 15.1436 36.6467C15.2107 36.686 15.2619 36.7423 15.2972 36.8155C15.3329 36.8888 15.3508 36.9764 15.3508 37.0784C15.3508 37.1821 15.3325 37.271 15.2959 37.3452C15.2597 37.4189 15.2067 37.4756 15.137 37.5153C15.0677 37.5546 14.9836 37.5742 14.8847 37.5742ZM14.6855 36.5878V37.5742H14.5954V36.5878H14.6855ZM15.8209 37.5908C15.7538 37.5908 15.6955 37.5797 15.6461 37.5577C15.5966 37.5356 15.5578 37.5047 15.5296 37.465C15.5013 37.4253 15.4854 37.3794 15.4819 37.3273H15.5739C15.5774 37.3666 15.5902 37.3997 15.6123 37.4266C15.6348 37.4535 15.6642 37.474 15.7004 37.4882C15.7366 37.5018 15.7767 37.5087 15.8209 37.5087C15.8703 37.5087 15.9142 37.5005 15.9526 37.4842C15.991 37.4674 16.021 37.4442 16.0426 37.4147C16.0647 37.3851 16.0757 37.3505 16.0757 37.3107C16.0757 37.2772 16.0669 37.2492 16.0493 37.2267C16.032 37.2041 16.008 37.1852 15.9771 37.1697C15.9462 37.1543 15.9102 37.1406 15.8692 37.1287L15.752 37.0942C15.6748 37.0717 15.6147 37.04 15.5719 36.9989C15.5291 36.9579 15.5077 36.9058 15.5077 36.8427C15.5077 36.7897 15.5218 36.7431 15.5501 36.703C15.5788 36.6624 15.6174 36.6308 15.6659 36.6083C15.7145 36.5854 15.769 36.5739 15.8295 36.5739C15.8908 36.5739 15.9451 36.5854 15.9923 36.6083C16.0395 36.6308 16.0771 36.6617 16.1049 36.701C16.1327 36.7398 16.1477 36.7842 16.1499 36.8341H16.0618C16.0565 36.7793 16.0325 36.7359 15.9897 36.7036C15.9469 36.671 15.8926 36.6547 15.8268 36.6547C15.7813 36.6547 15.7412 36.6626 15.7063 36.6785C15.6715 36.6944 15.6441 36.7162 15.6242 36.744C15.6048 36.7718 15.5951 36.8034 15.5951 36.8387C15.5951 36.8731 15.6048 36.902 15.6242 36.9254C15.6436 36.9484 15.6684 36.9671 15.6984 36.9817C15.7284 36.9963 15.7593 37.0084 15.7911 37.0181L15.895 37.0479C15.9263 37.0572 15.9577 37.0686 15.989 37.0823C16.0203 37.0956 16.049 37.1123 16.0751 37.1326C16.1016 37.1529 16.1227 37.1779 16.1386 37.2075C16.155 37.2366 16.1631 37.2717 16.1631 37.3127C16.1631 37.3648 16.1494 37.412 16.1221 37.4544C16.0947 37.4963 16.0554 37.5296 16.0042 37.5544C15.9535 37.5786 15.8924 37.5908 15.8209 37.5908ZM16.6173 36.6692V36.5878H17.3329V36.6692H17.0205V37.5742H16.9311V36.6692H16.6173ZM17.8361 37.5875C17.7531 37.5875 17.6794 37.5667 17.615 37.5252C17.5505 37.4837 17.5 37.425 17.4634 37.3491C17.4272 37.2732 17.4091 37.1841 17.4091 37.0817C17.4091 36.9788 17.4274 36.8895 17.464 36.8135C17.5006 36.7372 17.551 36.6783 17.615 36.6368C17.6794 36.5953 17.7531 36.5745 17.8361 36.5745C17.9191 36.5745 17.9925 36.5953 18.0565 36.6368C18.1205 36.6783 18.1706 36.7372 18.2068 36.8135C18.2435 36.8895 18.2618 36.9788 18.2618 37.0817C18.2618 37.1841 18.2435 37.2732 18.2068 37.3491C18.1706 37.425 18.1205 37.4837 18.0565 37.5252C17.9925 37.5667 17.9191 37.5875 17.8361 37.5875ZM17.8361 37.5034C17.9005 37.5034 17.9583 37.4866 18.0095 37.4531C18.0607 37.4195 18.1011 37.3714 18.1307 37.3087C18.1603 37.2456 18.175 37.1699 18.175 37.0817C18.175 36.993 18.1603 36.917 18.1307 36.8539C18.1011 36.7908 18.0607 36.7425 18.0095 36.7089C17.9583 36.6754 17.9005 36.6586 17.8361 36.6586C17.7716 36.6586 17.7136 36.6754 17.662 36.7089C17.6108 36.7425 17.5702 36.7908 17.5402 36.8539C17.5106 36.917 17.4958 36.993 17.4958 37.0817C17.4958 37.1695 17.5106 37.245 17.5402 37.3081C17.5697 37.3712 17.6101 37.4195 17.6613 37.4531C17.7129 37.4866 17.7712 37.5034 17.8361 37.5034ZM19.0701 37.5908C19.003 37.5908 18.9448 37.5797 18.8953 37.5577C18.8459 37.5356 18.8071 37.5047 18.7788 37.465C18.7506 37.4253 18.7347 37.3794 18.7311 37.3273H18.8232C18.8267 37.3666 18.8395 37.3997 18.8616 37.4266C18.8841 37.4535 18.9134 37.474 18.9496 37.4882C18.9858 37.5018 19.026 37.5087 19.0701 37.5087C19.1195 37.5087 19.1635 37.5005 19.2019 37.4842C19.2403 37.4674 19.2703 37.4442 19.2919 37.4147C19.314 37.3851 19.325 37.3505 19.325 37.3107C19.325 37.2772 19.3162 37.2492 19.2985 37.2267C19.2813 37.2041 19.2572 37.1852 19.2263 37.1697C19.1955 37.1543 19.1595 37.1406 19.1184 37.1287L19.0013 37.0942C18.924 37.0717 18.864 37.04 18.8212 36.9989C18.7784 36.9579 18.757 36.9058 18.757 36.8427C18.757 36.7897 18.7711 36.7431 18.7993 36.703C18.828 36.6624 18.8666 36.6308 18.9152 36.6083C18.9637 36.5854 19.0183 36.5739 19.0787 36.5739C19.1401 36.5739 19.1944 36.5854 19.2416 36.6083C19.2888 36.6308 19.3263 36.6617 19.3541 36.701C19.3819 36.7398 19.3969 36.7842 19.3991 36.8341H19.3111C19.3058 36.7793 19.2817 36.7359 19.2389 36.7036C19.1961 36.671 19.1418 36.6547 19.0761 36.6547C19.0306 36.6547 18.9904 36.6626 18.9556 36.6785C18.9207 36.6944 18.8933 36.7162 18.8735 36.744C18.8541 36.7718 18.8444 36.8034 18.8444 36.8387C18.8444 36.8731 18.8541 36.902 18.8735 36.9254C18.8929 36.9484 18.9176 36.9671 18.9476 36.9817C18.9776 36.9963 19.0085 37.0084 19.0403 37.0181L19.1443 37.0479C19.1756 37.0572 19.2069 37.0686 19.2383 37.0823C19.2696 37.0956 19.2983 37.1123 19.3243 37.1326C19.3508 37.1529 19.372 37.1779 19.3879 37.2075C19.4042 37.2366 19.4124 37.2717 19.4124 37.3127C19.4124 37.3648 19.3987 37.412 19.3713 37.4544C19.344 37.4963 19.3047 37.5296 19.2535 37.5544C19.2027 37.5786 19.1416 37.5908 19.0701 37.5908ZM19.5872 37.5742V36.5878H19.6772V37.04H20.2373V36.5878H20.3266V37.5742H20.2373V37.1207H19.6772V37.5742H19.5872ZM20.5478 37.5742H20.4531L20.8126 36.5878H20.9086L21.2674 37.5742H21.1734L20.8636 36.705H20.8569L20.5478 37.5742ZM20.616 37.1962H21.1052V37.277H20.616V37.1962ZM21.3932 37.5742V36.5878H21.7123C21.7825 36.5878 21.8409 36.6006 21.8877 36.6262C21.9345 36.6513 21.9698 36.6862 21.9936 36.7308C22.0179 36.7754 22.0301 36.8263 22.0301 36.8837C22.0301 36.9411 22.0181 36.9919 21.9943 37.036C21.9705 37.0797 21.9349 37.1139 21.8877 37.1386C21.8409 37.1633 21.7829 37.1757 21.7136 37.1757H21.4428V37.0936H21.711C21.7626 37.0936 21.8054 37.085 21.8394 37.0678C21.8734 37.0506 21.8988 37.0263 21.9155 36.9949C21.9327 36.9636 21.9413 36.9265 21.9413 36.8837C21.9413 36.8405 21.9327 36.8027 21.9155 36.7705C21.8983 36.7383 21.8727 36.7134 21.8387 36.6957C21.8047 36.678 21.7617 36.6692 21.7096 36.6692H21.4832V37.5742H21.3932ZM21.9665 37.5742L21.7268 37.1287H21.8288L22.0711 37.5742H21.9665ZM22.2075 37.5742V36.5878H22.7801V36.6692H22.2975V37.0373H22.7497V37.1181H22.2975V37.4935H22.7894V37.5742H22.2075Z" fill="#DF91B5"/>
</g>
<defs>
<clipPath id="clip0_1091_434">
<rect width="34.7435" height="43.5" rx="1.12987" fill="white"/>
</clipPath>
<clipPath id="clip1_1091_434">
<rect width="43.5" height="43.5" fill="white" transform="translate(-8.75586)"/>
</clipPath>
</defs>
</svg>
