<svg width="44" height="44" viewBox="0 0 44 44" fill="none" xmlns="http://www.w3.org/2000/svg">
<g clip-path="url(#clip0_1091_375)">
<rect width="43.2144" height="43.5" rx="1.90372" fill="white"/>
<g clip-path="url(#clip1_1091_375)">
<rect width="43.2144" height="8.28118" transform="translate(0 35.2188)" fill="#DC2827"/>
<rect width="43.2144" height="0.380744" transform="translate(0 36.457)" fill="#ECC1C9"/>
<rect width="43.2144" height="0.666302" transform="translate(0 36.9336)" fill="#ECC1C9"/>
<g clip-path="url(#clip2_1091_375)">
<path fill-rule="evenodd" clip-rule="evenodd" d="M3.45302 39.4136C3.31832 39.4336 3.19112 39.4882 3.08382 39.572C3.01729 39.6269 2.95763 39.6896 2.90614 39.7587C2.75461 39.9723 2.69559 40.2589 2.7508 40.5149C2.822 40.846 3.09626 41.1899 3.50632 41.4626C3.69593 41.5887 3.91841 41.6927 3.99875 41.6927C4.07909 41.6927 4.30233 41.5883 4.49118 41.4626C4.80491 41.2535 5.03476 41.0097 5.16167 40.7509C5.2462 40.5786 5.27818 40.4212 5.26384 40.2476C5.25229 40.108 5.22373 40.0042 5.16345 39.8828C5.11395 39.7832 5.07194 39.7248 4.99135 39.6439C4.87434 39.5265 4.74653 39.4548 4.59639 39.4225C4.52177 39.4065 4.39409 39.4067 4.31883 39.4228C4.21958 39.4441 4.13696 39.4805 4.04571 39.5434L3.99875 39.5757L3.95179 39.5434C3.82285 39.4546 3.70342 39.4144 3.55709 39.4106C3.52237 39.4095 3.48761 39.4105 3.45302 39.4136Z" fill="#F2D4D9"/>
</g>
<g clip-path="url(#clip3_1091_375)">
<path fill-rule="evenodd" clip-rule="evenodd" d="M6.9745 41.6879C6.83981 41.6679 6.7126 41.6134 6.60531 41.5295C6.53877 41.4747 6.47911 41.412 6.42763 41.3428C6.27609 41.1292 6.21708 40.8427 6.27228 40.5867C6.34348 40.2556 6.61775 39.9116 7.02781 39.639C7.21742 39.5129 7.4399 39.4089 7.52024 39.4089C7.60057 39.4089 7.82382 39.5132 8.01266 39.639C8.3264 39.848 8.55624 40.0918 8.68315 40.3506C8.76768 40.523 8.79966 40.6803 8.78532 40.854C8.77377 40.9936 8.74522 41.0974 8.68493 41.2187C8.63543 41.3183 8.59343 41.3767 8.51283 41.4577C8.39582 41.5751 8.26802 41.6468 8.11788 41.679C8.04325 41.695 7.91557 41.6949 7.84031 41.6788C7.74107 41.6575 7.65845 41.621 7.56719 41.5582L7.52024 41.5258L7.47328 41.5582C7.34433 41.6469 7.2249 41.6872 7.07857 41.691C7.04385 41.6921 7.0091 41.6911 6.9745 41.6879Z" fill="#F2D4D9"/>
</g>
<g clip-path="url(#clip4_1091_375)">
<path fill-rule="evenodd" clip-rule="evenodd" d="M10.494 39.4136C10.3593 39.4336 10.2321 39.4882 10.1248 39.572C10.0583 39.6269 9.99864 39.6896 9.94716 39.7587C9.79562 39.9723 9.73661 40.2589 9.79181 40.5149C9.86301 40.846 10.1373 41.1899 10.5473 41.4626C10.7369 41.5887 10.9594 41.6927 11.0398 41.6927C11.1201 41.6927 11.3433 41.5883 11.5322 41.4626C11.8459 41.2535 12.0758 41.0097 12.2027 40.7509C12.2872 40.5786 12.3192 40.4212 12.3049 40.2476C12.2933 40.108 12.2647 40.0042 12.2045 39.8828C12.155 39.7832 12.113 39.7248 12.0324 39.6439C11.9154 39.5265 11.7875 39.4548 11.6374 39.4225C11.5628 39.4065 11.4351 39.4067 11.3598 39.4228C11.2606 39.4441 11.178 39.4805 11.0867 39.5434L11.0398 39.5757L10.9928 39.5434C10.8639 39.4546 10.7444 39.4144 10.5981 39.4106C10.5634 39.4095 10.5286 39.4105 10.494 39.4136Z" fill="#F2D4D9"/>
</g>
<g clip-path="url(#clip5_1091_375)">
<path fill-rule="evenodd" clip-rule="evenodd" d="M14.0175 41.6879C13.8828 41.6679 13.7556 41.6134 13.6483 41.5295C13.5817 41.4747 13.5221 41.412 13.4706 41.3428C13.3191 41.1292 13.26 40.8427 13.3153 40.5867C13.3865 40.2556 13.6607 39.9116 14.0708 39.639C14.2604 39.5129 14.4829 39.4089 14.5632 39.4089C14.6435 39.4089 14.8668 39.5132 15.0556 39.639C15.3694 39.848 15.5992 40.0918 15.7261 40.3506C15.8106 40.523 15.8426 40.6803 15.8283 40.854C15.8167 40.9936 15.7882 41.0974 15.7279 41.2187C15.6784 41.3183 15.6364 41.3767 15.5558 41.4577C15.4388 41.5751 15.311 41.6468 15.1608 41.679C15.0862 41.695 14.9585 41.6949 14.8833 41.6788C14.784 41.6575 14.7014 41.621 14.6102 41.5582L14.5632 41.5258L14.5162 41.5582C14.3873 41.6469 14.2679 41.6872 14.1215 41.691C14.0868 41.6921 14.0521 41.6911 14.0175 41.6879Z" fill="#F2D4D9"/>
</g>
<g clip-path="url(#clip6_1091_375)">
<path fill-rule="evenodd" clip-rule="evenodd" d="M17.5409 39.4136C17.4062 39.4336 17.279 39.4882 17.1717 39.572C17.1052 39.6269 17.0455 39.6896 16.994 39.7587C16.8425 39.9723 16.7835 40.2589 16.8387 40.5149C16.9099 40.846 17.1842 41.1899 17.5942 41.4626C17.7838 41.5887 18.0063 41.6927 18.0866 41.6927C18.167 41.6927 18.3902 41.5883 18.5791 41.4626C18.8928 41.2535 19.1226 41.0097 19.2496 40.7509C19.3341 40.5786 19.3661 40.4212 19.3517 40.2476C19.3402 40.108 19.3116 40.0042 19.2513 39.8828C19.2018 39.7832 19.1598 39.7248 19.0792 39.6439C18.9622 39.5265 18.8344 39.4548 18.6843 39.4225C18.6097 39.4065 18.482 39.4067 18.4067 39.4228C18.3075 39.4441 18.2249 39.4805 18.1336 39.5434L18.0866 39.5757L18.0397 39.5434C17.9107 39.4546 17.7913 39.4144 17.645 39.4106C17.6103 39.4095 17.5755 39.4105 17.5409 39.4136Z" fill="#F2D4D9"/>
</g>
<g clip-path="url(#clip7_1091_375)">
<path fill-rule="evenodd" clip-rule="evenodd" d="M21.0624 41.6879C20.9277 41.6679 20.8005 41.6134 20.6932 41.5295C20.6267 41.4747 20.567 41.412 20.5155 41.3428C20.364 41.1292 20.305 40.8427 20.3602 40.5867C20.4314 40.2556 20.7056 39.9116 21.1157 39.639C21.3053 39.5129 21.5278 39.4089 21.6081 39.4089C21.6885 39.4089 21.9117 39.5132 22.1006 39.639C22.4143 39.848 22.6441 40.0918 22.771 40.3506C22.8556 40.523 22.8876 40.6803 22.8732 40.854C22.8617 40.9936 22.8331 41.0974 22.7728 41.2187C22.7233 41.3183 22.6813 41.3767 22.6007 41.4577C22.4837 41.5751 22.3559 41.6468 22.2058 41.679C22.1311 41.695 22.0035 41.6949 21.9282 41.6788C21.829 41.6575 21.7463 41.621 21.6551 41.5582L21.6081 41.5258L21.5612 41.5582C21.4322 41.6469 21.3128 41.6872 21.1665 41.691C21.1317 41.6921 21.097 41.6911 21.0624 41.6879Z" fill="#F2D4D9"/>
</g>
<g clip-path="url(#clip8_1091_375)">
<path fill-rule="evenodd" clip-rule="evenodd" d="M24.5839 39.4136C24.4492 39.4336 24.322 39.4882 24.2147 39.572C24.1481 39.6269 24.0885 39.6896 24.037 39.7587C23.8855 39.9723 23.8265 40.2589 23.8817 40.5149C23.9529 40.846 24.2271 41.1899 24.6372 41.4626C24.8268 41.5887 25.0493 41.6927 25.1296 41.6927C25.2099 41.6927 25.4332 41.5883 25.622 41.4626C25.9358 41.2535 26.1656 41.0097 26.2925 40.7509C26.3771 40.5786 26.409 40.4212 26.3947 40.2476C26.3831 40.108 26.3546 40.0042 26.2943 39.8828C26.2448 39.7832 26.2028 39.7248 26.1222 39.6439C26.0052 39.5265 25.8774 39.4548 25.7273 39.4225C25.6526 39.4065 25.5249 39.4067 25.4497 39.4228C25.3504 39.4441 25.2678 39.4805 25.1766 39.5434L25.1296 39.5757L25.0827 39.5434C24.9537 39.4546 24.8343 39.4144 24.6879 39.4106C24.6532 39.4095 24.6185 39.4105 24.5839 39.4136Z" fill="#F2D4D9"/>
</g>
<g clip-path="url(#clip9_1091_375)">
<path fill-rule="evenodd" clip-rule="evenodd" d="M28.1034 41.6879C27.9687 41.6679 27.8415 41.6134 27.7342 41.5295C27.6677 41.4747 27.608 41.412 27.5565 41.3428C27.405 41.1292 27.346 40.8427 27.4012 40.5867C27.4724 40.2556 27.7467 39.9116 28.1567 39.639C28.3463 39.5129 28.5688 39.4089 28.6491 39.4089C28.7295 39.4089 28.9527 39.5132 29.1416 39.639C29.4553 39.848 29.6851 40.0918 29.8121 40.3506C29.8966 40.523 29.9286 40.6803 29.9142 40.854C29.9027 40.9936 29.8741 41.0974 29.8138 41.2187C29.7643 41.3183 29.7223 41.3767 29.6417 41.4577C29.5247 41.5751 29.3969 41.6468 29.2468 41.679C29.1722 41.695 29.0445 41.6949 28.9692 41.6788C28.87 41.6575 28.7874 41.621 28.6961 41.5582L28.6491 41.5258L28.6022 41.5582C28.4732 41.6469 28.3538 41.6872 28.2075 41.691C28.1728 41.6921 28.138 41.6911 28.1034 41.6879Z" fill="#F2D4D9"/>
</g>
<g clip-path="url(#clip10_1091_375)">
<path fill-rule="evenodd" clip-rule="evenodd" d="M31.6268 39.4136C31.4922 39.4336 31.3649 39.4882 31.2577 39.572C31.1911 39.6269 31.1315 39.6896 31.08 39.7587C30.9284 39.9723 30.8694 40.2589 30.9246 40.5149C30.9958 40.846 31.2701 41.1899 31.6802 41.4626C31.8698 41.5887 32.0922 41.6927 32.1726 41.6927C32.2529 41.6927 32.4762 41.5883 32.665 41.4626C32.9787 41.2535 33.2086 41.0097 33.3355 40.7509C33.42 40.5786 33.452 40.4212 33.4377 40.2476C33.4261 40.108 33.3976 40.0042 33.3373 39.8828C33.2878 39.7832 33.2458 39.7248 33.1652 39.6439C33.0482 39.5265 32.9204 39.4548 32.7702 39.4225C32.6956 39.4065 32.5679 39.4067 32.4927 39.4228C32.3934 39.4441 32.3108 39.4805 32.2195 39.5434L32.1726 39.5757L32.1256 39.5434C31.9967 39.4546 31.8772 39.4144 31.7309 39.4106C31.6962 39.4095 31.6614 39.4105 31.6268 39.4136Z" fill="#F2D4D9"/>
</g>
<g clip-path="url(#clip11_1091_375)">
<path fill-rule="evenodd" clip-rule="evenodd" d="M35.1503 41.6879C35.0156 41.6679 34.8884 41.6134 34.7811 41.5295C34.7146 41.4747 34.6549 41.412 34.6034 41.3428C34.4519 41.1292 34.3929 40.8427 34.4481 40.5867C34.5193 40.2556 34.7935 39.9116 35.2036 39.639C35.3932 39.5129 35.6157 39.4089 35.696 39.4089C35.7764 39.4089 35.9996 39.5132 36.1884 39.639C36.5022 39.848 36.732 40.0918 36.8589 40.3506C36.9435 40.523 36.9754 40.6803 36.9611 40.854C36.9496 40.9936 36.921 41.0974 36.8607 41.2187C36.8112 41.3183 36.7692 41.3767 36.6886 41.4577C36.5716 41.5751 36.4438 41.6468 36.2937 41.679C36.219 41.695 36.0914 41.6949 36.0161 41.6788C35.9168 41.6575 35.8342 41.621 35.743 41.5582L35.696 41.5258L35.6491 41.5582C35.5201 41.6469 35.4007 41.6872 35.2544 41.691C35.2196 41.6921 35.1849 41.6911 35.1503 41.6879Z" fill="#F2D4D9"/>
</g>
<g clip-path="url(#clip12_1091_375)">
<path fill-rule="evenodd" clip-rule="evenodd" d="M38.6718 39.4136C38.5371 39.4336 38.4099 39.4882 38.3026 39.572C38.236 39.6269 38.1764 39.6896 38.1249 39.7587C37.9734 39.9723 37.9143 40.2589 37.9695 40.5149C38.0407 40.846 38.315 41.1899 38.7251 41.4626C38.9147 41.5887 39.1372 41.6927 39.2175 41.6927C39.2978 41.6927 39.5211 41.5883 39.7099 41.4626C40.0237 41.2535 40.2535 41.0097 40.3804 40.7509C40.4649 40.5786 40.4969 40.4212 40.4826 40.2476C40.471 40.108 40.4425 40.0042 40.3822 39.8828C40.3327 39.7832 40.2907 39.7248 40.2101 39.6439C40.0931 39.5265 39.9653 39.4548 39.8151 39.4225C39.7405 39.4065 39.6128 39.4067 39.5376 39.4228C39.4383 39.4441 39.3557 39.4805 39.2645 39.5434L39.2175 39.5757L39.1705 39.5434C39.0416 39.4546 38.9222 39.4144 38.7758 39.4106C38.7411 39.4095 38.7064 39.4105 38.6718 39.4136Z" fill="#F2D4D9"/>
</g>
</g>
<g clip-path="url(#clip13_1091_375)">
<rect width="43.2144" height="8.28118" fill="#DC2827"/>
<rect width="43.2144" height="0.666302" transform="translate(0 5.90234)" fill="#ECC1C9"/>
<rect width="43.2144" height="0.380744" transform="translate(0 6.66406)" fill="#ECC1C9"/>
<g clip-path="url(#clip14_1091_375)">
<path fill-rule="evenodd" clip-rule="evenodd" d="M3.45302 1.81404C3.31832 1.83401 3.19112 1.88858 3.08382 1.97243C3.01729 2.02727 2.95763 2.08995 2.90614 2.15912C2.75461 2.37271 2.69559 2.65929 2.7508 2.91527C2.822 3.2464 3.09626 3.59033 3.50632 3.86295C3.69593 3.9891 3.91841 4.09304 3.99875 4.09304C4.07909 4.09304 4.30233 3.98872 4.49118 3.86295C4.80491 3.65392 5.03476 3.41012 5.16167 3.15134C5.2462 2.97899 5.27818 2.82161 5.26384 2.64799C5.25229 2.50839 5.22373 2.40457 5.16345 2.28324C5.11395 2.18361 5.07194 2.12523 4.99135 2.04426C4.87434 1.92686 4.74653 1.85516 4.59639 1.82292C4.52177 1.80693 4.39409 1.80706 4.31883 1.82317C4.21958 1.8445 4.13696 1.88092 4.04571 1.94374L3.99875 1.97611L3.95179 1.94374C3.82285 1.85503 3.70342 1.8148 3.55709 1.81099C3.52237 1.80986 3.48761 1.81088 3.45302 1.81404Z" fill="#F2D4D9"/>
</g>
<g clip-path="url(#clip15_1091_375)">
<path fill-rule="evenodd" clip-rule="evenodd" d="M6.9745 4.08635C6.83981 4.06638 6.7126 4.01181 6.60531 3.92796C6.53877 3.87312 6.47911 3.81044 6.42763 3.74127C6.27609 3.52768 6.21708 3.2411 6.27228 2.98512C6.34348 2.654 6.61775 2.31006 7.02781 2.03744C7.21742 1.91129 7.4399 1.80735 7.52024 1.80735C7.60057 1.80735 7.82382 1.91167 8.01266 2.03744C8.3264 2.24647 8.55624 2.49028 8.68315 2.74905C8.76768 2.9214 8.79966 3.07878 8.78532 3.2524C8.77377 3.392 8.74522 3.49582 8.68493 3.61715C8.63543 3.71678 8.59343 3.77516 8.51283 3.85613C8.39582 3.97353 8.26802 4.04523 8.11788 4.07747C8.04325 4.09346 7.91557 4.09333 7.84031 4.07722C7.74107 4.05589 7.65845 4.01947 7.56719 3.95665L7.52024 3.92428L7.47328 3.95665C7.34433 4.04536 7.2249 4.08559 7.07857 4.0894C7.04385 4.09053 7.0091 4.08951 6.9745 4.08635Z" fill="#F2D4D9"/>
</g>
<g clip-path="url(#clip16_1091_375)">
<path fill-rule="evenodd" clip-rule="evenodd" d="M10.494 1.81404C10.3593 1.83401 10.2321 1.88858 10.1248 1.97243C10.0583 2.02727 9.99864 2.08995 9.94716 2.15912C9.79562 2.37271 9.73661 2.65929 9.79181 2.91527C9.86301 3.2464 10.1373 3.59033 10.5473 3.86295C10.7369 3.9891 10.9594 4.09304 11.0398 4.09304C11.1201 4.09304 11.3433 3.98872 11.5322 3.86295C11.8459 3.65392 12.0758 3.41012 12.2027 3.15134C12.2872 2.97899 12.3192 2.82161 12.3049 2.64799C12.2933 2.50839 12.2647 2.40457 12.2045 2.28324C12.155 2.18361 12.113 2.12523 12.0324 2.04426C11.9154 1.92686 11.7875 1.85516 11.6374 1.82292C11.5628 1.80693 11.4351 1.80706 11.3598 1.82317C11.2606 1.8445 11.178 1.88092 11.0867 1.94374L11.0398 1.97611L10.9928 1.94374C10.8639 1.85503 10.7444 1.8148 10.5981 1.81099C10.5634 1.80986 10.5286 1.81088 10.494 1.81404Z" fill="#F2D4D9"/>
</g>
<g clip-path="url(#clip17_1091_375)">
<path fill-rule="evenodd" clip-rule="evenodd" d="M14.0175 4.08635C13.8828 4.06638 13.7556 4.01181 13.6483 3.92796C13.5817 3.87312 13.5221 3.81044 13.4706 3.74127C13.3191 3.52768 13.26 3.2411 13.3153 2.98512C13.3865 2.654 13.6607 2.31006 14.0708 2.03744C14.2604 1.91129 14.4829 1.80735 14.5632 1.80735C14.6435 1.80735 14.8668 1.91167 15.0556 2.03744C15.3694 2.24647 15.5992 2.49028 15.7261 2.74905C15.8106 2.9214 15.8426 3.07878 15.8283 3.2524C15.8167 3.392 15.7882 3.49582 15.7279 3.61715C15.6784 3.71678 15.6364 3.77516 15.5558 3.85613C15.4388 3.97353 15.311 4.04523 15.1608 4.07747C15.0862 4.09346 14.9585 4.09333 14.8833 4.07722C14.784 4.05589 14.7014 4.01947 14.6102 3.95665L14.5632 3.92428L14.5162 3.95665C14.3873 4.04536 14.2679 4.08559 14.1215 4.0894C14.0868 4.09053 14.0521 4.08951 14.0175 4.08635Z" fill="#F2D4D9"/>
</g>
<g clip-path="url(#clip18_1091_375)">
<path fill-rule="evenodd" clip-rule="evenodd" d="M17.5409 1.81404C17.4062 1.83401 17.279 1.88858 17.1717 1.97243C17.1052 2.02727 17.0455 2.08995 16.994 2.15912C16.8425 2.37271 16.7835 2.65929 16.8387 2.91527C16.9099 3.2464 17.1842 3.59033 17.5942 3.86295C17.7838 3.9891 18.0063 4.09304 18.0866 4.09304C18.167 4.09304 18.3902 3.98872 18.5791 3.86295C18.8928 3.65392 19.1226 3.41012 19.2496 3.15134C19.3341 2.97899 19.3661 2.82161 19.3517 2.64799C19.3402 2.50839 19.3116 2.40457 19.2513 2.28324C19.2018 2.18361 19.1598 2.12523 19.0792 2.04426C18.9622 1.92686 18.8344 1.85516 18.6843 1.82292C18.6097 1.80693 18.482 1.80706 18.4067 1.82317C18.3075 1.8445 18.2249 1.88092 18.1336 1.94374L18.0866 1.97611L18.0397 1.94374C17.9107 1.85503 17.7913 1.8148 17.645 1.81099C17.6103 1.80986 17.5755 1.81088 17.5409 1.81404Z" fill="#F2D4D9"/>
</g>
<g clip-path="url(#clip19_1091_375)">
<path fill-rule="evenodd" clip-rule="evenodd" d="M21.0624 4.08635C20.9277 4.06638 20.8005 4.01181 20.6932 3.92796C20.6267 3.87312 20.567 3.81044 20.5155 3.74127C20.364 3.52768 20.305 3.2411 20.3602 2.98512C20.4314 2.654 20.7056 2.31006 21.1157 2.03744C21.3053 1.91129 21.5278 1.80735 21.6081 1.80735C21.6885 1.80735 21.9117 1.91167 22.1006 2.03744C22.4143 2.24647 22.6441 2.49028 22.771 2.74905C22.8556 2.9214 22.8876 3.07878 22.8732 3.2524C22.8617 3.392 22.8331 3.49582 22.7728 3.61715C22.7233 3.71678 22.6813 3.77516 22.6007 3.85613C22.4837 3.97353 22.3559 4.04523 22.2058 4.07747C22.1311 4.09346 22.0035 4.09333 21.9282 4.07722C21.829 4.05589 21.7463 4.01947 21.6551 3.95665L21.6081 3.92428L21.5612 3.95665C21.4322 4.04536 21.3128 4.08559 21.1665 4.0894C21.1317 4.09053 21.097 4.08951 21.0624 4.08635Z" fill="#F2D4D9"/>
</g>
<g clip-path="url(#clip20_1091_375)">
<path fill-rule="evenodd" clip-rule="evenodd" d="M24.5839 1.81404C24.4492 1.83401 24.322 1.88858 24.2147 1.97243C24.1481 2.02727 24.0885 2.08995 24.037 2.15912C23.8855 2.37271 23.8265 2.65929 23.8817 2.91527C23.9529 3.2464 24.2271 3.59033 24.6372 3.86295C24.8268 3.9891 25.0493 4.09304 25.1296 4.09304C25.2099 4.09304 25.4332 3.98872 25.622 3.86295C25.9358 3.65392 26.1656 3.41012 26.2925 3.15134C26.3771 2.97899 26.409 2.82161 26.3947 2.64799C26.3831 2.50839 26.3546 2.40457 26.2943 2.28324C26.2448 2.18361 26.2028 2.12523 26.1222 2.04426C26.0052 1.92686 25.8774 1.85516 25.7273 1.82292C25.6526 1.80693 25.5249 1.80706 25.4497 1.82317C25.3504 1.8445 25.2678 1.88092 25.1766 1.94374L25.1296 1.97611L25.0827 1.94374C24.9537 1.85503 24.8343 1.8148 24.6879 1.81099C24.6532 1.80986 24.6185 1.81088 24.5839 1.81404Z" fill="#F2D4D9"/>
</g>
<g clip-path="url(#clip21_1091_375)">
<path fill-rule="evenodd" clip-rule="evenodd" d="M28.1034 4.09026C27.9687 4.07029 27.8415 4.01571 27.7342 3.93187C27.6677 3.87703 27.608 3.81434 27.5565 3.74518C27.405 3.53158 27.346 3.24501 27.4012 2.98902C27.4724 2.6579 27.7467 2.31396 28.1567 2.04135C28.3463 1.9152 28.5688 1.81125 28.6491 1.81125C28.7295 1.81125 28.9527 1.91558 29.1416 2.04135C29.4553 2.25038 29.6851 2.49418 29.8121 2.75296C29.8966 2.92531 29.9286 3.08268 29.9142 3.2563C29.9027 3.39591 29.8741 3.49973 29.8138 3.62106C29.7643 3.72068 29.7223 3.77907 29.6417 3.86004C29.5247 3.97743 29.3969 4.04914 29.2468 4.08138C29.1722 4.09737 29.0445 4.09724 28.9692 4.08112C28.87 4.0598 28.7874 4.02338 28.6961 3.96055L28.6491 3.92819L28.6022 3.96055C28.4732 4.04927 28.3538 4.0895 28.2075 4.09331C28.1728 4.09443 28.138 4.09341 28.1034 4.09026Z" fill="#F2D4D9"/>
</g>
<g clip-path="url(#clip22_1091_375)">
<path fill-rule="evenodd" clip-rule="evenodd" d="M31.6268 1.81404C31.4922 1.83401 31.3649 1.88858 31.2577 1.97243C31.1911 2.02727 31.1315 2.08995 31.08 2.15912C30.9284 2.37271 30.8694 2.65929 30.9246 2.91527C30.9958 3.2464 31.2701 3.59033 31.6802 3.86295C31.8698 3.9891 32.0922 4.09304 32.1726 4.09304C32.2529 4.09304 32.4762 3.98872 32.665 3.86295C32.9787 3.65392 33.2086 3.41012 33.3355 3.15134C33.42 2.97899 33.452 2.82161 33.4377 2.64799C33.4261 2.50839 33.3976 2.40457 33.3373 2.28324C33.2878 2.18361 33.2458 2.12523 33.1652 2.04426C33.0482 1.92686 32.9204 1.85516 32.7702 1.82292C32.6956 1.80693 32.5679 1.80706 32.4927 1.82317C32.3934 1.8445 32.3108 1.88092 32.2195 1.94374L32.1726 1.97611L32.1256 1.94374C31.9967 1.85503 31.8772 1.8148 31.7309 1.81099C31.6962 1.80986 31.6614 1.81088 31.6268 1.81404Z" fill="#F2D4D9"/>
</g>
<g clip-path="url(#clip23_1091_375)">
<path fill-rule="evenodd" clip-rule="evenodd" d="M35.1503 4.09026C35.0156 4.07029 34.8884 4.01571 34.7811 3.93187C34.7146 3.87703 34.6549 3.81434 34.6034 3.74518C34.4519 3.53158 34.3929 3.24501 34.4481 2.98902C34.5193 2.6579 34.7935 2.31396 35.2036 2.04135C35.3932 1.9152 35.6157 1.81125 35.696 1.81125C35.7764 1.81125 35.9996 1.91558 36.1884 2.04135C36.5022 2.25038 36.732 2.49418 36.8589 2.75296C36.9435 2.92531 36.9754 3.08268 36.9611 3.2563C36.9496 3.39591 36.921 3.49973 36.8607 3.62106C36.8112 3.72068 36.7692 3.77907 36.6886 3.86004C36.5716 3.97743 36.4438 4.04914 36.2937 4.08138C36.219 4.09737 36.0914 4.09724 36.0161 4.08112C35.9168 4.0598 35.8342 4.02338 35.743 3.96055L35.696 3.92819L35.6491 3.96055C35.5201 4.04927 35.4007 4.0895 35.2544 4.09331C35.2196 4.09443 35.1849 4.09341 35.1503 4.09026Z" fill="#F2D4D9"/>
</g>
<g clip-path="url(#clip24_1091_375)">
<path fill-rule="evenodd" clip-rule="evenodd" d="M38.6718 1.81404C38.5371 1.83401 38.4099 1.88858 38.3026 1.97243C38.236 2.02727 38.1764 2.08995 38.1249 2.15912C37.9734 2.37271 37.9143 2.65929 37.9695 2.91527C38.0407 3.2464 38.315 3.59033 38.7251 3.86295C38.9147 3.9891 39.1372 4.09304 39.2175 4.09304C39.2978 4.09304 39.5211 3.98872 39.7099 3.86295C40.0237 3.65392 40.2535 3.41012 40.3804 3.15134C40.4649 2.97899 40.4969 2.82161 40.4826 2.64799C40.471 2.50839 40.4425 2.40457 40.3822 2.28324C40.3327 2.18361 40.2907 2.12523 40.2101 2.04426C40.0931 1.92686 39.9653 1.85516 39.8151 1.82292C39.7405 1.80693 39.6128 1.80706 39.5376 1.82317C39.4383 1.8445 39.3557 1.88092 39.2645 1.94374L39.2175 1.97611L39.1705 1.94374C39.0416 1.85503 38.9222 1.8148 38.7758 1.81099C38.7411 1.80986 38.7064 1.81088 38.6718 1.81404Z" fill="#F2D4D9"/>
</g>
</g>
<mask id="path-24-outside-1_1091_375" maskUnits="userSpaceOnUse" x="11.375" y="15.1836" width="21" height="11" fill="black">
<rect fill="white" x="11.375" y="15.1836" width="21" height="11"/>
<path d="M14.3041 16.171V15.7426H16.8408V16.171H15.8081V19.1836H15.3417V16.171H14.3041ZM17.7762 19.1836H17.3097V15.7426H18.609C19.3467 15.7426 19.7846 16.1329 19.7846 16.7754C19.7846 17.2513 19.5466 17.594 19.1183 17.732L19.8179 19.1836H19.2991L18.6566 17.8224H17.7762V19.1836ZM17.7762 16.1614V17.4084H18.6138C19.0469 17.4084 19.2944 17.1752 19.2944 16.7801C19.2944 16.3804 19.0374 16.1614 18.609 16.1614H17.7762ZM20.386 17.9605V15.7426H20.8524V17.9319C20.8524 18.484 21.157 18.7886 21.7043 18.7886C22.2469 18.7886 22.5467 18.4792 22.5467 17.9319V15.7426H23.0179V17.9605C23.0179 18.7505 22.5134 19.2407 21.7043 19.2407C20.8905 19.2407 20.386 18.7553 20.386 17.9605ZM23.4602 16.171V15.7426H25.9969V16.171H24.9641V19.1836H24.4977V16.171H23.4602ZM26.9322 19.1836H26.4658V15.7426H26.9322V17.2228H28.6361V15.7426H29.1025V19.1836H28.6361V17.6559H26.9322V19.1836ZM15.1539 23.4607C15.1539 24.5078 14.4685 25.2407 13.4929 25.2407C12.522 25.2407 11.8462 24.5078 11.8462 23.4607C11.8462 22.4184 12.5267 21.6807 13.4976 21.6807C14.4733 21.6807 15.1539 22.4137 15.1539 23.4607ZM14.6637 23.4607C14.6637 22.6612 14.1973 22.1329 13.4976 22.1329C12.798 22.1329 12.3364 22.6612 12.3364 23.4607C12.3364 24.2603 12.798 24.7933 13.4976 24.7933C14.1973 24.7933 14.6637 24.2555 14.6637 23.4607ZM16.2168 25.1836H15.7504V21.7426H17.0497C17.7874 21.7426 18.2253 22.1329 18.2253 22.7754C18.2253 23.2513 17.9873 23.594 17.559 23.732L18.2586 25.1836H17.7398L17.0973 23.8224H16.2168V25.1836ZM16.2168 22.1614V23.4084H17.0545C17.4876 23.4084 17.735 23.1752 17.735 22.7801C17.735 22.3804 17.478 22.1614 17.0497 22.1614H16.2168ZM21.3033 25.1836H20.1658V21.7426H21.2842C22.3122 21.7426 23.0071 22.4375 23.0071 23.4655C23.0071 24.4887 22.3217 25.1836 21.3033 25.1836ZM21.2509 22.171H20.6322V24.7505H21.2699C22.0362 24.7505 22.5216 24.2555 22.5216 23.4655C22.5216 22.6659 22.0362 22.171 21.2509 22.171ZM23.5899 25.1836H23.1044L24.3609 21.7426H24.8796L26.1409 25.1836H25.6507L25.3413 24.3269H23.8945L23.5899 25.1836ZM24.5608 22.4851L24.0373 23.9224H25.2033L24.675 22.4851C24.6512 22.4184 24.6274 22.3375 24.6179 22.2852C24.6084 22.3328 24.5846 22.4137 24.5608 22.4851ZM27.0647 25.1836H26.5983V21.7426H27.8976C28.6353 21.7426 29.0731 22.1329 29.0731 22.7754C29.0731 23.2513 28.8351 23.594 28.4068 23.732L29.1064 25.1836H28.5877L27.9452 23.8224H27.0647V25.1836ZM27.0647 22.1614V23.4084H27.9023C28.3354 23.4084 28.5829 23.1752 28.5829 22.7801C28.5829 22.3804 28.3259 22.1614 27.8976 22.1614H27.0647ZM31.8111 25.1836H29.7123V21.7426H31.8111V22.171H30.1787V23.2466H31.6493V23.6606H30.1787V24.7505H31.8111V25.1836Z"/>
</mask>
<path d="M14.3041 16.171V15.7426H16.8408V16.171H15.8081V19.1836H15.3417V16.171H14.3041ZM17.7762 19.1836H17.3097V15.7426H18.609C19.3467 15.7426 19.7846 16.1329 19.7846 16.7754C19.7846 17.2513 19.5466 17.594 19.1183 17.732L19.8179 19.1836H19.2991L18.6566 17.8224H17.7762V19.1836ZM17.7762 16.1614V17.4084H18.6138C19.0469 17.4084 19.2944 17.1752 19.2944 16.7801C19.2944 16.3804 19.0374 16.1614 18.609 16.1614H17.7762ZM20.386 17.9605V15.7426H20.8524V17.9319C20.8524 18.484 21.157 18.7886 21.7043 18.7886C22.2469 18.7886 22.5467 18.4792 22.5467 17.9319V15.7426H23.0179V17.9605C23.0179 18.7505 22.5134 19.2407 21.7043 19.2407C20.8905 19.2407 20.386 18.7553 20.386 17.9605ZM23.4602 16.171V15.7426H25.9969V16.171H24.9641V19.1836H24.4977V16.171H23.4602ZM26.9322 19.1836H26.4658V15.7426H26.9322V17.2228H28.6361V15.7426H29.1025V19.1836H28.6361V17.6559H26.9322V19.1836ZM15.1539 23.4607C15.1539 24.5078 14.4685 25.2407 13.4929 25.2407C12.522 25.2407 11.8462 24.5078 11.8462 23.4607C11.8462 22.4184 12.5267 21.6807 13.4976 21.6807C14.4733 21.6807 15.1539 22.4137 15.1539 23.4607ZM14.6637 23.4607C14.6637 22.6612 14.1973 22.1329 13.4976 22.1329C12.798 22.1329 12.3364 22.6612 12.3364 23.4607C12.3364 24.2603 12.798 24.7933 13.4976 24.7933C14.1973 24.7933 14.6637 24.2555 14.6637 23.4607ZM16.2168 25.1836H15.7504V21.7426H17.0497C17.7874 21.7426 18.2253 22.1329 18.2253 22.7754C18.2253 23.2513 17.9873 23.594 17.559 23.732L18.2586 25.1836H17.7398L17.0973 23.8224H16.2168V25.1836ZM16.2168 22.1614V23.4084H17.0545C17.4876 23.4084 17.735 23.1752 17.735 22.7801C17.735 22.3804 17.478 22.1614 17.0497 22.1614H16.2168ZM21.3033 25.1836H20.1658V21.7426H21.2842C22.3122 21.7426 23.0071 22.4375 23.0071 23.4655C23.0071 24.4887 22.3217 25.1836 21.3033 25.1836ZM21.2509 22.171H20.6322V24.7505H21.2699C22.0362 24.7505 22.5216 24.2555 22.5216 23.4655C22.5216 22.6659 22.0362 22.171 21.2509 22.171ZM23.5899 25.1836H23.1044L24.3609 21.7426H24.8796L26.1409 25.1836H25.6507L25.3413 24.3269H23.8945L23.5899 25.1836ZM24.5608 22.4851L24.0373 23.9224H25.2033L24.675 22.4851C24.6512 22.4184 24.6274 22.3375 24.6179 22.2852C24.6084 22.3328 24.5846 22.4137 24.5608 22.4851ZM27.0647 25.1836H26.5983V21.7426H27.8976C28.6353 21.7426 29.0731 22.1329 29.0731 22.7754C29.0731 23.2513 28.8351 23.594 28.4068 23.732L29.1064 25.1836H28.5877L27.9452 23.8224H27.0647V25.1836ZM27.0647 22.1614V23.4084H27.9023C28.3354 23.4084 28.5829 23.1752 28.5829 22.7801C28.5829 22.3804 28.3259 22.1614 27.8976 22.1614H27.0647ZM31.8111 25.1836H29.7123V21.7426H31.8111V22.171H30.1787V23.2466H31.6493V23.6606H30.1787V24.7505H31.8111V25.1836Z" fill="black"/>
<path d="M14.3041 16.171H14.1138V16.3613H14.3041V16.171ZM14.3041 15.7426V15.5522H14.1138V15.7426H14.3041ZM16.8408 15.7426H17.0312V15.5522H16.8408V15.7426ZM16.8408 16.171V16.3613H17.0312V16.171H16.8408ZM15.8081 16.171V15.9806H15.6177V16.171H15.8081ZM15.8081 19.1836V19.374H15.9984V19.1836H15.8081ZM15.3417 19.1836H15.1513V19.374H15.3417V19.1836ZM15.3417 16.171H15.532V15.9806H15.3417V16.171ZM14.3041 16.171H14.4945V15.7426H14.3041H14.1138V16.171H14.3041ZM14.3041 15.7426V15.933H16.8408V15.7426V15.5522H14.3041V15.7426ZM16.8408 15.7426H16.6505V16.171H16.8408H17.0312V15.7426H16.8408ZM16.8408 16.171V15.9806H15.8081V16.171V16.3613H16.8408V16.171ZM15.8081 16.171H15.6177V19.1836H15.8081H15.9984V16.171H15.8081ZM15.8081 19.1836V18.9932H15.3417V19.1836V19.374H15.8081V19.1836ZM15.3417 19.1836H15.532V16.171H15.3417H15.1513V19.1836H15.3417ZM15.3417 16.171V15.9806H14.3041V16.171V16.3613H15.3417V16.171ZM17.7762 19.1836V19.374H17.9665V19.1836H17.7762ZM17.3097 19.1836H17.1194V19.374H17.3097V19.1836ZM17.3097 15.7426V15.5522H17.1194V15.7426H17.3097ZM19.1183 17.732L19.0599 17.5508L18.8519 17.6178L18.9468 17.8147L19.1183 17.732ZM19.8179 19.1836V19.374H20.121L19.9894 19.1009L19.8179 19.1836ZM19.2991 19.1836L19.127 19.2649L19.1785 19.374H19.2991V19.1836ZM18.6566 17.8224L18.8288 17.7412L18.7773 17.6321H18.6566V17.8224ZM17.7762 17.8224V17.6321H17.5858V17.8224H17.7762ZM17.7762 16.1614V15.9711H17.5858V16.1614H17.7762ZM17.7762 17.4084H17.5858V17.5987H17.7762V17.4084ZM17.7762 19.1836V18.9932H17.3097V19.1836V19.374H17.7762V19.1836ZM17.3097 19.1836H17.5001V15.7426H17.3097H17.1194V19.1836H17.3097ZM17.3097 15.7426V15.933H18.609V15.7426V15.5522H17.3097V15.7426ZM18.609 15.7426V15.933C18.9459 15.933 19.1901 16.022 19.3475 16.1608C19.5019 16.297 19.5942 16.4997 19.5942 16.7754H19.7846H19.9749C19.9749 16.4085 19.8483 16.0949 19.5994 15.8753C19.3534 15.6584 19.0098 15.5522 18.609 15.5522V15.7426ZM19.7846 16.7754H19.5942C19.5942 16.9814 19.543 17.1464 19.4558 17.2717C19.3691 17.3962 19.2388 17.4932 19.0599 17.5508L19.1183 17.732L19.1767 17.9132C19.4261 17.8328 19.6289 17.6894 19.7683 17.4892C19.9072 17.2896 19.9749 17.0453 19.9749 16.7754H19.7846ZM19.1183 17.732L18.9468 17.8147L19.6464 19.2662L19.8179 19.1836L19.9894 19.1009L19.2898 17.6494L19.1183 17.732ZM19.8179 19.1836V18.9932H19.2991V19.1836V19.374H19.8179V19.1836ZM19.2991 19.1836L19.4713 19.1023L18.8288 17.7412L18.6566 17.8224L18.4845 17.9037L19.127 19.2649L19.2991 19.1836ZM18.6566 17.8224V17.6321H17.7762V17.8224V18.0128H18.6566V17.8224ZM17.7762 17.8224H17.5858V19.1836H17.7762H17.9665V17.8224H17.7762ZM17.7762 16.1614H17.5858V17.4084H17.7762H17.9665V16.1614H17.7762ZM17.7762 17.4084V17.5987H18.6138V17.4084V17.218H17.7762V17.4084ZM18.6138 17.4084V17.5987C18.8632 17.5987 19.085 17.5313 19.246 17.3819C19.4089 17.2307 19.4847 17.0184 19.4847 16.7801H19.2944H19.104C19.104 16.9369 19.0561 17.0387 18.987 17.1029C18.9159 17.1688 18.7975 17.218 18.6138 17.218V17.4084ZM19.2944 16.7801H19.4847C19.4847 16.5377 19.4053 16.3266 19.2388 16.1786C19.0757 16.0336 18.8535 15.9711 18.609 15.9711V16.1614V16.3518C18.7929 16.3518 18.9134 16.3988 18.9859 16.4632C19.0549 16.5246 19.104 16.6228 19.104 16.7801H19.2944ZM18.609 16.1614V15.9711H17.7762V16.1614V16.3518H18.609V16.1614ZM20.386 15.7426V15.5522H20.1956V15.7426H20.386ZM20.8524 15.7426H21.0428V15.5522H20.8524V15.7426ZM22.5467 15.7426V15.5522H22.3563V15.7426H22.5467ZM23.0179 15.7426H23.2083V15.5522H23.0179V15.7426ZM20.386 17.9605H20.5764V15.7426H20.386H20.1956V17.9605H20.386ZM20.386 15.7426V15.933H20.8524V15.7426V15.5522H20.386V15.7426ZM20.8524 15.7426H20.662V17.9319H20.8524H21.0428V15.7426H20.8524ZM20.8524 17.9319H20.662C20.662 18.242 20.7481 18.5107 20.9382 18.7016C21.1285 18.8926 21.3961 18.9789 21.7043 18.9789V18.7886V18.5982C21.4652 18.5982 21.3069 18.5322 21.208 18.4329C21.109 18.3335 21.0428 18.1738 21.0428 17.9319H20.8524ZM21.7043 18.7886V18.9789C22.0114 18.9789 22.2769 18.8907 22.465 18.6987C22.6525 18.5073 22.7371 18.2393 22.7371 17.9319H22.5467H22.3563C22.3563 18.1719 22.2911 18.3321 22.193 18.4323C22.0955 18.5318 21.9398 18.5982 21.7043 18.5982V18.7886ZM22.5467 17.9319H22.7371V15.7426H22.5467H22.3563V17.9319H22.5467ZM22.5467 15.7426V15.933H23.0179V15.7426V15.5522H22.5467V15.7426ZM23.0179 15.7426H22.8275V17.9605H23.0179H23.2083V15.7426H23.0179ZM23.0179 17.9605H22.8275C22.8275 18.3141 22.7156 18.5814 22.5317 18.7605C22.3472 18.9401 22.0704 19.0503 21.7043 19.0503V19.2407V19.4311C22.1473 19.4311 22.5273 19.2962 22.7973 19.0332C23.068 18.7697 23.2083 18.3969 23.2083 17.9605H23.0179ZM21.7043 19.2407V19.0503C21.3351 19.0503 21.0571 18.9408 20.8724 18.7619C20.6884 18.5837 20.5764 18.3167 20.5764 17.9605H20.386H20.1956C20.1956 18.399 20.3358 18.7722 20.6075 19.0354C20.8785 19.2979 21.2597 19.4311 21.7043 19.4311V19.2407ZM23.4602 16.171H23.2698V16.3613H23.4602V16.171ZM23.4602 15.7426V15.5522H23.2698V15.7426H23.4602ZM25.9969 15.7426H26.1873V15.5522H25.9969V15.7426ZM25.9969 16.171V16.3613H26.1873V16.171H25.9969ZM24.9641 16.171V15.9806H24.7738V16.171H24.9641ZM24.9641 19.1836V19.374H25.1545V19.1836H24.9641ZM24.4977 19.1836H24.3074V19.374H24.4977V19.1836ZM24.4977 16.171H24.6881V15.9806H24.4977V16.171ZM23.4602 16.171H23.6506V15.7426H23.4602H23.2698V16.171H23.4602ZM23.4602 15.7426V15.933H25.9969V15.7426V15.5522H23.4602V15.7426ZM25.9969 15.7426H25.8065V16.171H25.9969H26.1873V15.7426H25.9969ZM25.9969 16.171V15.9806H24.9641V16.171V16.3613H25.9969V16.171ZM24.9641 16.171H24.7738V19.1836H24.9641H25.1545V16.171H24.9641ZM24.9641 19.1836V18.9932H24.4977V19.1836V19.374H24.9641V19.1836ZM24.4977 19.1836H24.6881V16.171H24.4977H24.3074V19.1836H24.4977ZM24.4977 16.171V15.9806H23.4602V16.171V16.3613H24.4977V16.171ZM26.9322 19.1836V19.374H27.1226V19.1836H26.9322ZM26.4658 19.1836H26.2754V19.374H26.4658V19.1836ZM26.4658 15.7426V15.5522H26.2754V15.7426H26.4658ZM26.9322 15.7426H27.1226V15.5522H26.9322V15.7426ZM26.9322 17.2228H26.7419V17.4131H26.9322V17.2228ZM28.6361 17.2228V17.4131H28.8264V17.2228H28.6361ZM28.6361 15.7426V15.5522H28.4457V15.7426H28.6361ZM29.1025 15.7426H29.2928V15.5522H29.1025V15.7426ZM29.1025 19.1836V19.374H29.2928V19.1836H29.1025ZM28.6361 19.1836H28.4457V19.374H28.6361V19.1836ZM28.6361 17.6559H28.8264V17.4655H28.6361V17.6559ZM26.9322 17.6559V17.4655H26.7419V17.6559H26.9322ZM26.9322 19.1836V18.9932H26.4658V19.1836V19.374H26.9322V19.1836ZM26.4658 19.1836H26.6562V15.7426H26.4658H26.2754V19.1836H26.4658ZM26.4658 15.7426V15.933H26.9322V15.7426V15.5522H26.4658V15.7426ZM26.9322 15.7426H26.7419V17.2228H26.9322H27.1226V15.7426H26.9322ZM26.9322 17.2228V17.4131H28.6361V17.2228V17.0324H26.9322V17.2228ZM28.6361 17.2228H28.8264V15.7426H28.6361H28.4457V17.2228H28.6361ZM28.6361 15.7426V15.933H29.1025V15.7426V15.5522H28.6361V15.7426ZM29.1025 15.7426H28.9121V19.1836H29.1025H29.2928V15.7426H29.1025ZM29.1025 19.1836V18.9932H28.6361V19.1836V19.374H29.1025V19.1836ZM28.6361 19.1836H28.8264V17.6559H28.6361H28.4457V19.1836H28.6361ZM28.6361 17.6559V17.4655H26.9322V17.6559V17.8462H28.6361V17.6559ZM26.9322 17.6559H26.7419V19.1836H26.9322H27.1226V17.6559H26.9322ZM15.1539 23.4607H14.9635C14.9635 23.9424 14.8063 24.339 14.5501 24.6134C14.2947 24.8869 13.9308 25.0503 13.4929 25.0503V25.2407V25.4311C14.0306 25.4311 14.4972 25.228 14.8284 24.8733C15.1587 24.5195 15.3442 24.0261 15.3442 23.4607H15.1539ZM13.4929 25.2407V25.0503C13.0577 25.0503 12.6977 24.8873 12.4452 24.6141C12.1918 24.3399 12.0365 23.9432 12.0365 23.4607H11.8462H11.6558C11.6558 24.0253 11.8385 24.5186 12.1656 24.8726C12.4938 25.2277 12.9571 25.4311 13.4929 25.4311V25.2407ZM11.8462 23.4607H12.0365C12.0365 22.9812 12.1926 22.5844 12.4475 22.3092C12.7013 22.0352 13.0628 21.8711 13.4976 21.8711V21.6807V21.4904C12.9616 21.4904 12.4973 21.6952 12.1681 22.0505C11.84 22.4048 11.6558 22.898 11.6558 23.4607H11.8462ZM13.4976 21.6807V21.8711C13.9355 21.8711 14.2981 22.0345 14.5522 22.3077C14.8073 22.582 14.9635 22.9787 14.9635 23.4607H15.1539H15.3442C15.3442 22.8957 15.1602 22.4024 14.831 22.0485C14.501 21.6935 14.0354 21.4904 13.4976 21.4904V21.6807ZM14.6637 23.4607H14.854C14.854 23.0247 14.7266 22.6448 14.486 22.3712C14.2434 22.0954 13.8984 21.9425 13.4976 21.9425V22.1329V22.3233C13.7965 22.3233 14.0345 22.4345 14.2001 22.6227C14.3675 22.8131 14.4733 23.0972 14.4733 23.4607H14.6637ZM13.4976 22.1329V21.9425C13.0967 21.9425 12.7528 22.0955 12.5113 22.3717C12.272 22.6454 12.146 23.0252 12.146 23.4607H12.3364H12.5267C12.5267 23.0967 12.6316 22.8126 12.798 22.6223C12.9622 22.4344 13.1989 22.3233 13.4976 22.3233V22.1329ZM12.3364 23.4607H12.146C12.146 23.8963 12.2719 24.277 12.511 24.5518C12.7522 24.8291 13.0962 24.9837 13.4976 24.9837V24.7933V24.603C13.1995 24.603 12.9628 24.491 12.7983 24.3019C12.6316 24.1103 12.5267 23.8248 12.5267 23.4607H12.3364ZM13.4976 24.7933V24.9837C13.8995 24.9837 14.2444 24.8276 14.4864 24.5503C14.7265 24.2752 14.854 23.8946 14.854 23.4607H14.6637H14.4733C14.4733 23.8217 14.3676 24.1074 14.1996 24.2999C14.0335 24.4901 13.7954 24.603 13.4976 24.603V24.7933ZM16.2168 25.1836V25.374H16.4072V25.1836H16.2168ZM15.7504 25.1836H15.56V25.374H15.7504V25.1836ZM15.7504 21.7426V21.5522H15.56V21.7426H15.7504ZM17.559 23.732L17.5006 23.5508L17.2926 23.6178L17.3875 23.8147L17.559 23.732ZM18.2586 25.1836V25.374H18.5617L18.4301 25.1009L18.2586 25.1836ZM17.7398 25.1836L17.5677 25.2649L17.6192 25.374H17.7398V25.1836ZM17.0973 23.8224L17.2695 23.7412L17.218 23.6321H17.0973V23.8224ZM16.2168 23.8224V23.6321H16.0265V23.8224H16.2168ZM16.2168 22.1614V21.9711H16.0265V22.1614H16.2168ZM16.2168 23.4084H16.0265V23.5987H16.2168V23.4084ZM16.2168 25.1836V24.9932H15.7504V25.1836V25.374H16.2168V25.1836ZM15.7504 25.1836H15.9408V21.7426H15.7504H15.56V25.1836H15.7504ZM15.7504 21.7426V21.933H17.0497V21.7426V21.5522H15.7504V21.7426ZM17.0497 21.7426V21.933C17.3866 21.933 17.6308 22.022 17.7882 22.1608C17.9426 22.297 18.0349 22.4997 18.0349 22.7754H18.2253H18.4156C18.4156 22.4085 18.289 22.0949 18.04 21.8753C17.7941 21.6584 17.4505 21.5522 17.0497 21.5522V21.7426ZM18.2253 22.7754H18.0349C18.0349 22.9814 17.9837 23.1464 17.8965 23.2717C17.8098 23.3962 17.6795 23.4932 17.5006 23.5508L17.559 23.732L17.6173 23.9132C17.8668 23.8328 18.0696 23.6894 18.209 23.4892C18.3479 23.2896 18.4156 23.0453 18.4156 22.7754H18.2253ZM17.559 23.732L17.3875 23.8147L18.0871 25.2662L18.2586 25.1836L18.4301 25.1009L17.7304 23.6494L17.559 23.732ZM18.2586 25.1836V24.9932H17.7398V25.1836V25.374H18.2586V25.1836ZM17.7398 25.1836L17.912 25.1023L17.2695 23.7412L17.0973 23.8224L16.9251 23.9037L17.5677 25.2649L17.7398 25.1836ZM17.0973 23.8224V23.6321H16.2168V23.8224V24.0128H17.0973V23.8224ZM16.2168 23.8224H16.0265V25.1836H16.2168H16.4072V23.8224H16.2168ZM16.2168 22.1614H16.0265V23.4084H16.2168H16.4072V22.1614H16.2168ZM16.2168 23.4084V23.5987H17.0545V23.4084V23.218H16.2168V23.4084ZM17.0545 23.4084V23.5987C17.3038 23.5987 17.5257 23.5313 17.6867 23.3819C17.8496 23.2307 17.9254 23.0184 17.9254 22.7801H17.735H17.5447C17.5447 22.9369 17.4968 23.0387 17.4277 23.1029C17.3566 23.1688 17.2382 23.218 17.0545 23.218V23.4084ZM17.735 22.7801H17.9254C17.9254 22.5377 17.846 22.3266 17.6795 22.1786C17.5163 22.0336 17.2942 21.9711 17.0497 21.9711V22.1614V22.3518C17.2335 22.3518 17.3541 22.3988 17.4265 22.4632C17.4956 22.5246 17.5447 22.6228 17.5447 22.7801H17.735ZM17.0497 22.1614V21.9711H16.2168V22.1614V22.3518H17.0497V22.1614ZM20.1658 25.1836H19.9754V25.374H20.1658V25.1836ZM20.1658 21.7426V21.5522H19.9754V21.7426H20.1658ZM20.6322 22.171V21.9806H20.4418V22.171H20.6322ZM20.6322 24.7505H20.4418V24.9409H20.6322V24.7505ZM21.3033 25.1836V24.9932H20.1658V25.1836V25.374H21.3033V25.1836ZM20.1658 25.1836H20.3562V21.7426H20.1658H19.9754V25.1836H20.1658ZM20.1658 21.7426V21.933H21.2842V21.7426V21.5522H20.1658V21.7426ZM21.2842 21.7426V21.933C21.7543 21.933 22.1344 22.091 22.3965 22.3532C22.6587 22.6153 22.8167 22.9954 22.8167 23.4655H23.0071H23.1975C23.1975 22.9076 23.0081 22.4262 22.6658 22.0839C22.3235 21.7416 21.8422 21.5522 21.2842 21.5522V21.7426ZM23.0071 23.4655H22.8167C22.8167 23.9337 22.6607 24.3129 22.4018 24.5743C22.1432 24.8356 21.768 24.9932 21.3033 24.9932V25.1836V25.374C21.857 25.374 22.3338 25.1842 22.6724 24.8422C23.0108 24.5004 23.1975 24.0205 23.1975 23.4655H23.0071ZM21.2509 22.171V21.9806H20.6322V22.171V22.3613H21.2509V22.171ZM20.6322 22.171H20.4418V24.7505H20.6322H20.8226V22.171H20.6322ZM20.6322 24.7505V24.9409H21.2699V24.7505V24.5601H20.6322V24.7505ZM21.2699 24.7505V24.9409C21.695 24.9409 22.0604 24.8026 22.3194 24.5372C22.5779 24.2723 22.712 23.8997 22.712 23.4655H22.5216H22.3313C22.3313 23.8213 22.2226 24.0912 22.0469 24.2713C21.8716 24.4509 21.6111 24.5601 21.2699 24.5601V24.7505ZM22.5216 23.4655H22.712C22.712 23.0271 22.5782 22.6516 22.3166 22.385C22.0546 22.1181 21.6842 21.9806 21.2509 21.9806V22.171V22.3613C21.6029 22.3613 21.8679 22.4713 22.0449 22.6517C22.2223 22.8325 22.3313 23.1043 22.3313 23.4655H22.5216ZM23.5899 25.1836V25.374H23.7242L23.7693 25.2474L23.5899 25.1836ZM23.1044 25.1836L22.9256 25.1183L22.8323 25.374H23.1044V25.1836ZM24.3609 21.7426V21.5522H24.2277L24.1821 21.6773L24.3609 21.7426ZM24.8797 21.7426L25.0584 21.6771L25.0126 21.5522H24.8797V21.7426ZM26.1409 25.1836V25.374H26.4134L26.3196 25.1181L26.1409 25.1836ZM25.6507 25.1836L25.4716 25.2483L25.517 25.374H25.6507V25.1836ZM25.3413 24.3269L25.5204 24.2623L25.475 24.1365H25.3413V24.3269ZM23.8945 24.3269V24.1365H23.7601L23.7151 24.2631L23.8945 24.3269ZM24.5608 22.4851L24.7397 22.5502L24.7414 22.5453L24.5608 22.4851ZM24.0373 23.9224L23.8584 23.8572L23.7653 24.1128H24.0373V23.9224ZM25.2033 23.9224V24.1128H25.4761L25.382 23.8567L25.2033 23.9224ZM24.675 22.4851L24.4957 22.5491L24.4963 22.5507L24.675 22.4851ZM24.6179 22.2852L24.8052 22.2511L24.4312 22.2478L24.6179 22.2852ZM23.5899 25.1836V24.9932H23.1044V25.1836V25.374H23.5899V25.1836ZM23.1044 25.1836L23.2833 25.2489L24.5397 21.8079L24.3609 21.7426L24.1821 21.6773L22.9256 25.1183L23.1044 25.1836ZM24.3609 21.7426V21.933H24.8797V21.7426V21.5522H24.3609V21.7426ZM24.8797 21.7426L24.7009 21.8081L25.9621 25.2491L26.1409 25.1836L26.3196 25.1181L25.0584 21.6771L24.8797 21.7426ZM26.1409 25.1836V24.9932H25.6507V25.1836V25.374H26.1409V25.1836ZM25.6507 25.1836L25.8297 25.1189L25.5204 24.2623L25.3413 24.3269L25.1622 24.3916L25.4716 25.2483L25.6507 25.1836ZM25.3413 24.3269V24.1365H23.8945V24.3269V24.5173H25.3413V24.3269ZM23.8945 24.3269L23.7151 24.2631L23.4105 25.1198L23.5899 25.1836L23.7693 25.2474L24.0738 24.3907L23.8945 24.3269ZM24.5608 22.4851L24.3819 22.4199L23.8584 23.8572L24.0373 23.9224L24.2161 23.9875L24.7397 22.5502L24.5608 22.4851ZM24.0373 23.9224V24.1128H25.2033V23.9224V23.732H24.0373V23.9224ZM25.2033 23.9224L25.382 23.8567L24.8537 22.4194L24.675 22.4851L24.4963 22.5507L25.0246 23.9881L25.2033 23.9224ZM24.675 22.4851L24.8543 22.421C24.8321 22.3591 24.8121 22.2891 24.8052 22.2511L24.6179 22.2852L24.4306 22.3192C24.4427 22.386 24.4703 22.4778 24.4957 22.5491L24.675 22.4851ZM24.6179 22.2852L24.4312 22.2478C24.4241 22.2833 24.4034 22.3551 24.3802 22.4249L24.5608 22.4851L24.7414 22.5453C24.7657 22.4723 24.7926 22.3822 24.8046 22.3225L24.6179 22.2852ZM27.0647 25.1836V25.374H27.2551V25.1836H27.0647ZM26.5983 25.1836H26.4079V25.374H26.5983V25.1836ZM26.5983 21.7426V21.5522H26.4079V21.7426H26.5983ZM28.4068 23.732L28.3484 23.5508L28.1404 23.6178L28.2353 23.8147L28.4068 23.732ZM29.1064 25.1836V25.374H29.4095L29.2779 25.1009L29.1064 25.1836ZM28.5877 25.1836L28.4155 25.2649L28.467 25.374H28.5877V25.1836ZM27.9452 23.8224L28.1173 23.7412L28.0658 23.6321H27.9452V23.8224ZM27.0647 23.8224V23.6321H26.8743V23.8224H27.0647ZM27.0647 22.1614V21.9711H26.8743V22.1614H27.0647ZM27.0647 23.4084H26.8743V23.5987H27.0647V23.4084ZM27.0647 25.1836V24.9932H26.5983V25.1836V25.374H27.0647V25.1836ZM26.5983 25.1836H26.7887V21.7426H26.5983H26.4079V25.1836H26.5983ZM26.5983 21.7426V21.933H27.8976V21.7426V21.5522H26.5983V21.7426ZM27.8976 21.7426V21.933C28.2345 21.933 28.4786 22.022 28.636 22.1608C28.7904 22.297 28.8827 22.4997 28.8827 22.7754H29.0731H29.2635C29.2635 22.4085 29.1369 22.0949 28.8879 21.8753C28.642 21.6584 28.2984 21.5522 27.8976 21.5522V21.7426ZM29.0731 22.7754H28.8827C28.8827 22.9814 28.8315 23.1464 28.7443 23.2717C28.6576 23.3962 28.5273 23.4932 28.3484 23.5508L28.4068 23.732L28.4652 23.9132C28.7146 23.8328 28.9175 23.6894 29.0568 23.4892C29.1957 23.2896 29.2635 23.0453 29.2635 22.7754H29.0731ZM28.4068 23.732L28.2353 23.8147L28.9349 25.2662L29.1064 25.1836L29.2779 25.1009L28.5783 23.6494L28.4068 23.732ZM29.1064 25.1836V24.9932H28.5877V25.1836V25.374H29.1064V25.1836ZM28.5877 25.1836L28.7598 25.1023L28.1173 23.7412L27.9452 23.8224L27.773 23.9037L28.4155 25.2649L28.5877 25.1836ZM27.9452 23.8224V23.6321H27.0647V23.8224V24.0128H27.9452V23.8224ZM27.0647 23.8224H26.8743V25.1836H27.0647H27.2551V23.8224H27.0647ZM27.0647 22.1614H26.8743V23.4084H27.0647H27.2551V22.1614H27.0647ZM27.0647 23.4084V23.5987H27.9023V23.4084V23.218H27.0647V23.4084ZM27.9023 23.4084V23.5987C28.1517 23.5987 28.3736 23.5313 28.5345 23.3819C28.6975 23.2307 28.7733 23.0184 28.7733 22.7801H28.5829H28.3925C28.3925 22.9369 28.3446 23.0387 28.2755 23.1029C28.2045 23.1688 28.0861 23.218 27.9023 23.218V23.4084ZM28.5829 22.7801H28.7733C28.7733 22.5377 28.6938 22.3266 28.5273 22.1786C28.3642 22.0336 28.1421 21.9711 27.8976 21.9711V22.1614V22.3518C28.0814 22.3518 28.202 22.3988 28.2744 22.4632C28.3435 22.5246 28.3925 22.6228 28.3925 22.7801H28.5829ZM27.8976 22.1614V21.9711H27.0647V22.1614V22.3518H27.8976V22.1614ZM31.8111 25.1836V25.374H32.0015V25.1836H31.8111ZM29.7123 25.1836H29.5219V25.374H29.7123V25.1836ZM29.7123 21.7426V21.5522H29.5219V21.7426H29.7123ZM31.8111 21.7426H32.0015V21.5522H31.8111V21.7426ZM31.8111 22.171V22.3613H32.0015V22.171H31.8111ZM30.1787 22.171V21.9806H29.9883V22.171H30.1787ZM30.1787 23.2466H29.9883V23.4369H30.1787V23.2466ZM31.6493 23.2466H31.8397V23.0562H31.6493V23.2466ZM31.6493 23.6606V23.851H31.8397V23.6606H31.6493ZM30.1787 23.6606V23.4702H29.9883V23.6606H30.1787ZM30.1787 24.7505H29.9883V24.9409H30.1787V24.7505ZM31.8111 24.7505H32.0015V24.5601H31.8111V24.7505ZM31.8111 25.1836V24.9932H29.7123V25.1836V25.374H31.8111V25.1836ZM29.7123 25.1836H29.9026V21.7426H29.7123H29.5219V25.1836H29.7123ZM29.7123 21.7426V21.933H31.8111V21.7426V21.5522H29.7123V21.7426ZM31.8111 21.7426H31.6208V22.171H31.8111H32.0015V21.7426H31.8111ZM31.8111 22.171V21.9806H30.1787V22.171V22.3613H31.8111V22.171ZM30.1787 22.171H29.9883V23.2466H30.1787H30.3691V22.171H30.1787ZM30.1787 23.2466V23.4369H31.6493V23.2466V23.0562H30.1787V23.2466ZM31.6493 23.2466H31.4589V23.6606H31.6493H31.8397V23.2466H31.6493ZM31.6493 23.6606V23.4702H30.1787V23.6606V23.851H31.6493V23.6606ZM30.1787 23.6606H29.9883V24.7505H30.1787H30.3691V23.6606H30.1787ZM30.1787 24.7505V24.9409H31.8111V24.7505V24.5601H30.1787V24.7505ZM31.8111 24.7505H31.6208V25.1836H31.8111H32.0015V24.7505H31.8111Z" fill="black" mask="url(#path-24-outside-1_1091_375)"/>
<mask id="path-26-outside-2_1091_375" maskUnits="userSpaceOnUse" x="11.375" y="14.9922" width="21" height="11" fill="black">
<rect fill="white" x="11.375" y="14.9922" width="21" height="11"/>
<path d="M14.3041 15.9796V15.5512H16.8408V15.9796H15.8081V18.9922H15.3417V15.9796H14.3041ZM17.7762 18.9922H17.3097V15.5512H18.609C19.3467 15.5512 19.7846 15.9415 19.7846 16.584C19.7846 17.0599 19.5466 17.4026 19.1183 17.5406L19.8179 18.9922H19.2991L18.6566 17.631H17.7762V18.9922ZM17.7762 15.97V17.217H18.6138C19.0469 17.217 19.2944 16.9838 19.2944 16.5887C19.2944 16.189 19.0374 15.97 18.609 15.97H17.7762ZM20.386 17.769V15.5512H20.8524V17.7405C20.8524 18.2926 21.157 18.5972 21.7043 18.5972C22.2469 18.5972 22.5467 18.2878 22.5467 17.7405V15.5512H23.0179V17.769C23.0179 18.5591 22.5134 19.0493 21.7043 19.0493C20.8905 19.0493 20.386 18.5639 20.386 17.769ZM23.4602 15.9796V15.5512H25.9969V15.9796H24.9641V18.9922H24.4977V15.9796H23.4602ZM26.9322 18.9922H26.4658V15.5512H26.9322V17.0314H28.6361V15.5512H29.1025V18.9922H28.6361V17.4645H26.9322V18.9922ZM15.1539 23.2693C15.1539 24.3164 14.4685 25.0493 13.4929 25.0493C12.522 25.0493 11.8462 24.3164 11.8462 23.2693C11.8462 22.227 12.5267 21.4893 13.4976 21.4893C14.4733 21.4893 15.1539 22.2223 15.1539 23.2693ZM14.6637 23.2693C14.6637 22.4698 14.1973 21.9415 13.4976 21.9415C12.798 21.9415 12.3364 22.4698 12.3364 23.2693C12.3364 24.0689 12.798 24.6019 13.4976 24.6019C14.1973 24.6019 14.6637 24.0641 14.6637 23.2693ZM16.2168 24.9922H15.7504V21.5512H17.0497C17.7874 21.5512 18.2253 21.9415 18.2253 22.584C18.2253 23.0599 17.9873 23.4026 17.559 23.5406L18.2586 24.9922H17.7398L17.0973 23.631H16.2168V24.9922ZM16.2168 21.97V23.217H17.0545C17.4876 23.217 17.735 22.9838 17.735 22.5887C17.735 22.189 17.478 21.97 17.0497 21.97H16.2168ZM21.3033 24.9922H20.1658V21.5512H21.2842C22.3122 21.5512 23.0071 22.2461 23.0071 23.2741C23.0071 24.2973 22.3217 24.9922 21.3033 24.9922ZM21.2509 21.9796H20.6322V24.5591H21.2699C22.0362 24.5591 22.5216 24.0641 22.5216 23.2741C22.5216 22.4745 22.0362 21.9796 21.2509 21.9796ZM23.5899 24.9922H23.1044L24.3609 21.5512H24.8796L26.1409 24.9922H25.6507L25.3413 24.1355H23.8945L23.5899 24.9922ZM24.5608 22.2937L24.0373 23.731H25.2033L24.675 22.2937C24.6512 22.227 24.6274 22.1461 24.6179 22.0938C24.6084 22.1414 24.5846 22.2223 24.5608 22.2937ZM27.0647 24.9922H26.5983V21.5512H27.8976C28.6353 21.5512 29.0731 21.9415 29.0731 22.584C29.0731 23.0599 28.8351 23.4026 28.4068 23.5406L29.1064 24.9922H28.5877L27.9452 23.631H27.0647V24.9922ZM27.0647 21.97V23.217H27.9023C28.3354 23.217 28.5829 22.9838 28.5829 22.5887C28.5829 22.189 28.3259 21.97 27.8976 21.97H27.0647ZM31.8111 24.9922H29.7123V21.5512H31.8111V21.9796H30.1787V23.0552H31.6493V23.4692H30.1787V24.5591H31.8111V24.9922Z"/>
</mask>
<path d="M14.3041 15.9796V15.5512H16.8408V15.9796H15.8081V18.9922H15.3417V15.9796H14.3041ZM17.7762 18.9922H17.3097V15.5512H18.609C19.3467 15.5512 19.7846 15.9415 19.7846 16.584C19.7846 17.0599 19.5466 17.4026 19.1183 17.5406L19.8179 18.9922H19.2991L18.6566 17.631H17.7762V18.9922ZM17.7762 15.97V17.217H18.6138C19.0469 17.217 19.2944 16.9838 19.2944 16.5887C19.2944 16.189 19.0374 15.97 18.609 15.97H17.7762ZM20.386 17.769V15.5512H20.8524V17.7405C20.8524 18.2926 21.157 18.5972 21.7043 18.5972C22.2469 18.5972 22.5467 18.2878 22.5467 17.7405V15.5512H23.0179V17.769C23.0179 18.5591 22.5134 19.0493 21.7043 19.0493C20.8905 19.0493 20.386 18.5639 20.386 17.769ZM23.4602 15.9796V15.5512H25.9969V15.9796H24.9641V18.9922H24.4977V15.9796H23.4602ZM26.9322 18.9922H26.4658V15.5512H26.9322V17.0314H28.6361V15.5512H29.1025V18.9922H28.6361V17.4645H26.9322V18.9922ZM15.1539 23.2693C15.1539 24.3164 14.4685 25.0493 13.4929 25.0493C12.522 25.0493 11.8462 24.3164 11.8462 23.2693C11.8462 22.227 12.5267 21.4893 13.4976 21.4893C14.4733 21.4893 15.1539 22.2223 15.1539 23.2693ZM14.6637 23.2693C14.6637 22.4698 14.1973 21.9415 13.4976 21.9415C12.798 21.9415 12.3364 22.4698 12.3364 23.2693C12.3364 24.0689 12.798 24.6019 13.4976 24.6019C14.1973 24.6019 14.6637 24.0641 14.6637 23.2693ZM16.2168 24.9922H15.7504V21.5512H17.0497C17.7874 21.5512 18.2253 21.9415 18.2253 22.584C18.2253 23.0599 17.9873 23.4026 17.559 23.5406L18.2586 24.9922H17.7398L17.0973 23.631H16.2168V24.9922ZM16.2168 21.97V23.217H17.0545C17.4876 23.217 17.735 22.9838 17.735 22.5887C17.735 22.189 17.478 21.97 17.0497 21.97H16.2168ZM21.3033 24.9922H20.1658V21.5512H21.2842C22.3122 21.5512 23.0071 22.2461 23.0071 23.2741C23.0071 24.2973 22.3217 24.9922 21.3033 24.9922ZM21.2509 21.9796H20.6322V24.5591H21.2699C22.0362 24.5591 22.5216 24.0641 22.5216 23.2741C22.5216 22.4745 22.0362 21.9796 21.2509 21.9796ZM23.5899 24.9922H23.1044L24.3609 21.5512H24.8796L26.1409 24.9922H25.6507L25.3413 24.1355H23.8945L23.5899 24.9922ZM24.5608 22.2937L24.0373 23.731H25.2033L24.675 22.2937C24.6512 22.227 24.6274 22.1461 24.6179 22.0938C24.6084 22.1414 24.5846 22.2223 24.5608 22.2937ZM27.0647 24.9922H26.5983V21.5512H27.8976C28.6353 21.5512 29.0731 21.9415 29.0731 22.584C29.0731 23.0599 28.8351 23.4026 28.4068 23.5406L29.1064 24.9922H28.5877L27.9452 23.631H27.0647V24.9922ZM27.0647 21.97V23.217H27.9023C28.3354 23.217 28.5829 22.9838 28.5829 22.5887C28.5829 22.189 28.3259 21.97 27.8976 21.97H27.0647ZM31.8111 24.9922H29.7123V21.5512H31.8111V21.9796H30.1787V23.0552H31.6493V23.4692H30.1787V24.5591H31.8111V24.9922Z" fill="#D39293"/>
<path d="M14.3041 15.9796H14.1138V16.1699H14.3041V15.9796ZM14.3041 15.5512V15.3608H14.1138V15.5512H14.3041ZM16.8408 15.5512H17.0312V15.3608H16.8408V15.5512ZM16.8408 15.9796V16.1699H17.0312V15.9796H16.8408ZM15.8081 15.9796V15.7892H15.6177V15.9796H15.8081ZM15.8081 18.9922V19.1826H15.9984V18.9922H15.8081ZM15.3417 18.9922H15.1513V19.1826H15.3417V18.9922ZM15.3417 15.9796H15.532V15.7892H15.3417V15.9796ZM14.3041 15.9796H14.4945V15.5512H14.3041H14.1138V15.9796H14.3041ZM14.3041 15.5512V15.7416H16.8408V15.5512V15.3608H14.3041V15.5512ZM16.8408 15.5512H16.6505V15.9796H16.8408H17.0312V15.5512H16.8408ZM16.8408 15.9796V15.7892H15.8081V15.9796V16.1699H16.8408V15.9796ZM15.8081 15.9796H15.6177V18.9922H15.8081H15.9984V15.9796H15.8081ZM15.8081 18.9922V18.8018H15.3417V18.9922V19.1826H15.8081V18.9922ZM15.3417 18.9922H15.532V15.9796H15.3417H15.1513V18.9922H15.3417ZM15.3417 15.9796V15.7892H14.3041V15.9796V16.1699H15.3417V15.9796ZM17.7762 18.9922V19.1826H17.9665V18.9922H17.7762ZM17.3097 18.9922H17.1194V19.1826H17.3097V18.9922ZM17.3097 15.5512V15.3608H17.1194V15.5512H17.3097ZM19.1183 17.5406L19.0599 17.3594L18.8519 17.4264L18.9468 17.6233L19.1183 17.5406ZM19.8179 18.9922V19.1826H20.121L19.9894 18.9095L19.8179 18.9922ZM19.2991 18.9922L19.127 19.0735L19.1785 19.1826H19.2991V18.9922ZM18.6566 17.631L18.8288 17.5498L18.7773 17.4407H18.6566V17.631ZM17.7762 17.631V17.4407H17.5858V17.631H17.7762ZM17.7762 15.97V15.7797H17.5858V15.97H17.7762ZM17.7762 17.217H17.5858V17.4073H17.7762V17.217ZM17.7762 18.9922V18.8018H17.3097V18.9922V19.1826H17.7762V18.9922ZM17.3097 18.9922H17.5001V15.5512H17.3097H17.1194V18.9922H17.3097ZM17.3097 15.5512V15.7416H18.609V15.5512V15.3608H17.3097V15.5512ZM18.609 15.5512V15.7416C18.9459 15.7416 19.1901 15.8306 19.3475 15.9694C19.5019 16.1056 19.5942 16.3083 19.5942 16.584H19.7846H19.9749C19.9749 16.2171 19.8483 15.9035 19.5994 15.6839C19.3534 15.467 19.0098 15.3608 18.609 15.3608V15.5512ZM19.7846 16.584H19.5942C19.5942 16.79 19.543 16.955 19.4558 17.0803C19.3691 17.2048 19.2388 17.3018 19.0599 17.3594L19.1183 17.5406L19.1767 17.7218C19.4261 17.6414 19.6289 17.498 19.7683 17.2978C19.9072 17.0982 19.9749 16.8539 19.9749 16.584H19.7846ZM19.1183 17.5406L18.9468 17.6233L19.6464 19.0748L19.8179 18.9922L19.9894 18.9095L19.2898 17.4579L19.1183 17.5406ZM19.8179 18.9922V18.8018H19.2991V18.9922V19.1826H19.8179V18.9922ZM19.2991 18.9922L19.4713 18.9109L18.8288 17.5498L18.6566 17.631L18.4845 17.7123L19.127 19.0735L19.2991 18.9922ZM18.6566 17.631V17.4407H17.7762V17.631V17.8214H18.6566V17.631ZM17.7762 17.631H17.5858V18.9922H17.7762H17.9665V17.631H17.7762ZM17.7762 15.97H17.5858V17.217H17.7762H17.9665V15.97H17.7762ZM17.7762 17.217V17.4073H18.6138V17.217V17.0266H17.7762V17.217ZM18.6138 17.217V17.4073C18.8632 17.4073 19.085 17.3399 19.246 17.1905C19.4089 17.0393 19.4847 16.827 19.4847 16.5887H19.2944H19.104C19.104 16.7455 19.0561 16.8473 18.987 16.9115C18.9159 16.9774 18.7975 17.0266 18.6138 17.0266V17.217ZM19.2944 16.5887H19.4847C19.4847 16.3463 19.4053 16.1352 19.2388 15.9872C19.0757 15.8422 18.8535 15.7797 18.609 15.7797V15.97V16.1604C18.7929 16.1604 18.9134 16.2074 18.9859 16.2718C19.0549 16.3332 19.104 16.4314 19.104 16.5887H19.2944ZM18.609 15.97V15.7797H17.7762V15.97V16.1604H18.609V15.97ZM20.386 15.5512V15.3608H20.1956V15.5512H20.386ZM20.8524 15.5512H21.0428V15.3608H20.8524V15.5512ZM22.5467 15.5512V15.3608H22.3563V15.5512H22.5467ZM23.0179 15.5512H23.2083V15.3608H23.0179V15.5512ZM20.386 17.769H20.5764V15.5512H20.386H20.1956V17.769H20.386ZM20.386 15.5512V15.7416H20.8524V15.5512V15.3608H20.386V15.5512ZM20.8524 15.5512H20.662V17.7405H20.8524H21.0428V15.5512H20.8524ZM20.8524 17.7405H20.662C20.662 18.0506 20.7481 18.3193 20.9382 18.5102C21.1285 18.7012 21.3961 18.7875 21.7043 18.7875V18.5972V18.4068C21.4652 18.4068 21.3069 18.3408 21.208 18.2415C21.109 18.1421 21.0428 17.9824 21.0428 17.7405H20.8524ZM21.7043 18.5972V18.7875C22.0114 18.7875 22.2769 18.6993 22.465 18.5073C22.6525 18.3159 22.7371 18.0478 22.7371 17.7405H22.5467H22.3563C22.3563 17.9805 22.2911 18.1407 22.193 18.2409C22.0955 18.3404 21.9398 18.4068 21.7043 18.4068V18.5972ZM22.5467 17.7405H22.7371V15.5512H22.5467H22.3563V17.7405H22.5467ZM22.5467 15.5512V15.7416H23.0179V15.5512V15.3608H22.5467V15.5512ZM23.0179 15.5512H22.8275V17.769H23.0179H23.2083V15.5512H23.0179ZM23.0179 17.769H22.8275C22.8275 18.1227 22.7156 18.39 22.5317 18.5691C22.3472 18.7487 22.0704 18.8589 21.7043 18.8589V19.0493V19.2397C22.1473 19.2397 22.5273 19.1048 22.7973 18.8418C23.068 18.5783 23.2083 18.2055 23.2083 17.769H23.0179ZM21.7043 19.0493V18.8589C21.3351 18.8589 21.0571 18.7494 20.8724 18.5705C20.6884 18.3923 20.5764 18.1253 20.5764 17.769H20.386H20.1956C20.1956 18.2076 20.3358 18.5808 20.6075 18.844C20.8785 19.1065 21.2597 19.2397 21.7043 19.2397V19.0493ZM23.4602 15.9796H23.2698V16.1699H23.4602V15.9796ZM23.4602 15.5512V15.3608H23.2698V15.5512H23.4602ZM25.9969 15.5512H26.1873V15.3608H25.9969V15.5512ZM25.9969 15.9796V16.1699H26.1873V15.9796H25.9969ZM24.9641 15.9796V15.7892H24.7738V15.9796H24.9641ZM24.9641 18.9922V19.1826H25.1545V18.9922H24.9641ZM24.4977 18.9922H24.3074V19.1826H24.4977V18.9922ZM24.4977 15.9796H24.6881V15.7892H24.4977V15.9796ZM23.4602 15.9796H23.6506V15.5512H23.4602H23.2698V15.9796H23.4602ZM23.4602 15.5512V15.7416H25.9969V15.5512V15.3608H23.4602V15.5512ZM25.9969 15.5512H25.8065V15.9796H25.9969H26.1873V15.5512H25.9969ZM25.9969 15.9796V15.7892H24.9641V15.9796V16.1699H25.9969V15.9796ZM24.9641 15.9796H24.7738V18.9922H24.9641H25.1545V15.9796H24.9641ZM24.9641 18.9922V18.8018H24.4977V18.9922V19.1826H24.9641V18.9922ZM24.4977 18.9922H24.6881V15.9796H24.4977H24.3074V18.9922H24.4977ZM24.4977 15.9796V15.7892H23.4602V15.9796V16.1699H24.4977V15.9796ZM26.9322 18.9922V19.1826H27.1226V18.9922H26.9322ZM26.4658 18.9922H26.2754V19.1826H26.4658V18.9922ZM26.4658 15.5512V15.3608H26.2754V15.5512H26.4658ZM26.9322 15.5512H27.1226V15.3608H26.9322V15.5512ZM26.9322 17.0314H26.7419V17.2217H26.9322V17.0314ZM28.6361 17.0314V17.2217H28.8264V17.0314H28.6361ZM28.6361 15.5512V15.3608H28.4457V15.5512H28.6361ZM29.1025 15.5512H29.2928V15.3608H29.1025V15.5512ZM29.1025 18.9922V19.1826H29.2928V18.9922H29.1025ZM28.6361 18.9922H28.4457V19.1826H28.6361V18.9922ZM28.6361 17.4645H28.8264V17.2741H28.6361V17.4645ZM26.9322 17.4645V17.2741H26.7419V17.4645H26.9322ZM26.9322 18.9922V18.8018H26.4658V18.9922V19.1826H26.9322V18.9922ZM26.4658 18.9922H26.6562V15.5512H26.4658H26.2754V18.9922H26.4658ZM26.4658 15.5512V15.7416H26.9322V15.5512V15.3608H26.4658V15.5512ZM26.9322 15.5512H26.7419V17.0314H26.9322H27.1226V15.5512H26.9322ZM26.9322 17.0314V17.2217H28.6361V17.0314V16.841H26.9322V17.0314ZM28.6361 17.0314H28.8264V15.5512H28.6361H28.4457V17.0314H28.6361ZM28.6361 15.5512V15.7416H29.1025V15.5512V15.3608H28.6361V15.5512ZM29.1025 15.5512H28.9121V18.9922H29.1025H29.2928V15.5512H29.1025ZM29.1025 18.9922V18.8018H28.6361V18.9922V19.1826H29.1025V18.9922ZM28.6361 18.9922H28.8264V17.4645H28.6361H28.4457V18.9922H28.6361ZM28.6361 17.4645V17.2741H26.9322V17.4645V17.6548H28.6361V17.4645ZM26.9322 17.4645H26.7419V18.9922H26.9322H27.1226V17.4645H26.9322ZM15.1539 23.2693H14.9635C14.9635 23.751 14.8063 24.1476 14.5501 24.422C14.2947 24.6955 13.9308 24.8589 13.4929 24.8589V25.0493V25.2397C14.0306 25.2397 14.4972 25.0366 14.8284 24.6819C15.1587 24.3281 15.3442 23.8347 15.3442 23.2693H15.1539ZM13.4929 25.0493V24.8589C13.0577 24.8589 12.6977 24.6959 12.4452 24.4227C12.1918 24.1485 12.0365 23.7518 12.0365 23.2693H11.8462H11.6558C11.6558 23.8339 11.8385 24.3272 12.1656 24.6812C12.4938 25.0363 12.9571 25.2397 13.4929 25.2397V25.0493ZM11.8462 23.2693H12.0365C12.0365 22.7898 12.1926 22.393 12.4475 22.1178C12.7013 21.8438 13.0628 21.6797 13.4976 21.6797V21.4893V21.299C12.9616 21.299 12.4973 21.5038 12.1681 21.8591C11.84 22.2134 11.6558 22.7066 11.6558 23.2693H11.8462ZM13.4976 21.4893V21.6797C13.9355 21.6797 14.2981 21.843 14.5522 22.1163C14.8073 22.3906 14.9635 22.7873 14.9635 23.2693H15.1539H15.3442C15.3442 22.7043 15.1602 22.211 14.831 21.857C14.501 21.5021 14.0354 21.299 13.4976 21.299V21.4893ZM14.6637 23.2693H14.854C14.854 22.8333 14.7266 22.4534 14.486 22.1798C14.2434 21.904 13.8984 21.7511 13.4976 21.7511V21.9415V22.1318C13.7965 22.1318 14.0345 22.2431 14.2001 22.4313C14.3675 22.6217 14.4733 22.9058 14.4733 23.2693H14.6637ZM13.4976 21.9415V21.7511C13.0967 21.7511 12.7528 21.9041 12.5113 22.1803C12.272 22.454 12.146 22.8337 12.146 23.2693H12.3364H12.5267C12.5267 22.9053 12.6316 22.6212 12.798 22.4309C12.9622 22.243 13.1989 22.1318 13.4976 22.1318V21.9415ZM12.3364 23.2693H12.146C12.146 23.7049 12.2719 24.0856 12.511 24.3604C12.7522 24.6377 13.0962 24.7923 13.4976 24.7923V24.6019V24.4116C13.1995 24.4116 12.9628 24.2996 12.7983 24.1105C12.6316 23.9189 12.5267 23.6333 12.5267 23.2693H12.3364ZM13.4976 24.6019V24.7923C13.8995 24.7923 14.2444 24.6362 14.4864 24.3589C14.7265 24.0838 14.854 23.7032 14.854 23.2693H14.6637H14.4733C14.4733 23.6302 14.3676 23.916 14.1996 24.1085C14.0335 24.2987 13.7954 24.4116 13.4976 24.4116V24.6019ZM16.2168 24.9922V25.1826H16.4072V24.9922H16.2168ZM15.7504 24.9922H15.56V25.1826H15.7504V24.9922ZM15.7504 21.5512V21.3608H15.56V21.5512H15.7504ZM17.559 23.5406L17.5006 23.3594L17.2926 23.4264L17.3875 23.6233L17.559 23.5406ZM18.2586 24.9922V25.1826H18.5617L18.4301 24.9095L18.2586 24.9922ZM17.7398 24.9922L17.5677 25.0735L17.6192 25.1826H17.7398V24.9922ZM17.0973 23.631L17.2695 23.5498L17.218 23.4407H17.0973V23.631ZM16.2168 23.631V23.4407H16.0265V23.631H16.2168ZM16.2168 21.97V21.7797H16.0265V21.97H16.2168ZM16.2168 23.217H16.0265V23.4073H16.2168V23.217ZM16.2168 24.9922V24.8018H15.7504V24.9922V25.1826H16.2168V24.9922ZM15.7504 24.9922H15.9408V21.5512H15.7504H15.56V24.9922H15.7504ZM15.7504 21.5512V21.7416H17.0497V21.5512V21.3608H15.7504V21.5512ZM17.0497 21.5512V21.7416C17.3866 21.7416 17.6308 21.8306 17.7882 21.9694C17.9426 22.1056 18.0349 22.3083 18.0349 22.584H18.2253H18.4156C18.4156 22.2171 18.289 21.9035 18.04 21.6839C17.7941 21.467 17.4505 21.3608 17.0497 21.3608V21.5512ZM18.2253 22.584H18.0349C18.0349 22.79 17.9837 22.955 17.8965 23.0803C17.8098 23.2048 17.6795 23.3018 17.5006 23.3594L17.559 23.5406L17.6173 23.7218C17.8668 23.6414 18.0696 23.498 18.209 23.2978C18.3479 23.0982 18.4156 22.8539 18.4156 22.584H18.2253ZM17.559 23.5406L17.3875 23.6233L18.0871 25.0748L18.2586 24.9922L18.4301 24.9095L17.7304 23.4579L17.559 23.5406ZM18.2586 24.9922V24.8018H17.7398V24.9922V25.1826H18.2586V24.9922ZM17.7398 24.9922L17.912 24.9109L17.2695 23.5498L17.0973 23.631L16.9251 23.7123L17.5677 25.0735L17.7398 24.9922ZM17.0973 23.631V23.4407H16.2168V23.631V23.8214H17.0973V23.631ZM16.2168 23.631H16.0265V24.9922H16.2168H16.4072V23.631H16.2168ZM16.2168 21.97H16.0265V23.217H16.2168H16.4072V21.97H16.2168ZM16.2168 23.217V23.4073H17.0545V23.217V23.0266H16.2168V23.217ZM17.0545 23.217V23.4073C17.3038 23.4073 17.5257 23.3399 17.6867 23.1905C17.8496 23.0393 17.9254 22.827 17.9254 22.5887H17.735H17.5447C17.5447 22.7455 17.4968 22.8473 17.4277 22.9115C17.3566 22.9774 17.2382 23.0266 17.0545 23.0266V23.217ZM17.735 22.5887H17.9254C17.9254 22.3463 17.846 22.1352 17.6795 21.9872C17.5163 21.8422 17.2942 21.7797 17.0497 21.7797V21.97V22.1604C17.2335 22.1604 17.3541 22.2074 17.4265 22.2718C17.4956 22.3332 17.5447 22.4314 17.5447 22.5887H17.735ZM17.0497 21.97V21.7797H16.2168V21.97V22.1604H17.0497V21.97ZM20.1658 24.9922H19.9754V25.1826H20.1658V24.9922ZM20.1658 21.5512V21.3608H19.9754V21.5512H20.1658ZM20.6322 21.9796V21.7892H20.4418V21.9796H20.6322ZM20.6322 24.5591H20.4418V24.7495H20.6322V24.5591ZM21.3033 24.9922V24.8018H20.1658V24.9922V25.1826H21.3033V24.9922ZM20.1658 24.9922H20.3562V21.5512H20.1658H19.9754V24.9922H20.1658ZM20.1658 21.5512V21.7416H21.2842V21.5512V21.3608H20.1658V21.5512ZM21.2842 21.5512V21.7416C21.7543 21.7416 22.1344 21.8996 22.3965 22.1618C22.6587 22.4239 22.8167 22.804 22.8167 23.2741H23.0071H23.1975C23.1975 22.7162 23.0081 22.2348 22.6658 21.8925C22.3235 21.5502 21.8422 21.3608 21.2842 21.3608V21.5512ZM23.0071 23.2741H22.8167C22.8167 23.7423 22.6607 24.1215 22.4018 24.3829C22.1432 24.6442 21.768 24.8018 21.3033 24.8018V24.9922V25.1826C21.857 25.1826 22.3338 24.9928 22.6724 24.6508C23.0108 24.309 23.1975 23.8291 23.1975 23.2741H23.0071ZM21.2509 21.9796V21.7892H20.6322V21.9796V22.1699H21.2509V21.9796ZM20.6322 21.9796H20.4418V24.5591H20.6322H20.8226V21.9796H20.6322ZM20.6322 24.5591V24.7495H21.2699V24.5591V24.3687H20.6322V24.5591ZM21.2699 24.5591V24.7495C21.695 24.7495 22.0604 24.6112 22.3194 24.3458C22.5779 24.0809 22.712 23.7083 22.712 23.2741H22.5216H22.3313C22.3313 23.6299 22.2226 23.8998 22.0469 24.0799C21.8716 24.2595 21.6111 24.3687 21.2699 24.3687V24.5591ZM22.5216 23.2741H22.712C22.712 22.8357 22.5782 22.4602 22.3166 22.1936C22.0546 21.9267 21.6842 21.7892 21.2509 21.7892V21.9796V22.1699C21.6029 22.1699 21.8679 22.2799 22.0449 22.4603C22.2223 22.6411 22.3313 22.9129 22.3313 23.2741H22.5216ZM23.5899 24.9922V25.1826H23.7242L23.7693 25.056L23.5899 24.9922ZM23.1044 24.9922L22.9256 24.9269L22.8323 25.1826H23.1044V24.9922ZM24.3609 21.5512V21.3608H24.2277L24.1821 21.4859L24.3609 21.5512ZM24.8797 21.5512L25.0584 21.4857L25.0126 21.3608H24.8797V21.5512ZM26.1409 24.9922V25.1826H26.4134L26.3196 24.9267L26.1409 24.9922ZM25.6507 24.9922L25.4716 25.0568L25.517 25.1826H25.6507V24.9922ZM25.3413 24.1355L25.5204 24.0709L25.475 23.9451H25.3413V24.1355ZM23.8945 24.1355V23.9451H23.7601L23.7151 24.0717L23.8945 24.1355ZM24.5608 22.2937L24.7397 22.3588L24.7414 22.3539L24.5608 22.2937ZM24.0373 23.731L23.8584 23.6658L23.7653 23.9213H24.0373V23.731ZM25.2033 23.731V23.9213H25.4761L25.382 23.6653L25.2033 23.731ZM24.675 22.2937L24.4957 22.3577L24.4963 22.3593L24.675 22.2937ZM24.6179 22.0938L24.8052 22.0597L24.4312 22.0564L24.6179 22.0938ZM23.5899 24.9922V24.8018H23.1044V24.9922V25.1826H23.5899V24.9922ZM23.1044 24.9922L23.2833 25.0575L24.5397 21.6165L24.3609 21.5512L24.1821 21.4859L22.9256 24.9269L23.1044 24.9922ZM24.3609 21.5512V21.7416H24.8797V21.5512V21.3608H24.3609V21.5512ZM24.8797 21.5512L24.7009 21.6167L25.9621 25.0577L26.1409 24.9922L26.3196 24.9267L25.0584 21.4857L24.8797 21.5512ZM26.1409 24.9922V24.8018H25.6507V24.9922V25.1826H26.1409V24.9922ZM25.6507 24.9922L25.8297 24.9275L25.5204 24.0709L25.3413 24.1355L25.1622 24.2002L25.4716 25.0568L25.6507 24.9922ZM25.3413 24.1355V23.9451H23.8945V24.1355V24.3259H25.3413V24.1355ZM23.8945 24.1355L23.7151 24.0717L23.4105 24.9284L23.5899 24.9922L23.7693 25.056L24.0738 24.1993L23.8945 24.1355ZM24.5608 22.2937L24.3819 22.2285L23.8584 23.6658L24.0373 23.731L24.2161 23.7961L24.7397 22.3588L24.5608 22.2937ZM24.0373 23.731V23.9213H25.2033V23.731V23.5406H24.0373V23.731ZM25.2033 23.731L25.382 23.6653L24.8537 22.228L24.675 22.2937L24.4963 22.3593L25.0246 23.7966L25.2033 23.731ZM24.675 22.2937L24.8543 22.2296C24.8321 22.1676 24.8121 22.0977 24.8052 22.0597L24.6179 22.0938L24.4306 22.1278C24.4427 22.1946 24.4703 22.2864 24.4957 22.3577L24.675 22.2937ZM24.6179 22.0938L24.4312 22.0564C24.4241 22.0919 24.4034 22.1637 24.3802 22.2335L24.5608 22.2937L24.7414 22.3539C24.7657 22.2809 24.7926 22.1908 24.8046 22.1311L24.6179 22.0938ZM27.0647 24.9922V25.1826H27.2551V24.9922H27.0647ZM26.5983 24.9922H26.4079V25.1826H26.5983V24.9922ZM26.5983 21.5512V21.3608H26.4079V21.5512H26.5983ZM28.4068 23.5406L28.3484 23.3594L28.1404 23.4264L28.2353 23.6233L28.4068 23.5406ZM29.1064 24.9922V25.1826H29.4095L29.2779 24.9095L29.1064 24.9922ZM28.5877 24.9922L28.4155 25.0735L28.467 25.1826H28.5877V24.9922ZM27.9452 23.631L28.1173 23.5498L28.0658 23.4407H27.9452V23.631ZM27.0647 23.631V23.4407H26.8743V23.631H27.0647ZM27.0647 21.97V21.7797H26.8743V21.97H27.0647ZM27.0647 23.217H26.8743V23.4073H27.0647V23.217ZM27.0647 24.9922V24.8018H26.5983V24.9922V25.1826H27.0647V24.9922ZM26.5983 24.9922H26.7887V21.5512H26.5983H26.4079V24.9922H26.5983ZM26.5983 21.5512V21.7416H27.8976V21.5512V21.3608H26.5983V21.5512ZM27.8976 21.5512V21.7416C28.2345 21.7416 28.4786 21.8306 28.636 21.9694C28.7904 22.1056 28.8827 22.3083 28.8827 22.584H29.0731H29.2635C29.2635 22.2171 29.1369 21.9035 28.8879 21.6839C28.642 21.467 28.2984 21.3608 27.8976 21.3608V21.5512ZM29.0731 22.584H28.8827C28.8827 22.79 28.8315 22.955 28.7443 23.0803C28.6576 23.2048 28.5273 23.3018 28.3484 23.3594L28.4068 23.5406L28.4652 23.7218C28.7146 23.6414 28.9175 23.498 29.0568 23.2978C29.1957 23.0982 29.2635 22.8539 29.2635 22.584H29.0731ZM28.4068 23.5406L28.2353 23.6233L28.9349 25.0748L29.1064 24.9922L29.2779 24.9095L28.5783 23.4579L28.4068 23.5406ZM29.1064 24.9922V24.8018H28.5877V24.9922V25.1826H29.1064V24.9922ZM28.5877 24.9922L28.7598 24.9109L28.1173 23.5498L27.9452 23.631L27.773 23.7123L28.4155 25.0735L28.5877 24.9922ZM27.9452 23.631V23.4407H27.0647V23.631V23.8214H27.9452V23.631ZM27.0647 23.631H26.8743V24.9922H27.0647H27.2551V23.631H27.0647ZM27.0647 21.97H26.8743V23.217H27.0647H27.2551V21.97H27.0647ZM27.0647 23.217V23.4073H27.9023V23.217V23.0266H27.0647V23.217ZM27.9023 23.217V23.4073C28.1517 23.4073 28.3736 23.3399 28.5345 23.1905C28.6975 23.0393 28.7733 22.827 28.7733 22.5887H28.5829H28.3925C28.3925 22.7455 28.3446 22.8473 28.2755 22.9115C28.2045 22.9774 28.0861 23.0266 27.9023 23.0266V23.217ZM28.5829 22.5887H28.7733C28.7733 22.3463 28.6938 22.1352 28.5273 21.9872C28.3642 21.8422 28.1421 21.7797 27.8976 21.7797V21.97V22.1604C28.0814 22.1604 28.202 22.2074 28.2744 22.2718C28.3435 22.3332 28.3925 22.4314 28.3925 22.5887H28.5829ZM27.8976 21.97V21.7797H27.0647V21.97V22.1604H27.8976V21.97ZM31.8111 24.9922V25.1826H32.0015V24.9922H31.8111ZM29.7123 24.9922H29.5219V25.1826H29.7123V24.9922ZM29.7123 21.5512V21.3608H29.5219V21.5512H29.7123ZM31.8111 21.5512H32.0015V21.3608H31.8111V21.5512ZM31.8111 21.9796V22.1699H32.0015V21.9796H31.8111ZM30.1787 21.9796V21.7892H29.9883V21.9796H30.1787ZM30.1787 23.0552H29.9883V23.2455H30.1787V23.0552ZM31.6493 23.0552H31.8397V22.8648H31.6493V23.0552ZM31.6493 23.4692V23.6596H31.8397V23.4692H31.6493ZM30.1787 23.4692V23.2788H29.9883V23.4692H30.1787ZM30.1787 24.5591H29.9883V24.7495H30.1787V24.5591ZM31.8111 24.5591H32.0015V24.3687H31.8111V24.5591ZM31.8111 24.9922V24.8018H29.7123V24.9922V25.1826H31.8111V24.9922ZM29.7123 24.9922H29.9026V21.5512H29.7123H29.5219V24.9922H29.7123ZM29.7123 21.5512V21.7416H31.8111V21.5512V21.3608H29.7123V21.5512ZM31.8111 21.5512H31.6208V21.9796H31.8111H32.0015V21.5512H31.8111ZM31.8111 21.9796V21.7892H30.1787V21.9796V22.1699H31.8111V21.9796ZM30.1787 21.9796H29.9883V23.0552H30.1787H30.3691V21.9796H30.1787ZM30.1787 23.0552V23.2455H31.6493V23.0552V22.8648H30.1787V23.0552ZM31.6493 23.0552H31.4589V23.4692H31.6493H31.8397V23.0552H31.6493ZM31.6493 23.4692V23.2788H30.1787V23.4692V23.6596H31.6493V23.4692ZM30.1787 23.4692H29.9883V24.5591H30.1787H30.3691V23.4692H30.1787ZM30.1787 24.5591V24.7495H31.8111V24.5591V24.3687H30.1787V24.5591ZM31.8111 24.5591H31.6208V24.9922H31.8111H32.0015V24.5591H31.8111Z" fill="black" mask="url(#path-26-outside-2_1091_375)"/>
<path d="M14.3041 15.9796H14.1138V16.1699H14.3041V15.9796ZM14.3041 15.5512V15.3608H14.1138V15.5512H14.3041ZM16.8408 15.5512H17.0312V15.3608H16.8408V15.5512ZM16.8408 15.9796V16.1699H17.0312V15.9796H16.8408ZM15.8081 15.9796V15.7892H15.6177V15.9796H15.8081ZM15.8081 18.9922V19.1826H15.9984V18.9922H15.8081ZM15.3417 18.9922H15.1513V19.1826H15.3417V18.9922ZM15.3417 15.9796H15.532V15.7892H15.3417V15.9796ZM14.3041 15.9796H14.4945V15.5512H14.3041H14.1138V15.9796H14.3041ZM14.3041 15.5512V15.7416H16.8408V15.5512V15.3608H14.3041V15.5512ZM16.8408 15.5512H16.6505V15.9796H16.8408H17.0312V15.5512H16.8408ZM16.8408 15.9796V15.7892H15.8081V15.9796V16.1699H16.8408V15.9796ZM15.8081 15.9796H15.6177V18.9922H15.8081H15.9984V15.9796H15.8081ZM15.8081 18.9922V18.8018H15.3417V18.9922V19.1826H15.8081V18.9922ZM15.3417 18.9922H15.532V15.9796H15.3417H15.1513V18.9922H15.3417ZM15.3417 15.9796V15.7892H14.3041V15.9796V16.1699H15.3417V15.9796ZM17.7762 18.9922V19.1826H17.9665V18.9922H17.7762ZM17.3097 18.9922H17.1194V19.1826H17.3097V18.9922ZM17.3097 15.5512V15.3608H17.1194V15.5512H17.3097ZM19.1183 17.5406L19.0599 17.3594L18.8519 17.4264L18.9468 17.6233L19.1183 17.5406ZM19.8179 18.9922V19.1826H20.121L19.9894 18.9095L19.8179 18.9922ZM19.2991 18.9922L19.127 19.0735L19.1785 19.1826H19.2991V18.9922ZM18.6566 17.631L18.8288 17.5498L18.7773 17.4407H18.6566V17.631ZM17.7762 17.631V17.4407H17.5858V17.631H17.7762ZM17.7762 15.97V15.7797H17.5858V15.97H17.7762ZM17.7762 17.217H17.5858V17.4073H17.7762V17.217ZM17.7762 18.9922V18.8018H17.3097V18.9922V19.1826H17.7762V18.9922ZM17.3097 18.9922H17.5001V15.5512H17.3097H17.1194V18.9922H17.3097ZM17.3097 15.5512V15.7416H18.609V15.5512V15.3608H17.3097V15.5512ZM18.609 15.5512V15.7416C18.9459 15.7416 19.1901 15.8306 19.3475 15.9694C19.5019 16.1056 19.5942 16.3083 19.5942 16.584H19.7846H19.9749C19.9749 16.2171 19.8483 15.9035 19.5994 15.6839C19.3534 15.467 19.0098 15.3608 18.609 15.3608V15.5512ZM19.7846 16.584H19.5942C19.5942 16.79 19.543 16.955 19.4558 17.0803C19.3691 17.2048 19.2388 17.3018 19.0599 17.3594L19.1183 17.5406L19.1767 17.7218C19.4261 17.6414 19.6289 17.498 19.7683 17.2978C19.9072 17.0982 19.9749 16.8539 19.9749 16.584H19.7846ZM19.1183 17.5406L18.9468 17.6233L19.6464 19.0748L19.8179 18.9922L19.9894 18.9095L19.2898 17.4579L19.1183 17.5406ZM19.8179 18.9922V18.8018H19.2991V18.9922V19.1826H19.8179V18.9922ZM19.2991 18.9922L19.4713 18.9109L18.8288 17.5498L18.6566 17.631L18.4845 17.7123L19.127 19.0735L19.2991 18.9922ZM18.6566 17.631V17.4407H17.7762V17.631V17.8214H18.6566V17.631ZM17.7762 17.631H17.5858V18.9922H17.7762H17.9665V17.631H17.7762ZM17.7762 15.97H17.5858V17.217H17.7762H17.9665V15.97H17.7762ZM17.7762 17.217V17.4073H18.6138V17.217V17.0266H17.7762V17.217ZM18.6138 17.217V17.4073C18.8632 17.4073 19.085 17.3399 19.246 17.1905C19.4089 17.0393 19.4847 16.827 19.4847 16.5887H19.2944H19.104C19.104 16.7455 19.0561 16.8473 18.987 16.9115C18.9159 16.9774 18.7975 17.0266 18.6138 17.0266V17.217ZM19.2944 16.5887H19.4847C19.4847 16.3463 19.4053 16.1352 19.2388 15.9872C19.0757 15.8422 18.8535 15.7797 18.609 15.7797V15.97V16.1604C18.7929 16.1604 18.9134 16.2074 18.9859 16.2718C19.0549 16.3332 19.104 16.4314 19.104 16.5887H19.2944ZM18.609 15.97V15.7797H17.7762V15.97V16.1604H18.609V15.97ZM20.386 15.5512V15.3608H20.1956V15.5512H20.386ZM20.8524 15.5512H21.0428V15.3608H20.8524V15.5512ZM22.5467 15.5512V15.3608H22.3563V15.5512H22.5467ZM23.0179 15.5512H23.2083V15.3608H23.0179V15.5512ZM20.386 17.769H20.5764V15.5512H20.386H20.1956V17.769H20.386ZM20.386 15.5512V15.7416H20.8524V15.5512V15.3608H20.386V15.5512ZM20.8524 15.5512H20.662V17.7405H20.8524H21.0428V15.5512H20.8524ZM20.8524 17.7405H20.662C20.662 18.0506 20.7481 18.3193 20.9382 18.5102C21.1285 18.7012 21.3961 18.7875 21.7043 18.7875V18.5972V18.4068C21.4652 18.4068 21.3069 18.3408 21.208 18.2415C21.109 18.1421 21.0428 17.9824 21.0428 17.7405H20.8524ZM21.7043 18.5972V18.7875C22.0114 18.7875 22.2769 18.6993 22.465 18.5073C22.6525 18.3159 22.7371 18.0478 22.7371 17.7405H22.5467H22.3563C22.3563 17.9805 22.2911 18.1407 22.193 18.2409C22.0955 18.3404 21.9398 18.4068 21.7043 18.4068V18.5972ZM22.5467 17.7405H22.7371V15.5512H22.5467H22.3563V17.7405H22.5467ZM22.5467 15.5512V15.7416H23.0179V15.5512V15.3608H22.5467V15.5512ZM23.0179 15.5512H22.8275V17.769H23.0179H23.2083V15.5512H23.0179ZM23.0179 17.769H22.8275C22.8275 18.1227 22.7156 18.39 22.5317 18.5691C22.3472 18.7487 22.0704 18.8589 21.7043 18.8589V19.0493V19.2397C22.1473 19.2397 22.5273 19.1048 22.7973 18.8418C23.068 18.5783 23.2083 18.2055 23.2083 17.769H23.0179ZM21.7043 19.0493V18.8589C21.3351 18.8589 21.0571 18.7494 20.8724 18.5705C20.6884 18.3923 20.5764 18.1253 20.5764 17.769H20.386H20.1956C20.1956 18.2076 20.3358 18.5808 20.6075 18.844C20.8785 19.1065 21.2597 19.2397 21.7043 19.2397V19.0493ZM23.4602 15.9796H23.2698V16.1699H23.4602V15.9796ZM23.4602 15.5512V15.3608H23.2698V15.5512H23.4602ZM25.9969 15.5512H26.1873V15.3608H25.9969V15.5512ZM25.9969 15.9796V16.1699H26.1873V15.9796H25.9969ZM24.9641 15.9796V15.7892H24.7738V15.9796H24.9641ZM24.9641 18.9922V19.1826H25.1545V18.9922H24.9641ZM24.4977 18.9922H24.3074V19.1826H24.4977V18.9922ZM24.4977 15.9796H24.6881V15.7892H24.4977V15.9796ZM23.4602 15.9796H23.6506V15.5512H23.4602H23.2698V15.9796H23.4602ZM23.4602 15.5512V15.7416H25.9969V15.5512V15.3608H23.4602V15.5512ZM25.9969 15.5512H25.8065V15.9796H25.9969H26.1873V15.5512H25.9969ZM25.9969 15.9796V15.7892H24.9641V15.9796V16.1699H25.9969V15.9796ZM24.9641 15.9796H24.7738V18.9922H24.9641H25.1545V15.9796H24.9641ZM24.9641 18.9922V18.8018H24.4977V18.9922V19.1826H24.9641V18.9922ZM24.4977 18.9922H24.6881V15.9796H24.4977H24.3074V18.9922H24.4977ZM24.4977 15.9796V15.7892H23.4602V15.9796V16.1699H24.4977V15.9796ZM26.9322 18.9922V19.1826H27.1226V18.9922H26.9322ZM26.4658 18.9922H26.2754V19.1826H26.4658V18.9922ZM26.4658 15.5512V15.3608H26.2754V15.5512H26.4658ZM26.9322 15.5512H27.1226V15.3608H26.9322V15.5512ZM26.9322 17.0314H26.7419V17.2217H26.9322V17.0314ZM28.6361 17.0314V17.2217H28.8264V17.0314H28.6361ZM28.6361 15.5512V15.3608H28.4457V15.5512H28.6361ZM29.1025 15.5512H29.2928V15.3608H29.1025V15.5512ZM29.1025 18.9922V19.1826H29.2928V18.9922H29.1025ZM28.6361 18.9922H28.4457V19.1826H28.6361V18.9922ZM28.6361 17.4645H28.8264V17.2741H28.6361V17.4645ZM26.9322 17.4645V17.2741H26.7419V17.4645H26.9322ZM26.9322 18.9922V18.8018H26.4658V18.9922V19.1826H26.9322V18.9922ZM26.4658 18.9922H26.6562V15.5512H26.4658H26.2754V18.9922H26.4658ZM26.4658 15.5512V15.7416H26.9322V15.5512V15.3608H26.4658V15.5512ZM26.9322 15.5512H26.7419V17.0314H26.9322H27.1226V15.5512H26.9322ZM26.9322 17.0314V17.2217H28.6361V17.0314V16.841H26.9322V17.0314ZM28.6361 17.0314H28.8264V15.5512H28.6361H28.4457V17.0314H28.6361ZM28.6361 15.5512V15.7416H29.1025V15.5512V15.3608H28.6361V15.5512ZM29.1025 15.5512H28.9121V18.9922H29.1025H29.2928V15.5512H29.1025ZM29.1025 18.9922V18.8018H28.6361V18.9922V19.1826H29.1025V18.9922ZM28.6361 18.9922H28.8264V17.4645H28.6361H28.4457V18.9922H28.6361ZM28.6361 17.4645V17.2741H26.9322V17.4645V17.6548H28.6361V17.4645ZM26.9322 17.4645H26.7419V18.9922H26.9322H27.1226V17.4645H26.9322ZM15.1539 23.2693H14.9635C14.9635 23.751 14.8063 24.1476 14.5501 24.422C14.2947 24.6955 13.9308 24.8589 13.4929 24.8589V25.0493V25.2397C14.0306 25.2397 14.4972 25.0366 14.8284 24.6819C15.1587 24.3281 15.3442 23.8347 15.3442 23.2693H15.1539ZM13.4929 25.0493V24.8589C13.0577 24.8589 12.6977 24.6959 12.4452 24.4227C12.1918 24.1485 12.0365 23.7518 12.0365 23.2693H11.8462H11.6558C11.6558 23.8339 11.8385 24.3272 12.1656 24.6812C12.4938 25.0363 12.9571 25.2397 13.4929 25.2397V25.0493ZM11.8462 23.2693H12.0365C12.0365 22.7898 12.1926 22.393 12.4475 22.1178C12.7013 21.8438 13.0628 21.6797 13.4976 21.6797V21.4893V21.299C12.9616 21.299 12.4973 21.5038 12.1681 21.8591C11.84 22.2134 11.6558 22.7066 11.6558 23.2693H11.8462ZM13.4976 21.4893V21.6797C13.9355 21.6797 14.2981 21.843 14.5522 22.1163C14.8073 22.3906 14.9635 22.7873 14.9635 23.2693H15.1539H15.3442C15.3442 22.7043 15.1602 22.211 14.831 21.857C14.501 21.5021 14.0354 21.299 13.4976 21.299V21.4893ZM14.6637 23.2693H14.854C14.854 22.8333 14.7266 22.4534 14.486 22.1798C14.2434 21.904 13.8984 21.7511 13.4976 21.7511V21.9415V22.1318C13.7965 22.1318 14.0345 22.2431 14.2001 22.4313C14.3675 22.6217 14.4733 22.9058 14.4733 23.2693H14.6637ZM13.4976 21.9415V21.7511C13.0967 21.7511 12.7528 21.9041 12.5113 22.1803C12.272 22.454 12.146 22.8337 12.146 23.2693H12.3364H12.5267C12.5267 22.9053 12.6316 22.6212 12.798 22.4309C12.9622 22.243 13.1989 22.1318 13.4976 22.1318V21.9415ZM12.3364 23.2693H12.146C12.146 23.7049 12.2719 24.0856 12.511 24.3604C12.7522 24.6377 13.0962 24.7923 13.4976 24.7923V24.6019V24.4116C13.1995 24.4116 12.9628 24.2996 12.7983 24.1105C12.6316 23.9189 12.5267 23.6333 12.5267 23.2693H12.3364ZM13.4976 24.6019V24.7923C13.8995 24.7923 14.2444 24.6362 14.4864 24.3589C14.7265 24.0838 14.854 23.7032 14.854 23.2693H14.6637H14.4733C14.4733 23.6302 14.3676 23.916 14.1996 24.1085C14.0335 24.2987 13.7954 24.4116 13.4976 24.4116V24.6019ZM16.2168 24.9922V25.1826H16.4072V24.9922H16.2168ZM15.7504 24.9922H15.56V25.1826H15.7504V24.9922ZM15.7504 21.5512V21.3608H15.56V21.5512H15.7504ZM17.559 23.5406L17.5006 23.3594L17.2926 23.4264L17.3875 23.6233L17.559 23.5406ZM18.2586 24.9922V25.1826H18.5617L18.4301 24.9095L18.2586 24.9922ZM17.7398 24.9922L17.5677 25.0735L17.6192 25.1826H17.7398V24.9922ZM17.0973 23.631L17.2695 23.5498L17.218 23.4407H17.0973V23.631ZM16.2168 23.631V23.4407H16.0265V23.631H16.2168ZM16.2168 21.97V21.7797H16.0265V21.97H16.2168ZM16.2168 23.217H16.0265V23.4073H16.2168V23.217ZM16.2168 24.9922V24.8018H15.7504V24.9922V25.1826H16.2168V24.9922ZM15.7504 24.9922H15.9408V21.5512H15.7504H15.56V24.9922H15.7504ZM15.7504 21.5512V21.7416H17.0497V21.5512V21.3608H15.7504V21.5512ZM17.0497 21.5512V21.7416C17.3866 21.7416 17.6308 21.8306 17.7882 21.9694C17.9426 22.1056 18.0349 22.3083 18.0349 22.584H18.2253H18.4156C18.4156 22.2171 18.289 21.9035 18.04 21.6839C17.7941 21.467 17.4505 21.3608 17.0497 21.3608V21.5512ZM18.2253 22.584H18.0349C18.0349 22.79 17.9837 22.955 17.8965 23.0803C17.8098 23.2048 17.6795 23.3018 17.5006 23.3594L17.559 23.5406L17.6173 23.7218C17.8668 23.6414 18.0696 23.498 18.209 23.2978C18.3479 23.0982 18.4156 22.8539 18.4156 22.584H18.2253ZM17.559 23.5406L17.3875 23.6233L18.0871 25.0748L18.2586 24.9922L18.4301 24.9095L17.7304 23.4579L17.559 23.5406ZM18.2586 24.9922V24.8018H17.7398V24.9922V25.1826H18.2586V24.9922ZM17.7398 24.9922L17.912 24.9109L17.2695 23.5498L17.0973 23.631L16.9251 23.7123L17.5677 25.0735L17.7398 24.9922ZM17.0973 23.631V23.4407H16.2168V23.631V23.8214H17.0973V23.631ZM16.2168 23.631H16.0265V24.9922H16.2168H16.4072V23.631H16.2168ZM16.2168 21.97H16.0265V23.217H16.2168H16.4072V21.97H16.2168ZM16.2168 23.217V23.4073H17.0545V23.217V23.0266H16.2168V23.217ZM17.0545 23.217V23.4073C17.3038 23.4073 17.5257 23.3399 17.6867 23.1905C17.8496 23.0393 17.9254 22.827 17.9254 22.5887H17.735H17.5447C17.5447 22.7455 17.4968 22.8473 17.4277 22.9115C17.3566 22.9774 17.2382 23.0266 17.0545 23.0266V23.217ZM17.735 22.5887H17.9254C17.9254 22.3463 17.846 22.1352 17.6795 21.9872C17.5163 21.8422 17.2942 21.7797 17.0497 21.7797V21.97V22.1604C17.2335 22.1604 17.3541 22.2074 17.4265 22.2718C17.4956 22.3332 17.5447 22.4314 17.5447 22.5887H17.735ZM17.0497 21.97V21.7797H16.2168V21.97V22.1604H17.0497V21.97ZM20.1658 24.9922H19.9754V25.1826H20.1658V24.9922ZM20.1658 21.5512V21.3608H19.9754V21.5512H20.1658ZM20.6322 21.9796V21.7892H20.4418V21.9796H20.6322ZM20.6322 24.5591H20.4418V24.7495H20.6322V24.5591ZM21.3033 24.9922V24.8018H20.1658V24.9922V25.1826H21.3033V24.9922ZM20.1658 24.9922H20.3562V21.5512H20.1658H19.9754V24.9922H20.1658ZM20.1658 21.5512V21.7416H21.2842V21.5512V21.3608H20.1658V21.5512ZM21.2842 21.5512V21.7416C21.7543 21.7416 22.1344 21.8996 22.3965 22.1618C22.6587 22.4239 22.8167 22.804 22.8167 23.2741H23.0071H23.1975C23.1975 22.7162 23.0081 22.2348 22.6658 21.8925C22.3235 21.5502 21.8422 21.3608 21.2842 21.3608V21.5512ZM23.0071 23.2741H22.8167C22.8167 23.7423 22.6607 24.1215 22.4018 24.3829C22.1432 24.6442 21.768 24.8018 21.3033 24.8018V24.9922V25.1826C21.857 25.1826 22.3338 24.9928 22.6724 24.6508C23.0108 24.309 23.1975 23.8291 23.1975 23.2741H23.0071ZM21.2509 21.9796V21.7892H20.6322V21.9796V22.1699H21.2509V21.9796ZM20.6322 21.9796H20.4418V24.5591H20.6322H20.8226V21.9796H20.6322ZM20.6322 24.5591V24.7495H21.2699V24.5591V24.3687H20.6322V24.5591ZM21.2699 24.5591V24.7495C21.695 24.7495 22.0604 24.6112 22.3194 24.3458C22.5779 24.0809 22.712 23.7083 22.712 23.2741H22.5216H22.3313C22.3313 23.6299 22.2226 23.8998 22.0469 24.0799C21.8716 24.2595 21.6111 24.3687 21.2699 24.3687V24.5591ZM22.5216 23.2741H22.712C22.712 22.8357 22.5782 22.4602 22.3166 22.1936C22.0546 21.9267 21.6842 21.7892 21.2509 21.7892V21.9796V22.1699C21.6029 22.1699 21.8679 22.2799 22.0449 22.4603C22.2223 22.6411 22.3313 22.9129 22.3313 23.2741H22.5216ZM23.5899 24.9922V25.1826H23.7242L23.7693 25.056L23.5899 24.9922ZM23.1044 24.9922L22.9256 24.9269L22.8323 25.1826H23.1044V24.9922ZM24.3609 21.5512V21.3608H24.2277L24.1821 21.4859L24.3609 21.5512ZM24.8797 21.5512L25.0584 21.4857L25.0126 21.3608H24.8797V21.5512ZM26.1409 24.9922V25.1826H26.4134L26.3196 24.9267L26.1409 24.9922ZM25.6507 24.9922L25.4716 25.0568L25.517 25.1826H25.6507V24.9922ZM25.3413 24.1355L25.5204 24.0709L25.475 23.9451H25.3413V24.1355ZM23.8945 24.1355V23.9451H23.7601L23.7151 24.0717L23.8945 24.1355ZM24.5608 22.2937L24.7397 22.3588L24.7414 22.3539L24.5608 22.2937ZM24.0373 23.731L23.8584 23.6658L23.7653 23.9213H24.0373V23.731ZM25.2033 23.731V23.9213H25.4761L25.382 23.6653L25.2033 23.731ZM24.675 22.2937L24.4957 22.3577L24.4963 22.3593L24.675 22.2937ZM24.6179 22.0938L24.8052 22.0597L24.4312 22.0564L24.6179 22.0938ZM23.5899 24.9922V24.8018H23.1044V24.9922V25.1826H23.5899V24.9922ZM23.1044 24.9922L23.2833 25.0575L24.5397 21.6165L24.3609 21.5512L24.1821 21.4859L22.9256 24.9269L23.1044 24.9922ZM24.3609 21.5512V21.7416H24.8797V21.5512V21.3608H24.3609V21.5512ZM24.8797 21.5512L24.7009 21.6167L25.9621 25.0577L26.1409 24.9922L26.3196 24.9267L25.0584 21.4857L24.8797 21.5512ZM26.1409 24.9922V24.8018H25.6507V24.9922V25.1826H26.1409V24.9922ZM25.6507 24.9922L25.8297 24.9275L25.5204 24.0709L25.3413 24.1355L25.1622 24.2002L25.4716 25.0568L25.6507 24.9922ZM25.3413 24.1355V23.9451H23.8945V24.1355V24.3259H25.3413V24.1355ZM23.8945 24.1355L23.7151 24.0717L23.4105 24.9284L23.5899 24.9922L23.7693 25.056L24.0738 24.1993L23.8945 24.1355ZM24.5608 22.2937L24.3819 22.2285L23.8584 23.6658L24.0373 23.731L24.2161 23.7961L24.7397 22.3588L24.5608 22.2937ZM24.0373 23.731V23.9213H25.2033V23.731V23.5406H24.0373V23.731ZM25.2033 23.731L25.382 23.6653L24.8537 22.228L24.675 22.2937L24.4963 22.3593L25.0246 23.7966L25.2033 23.731ZM24.675 22.2937L24.8543 22.2296C24.8321 22.1676 24.8121 22.0977 24.8052 22.0597L24.6179 22.0938L24.4306 22.1278C24.4427 22.1946 24.4703 22.2864 24.4957 22.3577L24.675 22.2937ZM24.6179 22.0938L24.4312 22.0564C24.4241 22.0919 24.4034 22.1637 24.3802 22.2335L24.5608 22.2937L24.7414 22.3539C24.7657 22.2809 24.7926 22.1908 24.8046 22.1311L24.6179 22.0938ZM27.0647 24.9922V25.1826H27.2551V24.9922H27.0647ZM26.5983 24.9922H26.4079V25.1826H26.5983V24.9922ZM26.5983 21.5512V21.3608H26.4079V21.5512H26.5983ZM28.4068 23.5406L28.3484 23.3594L28.1404 23.4264L28.2353 23.6233L28.4068 23.5406ZM29.1064 24.9922V25.1826H29.4095L29.2779 24.9095L29.1064 24.9922ZM28.5877 24.9922L28.4155 25.0735L28.467 25.1826H28.5877V24.9922ZM27.9452 23.631L28.1173 23.5498L28.0658 23.4407H27.9452V23.631ZM27.0647 23.631V23.4407H26.8743V23.631H27.0647ZM27.0647 21.97V21.7797H26.8743V21.97H27.0647ZM27.0647 23.217H26.8743V23.4073H27.0647V23.217ZM27.0647 24.9922V24.8018H26.5983V24.9922V25.1826H27.0647V24.9922ZM26.5983 24.9922H26.7887V21.5512H26.5983H26.4079V24.9922H26.5983ZM26.5983 21.5512V21.7416H27.8976V21.5512V21.3608H26.5983V21.5512ZM27.8976 21.5512V21.7416C28.2345 21.7416 28.4786 21.8306 28.636 21.9694C28.7904 22.1056 28.8827 22.3083 28.8827 22.584H29.0731H29.2635C29.2635 22.2171 29.1369 21.9035 28.8879 21.6839C28.642 21.467 28.2984 21.3608 27.8976 21.3608V21.5512ZM29.0731 22.584H28.8827C28.8827 22.79 28.8315 22.955 28.7443 23.0803C28.6576 23.2048 28.5273 23.3018 28.3484 23.3594L28.4068 23.5406L28.4652 23.7218C28.7146 23.6414 28.9175 23.498 29.0568 23.2978C29.1957 23.0982 29.2635 22.8539 29.2635 22.584H29.0731ZM28.4068 23.5406L28.2353 23.6233L28.9349 25.0748L29.1064 24.9922L29.2779 24.9095L28.5783 23.4579L28.4068 23.5406ZM29.1064 24.9922V24.8018H28.5877V24.9922V25.1826H29.1064V24.9922ZM28.5877 24.9922L28.7598 24.9109L28.1173 23.5498L27.9452 23.631L27.773 23.7123L28.4155 25.0735L28.5877 24.9922ZM27.9452 23.631V23.4407H27.0647V23.631V23.8214H27.9452V23.631ZM27.0647 23.631H26.8743V24.9922H27.0647H27.2551V23.631H27.0647ZM27.0647 21.97H26.8743V23.217H27.0647H27.2551V21.97H27.0647ZM27.0647 23.217V23.4073H27.9023V23.217V23.0266H27.0647V23.217ZM27.9023 23.217V23.4073C28.1517 23.4073 28.3736 23.3399 28.5345 23.1905C28.6975 23.0393 28.7733 22.827 28.7733 22.5887H28.5829H28.3925C28.3925 22.7455 28.3446 22.8473 28.2755 22.9115C28.2045 22.9774 28.0861 23.0266 27.9023 23.0266V23.217ZM28.5829 22.5887H28.7733C28.7733 22.3463 28.6938 22.1352 28.5273 21.9872C28.3642 21.8422 28.1421 21.7797 27.8976 21.7797V21.97V22.1604C28.0814 22.1604 28.202 22.2074 28.2744 22.2718C28.3435 22.3332 28.3925 22.4314 28.3925 22.5887H28.5829ZM27.8976 21.97V21.7797H27.0647V21.97V22.1604H27.8976V21.97ZM31.8111 24.9922V25.1826H32.0015V24.9922H31.8111ZM29.7123 24.9922H29.5219V25.1826H29.7123V24.9922ZM29.7123 21.5512V21.3608H29.5219V21.5512H29.7123ZM31.8111 21.5512H32.0015V21.3608H31.8111V21.5512ZM31.8111 21.9796V22.1699H32.0015V21.9796H31.8111ZM30.1787 21.9796V21.7892H29.9883V21.9796H30.1787ZM30.1787 23.0552H29.9883V23.2455H30.1787V23.0552ZM31.6493 23.0552H31.8397V22.8648H31.6493V23.0552ZM31.6493 23.4692V23.6596H31.8397V23.4692H31.6493ZM30.1787 23.4692V23.2788H29.9883V23.4692H30.1787ZM30.1787 24.5591H29.9883V24.7495H30.1787V24.5591ZM31.8111 24.5591H32.0015V24.3687H31.8111V24.5591ZM31.8111 24.9922V24.8018H29.7123V24.9922V25.1826H31.8111V24.9922ZM29.7123 24.9922H29.9026V21.5512H29.7123H29.5219V24.9922H29.7123ZM29.7123 21.5512V21.7416H31.8111V21.5512V21.3608H29.7123V21.5512ZM31.8111 21.5512H31.6208V21.9796H31.8111H32.0015V21.5512H31.8111ZM31.8111 21.9796V21.7892H30.1787V21.9796V22.1699H31.8111V21.9796ZM30.1787 21.9796H29.9883V23.0552H30.1787H30.3691V21.9796H30.1787ZM30.1787 23.0552V23.2455H31.6493V23.0552V22.8648H30.1787V23.0552ZM31.6493 23.0552H31.4589V23.4692H31.6493H31.8397V23.0552H31.6493ZM31.6493 23.4692V23.2788H30.1787V23.4692V23.6596H31.6493V23.4692ZM30.1787 23.4692H29.9883V24.5591H30.1787H30.3691V23.4692H30.1787ZM30.1787 24.5591V24.7495H31.8111V24.5591V24.3687H30.1787V24.5591ZM31.8111 24.5591H31.6208V24.9922H31.8111H32.0015V24.5591H31.8111Z" fill="black" mask="url(#path-26-outside-2_1091_375)"/>
<path d="M14.8827 28.4666H14.2339V29.168H14.01V27.5163H15.006V27.7219H14.2339V28.2633H14.8827V28.4666ZM16.7666 28.341C16.7666 28.8436 16.4377 29.1954 15.9694 29.1954C15.5033 29.1954 15.1789 28.8436 15.1789 28.341C15.1789 27.8407 15.5056 27.4866 15.9717 27.4866C16.44 27.4866 16.7666 27.8384 16.7666 28.341ZM16.5313 28.341C16.5313 27.9572 16.3075 27.7036 15.9717 27.7036C15.6358 27.7036 15.4142 27.9572 15.4142 28.341C15.4142 28.7248 15.6358 28.9806 15.9717 28.9806C16.3075 28.9806 16.5313 28.7225 16.5313 28.341ZM17.2769 29.168H17.053V27.5163H17.6767C18.0307 27.5163 18.2409 27.7036 18.2409 28.012C18.2409 28.2405 18.1267 28.405 17.9211 28.4712L18.2569 29.168H18.0079L17.6995 28.5146H17.2769V29.168ZM17.2769 27.7173V28.3159H17.6789C17.8868 28.3159 18.0056 28.2039 18.0056 28.0143C18.0056 27.8224 17.8823 27.7173 17.6767 27.7173H17.2769ZM19.8577 29.1931C19.3871 29.1931 19.0741 28.855 19.0741 28.3433C19.0741 27.8338 19.3962 27.4889 19.8691 27.4889C20.2415 27.4889 20.5271 27.7105 20.5887 28.0486H20.3489C20.2872 27.8338 20.1021 27.7036 19.8623 27.7036C19.5287 27.7036 19.3094 27.9549 19.3094 28.341C19.3094 28.7271 19.5287 28.9784 19.8623 28.9784C20.1044 28.9784 20.2963 28.8481 20.358 28.6448H20.5956C20.5248 28.9738 20.2301 29.1931 19.8577 29.1931ZM22.3596 28.341C22.3596 28.8436 22.0306 29.1954 21.5623 29.1954C21.0963 29.1954 20.7719 28.8436 20.7719 28.341C20.7719 27.8407 21.0985 27.4866 21.5646 27.4866C22.0329 27.4866 22.3596 27.8384 22.3596 28.341ZM22.1243 28.341C22.1243 27.9572 21.9004 27.7036 21.5646 27.7036C21.2288 27.7036 21.0072 27.9572 21.0072 28.341C21.0072 28.7248 21.2288 28.9806 21.5646 28.9806C21.9004 28.9806 22.1243 28.7225 22.1243 28.341ZM22.6345 28.5809V27.5163H22.8584V28.5672C22.8584 28.8322 23.0046 28.9784 23.2673 28.9784C23.5277 28.9784 23.6716 28.8299 23.6716 28.5672V27.5163H23.8978V28.5809C23.8978 28.9601 23.6556 29.1954 23.2673 29.1954C22.8766 29.1954 22.6345 28.9624 22.6345 28.5809ZM24.912 28.5786H24.4939V29.168H24.27V27.5163H24.912C25.2364 27.5163 25.4442 27.7288 25.4442 28.0463C25.4442 28.3547 25.2341 28.5786 24.912 28.5786ZM24.8731 27.7173H24.4939V28.3775H24.864C25.0856 28.3775 25.2089 28.2473 25.2089 28.044C25.2089 27.8361 25.0833 27.7173 24.8731 27.7173ZM25.9217 27.5163V28.9601H26.6482V29.168H25.6978V27.5163H25.9217ZM27.8988 29.168H26.8914V27.5163H27.8988V27.7219H27.1152V28.2382H27.8211V28.4369H27.1152V28.9601H27.8988V29.168ZM28.1273 27.9618C28.1273 27.6785 28.3557 27.4866 28.6961 27.4866C29.0114 27.4866 29.2147 27.6625 29.233 27.9481H29.0068C28.9954 27.7836 28.8789 27.6876 28.6938 27.6876C28.4859 27.6876 28.3511 27.7927 28.3511 27.9549C28.3511 28.0874 28.4265 28.1674 28.5819 28.2039L28.8537 28.2679C29.1233 28.3296 29.2604 28.4758 29.2604 28.7088C29.2604 29.0058 29.0296 29.1954 28.6778 29.1954C28.342 29.1954 28.1181 29.0195 28.1044 28.7362H28.3329C28.3374 28.8938 28.4699 28.9943 28.6778 28.9943C28.8971 28.9943 29.0365 28.8915 29.0365 28.7271C29.0365 28.5969 28.9657 28.5146 28.808 28.4781L28.5362 28.4164C28.2666 28.3547 28.1273 28.1994 28.1273 27.9618Z" fill="#181B25"/>
</g>
<defs>
<clipPath id="clip0_1091_375">
<rect width="43.2144" height="43.5" rx="1.90372" fill="white"/>
</clipPath>
<clipPath id="clip1_1091_375">
<rect width="43.2144" height="8.28118" fill="white" transform="translate(0 35.2188)"/>
</clipPath>
<clipPath id="clip2_1091_375">
<rect width="3.04595" height="3.04595" fill="white" transform="translate(2.47461 39.0273)"/>
</clipPath>
<clipPath id="clip3_1091_375">
<rect width="3.04595" height="3.04595" fill="white" transform="matrix(1 0 0 -1 5.99609 42.0742)"/>
</clipPath>
<clipPath id="clip4_1091_375">
<rect width="3.04595" height="3.04595" fill="white" transform="translate(9.51758 39.0273)"/>
</clipPath>
<clipPath id="clip5_1091_375">
<rect width="3.04595" height="3.04595" fill="white" transform="matrix(1 0 0 -1 13.041 42.0742)"/>
</clipPath>
<clipPath id="clip6_1091_375">
<rect width="3.04595" height="3.04595" fill="white" transform="translate(16.5625 39.0273)"/>
</clipPath>
<clipPath id="clip7_1091_375">
<rect width="3.04595" height="3.04595" fill="white" transform="matrix(1 0 0 -1 20.084 42.0742)"/>
</clipPath>
<clipPath id="clip8_1091_375">
<rect width="3.04595" height="3.04595" fill="white" transform="translate(23.6055 39.0273)"/>
</clipPath>
<clipPath id="clip9_1091_375">
<rect width="3.04595" height="3.04595" fill="white" transform="matrix(1 0 0 -1 27.127 42.0742)"/>
</clipPath>
<clipPath id="clip10_1091_375">
<rect width="3.04595" height="3.04595" fill="white" transform="translate(30.6504 39.0273)"/>
</clipPath>
<clipPath id="clip11_1091_375">
<rect width="3.04595" height="3.04595" fill="white" transform="matrix(1 0 0 -1 34.1719 42.0742)"/>
</clipPath>
<clipPath id="clip12_1091_375">
<rect width="3.04595" height="3.04595" fill="white" transform="translate(37.6934 39.0273)"/>
</clipPath>
<clipPath id="clip13_1091_375">
<rect width="43.2144" height="8.28118" fill="white"/>
</clipPath>
<clipPath id="clip14_1091_375">
<rect width="3.04595" height="3.04595" fill="white" transform="translate(2.47461 1.42773)"/>
</clipPath>
<clipPath id="clip15_1091_375">
<rect width="3.04595" height="3.04595" fill="white" transform="matrix(1 0 0 -1 5.99609 4.47266)"/>
</clipPath>
<clipPath id="clip16_1091_375">
<rect width="3.04595" height="3.04595" fill="white" transform="translate(9.51758 1.42773)"/>
</clipPath>
<clipPath id="clip17_1091_375">
<rect width="3.04595" height="3.04595" fill="white" transform="matrix(1 0 0 -1 13.041 4.47266)"/>
</clipPath>
<clipPath id="clip18_1091_375">
<rect width="3.04595" height="3.04595" fill="white" transform="translate(16.5625 1.42773)"/>
</clipPath>
<clipPath id="clip19_1091_375">
<rect width="3.04595" height="3.04595" fill="white" transform="matrix(1 0 0 -1 20.084 4.47266)"/>
</clipPath>
<clipPath id="clip20_1091_375">
<rect width="3.04595" height="3.04595" fill="white" transform="translate(23.6055 1.42773)"/>
</clipPath>
<clipPath id="clip21_1091_375">
<rect width="3.04595" height="3.04595" fill="white" transform="matrix(1 0 0 -1 27.127 4.47461)"/>
</clipPath>
<clipPath id="clip22_1091_375">
<rect width="3.04595" height="3.04595" fill="white" transform="translate(30.6504 1.42773)"/>
</clipPath>
<clipPath id="clip23_1091_375">
<rect width="3.04595" height="3.04595" fill="white" transform="matrix(1 0 0 -1 34.1719 4.47461)"/>
</clipPath>
<clipPath id="clip24_1091_375">
<rect width="3.04595" height="3.04595" fill="white" transform="translate(37.6934 1.42773)"/>
</clipPath>
</defs>
</svg>
