<svg width="27" height="33" viewBox="0 0 27 33" fill="none" xmlns="http://www.w3.org/2000/svg">
<rect width="26.0576" height="32.625" rx="0.847403" fill="#FFECD1"/>
<path d="M7.02972 8.02429V9.46587H6.09294V11.7617H4.47662V9.46587H3.53498V8.02429H7.02972ZM10.5031 11.7617H8.93048L8.88194 11.3152H8.1927L8.14417 11.7617H6.57153L7.53259 8.02429H9.54206L10.5031 11.7617ZM8.40627 9.40762L8.35288 9.87359H8.72177L8.66838 9.40762H8.40627ZM12.0933 11.7617L10.608 11.7569V8.02429H12.137L12.1176 8.864L12.0739 9.40277H12.1176L12.5301 8.02429H14.1028L13.3019 9.73283L14.1901 11.7617H12.4865L12.1176 10.3832H12.0739L12.0933 11.7617ZM15.9053 10.2959V10.4949H17.3906V11.7617H14.3764V8.02429H17.3032V9.1164H15.9053V9.3154H17.1722V10.2959H15.9053ZM22.6566 11.7617H21.084L21.0354 11.3152H20.3462L20.2976 11.7617H18.725L19.6861 8.02429H21.6955L22.6566 11.7617ZM20.5597 9.40762L20.5064 9.87359H20.8752L20.8218 9.40762H20.5597ZM8.73777 16.6843C8.56627 16.5807 8.38344 16.5047 8.18929 16.4562C7.99514 16.4044 7.76216 16.3688 7.49034 16.3494C7.46769 16.3461 7.44504 16.3445 7.42239 16.3445C7.40297 16.3413 7.38356 16.3397 7.36414 16.3397C7.29619 16.3397 7.26221 16.3672 7.26221 16.4222C7.26221 16.4545 7.28001 16.4772 7.31561 16.4901C7.35444 16.4998 7.40621 16.5079 7.47093 16.5144C7.59713 16.5306 7.7298 16.55 7.86894 16.5727C8.00808 16.5921 8.14399 16.6228 8.27666 16.6649C8.40933 16.7069 8.52906 16.7684 8.63584 16.8493C8.74586 16.9302 8.83161 17.037 8.89309 17.1697C8.95781 17.3023 8.99017 17.469 8.99017 17.6696C8.99017 17.8929 8.93839 18.0806 8.83485 18.2327C8.7313 18.3815 8.59054 18.5012 8.41257 18.5918C8.23783 18.6792 8.0372 18.7423 7.81069 18.7811C7.58742 18.82 7.35605 18.8394 7.1166 18.8394C6.83831 18.8426 6.56165 18.8264 6.2866 18.7908C6.01479 18.7585 5.77371 18.7164 5.56338 18.6646L5.69929 16.9561C5.77371 17.0111 5.8627 17.071 5.96625 17.1357C6.0698 17.1972 6.21056 17.2538 6.38853 17.3056C6.5665 17.3574 6.8011 17.3978 7.09233 17.4269C7.10851 17.4302 7.12307 17.4318 7.13601 17.4318C7.15219 17.4318 7.16676 17.4318 7.1797 17.4318C7.21529 17.4318 7.24118 17.4269 7.25736 17.4172C7.27678 17.4075 7.28648 17.3865 7.28648 17.3541C7.28648 17.3185 7.2703 17.2959 7.23794 17.2862C7.20882 17.2765 7.1619 17.2667 7.09718 17.257C6.92245 17.2376 6.74771 17.2101 6.57297 17.1745C6.40147 17.1389 6.24453 17.0839 6.10215 17.0095C5.95978 16.9351 5.8449 16.8315 5.75753 16.6989C5.6734 16.5662 5.63134 16.3931 5.63134 16.1795C5.63134 15.8753 5.70252 15.6343 5.8449 15.4563C5.99052 15.2751 6.18629 15.1456 6.43221 15.068C6.67814 14.9871 6.95319 14.9466 7.25736 14.9466C7.51299 14.9466 7.77995 14.9709 8.05824 15.0194C8.33652 15.0647 8.61157 15.1278 8.88338 15.2087L8.73777 16.6843ZM10.6818 18.7666L9.15285 18.7617V15.0243H10.6818V18.7666ZM12.4498 18.7617H10.9209V15.0243H13.1876C13.3947 15.0243 13.584 15.0647 13.7555 15.1456C13.9302 15.2233 14.0694 15.3608 14.1729 15.5582C14.2765 15.7524 14.3283 16.0226 14.3283 16.3688C14.3283 16.7086 14.2749 16.9788 14.1681 17.1794C14.0613 17.3768 13.9205 17.5191 13.7458 17.6065C13.5743 17.6906 13.3882 17.7327 13.1876 17.7327H12.4498V18.7617ZM12.8284 16.2523H12.3625V16.5144H12.843C12.8689 16.5144 12.8964 16.5063 12.9255 16.4901C12.9579 16.474 12.974 16.44 12.974 16.3882C12.974 16.3332 12.9562 16.2976 12.9207 16.2814C12.8851 16.262 12.8543 16.2523 12.8284 16.2523ZM17.3084 18.7666L15.7794 18.7617V15.0243H17.3084V18.7666ZM20.518 15.0243V16.2135H19.0764V16.4125H20.4743V17.4706H19.0764V18.7617H17.5475V15.0243H20.518ZM12.2439 25.0239V25.4122C12.2439 25.5352 12.1938 25.6404 12.0935 25.7277C11.9931 25.8151 11.833 25.8588 11.6129 25.8588C11.3961 25.8588 11.236 25.8135 11.1324 25.7229C11.0289 25.6323 10.9771 25.5255 10.9771 25.4025V25.0191C10.9771 24.8961 11.0289 24.7893 11.1324 24.6987C11.236 24.6081 11.3961 24.5628 11.6129 24.5628C11.833 24.5628 11.9931 24.6065 12.0935 24.6939C12.1938 24.7813 12.2439 24.8913 12.2439 25.0239ZM13.6849 25.0239V25.4122C13.6849 25.5352 13.6347 25.6404 13.5344 25.7277C13.4341 25.8151 13.2739 25.8588 13.0539 25.8588C12.8371 25.8588 12.6769 25.8135 12.5734 25.7229C12.4698 25.6323 12.4181 25.5255 12.4181 25.4025V25.0191C12.4181 24.8961 12.4698 24.7893 12.5734 24.6987C12.6769 24.6081 12.8371 24.5628 13.0539 24.5628C13.2739 24.5628 13.4341 24.6065 13.5344 24.6939C13.6347 24.7813 13.6849 24.8913 13.6849 25.0239ZM15.1259 25.0239V25.4122C15.1259 25.5352 15.0757 25.6404 14.9754 25.7277C14.8751 25.8151 14.7149 25.8588 14.4949 25.8588C14.2781 25.8588 14.1179 25.8135 14.0143 25.7229C13.9108 25.6323 13.859 25.5255 13.859 25.4025V25.0191C13.859 24.8961 13.9108 24.7893 14.0143 24.6987C14.1179 24.6081 14.2781 24.5628 14.4949 24.5628C14.7149 24.5628 14.8751 24.6065 14.9754 24.6939C15.0757 24.7813 15.1259 24.8913 15.1259 25.0239Z" fill="#EB5E28"/>
</svg>
