<svg width="35" height="44" viewBox="0 0 35 44" fill="none" xmlns="http://www.w3.org/2000/svg">
<rect width="34.7435" height="43.5" rx="1.12987" fill="#FFECD1"/>
<path d="M9.37297 9.6984V11.6205H8.12392V14.6816H5.96883V11.6205H4.71331V9.6984H9.37297ZM14.0042 14.6816H11.9073L11.8426 14.0862H10.9236L10.8589 14.6816H8.76204L10.0434 9.6984H12.7227L14.0042 14.6816ZM11.2084 11.5428L11.1372 12.1641H11.629L11.5578 11.5428H11.2084ZM16.1244 14.6816L14.1441 14.6752V9.6984H16.1827L16.1568 10.818L16.0985 11.5364H16.1568L16.7069 9.6984H18.8037L17.7359 11.9765L18.9202 14.6816H16.6486L16.1568 12.8437H16.0985L16.1244 14.6816ZM21.2071 12.7272V12.9925H23.1874V14.6816H19.1685V9.6984H23.071V11.1545H21.2071V11.4199H22.8962V12.7272H21.2071ZM30.2088 14.6816H28.1119L28.0472 14.0862H27.1282L27.0635 14.6816H24.9667L26.2481 9.6984H28.9274L30.2088 14.6816ZM27.413 11.5428L27.3418 12.1641H27.8337L27.7625 11.5428H27.413ZM11.6504 20.9117C11.4217 20.7737 11.1779 20.6723 10.9191 20.6076C10.6602 20.5385 10.3495 20.4911 9.98712 20.4652C9.95692 20.4609 9.92672 20.4587 9.89652 20.4587C9.87063 20.4544 9.84475 20.4522 9.81886 20.4522C9.72825 20.4522 9.68295 20.4889 9.68295 20.5623C9.68295 20.6054 9.70668 20.6356 9.75414 20.6529C9.80592 20.6658 9.87495 20.6766 9.96124 20.6852C10.1295 20.7068 10.3064 20.7327 10.4919 20.7629C10.6774 20.7888 10.8587 20.8298 11.0355 20.8858C11.2124 20.9419 11.3721 21.0239 11.5145 21.1318C11.6611 21.2396 11.7755 21.382 11.8575 21.5589C11.9437 21.7358 11.9869 21.958 11.9869 22.2255C11.9869 22.5232 11.9179 22.7734 11.7798 22.9762C11.6417 23.1747 11.4541 23.3343 11.2168 23.4551C10.9838 23.5716 10.7163 23.6558 10.4143 23.7075C10.1166 23.7593 9.80807 23.7852 9.4888 23.7852C9.11775 23.7895 8.74886 23.7679 8.38213 23.7205C8.01972 23.6773 7.69829 23.6212 7.41784 23.5522L7.59905 21.2742C7.69829 21.3475 7.81693 21.4273 7.955 21.5136C8.09306 21.5956 8.28074 21.6711 8.51804 21.7401C8.75534 21.8092 9.06814 21.8631 9.45644 21.9019C9.47801 21.9062 9.49743 21.9084 9.51469 21.9084C9.53626 21.9084 9.55567 21.9084 9.57293 21.9084C9.62039 21.9084 9.65491 21.9019 9.67648 21.889C9.70237 21.876 9.71531 21.848 9.71531 21.8048C9.71531 21.7574 9.69374 21.7272 9.65059 21.7142C9.61176 21.7013 9.5492 21.6883 9.46291 21.6754C9.22993 21.6495 8.99695 21.6128 8.76397 21.5654C8.5353 21.5179 8.32604 21.4446 8.13621 21.3453C7.94637 21.2461 7.7932 21.108 7.67671 20.9312C7.56454 20.7543 7.50845 20.5234 7.50845 20.2387C7.50845 19.8331 7.60337 19.5117 7.7932 19.2744C7.98736 19.0328 8.24838 18.8602 8.57628 18.7566C8.90419 18.6488 9.27092 18.5949 9.67648 18.5949C10.0173 18.5949 10.3733 18.6272 10.7443 18.6919C11.1154 18.7523 11.4821 18.8365 11.8445 18.9443L11.6504 20.9117ZM14.2424 23.6881L12.2038 23.6816V18.6984H14.2424V23.6881ZM16.5998 23.6816H14.5612V18.6984H17.5835C17.8596 18.6984 18.112 18.7523 18.3407 18.8602C18.5737 18.9637 18.7592 19.1471 18.8972 19.4103C19.0353 19.6692 19.1043 20.0294 19.1043 20.4911C19.1043 20.9441 19.0331 21.3044 18.8908 21.5719C18.7484 21.835 18.5607 22.0249 18.3277 22.1414C18.0991 22.2535 17.851 22.3096 17.5835 22.3096H16.5998V23.6816ZM17.1046 20.3358H16.4833V20.6852H17.124C17.1585 20.6852 17.1952 20.6744 17.234 20.6529C17.2772 20.6313 17.2987 20.586 17.2987 20.517C17.2987 20.4436 17.275 20.3962 17.2275 20.3746C17.1801 20.3487 17.1391 20.3358 17.1046 20.3358ZM23.0778 23.6881L21.0392 23.6816V18.6984H23.0778V23.6881ZM27.3573 18.6984V20.284H25.4352V20.5493H27.2991V21.9602H25.4352V23.6816H23.3966V18.6984H27.3573ZM16.3252 31.6979V32.2157C16.3252 32.3796 16.2584 32.5198 16.1246 32.6363C15.9909 32.7528 15.7773 32.8111 15.4839 32.8111C15.1948 32.8111 14.9813 32.7507 14.8432 32.6299C14.7051 32.5091 14.6361 32.3667 14.6361 32.2027V31.6915C14.6361 31.5275 14.7051 31.3851 14.8432 31.2643C14.9813 31.1435 15.1948 31.0831 15.4839 31.0831C15.7773 31.0831 15.9909 31.1414 16.1246 31.2579C16.2584 31.3743 16.3252 31.521 16.3252 31.6979ZM18.2465 31.6979V32.2157C18.2465 32.3796 18.1797 32.5198 18.0459 32.6363C17.9122 32.7528 17.6986 32.8111 17.4052 32.8111C17.1161 32.8111 16.9026 32.7507 16.7645 32.6299C16.6264 32.5091 16.5574 32.3667 16.5574 32.2027V31.6915C16.5574 31.5275 16.6264 31.3851 16.7645 31.2643C16.9026 31.1435 17.1161 31.0831 17.4052 31.0831C17.6986 31.0831 17.9122 31.1414 18.0459 31.2579C18.1797 31.3743 18.2465 31.521 18.2465 31.6979ZM20.1678 31.6979V32.2157C20.1678 32.3796 20.101 32.5198 19.9672 32.6363C19.8335 32.7528 19.6199 32.8111 19.3265 32.8111C19.0374 32.8111 18.8239 32.7507 18.6858 32.6299C18.5477 32.5091 18.4787 32.3667 18.4787 32.2027V31.6915C18.4787 31.5275 18.5477 31.3851 18.6858 31.2643C18.8239 31.1435 19.0374 31.0831 19.3265 31.0831C19.6199 31.0831 19.8335 31.1414 19.9672 31.2579C20.101 31.3743 20.1678 31.521 20.1678 31.6979Z" fill="#EB5E28"/>
</svg>
