<svg width="33" height="33" viewBox="0 0 33 33" fill="none" xmlns="http://www.w3.org/2000/svg">
<g clip-path="url(#clip0_1091_375)">
<rect width="32.4108" height="32.625" rx="1.42779" fill="white"/>
<g clip-path="url(#clip1_1091_375)">
<rect width="32.4108" height="6.21089" transform="translate(0 26.4141)" fill="#DC2827"/>
<rect width="32.4108" height="0.285558" transform="translate(0 27.3438)" fill="#ECC1C9"/>
<rect width="32.4108" height="0.499726" transform="translate(0 27.7012)" fill="#ECC1C9"/>
<g clip-path="url(#clip2_1091_375)">
<path fill-rule="evenodd" clip-rule="evenodd" d="M2.58879 29.5612C2.48777 29.5762 2.39236 29.6171 2.31189 29.68C2.26199 29.7211 2.21724 29.7681 2.17863 29.82C2.06498 29.9802 2.02072 30.1951 2.06212 30.3871C2.11552 30.6355 2.32122 30.8934 2.62876 31.0979C2.77097 31.1925 2.93783 31.2705 2.99809 31.2705C3.05834 31.2705 3.22577 31.1922 3.36741 31.0979C3.60271 30.9411 3.77509 30.7583 3.87028 30.5642C3.93367 30.4349 3.95766 30.3169 3.9469 30.1867C3.93824 30.082 3.91682 30.0041 3.87161 29.9131C3.83449 29.8384 3.80298 29.7946 3.74254 29.7339C3.65477 29.6458 3.55892 29.5921 3.44632 29.5679C3.39035 29.5559 3.29459 29.556 3.23815 29.5681C3.16371 29.5841 3.10174 29.6114 3.03331 29.6585L2.99809 29.6828L2.96287 29.6585C2.86616 29.592 2.77659 29.5618 2.66684 29.5589C2.6408 29.5581 2.61473 29.5588 2.58879 29.5612Z" fill="#F2D4D9"/>
</g>
<g clip-path="url(#clip3_1091_375)">
<path fill-rule="evenodd" clip-rule="evenodd" d="M5.23136 31.2669C5.13034 31.2519 5.03494 31.211 4.95447 31.1481C4.90457 31.107 4.85982 31.06 4.82121 31.0081C4.70756 30.8479 4.66329 30.633 4.7047 30.441C4.7581 30.1926 4.9638 29.9347 5.27134 29.7302C5.41355 29.6356 5.58041 29.5577 5.64066 29.5577C5.70092 29.5577 5.86835 29.6359 6.00999 29.7302C6.24529 29.887 6.41767 30.0699 6.51285 30.2639C6.57625 30.3932 6.60023 30.5112 6.58948 30.6414C6.58082 30.7462 6.5594 30.824 6.51419 30.915C6.47706 30.9897 6.44556 31.0335 6.38511 31.0942C6.29735 31.1823 6.2015 31.2361 6.0889 31.2603C6.03293 31.2722 5.93717 31.2721 5.88072 31.2601C5.80629 31.2441 5.74432 31.2168 5.67588 31.1696L5.64066 31.1454L5.60545 31.1696C5.50874 31.2362 5.41917 31.2663 5.30942 31.2692C5.28338 31.27 5.25731 31.2693 5.23136 31.2669Z" fill="#F2D4D9"/>
</g>
<g clip-path="url(#clip4_1091_375)">
<path fill-rule="evenodd" clip-rule="evenodd" d="M7.87004 29.5612C7.76902 29.5762 7.67361 29.6171 7.59314 29.68C7.54324 29.7211 7.49849 29.7681 7.45988 29.82C7.34623 29.9802 7.30197 30.1951 7.34337 30.3871C7.39677 30.6355 7.60247 30.8934 7.91001 31.0979C8.05222 31.1925 8.21908 31.2705 8.27934 31.2705C8.33959 31.2705 8.50702 31.1922 8.64866 31.0979C8.88396 30.9411 9.05634 30.7583 9.15153 30.5642C9.21492 30.4349 9.23891 30.3169 9.22815 30.1867C9.21949 30.082 9.19807 30.0041 9.15286 29.9131C9.11574 29.8384 9.08423 29.7946 9.02379 29.7339C8.93602 29.6458 8.84017 29.5921 8.72757 29.5679C8.6716 29.5559 8.57584 29.556 8.5194 29.5681C8.44496 29.5841 8.38299 29.6114 8.31456 29.6585L8.27934 29.6828L8.24412 29.6585C8.14741 29.592 8.05784 29.5618 7.94809 29.5589C7.92205 29.5581 7.89598 29.5588 7.87004 29.5612Z" fill="#F2D4D9"/>
</g>
<g clip-path="url(#clip5_1091_375)">
<path fill-rule="evenodd" clip-rule="evenodd" d="M10.5107 31.2669C10.4096 31.2519 10.3142 31.211 10.2338 31.1481C10.1839 31.107 10.1391 31.06 10.1005 31.0081C9.98685 30.8479 9.94259 30.633 9.984 30.441C10.0374 30.1926 10.2431 29.9347 10.5506 29.7302C10.6928 29.6356 10.8597 29.5577 10.92 29.5577C10.9802 29.5577 11.1476 29.6359 11.2893 29.7302C11.5246 29.887 11.697 30.0699 11.7922 30.2639C11.8555 30.3932 11.8795 30.5112 11.8688 30.6414C11.8601 30.7462 11.8387 30.824 11.7935 30.915C11.7564 30.9897 11.7249 31.0335 11.6644 31.0942C11.5766 31.1823 11.4808 31.2361 11.3682 31.2603C11.3122 31.2722 11.2165 31.2721 11.16 31.2601C11.0856 31.2441 11.0236 31.2168 10.9552 31.1696L10.92 31.1454L10.8847 31.1696C10.788 31.2362 10.6985 31.2663 10.5887 31.2692C10.5627 31.27 10.5366 31.2693 10.5107 31.2669Z" fill="#F2D4D9"/>
</g>
<g clip-path="url(#clip6_1091_375)">
<path fill-rule="evenodd" clip-rule="evenodd" d="M13.1552 29.5612C13.0542 29.5762 12.9588 29.6171 12.8783 29.68C12.8284 29.7211 12.7837 29.7681 12.745 29.82C12.6314 29.9802 12.5871 30.1951 12.6285 30.3871C12.6819 30.6355 12.8876 30.8934 13.1952 31.0979C13.3374 31.1925 13.5042 31.2705 13.5645 31.2705C13.6247 31.2705 13.7922 31.1922 13.9338 31.0979C14.1691 30.9411 14.3415 30.7583 14.4367 30.5642C14.5001 30.4349 14.5241 30.3169 14.5133 30.1867C14.5046 30.082 14.4832 30.0041 14.438 29.9131C14.4009 29.8384 14.3694 29.7946 14.3089 29.7339C14.2212 29.6458 14.1253 29.5921 14.0127 29.5679C13.9568 29.5559 13.861 29.556 13.8046 29.5681C13.7301 29.5841 13.6682 29.6114 13.5997 29.6585L13.5645 29.6828L13.5293 29.6585C13.4326 29.592 13.343 29.5618 13.2332 29.5589C13.2072 29.5581 13.1811 29.5588 13.1552 29.5612Z" fill="#F2D4D9"/>
</g>
<g clip-path="url(#clip7_1091_375)">
<path fill-rule="evenodd" clip-rule="evenodd" d="M15.7958 31.2669C15.6948 31.2519 15.5994 31.211 15.5189 31.1481C15.469 31.107 15.4243 31.06 15.3857 31.0081C15.272 30.8479 15.2277 30.633 15.2692 30.441C15.3226 30.1926 15.5283 29.9347 15.8358 29.7302C15.978 29.6356 16.1449 29.5577 16.2051 29.5577C16.2654 29.5577 16.4328 29.6359 16.5744 29.7302C16.8097 29.887 16.9821 30.0699 17.0773 30.2639C17.1407 30.3932 17.1647 30.5112 17.1539 30.6414C17.1453 30.7462 17.1239 30.824 17.0786 30.915C17.0415 30.9897 17.01 31.0335 16.9496 31.0942C16.8618 31.1823 16.766 31.2361 16.6533 31.2603C16.5974 31.2722 16.5016 31.2721 16.4452 31.2601C16.3707 31.2441 16.3088 31.2168 16.2403 31.1696L16.2051 31.1454L16.1699 31.1696C16.0732 31.2362 15.9836 31.2663 15.8739 31.2692C15.8478 31.27 15.8218 31.2693 15.7958 31.2669Z" fill="#F2D4D9"/>
</g>
<g clip-path="url(#clip8_1091_375)">
<path fill-rule="evenodd" clip-rule="evenodd" d="M18.4384 29.5612C18.3374 29.5762 18.242 29.6171 18.1615 29.68C18.1116 29.7211 18.0669 29.7681 18.0282 29.82C17.9146 29.9802 17.8703 30.1951 17.9117 30.3871C17.9651 30.6355 18.1708 30.8934 18.4784 31.0979C18.6206 31.1925 18.7874 31.2705 18.8477 31.2705C18.9079 31.2705 19.0754 31.1922 19.217 31.0979C19.4523 30.9411 19.6247 30.7583 19.7199 30.5642C19.7833 30.4349 19.8073 30.3169 19.7965 30.1867C19.7878 30.082 19.7664 30.0041 19.7212 29.9131C19.6841 29.8384 19.6526 29.7946 19.5921 29.7339C19.5044 29.6458 19.4085 29.5921 19.2959 29.5679C19.24 29.5559 19.1442 29.556 19.0878 29.5681C19.0133 29.5841 18.9514 29.6114 18.8829 29.6585L18.8477 29.6828L18.8125 29.6585C18.7158 29.592 18.6262 29.5618 18.5164 29.5589C18.4904 29.5581 18.4643 29.5588 18.4384 29.5612Z" fill="#F2D4D9"/>
</g>
<g clip-path="url(#clip9_1091_375)">
<path fill-rule="evenodd" clip-rule="evenodd" d="M21.0771 31.2669C20.976 31.2519 20.8806 31.211 20.8002 31.1481C20.7503 31.107 20.7055 31.06 20.6669 31.0081C20.5533 30.8479 20.509 30.633 20.5504 30.441C20.6038 30.1926 20.8095 29.9347 21.117 29.7302C21.2593 29.6356 21.4261 29.5577 21.4864 29.5577C21.5466 29.5577 21.7141 29.6359 21.8557 29.7302C22.091 29.887 22.2634 30.0699 22.3586 30.2639C22.422 30.3932 22.4459 30.5112 22.4352 30.6414C22.4265 30.7462 22.4051 30.824 22.3599 30.915C22.3228 30.9897 22.2913 31.0335 22.2308 31.0942C22.1431 31.1823 22.0472 31.2361 21.9346 31.2603C21.8786 31.2722 21.7829 31.2721 21.7264 31.2601C21.652 31.2441 21.59 31.2168 21.5216 31.1696L21.4864 31.1454L21.4511 31.1696C21.3544 31.2362 21.2649 31.2663 21.1551 31.2692C21.1291 31.27 21.103 31.2693 21.0771 31.2669Z" fill="#F2D4D9"/>
</g>
<g clip-path="url(#clip10_1091_375)">
<path fill-rule="evenodd" clip-rule="evenodd" d="M23.7177 29.5612C23.6167 29.5762 23.5213 29.6171 23.4408 29.68C23.3909 29.7211 23.3462 29.7681 23.3075 29.82C23.1939 29.9802 23.1496 30.1951 23.191 30.3871C23.2444 30.6355 23.4501 30.8934 23.7577 31.0979C23.8999 31.1925 24.0667 31.2705 24.127 31.2705C24.1872 31.2705 24.3547 31.1922 24.4963 31.0979C24.7316 30.9411 24.904 30.7583 24.9992 30.5642C25.0626 30.4349 25.0866 30.3169 25.0758 30.1867C25.0671 30.082 25.0457 30.0041 25.0005 29.9131C24.9634 29.8384 24.9319 29.7946 24.8714 29.7339C24.7837 29.6458 24.6878 29.5921 24.5752 29.5679C24.5193 29.5559 24.4235 29.556 24.3671 29.5681C24.2926 29.5841 24.2307 29.6114 24.1622 29.6585L24.127 29.6828L24.0918 29.6585C23.9951 29.592 23.9055 29.5618 23.7957 29.5589C23.7697 29.5581 23.7436 29.5588 23.7177 29.5612Z" fill="#F2D4D9"/>
</g>
<g clip-path="url(#clip11_1091_375)">
<path fill-rule="evenodd" clip-rule="evenodd" d="M26.3622 31.2669C26.2612 31.2519 26.1658 31.211 26.0853 31.1481C26.0354 31.107 25.9907 31.06 25.9521 31.0081C25.8384 30.8479 25.7942 30.633 25.8356 30.441C25.889 30.1926 26.0947 29.9347 26.4022 29.7302C26.5444 29.6356 26.7113 29.5577 26.7715 29.5577C26.8318 29.5577 26.9992 29.6359 27.1408 29.7302C27.3761 29.887 27.5485 30.0699 27.6437 30.2639C27.7071 30.3932 27.7311 30.5112 27.7203 30.6414C27.7117 30.7462 27.6903 30.824 27.645 30.915C27.6079 30.9897 27.5764 31.0335 27.516 31.0942C27.4282 31.1823 27.3324 31.2361 27.2198 31.2603C27.1638 31.2722 27.068 31.2721 27.0116 31.2601C26.9371 31.2441 26.8752 31.2168 26.8067 31.1696L26.7715 31.1454L26.7363 31.1696C26.6396 31.2362 26.55 31.2663 26.4403 31.2692C26.4142 31.27 26.3882 31.2693 26.3622 31.2669Z" fill="#F2D4D9"/>
</g>
<g clip-path="url(#clip12_1091_375)">
<path fill-rule="evenodd" clip-rule="evenodd" d="M29.0028 29.5612C28.9018 29.5762 28.8064 29.6171 28.726 29.68C28.6761 29.7211 28.6313 29.7681 28.5927 29.82C28.479 29.9802 28.4348 30.1951 28.4762 30.3871C28.5296 30.6355 28.7353 30.8934 29.0428 31.0979C29.185 31.1925 29.3519 31.2705 29.4121 31.2705C29.4724 31.2705 29.6398 31.1922 29.7815 31.0979C30.0168 30.9411 30.1892 30.7583 30.2843 30.5642C30.3477 30.4349 30.3717 30.3169 30.361 30.1867C30.3523 30.082 30.3309 30.0041 30.2857 29.9131C30.2485 29.8384 30.217 29.7946 30.1566 29.7339C30.0688 29.6458 29.973 29.5921 29.8604 29.5679C29.8044 29.5559 29.7087 29.556 29.6522 29.5681C29.5778 29.5841 29.5158 29.6114 29.4474 29.6585L29.4121 29.6828L29.3769 29.6585C29.2802 29.592 29.1907 29.5618 29.0809 29.5589C29.0549 29.5581 29.0288 29.5588 29.0028 29.5612Z" fill="#F2D4D9"/>
</g>
</g>
<g clip-path="url(#clip13_1091_375)">
<rect width="32.4108" height="6.21089" fill="#DC2827"/>
<rect width="32.4108" height="0.499726" transform="translate(0 4.42578)" fill="#ECC1C9"/>
<rect width="32.4108" height="0.285558" transform="translate(0 4.99609)" fill="#ECC1C9"/>
<g clip-path="url(#clip14_1091_375)">
<path fill-rule="evenodd" clip-rule="evenodd" d="M2.58879 1.36004C2.48777 1.37502 2.39236 1.41595 2.31189 1.47883C2.26199 1.51996 2.21724 1.56698 2.17863 1.61885C2.06498 1.77905 2.02072 1.99398 2.06212 2.18597C2.11552 2.43431 2.32122 2.69226 2.62876 2.89672C2.77097 2.99134 2.93783 3.06929 2.99809 3.06929C3.05834 3.06929 3.22577 2.99105 3.36741 2.89672C3.60271 2.73995 3.77509 2.5571 3.87028 2.36301C3.93367 2.23375 3.95766 2.11572 3.9469 1.98551C3.93824 1.8808 3.91682 1.80294 3.87161 1.71194C3.83449 1.63722 3.80298 1.59344 3.74254 1.53271C3.65477 1.44466 3.55892 1.39088 3.44632 1.3667C3.39035 1.35471 3.29459 1.3548 3.23815 1.36689C3.16371 1.38288 3.10174 1.4102 3.03331 1.45732L2.99809 1.48159L2.96287 1.45732C2.86616 1.39078 2.77659 1.36061 2.66684 1.35775C2.6408 1.35691 2.61473 1.35767 2.58879 1.36004Z" fill="#F2D4D9"/>
</g>
<g clip-path="url(#clip15_1091_375)">
<path fill-rule="evenodd" clip-rule="evenodd" d="M5.23136 3.06379C5.13034 3.04881 5.03494 3.00788 4.95447 2.945C4.90457 2.90387 4.85982 2.85685 4.82121 2.80498C4.70756 2.64478 4.66329 2.42985 4.7047 2.23786C4.7581 1.98952 4.9638 1.73157 5.27134 1.52711C5.41355 1.43249 5.58041 1.35453 5.64066 1.35453C5.70092 1.35453 5.86835 1.43278 6.00999 1.52711C6.24529 1.68388 6.41767 1.86673 6.51285 2.06081C6.57625 2.19008 6.60023 2.30811 6.58948 2.43832C6.58082 2.54303 6.5594 2.62089 6.51419 2.71189C6.47706 2.78661 6.44556 2.83039 6.38511 2.89112C6.29735 2.97917 6.2015 3.03295 6.0889 3.05713C6.03293 3.06912 5.93717 3.06902 5.88072 3.05694C5.80629 3.04094 5.74432 3.01363 5.67588 2.96651L5.64066 2.94224L5.60545 2.96651C5.50874 3.03304 5.41917 3.06322 5.30942 3.06607C5.28338 3.06692 5.25731 3.06615 5.23136 3.06379Z" fill="#F2D4D9"/>
</g>
<g clip-path="url(#clip16_1091_375)">
<path fill-rule="evenodd" clip-rule="evenodd" d="M7.87004 1.36004C7.76902 1.37502 7.67361 1.41595 7.59314 1.47883C7.54324 1.51996 7.49849 1.56698 7.45988 1.61885C7.34623 1.77905 7.30197 1.99398 7.34337 2.18597C7.39677 2.43431 7.60247 2.69226 7.91001 2.89672C8.05222 2.99134 8.21908 3.06929 8.27934 3.06929C8.33959 3.06929 8.50702 2.99105 8.64866 2.89672C8.88396 2.73995 9.05634 2.5571 9.15153 2.36301C9.21492 2.23375 9.23891 2.11572 9.22815 1.98551C9.21949 1.8808 9.19807 1.80294 9.15286 1.71194C9.11574 1.63722 9.08423 1.59344 9.02379 1.53271C8.93602 1.44466 8.84017 1.39088 8.72757 1.3667C8.6716 1.35471 8.57584 1.3548 8.5194 1.36689C8.44496 1.38288 8.38299 1.4102 8.31456 1.45732L8.27934 1.48159L8.24412 1.45732C8.14741 1.39078 8.05784 1.36061 7.94809 1.35775C7.92205 1.35691 7.89598 1.35767 7.87004 1.36004Z" fill="#F2D4D9"/>
</g>
<g clip-path="url(#clip17_1091_375)">
<path fill-rule="evenodd" clip-rule="evenodd" d="M10.5107 3.06379C10.4096 3.04881 10.3142 3.00788 10.2338 2.945C10.1839 2.90387 10.1391 2.85685 10.1005 2.80498C9.98685 2.64478 9.94259 2.42985 9.984 2.23786C10.0374 1.98952 10.2431 1.73157 10.5506 1.52711C10.6928 1.43249 10.8597 1.35453 10.92 1.35453C10.9802 1.35453 11.1476 1.43278 11.2893 1.52711C11.5246 1.68388 11.697 1.86673 11.7922 2.06081C11.8555 2.19008 11.8795 2.30811 11.8688 2.43832C11.8601 2.54303 11.8387 2.62089 11.7935 2.71189C11.7564 2.78661 11.7249 2.83039 11.6644 2.89112C11.5766 2.97917 11.4808 3.03295 11.3682 3.05713C11.3122 3.06912 11.2165 3.06902 11.16 3.05694C11.0856 3.04094 11.0236 3.01363 10.9552 2.96651L10.92 2.94224L10.8847 2.96651C10.788 3.03304 10.6985 3.06322 10.5887 3.06607C10.5627 3.06692 10.5366 3.06615 10.5107 3.06379Z" fill="#F2D4D9"/>
</g>
<g clip-path="url(#clip18_1091_375)">
<path fill-rule="evenodd" clip-rule="evenodd" d="M13.1552 1.36004C13.0542 1.37502 12.9588 1.41595 12.8783 1.47883C12.8284 1.51996 12.7837 1.56698 12.745 1.61885C12.6314 1.77905 12.5871 1.99398 12.6285 2.18597C12.6819 2.43431 12.8876 2.69226 13.1952 2.89672C13.3374 2.99134 13.5042 3.06929 13.5645 3.06929C13.6247 3.06929 13.7922 2.99105 13.9338 2.89672C14.1691 2.73995 14.3415 2.5571 14.4367 2.36301C14.5001 2.23375 14.5241 2.11572 14.5133 1.98551C14.5046 1.8808 14.4832 1.80294 14.438 1.71194C14.4009 1.63722 14.3694 1.59344 14.3089 1.53271C14.2212 1.44466 14.1253 1.39088 14.0127 1.3667C13.9568 1.35471 13.861 1.3548 13.8046 1.36689C13.7301 1.38288 13.6682 1.4102 13.5997 1.45732L13.5645 1.48159L13.5293 1.45732C13.4326 1.39078 13.343 1.36061 13.2332 1.35775C13.2072 1.35691 13.1811 1.35767 13.1552 1.36004Z" fill="#F2D4D9"/>
</g>
<g clip-path="url(#clip19_1091_375)">
<path fill-rule="evenodd" clip-rule="evenodd" d="M15.7958 3.06379C15.6948 3.04881 15.5994 3.00788 15.5189 2.945C15.469 2.90387 15.4243 2.85685 15.3857 2.80498C15.272 2.64478 15.2277 2.42985 15.2692 2.23786C15.3226 1.98952 15.5283 1.73157 15.8358 1.52711C15.978 1.43249 16.1449 1.35453 16.2051 1.35453C16.2654 1.35453 16.4328 1.43278 16.5744 1.52711C16.8097 1.68388 16.9821 1.86673 17.0773 2.06081C17.1407 2.19008 17.1647 2.30811 17.1539 2.43832C17.1453 2.54303 17.1239 2.62089 17.0786 2.71189C17.0415 2.78661 17.01 2.83039 16.9496 2.89112C16.8618 2.97917 16.766 3.03295 16.6533 3.05713C16.5974 3.06912 16.5016 3.06902 16.4452 3.05694C16.3707 3.04094 16.3088 3.01363 16.2403 2.96651L16.2051 2.94224L16.1699 2.96651C16.0732 3.03304 15.9836 3.06322 15.8739 3.06607C15.8478 3.06692 15.8218 3.06615 15.7958 3.06379Z" fill="#F2D4D9"/>
</g>
<g clip-path="url(#clip20_1091_375)">
<path fill-rule="evenodd" clip-rule="evenodd" d="M18.4384 1.36004C18.3374 1.37502 18.242 1.41595 18.1615 1.47883C18.1116 1.51996 18.0669 1.56698 18.0282 1.61885C17.9146 1.77905 17.8703 1.99398 17.9117 2.18597C17.9651 2.43431 18.1708 2.69226 18.4784 2.89672C18.6206 2.99134 18.7874 3.06929 18.8477 3.06929C18.9079 3.06929 19.0754 2.99105 19.217 2.89672C19.4523 2.73995 19.6247 2.5571 19.7199 2.36301C19.7833 2.23375 19.8073 2.11572 19.7965 1.98551C19.7878 1.8808 19.7664 1.80294 19.7212 1.71194C19.6841 1.63722 19.6526 1.59344 19.5921 1.53271C19.5044 1.44466 19.4085 1.39088 19.2959 1.3667C19.24 1.35471 19.1442 1.3548 19.0878 1.36689C19.0133 1.38288 18.9514 1.4102 18.8829 1.45732L18.8477 1.48159L18.8125 1.45732C18.7158 1.39078 18.6262 1.36061 18.5164 1.35775C18.4904 1.35691 18.4643 1.35767 18.4384 1.36004Z" fill="#F2D4D9"/>
</g>
<g clip-path="url(#clip21_1091_375)">
<path fill-rule="evenodd" clip-rule="evenodd" d="M21.0771 3.0677C20.976 3.05271 20.8806 3.01178 20.8002 2.9489C20.7503 2.90777 20.7055 2.86076 20.6669 2.80888C20.5533 2.64869 20.509 2.43376 20.5504 2.24177C20.6038 1.99343 20.8095 1.73547 21.117 1.53101C21.2593 1.4364 21.4261 1.35844 21.4864 1.35844C21.5466 1.35844 21.7141 1.43668 21.8557 1.53101C22.091 1.68778 22.2634 1.87064 22.3586 2.06472C22.422 2.19398 22.4459 2.31201 22.4352 2.44223C22.4265 2.54693 22.4051 2.62479 22.3599 2.71579C22.3228 2.79051 22.2913 2.8343 22.2308 2.89503C22.1431 2.98307 22.0472 3.03686 21.9346 3.06103C21.8786 3.07303 21.7829 3.07293 21.7264 3.06084C21.652 3.04485 21.59 3.01753 21.5216 2.97042L21.4864 2.94614L21.4511 2.97042C21.3544 3.03695 21.2649 3.06712 21.1551 3.06998C21.1291 3.07082 21.103 3.07006 21.0771 3.0677Z" fill="#F2D4D9"/>
</g>
<g clip-path="url(#clip22_1091_375)">
<path fill-rule="evenodd" clip-rule="evenodd" d="M23.7177 1.36004C23.6167 1.37502 23.5213 1.41595 23.4408 1.47883C23.3909 1.51996 23.3462 1.56698 23.3075 1.61885C23.1939 1.77905 23.1496 1.99398 23.191 2.18597C23.2444 2.43431 23.4501 2.69226 23.7577 2.89672C23.8999 2.99134 24.0667 3.06929 24.127 3.06929C24.1872 3.06929 24.3547 2.99105 24.4963 2.89672C24.7316 2.73995 24.904 2.5571 24.9992 2.36301C25.0626 2.23375 25.0866 2.11572 25.0758 1.98551C25.0671 1.8808 25.0457 1.80294 25.0005 1.71194C24.9634 1.63722 24.9319 1.59344 24.8714 1.53271C24.7837 1.44466 24.6878 1.39088 24.5752 1.3667C24.5193 1.35471 24.4235 1.3548 24.3671 1.36689C24.2926 1.38288 24.2307 1.4102 24.1622 1.45732L24.127 1.48159L24.0918 1.45732C23.9951 1.39078 23.9055 1.36061 23.7957 1.35775C23.7697 1.35691 23.7436 1.35767 23.7177 1.36004Z" fill="#F2D4D9"/>
</g>
<g clip-path="url(#clip23_1091_375)">
<path fill-rule="evenodd" clip-rule="evenodd" d="M26.3622 3.0677C26.2612 3.05271 26.1658 3.01178 26.0853 2.9489C26.0354 2.90777 25.9907 2.86076 25.9521 2.80888C25.8384 2.64869 25.7942 2.43376 25.8356 2.24177C25.889 1.99343 26.0947 1.73547 26.4022 1.53101C26.5444 1.4364 26.7113 1.35844 26.7715 1.35844C26.8318 1.35844 26.9992 1.43668 27.1408 1.53101C27.3761 1.68778 27.5485 1.87064 27.6437 2.06472C27.7071 2.19398 27.7311 2.31201 27.7203 2.44223C27.7117 2.54693 27.6903 2.62479 27.645 2.71579C27.6079 2.79051 27.5764 2.8343 27.516 2.89503C27.4282 2.98307 27.3324 3.03686 27.2198 3.06103C27.1638 3.07303 27.068 3.07293 27.0116 3.06084C26.9371 3.04485 26.8752 3.01753 26.8067 2.97042L26.7715 2.94614L26.7363 2.97042C26.6396 3.03695 26.55 3.06712 26.4403 3.06998C26.4142 3.07082 26.3882 3.07006 26.3622 3.0677Z" fill="#F2D4D9"/>
</g>
<g clip-path="url(#clip24_1091_375)">
<path fill-rule="evenodd" clip-rule="evenodd" d="M29.0028 1.36004C28.9018 1.37502 28.8064 1.41595 28.726 1.47883C28.6761 1.51996 28.6313 1.56698 28.5927 1.61885C28.479 1.77905 28.4348 1.99398 28.4762 2.18597C28.5296 2.43431 28.7353 2.69226 29.0428 2.89672C29.185 2.99134 29.3519 3.06929 29.4121 3.06929C29.4724 3.06929 29.6398 2.99105 29.7815 2.89672C30.0168 2.73995 30.1892 2.5571 30.2843 2.36301C30.3477 2.23375 30.3717 2.11572 30.361 1.98551C30.3523 1.8808 30.3309 1.80294 30.2857 1.71194C30.2485 1.63722 30.217 1.59344 30.1566 1.53271C30.0688 1.44466 29.973 1.39088 29.8604 1.3667C29.8044 1.35471 29.7087 1.3548 29.6522 1.36689C29.5778 1.38288 29.5158 1.4102 29.4474 1.45732L29.4121 1.48159L29.3769 1.45732C29.2802 1.39078 29.1907 1.36061 29.0809 1.35775C29.0549 1.35691 29.0288 1.35767 29.0028 1.36004Z" fill="#F2D4D9"/>
</g>
</g>
<mask id="path-24-outside-1_1091_375" maskUnits="userSpaceOnUse" x="7.78125" y="11.6367" width="17" height="9" fill="black">
<rect fill="white" x="7.78125" y="11.6367" width="17" height="9"/>
<path d="M10.7281 12.3772V12.056H12.6306V12.3772H11.8561V14.6367H11.5062V12.3772H10.7281ZM13.3321 14.6367H12.9823V12.056H13.9568C14.51 12.056 14.8384 12.3487 14.8384 12.8306C14.8384 13.1875 14.66 13.4445 14.3387 13.548L14.8634 14.6367H14.4743L13.9925 13.6158H13.3321V14.6367ZM13.3321 12.3701V13.3053H13.9603C14.2852 13.3053 14.4708 13.1304 14.4708 12.8341C14.4708 12.5343 14.278 12.3701 13.9568 12.3701H13.3321ZM15.2895 13.7194V12.056H15.6393V13.6979C15.6393 14.112 15.8678 14.3405 16.2782 14.3405C16.6852 14.3405 16.91 14.1084 16.91 13.6979V12.056H17.2634V13.7194C17.2634 14.3119 16.8851 14.6796 16.2782 14.6796C15.6679 14.6796 15.2895 14.3155 15.2895 13.7194ZM17.5952 12.3772V12.056H19.4977V12.3772H18.7231V14.6367H18.3733V12.3772H17.5952ZM20.1992 14.6367H19.8494V12.056H20.1992V13.1661H21.477V12.056H21.8269V14.6367H21.477V13.4909H20.1992V14.6367ZM11.3654 18.3446C11.3654 19.1299 10.8514 19.6796 10.1197 19.6796C9.39148 19.6796 8.88462 19.1299 8.88462 18.3446C8.88462 17.5629 9.39505 17.0096 10.1232 17.0096C10.855 17.0096 11.3654 17.5593 11.3654 18.3446ZM10.9977 18.3446C10.9977 17.7449 10.6479 17.3487 10.1232 17.3487C9.59851 17.3487 9.25228 17.7449 9.25228 18.3446C9.25228 18.9442 9.59851 19.344 10.1232 19.344C10.6479 19.344 10.9977 18.9407 10.9977 18.3446ZM12.1626 19.6367H11.8128V17.056H12.7873C13.3406 17.056 13.6689 17.3487 13.6689 17.8306C13.6689 18.1875 13.4905 18.4445 13.1692 18.548L13.6939 19.6367H13.3049L12.823 18.6158H12.1626V19.6367ZM12.1626 17.3701V18.3053H12.7909C13.1157 18.3053 13.3013 18.1304 13.3013 17.8341C13.3013 17.5343 13.1085 17.3701 12.7873 17.3701H12.1626ZM15.9774 19.6367H15.1243V17.056H15.9632C16.7342 17.056 17.2553 17.5771 17.2553 18.3481C17.2553 19.1156 16.7413 19.6367 15.9774 19.6367ZM15.9382 17.3772H15.4741V19.3119H15.9525C16.5271 19.3119 16.8912 18.9407 16.8912 18.3481C16.8912 17.7485 16.5271 17.3772 15.9382 17.3772ZM17.6924 19.6367H17.3283L18.2707 17.056H18.6597L19.6056 19.6367H19.238L19.006 18.9942H17.9209L17.6924 19.6367ZM18.4206 17.6128L18.0279 18.6908H18.9025L18.5062 17.6128C18.4884 17.5629 18.4706 17.5022 18.4634 17.4629C18.4563 17.4986 18.4384 17.5593 18.4206 17.6128ZM20.2985 19.6367H19.9487V17.056H20.9232C21.4764 17.056 21.8048 17.3487 21.8048 17.8306C21.8048 18.1875 21.6264 18.4445 21.3051 18.548L21.8298 19.6367H21.4407L20.9589 18.6158H20.2985V19.6367ZM20.2985 17.3701V18.3053H20.9267C21.2516 18.3053 21.4372 18.1304 21.4372 17.8341C21.4372 17.5343 21.2444 17.3701 20.9232 17.3701H20.2985ZM23.8583 19.6367H22.2842V17.056H23.8583V17.3772H22.634V18.1839H23.737V18.4945H22.634V19.3119H23.8583V19.6367Z"/>
</mask>
<path d="M10.7281 12.3772V12.056H12.6306V12.3772H11.8561V14.6367H11.5062V12.3772H10.7281ZM13.3321 14.6367H12.9823V12.056H13.9568C14.51 12.056 14.8384 12.3487 14.8384 12.8306C14.8384 13.1875 14.66 13.4445 14.3387 13.548L14.8634 14.6367H14.4743L13.9925 13.6158H13.3321V14.6367ZM13.3321 12.3701V13.3053H13.9603C14.2852 13.3053 14.4708 13.1304 14.4708 12.8341C14.4708 12.5343 14.278 12.3701 13.9568 12.3701H13.3321ZM15.2895 13.7194V12.056H15.6393V13.6979C15.6393 14.112 15.8678 14.3405 16.2782 14.3405C16.6852 14.3405 16.91 14.1084 16.91 13.6979V12.056H17.2634V13.7194C17.2634 14.3119 16.8851 14.6796 16.2782 14.6796C15.6679 14.6796 15.2895 14.3155 15.2895 13.7194ZM17.5952 12.3772V12.056H19.4977V12.3772H18.7231V14.6367H18.3733V12.3772H17.5952ZM20.1992 14.6367H19.8494V12.056H20.1992V13.1661H21.477V12.056H21.8269V14.6367H21.477V13.4909H20.1992V14.6367ZM11.3654 18.3446C11.3654 19.1299 10.8514 19.6796 10.1197 19.6796C9.39148 19.6796 8.88462 19.1299 8.88462 18.3446C8.88462 17.5629 9.39505 17.0096 10.1232 17.0096C10.855 17.0096 11.3654 17.5593 11.3654 18.3446ZM10.9977 18.3446C10.9977 17.7449 10.6479 17.3487 10.1232 17.3487C9.59851 17.3487 9.25228 17.7449 9.25228 18.3446C9.25228 18.9442 9.59851 19.344 10.1232 19.344C10.6479 19.344 10.9977 18.9407 10.9977 18.3446ZM12.1626 19.6367H11.8128V17.056H12.7873C13.3406 17.056 13.6689 17.3487 13.6689 17.8306C13.6689 18.1875 13.4905 18.4445 13.1692 18.548L13.6939 19.6367H13.3049L12.823 18.6158H12.1626V19.6367ZM12.1626 17.3701V18.3053H12.7909C13.1157 18.3053 13.3013 18.1304 13.3013 17.8341C13.3013 17.5343 13.1085 17.3701 12.7873 17.3701H12.1626ZM15.9774 19.6367H15.1243V17.056H15.9632C16.7342 17.056 17.2553 17.5771 17.2553 18.3481C17.2553 19.1156 16.7413 19.6367 15.9774 19.6367ZM15.9382 17.3772H15.4741V19.3119H15.9525C16.5271 19.3119 16.8912 18.9407 16.8912 18.3481C16.8912 17.7485 16.5271 17.3772 15.9382 17.3772ZM17.6924 19.6367H17.3283L18.2707 17.056H18.6597L19.6056 19.6367H19.238L19.006 18.9942H17.9209L17.6924 19.6367ZM18.4206 17.6128L18.0279 18.6908H18.9025L18.5062 17.6128C18.4884 17.5629 18.4706 17.5022 18.4634 17.4629C18.4563 17.4986 18.4384 17.5593 18.4206 17.6128ZM20.2985 19.6367H19.9487V17.056H20.9232C21.4764 17.056 21.8048 17.3487 21.8048 17.8306C21.8048 18.1875 21.6264 18.4445 21.3051 18.548L21.8298 19.6367H21.4407L20.9589 18.6158H20.2985V19.6367ZM20.2985 17.3701V18.3053H20.9267C21.2516 18.3053 21.4372 18.1304 21.4372 17.8341C21.4372 17.5343 21.2444 17.3701 20.9232 17.3701H20.2985ZM23.8583 19.6367H22.2842V17.056H23.8583V17.3772H22.634V18.1839H23.737V18.4945H22.634V19.3119H23.8583V19.6367Z" fill="black"/>
<path d="M10.7281 12.3772H10.5853V12.52H10.7281V12.3772ZM10.7281 12.056V11.9132H10.5853V12.056H10.7281ZM12.6306 12.056H12.7734V11.9132H12.6306V12.056ZM12.6306 12.3772V12.52H12.7734V12.3772H12.6306ZM11.8561 12.3772V12.2345H11.7133V12.3772H11.8561ZM11.8561 14.6367V14.7795H11.9988V14.6367H11.8561ZM11.5062 14.6367H11.3635V14.7795H11.5062V14.6367ZM11.5062 12.3772H11.649V12.2345H11.5062V12.3772ZM10.7281 12.3772H10.8709V12.056H10.7281H10.5853V12.3772H10.7281ZM10.7281 12.056V12.1988H12.6306V12.056V11.9132H10.7281V12.056ZM12.6306 12.056H12.4879V12.3772H12.6306H12.7734V12.056H12.6306ZM12.6306 12.3772V12.2345H11.8561V12.3772V12.52H12.6306V12.3772ZM11.8561 12.3772H11.7133V14.6367H11.8561H11.9988V12.3772H11.8561ZM11.8561 14.6367V14.4939H11.5062V14.6367V14.7795H11.8561V14.6367ZM11.5062 14.6367H11.649V12.3772H11.5062H11.3635V14.6367H11.5062ZM11.5062 12.3772V12.2345H10.7281V12.3772V12.52H11.5062V12.3772ZM13.3321 14.6367V14.7795H13.4749V14.6367H13.3321ZM12.9823 14.6367H12.8395V14.7795H12.9823V14.6367ZM12.9823 12.056V11.9132H12.8395V12.056H12.9823ZM14.3387 13.548L14.2949 13.4121L14.1389 13.4624L14.2101 13.61L14.3387 13.548ZM14.8634 14.6367V14.7795H15.0907L14.992 14.5747L14.8634 14.6367ZM14.4743 14.6367L14.3452 14.6977L14.3839 14.7795H14.4743V14.6367ZM13.9925 13.6158L14.1216 13.5549L14.083 13.4731H13.9925V13.6158ZM13.3321 13.6158V13.4731H13.1893V13.6158H13.3321ZM13.3321 12.3701V12.2273H13.1893V12.3701H13.3321ZM13.3321 13.3053H13.1893V13.4481H13.3321V13.3053ZM13.3321 14.6367V14.4939H12.9823V14.6367V14.7795H13.3321V14.6367ZM12.9823 14.6367H13.1251V12.056H12.9823H12.8395V14.6367H12.9823ZM12.9823 12.056V12.1988H13.9568V12.056V11.9132H12.9823V12.056ZM13.9568 12.056V12.1988C14.2094 12.1988 14.3926 12.2655 14.5106 12.3697C14.6264 12.4718 14.6957 12.6238 14.6957 12.8306H14.8384H14.9812C14.9812 12.5554 14.8862 12.3202 14.6995 12.1555C14.5151 11.9928 14.2574 11.9132 13.9568 11.9132V12.056ZM14.8384 12.8306H14.6957C14.6957 12.985 14.6572 13.1088 14.5918 13.2028C14.5268 13.2962 14.4291 13.3689 14.2949 13.4121L14.3387 13.548L14.3825 13.6839C14.5696 13.6237 14.7217 13.5161 14.8262 13.3659C14.9304 13.2162 14.9812 13.033 14.9812 12.8306H14.8384ZM14.3387 13.548L14.2101 13.61L14.7348 14.6987L14.8634 14.6367L14.992 14.5747L14.4673 13.486L14.3387 13.548ZM14.8634 14.6367V14.4939H14.4743V14.6367V14.7795H14.8634V14.6367ZM14.4743 14.6367L14.6035 14.5758L14.1216 13.5549L13.9925 13.6158L13.8633 13.6768L14.3452 14.6977L14.4743 14.6367ZM13.9925 13.6158V13.4731H13.3321V13.6158V13.7586H13.9925V13.6158ZM13.3321 13.6158H13.1893V14.6367H13.3321H13.4749V13.6158H13.3321ZM13.3321 12.3701H13.1893V13.3053H13.3321H13.4749V12.3701H13.3321ZM13.3321 13.3053V13.4481H13.9603V13.3053V13.1625H13.3321V13.3053ZM13.9603 13.3053V13.4481C14.1474 13.4481 14.3138 13.3975 14.4345 13.2855C14.5567 13.172 14.6136 13.0129 14.6136 12.8341H14.4708H14.328C14.328 12.9517 14.2921 13.0281 14.2402 13.0762C14.187 13.1256 14.0981 13.1625 13.9603 13.1625V13.3053ZM14.4708 12.8341H14.6136C14.6136 12.6523 14.554 12.494 14.4291 12.383C14.3067 12.2742 14.1401 12.2273 13.9568 12.2273V12.3701V12.5129C14.0947 12.5129 14.1851 12.5481 14.2394 12.5964C14.2912 12.6425 14.328 12.7162 14.328 12.8341H14.4708ZM13.9568 12.3701V12.2273H13.3321V12.3701V12.5129H13.9568V12.3701ZM15.2895 12.056V11.9132H15.1467V12.056H15.2895ZM15.6393 12.056H15.7821V11.9132H15.6393V12.056ZM16.91 12.056V11.9132H16.7673V12.056H16.91ZM17.2634 12.056H17.4062V11.9132H17.2634V12.056ZM15.2895 13.7194H15.4323V12.056H15.2895H15.1467V13.7194H15.2895ZM15.2895 12.056V12.1988H15.6393V12.056V11.9132H15.2895V12.056ZM15.6393 12.056H15.4965V13.6979H15.6393H15.7821V12.056H15.6393ZM15.6393 13.6979H15.4965C15.4965 13.9305 15.5611 14.132 15.7037 14.2752C15.8463 14.4185 16.0471 14.4832 16.2782 14.4832V14.3405V14.1977C16.0989 14.1977 15.9802 14.1482 15.906 14.0737C15.8318 13.9992 15.7821 13.8794 15.7821 13.6979H15.6393ZM16.2782 14.3405V14.4832C16.5085 14.4832 16.7077 14.417 16.8487 14.273C16.9893 14.1295 17.0528 13.9285 17.0528 13.6979H16.91H16.7673C16.7673 13.8779 16.7183 13.9981 16.6447 14.0732C16.5716 14.1479 16.4549 14.1977 16.2782 14.1977V14.3405ZM16.91 13.6979H17.0528V12.056H16.91H16.7673V13.6979H16.91ZM16.91 12.056V12.1988H17.2634V12.056V11.9132H16.91V12.056ZM17.2634 12.056H17.1206V13.7194H17.2634H17.4062V12.056H17.2634ZM17.2634 13.7194H17.1206C17.1206 13.9846 17.0367 14.1851 16.8988 14.3194C16.7604 14.4541 16.5528 14.5368 16.2782 14.5368V14.6796V14.8223C16.6105 14.8223 16.8955 14.7212 17.098 14.5239C17.301 14.3263 17.4062 14.0467 17.4062 13.7194H17.2634ZM16.2782 14.6796V14.5368C16.0013 14.5368 15.7929 14.4546 15.6543 14.3204C15.5163 14.1868 15.4323 13.9865 15.4323 13.7194H15.2895H15.1467C15.1467 14.0483 15.2518 14.3281 15.4556 14.5256C15.6589 14.7224 15.9448 14.8223 16.2782 14.8223V14.6796ZM17.5952 12.3772H17.4524V12.52H17.5952V12.3772ZM17.5952 12.056V11.9132H17.4524V12.056H17.5952ZM19.4977 12.056H19.6405V11.9132H19.4977V12.056ZM19.4977 12.3772V12.52H19.6405V12.3772H19.4977ZM18.7231 12.3772V12.2345H18.5803V12.3772H18.7231ZM18.7231 14.6367V14.7795H18.8659V14.6367H18.7231ZM18.3733 14.6367H18.2305V14.7795H18.3733V14.6367ZM18.3733 12.3772H18.5161V12.2345H18.3733V12.3772ZM17.5952 12.3772H17.7379V12.056H17.5952H17.4524V12.3772H17.5952ZM17.5952 12.056V12.1988H19.4977V12.056V11.9132H17.5952V12.056ZM19.4977 12.056H19.3549V12.3772H19.4977H19.6405V12.056H19.4977ZM19.4977 12.3772V12.2345H18.7231V12.3772V12.52H19.4977V12.3772ZM18.7231 12.3772H18.5803V14.6367H18.7231H18.8659V12.3772H18.7231ZM18.7231 14.6367V14.4939H18.3733V14.6367V14.7795H18.7231V14.6367ZM18.3733 14.6367H18.5161V12.3772H18.3733H18.2305V14.6367H18.3733ZM18.3733 12.3772V12.2345H17.5952V12.3772V12.52H18.3733V12.3772ZM20.1992 14.6367V14.7795H20.3419V14.6367H20.1992ZM19.8494 14.6367H19.7066V14.7795H19.8494V14.6367ZM19.8494 12.056V11.9132H19.7066V12.056H19.8494ZM20.1992 12.056H20.3419V11.9132H20.1992V12.056ZM20.1992 13.1661H20.0564V13.3089H20.1992V13.1661ZM21.477 13.1661V13.3089H21.6198V13.1661H21.477ZM21.477 12.056V11.9132H21.3343V12.056H21.477ZM21.8269 12.056H21.9696V11.9132H21.8269V12.056ZM21.8269 14.6367V14.7795H21.9696V14.6367H21.8269ZM21.477 14.6367H21.3343V14.7795H21.477V14.6367ZM21.477 13.4909H21.6198V13.3481H21.477V13.4909ZM20.1992 13.4909V13.3481H20.0564V13.4909H20.1992ZM20.1992 14.6367V14.4939H19.8494V14.6367V14.7795H20.1992V14.6367ZM19.8494 14.6367H19.9921V12.056H19.8494H19.7066V14.6367H19.8494ZM19.8494 12.056V12.1988H20.1992V12.056V11.9132H19.8494V12.056ZM20.1992 12.056H20.0564V13.1661H20.1992H20.3419V12.056H20.1992ZM20.1992 13.1661V13.3089H21.477V13.1661V13.0233H20.1992V13.1661ZM21.477 13.1661H21.6198V12.056H21.477H21.3343V13.1661H21.477ZM21.477 12.056V12.1988H21.8269V12.056V11.9132H21.477V12.056ZM21.8269 12.056H21.6841V14.6367H21.8269H21.9696V12.056H21.8269ZM21.8269 14.6367V14.4939H21.477V14.6367V14.7795H21.8269V14.6367ZM21.477 14.6367H21.6198V13.4909H21.477H21.3343V14.6367H21.477ZM21.477 13.4909V13.3481H20.1992V13.4909V13.6337H21.477V13.4909ZM20.1992 13.4909H20.0564V14.6367H20.1992H20.3419V13.4909H20.1992ZM11.3654 18.3446H11.2226C11.2226 18.7058 11.1048 19.0033 10.9126 19.2091C10.721 19.4142 10.4481 19.5368 10.1197 19.5368V19.6796V19.8223C10.5229 19.8223 10.8729 19.67 11.1213 19.404C11.369 19.1386 11.5082 18.7686 11.5082 18.3446H11.3654ZM10.1197 19.6796V19.5368C9.79329 19.5368 9.52324 19.4145 9.33393 19.2096C9.14383 19.004 9.0274 18.7064 9.0274 18.3446H8.88462H8.74184C8.74184 18.768 8.87884 19.138 9.12422 19.4035C9.37038 19.6698 9.71785 19.8223 10.1197 19.8223V19.6796ZM8.88462 18.3446H9.0274C9.0274 17.9849 9.14448 17.6873 9.33561 17.481C9.526 17.2754 9.79708 17.1524 10.1232 17.1524V17.0096V16.8668C9.7212 16.8668 9.37298 17.0204 9.12611 17.2869C8.87998 17.5526 8.74184 17.9225 8.74184 18.3446H8.88462ZM10.1232 17.0096V17.1524C10.4516 17.1524 10.7236 17.2749 10.9142 17.4798C11.1055 17.6856 11.2226 17.983 11.2226 18.3446H11.3654H11.5082C11.5082 17.9208 11.3701 17.5508 11.1233 17.2854C10.8757 17.0192 10.5266 16.8668 10.1232 16.8668V17.0096ZM10.9977 18.3446H11.1405C11.1405 18.0175 11.0449 17.7327 10.8645 17.5275C10.6825 17.3206 10.4238 17.2059 10.1232 17.2059V17.3487V17.4915C10.3473 17.4915 10.5259 17.5749 10.65 17.716C10.7757 17.8589 10.855 18.0719 10.855 18.3446H10.9977ZM10.1232 17.3487V17.2059C9.82255 17.2059 9.56459 17.3207 9.3835 17.5278C9.20398 17.7331 9.1095 18.0179 9.1095 18.3446H9.25228H9.39505C9.39505 18.0716 9.47369 17.8584 9.59847 17.7157C9.72168 17.5748 9.8992 17.4915 10.1232 17.4915V17.3487ZM9.25228 18.3446H9.1095C9.1095 18.6712 9.20396 18.9568 9.38326 19.1629C9.56417 19.3708 9.82213 19.4868 10.1232 19.4868V19.344V19.2012C9.89962 19.2012 9.7221 19.1173 9.59871 18.9755C9.47371 18.8318 9.39505 18.6176 9.39505 18.3446H9.25228ZM10.1232 19.344V19.4868C10.4246 19.4868 10.6833 19.3697 10.8648 19.1617C11.0449 18.9554 11.1405 18.67 11.1405 18.3446H10.9977H10.855C10.855 18.6153 10.7757 18.8295 10.6497 18.9739C10.5252 19.1166 10.3465 19.2012 10.1232 19.2012V19.344ZM12.1626 19.6367V19.7795H12.3054V19.6367H12.1626ZM11.8128 19.6367H11.67V19.7795H11.8128V19.6367ZM11.8128 17.056V16.9132H11.67V17.056H11.8128ZM13.1692 18.548L13.1254 18.4121L12.9694 18.4624L13.0406 18.61L13.1692 18.548ZM13.6939 19.6367V19.7795H13.9212L13.8225 19.5747L13.6939 19.6367ZM13.3049 19.6367L13.1757 19.6977L13.2144 19.7795H13.3049V19.6367ZM12.823 18.6158L12.9521 18.5549L12.9135 18.4731H12.823V18.6158ZM12.1626 18.6158V18.4731H12.0198V18.6158H12.1626ZM12.1626 17.3701V17.2273H12.0198V17.3701H12.1626ZM12.1626 18.3053H12.0198V18.4481H12.1626V18.3053ZM12.1626 19.6367V19.4939H11.8128V19.6367V19.7795H12.1626V19.6367ZM11.8128 19.6367H11.9556V17.056H11.8128H11.67V19.6367H11.8128ZM11.8128 17.056V17.1988H12.7873V17.056V16.9132H11.8128V17.056ZM12.7873 17.056V17.1988C13.0399 17.1988 13.2231 17.2655 13.3411 17.3697C13.4569 17.4718 13.5262 17.6238 13.5262 17.8306H13.6689H13.8117C13.8117 17.5554 13.7168 17.3202 13.53 17.1555C13.3456 16.9928 13.0879 16.9132 12.7873 16.9132V17.056ZM13.6689 17.8306H13.5262C13.5262 17.985 13.4877 18.1088 13.4224 18.2028C13.3573 18.2962 13.2596 18.3689 13.1254 18.4121L13.1692 18.548L13.213 18.6839C13.4001 18.6237 13.5522 18.5161 13.6567 18.3659C13.7609 18.2162 13.8117 18.033 13.8117 17.8306H13.6689ZM13.1692 18.548L13.0406 18.61L13.5653 19.6987L13.6939 19.6367L13.8225 19.5747L13.2978 18.486L13.1692 18.548ZM13.6939 19.6367V19.4939H13.3049V19.6367V19.7795H13.6939V19.6367ZM13.3049 19.6367L13.434 19.5758L12.9521 18.5549L12.823 18.6158L12.6939 18.6768L13.1757 19.6977L13.3049 19.6367ZM12.823 18.6158V18.4731H12.1626V18.6158V18.7586H12.823V18.6158ZM12.1626 18.6158H12.0198V19.6367H12.1626H12.3054V18.6158H12.1626ZM12.1626 17.3701H12.0198V18.3053H12.1626H12.3054V17.3701H12.1626ZM12.1626 18.3053V18.4481H12.7909V18.3053V18.1625H12.1626V18.3053ZM12.7909 18.3053V18.4481C12.9779 18.4481 13.1443 18.3975 13.265 18.2855C13.3872 18.172 13.4441 18.0129 13.4441 17.8341H13.3013H13.1585C13.1585 17.9517 13.1226 18.0281 13.0707 18.0762C13.0175 18.1256 12.9286 18.1625 12.7909 18.1625V18.3053ZM13.3013 17.8341H13.4441C13.4441 17.6523 13.3845 17.494 13.2596 17.383C13.1372 17.2742 12.9707 17.2273 12.7873 17.2273V17.3701V17.5129C12.9252 17.5129 13.0156 17.5481 13.0699 17.5964C13.1217 17.6425 13.1585 17.7162 13.1585 17.8341H13.3013ZM12.7873 17.3701V17.2273H12.1626V17.3701V17.5129H12.7873V17.3701ZM15.1243 19.6367H14.9816V19.7795H15.1243V19.6367ZM15.1243 17.056V16.9132H14.9816V17.056H15.1243ZM15.4741 17.3772V17.2345H15.3314V17.3772H15.4741ZM15.4741 19.3119H15.3314V19.4547H15.4741V19.3119ZM15.9774 19.6367V19.4939H15.1243V19.6367V19.7795H15.9774V19.6367ZM15.1243 19.6367H15.2671V17.056H15.1243H14.9816V19.6367H15.1243ZM15.1243 17.056V17.1988H15.9632V17.056V16.9132H15.1243V17.056ZM15.9632 17.056V17.1988C16.3157 17.1988 16.6008 17.3173 16.7974 17.5139C16.994 17.7105 17.1125 17.9956 17.1125 18.3481H17.2553H17.3981C17.3981 17.9297 17.2561 17.5687 16.9993 17.312C16.7426 17.0552 16.3816 16.9132 15.9632 16.9132V17.056ZM17.2553 18.3481H17.1125C17.1125 18.6993 16.9955 18.9837 16.8014 19.1798C16.6074 19.3757 16.326 19.4939 15.9774 19.4939V19.6367V19.7795C16.3927 19.7795 16.7503 19.6372 17.0043 19.3807C17.2581 19.1243 17.3981 18.7644 17.3981 18.3481H17.2553ZM15.9382 17.3772V17.2345H15.4741V17.3772V17.52H15.9382V17.3772ZM15.4741 17.3772H15.3314V19.3119H15.4741H15.6169V17.3772H15.4741ZM15.4741 19.3119V19.4547H15.9525V19.3119V19.1691H15.4741V19.3119ZM15.9525 19.3119V19.4547C16.2712 19.4547 16.5453 19.351 16.7395 19.1519C16.9334 18.9532 17.034 18.6738 17.034 18.3481H16.8912H16.7485C16.7485 18.615 16.667 18.8174 16.5352 18.9525C16.4037 19.0872 16.2084 19.1691 15.9525 19.1691V19.3119ZM16.8912 18.3481H17.034C17.034 18.0193 16.9337 17.7377 16.7375 17.5378C16.541 17.3376 16.2632 17.2345 15.9382 17.2345V17.3772V17.52C16.2021 17.52 16.4009 17.6025 16.5337 17.7378C16.6667 17.8734 16.7485 18.0773 16.7485 18.3481H16.8912ZM17.6924 19.6367V19.7795H17.7932L17.8269 19.6846L17.6924 19.6367ZM17.3283 19.6367L17.1942 19.5877L17.1242 19.7795H17.3283V19.6367ZM18.2707 17.056V16.9132H18.1708L18.1365 17.007L18.2707 17.056ZM18.6597 17.056L18.7938 17.0069L18.7595 16.9132H18.6597V17.056ZM19.6056 19.6367V19.7795H19.81L19.7397 19.5876L19.6056 19.6367ZM19.238 19.6367L19.1037 19.6852L19.1377 19.7795H19.238V19.6367ZM19.006 18.9942L19.1403 18.9457L19.1062 18.8514H19.006V18.9942ZM17.9209 18.9942V18.8514H17.8201L17.7863 18.9464L17.9209 18.9942ZM18.4206 17.6128L18.5548 17.6617L18.556 17.658L18.4206 17.6128ZM18.0279 18.6908L17.8938 18.6419L17.824 18.8336H18.0279V18.6908ZM18.9025 18.6908V18.8336H19.1071L19.0365 18.6416L18.9025 18.6908ZM18.5062 17.6128L18.3718 17.6609L18.3722 17.6621L18.5062 17.6128ZM18.4634 17.4629L18.6039 17.4374L18.3234 17.4349L18.4634 17.4629ZM17.6924 19.6367V19.4939H17.3283V19.6367V19.7795H17.6924V19.6367ZM17.3283 19.6367L17.4624 19.6857L18.4048 17.105L18.2707 17.056L18.1365 17.007L17.1942 19.5877L17.3283 19.6367ZM18.2707 17.056V17.1988H18.6597V17.056V16.9132H18.2707V17.056ZM18.6597 17.056L18.5257 17.1051L19.4716 19.6859L19.6056 19.6367L19.7397 19.5876L18.7938 17.0069L18.6597 17.056ZM19.6056 19.6367V19.4939H19.238V19.6367V19.7795H19.6056V19.6367ZM19.238 19.6367L19.3723 19.5882L19.1403 18.9457L19.006 18.9942L18.8717 19.0427L19.1037 19.6852L19.238 19.6367ZM19.006 18.9942V18.8514H17.9209V18.9942V19.137H19.006V18.9942ZM17.9209 18.9942L17.7863 18.9464L17.5579 19.5889L17.6924 19.6367L17.8269 19.6846L18.0554 19.042L17.9209 18.9942ZM18.4206 17.6128L18.2864 17.564L17.8938 18.6419L18.0279 18.6908L18.1621 18.7397L18.5547 17.6617L18.4206 17.6128ZM18.0279 18.6908V18.8336H18.9025V18.6908V18.548H18.0279V18.6908ZM18.9025 18.6908L19.0365 18.6416L18.6403 17.5636L18.5062 17.6128L18.3722 17.6621L18.7684 18.7401L18.9025 18.6908ZM18.5062 17.6128L18.6407 17.5648C18.6241 17.5183 18.6091 17.4658 18.6039 17.4374L18.4634 17.4629L18.3229 17.4885C18.332 17.5385 18.3527 17.6074 18.3718 17.6608L18.5062 17.6128ZM18.4634 17.4629L18.3234 17.4349C18.3181 17.4615 18.3026 17.5153 18.2851 17.5677L18.4206 17.6128L18.556 17.658C18.5743 17.6033 18.5945 17.5357 18.6034 17.4909L18.4634 17.4629ZM20.2985 19.6367V19.7795H20.4413V19.6367H20.2985ZM19.9487 19.6367H19.8059V19.7795H19.9487V19.6367ZM19.9487 17.056V16.9132H19.8059V17.056H19.9487ZM21.3051 18.548L21.2613 18.4121L21.1053 18.4624L21.1765 18.61L21.3051 18.548ZM21.8298 19.6367V19.7795H22.0571L21.9584 19.5747L21.8298 19.6367ZM21.4407 19.6367L21.3116 19.6977L21.3503 19.7795H21.4407V19.6367ZM20.9589 18.6158L21.088 18.5549L21.0494 18.4731H20.9589V18.6158ZM20.2985 18.6158V18.4731H20.1557V18.6158H20.2985ZM20.2985 17.3701V17.2273H20.1557V17.3701H20.2985ZM20.2985 18.3053H20.1557V18.4481H20.2985V18.3053ZM20.2985 19.6367V19.4939H19.9487V19.6367V19.7795H20.2985V19.6367ZM19.9487 19.6367H20.0915V17.056H19.9487H19.8059V19.6367H19.9487ZM19.9487 17.056V17.1988H20.9232V17.056V16.9132H19.9487V17.056ZM20.9232 17.056V17.1988C21.1758 17.1988 21.359 17.2655 21.477 17.3697C21.5928 17.4718 21.6621 17.6238 21.6621 17.8306H21.8048H21.9476C21.9476 17.5554 21.8526 17.3202 21.6659 17.1555C21.4815 16.9928 21.2238 16.9132 20.9232 16.9132V17.056ZM21.8048 17.8306H21.6621C21.6621 17.985 21.6236 18.1088 21.5583 18.2028C21.4932 18.2962 21.3955 18.3689 21.2613 18.4121L21.3051 18.548L21.3489 18.6839C21.536 18.6237 21.6881 18.5161 21.7926 18.3659C21.8968 18.2162 21.9476 18.033 21.9476 17.8306H21.8048ZM21.3051 18.548L21.1765 18.61L21.7012 19.6987L21.8298 19.6367L21.9584 19.5747L21.4337 18.486L21.3051 18.548ZM21.8298 19.6367V19.4939H21.4407V19.6367V19.7795H21.8298V19.6367ZM21.4407 19.6367L21.5699 19.5758L21.088 18.5549L20.9589 18.6158L20.8298 18.6768L21.3116 19.6977L21.4407 19.6367ZM20.9589 18.6158V18.4731H20.2985V18.6158V18.7586H20.9589V18.6158ZM20.2985 18.6158H20.1557V19.6367H20.2985H20.4413V18.6158H20.2985ZM20.2985 17.3701H20.1557V18.3053H20.2985H20.4413V17.3701H20.2985ZM20.2985 18.3053V18.4481H20.9267V18.3053V18.1625H20.2985V18.3053ZM20.9267 18.3053V18.4481C21.1138 18.4481 21.2802 18.3975 21.4009 18.2855C21.5231 18.172 21.58 18.0129 21.58 17.8341H21.4372H21.2944C21.2944 17.9517 21.2585 18.0281 21.2066 18.0762C21.1534 18.1256 21.0645 18.1625 20.9267 18.1625V18.3053ZM21.4372 17.8341H21.58C21.58 17.6523 21.5204 17.494 21.3955 17.383C21.2731 17.2742 21.1065 17.2273 20.9232 17.2273V17.3701V17.5129C21.0611 17.5129 21.1515 17.5481 21.2058 17.5964C21.2576 17.6425 21.2944 17.7162 21.2944 17.8341H21.4372ZM20.9232 17.3701V17.2273H20.2985V17.3701V17.5129H20.9232V17.3701ZM23.8583 19.6367V19.7795H24.0011V19.6367H23.8583ZM22.2842 19.6367H22.1414V19.7795H22.2842V19.6367ZM22.2842 17.056V16.9132H22.1414V17.056H22.2842ZM23.8583 17.056H24.0011V16.9132H23.8583V17.056ZM23.8583 17.3772V17.52H24.0011V17.3772H23.8583ZM22.634 17.3772V17.2345H22.4912V17.3772H22.634ZM22.634 18.1839H22.4912V18.3267H22.634V18.1839ZM23.737 18.1839H23.8798V18.0412H23.737V18.1839ZM23.737 18.4945V18.6373H23.8798V18.4945H23.737ZM22.634 18.4945V18.3517H22.4912V18.4945H22.634ZM22.634 19.3119H22.4912V19.4547H22.634V19.3119ZM23.8583 19.3119H24.0011V19.1691H23.8583V19.3119ZM23.8583 19.6367V19.4939H22.2842V19.6367V19.7795H23.8583V19.6367ZM22.2842 19.6367H22.427V17.056H22.2842H22.1414V19.6367H22.2842ZM22.2842 17.056V17.1988H23.8583V17.056V16.9132H22.2842V17.056ZM23.8583 17.056H23.7156V17.3772H23.8583H24.0011V17.056H23.8583ZM23.8583 17.3772V17.2345H22.634V17.3772V17.52H23.8583V17.3772ZM22.634 17.3772H22.4912V18.1839H22.634H22.7768V17.3772H22.634ZM22.634 18.1839V18.3267H23.737V18.1839V18.0412H22.634V18.1839ZM23.737 18.1839H23.5942V18.4945H23.737H23.8798V18.1839H23.737ZM23.737 18.4945V18.3517H22.634V18.4945V18.6373H23.737V18.4945ZM22.634 18.4945H22.4912V19.3119H22.634H22.7768V18.4945H22.634ZM22.634 19.3119V19.4547H23.8583V19.3119V19.1691H22.634V19.3119ZM23.8583 19.3119H23.7156V19.6367H23.8583H24.0011V19.3119H23.8583Z" fill="black" mask="url(#path-24-outside-1_1091_375)"/>
<mask id="path-26-outside-2_1091_375" maskUnits="userSpaceOnUse" x="7.78125" y="11.4941" width="17" height="9" fill="black">
<rect fill="white" x="7.78125" y="11.4941" width="17" height="9"/>
<path d="M10.7281 12.2347V11.9134H12.6306V12.2347H11.8561V14.4941H11.5062V12.2347H10.7281ZM13.3321 14.4941H12.9823V11.9134H13.9568C14.51 11.9134 14.8384 12.2061 14.8384 12.688C14.8384 13.0449 14.66 13.3019 14.3387 13.4055L14.8634 14.4941H14.4743L13.9925 13.4733H13.3321V14.4941ZM13.3321 12.2275V13.1627H13.9603C14.2852 13.1627 14.4708 12.9878 14.4708 12.6916C14.4708 12.3917 14.278 12.2275 13.9568 12.2275H13.3321ZM15.2895 13.5768V11.9134H15.6393V13.5554C15.6393 13.9694 15.8678 14.1979 16.2782 14.1979C16.6852 14.1979 16.91 13.9659 16.91 13.5554V11.9134H17.2634V13.5768C17.2634 14.1693 16.8851 14.537 16.2782 14.537C15.6679 14.537 15.2895 14.1729 15.2895 13.5768ZM17.5952 12.2347V11.9134H19.4977V12.2347H18.7231V14.4941H18.3733V12.2347H17.5952ZM20.1992 14.4941H19.8494V11.9134H20.1992V13.0235H21.477V11.9134H21.8269V14.4941H21.477V13.3483H20.1992V14.4941ZM11.3654 18.202C11.3654 18.9873 10.8514 19.537 10.1197 19.537C9.39148 19.537 8.88462 18.9873 8.88462 18.202C8.88462 17.4203 9.39505 16.867 10.1232 16.867C10.855 16.867 11.3654 17.4167 11.3654 18.202ZM10.9977 18.202C10.9977 17.6023 10.6479 17.2061 10.1232 17.2061C9.59851 17.2061 9.25228 17.6023 9.25228 18.202C9.25228 18.8017 9.59851 19.2014 10.1232 19.2014C10.6479 19.2014 10.9977 18.7981 10.9977 18.202ZM12.1626 19.4941H11.8128V16.9134H12.7873C13.3406 16.9134 13.6689 17.2061 13.6689 17.688C13.6689 18.0449 13.4905 18.3019 13.1692 18.4055L13.6939 19.4941H13.3049L12.823 18.4733H12.1626V19.4941ZM12.1626 17.2275V18.1627H12.7909C13.1157 18.1627 13.3013 17.9878 13.3013 17.6916C13.3013 17.3917 13.1085 17.2275 12.7873 17.2275H12.1626ZM15.9774 19.4941H15.1243V16.9134H15.9632C16.7342 16.9134 17.2553 17.4346 17.2553 18.2056C17.2553 18.973 16.7413 19.4941 15.9774 19.4941ZM15.9382 17.2347H15.4741V19.1693H15.9525C16.5271 19.1693 16.8912 18.7981 16.8912 18.2056C16.8912 17.6059 16.5271 17.2347 15.9382 17.2347ZM17.6924 19.4941H17.3283L18.2707 16.9134H18.6597L19.6056 19.4941H19.238L19.006 18.8516H17.9209L17.6924 19.4941ZM18.4206 17.4702L18.0279 18.5482H18.9025L18.5062 17.4702C18.4884 17.4203 18.4706 17.3596 18.4634 17.3203C18.4563 17.356 18.4384 17.4167 18.4206 17.4702ZM20.2985 19.4941H19.9487V16.9134H20.9232C21.4764 16.9134 21.8048 17.2061 21.8048 17.688C21.8048 18.0449 21.6264 18.3019 21.3051 18.4055L21.8298 19.4941H21.4407L20.9589 18.4733H20.2985V19.4941ZM20.2985 17.2275V18.1627H20.9267C21.2516 18.1627 21.4372 17.9878 21.4372 17.6916C21.4372 17.3917 21.2444 17.2275 20.9232 17.2275H20.2985ZM23.8583 19.4941H22.2842V16.9134H23.8583V17.2347H22.634V18.0414H23.737V18.3519H22.634V19.1693H23.8583V19.4941Z"/>
</mask>
<path d="M10.7281 12.2347V11.9134H12.6306V12.2347H11.8561V14.4941H11.5062V12.2347H10.7281ZM13.3321 14.4941H12.9823V11.9134H13.9568C14.51 11.9134 14.8384 12.2061 14.8384 12.688C14.8384 13.0449 14.66 13.3019 14.3387 13.4055L14.8634 14.4941H14.4743L13.9925 13.4733H13.3321V14.4941ZM13.3321 12.2275V13.1627H13.9603C14.2852 13.1627 14.4708 12.9878 14.4708 12.6916C14.4708 12.3917 14.278 12.2275 13.9568 12.2275H13.3321ZM15.2895 13.5768V11.9134H15.6393V13.5554C15.6393 13.9694 15.8678 14.1979 16.2782 14.1979C16.6852 14.1979 16.91 13.9659 16.91 13.5554V11.9134H17.2634V13.5768C17.2634 14.1693 16.8851 14.537 16.2782 14.537C15.6679 14.537 15.2895 14.1729 15.2895 13.5768ZM17.5952 12.2347V11.9134H19.4977V12.2347H18.7231V14.4941H18.3733V12.2347H17.5952ZM20.1992 14.4941H19.8494V11.9134H20.1992V13.0235H21.477V11.9134H21.8269V14.4941H21.477V13.3483H20.1992V14.4941ZM11.3654 18.202C11.3654 18.9873 10.8514 19.537 10.1197 19.537C9.39148 19.537 8.88462 18.9873 8.88462 18.202C8.88462 17.4203 9.39505 16.867 10.1232 16.867C10.855 16.867 11.3654 17.4167 11.3654 18.202ZM10.9977 18.202C10.9977 17.6023 10.6479 17.2061 10.1232 17.2061C9.59851 17.2061 9.25228 17.6023 9.25228 18.202C9.25228 18.8017 9.59851 19.2014 10.1232 19.2014C10.6479 19.2014 10.9977 18.7981 10.9977 18.202ZM12.1626 19.4941H11.8128V16.9134H12.7873C13.3406 16.9134 13.6689 17.2061 13.6689 17.688C13.6689 18.0449 13.4905 18.3019 13.1692 18.4055L13.6939 19.4941H13.3049L12.823 18.4733H12.1626V19.4941ZM12.1626 17.2275V18.1627H12.7909C13.1157 18.1627 13.3013 17.9878 13.3013 17.6916C13.3013 17.3917 13.1085 17.2275 12.7873 17.2275H12.1626ZM15.9774 19.4941H15.1243V16.9134H15.9632C16.7342 16.9134 17.2553 17.4346 17.2553 18.2056C17.2553 18.973 16.7413 19.4941 15.9774 19.4941ZM15.9382 17.2347H15.4741V19.1693H15.9525C16.5271 19.1693 16.8912 18.7981 16.8912 18.2056C16.8912 17.6059 16.5271 17.2347 15.9382 17.2347ZM17.6924 19.4941H17.3283L18.2707 16.9134H18.6597L19.6056 19.4941H19.238L19.006 18.8516H17.9209L17.6924 19.4941ZM18.4206 17.4702L18.0279 18.5482H18.9025L18.5062 17.4702C18.4884 17.4203 18.4706 17.3596 18.4634 17.3203C18.4563 17.356 18.4384 17.4167 18.4206 17.4702ZM20.2985 19.4941H19.9487V16.9134H20.9232C21.4764 16.9134 21.8048 17.2061 21.8048 17.688C21.8048 18.0449 21.6264 18.3019 21.3051 18.4055L21.8298 19.4941H21.4407L20.9589 18.4733H20.2985V19.4941ZM20.2985 17.2275V18.1627H20.9267C21.2516 18.1627 21.4372 17.9878 21.4372 17.6916C21.4372 17.3917 21.2444 17.2275 20.9232 17.2275H20.2985ZM23.8583 19.4941H22.2842V16.9134H23.8583V17.2347H22.634V18.0414H23.737V18.3519H22.634V19.1693H23.8583V19.4941Z" fill="#D39293"/>
<path d="M10.7281 12.2347H10.5853V12.3774H10.7281V12.2347ZM10.7281 11.9134V11.7706H10.5853V11.9134H10.7281ZM12.6306 11.9134H12.7734V11.7706H12.6306V11.9134ZM12.6306 12.2347V12.3774H12.7734V12.2347H12.6306ZM11.8561 12.2347V12.0919H11.7133V12.2347H11.8561ZM11.8561 14.4941V14.6369H11.9988V14.4941H11.8561ZM11.5062 14.4941H11.3635V14.6369H11.5062V14.4941ZM11.5062 12.2347H11.649V12.0919H11.5062V12.2347ZM10.7281 12.2347H10.8709V11.9134H10.7281H10.5853V12.2347H10.7281ZM10.7281 11.9134V12.0562H12.6306V11.9134V11.7706H10.7281V11.9134ZM12.6306 11.9134H12.4879V12.2347H12.6306H12.7734V11.9134H12.6306ZM12.6306 12.2347V12.0919H11.8561V12.2347V12.3774H12.6306V12.2347ZM11.8561 12.2347H11.7133V14.4941H11.8561H11.9988V12.2347H11.8561ZM11.8561 14.4941V14.3514H11.5062V14.4941V14.6369H11.8561V14.4941ZM11.5062 14.4941H11.649V12.2347H11.5062H11.3635V14.4941H11.5062ZM11.5062 12.2347V12.0919H10.7281V12.2347V12.3774H11.5062V12.2347ZM13.3321 14.4941V14.6369H13.4749V14.4941H13.3321ZM12.9823 14.4941H12.8395V14.6369H12.9823V14.4941ZM12.9823 11.9134V11.7706H12.8395V11.9134H12.9823ZM14.3387 13.4055L14.2949 13.2696L14.1389 13.3198L14.2101 13.4674L14.3387 13.4055ZM14.8634 14.4941V14.6369H15.0907L14.992 14.4322L14.8634 14.4941ZM14.4743 14.4941L14.3452 14.5551L14.3839 14.6369H14.4743V14.4941ZM13.9925 13.4733L14.1216 13.4123L14.083 13.3305H13.9925V13.4733ZM13.3321 13.4733V13.3305H13.1893V13.4733H13.3321ZM13.3321 12.2275V12.0847H13.1893V12.2275H13.3321ZM13.3321 13.1627H13.1893V13.3055H13.3321V13.1627ZM13.3321 14.4941V14.3514H12.9823V14.4941V14.6369H13.3321V14.4941ZM12.9823 14.4941H13.1251V11.9134H12.9823H12.8395V14.4941H12.9823ZM12.9823 11.9134V12.0562H13.9568V11.9134V11.7706H12.9823V11.9134ZM13.9568 11.9134V12.0562C14.2094 12.0562 14.3926 12.1229 14.5106 12.2271C14.6264 12.3292 14.6957 12.4813 14.6957 12.688H14.8384H14.9812C14.9812 12.4128 14.8862 12.1776 14.6995 12.0129C14.5151 11.8502 14.2574 11.7706 13.9568 11.7706V11.9134ZM14.8384 12.688H14.6957C14.6957 12.8425 14.6572 12.9662 14.5918 13.0602C14.5268 13.1536 14.4291 13.2263 14.2949 13.2696L14.3387 13.4055L14.3825 13.5413C14.5696 13.4811 14.7217 13.3735 14.8262 13.2233C14.9304 13.0737 14.9812 12.8905 14.9812 12.688H14.8384ZM14.3387 13.4055L14.2101 13.4674L14.7348 14.5561L14.8634 14.4941L14.992 14.4322L14.4673 13.3435L14.3387 13.4055ZM14.8634 14.4941V14.3514H14.4743V14.4941V14.6369H14.8634V14.4941ZM14.4743 14.4941L14.6035 14.4332L14.1216 13.4123L13.9925 13.4733L13.8633 13.5342L14.3452 14.5551L14.4743 14.4941ZM13.9925 13.4733V13.3305H13.3321V13.4733V13.616H13.9925V13.4733ZM13.3321 13.4733H13.1893V14.4941H13.3321H13.4749V13.4733H13.3321ZM13.3321 12.2275H13.1893V13.1627H13.3321H13.4749V12.2275H13.3321ZM13.3321 13.1627V13.3055H13.9603V13.1627V13.0199H13.3321V13.1627ZM13.9603 13.1627V13.3055C14.1474 13.3055 14.3138 13.255 14.4345 13.1429C14.5567 13.0295 14.6136 12.8703 14.6136 12.6916H14.4708H14.328C14.328 12.8091 14.2921 12.8855 14.2402 12.9336C14.187 12.983 14.0981 13.0199 13.9603 13.0199V13.1627ZM14.4708 12.6916H14.6136C14.6136 12.5097 14.554 12.3514 14.4291 12.2404C14.3067 12.1316 14.1401 12.0847 13.9568 12.0847V12.2275V12.3703C14.0947 12.3703 14.1851 12.4055 14.2394 12.4538C14.2912 12.4999 14.328 12.5736 14.328 12.6916H14.4708ZM13.9568 12.2275V12.0847H13.3321V12.2275V12.3703H13.9568V12.2275ZM15.2895 11.9134V11.7706H15.1467V11.9134H15.2895ZM15.6393 11.9134H15.7821V11.7706H15.6393V11.9134ZM16.91 11.9134V11.7706H16.7673V11.9134H16.91ZM17.2634 11.9134H17.4062V11.7706H17.2634V11.9134ZM15.2895 13.5768H15.4323V11.9134H15.2895H15.1467V13.5768H15.2895ZM15.2895 11.9134V12.0562H15.6393V11.9134V11.7706H15.2895V11.9134ZM15.6393 11.9134H15.4965V13.5554H15.6393H15.7821V11.9134H15.6393ZM15.6393 13.5554H15.4965C15.4965 13.788 15.5611 13.9895 15.7037 14.1326C15.8463 14.2759 16.0471 14.3407 16.2782 14.3407V14.1979V14.0551C16.0989 14.0551 15.9802 14.0056 15.906 13.9311C15.8318 13.8566 15.7821 13.7368 15.7821 13.5554H15.6393ZM16.2782 14.1979V14.3407C16.5085 14.3407 16.7077 14.2745 16.8487 14.1305C16.9893 13.9869 17.0528 13.7859 17.0528 13.5554H16.91H16.7673C16.7673 13.7353 16.7183 13.8556 16.6447 13.9306C16.5716 14.0053 16.4549 14.0551 16.2782 14.0551V14.1979ZM16.91 13.5554H17.0528V11.9134H16.91H16.7673V13.5554H16.91ZM16.91 11.9134V12.0562H17.2634V11.9134V11.7706H16.91V11.9134ZM17.2634 11.9134H17.1206V13.5768H17.2634H17.4062V11.9134H17.2634ZM17.2634 13.5768H17.1206C17.1206 13.842 17.0367 14.0425 16.8988 14.1768C16.7604 14.3115 16.5528 14.3942 16.2782 14.3942V14.537V14.6798C16.6105 14.6798 16.8955 14.5786 17.098 14.3814C17.301 14.1837 17.4062 13.9041 17.4062 13.5768H17.2634ZM16.2782 14.537V14.3942C16.0013 14.3942 15.7929 14.3121 15.6543 14.1779C15.5163 14.0442 15.4323 13.844 15.4323 13.5768H15.2895H15.1467C15.1467 13.9057 15.2518 14.1856 15.4556 14.383C15.6589 14.5798 15.9448 14.6798 16.2782 14.6798V14.537ZM17.5952 12.2347H17.4524V12.3774H17.5952V12.2347ZM17.5952 11.9134V11.7706H17.4524V11.9134H17.5952ZM19.4977 11.9134H19.6405V11.7706H19.4977V11.9134ZM19.4977 12.2347V12.3774H19.6405V12.2347H19.4977ZM18.7231 12.2347V12.0919H18.5803V12.2347H18.7231ZM18.7231 14.4941V14.6369H18.8659V14.4941H18.7231ZM18.3733 14.4941H18.2305V14.6369H18.3733V14.4941ZM18.3733 12.2347H18.5161V12.0919H18.3733V12.2347ZM17.5952 12.2347H17.7379V11.9134H17.5952H17.4524V12.2347H17.5952ZM17.5952 11.9134V12.0562H19.4977V11.9134V11.7706H17.5952V11.9134ZM19.4977 11.9134H19.3549V12.2347H19.4977H19.6405V11.9134H19.4977ZM19.4977 12.2347V12.0919H18.7231V12.2347V12.3774H19.4977V12.2347ZM18.7231 12.2347H18.5803V14.4941H18.7231H18.8659V12.2347H18.7231ZM18.7231 14.4941V14.3514H18.3733V14.4941V14.6369H18.7231V14.4941ZM18.3733 14.4941H18.5161V12.2347H18.3733H18.2305V14.4941H18.3733ZM18.3733 12.2347V12.0919H17.5952V12.2347V12.3774H18.3733V12.2347ZM20.1992 14.4941V14.6369H20.3419V14.4941H20.1992ZM19.8494 14.4941H19.7066V14.6369H19.8494V14.4941ZM19.8494 11.9134V11.7706H19.7066V11.9134H19.8494ZM20.1992 11.9134H20.3419V11.7706H20.1992V11.9134ZM20.1992 13.0235H20.0564V13.1663H20.1992V13.0235ZM21.477 13.0235V13.1663H21.6198V13.0235H21.477ZM21.477 11.9134V11.7706H21.3343V11.9134H21.477ZM21.8269 11.9134H21.9696V11.7706H21.8269V11.9134ZM21.8269 14.4941V14.6369H21.9696V14.4941H21.8269ZM21.477 14.4941H21.3343V14.6369H21.477V14.4941ZM21.477 13.3483H21.6198V13.2056H21.477V13.3483ZM20.1992 13.3483V13.2056H20.0564V13.3483H20.1992ZM20.1992 14.4941V14.3514H19.8494V14.4941V14.6369H20.1992V14.4941ZM19.8494 14.4941H19.9921V11.9134H19.8494H19.7066V14.4941H19.8494ZM19.8494 11.9134V12.0562H20.1992V11.9134V11.7706H19.8494V11.9134ZM20.1992 11.9134H20.0564V13.0235H20.1992H20.3419V11.9134H20.1992ZM20.1992 13.0235V13.1663H21.477V13.0235V12.8807H20.1992V13.0235ZM21.477 13.0235H21.6198V11.9134H21.477H21.3343V13.0235H21.477ZM21.477 11.9134V12.0562H21.8269V11.9134V11.7706H21.477V11.9134ZM21.8269 11.9134H21.6841V14.4941H21.8269H21.9696V11.9134H21.8269ZM21.8269 14.4941V14.3514H21.477V14.4941V14.6369H21.8269V14.4941ZM21.477 14.4941H21.6198V13.3483H21.477H21.3343V14.4941H21.477ZM21.477 13.3483V13.2056H20.1992V13.3483V13.4911H21.477V13.3483ZM20.1992 13.3483H20.0564V14.4941H20.1992H20.3419V13.3483H20.1992ZM11.3654 18.202H11.2226C11.2226 18.5633 11.1048 18.8607 10.9126 19.0665C10.721 19.2717 10.4481 19.3942 10.1197 19.3942V19.537V19.6798C10.5229 19.6798 10.8729 19.5274 11.1213 19.2614C11.369 18.9961 11.5082 18.626 11.5082 18.202H11.3654ZM10.1197 19.537V19.3942C9.79329 19.3942 9.52324 19.2719 9.33393 19.0671C9.14383 18.8614 9.0274 18.5638 9.0274 18.202H8.88462H8.74184C8.74184 18.6254 8.87884 18.9954 9.12422 19.2609C9.37038 19.5272 9.71785 19.6798 10.1197 19.6798V19.537ZM8.88462 18.202H9.0274C9.0274 17.8423 9.14448 17.5447 9.33561 17.3384C9.526 17.1328 9.79708 17.0098 10.1232 17.0098V16.867V16.7242C9.7212 16.7242 9.37298 16.8778 9.12611 17.1443C8.87998 17.4101 8.74184 17.7799 8.74184 18.202H8.88462ZM10.1232 16.867V17.0098C10.4516 17.0098 10.7236 17.1323 10.9142 17.3372C11.1055 17.543 11.2226 17.8404 11.2226 18.202H11.3654H11.5082C11.5082 17.7783 11.3701 17.4082 11.1233 17.1428C10.8757 16.8766 10.5266 16.7242 10.1232 16.7242V16.867ZM10.9977 18.202H11.1405C11.1405 17.8749 11.0449 17.5901 10.8645 17.3849C10.6825 17.178 10.4238 17.0633 10.1232 17.0633V17.2061V17.3489C10.3473 17.3489 10.5259 17.4323 10.65 17.5735C10.7757 17.7163 10.855 17.9294 10.855 18.202H10.9977ZM10.1232 17.2061V17.0633C9.82255 17.0633 9.56459 17.1781 9.3835 17.3852C9.20398 17.5905 9.1095 17.8753 9.1095 18.202H9.25228H9.39505C9.39505 17.929 9.47369 17.7159 9.59847 17.5732C9.72168 17.4322 9.8992 17.3489 10.1232 17.3489V17.2061ZM9.25228 18.202H9.1095C9.1095 18.5286 9.20396 18.8142 9.38326 19.0203C9.56417 19.2283 9.82213 19.3442 10.1232 19.3442V19.2014V19.0587C9.89962 19.0587 9.7221 18.9747 9.59871 18.8329C9.47371 18.6892 9.39505 18.475 9.39505 18.202H9.25228ZM10.1232 19.2014V19.3442C10.4246 19.3442 10.6833 19.2272 10.8648 19.0191C11.0449 18.8128 11.1405 18.5274 11.1405 18.202H10.9977H10.855C10.855 18.4727 10.7757 18.687 10.6497 18.8314C10.5252 18.9741 10.3465 19.0587 10.1232 19.0587V19.2014ZM12.1626 19.4941V19.6369H12.3054V19.4941H12.1626ZM11.8128 19.4941H11.67V19.6369H11.8128V19.4941ZM11.8128 16.9134V16.7706H11.67V16.9134H11.8128ZM13.1692 18.4055L13.1254 18.2696L12.9694 18.3198L13.0406 18.4674L13.1692 18.4055ZM13.6939 19.4941V19.6369H13.9212L13.8225 19.4321L13.6939 19.4941ZM13.3049 19.4941L13.1757 19.5551L13.2144 19.6369H13.3049V19.4941ZM12.823 18.4733L12.9521 18.4123L12.9135 18.3305H12.823V18.4733ZM12.1626 18.4733V18.3305H12.0198V18.4733H12.1626ZM12.1626 17.2275V17.0847H12.0198V17.2275H12.1626ZM12.1626 18.1627H12.0198V18.3055H12.1626V18.1627ZM12.1626 19.4941V19.3514H11.8128V19.4941V19.6369H12.1626V19.4941ZM11.8128 19.4941H11.9556V16.9134H11.8128H11.67V19.4941H11.8128ZM11.8128 16.9134V17.0562H12.7873V16.9134V16.7706H11.8128V16.9134ZM12.7873 16.9134V17.0562C13.0399 17.0562 13.2231 17.1229 13.3411 17.2271C13.4569 17.3292 13.5262 17.4813 13.5262 17.688H13.6689H13.8117C13.8117 17.4128 13.7168 17.1776 13.53 17.0129C13.3456 16.8502 13.0879 16.7706 12.7873 16.7706V16.9134ZM13.6689 17.688H13.5262C13.5262 17.8425 13.4877 17.9662 13.4224 18.0602C13.3573 18.1536 13.2596 18.2263 13.1254 18.2696L13.1692 18.4055L13.213 18.5413C13.4001 18.4811 13.5522 18.3735 13.6567 18.2233C13.7609 18.0737 13.8117 17.8905 13.8117 17.688H13.6689ZM13.1692 18.4055L13.0406 18.4674L13.5653 19.5561L13.6939 19.4941L13.8225 19.4321L13.2978 18.3435L13.1692 18.4055ZM13.6939 19.4941V19.3514H13.3049V19.4941V19.6369H13.6939V19.4941ZM13.3049 19.4941L13.434 19.4332L12.9521 18.4123L12.823 18.4733L12.6939 18.5342L13.1757 19.5551L13.3049 19.4941ZM12.823 18.4733V18.3305H12.1626V18.4733V18.616H12.823V18.4733ZM12.1626 18.4733H12.0198V19.4941H12.1626H12.3054V18.4733H12.1626ZM12.1626 17.2275H12.0198V18.1627H12.1626H12.3054V17.2275H12.1626ZM12.1626 18.1627V18.3055H12.7909V18.1627V18.0199H12.1626V18.1627ZM12.7909 18.1627V18.3055C12.9779 18.3055 13.1443 18.255 13.265 18.1429C13.3872 18.0295 13.4441 17.8703 13.4441 17.6916H13.3013H13.1585C13.1585 17.8091 13.1226 17.8855 13.0707 17.9336C13.0175 17.983 12.9286 18.0199 12.7909 18.0199V18.1627ZM13.3013 17.6916H13.4441C13.4441 17.5097 13.3845 17.3514 13.2596 17.2404C13.1372 17.1316 12.9707 17.0847 12.7873 17.0847V17.2275V17.3703C12.9252 17.3703 13.0156 17.4055 13.0699 17.4538C13.1217 17.4999 13.1585 17.5736 13.1585 17.6916H13.3013ZM12.7873 17.2275V17.0847H12.1626V17.2275V17.3703H12.7873V17.2275ZM15.1243 19.4941H14.9816V19.6369H15.1243V19.4941ZM15.1243 16.9134V16.7706H14.9816V16.9134H15.1243ZM15.4741 17.2347V17.0919H15.3314V17.2347H15.4741ZM15.4741 19.1693H15.3314V19.3121H15.4741V19.1693ZM15.9774 19.4941V19.3514H15.1243V19.4941V19.6369H15.9774V19.4941ZM15.1243 19.4941H15.2671V16.9134H15.1243H14.9816V19.4941H15.1243ZM15.1243 16.9134V17.0562H15.9632V16.9134V16.7706H15.1243V16.9134ZM15.9632 16.9134V17.0562C16.3157 17.0562 16.6008 17.1747 16.7974 17.3713C16.994 17.5679 17.1125 17.853 17.1125 18.2056H17.2553H17.3981C17.3981 17.7871 17.2561 17.4261 16.9993 17.1694C16.7426 16.9127 16.3816 16.7706 15.9632 16.7706V16.9134ZM17.2553 18.2056H17.1125C17.1125 18.5567 16.9955 18.8411 16.8014 19.0372C16.6074 19.2331 16.326 19.3514 15.9774 19.3514V19.4941V19.6369C16.3927 19.6369 16.7503 19.4946 17.0043 19.2381C17.2581 18.9817 17.3981 18.6218 17.3981 18.2056H17.2553ZM15.9382 17.2347V17.0919H15.4741V17.2347V17.3774H15.9382V17.2347ZM15.4741 17.2347H15.3314V19.1693H15.4741H15.6169V17.2347H15.4741ZM15.4741 19.1693V19.3121H15.9525V19.1693V19.0265H15.4741V19.1693ZM15.9525 19.1693V19.3121C16.2712 19.3121 16.5453 19.2084 16.7395 19.0094C16.9334 18.8107 17.034 18.5312 17.034 18.2056H16.8912H16.7485C16.7485 18.4724 16.667 18.6749 16.5352 18.8099C16.4037 18.9446 16.2084 19.0265 15.9525 19.0265V19.1693ZM16.8912 18.2056H17.034C17.034 17.8767 16.9337 17.5952 16.7375 17.3952C16.541 17.195 16.2632 17.0919 15.9382 17.0919V17.2347V17.3774C16.2021 17.3774 16.4009 17.4599 16.5337 17.5952C16.6667 17.7308 16.7485 17.9347 16.7485 18.2056H16.8912ZM17.6924 19.4941V19.6369H17.7932L17.8269 19.542L17.6924 19.4941ZM17.3283 19.4941L17.1942 19.4452L17.1242 19.6369H17.3283V19.4941ZM18.2707 16.9134V16.7706H18.1708L18.1365 16.8644L18.2707 16.9134ZM18.6597 16.9134L18.7938 16.8643L18.7595 16.7706H18.6597V16.9134ZM19.6056 19.4941V19.6369H19.81L19.7397 19.445L19.6056 19.4941ZM19.238 19.4941L19.1037 19.5426L19.1377 19.6369H19.238V19.4941ZM19.006 18.8516L19.1403 18.8031L19.1062 18.7089H19.006V18.8516ZM17.9209 18.8516V18.7089H17.8201L17.7863 18.8038L17.9209 18.8516ZM18.4206 17.4702L18.5548 17.5191L18.556 17.5154L18.4206 17.4702ZM18.0279 18.5482L17.8938 18.4994L17.824 18.691H18.0279V18.5482ZM18.9025 18.5482V18.691H19.1071L19.0365 18.499L18.9025 18.5482ZM18.5062 17.4702L18.3718 17.5183L18.3722 17.5195L18.5062 17.4702ZM18.4634 17.3203L18.6039 17.2948L18.3234 17.2923L18.4634 17.3203ZM17.6924 19.4941V19.3514H17.3283V19.4941V19.6369H17.6924V19.4941ZM17.3283 19.4941L17.4624 19.5431L18.4048 16.9624L18.2707 16.9134L18.1365 16.8644L17.1942 19.4452L17.3283 19.4941ZM18.2707 16.9134V17.0562H18.6597V16.9134V16.7706H18.2707V16.9134ZM18.6597 16.9134L18.5257 16.9625L19.4716 19.5433L19.6056 19.4941L19.7397 19.445L18.7938 16.8643L18.6597 16.9134ZM19.6056 19.4941V19.3514H19.238V19.4941V19.6369H19.6056V19.4941ZM19.238 19.4941L19.3723 19.4456L19.1403 18.8031L19.006 18.8516L18.8717 18.9001L19.1037 19.5426L19.238 19.4941ZM19.006 18.8516V18.7089H17.9209V18.8516V18.9944H19.006V18.8516ZM17.9209 18.8516L17.7863 18.8038L17.5579 19.4463L17.6924 19.4941L17.8269 19.542L18.0554 18.8995L17.9209 18.8516ZM18.4206 17.4702L18.2864 17.4214L17.8938 18.4994L18.0279 18.5482L18.1621 18.5971L18.5547 17.5191L18.4206 17.4702ZM18.0279 18.5482V18.691H18.9025V18.5482V18.4055H18.0279V18.5482ZM18.9025 18.5482L19.0365 18.499L18.6403 17.421L18.5062 17.4702L18.3722 17.5195L18.7684 18.5975L18.9025 18.5482ZM18.5062 17.4702L18.6407 17.4222C18.6241 17.3757 18.6091 17.3232 18.6039 17.2948L18.4634 17.3203L18.3229 17.3459C18.332 17.396 18.3527 17.4648 18.3718 17.5183L18.5062 17.4702ZM18.4634 17.3203L18.3234 17.2923C18.3181 17.319 18.3026 17.3727 18.2851 17.4251L18.4206 17.4702L18.556 17.5154C18.5743 17.4607 18.5945 17.3931 18.6034 17.3483L18.4634 17.3203ZM20.2985 19.4941V19.6369H20.4413V19.4941H20.2985ZM19.9487 19.4941H19.8059V19.6369H19.9487V19.4941ZM19.9487 16.9134V16.7706H19.8059V16.9134H19.9487ZM21.3051 18.4055L21.2613 18.2696L21.1053 18.3198L21.1765 18.4674L21.3051 18.4055ZM21.8298 19.4941V19.6369H22.0571L21.9584 19.4321L21.8298 19.4941ZM21.4407 19.4941L21.3116 19.5551L21.3503 19.6369H21.4407V19.4941ZM20.9589 18.4733L21.088 18.4123L21.0494 18.3305H20.9589V18.4733ZM20.2985 18.4733V18.3305H20.1557V18.4733H20.2985ZM20.2985 17.2275V17.0847H20.1557V17.2275H20.2985ZM20.2985 18.1627H20.1557V18.3055H20.2985V18.1627ZM20.2985 19.4941V19.3514H19.9487V19.4941V19.6369H20.2985V19.4941ZM19.9487 19.4941H20.0915V16.9134H19.9487H19.8059V19.4941H19.9487ZM19.9487 16.9134V17.0562H20.9232V16.9134V16.7706H19.9487V16.9134ZM20.9232 16.9134V17.0562C21.1758 17.0562 21.359 17.1229 21.477 17.2271C21.5928 17.3292 21.6621 17.4813 21.6621 17.688H21.8048H21.9476C21.9476 17.4128 21.8526 17.1776 21.6659 17.0129C21.4815 16.8502 21.2238 16.7706 20.9232 16.7706V16.9134ZM21.8048 17.688H21.6621C21.6621 17.8425 21.6236 17.9662 21.5583 18.0602C21.4932 18.1536 21.3955 18.2263 21.2613 18.2696L21.3051 18.4055L21.3489 18.5413C21.536 18.4811 21.6881 18.3735 21.7926 18.2233C21.8968 18.0737 21.9476 17.8905 21.9476 17.688H21.8048ZM21.3051 18.4055L21.1765 18.4674L21.7012 19.5561L21.8298 19.4941L21.9584 19.4321L21.4337 18.3435L21.3051 18.4055ZM21.8298 19.4941V19.3514H21.4407V19.4941V19.6369H21.8298V19.4941ZM21.4407 19.4941L21.5699 19.4332L21.088 18.4123L20.9589 18.4733L20.8298 18.5342L21.3116 19.5551L21.4407 19.4941ZM20.9589 18.4733V18.3305H20.2985V18.4733V18.616H20.9589V18.4733ZM20.2985 18.4733H20.1557V19.4941H20.2985H20.4413V18.4733H20.2985ZM20.2985 17.2275H20.1557V18.1627H20.2985H20.4413V17.2275H20.2985ZM20.2985 18.1627V18.3055H20.9267V18.1627V18.0199H20.2985V18.1627ZM20.9267 18.1627V18.3055C21.1138 18.3055 21.2802 18.255 21.4009 18.1429C21.5231 18.0295 21.58 17.8703 21.58 17.6916H21.4372H21.2944C21.2944 17.8091 21.2585 17.8855 21.2066 17.9336C21.1534 17.983 21.0645 18.0199 20.9267 18.0199V18.1627ZM21.4372 17.6916H21.58C21.58 17.5097 21.5204 17.3514 21.3955 17.2404C21.2731 17.1316 21.1065 17.0847 20.9232 17.0847V17.2275V17.3703C21.0611 17.3703 21.1515 17.4055 21.2058 17.4538C21.2576 17.4999 21.2944 17.5736 21.2944 17.6916H21.4372ZM20.9232 17.2275V17.0847H20.2985V17.2275V17.3703H20.9232V17.2275ZM23.8583 19.4941V19.6369H24.0011V19.4941H23.8583ZM22.2842 19.4941H22.1414V19.6369H22.2842V19.4941ZM22.2842 16.9134V16.7706H22.1414V16.9134H22.2842ZM23.8583 16.9134H24.0011V16.7706H23.8583V16.9134ZM23.8583 17.2347V17.3774H24.0011V17.2347H23.8583ZM22.634 17.2347V17.0919H22.4912V17.2347H22.634ZM22.634 18.0414H22.4912V18.1841H22.634V18.0414ZM23.737 18.0414H23.8798V17.8986H23.737V18.0414ZM23.737 18.3519V18.4947H23.8798V18.3519H23.737ZM22.634 18.3519V18.2091H22.4912V18.3519H22.634ZM22.634 19.1693H22.4912V19.3121H22.634V19.1693ZM23.8583 19.1693H24.0011V19.0265H23.8583V19.1693ZM23.8583 19.4941V19.3514H22.2842V19.4941V19.6369H23.8583V19.4941ZM22.2842 19.4941H22.427V16.9134H22.2842H22.1414V19.4941H22.2842ZM22.2842 16.9134V17.0562H23.8583V16.9134V16.7706H22.2842V16.9134ZM23.8583 16.9134H23.7156V17.2347H23.8583H24.0011V16.9134H23.8583ZM23.8583 17.2347V17.0919H22.634V17.2347V17.3774H23.8583V17.2347ZM22.634 17.2347H22.4912V18.0414H22.634H22.7768V17.2347H22.634ZM22.634 18.0414V18.1841H23.737V18.0414V17.8986H22.634V18.0414ZM23.737 18.0414H23.5942V18.3519H23.737H23.8798V18.0414H23.737ZM23.737 18.3519V18.2091H22.634V18.3519V18.4947H23.737V18.3519ZM22.634 18.3519H22.4912V19.1693H22.634H22.7768V18.3519H22.634ZM22.634 19.1693V19.3121H23.8583V19.1693V19.0265H22.634V19.1693ZM23.8583 19.1693H23.7156V19.4941H23.8583H24.0011V19.1693H23.8583Z" fill="black" mask="url(#path-26-outside-2_1091_375)"/>
<path d="M10.7281 12.2347H10.5853V12.3774H10.7281V12.2347ZM10.7281 11.9134V11.7706H10.5853V11.9134H10.7281ZM12.6306 11.9134H12.7734V11.7706H12.6306V11.9134ZM12.6306 12.2347V12.3774H12.7734V12.2347H12.6306ZM11.8561 12.2347V12.0919H11.7133V12.2347H11.8561ZM11.8561 14.4941V14.6369H11.9988V14.4941H11.8561ZM11.5062 14.4941H11.3635V14.6369H11.5062V14.4941ZM11.5062 12.2347H11.649V12.0919H11.5062V12.2347ZM10.7281 12.2347H10.8709V11.9134H10.7281H10.5853V12.2347H10.7281ZM10.7281 11.9134V12.0562H12.6306V11.9134V11.7706H10.7281V11.9134ZM12.6306 11.9134H12.4879V12.2347H12.6306H12.7734V11.9134H12.6306ZM12.6306 12.2347V12.0919H11.8561V12.2347V12.3774H12.6306V12.2347ZM11.8561 12.2347H11.7133V14.4941H11.8561H11.9988V12.2347H11.8561ZM11.8561 14.4941V14.3514H11.5062V14.4941V14.6369H11.8561V14.4941ZM11.5062 14.4941H11.649V12.2347H11.5062H11.3635V14.4941H11.5062ZM11.5062 12.2347V12.0919H10.7281V12.2347V12.3774H11.5062V12.2347ZM13.3321 14.4941V14.6369H13.4749V14.4941H13.3321ZM12.9823 14.4941H12.8395V14.6369H12.9823V14.4941ZM12.9823 11.9134V11.7706H12.8395V11.9134H12.9823ZM14.3387 13.4055L14.2949 13.2696L14.1389 13.3198L14.2101 13.4674L14.3387 13.4055ZM14.8634 14.4941V14.6369H15.0907L14.992 14.4322L14.8634 14.4941ZM14.4743 14.4941L14.3452 14.5551L14.3839 14.6369H14.4743V14.4941ZM13.9925 13.4733L14.1216 13.4123L14.083 13.3305H13.9925V13.4733ZM13.3321 13.4733V13.3305H13.1893V13.4733H13.3321ZM13.3321 12.2275V12.0847H13.1893V12.2275H13.3321ZM13.3321 13.1627H13.1893V13.3055H13.3321V13.1627ZM13.3321 14.4941V14.3514H12.9823V14.4941V14.6369H13.3321V14.4941ZM12.9823 14.4941H13.1251V11.9134H12.9823H12.8395V14.4941H12.9823ZM12.9823 11.9134V12.0562H13.9568V11.9134V11.7706H12.9823V11.9134ZM13.9568 11.9134V12.0562C14.2094 12.0562 14.3926 12.1229 14.5106 12.2271C14.6264 12.3292 14.6957 12.4813 14.6957 12.688H14.8384H14.9812C14.9812 12.4128 14.8862 12.1776 14.6995 12.0129C14.5151 11.8502 14.2574 11.7706 13.9568 11.7706V11.9134ZM14.8384 12.688H14.6957C14.6957 12.8425 14.6572 12.9662 14.5918 13.0602C14.5268 13.1536 14.4291 13.2263 14.2949 13.2696L14.3387 13.4055L14.3825 13.5413C14.5696 13.4811 14.7217 13.3735 14.8262 13.2233C14.9304 13.0737 14.9812 12.8905 14.9812 12.688H14.8384ZM14.3387 13.4055L14.2101 13.4674L14.7348 14.5561L14.8634 14.4941L14.992 14.4322L14.4673 13.3435L14.3387 13.4055ZM14.8634 14.4941V14.3514H14.4743V14.4941V14.6369H14.8634V14.4941ZM14.4743 14.4941L14.6035 14.4332L14.1216 13.4123L13.9925 13.4733L13.8633 13.5342L14.3452 14.5551L14.4743 14.4941ZM13.9925 13.4733V13.3305H13.3321V13.4733V13.616H13.9925V13.4733ZM13.3321 13.4733H13.1893V14.4941H13.3321H13.4749V13.4733H13.3321ZM13.3321 12.2275H13.1893V13.1627H13.3321H13.4749V12.2275H13.3321ZM13.3321 13.1627V13.3055H13.9603V13.1627V13.0199H13.3321V13.1627ZM13.9603 13.1627V13.3055C14.1474 13.3055 14.3138 13.255 14.4345 13.1429C14.5567 13.0295 14.6136 12.8703 14.6136 12.6916H14.4708H14.328C14.328 12.8091 14.2921 12.8855 14.2402 12.9336C14.187 12.983 14.0981 13.0199 13.9603 13.0199V13.1627ZM14.4708 12.6916H14.6136C14.6136 12.5097 14.554 12.3514 14.4291 12.2404C14.3067 12.1316 14.1401 12.0847 13.9568 12.0847V12.2275V12.3703C14.0947 12.3703 14.1851 12.4055 14.2394 12.4538C14.2912 12.4999 14.328 12.5736 14.328 12.6916H14.4708ZM13.9568 12.2275V12.0847H13.3321V12.2275V12.3703H13.9568V12.2275ZM15.2895 11.9134V11.7706H15.1467V11.9134H15.2895ZM15.6393 11.9134H15.7821V11.7706H15.6393V11.9134ZM16.91 11.9134V11.7706H16.7673V11.9134H16.91ZM17.2634 11.9134H17.4062V11.7706H17.2634V11.9134ZM15.2895 13.5768H15.4323V11.9134H15.2895H15.1467V13.5768H15.2895ZM15.2895 11.9134V12.0562H15.6393V11.9134V11.7706H15.2895V11.9134ZM15.6393 11.9134H15.4965V13.5554H15.6393H15.7821V11.9134H15.6393ZM15.6393 13.5554H15.4965C15.4965 13.788 15.5611 13.9895 15.7037 14.1326C15.8463 14.2759 16.0471 14.3407 16.2782 14.3407V14.1979V14.0551C16.0989 14.0551 15.9802 14.0056 15.906 13.9311C15.8318 13.8566 15.7821 13.7368 15.7821 13.5554H15.6393ZM16.2782 14.1979V14.3407C16.5085 14.3407 16.7077 14.2745 16.8487 14.1305C16.9893 13.9869 17.0528 13.7859 17.0528 13.5554H16.91H16.7673C16.7673 13.7353 16.7183 13.8556 16.6447 13.9306C16.5716 14.0053 16.4549 14.0551 16.2782 14.0551V14.1979ZM16.91 13.5554H17.0528V11.9134H16.91H16.7673V13.5554H16.91ZM16.91 11.9134V12.0562H17.2634V11.9134V11.7706H16.91V11.9134ZM17.2634 11.9134H17.1206V13.5768H17.2634H17.4062V11.9134H17.2634ZM17.2634 13.5768H17.1206C17.1206 13.842 17.0367 14.0425 16.8988 14.1768C16.7604 14.3115 16.5528 14.3942 16.2782 14.3942V14.537V14.6798C16.6105 14.6798 16.8955 14.5786 17.098 14.3814C17.301 14.1837 17.4062 13.9041 17.4062 13.5768H17.2634ZM16.2782 14.537V14.3942C16.0013 14.3942 15.7929 14.3121 15.6543 14.1779C15.5163 14.0442 15.4323 13.844 15.4323 13.5768H15.2895H15.1467C15.1467 13.9057 15.2518 14.1856 15.4556 14.383C15.6589 14.5798 15.9448 14.6798 16.2782 14.6798V14.537ZM17.5952 12.2347H17.4524V12.3774H17.5952V12.2347ZM17.5952 11.9134V11.7706H17.4524V11.9134H17.5952ZM19.4977 11.9134H19.6405V11.7706H19.4977V11.9134ZM19.4977 12.2347V12.3774H19.6405V12.2347H19.4977ZM18.7231 12.2347V12.0919H18.5803V12.2347H18.7231ZM18.7231 14.4941V14.6369H18.8659V14.4941H18.7231ZM18.3733 14.4941H18.2305V14.6369H18.3733V14.4941ZM18.3733 12.2347H18.5161V12.0919H18.3733V12.2347ZM17.5952 12.2347H17.7379V11.9134H17.5952H17.4524V12.2347H17.5952ZM17.5952 11.9134V12.0562H19.4977V11.9134V11.7706H17.5952V11.9134ZM19.4977 11.9134H19.3549V12.2347H19.4977H19.6405V11.9134H19.4977ZM19.4977 12.2347V12.0919H18.7231V12.2347V12.3774H19.4977V12.2347ZM18.7231 12.2347H18.5803V14.4941H18.7231H18.8659V12.2347H18.7231ZM18.7231 14.4941V14.3514H18.3733V14.4941V14.6369H18.7231V14.4941ZM18.3733 14.4941H18.5161V12.2347H18.3733H18.2305V14.4941H18.3733ZM18.3733 12.2347V12.0919H17.5952V12.2347V12.3774H18.3733V12.2347ZM20.1992 14.4941V14.6369H20.3419V14.4941H20.1992ZM19.8494 14.4941H19.7066V14.6369H19.8494V14.4941ZM19.8494 11.9134V11.7706H19.7066V11.9134H19.8494ZM20.1992 11.9134H20.3419V11.7706H20.1992V11.9134ZM20.1992 13.0235H20.0564V13.1663H20.1992V13.0235ZM21.477 13.0235V13.1663H21.6198V13.0235H21.477ZM21.477 11.9134V11.7706H21.3343V11.9134H21.477ZM21.8269 11.9134H21.9696V11.7706H21.8269V11.9134ZM21.8269 14.4941V14.6369H21.9696V14.4941H21.8269ZM21.477 14.4941H21.3343V14.6369H21.477V14.4941ZM21.477 13.3483H21.6198V13.2056H21.477V13.3483ZM20.1992 13.3483V13.2056H20.0564V13.3483H20.1992ZM20.1992 14.4941V14.3514H19.8494V14.4941V14.6369H20.1992V14.4941ZM19.8494 14.4941H19.9921V11.9134H19.8494H19.7066V14.4941H19.8494ZM19.8494 11.9134V12.0562H20.1992V11.9134V11.7706H19.8494V11.9134ZM20.1992 11.9134H20.0564V13.0235H20.1992H20.3419V11.9134H20.1992ZM20.1992 13.0235V13.1663H21.477V13.0235V12.8807H20.1992V13.0235ZM21.477 13.0235H21.6198V11.9134H21.477H21.3343V13.0235H21.477ZM21.477 11.9134V12.0562H21.8269V11.9134V11.7706H21.477V11.9134ZM21.8269 11.9134H21.6841V14.4941H21.8269H21.9696V11.9134H21.8269ZM21.8269 14.4941V14.3514H21.477V14.4941V14.6369H21.8269V14.4941ZM21.477 14.4941H21.6198V13.3483H21.477H21.3343V14.4941H21.477ZM21.477 13.3483V13.2056H20.1992V13.3483V13.4911H21.477V13.3483ZM20.1992 13.3483H20.0564V14.4941H20.1992H20.3419V13.3483H20.1992ZM11.3654 18.202H11.2226C11.2226 18.5633 11.1048 18.8607 10.9126 19.0665C10.721 19.2717 10.4481 19.3942 10.1197 19.3942V19.537V19.6798C10.5229 19.6798 10.8729 19.5274 11.1213 19.2614C11.369 18.9961 11.5082 18.626 11.5082 18.202H11.3654ZM10.1197 19.537V19.3942C9.79329 19.3942 9.52324 19.2719 9.33393 19.0671C9.14383 18.8614 9.0274 18.5638 9.0274 18.202H8.88462H8.74184C8.74184 18.6254 8.87884 18.9954 9.12422 19.2609C9.37038 19.5272 9.71785 19.6798 10.1197 19.6798V19.537ZM8.88462 18.202H9.0274C9.0274 17.8423 9.14448 17.5447 9.33561 17.3384C9.526 17.1328 9.79708 17.0098 10.1232 17.0098V16.867V16.7242C9.7212 16.7242 9.37298 16.8778 9.12611 17.1443C8.87998 17.4101 8.74184 17.7799 8.74184 18.202H8.88462ZM10.1232 16.867V17.0098C10.4516 17.0098 10.7236 17.1323 10.9142 17.3372C11.1055 17.543 11.2226 17.8404 11.2226 18.202H11.3654H11.5082C11.5082 17.7783 11.3701 17.4082 11.1233 17.1428C10.8757 16.8766 10.5266 16.7242 10.1232 16.7242V16.867ZM10.9977 18.202H11.1405C11.1405 17.8749 11.0449 17.5901 10.8645 17.3849C10.6825 17.178 10.4238 17.0633 10.1232 17.0633V17.2061V17.3489C10.3473 17.3489 10.5259 17.4323 10.65 17.5735C10.7757 17.7163 10.855 17.9294 10.855 18.202H10.9977ZM10.1232 17.2061V17.0633C9.82255 17.0633 9.56459 17.1781 9.3835 17.3852C9.20398 17.5905 9.1095 17.8753 9.1095 18.202H9.25228H9.39505C9.39505 17.929 9.47369 17.7159 9.59847 17.5732C9.72168 17.4322 9.8992 17.3489 10.1232 17.3489V17.2061ZM9.25228 18.202H9.1095C9.1095 18.5286 9.20396 18.8142 9.38326 19.0203C9.56417 19.2283 9.82213 19.3442 10.1232 19.3442V19.2014V19.0587C9.89962 19.0587 9.7221 18.9747 9.59871 18.8329C9.47371 18.6892 9.39505 18.475 9.39505 18.202H9.25228ZM10.1232 19.2014V19.3442C10.4246 19.3442 10.6833 19.2272 10.8648 19.0191C11.0449 18.8128 11.1405 18.5274 11.1405 18.202H10.9977H10.855C10.855 18.4727 10.7757 18.687 10.6497 18.8314C10.5252 18.9741 10.3465 19.0587 10.1232 19.0587V19.2014ZM12.1626 19.4941V19.6369H12.3054V19.4941H12.1626ZM11.8128 19.4941H11.67V19.6369H11.8128V19.4941ZM11.8128 16.9134V16.7706H11.67V16.9134H11.8128ZM13.1692 18.4055L13.1254 18.2696L12.9694 18.3198L13.0406 18.4674L13.1692 18.4055ZM13.6939 19.4941V19.6369H13.9212L13.8225 19.4321L13.6939 19.4941ZM13.3049 19.4941L13.1757 19.5551L13.2144 19.6369H13.3049V19.4941ZM12.823 18.4733L12.9521 18.4123L12.9135 18.3305H12.823V18.4733ZM12.1626 18.4733V18.3305H12.0198V18.4733H12.1626ZM12.1626 17.2275V17.0847H12.0198V17.2275H12.1626ZM12.1626 18.1627H12.0198V18.3055H12.1626V18.1627ZM12.1626 19.4941V19.3514H11.8128V19.4941V19.6369H12.1626V19.4941ZM11.8128 19.4941H11.9556V16.9134H11.8128H11.67V19.4941H11.8128ZM11.8128 16.9134V17.0562H12.7873V16.9134V16.7706H11.8128V16.9134ZM12.7873 16.9134V17.0562C13.0399 17.0562 13.2231 17.1229 13.3411 17.2271C13.4569 17.3292 13.5262 17.4813 13.5262 17.688H13.6689H13.8117C13.8117 17.4128 13.7168 17.1776 13.53 17.0129C13.3456 16.8502 13.0879 16.7706 12.7873 16.7706V16.9134ZM13.6689 17.688H13.5262C13.5262 17.8425 13.4877 17.9662 13.4224 18.0602C13.3573 18.1536 13.2596 18.2263 13.1254 18.2696L13.1692 18.4055L13.213 18.5413C13.4001 18.4811 13.5522 18.3735 13.6567 18.2233C13.7609 18.0737 13.8117 17.8905 13.8117 17.688H13.6689ZM13.1692 18.4055L13.0406 18.4674L13.5653 19.5561L13.6939 19.4941L13.8225 19.4321L13.2978 18.3435L13.1692 18.4055ZM13.6939 19.4941V19.3514H13.3049V19.4941V19.6369H13.6939V19.4941ZM13.3049 19.4941L13.434 19.4332L12.9521 18.4123L12.823 18.4733L12.6939 18.5342L13.1757 19.5551L13.3049 19.4941ZM12.823 18.4733V18.3305H12.1626V18.4733V18.616H12.823V18.4733ZM12.1626 18.4733H12.0198V19.4941H12.1626H12.3054V18.4733H12.1626ZM12.1626 17.2275H12.0198V18.1627H12.1626H12.3054V17.2275H12.1626ZM12.1626 18.1627V18.3055H12.7909V18.1627V18.0199H12.1626V18.1627ZM12.7909 18.1627V18.3055C12.9779 18.3055 13.1443 18.255 13.265 18.1429C13.3872 18.0295 13.4441 17.8703 13.4441 17.6916H13.3013H13.1585C13.1585 17.8091 13.1226 17.8855 13.0707 17.9336C13.0175 17.983 12.9286 18.0199 12.7909 18.0199V18.1627ZM13.3013 17.6916H13.4441C13.4441 17.5097 13.3845 17.3514 13.2596 17.2404C13.1372 17.1316 12.9707 17.0847 12.7873 17.0847V17.2275V17.3703C12.9252 17.3703 13.0156 17.4055 13.0699 17.4538C13.1217 17.4999 13.1585 17.5736 13.1585 17.6916H13.3013ZM12.7873 17.2275V17.0847H12.1626V17.2275V17.3703H12.7873V17.2275ZM15.1243 19.4941H14.9816V19.6369H15.1243V19.4941ZM15.1243 16.9134V16.7706H14.9816V16.9134H15.1243ZM15.4741 17.2347V17.0919H15.3314V17.2347H15.4741ZM15.4741 19.1693H15.3314V19.3121H15.4741V19.1693ZM15.9774 19.4941V19.3514H15.1243V19.4941V19.6369H15.9774V19.4941ZM15.1243 19.4941H15.2671V16.9134H15.1243H14.9816V19.4941H15.1243ZM15.1243 16.9134V17.0562H15.9632V16.9134V16.7706H15.1243V16.9134ZM15.9632 16.9134V17.0562C16.3157 17.0562 16.6008 17.1747 16.7974 17.3713C16.994 17.5679 17.1125 17.853 17.1125 18.2056H17.2553H17.3981C17.3981 17.7871 17.2561 17.4261 16.9993 17.1694C16.7426 16.9127 16.3816 16.7706 15.9632 16.7706V16.9134ZM17.2553 18.2056H17.1125C17.1125 18.5567 16.9955 18.8411 16.8014 19.0372C16.6074 19.2331 16.326 19.3514 15.9774 19.3514V19.4941V19.6369C16.3927 19.6369 16.7503 19.4946 17.0043 19.2381C17.2581 18.9817 17.3981 18.6218 17.3981 18.2056H17.2553ZM15.9382 17.2347V17.0919H15.4741V17.2347V17.3774H15.9382V17.2347ZM15.4741 17.2347H15.3314V19.1693H15.4741H15.6169V17.2347H15.4741ZM15.4741 19.1693V19.3121H15.9525V19.1693V19.0265H15.4741V19.1693ZM15.9525 19.1693V19.3121C16.2712 19.3121 16.5453 19.2084 16.7395 19.0094C16.9334 18.8107 17.034 18.5312 17.034 18.2056H16.8912H16.7485C16.7485 18.4724 16.667 18.6749 16.5352 18.8099C16.4037 18.9446 16.2084 19.0265 15.9525 19.0265V19.1693ZM16.8912 18.2056H17.034C17.034 17.8767 16.9337 17.5952 16.7375 17.3952C16.541 17.195 16.2632 17.0919 15.9382 17.0919V17.2347V17.3774C16.2021 17.3774 16.4009 17.4599 16.5337 17.5952C16.6667 17.7308 16.7485 17.9347 16.7485 18.2056H16.8912ZM17.6924 19.4941V19.6369H17.7932L17.8269 19.542L17.6924 19.4941ZM17.3283 19.4941L17.1942 19.4452L17.1242 19.6369H17.3283V19.4941ZM18.2707 16.9134V16.7706H18.1708L18.1365 16.8644L18.2707 16.9134ZM18.6597 16.9134L18.7938 16.8643L18.7595 16.7706H18.6597V16.9134ZM19.6056 19.4941V19.6369H19.81L19.7397 19.445L19.6056 19.4941ZM19.238 19.4941L19.1037 19.5426L19.1377 19.6369H19.238V19.4941ZM19.006 18.8516L19.1403 18.8031L19.1062 18.7089H19.006V18.8516ZM17.9209 18.8516V18.7089H17.8201L17.7863 18.8038L17.9209 18.8516ZM18.4206 17.4702L18.5548 17.5191L18.556 17.5154L18.4206 17.4702ZM18.0279 18.5482L17.8938 18.4994L17.824 18.691H18.0279V18.5482ZM18.9025 18.5482V18.691H19.1071L19.0365 18.499L18.9025 18.5482ZM18.5062 17.4702L18.3718 17.5183L18.3722 17.5195L18.5062 17.4702ZM18.4634 17.3203L18.6039 17.2948L18.3234 17.2923L18.4634 17.3203ZM17.6924 19.4941V19.3514H17.3283V19.4941V19.6369H17.6924V19.4941ZM17.3283 19.4941L17.4624 19.5431L18.4048 16.9624L18.2707 16.9134L18.1365 16.8644L17.1942 19.4452L17.3283 19.4941ZM18.2707 16.9134V17.0562H18.6597V16.9134V16.7706H18.2707V16.9134ZM18.6597 16.9134L18.5257 16.9625L19.4716 19.5433L19.6056 19.4941L19.7397 19.445L18.7938 16.8643L18.6597 16.9134ZM19.6056 19.4941V19.3514H19.238V19.4941V19.6369H19.6056V19.4941ZM19.238 19.4941L19.3723 19.4456L19.1403 18.8031L19.006 18.8516L18.8717 18.9001L19.1037 19.5426L19.238 19.4941ZM19.006 18.8516V18.7089H17.9209V18.8516V18.9944H19.006V18.8516ZM17.9209 18.8516L17.7863 18.8038L17.5579 19.4463L17.6924 19.4941L17.8269 19.542L18.0554 18.8995L17.9209 18.8516ZM18.4206 17.4702L18.2864 17.4214L17.8938 18.4994L18.0279 18.5482L18.1621 18.5971L18.5547 17.5191L18.4206 17.4702ZM18.0279 18.5482V18.691H18.9025V18.5482V18.4055H18.0279V18.5482ZM18.9025 18.5482L19.0365 18.499L18.6403 17.421L18.5062 17.4702L18.3722 17.5195L18.7684 18.5975L18.9025 18.5482ZM18.5062 17.4702L18.6407 17.4222C18.6241 17.3757 18.6091 17.3232 18.6039 17.2948L18.4634 17.3203L18.3229 17.3459C18.332 17.396 18.3527 17.4648 18.3718 17.5183L18.5062 17.4702ZM18.4634 17.3203L18.3234 17.2923C18.3181 17.319 18.3026 17.3727 18.2851 17.4251L18.4206 17.4702L18.556 17.5154C18.5743 17.4607 18.5945 17.3931 18.6034 17.3483L18.4634 17.3203ZM20.2985 19.4941V19.6369H20.4413V19.4941H20.2985ZM19.9487 19.4941H19.8059V19.6369H19.9487V19.4941ZM19.9487 16.9134V16.7706H19.8059V16.9134H19.9487ZM21.3051 18.4055L21.2613 18.2696L21.1053 18.3198L21.1765 18.4674L21.3051 18.4055ZM21.8298 19.4941V19.6369H22.0571L21.9584 19.4321L21.8298 19.4941ZM21.4407 19.4941L21.3116 19.5551L21.3503 19.6369H21.4407V19.4941ZM20.9589 18.4733L21.088 18.4123L21.0494 18.3305H20.9589V18.4733ZM20.2985 18.4733V18.3305H20.1557V18.4733H20.2985ZM20.2985 17.2275V17.0847H20.1557V17.2275H20.2985ZM20.2985 18.1627H20.1557V18.3055H20.2985V18.1627ZM20.2985 19.4941V19.3514H19.9487V19.4941V19.6369H20.2985V19.4941ZM19.9487 19.4941H20.0915V16.9134H19.9487H19.8059V19.4941H19.9487ZM19.9487 16.9134V17.0562H20.9232V16.9134V16.7706H19.9487V16.9134ZM20.9232 16.9134V17.0562C21.1758 17.0562 21.359 17.1229 21.477 17.2271C21.5928 17.3292 21.6621 17.4813 21.6621 17.688H21.8048H21.9476C21.9476 17.4128 21.8526 17.1776 21.6659 17.0129C21.4815 16.8502 21.2238 16.7706 20.9232 16.7706V16.9134ZM21.8048 17.688H21.6621C21.6621 17.8425 21.6236 17.9662 21.5583 18.0602C21.4932 18.1536 21.3955 18.2263 21.2613 18.2696L21.3051 18.4055L21.3489 18.5413C21.536 18.4811 21.6881 18.3735 21.7926 18.2233C21.8968 18.0737 21.9476 17.8905 21.9476 17.688H21.8048ZM21.3051 18.4055L21.1765 18.4674L21.7012 19.5561L21.8298 19.4941L21.9584 19.4321L21.4337 18.3435L21.3051 18.4055ZM21.8298 19.4941V19.3514H21.4407V19.4941V19.6369H21.8298V19.4941ZM21.4407 19.4941L21.5699 19.4332L21.088 18.4123L20.9589 18.4733L20.8298 18.5342L21.3116 19.5551L21.4407 19.4941ZM20.9589 18.4733V18.3305H20.2985V18.4733V18.616H20.9589V18.4733ZM20.2985 18.4733H20.1557V19.4941H20.2985H20.4413V18.4733H20.2985ZM20.2985 17.2275H20.1557V18.1627H20.2985H20.4413V17.2275H20.2985ZM20.2985 18.1627V18.3055H20.9267V18.1627V18.0199H20.2985V18.1627ZM20.9267 18.1627V18.3055C21.1138 18.3055 21.2802 18.255 21.4009 18.1429C21.5231 18.0295 21.58 17.8703 21.58 17.6916H21.4372H21.2944C21.2944 17.8091 21.2585 17.8855 21.2066 17.9336C21.1534 17.983 21.0645 18.0199 20.9267 18.0199V18.1627ZM21.4372 17.6916H21.58C21.58 17.5097 21.5204 17.3514 21.3955 17.2404C21.2731 17.1316 21.1065 17.0847 20.9232 17.0847V17.2275V17.3703C21.0611 17.3703 21.1515 17.4055 21.2058 17.4538C21.2576 17.4999 21.2944 17.5736 21.2944 17.6916H21.4372ZM20.9232 17.2275V17.0847H20.2985V17.2275V17.3703H20.9232V17.2275ZM23.8583 19.4941V19.6369H24.0011V19.4941H23.8583ZM22.2842 19.4941H22.1414V19.6369H22.2842V19.4941ZM22.2842 16.9134V16.7706H22.1414V16.9134H22.2842ZM23.8583 16.9134H24.0011V16.7706H23.8583V16.9134ZM23.8583 17.2347V17.3774H24.0011V17.2347H23.8583ZM22.634 17.2347V17.0919H22.4912V17.2347H22.634ZM22.634 18.0414H22.4912V18.1841H22.634V18.0414ZM23.737 18.0414H23.8798V17.8986H23.737V18.0414ZM23.737 18.3519V18.4947H23.8798V18.3519H23.737ZM22.634 18.3519V18.2091H22.4912V18.3519H22.634ZM22.634 19.1693H22.4912V19.3121H22.634V19.1693ZM23.8583 19.1693H24.0011V19.0265H23.8583V19.1693ZM23.8583 19.4941V19.3514H22.2842V19.4941V19.6369H23.8583V19.4941ZM22.2842 19.4941H22.427V16.9134H22.2842H22.1414V19.4941H22.2842ZM22.2842 16.9134V17.0562H23.8583V16.9134V16.7706H22.2842V16.9134ZM23.8583 16.9134H23.7156V17.2347H23.8583H24.0011V16.9134H23.8583ZM23.8583 17.2347V17.0919H22.634V17.2347V17.3774H23.8583V17.2347ZM22.634 17.2347H22.4912V18.0414H22.634H22.7768V17.2347H22.634ZM22.634 18.0414V18.1841H23.737V18.0414V17.8986H22.634V18.0414ZM23.737 18.0414H23.5942V18.3519H23.737H23.8798V18.0414H23.737ZM23.737 18.3519V18.2091H22.634V18.3519V18.4947H23.737V18.3519ZM22.634 18.3519H22.4912V19.1693H22.634H22.7768V18.3519H22.634ZM22.634 19.1693V19.3121H23.8583V19.1693V19.0265H22.634V19.1693ZM23.8583 19.1693H23.7156V19.4941H23.8583H24.0011V19.1693H23.8583Z" fill="black" mask="url(#path-26-outside-2_1091_375)"/>
<path d="M11.161 21.849H10.6744V22.375H10.5065V21.1362H11.2536V21.2905H10.6744V21.6965H11.161V21.849ZM12.574 21.7548C12.574 22.1317 12.3273 22.3956 11.9761 22.3956C11.6265 22.3956 11.3832 22.1317 11.3832 21.7548C11.3832 21.3795 11.6282 21.114 11.9778 21.114C12.329 21.114 12.574 21.3778 12.574 21.7548ZM12.3975 21.7548C12.3975 21.4669 12.2296 21.2767 11.9778 21.2767C11.7259 21.2767 11.5597 21.4669 11.5597 21.7548C11.5597 22.0426 11.7259 22.2345 11.9778 22.2345C12.2296 22.2345 12.3975 22.0409 12.3975 21.7548ZM12.9567 22.375H12.7888V21.1362H13.2565C13.5221 21.1362 13.6797 21.2767 13.6797 21.508C13.6797 21.6794 13.594 21.8027 13.4398 21.8524L13.6917 22.375H13.5049L13.2736 21.885H12.9567V22.375ZM12.9567 21.287V21.7359H13.2582C13.4141 21.7359 13.5032 21.652 13.5032 21.5098C13.5032 21.3658 13.4107 21.287 13.2565 21.287H12.9567ZM14.8923 22.3938C14.5394 22.3938 14.3046 22.1403 14.3046 21.7565C14.3046 21.3744 14.5462 21.1157 14.9009 21.1157C15.1801 21.1157 15.3943 21.2819 15.4406 21.5355H15.2607C15.2144 21.3744 15.0756 21.2767 14.8957 21.2767C14.6456 21.2767 14.4811 21.4652 14.4811 21.7548C14.4811 22.0443 14.6456 22.2328 14.8957 22.2328C15.0773 22.2328 15.2213 22.1351 15.2675 21.9826H15.4457C15.3926 22.2294 15.1716 22.3938 14.8923 22.3938ZM16.7687 21.7548C16.7687 22.1317 16.522 22.3956 16.1707 22.3956C15.8212 22.3956 15.5779 22.1317 15.5779 21.7548C15.5779 21.3795 15.8229 21.114 16.1725 21.114C16.5237 21.114 16.7687 21.3778 16.7687 21.7548ZM16.5922 21.7548C16.5922 21.4669 16.4243 21.2767 16.1725 21.2767C15.9206 21.2767 15.7544 21.4669 15.7544 21.7548C15.7544 22.0426 15.9206 22.2345 16.1725 22.2345C16.4243 22.2345 16.5922 22.0409 16.5922 21.7548ZM16.9749 21.9347V21.1362H17.1428V21.9244C17.1428 22.1231 17.2525 22.2328 17.4495 22.2328C17.6448 22.2328 17.7528 22.1214 17.7528 21.9244V21.1362H17.9224V21.9347C17.9224 22.2191 17.7408 22.3956 17.4495 22.3956C17.1565 22.3956 16.9749 22.2208 16.9749 21.9347ZM18.683 21.933H18.3694V22.375H18.2015V21.1362H18.683C18.9263 21.1362 19.0822 21.2956 19.0822 21.5337C19.0822 21.765 18.9246 21.933 18.683 21.933ZM18.6539 21.287H18.3694V21.7822H18.647C18.8132 21.7822 18.9057 21.6845 18.9057 21.532C18.9057 21.3761 18.8115 21.287 18.6539 21.287ZM19.4403 21.1362V22.2191H19.9851V22.375H19.2724V21.1362H19.4403ZM20.9231 22.375H20.1675V21.1362H20.9231V21.2905H20.3354V21.6777H20.8649V21.8267H20.3354V22.2191H20.9231V22.375ZM21.0945 21.4704C21.0945 21.2579 21.2658 21.114 21.5211 21.114C21.7575 21.114 21.91 21.2459 21.9237 21.4601H21.7541C21.7455 21.3367 21.6582 21.2648 21.5194 21.2648C21.3635 21.2648 21.2624 21.3436 21.2624 21.4652C21.2624 21.5646 21.3189 21.6246 21.4354 21.652L21.6393 21.6999C21.8415 21.7462 21.9443 21.8559 21.9443 22.0306C21.9443 22.2534 21.7712 22.3956 21.5074 22.3956C21.2555 22.3956 21.0876 22.2636 21.0773 22.0512H21.2487C21.2521 22.1694 21.3515 22.2448 21.5074 22.2448C21.6719 22.2448 21.7764 22.1677 21.7764 22.0443C21.7764 21.9467 21.7233 21.885 21.6051 21.8576L21.4012 21.8113C21.199 21.765 21.0945 21.6485 21.0945 21.4704Z" fill="#181B25"/>
</g>
<defs>
<clipPath id="clip0_1091_375">
<rect width="32.4108" height="32.625" rx="1.42779" fill="white"/>
</clipPath>
<clipPath id="clip1_1091_375">
<rect width="32.4108" height="6.21089" fill="white" transform="translate(0 26.4141)"/>
</clipPath>
<clipPath id="clip2_1091_375">
<rect width="2.28446" height="2.28446" fill="white" transform="translate(1.85547 29.2695)"/>
</clipPath>
<clipPath id="clip3_1091_375">
<rect width="2.28446" height="2.28446" fill="white" transform="matrix(1 0 0 -1 4.49609 31.5547)"/>
</clipPath>
<clipPath id="clip4_1091_375">
<rect width="2.28446" height="2.28446" fill="white" transform="translate(7.13867 29.2695)"/>
</clipPath>
<clipPath id="clip5_1091_375">
<rect width="2.28446" height="2.28446" fill="white" transform="matrix(1 0 0 -1 9.7793 31.5547)"/>
</clipPath>
<clipPath id="clip6_1091_375">
<rect width="2.28446" height="2.28446" fill="white" transform="translate(12.4219 29.2695)"/>
</clipPath>
<clipPath id="clip7_1091_375">
<rect width="2.28446" height="2.28446" fill="white" transform="matrix(1 0 0 -1 15.0625 31.5547)"/>
</clipPath>
<clipPath id="clip8_1091_375">
<rect width="2.28446" height="2.28446" fill="white" transform="translate(17.7031 29.2695)"/>
</clipPath>
<clipPath id="clip9_1091_375">
<rect width="2.28446" height="2.28446" fill="white" transform="matrix(1 0 0 -1 20.3457 31.5547)"/>
</clipPath>
<clipPath id="clip10_1091_375">
<rect width="2.28446" height="2.28446" fill="white" transform="translate(22.9863 29.2695)"/>
</clipPath>
<clipPath id="clip11_1091_375">
<rect width="2.28446" height="2.28446" fill="white" transform="matrix(1 0 0 -1 25.6289 31.5547)"/>
</clipPath>
<clipPath id="clip12_1091_375">
<rect width="2.28446" height="2.28446" fill="white" transform="translate(28.2695 29.2695)"/>
</clipPath>
<clipPath id="clip13_1091_375">
<rect width="32.4108" height="6.21089" fill="white"/>
</clipPath>
<clipPath id="clip14_1091_375">
<rect width="2.28446" height="2.28446" fill="white" transform="translate(1.85547 1.07031)"/>
</clipPath>
<clipPath id="clip15_1091_375">
<rect width="2.28446" height="2.28446" fill="white" transform="matrix(1 0 0 -1 4.49609 3.35547)"/>
</clipPath>
<clipPath id="clip16_1091_375">
<rect width="2.28446" height="2.28446" fill="white" transform="translate(7.13867 1.07031)"/>
</clipPath>
<clipPath id="clip17_1091_375">
<rect width="2.28446" height="2.28446" fill="white" transform="matrix(1 0 0 -1 9.7793 3.35547)"/>
</clipPath>
<clipPath id="clip18_1091_375">
<rect width="2.28446" height="2.28446" fill="white" transform="translate(12.4219 1.07031)"/>
</clipPath>
<clipPath id="clip19_1091_375">
<rect width="2.28446" height="2.28446" fill="white" transform="matrix(1 0 0 -1 15.0625 3.35547)"/>
</clipPath>
<clipPath id="clip20_1091_375">
<rect width="2.28446" height="2.28446" fill="white" transform="translate(17.7031 1.07031)"/>
</clipPath>
<clipPath id="clip21_1091_375">
<rect width="2.28446" height="2.28446" fill="white" transform="matrix(1 0 0 -1 20.3457 3.35547)"/>
</clipPath>
<clipPath id="clip22_1091_375">
<rect width="2.28446" height="2.28446" fill="white" transform="translate(22.9863 1.07031)"/>
</clipPath>
<clipPath id="clip23_1091_375">
<rect width="2.28446" height="2.28446" fill="white" transform="matrix(1 0 0 -1 25.6289 3.35547)"/>
</clipPath>
<clipPath id="clip24_1091_375">
<rect width="2.28446" height="2.28446" fill="white" transform="translate(28.2695 1.07031)"/>
</clipPath>
</defs>
</svg>
