<svg width="35" height="44" viewBox="0 0 35 44" fill="none" xmlns="http://www.w3.org/2000/svg">
<g clip-path="url(#clip0_1091_567)">
<rect width="34.7435" height="43.5" rx="1.12987" fill="white"/>
<g clip-path="url(#clip1_1091_567)">
<path d="M37.5112 -1.01562H-7.68359V44.1792H37.5112V-1.01562Z" fill="#4AC7F5"/>
<path d="M37.5112 19.6566C37.2945 19.5868 37.0763 19.5183 36.8562 19.4514C37.0794 19.5368 37.2978 19.6204 37.5112 19.7013V19.6566ZM31.7309 1.60293C30.7858 1.15974 29.8407 0.716545 28.8957 0.273353C29.8316 0.773208 30.8092 1.31351 31.7309 1.60293ZM25.912 8.57095C27.6456 6.69028 29.379 4.80956 31.1125 2.92889C29.2785 4.58929 26.5008 6.85281 25.912 8.57095ZM37.5112 10.7872C37.4099 10.5586 37.3068 10.3311 37.2012 10.1051C37.3045 10.3999 37.4079 10.6947 37.5112 10.9894V10.7872ZM27.1157 17.4913C26.7856 17.5936 26.4795 17.7339 26.2034 17.9196C26.59 17.8451 26.8893 17.6976 27.1157 17.4913ZM33.1256 3.04521C34.2893 4.80374 35.3457 6.50566 36.2737 8.25035C36.3086 7.1089 34.3792 4.64279 33.1256 3.04521ZM36.5762 8.32215C36.5193 8.38113 36.4625 8.44011 36.4056 8.49909C36.6831 9.029 36.9481 9.56365 37.2012 10.1051L36.5762 8.32215ZM37.5112 24.2617V24.1224C36.0541 24.3309 34.5972 24.5393 33.1401 24.7479C34.0079 24.9425 35.84 24.6195 37.5112 24.2617ZM37.5112 1.60852V1.60423C35.9135 1.70614 34.2365 1.73868 32.6667 1.81009C34.1357 2.01652 35.8639 1.81156 37.5112 1.60852ZM28.4379 17.2793C31.1533 18.0053 34.1275 18.6222 36.8563 19.4514C34.2141 18.4398 30.9379 17.1808 28.4379 17.2793ZM28.8957 0.273353C28.2015 -0.097357 27.5302 -0.445639 26.9218 -0.652236C27.5798 -0.343725 28.2377 -0.0352141 28.8957 0.273353ZM22.5687 -0.343217C22.6317 -0.522301 22.6797 -0.682234 22.7062 -0.816406C22.6591 -0.673986 22.6136 -0.514392 22.5687 -0.343217ZM-7.68359 20.6303V20.8029C-6.46825 22.1498 -4.97874 24.0116 -3.62075 24.546C-4.10885 23.4377 -6.21086 21.8029 -7.68359 20.6303ZM7.1577 44.1768C6.57034 43.3504 5.98298 42.5241 5.39561 41.6976C5.63114 42.4166 6.22245 43.3026 6.89721 44.1768H7.1577ZM17.1023 44.1768C16.8227 43.8935 16.5432 43.61 16.2637 43.3266C16.4924 43.6077 16.659 43.8821 16.7571 44.1768H17.1023ZM21.1233 4.10226C21.8903 3.16667 22.2109 1.01997 22.5687 -0.343217C22.1337 0.89337 20.9758 3.05306 21.1233 4.10226ZM3.03142 19.3891C1.52361 17.8708 0.0392388 16.3325 -1.44072 14.7778C0.203352 16.5778 2.08566 18.5869 3.03142 19.3891ZM15.2117 42.2598C15.5624 42.6155 15.9131 42.971 16.2637 43.3266C15.9942 42.9953 15.6394 42.6543 15.2117 42.2598ZM28.4272 41.9947C29.3394 42.5113 30.3485 42.8475 31.4197 43.0581C30.4222 42.7037 29.4247 42.3492 28.4272 41.9947ZM27.1515 44.1768H27.2687C27.0388 43.2062 26.7735 42.2046 26.4605 41.2958C26.4194 41.2812 26.3782 41.2666 26.3371 41.252C26.6086 42.2269 26.88 43.2019 27.1515 44.1768ZM3.52828 19.9285C3.70064 20.0887 3.8695 20.2436 4.03581 20.3943C3.87368 20.2332 3.71228 20.0716 3.55082 19.91C3.54342 19.916 3.53562 19.9226 3.52828 19.9285ZM12.4485 1.84681C11.2138 1.40068 9.76426 1.17928 8.01189 0.955626C9.63963 1.39368 11.2296 1.50305 12.4485 1.84681ZM-3.74696 9.64032C-2.95921 7.62677 -2.17141 5.61318 -1.38361 3.59963C-2.53201 5.20456 -3.09073 7.49266 -3.74696 9.64032ZM13.851 2.51564C14.499 3.05379 14.8138 3.90459 14.6249 5.35534C14.4377 6.79327 14.3648 7.96161 14.2479 8.95262C14.489 7.10059 14.7302 5.24845 14.9714 3.39637C14.6196 3.05176 14.2476 2.76189 13.851 2.51564ZM17.8881 5.5329C18.8982 5.27777 20.1959 4.75849 20.7902 4.38472C19.8228 4.76747 18.8555 5.15021 17.8881 5.5329ZM15.0313 2.93578C15.0113 3.08933 14.9913 3.24288 14.9713 3.39643C15.2581 3.67748 15.5317 3.99481 15.794 4.35524C15.5405 3.88363 15.2867 3.41112 15.0313 2.93578ZM13.851 2.51564C13.4814 2.20865 13.0036 2.0033 12.4485 1.84681C12.9494 2.02776 13.4154 2.2452 13.851 2.51564ZM9.6589 10.7054C9.85148 11.7831 10.044 12.8607 10.2366 13.9384C10.2461 13.1413 9.92498 11.7642 9.6589 10.7054ZM14.1877 9.41468C14.2093 9.26497 14.2292 9.11108 14.2479 8.95262C14.2279 9.10668 14.2078 9.26068 14.1877 9.41468ZM32.2505 1.73925C32.0797 1.70439 31.9063 1.65801 31.7309 1.60293C31.8714 1.66886 32.0119 1.73473 32.1524 1.8006C31.8058 2.17668 31.4591 2.55281 31.1125 2.92889C31.5503 2.53242 31.9344 2.17035 32.222 1.85839C32.3993 2.1203 32.7285 2.53925 33.1256 3.04521C32.859 2.64246 32.5874 2.2369 32.3099 1.82692C32.4279 1.82099 32.5474 1.81557 32.6667 1.81015C32.5255 1.79032 32.3865 1.76704 32.2505 1.73925ZM19.8895 11.7541C19.923 11.7375 19.9563 11.7208 19.9898 11.7042C19.9321 11.7022 19.8782 11.6962 19.8327 11.6815C19.7872 11.6667 19.7404 11.6432 19.6927 11.6116C19.7096 11.6432 19.7263 11.6743 19.7433 11.7059C19.6521 11.7191 19.5609 11.7322 19.4696 11.7453C19.6808 11.776 19.8426 11.8351 19.937 11.9311C21.8854 13.9111 23.8339 15.8912 25.7824 17.8711C23.3648 16.8128 20.947 15.7545 18.5299 14.6958C16.9823 14.0104 15.4346 13.3251 13.887 12.6398C14.1596 12.6006 14.645 12.4886 15.2273 12.3557C14.7441 12.4252 14.2609 12.4947 13.7776 12.5643C13.9143 11.5144 14.051 10.4646 14.1877 9.41474C13.9521 11.0486 13.505 12.187 12.0054 13.3156C13.0003 12.8927 13.9193 12.7529 14.6625 13.082C16.9892 14.1122 18.3515 14.0164 18.67 16.4913C18.6705 16.4957 18.6711 16.5002 18.6716 16.5046C18.632 15.7942 18.5944 15.1963 18.5434 14.8002C21.9135 16.2758 25.1226 17.2315 27.7417 19.7955C27.9738 20.0227 28.3316 20.3191 28.7524 20.6584C27.8547 19.7796 26.9572 18.9009 26.0595 18.0221C26.1065 17.9865 26.1545 17.9524 26.2033 17.9196C26.1346 17.9328 26.0642 17.9446 25.9899 17.9532C23.9564 15.8868 21.923 13.8204 19.8895 11.7541ZM9.6589 10.7054C9.35869 9.02544 9.05848 7.34544 8.75828 5.66555C8.35875 3.42965 8.55789 1.94816 7.88161 1.27312C8.36243 3.96379 8.84324 6.65446 9.324 9.34514C9.3627 9.56168 9.50111 10.0776 9.6589 10.7054ZM35.995 34.2382C36.0871 34.5707 36.1742 34.8526 36.2789 35.0853C36.1844 34.803 36.0896 34.5206 35.995 34.2382ZM12.0054 13.3156C11.4523 13.5506 10.8758 13.8731 10.2927 14.2519C10.2993 14.2884 10.3057 14.3249 10.3122 14.3614C10.9909 14.0044 11.5472 13.6603 12.0054 13.3156ZM10.0718 14.5386C10.1281 14.4933 10.1683 14.4171 10.195 14.3157C8.32153 15.5512 6.39142 17.345 4.96745 18.6524C6.66886 17.2811 8.37034 15.9099 10.0718 14.5386ZM-3.74696 9.64032C-3.98587 10.251 -4.22478 10.8615 -4.46369 11.4722C-5.53701 10.8045 -6.61033 10.1368 -7.68359 9.46908V9.62964C-6.62784 10.2885 -5.50837 10.9288 -4.50646 11.5521C-5.56548 13.0196 -6.62457 14.4871 -7.68359 15.9545V16.2133C-6.57796 14.6993 -5.49809 13.0806 -4.43686 11.6101C-3.43596 12.6726 -2.43924 13.7288 -1.44072 14.7778C-2.8282 13.2586 -4.04552 11.8889 -4.38567 11.5208C-4.15134 10.9218 -3.94468 10.2874 -3.74696 9.64032ZM10.2926 14.2519C10.274 14.1474 10.2553 14.0429 10.2366 13.9383C10.2349 14.0858 10.2219 14.2136 10.195 14.3157C10.2276 14.2942 10.2601 14.2731 10.2926 14.2519ZM7.88155 1.27312C7.85449 1.12172 7.82743 0.970427 7.80037 0.819024C7.78111 0.711347 7.15222 0.752418 6.31002 0.856423C7.09861 0.829927 7.5783 0.97037 7.88155 1.27312ZM37.5112 43.2963C37.4751 43.3024 37.4407 43.3091 37.4039 43.315C37.4397 43.3133 37.4754 43.311 37.5112 43.3092V43.2963ZM3.6211 19.7375C3.55675 19.7894 3.34546 19.6554 3.03142 19.3891C3.20417 19.563 3.37738 19.7366 3.55082 19.91C3.92057 19.61 4.40432 19.1694 4.96745 18.6524C4.51866 19.0141 4.06988 19.3758 3.6211 19.7375ZM-4.51346 44.1768C-3.59815 41.1558 -2.83577 37.3289 -2.58873 34.4157C-3.2749 37.6693 -3.96107 40.9231 -4.64724 44.1768H-4.51346ZM32.4497 44.1768H32.5833C32.7634 44.0119 32.9434 43.8468 33.1235 43.6818C33.2701 43.8523 33.4057 44.017 33.5345 44.1768H33.6549C33.5197 44.0106 33.3765 43.8377 33.221 43.6568C35.0527 43.5491 36.372 43.479 37.4039 43.315C35.3457 43.4128 33.2887 43.4257 31.4197 43.0581C31.9603 43.2502 32.5009 43.4424 33.0416 43.6345C32.8443 43.8153 32.647 43.9961 32.4497 44.1768ZM35.6041 35.1879C36.0149 35.6316 36.3669 36.0082 36.6244 36.2437C33.4002 36.6948 30.1761 37.1462 26.952 37.5974C23.9523 38.0172 23.4685 37.3507 20.9086 35.3965C21.1603 35.2855 21.4121 35.1746 21.6638 35.0637C21.0941 35.1768 20.6706 35.1575 20.4745 34.9458C17.4823 31.7162 14.4903 28.4863 11.4982 25.2566C14.2477 25.0501 16.9973 24.8436 19.7469 24.6372C23.431 26.7378 27.1151 28.8384 30.7992 30.9389C30.4708 31.0837 29.8974 31.3796 29.1828 31.7503C29.5403 31.5928 29.8976 31.4353 30.2551 31.2778C30.6123 31.1203 31.0665 31.2258 31.5701 31.4964C31.4169 31.3561 31.2637 31.2159 31.1104 31.0758C31.0101 30.984 30.9815 30.782 31.0046 30.505C30.954 30.6387 30.9092 30.7641 30.8735 30.8771C27.3408 28.8628 23.8081 26.8486 20.2753 24.8344C20.0166 24.6869 19.8034 24.3662 19.6262 23.9259L19.7064 24.5495C11.8917 25.1363 9.56546 25.4018 4.03576 20.3941C5.32562 21.6755 6.63565 22.9417 7.97816 24.1903C4.37302 24.3579 0.767892 24.5256 -2.83718 24.6932C-3.09124 24.705 -3.35354 24.6511 -3.62086 24.546C-3.56714 24.6681 -3.53256 24.7839 -3.52098 24.892C-3.16592 28.2079 -2.81086 31.5239 -2.4558 34.8398C-2.12254 37.9522 -1.78934 41.0644 -1.45609 44.1767H-1.36508C-2.05628 37.7218 -2.74747 31.2668 -3.43862 24.8117C0.384922 24.634 4.20846 24.4562 8.03205 24.2784C7.04042 29.272 6.04885 34.1408 5.05202 39.1447C4.7882 40.4692 4.52957 41.7889 4.2706 43.1153C4.18795 43.5387 4.08965 43.8884 3.97503 44.1767H4.17044C4.38822 43.0851 4.60634 41.9925 4.82446 40.8941L5.3955 41.6976C5.18981 41.0695 5.25495 40.5688 5.77412 40.3154C9.94074 38.2818 10.0975 37.2024 13.2954 40.4454C14.0313 41.1916 14.678 41.7675 15.2116 42.2598C13.7691 40.797 12.3266 39.3342 10.884 37.8714C15.301 37.9284 19.7179 37.9853 24.1348 38.0421C22.0901 40.087 20.0452 42.1319 18.0004 44.1768H18.1281C20.1557 42.1492 22.1832 40.1218 24.2108 38.0942C24.5024 40.1218 24.7941 42.1492 25.0859 44.1768H25.2343C24.9685 42.1401 24.5791 40.0199 24.2941 38.0386C25.2083 38.379 25.9084 39.6925 26.4606 41.2958C27.1162 41.5288 27.7717 41.7617 28.4272 41.9947C26.9841 41.1776 25.7838 39.9089 24.9663 37.9666C28.8758 37.4194 32.7851 36.8722 36.6945 36.3251C36.9675 36.9326 37.2395 37.5417 37.5112 38.1514V37.9331C37.2708 37.392 37.0305 36.8508 36.7901 36.3097C37.0373 36.266 37.2777 36.2315 37.5112 36.2028V35.9381C36.8393 35.884 36.5142 35.6078 36.2789 35.0853C36.395 35.4315 36.511 35.7778 36.6271 36.124L35.6041 35.1879ZM20.7155 35.3394C17.4901 35.2972 14.2646 35.2551 11.0393 35.2131L11.4422 25.3292C14.5333 28.666 17.6244 32.0026 20.7155 35.3394ZM4.87197 40.6553C5.49329 37.5266 6.11461 34.398 6.73592 31.2693C6.8223 31.3514 6.90693 31.4325 6.99026 31.5126C6.84512 31.2839 6.7727 31.084 6.80349 30.9288C7.24312 28.7151 7.68275 26.5016 8.12233 24.2879C11.1408 25.1881 11.3748 24.7623 11.2501 27.8196C11.1504 30.265 11.0508 32.7105 10.9511 35.1561C10.6148 34.8361 9.71432 34.146 8.83725 33.3966C12.0603 36.9921 10.5085 37.9046 4.87197 40.6553ZM10.8238 37.7802C10.889 37.0101 10.771 36.023 11.0337 35.3032C16.4039 35.3735 19.8378 34.6926 24.1063 37.9512C19.6788 37.8943 15.2513 37.8372 10.8238 37.7802ZM8.83725 33.3966C8.33712 32.8386 7.72298 32.2166 6.99026 31.5126C7.33119 32.0495 8.07516 32.7453 8.83725 33.3966ZM1.89748 1.54598C2.27531 1.49045 4.68832 1.05669 6.31007 0.856366C6.01331 0.866366 5.67345 0.899641 5.28212 0.957151C3.77707 1.17838 -0.323958 0.891166 -0.942562 2.47236C-1.08961 2.8481 -1.23661 3.2239 -1.38361 3.59963C-0.61908 2.53112 0.406672 1.76506 1.89748 1.54598ZM16.785 6.00925C19.7509 6.92784 22.7168 7.84648 25.6825 8.76506C25.4436 8.88415 25.048 9.12543 24.5712 9.42016C24.9721 9.22034 25.3728 9.02053 25.7736 8.82071C25.7866 8.87155 25.8011 8.92477 25.8164 8.97906C25.8257 8.90494 25.8373 8.83348 25.8535 8.76783C25.8695 8.70309 25.8892 8.63744 25.9119 8.57101L25.8018 8.69055C25.5623 8.46 25.2056 8.17092 24.7947 7.84653C25.0748 8.11623 25.3549 8.38593 25.6351 8.65563C22.7109 7.75004 19.7867 6.84434 16.8624 5.93869C17.2043 5.80345 17.5461 5.6682 17.8881 5.5329C17.2026 5.70605 16.6499 5.75774 16.5427 5.55793C16.3025 5.11095 16.0537 4.71216 15.794 4.35524C16.3008 5.29851 16.8048 6.23681 17.3103 7.17748C17.0935 6.6665 16.9116 6.24483 16.785 6.00925ZM15.2274 12.3556C16.6415 12.1522 18.0556 11.9488 19.4696 11.7453C18.5298 11.6088 16.6064 12.0409 15.2274 12.3556ZM32.749 24.5699C32.3108 23.4416 30.1737 21.8047 28.7525 20.6584C30.0821 21.96 31.4117 23.2616 32.7413 24.5632C32.7436 24.5654 32.7466 24.5676 32.749 24.5699ZM31.5701 31.4964C32.9149 32.7269 34.2595 33.9574 35.6041 35.1879C34.4573 33.949 32.8531 32.1856 31.5701 31.4964ZM32.8374 24.959C32.5312 25.8612 31.12 29.1228 31.0047 30.5051C31.5695 29.0133 32.9564 26.344 32.8374 24.959ZM21.6638 35.0637C23.5426 34.6907 27.0136 32.8758 29.1828 31.7504C26.6765 32.8549 24.1702 33.9592 21.6638 35.0637ZM18.6716 16.5046C18.799 18.7886 18.9473 22.2394 19.6263 23.9259C19.308 21.4521 18.9898 18.9784 18.6716 16.5046ZM32.8374 24.959C32.8459 24.9336 32.8541 24.9094 32.8609 24.8878C33.9056 28.0047 34.9503 31.1214 35.995 34.2382C35.8449 33.6956 35.6814 33.018 35.4056 32.1955C34.5771 29.7234 33.7485 27.2514 32.9198 24.7794C32.9932 24.7689 33.0668 24.7584 33.1401 24.7479C32.9698 24.7097 32.8365 24.6516 32.749 24.5699C32.7736 24.6332 32.7948 24.6954 32.8082 24.7553C32.8225 24.8193 32.8312 24.8881 32.8374 24.959ZM27.978 17.1053C27.9126 16.8487 27.8133 16.5296 27.6935 16.1688C27.6407 16.7149 27.465 17.1729 27.1157 17.4913C27.5225 17.3654 27.9662 17.2978 28.4378 17.2793C28.3045 17.2436 28.1715 17.2077 28.0393 17.1715C30.828 14.2806 33.6169 11.3899 36.4056 8.49909C36.362 8.41605 36.3178 8.33323 36.2737 8.25035C36.2686 8.4196 36.2209 8.56016 36.1207 8.664C33.4066 11.4778 30.6923 14.2915 27.978 17.1053ZM24.7947 7.84648C23.5983 6.69469 22.4021 5.54301 21.2058 4.39122C21.6306 5.42353 23.4882 6.81502 24.7947 7.84648ZM21.2058 4.39122C21.1797 4.32772 21.1571 4.26513 21.1422 4.20451C21.1343 4.17186 21.1283 4.13745 21.1233 4.10226C21.1006 4.13 21.0777 4.15734 21.0542 4.18287C20.9996 4.24219 20.9078 4.31077 20.7902 4.38472C20.8868 4.34654 20.9834 4.30835 21.08 4.2701C21.1219 4.31049 21.1639 4.35083 21.2058 4.39122ZM27.6935 16.1688C27.8958 14.0751 26.2995 10.6947 25.8164 8.979C25.6158 10.5847 27.0043 14.0925 27.6935 16.1688ZM24.5712 9.42016C23.044 10.1815 21.5169 10.9428 19.9898 11.7042C20.8747 11.7342 23.1083 10.3243 24.5712 9.42016ZM19.6927 11.6116C18.8836 10.1058 18.095 8.6379 17.3103 7.17754C17.9715 8.73591 18.9574 11.1259 19.6927 11.6116Z" fill="#45B8E6"/>
<path d="M14.2389 -0.527182C14.8276 0.0752646 15.0527 0.953965 14.7147 2.37738C14.3798 3.78745 14.1864 4.94145 13.9676 5.91472C14.3991 4.09811 14.8305 2.28139 15.2619 0.464787C14.9478 0.0856029 14.6079 -0.241212 14.2389 -0.527182ZM15.3693 0.0127828C15.3336 0.163394 15.2977 0.314063 15.262 0.464731C15.5183 0.773976 15.7575 1.11797 15.981 1.50365C15.7778 1.00837 15.5742 0.512072 15.3693 0.0127828ZM22.4261 -1.01562C21.8645 0.000354167 21.2829 1.10994 21.3079 1.80363C21.8903 1.22705 22.3263 0.0766769 22.7015 -1.01562H22.4261ZM17.9388 2.89254C18.9708 2.74357 20.32 2.35998 20.9499 2.04943C19.9461 2.33049 18.9425 2.61154 17.9388 2.89254ZM13.5126 -1.01562C13.7661 -0.8662 14.009 -0.705419 14.2389 -0.527182C14.0562 -0.714176 13.8373 -0.873883 13.5903 -1.01562H13.5126ZM9.46151 10.4598C9.4445 10.6064 9.41829 10.7322 9.38106 10.831C9.41569 10.813 9.45027 10.7953 9.48484 10.7777C9.47704 10.6717 9.46925 10.5658 9.46151 10.4598ZM13.8593 6.37101C13.8965 6.22345 13.9324 6.07137 13.9676 5.91472C13.9315 6.0668 13.8955 6.21893 13.8593 6.37101ZM36.241 7.60037C36.1784 7.65319 36.1156 7.70596 36.0529 7.75872C36.2741 8.3145 36.4824 8.87379 36.6782 9.43867C36.5324 8.82588 36.3868 8.21315 36.241 7.60037ZM9.22152 7.18463C9.30152 8.27637 9.38151 9.36811 9.46151 10.4598C9.55337 9.66797 9.3766 8.26524 9.22152 7.18463ZM37.5112 12.2007C37.2693 11.2578 36.9906 10.3406 36.6782 9.43867C36.9558 10.6065 37.2334 11.7744 37.5112 12.9423V12.2007ZM33.3548 1.99435C34.3303 3.864 35.205 5.66626 35.9475 7.49778C36.1005 6.36599 34.4363 3.71305 33.3548 1.99435ZM29.7075 -1.01562C30.5024 -0.477411 31.3216 0.0718184 32.117 0.415638C31.3251 -0.0613933 30.5331 -0.538537 29.7412 -1.01562H29.7075ZM37.5112 1.02599V0.999668C36.0205 0.93035 34.4798 0.803353 33.0267 0.718669C34.3641 1.05057 35.9607 1.05255 37.5112 1.02599ZM16.7956 3.25127C19.6504 4.47193 22.5051 5.69258 25.36 6.91324C25.1101 7.00696 24.6916 7.20604 24.1869 7.44976C24.6062 7.29254 25.0255 7.13531 25.4448 6.97804C25.4524 7.0299 25.4614 7.08441 25.471 7.13995C25.4879 7.06718 25.5068 6.99736 25.5297 6.93369C25.5524 6.87098 25.5787 6.80771 25.6083 6.74398C25.5676 6.77986 25.5269 6.81562 25.4863 6.85143C25.272 6.59738 24.9471 6.27288 24.572 5.90765C24.8227 6.20498 25.0734 6.50219 25.3242 6.79952L16.8798 3.18907C17.2328 3.09021 17.5858 2.9914 17.9388 2.89254C17.2402 2.99344 16.6871 2.98683 16.6011 2.77729C16.4085 2.30789 16.2023 1.88554 15.9809 1.50365C16.3874 2.49432 16.7917 3.47985 17.197 4.4678C17.0343 3.93699 16.897 3.49871 16.7956 3.25127ZM2.16916 15.7235C2.32384 15.9006 2.47569 16.0721 2.6254 16.239C2.48094 16.0621 2.33728 15.8847 2.19345 15.7075C2.18548 15.7127 2.17701 15.7184 2.16916 15.7235ZM8.79551 -1.01562H8.53015C8.69647 1.25524 8.8629 3.52611 9.02928 5.79693C9.04532 6.01635 9.12961 6.54394 9.22158 7.18463C9.0969 5.4826 8.97216 3.78062 8.84748 2.07858C8.75308 0.790585 8.82584 -0.234376 8.79551 -1.01562ZM1.77308 37.5691C2.07605 38.9708 3.58776 41.1015 4.59109 42.5575C3.65177 40.8947 2.71245 39.2319 1.77308 37.5691ZM-1.34796 40.9414C-1.8416 40.8469 -2.28112 40.7726 -2.67753 40.7205C-2.17373 40.8621 -1.73494 40.9566 -1.34796 40.9414ZM-7.68359 42.9825V43.1199C-7.11775 42.5506 -6.52056 41.9403 -6.06489 41.3427C-6.56333 41.7187 -7.0633 42.257 -7.68359 42.9825ZM12.4141 40.314C12.1803 39.9567 11.8628 39.5809 11.4786 39.1445C11.7903 39.5343 12.1022 39.9242 12.4141 40.314ZM27.5167 41.6161C26.5612 41.1602 25.6057 40.7044 24.6501 40.2485C25.5041 40.8568 26.473 41.2956 27.5167 41.6161ZM23.4762 44.1792H23.491C23.331 42.7006 23.1273 40.9048 22.7664 39.3499C22.7271 39.3311 22.6876 39.3123 22.6482 39.2935C22.9242 40.922 23.2002 42.5507 23.4762 44.1792ZM5.5138 44.1792H5.62972C5.53747 44.0373 5.44414 43.8833 5.34912 43.715C5.18964 43.4327 4.91717 43.0307 4.59115 42.5575C4.82927 42.979 5.06733 43.4005 5.30545 43.822C5.37697 43.9486 5.44629 44.0675 5.5138 44.1792ZM-4.00203 4.73745C-4.30285 5.32007 -4.60374 5.9028 -4.90457 6.48536C-5.83095 5.76608 -6.75727 5.04681 -7.68359 4.32759V4.49927C-6.77043 5.20205 -5.81417 5.89364 -4.95535 6.56044C-5.86479 7.57901 -6.77416 8.59759 -7.68359 9.61623V9.83638C-6.73925 8.75544 -5.80598 7.64873 -4.89214 6.62523C-4.00643 7.78584 -3.12423 8.93977 -2.23948 10.0866C-3.4624 8.43178 -4.53165 6.94312 -4.83191 6.54168C-4.53691 5.97025 -4.26574 5.36063 -4.00203 4.73745ZM2.28124 15.5431C2.21186 15.588 2.01561 15.433 1.73082 15.1356C1.88465 15.3265 2.039 15.517 2.1935 15.7075C2.59241 15.4474 3.11926 15.0591 3.73295 14.6031C3.24897 14.9165 2.76511 15.2299 2.28124 15.5431ZM-7.68359 17.3496C-6.96121 18.3011 -6.19149 19.1758 -5.41945 19.5764C-5.67361 18.7859 -6.65728 17.6705 -7.68359 16.6222V17.3496ZM-1.03493 -1.01562C-2.33784 0.461793 -3.12897 2.67402 -4.00203 4.73745C-3.01186 2.81978 -2.0217 0.902047 -1.03148 -1.01562H-1.03493ZM27.2191 15.667C29.8449 16.6702 32.7391 17.5916 35.3673 18.6988C32.8441 17.4191 29.7158 15.8279 27.2191 15.667ZM1.73077 15.1356C0.388367 13.4695 -0.928609 11.7861 -2.23954 10.0867C-0.790765 12.0471 0.873194 14.2399 1.73077 15.1356ZM25.6083 6.74398C27.5272 5.05279 29.446 3.36166 31.3648 1.67053C29.3689 3.13213 26.3718 5.09596 25.6083 6.74398ZM19.1075 9.12439C18.4587 7.54303 17.8262 6.00149 17.197 4.46786C17.6933 6.08617 18.4266 8.56511 19.1075 9.12439ZM14.5894 9.40234C16.0169 9.34636 17.4444 9.29037 18.8719 9.23439C17.9514 9.00141 15.9935 9.23207 14.5894 9.40234ZM19.2886 9.28664L19.3935 9.24732C19.3364 9.23942 19.2835 9.22789 19.2397 9.20846C19.196 9.18908 19.1518 9.16078 19.1075 9.12439C19.121 9.15761 19.1344 9.19032 19.1482 9.22354C19.0561 9.22716 18.9639 9.23077 18.8719 9.23439C19.0788 9.28676 19.2336 9.36235 19.3176 9.46748L24.5166 15.9807C22.2217 14.6778 19.9264 13.3749 17.6319 12.0717C16.1635 11.2299 14.6951 10.388 13.2267 9.54617C13.5019 9.53538 13.9963 9.47426 14.5894 9.40234C14.1015 9.42144 13.6137 9.44059 13.1258 9.45974C13.3703 8.43015 13.6148 7.40061 13.8593 6.37101C13.4558 7.97102 12.8931 9.05655 11.2852 10.0236C12.3187 9.70599 13.2472 9.6621 13.9523 10.0664C16.1597 11.3319 17.5248 11.3776 17.5852 13.8722C17.5853 13.8766 17.5854 13.881 17.5856 13.8854C17.6197 13.1748 17.6442 12.5763 17.6345 12.177C20.8336 13.9935 23.9266 15.2763 26.2662 18.0977C26.4736 18.3477 26.7989 18.6795 27.1822 19.0605C26.3804 18.0936 25.5785 17.1266 24.7767 16.1597C24.8271 16.1291 24.8784 16.1002 24.9303 16.0725C24.8606 16.0786 24.7893 16.083 24.7145 16.0838C22.9059 13.8181 21.0973 11.5524 19.2886 9.28664ZM26.5938 14.4853C27.0117 12.4238 25.7738 8.89622 25.471 7.13995C25.1051 8.71612 26.1231 12.3488 26.5938 14.4853ZM11.2852 10.0236C10.7108 10.2001 10.104 10.4612 9.48478 10.7777C9.48749 10.8146 9.49021 10.8516 9.49286 10.8885C10.205 10.6037 10.7938 10.3192 11.2852 10.0236ZM30.7525 23.3647C30.4335 22.1972 28.4773 20.3478 27.1822 19.0605C28.37 20.4928 29.5578 21.925 30.7454 23.3572C30.7475 23.3597 30.7503 23.3621 30.7525 23.3647ZM32.4933 34.2213C32.8558 34.7051 33.167 35.116 33.3986 35.3769C30.1451 35.4919 26.8916 35.607 23.6381 35.722C20.6111 35.8292 20.1988 35.116 17.855 32.9075C18.1168 32.8232 18.3787 32.739 18.6405 32.6546C18.0622 32.7081 17.643 32.6451 17.4699 32.4144C14.8282 28.8922 12.1864 25.3701 9.54472 21.848L17.8133 22.0858C21.2602 24.5563 24.707 27.0271 28.1539 29.4977C27.8122 29.6076 27.2114 29.8425 26.4626 30.1372C26.8342 30.0176 27.2058 29.898 27.5776 29.7784C27.9492 29.6588 28.39 29.8106 28.8628 30.1318C28.725 29.9765 28.5872 29.8212 28.4493 29.666C28.359 29.5643 28.3516 29.3605 28.4032 29.0874C28.3389 29.2151 28.2815 29.3352 28.2342 29.4439C24.929 27.0748 21.6238 24.7058 18.3186 22.3366C18.0765 22.1632 17.8976 21.822 17.7668 21.3657C17.772 21.5753 17.7771 21.7849 17.7822 21.9944C9.94854 21.7691 7.60733 21.7924 2.62545 16.2389C3.77589 17.647 4.94784 19.0422 6.15404 20.4231C2.55094 20.2167 -1.05216 20.0102 -4.65526 19.8038C-4.9092 19.7892 -5.16444 19.7086 -5.41945 19.5763C-5.3786 19.7034 -5.35623 19.8221 -5.35595 19.9307C-5.34606 23.2656 -5.33612 26.6005 -5.32623 29.9354C-5.31669 33.1719 -5.30703 36.4082 -5.29742 39.6447C-5.2959 40.1616 -5.60966 40.7457 -6.06489 41.3427C-5.16794 40.666 -4.27246 40.5112 -2.67759 40.7204C-3.38184 40.5224 -4.21286 40.2324 -5.20585 40.0222C-5.22584 33.3012 -5.24579 26.5804 -5.26578 19.8595C-1.44434 20.0784 2.37711 20.2973 6.1985 20.5163C4.69532 25.3804 3.20508 30.1204 1.69563 34.9942C1.29605 36.2844 0.902289 37.5702 0.507399 38.8627C0.0361303 40.405 -0.543888 40.91 -1.34802 40.9414C-0.993972 41.0092 -0.612641 41.0872 -0.199108 41.1747C-0.487395 42.1183 -0.850252 43.1999 -1.10871 44.1792H-1.02109C-0.255093 41.6848 0.515252 39.2117 1.28814 36.7109L1.77302 37.5691C1.63337 36.9231 1.74997 36.4317 2.29265 36.2334C6.64734 34.6421 6.915 33.5847 9.76007 37.1412C10.4148 37.9597 10.9985 38.5995 11.4785 39.1445C10.195 37.5402 8.91149 35.9358 7.62807 34.3315C12.0154 34.8454 16.4027 35.3591 20.79 35.8729C18.3789 37.8295 15.968 39.7861 13.5569 41.7426C13.176 41.2663 12.795 40.7902 12.4141 40.314C13.1129 41.3826 13.0612 42.29 11.8037 44.1791H11.8963C12.6889 43.3743 13.1528 42.1867 14.1226 41.3998C16.3685 39.5773 18.6144 37.7549 20.8601 35.9325C20.9679 38.6813 21.0757 41.4303 21.1836 44.1792H21.2539C21.3222 41.5434 21.0544 38.5796 20.9488 35.8858C21.8228 36.3191 22.3832 37.698 22.7665 39.3498C23.3944 39.6494 24.0223 39.9489 24.6502 40.2484C23.2996 39.2864 22.2369 37.9003 21.6249 35.8837C25.57 35.7442 29.515 35.6047 33.4601 35.4651C34.1797 37.6477 34.8887 39.8459 35.6 42.0373C35.6275 42.025 35.6549 42.0122 35.6823 41.9993C34.9738 39.8194 34.2653 37.6394 33.5567 35.4596C35.265 35.3376 36.6301 35.5993 37.5112 35.296V34.9647C37.1395 35.0742 36.6548 35.1478 36.0224 35.193C34.0567 35.3333 33.466 35.0694 33.1751 34.1891C33.2547 34.5455 33.3342 34.9019 33.4139 35.2582C33.1069 34.9126 32.8001 34.567 32.4933 34.2213ZM17.6689 32.8307C14.4651 32.4549 11.2614 32.0792 8.05764 31.7035C8.5323 28.4404 9.0069 25.1774 9.4815 21.9144C12.2106 25.5532 14.9397 29.1919 17.6689 32.8307ZM1.36017 36.4781C2.30197 33.4306 3.24383 30.383 4.18564 27.3355C4.26309 27.4262 4.3389 27.5156 4.41353 27.6038C4.2928 27.3615 4.24139 27.1551 4.28817 27.0039C4.95457 24.8476 5.62097 22.6914 6.28731 20.5351C9.1965 21.7428 9.4732 21.3437 9.03283 24.3715C8.68048 26.7936 8.32819 29.2156 7.97595 31.6376C7.67456 31.2845 6.85032 30.5049 6.05557 29.6687C8.88911 33.5786 7.2512 34.3256 1.36017 36.4781ZM7.57767 34.2346C7.72224 33.4754 7.70705 32.4812 8.04279 31.7926C13.3769 32.4184 16.8628 32.0966 20.7711 35.7796C16.3732 35.2646 11.9755 34.7495 7.57767 34.2346ZM37.5112 19.6834C36.8256 19.3364 36.1069 19.0104 35.3673 18.6988C36.1535 19.0975 36.8799 19.4649 37.5112 19.7503V19.6834ZM24.572 5.90765C23.5013 4.63825 22.4308 3.36895 21.36 2.09954C21.6756 3.17026 23.3793 4.74654 24.572 5.90765ZM21.36 2.09954C21.3406 2.03367 21.3246 1.9691 21.3161 1.90729C21.3115 1.87396 21.3092 1.83916 21.3079 1.80363C21.2824 1.82882 21.2569 1.85368 21.2309 1.87662C21.1706 1.92978 21.0741 1.98819 20.9499 2.04943C21.0491 2.02164 21.1482 1.99384 21.2475 1.9661L21.36 2.09954ZM32.6199 0.605117C32.4537 0.552691 32.2858 0.488684 32.117 0.415638C32.25 0.495746 32.3831 0.575854 32.5159 0.655961C32.1322 0.994132 31.7485 1.3323 31.3648 1.67053C31.8414 1.32151 32.2608 1.00119 32.5792 0.72059C32.7284 0.999385 33.0124 1.45009 33.3548 1.99429C33.1314 1.56618 32.9033 1.1348 32.6697 0.698388C32.7878 0.704659 32.9072 0.711664 33.0266 0.718613C32.8883 0.684321 32.7524 0.646809 32.6199 0.605117ZM26.7799 15.4464C26.7413 15.1843 26.6755 14.8566 26.5938 14.4853C26.4848 15.0231 26.2626 15.4605 25.882 15.741C26.2999 15.6578 26.7481 15.6366 27.2191 15.667C27.0901 15.6177 26.9616 15.5682 26.8339 15.5185C29.907 12.9319 32.9799 10.3453 36.0529 7.75872C36.0183 7.67161 35.9828 7.58466 35.9475 7.49772C35.9249 7.66545 35.863 7.80036 35.7527 7.89323C32.7617 10.4109 29.7707 12.9287 26.7799 15.4464ZM30.8001 23.7608C30.8113 23.7364 30.8218 23.7132 30.8308 23.6925C31.5473 26.9007 32.2638 30.1089 32.9803 33.3171C32.887 32.7619 32.7946 32.0709 32.6055 31.2242L30.9006 23.5907C30.9747 23.5879 31.0489 23.5849 31.1229 23.5822C30.9575 23.5266 30.8309 23.455 30.7524 23.3647C30.7703 23.4301 30.785 23.4943 30.7922 23.5552C30.7999 23.6203 30.8013 23.6896 30.8001 23.7608ZM24.1869 7.44976L19.3935 9.24732C20.2705 9.36884 22.6382 8.19762 24.1869 7.44976ZM4.41347 27.6038C4.69701 28.1732 5.36488 28.9421 6.05546 29.6688C5.61577 29.062 5.06936 28.3799 4.41347 27.6038ZM32.9803 33.3171C33.0374 33.6573 33.0948 33.9467 33.175 34.1891C33.1101 33.8984 33.0451 33.6077 32.9803 33.3171ZM35.7831 42.6019C35.722 42.4139 35.661 42.2255 35.5999 42.0374C34.9803 42.3133 34.3059 42.4444 33.442 42.4909C34.225 42.535 35.0093 42.567 35.7831 42.6019ZM37.4768 40.6661C36.8412 41.2908 36.285 41.7159 35.6822 41.9993L35.8642 42.5591C36.4017 41.9281 36.9392 41.2971 37.4768 40.6661ZM37.5112 40.6257C37.4997 40.6392 37.4882 40.6526 37.4768 40.6661C37.4881 40.6549 37.4997 40.6433 37.5112 40.632V40.6257ZM25.882 15.741C25.5432 15.8085 25.2242 15.9164 24.9303 16.0725C25.3226 16.0385 25.6356 15.9228 25.882 15.741ZM37.2878 23.3452L31.1229 23.5822C32.2786 23.9709 35.3384 23.5792 37.2878 23.3452ZM9.381 10.831C7.38978 11.8657 5.28443 13.4501 3.73284 14.6031L9.23536 11.0399C9.29604 11.0007 9.344 10.9291 9.381 10.831ZM37.5112 23.3185C37.4385 23.327 37.364 23.336 37.2878 23.3452C37.3622 23.3423 37.4368 23.3394 37.5112 23.3366V23.3185ZM28.4032 29.0874C29.1194 27.6622 30.7752 25.1506 30.8001 23.7608C30.4022 24.6263 28.6609 27.7245 28.4032 29.0874ZM17.7668 21.3658C17.7065 18.8723 17.646 16.379 17.5856 13.8854C17.4758 16.1703 17.2661 19.6179 17.7668 21.3658ZM28.8628 30.1319C30.073 31.4951 31.2831 32.8581 32.4933 34.2213C31.4808 32.8701 30.0675 30.9502 28.8628 30.1319ZM18.6405 32.6546C20.5477 32.4782 24.1885 31.0321 26.4626 30.1373C23.8552 30.9765 21.2478 31.8155 18.6405 32.6546ZM-7.68359 36.5457V37.3548C-6.71733 34.7749 -5.86253 31.8507 -5.41453 29.4997C-6.17092 31.8483 -6.92726 34.1971 -7.68359 36.5457ZM29.0701 42.3572C28.2511 42.9645 27.4322 43.5719 26.6132 44.1792H26.7647C27.5587 43.5903 28.3527 43.0015 29.1467 42.4127C29.6138 43.0862 29.9578 43.6796 30.2741 44.1792H30.4021C30.0841 43.6912 29.7319 43.098 29.2463 42.3979C31.0792 42.4805 32.3988 42.5472 33.4421 42.4909C31.3848 42.3752 29.3376 42.1751 27.5168 41.6161C28.0345 41.8631 28.5524 42.1102 29.0701 42.3572Z" fill="white"/>
</g>
<path d="M7.372 19.7461C7.35571 19.7461 7.34757 19.738 7.34757 19.7217L7.35246 16.365C7.35246 16.3519 7.35897 16.3454 7.372 16.3454H7.91923C7.93226 16.3454 7.93878 16.3519 7.93878 16.365L7.94366 19.7217C7.94366 19.738 7.93715 19.7461 7.92412 19.7461H7.372ZM9.27247 19.795C9.09332 19.795 8.93045 19.751 8.78387 19.663C8.64054 19.5718 8.52654 19.4513 8.44185 19.3015C8.35716 19.1516 8.31481 18.9839 8.31481 18.7982L8.3197 17.2738C8.3197 17.0946 8.36041 16.9317 8.44185 16.7852C8.52654 16.6353 8.64054 16.5164 8.78387 16.4285C8.93045 16.3373 9.09332 16.2917 9.27247 16.2917C9.45162 16.2917 9.61286 16.3357 9.75619 16.4236C9.89951 16.5115 10.0135 16.6304 10.0982 16.7803C10.1829 16.9269 10.2252 17.0914 10.2252 17.2738V17.4985C10.2252 17.5116 10.2187 17.5181 10.2057 17.5181H9.65847C9.64544 17.5181 9.63892 17.5116 9.63892 17.4985V17.2738C9.63892 17.1663 9.60309 17.0734 9.53143 16.9953C9.46303 16.9171 9.37671 16.878 9.27247 16.878C9.15521 16.878 9.06563 16.9187 9.00374 17.0002C8.94185 17.0783 8.9109 17.1695 8.9109 17.2738V18.7982C8.9109 18.9187 8.94511 19.0164 9.01351 19.0914C9.08517 19.1663 9.17149 19.2037 9.27247 19.2037C9.37671 19.2037 9.46303 19.163 9.53143 19.0816C9.60309 18.9969 9.63892 18.9024 9.63892 18.7982V18.5734C9.63892 18.5604 9.64544 18.5539 9.65847 18.5539H10.2106C10.2236 18.5539 10.2301 18.5604 10.2301 18.5734V18.7982C10.2301 18.9839 10.1862 19.1516 10.0982 19.3015C10.0135 19.4513 9.89951 19.5718 9.75619 19.663C9.61286 19.751 9.45162 19.795 9.27247 19.795ZM10.607 19.7461C10.5939 19.7461 10.5874 19.738 10.5874 19.7217L10.5923 16.365C10.5923 16.3519 10.5988 16.3454 10.6119 16.3454H12.1803C12.1933 16.3454 12.1998 16.3536 12.1998 16.3699V16.9171C12.1998 16.9301 12.1933 16.9366 12.1803 16.9366H11.1786V17.6989H12.1803C12.1933 17.6989 12.1998 17.7054 12.1998 17.7184L12.2047 18.2705C12.2047 18.2835 12.1982 18.2901 12.1851 18.2901H11.1786V19.1451H12.1851C12.1982 19.1451 12.2047 19.1533 12.2047 19.1695V19.7265C12.2047 19.7396 12.1982 19.7461 12.1851 19.7461H10.607ZM12.6587 19.7461C12.6457 19.7461 12.6392 19.738 12.6392 19.7217L12.6489 16.365C12.6489 16.3519 12.6555 16.3454 12.6685 16.3454H13.6066C13.7923 16.3454 13.9584 16.391 14.105 16.4822C14.2516 16.5702 14.3672 16.6874 14.4519 16.834C14.5366 16.9806 14.5789 17.1402 14.5789 17.3129C14.5789 17.4529 14.5463 17.5832 14.4812 17.7037C14.4193 17.8243 14.3444 17.922 14.2564 17.9969C14.3509 18.0914 14.4242 18.2005 14.4763 18.3243C14.5284 18.448 14.5545 18.5783 14.5545 18.7151C14.5545 18.9041 14.5089 19.0767 14.4177 19.2331C14.3265 19.3894 14.2027 19.5148 14.0463 19.6093C13.8932 19.7005 13.7222 19.7461 13.5333 19.7461H12.6587ZM13.2353 17.694H13.6066C13.7206 17.694 13.8118 17.6549 13.8802 17.5767C13.9519 17.4953 13.9877 17.4073 13.9877 17.3129C13.9877 17.2086 13.9502 17.119 13.8753 17.0441C13.8004 16.9659 13.7108 16.9269 13.6066 16.9269H13.2353V17.694ZM13.2304 19.15H13.5333C13.6506 19.15 13.7516 19.1077 13.8362 19.023C13.9209 18.935 13.9633 18.8324 13.9633 18.7151C13.9633 18.5979 13.9209 18.4969 13.8362 18.4122C13.7516 18.3275 13.6506 18.2852 13.5333 18.2852H13.2353L13.2304 19.15ZM14.9252 19.7461C14.9121 19.7461 14.9056 19.738 14.9056 19.7217L14.9154 16.365C14.9154 16.3519 14.9219 16.3454 14.9349 16.3454H15.9219C16.0978 16.3454 16.2591 16.3894 16.4056 16.4773C16.5555 16.562 16.6744 16.6777 16.7623 16.8243C16.8503 16.9676 16.8942 17.1304 16.8942 17.3129C16.8942 17.4334 16.8763 17.5425 16.8405 17.6402C16.8047 17.7347 16.7623 17.8161 16.7135 17.8845C16.6646 17.9497 16.6206 17.9985 16.5815 18.0311C16.7574 18.2265 16.8454 18.4562 16.8454 18.72L16.8503 19.7217C16.8503 19.738 16.8421 19.7461 16.8258 19.7461H16.2737C16.2607 19.7461 16.2542 19.7412 16.2542 19.7314V18.72C16.2542 18.6028 16.2118 18.5018 16.1271 18.4171C16.0457 18.3291 15.9447 18.2852 15.8242 18.2852H15.5017L15.4968 19.7217C15.4968 19.738 15.4903 19.7461 15.4773 19.7461H14.9252ZM15.5017 17.6989H15.9219C16.0229 17.6989 16.1125 17.6614 16.1907 17.5865C16.2688 17.5116 16.3079 17.4203 16.3079 17.3129C16.3079 17.2086 16.2688 17.119 16.1907 17.0441C16.1157 16.9692 16.0262 16.9317 15.9219 16.9317H15.5017V17.6989ZM17.2823 19.7461C17.2693 19.7461 17.2628 19.738 17.2628 19.7217L17.2676 16.365C17.2676 16.3519 17.2742 16.3454 17.2872 16.3454H18.8556C18.8686 16.3454 18.8751 16.3536 18.8751 16.3699V16.9171C18.8751 16.9301 18.8686 16.9366 18.8556 16.9366H17.854V17.6989H18.8556C18.8686 17.6989 18.8751 17.7054 18.8751 17.7184L18.88 18.2705C18.88 18.2835 18.8735 18.2901 18.8605 18.2901H17.854V19.1451H18.8605C18.8735 19.1451 18.88 19.1533 18.88 19.1695V19.7265C18.88 19.7396 18.8735 19.7461 18.8605 19.7461H17.2823ZM19.1007 19.7217L19.7065 16.365C19.7098 16.3519 19.7179 16.3454 19.731 16.3454H20.4394C20.4525 16.3454 20.4606 16.3519 20.4639 16.365L21.0453 19.7217C21.0486 19.738 21.042 19.7461 21.0258 19.7461H20.4834C20.4704 19.7461 20.4622 19.738 20.459 19.7217L20.4052 19.365H19.7407L19.687 19.7217C19.6837 19.738 19.6756 19.7461 19.6626 19.7461H19.1202C19.1072 19.7461 19.1007 19.738 19.1007 19.7217ZM19.8385 18.8422H20.3075L20.1072 17.4692L20.0779 17.2884L20.0583 17.4692L19.8385 18.8422ZM21.3715 19.7461C21.3584 19.7461 21.3519 19.738 21.3519 19.7217L21.3617 16.3699C21.3617 16.3536 21.3682 16.3454 21.3813 16.3454H21.9285C21.9415 16.3454 21.948 16.3536 21.948 16.3699V17.5278L22.7151 16.365C22.7249 16.3519 22.7363 16.3454 22.7493 16.3454H23.3112C23.3243 16.3454 23.3275 16.3519 23.321 16.365L22.4757 17.7135L23.4236 19.7265C23.4301 19.7396 23.422 19.7461 23.3992 19.7461H22.8031C22.7868 19.7461 22.777 19.7396 22.7738 19.7265L22.1142 18.2901L21.9431 18.5588V19.7217C21.9431 19.738 21.9366 19.7461 21.9236 19.7461H21.3715ZM23.6618 19.7461C23.6488 19.7461 23.6423 19.738 23.6423 19.7217L23.6471 16.365C23.6471 16.3519 23.6537 16.3454 23.6667 16.3454H25.2351C25.2481 16.3454 25.2546 16.3536 25.2546 16.3699V16.9171C25.2546 16.9301 25.2481 16.9366 25.2351 16.9366H24.2335V17.6989H25.2351C25.2481 17.6989 25.2546 17.7054 25.2546 17.7184L25.2595 18.2705C25.2595 18.2835 25.253 18.2901 25.24 18.2901H24.2335V19.1451H25.24C25.253 19.1451 25.2595 19.1533 25.2595 19.1695V19.7265C25.2595 19.7396 25.253 19.7461 25.24 19.7461H23.6618ZM25.7135 19.7461C25.7005 19.7461 25.694 19.738 25.694 19.7217L25.7038 16.365C25.7038 16.3519 25.7103 16.3454 25.7233 16.3454H26.7103C26.8862 16.3454 27.0474 16.3894 27.194 16.4773C27.3438 16.562 27.4627 16.6777 27.5507 16.8243C27.6386 16.9676 27.6826 17.1304 27.6826 17.3129C27.6826 17.4334 27.6647 17.5425 27.6289 17.6402C27.593 17.7347 27.5507 17.8161 27.5018 17.8845C27.453 17.9497 27.409 17.9985 27.3699 18.0311C27.5458 18.2265 27.6338 18.4562 27.6338 18.72L27.6386 19.7217C27.6386 19.738 27.6305 19.7461 27.6142 19.7461H27.0621C27.0491 19.7461 27.0425 19.7412 27.0425 19.7314V18.72C27.0425 18.6028 27.0002 18.5018 26.9155 18.4171C26.8341 18.3291 26.7331 18.2852 26.6126 18.2852H26.2901L26.2852 19.7217C26.2852 19.738 26.2787 19.7461 26.2657 19.7461H25.7135ZM26.2901 17.6989H26.7103C26.8113 17.6989 26.9008 17.6614 26.979 17.5865C27.0572 17.5116 27.0963 17.4203 27.0963 17.3129C27.0963 17.2086 27.0572 17.119 26.979 17.0441C26.9041 16.9692 26.8145 16.9317 26.7103 16.9317H26.2901V17.6989Z" fill="black"/>
</g>
<defs>
<clipPath id="clip0_1091_567">
<rect width="34.7435" height="43.5" rx="1.12987" fill="white"/>
</clipPath>
<clipPath id="clip1_1091_567">
<rect width="45.1948" height="45.1948" fill="white" transform="translate(-7.68359 -1.01562)"/>
</clipPath>
</defs>
</svg>
