<svg width="33" height="25" viewBox="0 0 33 25" fill="none" xmlns="http://www.w3.org/2000/svg">
<g clip-path="url(#clip0_1091_616)">
<rect x="32.6289" width="24.1114" height="32.6289" rx="0.847503" transform="rotate(90 32.6289 0)" fill="#0F973D"/>
<path d="M2.13414 13.1445L1.72539 11.7739H1.97477L2.19227 12.4977C2.21289 12.5727 2.23352 12.6495 2.25414 12.7695C2.27664 12.6477 2.29727 12.5764 2.32164 12.4977L2.53727 11.7739H2.80164L3.01352 12.4977C3.03602 12.5745 3.05664 12.6533 3.07914 12.7695C3.10539 12.642 3.12414 12.5689 3.14477 12.4995L3.36602 11.7739H3.60977L3.19352 13.1445H2.96102L2.66852 12.147L2.37039 13.1445H2.13414ZM4.64131 13.1445H3.79006V11.7739H4.64131V11.9952H4.03006V12.3477H4.57756V12.5595H4.03006V12.9233H4.64131V13.1445ZM5.09651 11.9127L5.04026 12.3177H4.91838L4.86213 11.9127C4.84526 11.8077 4.91651 11.7645 4.98401 11.7645C5.04026 11.7645 5.11151 11.8077 5.09651 11.9127ZM5.59927 13.1445H5.35927V11.7739H5.8824C6.19365 11.7739 6.37552 11.9314 6.37552 12.2014C6.37552 12.3852 6.28927 12.5164 6.12802 12.582L6.38865 13.1445H6.12615L5.89365 12.6327H5.59927V13.1445ZM5.59927 11.9877V12.4208H5.8824C6.03427 12.4208 6.12427 12.3402 6.12427 12.2014C6.12427 12.0645 6.03427 11.9877 5.8824 11.9877H5.59927ZM7.46663 13.1445H6.61538V11.7739H7.46663V11.9952H6.85538V12.3477H7.40288V12.5595H6.85538V12.9233H7.46663V13.1445ZM8.46845 13.1445H8.2322V11.7739H8.47032L9.11345 12.7452V11.7739H9.3497V13.1445H9.11345L8.46845 12.1733V13.1445ZM10.9037 12.4583C10.9037 12.8745 10.63 13.167 10.2362 13.167C9.84435 13.167 9.57435 12.8764 9.57435 12.4583C9.57435 12.042 9.84622 11.7495 10.2381 11.7495C10.63 11.7495 10.9037 12.0402 10.9037 12.4583ZM10.6506 12.4583C10.6506 12.1658 10.4893 11.9802 10.2381 11.9802C9.98685 11.9802 9.8256 12.1658 9.8256 12.4583C9.8256 12.7508 9.98685 12.9364 10.2381 12.9364C10.4893 12.9364 10.6506 12.747 10.6506 12.4583ZM10.9595 11.9952V11.7739H12.002V11.9952H11.6007V13.1445H11.3607V11.9952H10.9595ZM12.9308 13.1445H12.6908V11.7739H13.2139C13.5252 11.7739 13.7071 11.9314 13.7071 12.2014C13.7071 12.3852 13.6208 12.5164 13.4596 12.582L13.7202 13.1445H13.4577L13.2252 12.6327H12.9308V13.1445ZM12.9308 11.9877V12.4208H13.2139C13.3658 12.4208 13.4558 12.3402 13.4558 12.2014C13.4558 12.0645 13.3658 11.9877 13.2139 11.9877H12.9308ZM14.7982 13.1445H13.9469V11.7739H14.7982V11.9952H14.1869V12.3477H14.7344V12.5595H14.1869V12.9233H14.7982V13.1445ZM15.1765 13.1445H14.9271L15.4221 11.7739H15.6677L16.1627 13.1445H15.9096L15.799 12.8277H15.2871L15.1765 13.1445ZM15.514 12.1827L15.3584 12.6252H15.7296L15.5721 12.1827C15.5609 12.147 15.5477 12.1058 15.544 12.0777C15.5384 12.1039 15.5271 12.1452 15.514 12.1827ZM16.5746 11.7739V12.9233H17.1484V13.1445H16.3346V11.7739H16.5746ZM17.5835 11.7739V12.9233H18.1573V13.1445H17.3435V11.7739H17.5835ZM18.5396 12.6045L18.0765 11.7739H18.3446L18.6146 12.2727C18.6352 12.3102 18.6484 12.3402 18.6634 12.3739C18.6802 12.3402 18.6877 12.3177 18.7121 12.2727L18.9802 11.7739H19.2409L18.7796 12.6045V13.1445H18.5396V12.6045ZM19.8374 12.1564C19.8374 11.9164 20.0362 11.7495 20.3249 11.7495C20.6024 11.7495 20.7787 11.9033 20.7862 12.1508H20.5462C20.5405 12.0327 20.4562 11.9633 20.3212 11.9633C20.173 11.9633 20.0774 12.0345 20.0774 12.1489C20.0774 12.2464 20.1299 12.3008 20.2443 12.327L20.4599 12.3739C20.6943 12.4245 20.8087 12.5445 20.8087 12.7489C20.8087 13.0039 20.6099 13.1689 20.308 13.1689C20.0155 13.1689 19.8243 13.0133 19.8187 12.7677H20.0587C20.0605 12.8839 20.1543 12.9533 20.308 12.9533C20.4674 12.9533 20.5687 12.8839 20.5687 12.7695C20.5687 12.6777 20.5218 12.6233 20.4093 12.5989L20.1918 12.5502C19.9593 12.4995 19.8374 12.3664 19.8374 12.1564ZM20.8875 11.9952V11.7739H21.93V11.9952H21.5287V13.1445H21.2887V11.9952H20.8875ZM22.3534 13.1445H22.1134V11.7739H22.6365C22.9478 11.7739 23.1297 11.9314 23.1297 12.2014C23.1297 12.3852 23.0434 12.5164 22.8822 12.582L23.1428 13.1445H22.8803L22.6478 12.6327H22.3534V13.1445ZM22.3534 11.9877V12.4208H22.6365C22.7884 12.4208 22.8784 12.3402 22.8784 12.2014C22.8784 12.0645 22.7884 11.9877 22.6365 11.9877H22.3534ZM23.4877 13.1445H23.2383L23.7333 11.7739H23.9789L24.4739 13.1445H24.2208L24.1102 12.8277H23.5983L23.4877 13.1445ZM23.8252 12.1827L23.6695 12.6252H24.0408L23.8833 12.1827C23.872 12.147 23.8589 12.1058 23.8552 12.0777C23.8495 12.1039 23.8383 12.1452 23.8252 12.1827ZM24.882 13.1445H24.6458V11.7739H24.8839L25.527 12.7452V11.7739H25.7633V13.1445H25.527L24.882 12.1733V13.1445ZM26.6667 11.9764C26.3948 11.9764 26.2392 12.1733 26.2392 12.4695C26.2392 12.7752 26.4154 12.942 26.6685 12.942C26.9067 12.942 27.051 12.8108 27.051 12.5914V12.5858H26.6367V12.3739H27.2742V13.1445H27.0717L27.0567 12.987C26.9817 13.092 26.826 13.1652 26.6404 13.1652C26.256 13.1652 25.9879 12.8858 25.9879 12.4639C25.9879 12.0477 26.2598 11.7514 26.6723 11.7514C26.9854 11.7514 27.2273 11.9333 27.2667 12.2127H27.0135C26.9704 12.0514 26.8317 11.9764 26.6667 11.9764ZM28.4414 13.1445H27.5901V11.7739H28.4414V11.9952H27.8301V12.3477H28.3776V12.5595H27.8301V12.9233H28.4414V13.1445ZM28.9416 13.1445H28.7016V11.7739H29.2247C29.5359 11.7739 29.7178 11.9314 29.7178 12.2014C29.7178 12.3852 29.6316 12.5164 29.4703 12.582L29.7309 13.1445H29.4684L29.2359 12.6327H28.9416V13.1445ZM28.9416 11.9877V12.4208H29.2247C29.3766 12.4208 29.4666 12.3402 29.4666 12.2014C29.4666 12.0645 29.3766 11.9877 29.2247 11.9877H28.9416ZM29.8789 12.1564C29.8789 11.9164 30.0777 11.7495 30.3664 11.7495C30.6439 11.7495 30.8202 11.9033 30.8277 12.1508H30.5877C30.582 12.0327 30.4977 11.9633 30.3627 11.9633C30.2145 11.9633 30.1189 12.0345 30.1189 12.1489C30.1189 12.2464 30.1714 12.3008 30.2858 12.327L30.5014 12.3739C30.7358 12.4245 30.8502 12.5445 30.8502 12.7489C30.8502 13.0039 30.6514 13.1689 30.3495 13.1689C30.057 13.1689 29.8658 13.0133 29.8602 12.7677H30.1002C30.102 12.8839 30.1958 12.9533 30.3495 12.9533C30.5089 12.9533 30.6102 12.8839 30.6102 12.7695C30.6102 12.6777 30.5633 12.6233 30.4508 12.5989L30.2333 12.5502C30.0008 12.4995 29.8789 12.3664 29.8789 12.1564Z" fill="#E8E6E3"/>
<rect width="32.6289" height="0.169501" transform="translate(0.00195312 0.509766)" fill="#E8E6E3"/>
<rect width="32.6289" height="0.296626" transform="translate(0.00195312 0.720703)" fill="#E8E6E3"/>
<rect width="32.6289" height="0.169501" transform="translate(0.00195312 23.0957)" fill="#E8E6E3"/>
<rect width="32.6289" height="0.296626" transform="translate(0.00195312 23.3066)" fill="#E8E6E3"/>
</g>
<defs>
<clipPath id="clip0_1091_616">
<rect x="32.6289" width="24.1114" height="32.6289" rx="0.847503" transform="rotate(90 32.6289 0)" fill="white"/>
</clipPath>
</defs>
</svg>
