<svg width="35" height="44" viewBox="0 0 35 44" fill="none" xmlns="http://www.w3.org/2000/svg" xmlns:xlink="http://www.w3.org/1999/xlink">
<g clip-path="url(#clip0_1091_962)">
<rect width="34.7435" height="43.5" rx="1.12987" fill="#36A6BB"/>
<rect x="-1.18555" y="-2.31641" width="35.9299" height="52.0305"/>
<mask id="path-3-outside-1_1091_962" maskUnits="userSpaceOnUse" x="11.373" y="2.97852" width="12" height="5" fill="black">
<rect fill="white" x="11.373" y="2.97852" width="12" height="5"/>
<path d="M14.1277 5.0035L14.2633 3.49852H15.7728L14.8599 6.10174V6.97852H13.3549V6.10174L12.4374 3.49852H13.9469L14.087 5.0035H14.1277ZM18.8711 6.03846C18.8229 6.35483 18.6557 6.6034 18.3695 6.78418C18.0832 6.96194 17.7081 7.05083 17.2441 7.05083C16.7801 7.05083 16.405 6.96194 16.1188 6.78418C15.8355 6.60641 15.6683 6.36085 15.6171 6.0475C15.6051 5.96314 15.5945 5.85015 15.5855 5.70854C15.5794 5.56392 15.5764 5.40875 15.5764 5.24304C15.5764 5.08335 15.5794 4.93571 15.5855 4.80013C15.5945 4.66153 15.6051 4.55306 15.6171 4.47472C15.6683 4.14329 15.8371 3.88568 16.1233 3.70189C16.4095 3.5181 16.7831 3.4262 17.2441 3.4262C17.7081 3.4262 18.0832 3.5181 18.3695 3.70189C18.6557 3.88267 18.8229 4.13426 18.8711 4.45665C18.8832 4.53498 18.8922 4.64345 18.8982 4.78205C18.9073 4.91763 18.9118 5.06678 18.9118 5.22948C18.9118 5.40122 18.9073 5.55789 18.8982 5.6995C18.8922 5.84111 18.8832 5.9541 18.8711 6.03846ZM17.3661 5.83057V4.64646C17.3661 4.56511 17.3255 4.52444 17.2441 4.52444C17.1628 4.52444 17.1221 4.56511 17.1221 4.64646V5.83057C17.1221 5.91192 17.1628 5.95259 17.2441 5.95259C17.3255 5.95259 17.3661 5.91192 17.3661 5.83057ZM19.0854 3.49852H20.5497V5.76729C20.5497 5.77633 20.5542 5.79893 20.5633 5.83509C20.5753 5.87124 20.6115 5.88932 20.6718 5.88932C20.732 5.88932 20.7667 5.87124 20.7757 5.83509C20.7878 5.79893 20.7938 5.77633 20.7938 5.76729V3.49852H22.2581V5.83057C22.2581 5.99628 22.231 6.15296 22.1767 6.30059C22.1225 6.44522 22.0336 6.57478 21.9101 6.68927C21.7866 6.80075 21.6193 6.88963 21.4084 6.95592C21.2005 7.01919 20.9414 7.05083 20.6311 7.05083C20.3569 7.05083 20.1219 7.01768 19.926 6.9514C19.7302 6.88511 19.5705 6.79472 19.447 6.68023C19.3234 6.56574 19.2315 6.43618 19.1713 6.29155C19.114 6.14693 19.0854 5.99628 19.0854 5.83961V3.49852Z"/>
</mask>
<path d="M14.1277 5.0035L14.2633 3.49852H15.7728L14.8599 6.10174V6.97852H13.3549V6.10174L12.4374 3.49852H13.9469L14.087 5.0035H14.1277ZM18.8711 6.03846C18.8229 6.35483 18.6557 6.6034 18.3695 6.78418C18.0832 6.96194 17.7081 7.05083 17.2441 7.05083C16.7801 7.05083 16.405 6.96194 16.1188 6.78418C15.8355 6.60641 15.6683 6.36085 15.6171 6.0475C15.6051 5.96314 15.5945 5.85015 15.5855 5.70854C15.5794 5.56392 15.5764 5.40875 15.5764 5.24304C15.5764 5.08335 15.5794 4.93571 15.5855 4.80013C15.5945 4.66153 15.6051 4.55306 15.6171 4.47472C15.6683 4.14329 15.8371 3.88568 16.1233 3.70189C16.4095 3.5181 16.7831 3.4262 17.2441 3.4262C17.7081 3.4262 18.0832 3.5181 18.3695 3.70189C18.6557 3.88267 18.8229 4.13426 18.8711 4.45665C18.8832 4.53498 18.8922 4.64345 18.8982 4.78205C18.9073 4.91763 18.9118 5.06678 18.9118 5.22948C18.9118 5.40122 18.9073 5.55789 18.8982 5.6995C18.8922 5.84111 18.8832 5.9541 18.8711 6.03846ZM17.3661 5.83057V4.64646C17.3661 4.56511 17.3255 4.52444 17.2441 4.52444C17.1628 4.52444 17.1221 4.56511 17.1221 4.64646V5.83057C17.1221 5.91192 17.1628 5.95259 17.2441 5.95259C17.3255 5.95259 17.3661 5.91192 17.3661 5.83057ZM19.0854 3.49852H20.5497V5.76729C20.5497 5.77633 20.5542 5.79893 20.5633 5.83509C20.5753 5.87124 20.6115 5.88932 20.6718 5.88932C20.732 5.88932 20.7667 5.87124 20.7757 5.83509C20.7878 5.79893 20.7938 5.77633 20.7938 5.76729V3.49852H22.2581V5.83057C22.2581 5.99628 22.231 6.15296 22.1767 6.30059C22.1225 6.44522 22.0336 6.57478 21.9101 6.68927C21.7866 6.80075 21.6193 6.88963 21.4084 6.95592C21.2005 7.01919 20.9414 7.05083 20.6311 7.05083C20.3569 7.05083 20.1219 7.01768 19.926 6.9514C19.7302 6.88511 19.5705 6.79472 19.447 6.68023C19.3234 6.56574 19.2315 6.43618 19.1713 6.29155C19.114 6.14693 19.0854 5.99628 19.0854 5.83961V3.49852Z" fill="#755AA7"/>
<path d="M14.1277 5.0035V5.17298H14.2826L14.2965 5.01871L14.1277 5.0035ZM14.2633 3.49852V3.32903H14.1084L14.0945 3.48331L14.2633 3.49852ZM15.7728 3.49852L15.9327 3.5546L16.0119 3.32903H15.7728V3.49852ZM14.8599 6.10174L14.6999 6.04565L14.6904 6.07288V6.10174H14.8599ZM14.8599 6.97852V7.148H15.0294V6.97852H14.8599ZM13.3549 6.97852H13.1854V7.148H13.3549V6.97852ZM13.3549 6.10174H13.5244V6.07275L13.5147 6.0454L13.3549 6.10174ZM12.4374 3.49852V3.32903H12.198L12.2776 3.55485L12.4374 3.49852ZM13.9469 3.49852L14.1157 3.48281L14.1014 3.32903H13.9469V3.49852ZM14.087 5.0035L13.9183 5.01921L13.9326 5.17298H14.087V5.0035ZM14.1277 5.0035L14.2965 5.01871L14.4321 3.51372L14.2633 3.49852L14.0945 3.48331L13.9589 4.9883L14.1277 5.0035ZM14.2633 3.49852V3.668H15.7728V3.49852V3.32903H14.2633V3.49852ZM15.7728 3.49852L15.6129 3.44243L14.6999 6.04565L14.8599 6.10174L15.0198 6.15782L15.9327 3.5546L15.7728 3.49852ZM14.8599 6.10174H14.6904V6.97852H14.8599H15.0294V6.10174H14.8599ZM14.8599 6.97852V6.80904H13.3549V6.97852V7.148H14.8599V6.97852ZM13.3549 6.97852H13.5244V6.10174H13.3549H13.1854V6.97852H13.3549ZM13.3549 6.10174L13.5147 6.0454L12.5973 3.44218L12.4374 3.49852L12.2776 3.55485L13.195 6.15807L13.3549 6.10174ZM12.4374 3.49852V3.668H13.9469V3.49852V3.32903H12.4374V3.49852ZM13.9469 3.49852L13.7782 3.51422L13.9183 5.01921L14.087 5.0035L14.2558 4.98779L14.1157 3.48281L13.9469 3.49852ZM14.087 5.0035V5.17298H14.1277V5.0035V4.83402H14.087V5.0035ZM18.8711 6.03846L19.0387 6.064L19.0389 6.06243L18.8711 6.03846ZM18.3695 6.78418L18.4589 6.92816L18.46 6.92747L18.3695 6.78418ZM16.1188 6.78418L16.0287 6.92773L16.0294 6.92815L16.1188 6.78418ZM15.6171 6.0475L15.4493 6.07148L15.4498 6.07484L15.6171 6.0475ZM15.5855 5.70854L15.4161 5.7156L15.4163 5.71934L15.5855 5.70854ZM15.5855 4.80013L15.4163 4.78909L15.4162 4.7926L15.5855 4.80013ZM15.6171 4.47472L15.4496 4.44884L15.4496 4.44895L15.6171 4.47472ZM16.1233 3.70189L16.2149 3.8445V3.8445L16.1233 3.70189ZM18.3695 3.70189L18.2779 3.84451L18.279 3.84519L18.3695 3.70189ZM18.8711 4.45665L18.7035 4.48171L18.7036 4.48242L18.8711 4.45665ZM18.8982 4.78205L18.7289 4.78941L18.7291 4.79332L18.8982 4.78205ZM18.8982 5.6995L18.7291 5.6887L18.7289 5.6923L18.8982 5.6995ZM18.8711 6.03846L18.7036 6.01293C18.6633 6.27762 18.5264 6.48461 18.279 6.64088L18.3695 6.78418L18.46 6.92747C18.785 6.72219 18.9826 6.43203 19.0387 6.06399L18.8711 6.03846ZM18.3695 6.78418L18.2801 6.6402C18.029 6.79614 17.688 6.88135 17.2441 6.88135V7.05083V7.22031C17.7283 7.22031 18.1375 7.12775 18.4589 6.92815L18.3695 6.78418ZM17.2441 7.05083V6.88135C16.8003 6.88135 16.4593 6.79614 16.2082 6.6402L16.1188 6.78418L16.0294 6.92815C16.3507 7.12775 16.76 7.22031 17.2441 7.22031V7.05083ZM16.1188 6.78418L16.2089 6.64063C15.9644 6.48717 15.8273 6.28267 15.7844 6.02016L15.6171 6.0475L15.4498 6.07484C15.5094 6.43903 15.7067 6.72566 16.0287 6.92773L16.1188 6.78418ZM15.6171 6.0475L15.7849 6.02353C15.7737 5.94545 15.7635 5.83743 15.7546 5.69775L15.5855 5.70854L15.4163 5.71934C15.4255 5.86288 15.4364 5.98082 15.4493 6.07147L15.6171 6.0475ZM15.5855 5.70854L15.7548 5.70149C15.7489 5.55952 15.7459 5.40673 15.7459 5.24304H15.5764H15.4069C15.4069 5.41077 15.41 5.56832 15.4161 5.7156L15.5855 5.70854ZM15.5764 5.24304H15.7459C15.7459 5.08543 15.7489 4.94034 15.7548 4.80765L15.5855 4.80013L15.4162 4.7926C15.41 4.93108 15.4069 5.08126 15.4069 5.24304H15.5764ZM15.5855 4.80013L15.7546 4.81116C15.7635 4.67442 15.7737 4.57163 15.7846 4.50049L15.6171 4.47472L15.4496 4.44895C15.4364 4.53449 15.4255 4.64863 15.4163 4.7891L15.5855 4.80013ZM15.6171 4.47472L15.7846 4.50061C15.8283 4.21795 15.9688 4.00249 16.2149 3.8445L16.1233 3.70189L16.0317 3.55928C15.7053 3.76888 15.5084 4.06864 15.4496 4.44884L15.6171 4.47472ZM16.1233 3.70189L16.2149 3.8445C16.4657 3.68346 16.8044 3.59568 17.2441 3.59568V3.4262V3.25672C16.7619 3.25672 16.3534 3.35274 16.0317 3.55928L16.1233 3.70189ZM17.2441 3.4262V3.59568C17.6871 3.59568 18.0272 3.68356 18.2779 3.8445L18.3695 3.70189L18.461 3.55928C18.1392 3.35264 17.7291 3.25672 17.2441 3.25672V3.4262ZM18.3695 3.70189L18.279 3.84519C18.5254 4.0008 18.6629 4.21018 18.7035 4.48171L18.8711 4.45665L19.0387 4.43158C18.9829 4.05833 18.786 3.76454 18.46 3.5586L18.3695 3.70189ZM18.8711 4.45665L18.7036 4.48242C18.7143 4.55177 18.723 4.65315 18.7289 4.78941L18.8982 4.78205L19.0676 4.77469C19.0614 4.63375 19.0521 4.51819 19.0386 4.43087L18.8711 4.45665ZM18.8982 4.78205L18.7291 4.79332C18.7379 4.92451 18.7423 5.06983 18.7423 5.22948H18.9118H19.0813C19.0813 5.06372 19.0767 4.91076 19.0674 4.77077L18.8982 4.78205ZM18.9118 5.22948H18.7423C18.7423 5.39833 18.7379 5.55134 18.7291 5.68871L18.8982 5.6995L19.0674 5.7103C19.0767 5.56444 19.0813 5.4041 19.0813 5.22948H18.9118ZM18.8982 5.6995L18.7289 5.6923C18.723 5.83145 18.7143 5.93812 18.7034 6.0145L18.8711 6.03846L19.0389 6.06243C19.0521 5.97008 19.0614 5.85078 19.0676 5.70671L18.8982 5.6995ZM17.3661 5.83057H17.5356V4.64646H17.3661H17.1967V5.83057H17.3661ZM17.3661 4.64646H17.5356C17.5356 4.57966 17.5188 4.49843 17.4555 4.4351C17.3921 4.37177 17.3109 4.35496 17.2441 4.35496V4.52444V4.69392C17.2587 4.69392 17.2385 4.69744 17.2158 4.67478C17.1931 4.65213 17.1967 4.63191 17.1967 4.64646H17.3661ZM17.2441 4.52444V4.35496C17.1773 4.35496 17.0961 4.37177 17.0328 4.4351C16.9694 4.49843 16.9526 4.57966 16.9526 4.64646H17.1221H17.2916C17.2916 4.63191 17.2951 4.65213 17.2724 4.67478C17.2498 4.69744 17.2296 4.69392 17.2441 4.69392V4.52444ZM17.1221 4.64646H16.9526V5.83057H17.1221H17.2916V4.64646H17.1221ZM17.1221 5.83057H16.9526C16.9526 5.89737 16.9694 5.9786 17.0328 6.04193C17.0961 6.10526 17.1773 6.12207 17.2441 6.12207V5.95259V5.78311C17.2296 5.78311 17.2498 5.77959 17.2724 5.80225C17.2951 5.8249 17.2916 5.84512 17.2916 5.83057H17.1221ZM17.2441 5.95259V6.12207C17.3109 6.12207 17.3921 6.10526 17.4555 6.04193C17.5188 5.9786 17.5356 5.89737 17.5356 5.83057H17.3661H17.1967C17.1967 5.84512 17.1931 5.8249 17.2158 5.80225C17.2385 5.77959 17.2587 5.78311 17.2441 5.78311V5.95259ZM19.0854 3.49852V3.32903H18.9159V3.49852H19.0854ZM20.5497 3.49852H20.7192V3.32903H20.5497V3.49852ZM20.5633 5.83509L20.3984 5.87631L20.4025 5.88868L20.5633 5.83509ZM20.7757 5.83509L20.6144 5.78133L20.6113 5.79398L20.7757 5.83509ZM20.7938 3.49852V3.32903H20.6243V3.49852H20.7938ZM22.2581 3.49852H22.4276V3.32903H22.2581V3.49852ZM22.1767 6.30059L22.3354 6.3601L22.3358 6.35903L22.1767 6.30059ZM21.9101 6.68927L22.0236 6.8151L22.0253 6.81357L21.9101 6.68927ZM21.4084 6.95592L21.4578 7.11806L21.4592 7.1176L21.4084 6.95592ZM19.447 6.68023L19.3318 6.80453V6.80453L19.447 6.68023ZM19.1713 6.29155L19.0137 6.35394L19.0148 6.35674L19.1713 6.29155ZM19.0854 3.49852V3.668H20.5497V3.49852V3.32903H19.0854V3.49852ZM20.5497 3.49852H20.3802V5.76729H20.5497H20.7192V3.49852H20.5497ZM20.5497 5.76729H20.3802C20.3802 5.79064 20.3848 5.81373 20.3869 5.82426C20.3899 5.83929 20.394 5.85688 20.3989 5.87619L20.5633 5.83509L20.7277 5.79398C20.7235 5.77714 20.7208 5.76535 20.7193 5.75778C20.7186 5.75399 20.7183 5.75248 20.7184 5.75265C20.7184 5.75279 20.7185 5.75398 20.7187 5.75598C20.7189 5.75776 20.7192 5.76179 20.7192 5.76729H20.5497ZM20.5633 5.83509L20.4025 5.88868C20.4502 6.03164 20.5882 6.0588 20.6718 6.0588V5.88932V5.71984C20.6561 5.71984 20.6611 5.7171 20.6752 5.72417C20.6833 5.7282 20.6937 5.73514 20.7035 5.74622C20.7135 5.75745 20.7202 5.76988 20.7241 5.78149L20.5633 5.83509ZM20.6718 5.88932V6.0588C20.7157 6.0588 20.7702 6.05271 20.8213 6.02602C20.8792 5.99581 20.9232 5.94381 20.9401 5.87619L20.7757 5.83509L20.6113 5.79398C20.6146 5.78089 20.6211 5.76617 20.6321 5.75249C20.643 5.73899 20.655 5.73046 20.6645 5.7255C20.681 5.7169 20.688 5.71984 20.6718 5.71984V5.88932ZM20.7757 5.83509L20.9365 5.88868C20.943 5.86908 20.9487 5.85074 20.953 5.83469C20.9557 5.82471 20.9633 5.79683 20.9633 5.76729H20.7938H20.6243C20.6243 5.75958 20.6249 5.75377 20.6253 5.75093C20.6256 5.7478 20.626 5.74568 20.6262 5.7449C20.6264 5.74349 20.6264 5.74406 20.6255 5.74735C20.6238 5.75391 20.6204 5.76493 20.6149 5.78149L20.7757 5.83509ZM20.7938 5.76729H20.9633V3.49852H20.7938H20.6243V5.76729H20.7938ZM20.7938 3.49852V3.668H22.2581V3.49852V3.32903H20.7938V3.49852ZM22.2581 3.49852H22.0886V5.83057H22.2581H22.4276V3.49852H22.2581ZM22.2581 5.83057H22.0886C22.0886 5.97742 22.0647 6.11422 22.0177 6.24215L22.1767 6.30059L22.3358 6.35903C22.3973 6.19169 22.4276 6.01514 22.4276 5.83057H22.2581ZM22.1767 6.30059L22.0181 6.24109C21.9739 6.35884 21.9009 6.46674 21.7949 6.56497L21.9101 6.68927L22.0253 6.81357C22.1664 6.68281 22.2711 6.53159 22.3354 6.3601L22.1767 6.30059ZM21.9101 6.68927L21.7965 6.56345C21.696 6.65417 21.5526 6.73297 21.3576 6.79423L21.4084 6.95592L21.4592 7.1176C21.6861 7.0463 21.8771 6.94733 22.0236 6.81509L21.9101 6.68927ZM21.4084 6.95592L21.3591 6.79378C21.1724 6.85059 20.9312 6.88135 20.6311 6.88135V7.05083V7.22031C20.9516 7.22031 21.2287 7.18779 21.4578 7.11806L21.4084 6.95592ZM20.6311 7.05083V6.88135C20.3697 6.88135 20.1541 6.84965 19.9804 6.79086L19.926 6.9514L19.8717 7.11193C20.0897 7.18572 20.3441 7.22031 20.6311 7.22031V7.05083ZM19.926 6.9514L19.9804 6.79086C19.8021 6.73053 19.6647 6.65094 19.5622 6.55593L19.447 6.68023L19.3318 6.80453C19.4763 6.93851 19.6583 7.03969 19.8717 7.11193L19.926 6.9514ZM19.447 6.68023L19.5622 6.55593C19.4551 6.4567 19.378 6.34691 19.3277 6.22637L19.1713 6.29155L19.0148 6.35674C19.0851 6.52545 19.1918 6.67478 19.3318 6.80453L19.447 6.68023ZM19.1713 6.29155L19.3289 6.22918C19.2795 6.10456 19.2549 5.97509 19.2549 5.83961H19.0854H18.9159C18.9159 6.01748 18.9485 6.1893 19.0137 6.35393L19.1713 6.29155ZM19.0854 5.83961H19.2549V3.49852H19.0854H18.9159V5.83961H19.0854Z" fill="white" mask="url(#path-3-outside-1_1091_962)"/>
<mask id="path-5-outside-2_1091_962" maskUnits="userSpaceOnUse" x="7.58789" y="21.6191" width="19" height="5" fill="black">
<rect fill="white" x="7.58789" y="21.6191" width="19" height="5"/>
<path d="M10.5072 23.6441L10.6428 22.1391H12.1523L11.2393 24.7424V25.6191H9.73436V24.7424L8.8169 22.1391H10.3264L10.4665 23.6441H10.5072ZM15.2506 24.6791C15.2024 24.9955 15.0352 25.244 14.7489 25.4248C14.4627 25.6026 14.0876 25.6915 13.6236 25.6915C13.1596 25.6915 12.7845 25.6026 12.4982 25.4248C12.215 25.247 12.0478 25.0015 11.9966 24.6881C11.9845 24.6038 11.974 24.4908 11.9649 24.3492C11.9589 24.2045 11.9559 24.0494 11.9559 23.8837C11.9559 23.724 11.9589 23.5763 11.9649 23.4408C11.974 23.3022 11.9845 23.1937 11.9966 23.1153C12.0478 22.7839 12.2165 22.5263 12.5028 22.3425C12.789 22.1587 13.1626 22.0668 13.6236 22.0668C14.0876 22.0668 14.4627 22.1587 14.7489 22.3425C15.0352 22.5233 15.2024 22.7749 15.2506 23.0973C15.2626 23.1756 15.2717 23.2841 15.2777 23.4227C15.2868 23.5583 15.2913 23.7074 15.2913 23.8701C15.2913 24.0418 15.2868 24.1985 15.2777 24.3401C15.2717 24.4817 15.2626 24.5947 15.2506 24.6791ZM13.7456 24.4712V23.2871C13.7456 23.2057 13.7049 23.1651 13.6236 23.1651C13.5422 23.1651 13.5016 23.2057 13.5016 23.2871V24.4712C13.5016 24.5525 13.5422 24.5932 13.6236 24.5932C13.7049 24.5932 13.7456 24.5525 13.7456 24.4712ZM15.4649 22.1391H16.9292V24.4079C16.9292 24.417 16.9337 24.4396 16.9428 24.4757C16.9548 24.5119 16.991 24.5299 17.0512 24.5299C17.1115 24.5299 17.1461 24.5119 17.1552 24.4757C17.1672 24.4396 17.1732 24.417 17.1732 24.4079V22.1391H18.6376V24.4712C18.6376 24.6369 18.6104 24.7936 18.5562 24.9412C18.502 25.0858 18.4131 25.2154 18.2896 25.3299C18.166 25.4414 17.9988 25.5303 17.7879 25.5965C17.58 25.6598 17.3209 25.6915 17.0105 25.6915C16.7364 25.6915 16.5013 25.6583 16.3055 25.592C16.1097 25.5257 15.95 25.4353 15.8264 25.3209C15.7029 25.2064 15.611 25.0768 15.5508 24.9322C15.4935 24.7876 15.4649 24.6369 15.4649 24.4802V22.1391ZM18.7779 23.2555V23.2464C18.8231 23.0958 18.8517 22.918 18.8637 22.7131C18.8758 22.5052 18.8728 22.2898 18.8547 22.0668L18.8592 22.0623L19.9575 22.0216V22.0307C19.9575 22.2295 19.9379 22.4133 19.8987 22.582C19.8595 22.7478 19.8098 22.8939 19.7496 23.0204C19.6893 23.147 19.626 23.2464 19.5597 23.3187L18.7779 23.2555ZM21.5497 25.6191H20.126V22.1391H22.1959C22.3888 22.1391 22.565 22.1738 22.7247 22.2431C22.8874 22.3124 23.017 22.4239 23.1134 22.5775C23.2098 22.7312 23.258 22.9361 23.258 23.1922C23.258 23.2645 23.252 23.3428 23.2399 23.4272C23.2309 23.5116 23.2083 23.5959 23.1721 23.6803C23.136 23.7616 23.0803 23.8355 23.0049 23.9017C22.9326 23.965 22.8332 24.0147 22.7066 24.0509L23.4207 25.6191H21.8344L21.5903 24.6881H21.5497V25.6191ZM21.8615 23.2509H21.4276V23.495H21.8751C21.8992 23.495 21.9248 23.4875 21.9519 23.4724C21.982 23.4573 21.9971 23.4257 21.9971 23.3775C21.9971 23.3263 21.9805 23.2931 21.9474 23.278C21.9142 23.26 21.8856 23.2509 21.8615 23.2509ZM24.9525 24.2543V24.4396H26.3355V25.6191H23.5289V22.1391H26.2541V23.156H24.9525V23.3413H26.1321V24.2543H24.9525Z"/>
</mask>
<path d="M10.5072 23.6441L10.6428 22.1391H12.1523L11.2393 24.7424V25.6191H9.73436V24.7424L8.8169 22.1391H10.3264L10.4665 23.6441H10.5072ZM15.2506 24.6791C15.2024 24.9955 15.0352 25.244 14.7489 25.4248C14.4627 25.6026 14.0876 25.6915 13.6236 25.6915C13.1596 25.6915 12.7845 25.6026 12.4982 25.4248C12.215 25.247 12.0478 25.0015 11.9966 24.6881C11.9845 24.6038 11.974 24.4908 11.9649 24.3492C11.9589 24.2045 11.9559 24.0494 11.9559 23.8837C11.9559 23.724 11.9589 23.5763 11.9649 23.4408C11.974 23.3022 11.9845 23.1937 11.9966 23.1153C12.0478 22.7839 12.2165 22.5263 12.5028 22.3425C12.789 22.1587 13.1626 22.0668 13.6236 22.0668C14.0876 22.0668 14.4627 22.1587 14.7489 22.3425C15.0352 22.5233 15.2024 22.7749 15.2506 23.0973C15.2626 23.1756 15.2717 23.2841 15.2777 23.4227C15.2868 23.5583 15.2913 23.7074 15.2913 23.8701C15.2913 24.0418 15.2868 24.1985 15.2777 24.3401C15.2717 24.4817 15.2626 24.5947 15.2506 24.6791ZM13.7456 24.4712V23.2871C13.7456 23.2057 13.7049 23.1651 13.6236 23.1651C13.5422 23.1651 13.5016 23.2057 13.5016 23.2871V24.4712C13.5016 24.5525 13.5422 24.5932 13.6236 24.5932C13.7049 24.5932 13.7456 24.5525 13.7456 24.4712ZM15.4649 22.1391H16.9292V24.4079C16.9292 24.417 16.9337 24.4396 16.9428 24.4757C16.9548 24.5119 16.991 24.5299 17.0512 24.5299C17.1115 24.5299 17.1461 24.5119 17.1552 24.4757C17.1672 24.4396 17.1732 24.417 17.1732 24.4079V22.1391H18.6376V24.4712C18.6376 24.6369 18.6104 24.7936 18.5562 24.9412C18.502 25.0858 18.4131 25.2154 18.2896 25.3299C18.166 25.4414 17.9988 25.5303 17.7879 25.5965C17.58 25.6598 17.3209 25.6915 17.0105 25.6915C16.7364 25.6915 16.5013 25.6583 16.3055 25.592C16.1097 25.5257 15.95 25.4353 15.8264 25.3209C15.7029 25.2064 15.611 25.0768 15.5508 24.9322C15.4935 24.7876 15.4649 24.6369 15.4649 24.4802V22.1391ZM18.7779 23.2555V23.2464C18.8231 23.0958 18.8517 22.918 18.8637 22.7131C18.8758 22.5052 18.8728 22.2898 18.8547 22.0668L18.8592 22.0623L19.9575 22.0216V22.0307C19.9575 22.2295 19.9379 22.4133 19.8987 22.582C19.8595 22.7478 19.8098 22.8939 19.7496 23.0204C19.6893 23.147 19.626 23.2464 19.5597 23.3187L18.7779 23.2555ZM21.5497 25.6191H20.126V22.1391H22.1959C22.3888 22.1391 22.565 22.1738 22.7247 22.2431C22.8874 22.3124 23.017 22.4239 23.1134 22.5775C23.2098 22.7312 23.258 22.9361 23.258 23.1922C23.258 23.2645 23.252 23.3428 23.2399 23.4272C23.2309 23.5116 23.2083 23.5959 23.1721 23.6803C23.136 23.7616 23.0803 23.8355 23.0049 23.9017C22.9326 23.965 22.8332 24.0147 22.7066 24.0509L23.4207 25.6191H21.8344L21.5903 24.6881H21.5497V25.6191ZM21.8615 23.2509H21.4276V23.495H21.8751C21.8992 23.495 21.9248 23.4875 21.9519 23.4724C21.982 23.4573 21.9971 23.4257 21.9971 23.3775C21.9971 23.3263 21.9805 23.2931 21.9474 23.278C21.9142 23.26 21.8856 23.2509 21.8615 23.2509ZM24.9525 24.2543V24.4396H26.3355V25.6191H23.5289V22.1391H26.2541V23.156H24.9525V23.3413H26.1321V24.2543H24.9525Z" fill="#FD587C"/>
<path d="M10.5072 23.6441V23.8136H10.6621L10.676 23.6593L10.5072 23.6441ZM10.6428 22.1391V21.9697H10.4879L10.474 22.1239L10.6428 22.1391ZM12.1523 22.1391L12.3122 22.1952L12.3913 21.9697H12.1523V22.1391ZM11.2393 24.7424L11.0794 24.6863L11.0699 24.7135V24.7424H11.2393ZM11.2393 25.6191V25.7886H11.4088V25.6191H11.2393ZM9.73436 25.6191H9.56488V25.7886H9.73436V25.6191ZM9.73436 24.7424H9.90384V24.7134L9.8942 24.686L9.73436 24.7424ZM8.8169 22.1391V21.9697H8.57747L8.65706 22.1955L8.8169 22.1391ZM10.3264 22.1391L10.4952 22.1234L10.4808 21.9697H10.3264V22.1391ZM10.4665 23.6441L10.2978 23.6598L10.3121 23.8136H10.4665V23.6441ZM10.5072 23.6441L10.676 23.6593L10.8116 22.1543L10.6428 22.1391L10.474 22.1239L10.3384 23.6289L10.5072 23.6441ZM10.6428 22.1391V22.3086H12.1523V22.1391V21.9697H10.6428V22.1391ZM12.1523 22.1391L11.9923 22.0831L11.0794 24.6863L11.2393 24.7424L11.3993 24.7984L12.3122 22.1952L12.1523 22.1391ZM11.2393 24.7424H11.0699V25.6191H11.2393H11.4088V24.7424H11.2393ZM11.2393 25.6191V25.4497H9.73436V25.6191V25.7886H11.2393V25.6191ZM9.73436 25.6191H9.90384V24.7424H9.73436H9.56488V25.6191H9.73436ZM9.73436 24.7424L9.8942 24.686L8.97675 22.0828L8.8169 22.1391L8.65706 22.1955L9.57451 24.7987L9.73436 24.7424ZM8.8169 22.1391V22.3086H10.3264V22.1391V21.9697H8.8169V22.1391ZM10.3264 22.1391L10.1577 22.1548L10.2978 23.6598L10.4665 23.6441L10.6353 23.6284L10.4952 22.1234L10.3264 22.1391ZM10.4665 23.6441V23.8136H10.5072V23.6441V23.4746H10.4665V23.6441ZM15.2506 24.6791L15.4181 24.7046L15.4184 24.7031L15.2506 24.6791ZM14.7489 25.4248L14.8384 25.5688L14.8394 25.5681L14.7489 25.4248ZM12.4982 25.4248L12.4081 25.5684L12.4088 25.5688L12.4982 25.4248ZM11.9966 24.6881L11.8288 24.7121L11.8293 24.7155L11.9966 24.6881ZM11.9649 24.3492L11.7956 24.3562L11.7958 24.36L11.9649 24.3492ZM11.9649 23.4408L11.7958 23.4297L11.7956 23.4332L11.9649 23.4408ZM11.9966 23.1153L11.8291 23.0895L11.8291 23.0896L11.9966 23.1153ZM12.5028 22.3425L12.5943 22.4851V22.4851L12.5028 22.3425ZM14.7489 22.3425L14.6574 22.4851L14.6584 22.4858L14.7489 22.3425ZM15.2506 23.0973L15.083 23.1223L15.0831 23.123L15.2506 23.0973ZM15.2777 23.4227L15.1083 23.43L15.1086 23.4339L15.2777 23.4227ZM15.2777 24.3401L15.1085 24.3293L15.1084 24.3329L15.2777 24.3401ZM15.2506 24.6791L15.083 24.6536C15.0427 24.9182 14.9059 25.1252 14.6584 25.2815L14.7489 25.4248L14.8394 25.5681C15.1645 25.3628 15.3621 25.0727 15.4181 24.7046L15.2506 24.6791ZM14.7489 25.4248L14.6595 25.2808C14.4084 25.4368 14.0674 25.522 13.6236 25.522V25.6915V25.8609C14.1077 25.8609 14.517 25.7684 14.8383 25.5688L14.7489 25.4248ZM13.6236 25.6915V25.522C13.1797 25.522 12.8387 25.4368 12.5876 25.2808L12.4982 25.4248L12.4088 25.5688C12.7302 25.7684 13.1394 25.8609 13.6236 25.8609V25.6915ZM12.4982 25.4248L12.5883 25.2813C12.3438 25.1278 12.2067 24.9233 12.1638 24.6608L11.9966 24.6881L11.8293 24.7155C11.8888 25.0797 12.0862 25.3663 12.4081 25.5684L12.4982 25.4248ZM11.9966 24.6881L12.1643 24.6642C12.1532 24.5861 12.143 24.4781 12.1341 24.3384L11.9649 24.3492L11.7958 24.36C11.805 24.5035 11.8158 24.6214 11.8288 24.7121L11.9966 24.6881ZM11.9649 24.3492L12.1343 24.3421C12.1284 24.2001 12.1254 24.0474 12.1254 23.8837H11.9559H11.7864C11.7864 24.0514 11.7895 24.2089 11.7956 24.3562L11.9649 24.3492ZM11.9559 23.8837H12.1254C12.1254 23.7261 12.1283 23.581 12.1342 23.4483L11.9649 23.4408L11.7956 23.4332C11.7895 23.5717 11.7864 23.7219 11.7864 23.8837H11.9559ZM11.9649 23.4408L12.1341 23.4518C12.143 23.315 12.1531 23.2123 12.1641 23.1411L11.9966 23.1153L11.8291 23.0896C11.8159 23.1751 11.805 23.2893 11.7958 23.4297L11.9649 23.4408ZM11.9966 23.1153L12.1641 23.1412C12.2077 22.8586 12.3483 22.6431 12.5943 22.4851L12.5028 22.3425L12.4112 22.1999C12.0848 22.4095 11.8878 22.7093 11.8291 23.0895L11.9966 23.1153ZM12.5028 22.3425L12.5943 22.4851C12.8451 22.3241 13.1839 22.2363 13.6236 22.2363V22.0668V21.8973C13.1413 21.8973 12.7328 21.9934 12.4112 22.1999L12.5028 22.3425ZM13.6236 22.0668V22.2363C14.0666 22.2363 14.4067 22.3242 14.6574 22.4851L14.7489 22.3425L14.8405 22.1999C14.5187 21.9933 14.1086 21.8973 13.6236 21.8973V22.0668ZM14.7489 22.3425L14.6584 22.4858C14.9048 22.6414 15.0424 22.8508 15.083 23.1223L15.2506 23.0973L15.4182 23.0722C15.3624 22.699 15.1655 22.4052 14.8394 22.1992L14.7489 22.3425ZM15.2506 23.0973L15.0831 23.123C15.0938 23.1924 15.1025 23.2938 15.1084 23.43L15.2777 23.4227L15.447 23.4153C15.4409 23.2744 15.4315 23.1588 15.4181 23.0715L15.2506 23.0973ZM15.2777 23.4227L15.1086 23.4339C15.1174 23.5651 15.1218 23.7105 15.1218 23.8701H15.2913H15.4608C15.4608 23.7043 15.4561 23.5514 15.4468 23.4114L15.2777 23.4227ZM15.2913 23.8701H15.1218C15.1218 24.039 15.1173 24.192 15.1086 24.3293L15.2777 24.3401L15.4468 24.3509C15.4562 24.2051 15.4608 24.0447 15.4608 23.8701H15.2913ZM15.2777 24.3401L15.1084 24.3329C15.1025 24.4721 15.0937 24.5787 15.0828 24.6551L15.2506 24.6791L15.4184 24.7031C15.4316 24.6107 15.4409 24.4914 15.447 24.3473L15.2777 24.3401ZM13.7456 24.4712H13.9151V23.2871H13.7456H13.5761V24.4712H13.7456ZM13.7456 23.2871H13.9151C13.9151 23.2203 13.8983 23.1391 13.8349 23.0757C13.7716 23.0124 13.6904 22.9956 13.6236 22.9956V23.1651V23.3345C13.6381 23.3345 13.6179 23.3381 13.5953 23.3154C13.5726 23.2928 13.5761 23.2725 13.5761 23.2871H13.7456ZM13.6236 23.1651V22.9956C13.5568 22.9956 13.4756 23.0124 13.4122 23.0757C13.3489 23.1391 13.3321 23.2203 13.3321 23.2871H13.5016H13.671C13.671 23.2725 13.6746 23.2928 13.6519 23.3154C13.6292 23.3381 13.609 23.3345 13.6236 23.3345V23.1651ZM13.5016 23.2871H13.3321V24.4712H13.5016H13.671V23.2871H13.5016ZM13.5016 24.4712H13.3321C13.3321 24.538 13.3489 24.6192 13.4122 24.6826C13.4756 24.7459 13.5568 24.7627 13.6236 24.7627V24.5932V24.4237C13.609 24.4237 13.6292 24.4202 13.6519 24.4429C13.6746 24.4655 13.671 24.4857 13.671 24.4712H13.5016ZM13.6236 24.5932V24.7627C13.6904 24.7627 13.7716 24.7459 13.8349 24.6826C13.8983 24.6192 13.9151 24.538 13.9151 24.4712H13.7456H13.5761C13.5761 24.4857 13.5726 24.4655 13.5953 24.4429C13.6179 24.4202 13.6381 24.4237 13.6236 24.4237V24.5932ZM15.4649 22.1391V21.9697H15.2954V22.1391H15.4649ZM16.9292 22.1391H17.0987V21.9697H16.9292V22.1391ZM16.9428 24.4757L16.7778 24.5169L16.782 24.5293L16.9428 24.4757ZM17.1552 24.4757L16.9939 24.422L16.9907 24.4346L17.1552 24.4757ZM17.1732 22.1391V21.9697H17.0038V22.1391H17.1732ZM18.6376 22.1391H18.807V21.9697H18.6376V22.1391ZM18.5562 24.9412L18.7149 25.0007L18.7153 24.9997L18.5562 24.9412ZM18.2896 25.3299L18.4031 25.4557L18.4048 25.4542L18.2896 25.3299ZM17.7879 25.5965L17.8372 25.7587L17.8387 25.7582L17.7879 25.5965ZM15.8264 25.3209L15.7112 25.4452V25.4452L15.8264 25.3209ZM15.5508 24.9322L15.3931 24.9946L15.3943 24.9974L15.5508 24.9322ZM15.4649 22.1391V22.3086H16.9292V22.1391V21.9697H15.4649V22.1391ZM16.9292 22.1391H16.7597V24.4079H16.9292H17.0987V22.1391H16.9292ZM16.9292 24.4079H16.7597C16.7597 24.4313 16.7643 24.4544 16.7664 24.4649C16.7694 24.4799 16.7735 24.4975 16.7783 24.5168L16.9428 24.4757L17.1072 24.4346C17.103 24.4178 17.1003 24.406 17.0988 24.3984C17.098 24.3946 17.0978 24.3931 17.0978 24.3933C17.0978 24.3934 17.098 24.3946 17.0982 24.3966C17.0984 24.3984 17.0987 24.4024 17.0987 24.4079H16.9292ZM16.9428 24.4757L16.782 24.5293C16.8296 24.6723 16.9676 24.6994 17.0512 24.6994V24.5299V24.3605C17.0356 24.3605 17.0405 24.3577 17.0547 24.3648C17.0627 24.3688 17.0731 24.3758 17.083 24.3868C17.093 24.3981 17.0997 24.4105 17.1035 24.4221L16.9428 24.4757ZM17.0512 24.5299V24.6994C17.0952 24.6994 17.1497 24.6933 17.2008 24.6666C17.2587 24.6364 17.3027 24.5844 17.3196 24.5168L17.1552 24.4757L16.9907 24.4346C16.994 24.4215 17.0006 24.4068 17.0116 24.3931C17.0225 24.3796 17.0345 24.3711 17.044 24.3661C17.0605 24.3575 17.0675 24.3605 17.0512 24.3605V24.5299ZM17.1552 24.4757L17.316 24.5293C17.3225 24.5097 17.3282 24.4914 17.3325 24.4753C17.3351 24.4653 17.3427 24.4375 17.3427 24.4079H17.1732H17.0038C17.0038 24.4002 17.0044 24.3944 17.0047 24.3916C17.0051 24.3884 17.0055 24.3863 17.0056 24.3855C17.0059 24.3841 17.0058 24.3847 17.005 24.388C17.0032 24.3945 16.9999 24.4056 16.9944 24.4221L17.1552 24.4757ZM17.1732 24.4079H17.3427V22.1391H17.1732H17.0038V24.4079H17.1732ZM17.1732 22.1391V22.3086H18.6376V22.1391V21.9697H17.1732V22.1391ZM18.6376 22.1391H18.4681V24.4712H18.6376H18.807V22.1391H18.6376ZM18.6376 24.4712H18.4681C18.4681 24.618 18.4441 24.7548 18.3971 24.8828L18.5562 24.9412L18.7153 24.9997C18.7768 24.8323 18.807 24.6558 18.807 24.4712H18.6376ZM18.5562 24.9412L18.3975 24.8817C18.3534 24.9995 18.2803 25.1074 18.1744 25.2056L18.2896 25.3299L18.4048 25.4542C18.5459 25.3234 18.6506 25.1722 18.7149 25.0007L18.5562 24.9412ZM18.2896 25.3299L18.176 25.2041C18.0755 25.2948 17.932 25.3736 17.7371 25.4349L17.7879 25.5965L17.8387 25.7582C18.0656 25.6869 18.2566 25.588 18.4031 25.4557L18.2896 25.3299ZM17.7879 25.5965L17.7385 25.4344C17.5519 25.4912 17.3107 25.522 17.0105 25.522V25.6915V25.8609C17.3311 25.8609 17.6081 25.8284 17.8372 25.7587L17.7879 25.5965ZM17.0105 25.6915V25.522C16.7492 25.522 16.5335 25.4903 16.3598 25.4315L16.3055 25.592L16.2512 25.7526C16.4692 25.8263 16.7235 25.8609 17.0105 25.8609V25.6915ZM16.3055 25.592L16.3598 25.4315C16.1816 25.3712 16.0442 25.2916 15.9416 25.1966L15.8264 25.3209L15.7112 25.4452C15.8558 25.5791 16.0377 25.6803 16.2512 25.7526L16.3055 25.592ZM15.8264 25.3209L15.9416 25.1966C15.8346 25.0973 15.7574 24.9875 15.7072 24.867L15.5508 24.9322L15.3943 24.9974C15.4646 25.1661 15.5712 25.3154 15.7112 25.4452L15.8264 25.3209ZM15.5508 24.9322L15.7083 24.8698C15.659 24.7452 15.6344 24.6157 15.6344 24.4802H15.4649H15.2954C15.2954 24.6581 15.328 24.8299 15.3932 24.9946L15.5508 24.9322ZM15.4649 24.4802H15.6344V22.1391H15.4649H15.2954V24.4802H15.4649ZM18.7779 23.2555H18.6084V23.4118L18.7642 23.4244L18.7779 23.2555ZM18.7779 23.2464L18.6155 23.1977L18.6084 23.2215V23.2464H18.7779ZM18.8637 22.7131L19.0329 22.7231L19.0329 22.7229L18.8637 22.7131ZM18.8547 22.0668L18.7349 21.947L18.6794 22.0024L18.6858 22.0805L18.8547 22.0668ZM18.8592 22.0623L18.853 21.8929L18.7864 21.8954L18.7394 21.9425L18.8592 22.0623ZM19.9575 22.0216H20.1269V21.8458L19.9512 21.8523L19.9575 22.0216ZM19.8987 22.582L20.0636 22.621L20.0638 22.6204L19.8987 22.582ZM19.7496 23.0204L19.9026 23.0933V23.0933L19.7496 23.0204ZM19.5597 23.3187L19.5461 23.4877L19.6287 23.4943L19.6847 23.4332L19.5597 23.3187ZM18.7779 23.2555H18.9474V23.2464H18.7779H18.6084V23.2555H18.7779ZM18.7779 23.2464L18.9402 23.2951C18.9901 23.1287 19.0203 22.9373 19.0329 22.7231L18.8637 22.7131L18.6946 22.7032C18.6831 22.8987 18.656 23.0628 18.6155 23.1977L18.7779 23.2464ZM18.8637 22.7131L19.0329 22.7229C19.0455 22.5066 19.0423 22.2833 19.0236 22.0531L18.8547 22.0668L18.6858 22.0805C18.7033 22.2962 18.7061 22.5038 18.6945 22.7033L18.8637 22.7131ZM18.8547 22.0668L18.9745 22.1867L18.9791 22.1821L18.8592 22.0623L18.7394 21.9425L18.7349 21.947L18.8547 22.0668ZM18.8592 22.0623L18.8655 22.2317L19.9637 22.191L19.9575 22.0216L19.9512 21.8523L18.853 21.8929L18.8592 22.0623ZM19.9575 22.0216H19.788V22.0307H19.9575H20.1269V22.0216H19.9575ZM19.9575 22.0307H19.788C19.788 22.2185 19.7695 22.3893 19.7336 22.5437L19.8987 22.582L20.0638 22.6204C20.1063 22.4374 20.1269 22.2406 20.1269 22.0307H19.9575ZM19.8987 22.582L19.7338 22.5431C19.6968 22.6995 19.6507 22.8339 19.5965 22.9476L19.7496 23.0204L19.9026 23.0933C19.969 22.9539 20.0223 22.796 20.0636 22.621L19.8987 22.582ZM19.7496 23.0204L19.5965 22.9476C19.5407 23.0649 19.486 23.1484 19.4348 23.2042L19.5597 23.3187L19.6847 23.4332C19.7661 23.3445 19.8379 23.2291 19.9026 23.0933L19.7496 23.0204ZM19.5597 23.3187L19.5734 23.1498L18.7915 23.0865L18.7779 23.2555L18.7642 23.4244L19.5461 23.4877L19.5597 23.3187ZM21.5497 25.6191V25.7886H21.7191V25.6191H21.5497ZM20.126 25.6191H19.9565V25.7886H20.126V25.6191ZM20.126 22.1391V21.9697H19.9565V22.1391H20.126ZM22.7247 22.2431L22.6573 22.3986L22.6583 22.399L22.7247 22.2431ZM23.1134 22.5775L23.257 22.4875V22.4875L23.1134 22.5775ZM23.2399 23.4272L23.0721 23.4032L23.0714 23.4091L23.2399 23.4272ZM23.1721 23.6803L23.327 23.7491L23.3279 23.747L23.1721 23.6803ZM23.0049 23.9017L23.1165 24.0293L23.1169 24.029L23.0049 23.9017ZM22.7066 24.0509L22.6601 23.8879L22.4708 23.942L22.5524 24.1211L22.7066 24.0509ZM23.4207 25.6191V25.7886H23.6841L23.575 25.5489L23.4207 25.6191ZM21.8344 25.6191L21.6704 25.6621L21.7036 25.7886H21.8344V25.6191ZM21.5903 24.6881L21.7543 24.6452L21.7211 24.5186H21.5903V24.6881ZM21.5497 24.6881V24.5186H21.3802V24.6881H21.5497ZM21.4276 23.2509V23.0815H21.2582V23.2509H21.4276ZM21.4276 23.495H21.2582V23.6645H21.4276V23.495ZM21.9519 23.4724L21.876 23.3207L21.8696 23.3242L21.9519 23.4724ZM21.9474 23.278L21.866 23.4272L21.8772 23.4323L21.9474 23.278ZM21.5497 25.6191V25.4497H20.126V25.6191V25.7886H21.5497V25.6191ZM20.126 25.6191H20.2955V22.1391H20.126H19.9565V25.6191H20.126ZM20.126 22.1391V22.3086H22.1959V22.1391V21.9697H20.126V22.1391ZM22.1959 22.1391V22.3086C22.3681 22.3086 22.521 22.3395 22.6573 22.3986L22.7247 22.2431L22.7922 22.0876C22.609 22.0081 22.4095 21.9697 22.1959 21.9697V22.1391ZM22.7247 22.2431L22.6583 22.399C22.7883 22.4544 22.8913 22.5424 22.9698 22.6676L23.1134 22.5775L23.257 22.4875C23.1427 22.3053 22.9865 22.1704 22.7911 22.0872L22.7247 22.2431ZM23.1134 22.5775L22.9698 22.6676C23.0437 22.7853 23.0885 22.9554 23.0885 23.1922H23.258H23.4275C23.4275 22.9167 23.3759 22.677 23.257 22.4875L23.1134 22.5775ZM23.258 23.1922H23.0885C23.0885 23.2552 23.0833 23.3254 23.0722 23.4032L23.2399 23.4272L23.4077 23.4512C23.4207 23.3602 23.4275 23.2738 23.4275 23.1922H23.258ZM23.2399 23.4272L23.0714 23.4091C23.0643 23.4754 23.0464 23.5434 23.0164 23.6135L23.1721 23.6803L23.3279 23.747C23.3702 23.6484 23.3975 23.5477 23.4085 23.4452L23.2399 23.4272ZM23.1721 23.6803L23.0173 23.6115C22.9922 23.6678 22.9523 23.7223 22.893 23.7745L23.0049 23.9017L23.1169 24.029C23.2082 23.9486 23.2798 23.8555 23.327 23.7491L23.1721 23.6803ZM23.0049 23.9017L22.8933 23.7742C22.8454 23.8161 22.771 23.8562 22.6601 23.8879L22.7066 24.0509L22.7532 24.2138C22.8954 24.1732 23.0198 24.1139 23.1165 24.0293L23.0049 23.9017ZM22.7066 24.0509L22.5524 24.1211L23.2665 25.6894L23.4207 25.6191L23.575 25.5489L22.8609 23.9806L22.7066 24.0509ZM23.4207 25.6191V25.4497H21.8344V25.6191V25.7886H23.4207V25.6191ZM21.8344 25.6191L21.9983 25.5762L21.7543 24.6452L21.5903 24.6881L21.4264 24.7311L21.6704 25.6621L21.8344 25.6191ZM21.5903 24.6881V24.5186H21.5497V24.6881V24.8576H21.5903V24.6881ZM21.5497 24.6881H21.3802V25.6191H21.5497H21.7191V24.6881H21.5497ZM21.8615 23.2509V23.0815H21.4276V23.2509V23.4204H21.8615V23.2509ZM21.4276 23.2509H21.2582V23.495H21.4276H21.5971V23.2509H21.4276ZM21.4276 23.495V23.6645H21.8751V23.495V23.3255H21.4276V23.495ZM21.8751 23.495V23.6645C21.9351 23.6645 21.9889 23.6457 22.0342 23.6205L21.9519 23.4724L21.8696 23.3242C21.8606 23.3292 21.8633 23.3255 21.8751 23.3255V23.495ZM21.9519 23.4724L22.0277 23.624C22.1388 23.5684 22.1666 23.4584 22.1666 23.3775H21.9971H21.8276C21.8276 23.3853 21.8262 23.3783 21.8328 23.3645C21.8363 23.3571 21.8418 23.3485 21.8499 23.3401C21.858 23.3317 21.8671 23.3253 21.8761 23.3208L21.9519 23.4724ZM21.9971 23.3775H22.1666C22.1666 23.2913 22.1354 23.1773 22.0175 23.1238L21.9474 23.278L21.8772 23.4323C21.8687 23.4285 21.8596 23.4226 21.8511 23.4144C21.8427 23.4062 21.8369 23.3976 21.8331 23.39C21.826 23.3758 21.8276 23.3687 21.8276 23.3775H21.9971ZM21.9474 23.278L22.0285 23.1293C21.9833 23.1046 21.9256 23.0815 21.8615 23.0815V23.2509V23.4204C21.8526 23.4204 21.8483 23.4188 21.85 23.4193C21.8516 23.4198 21.8569 23.4218 21.8662 23.4268L21.9474 23.278ZM24.9525 24.2543V24.0848H24.783V24.2543H24.9525ZM24.9525 24.4396H24.783V24.609H24.9525V24.4396ZM26.3355 24.4396H26.5049V24.2701H26.3355V24.4396ZM26.3355 25.6191V25.7886H26.5049V25.6191H26.3355ZM23.5289 25.6191H23.3594V25.7886H23.5289V25.6191ZM23.5289 22.1391V21.9697H23.3594V22.1391H23.5289ZM26.2541 22.1391H26.4236V21.9697H26.2541V22.1391ZM26.2541 23.156V23.3255H26.4236V23.156H26.2541ZM24.9525 23.156V22.9865H24.783V23.156H24.9525ZM24.9525 23.3413H24.783V23.5108H24.9525V23.3413ZM26.1321 23.3413H26.3016V23.1718H26.1321V23.3413ZM26.1321 24.2543V24.4237H26.3016V24.2543H26.1321ZM24.9525 24.2543H24.783V24.4396H24.9525H25.122V24.2543H24.9525ZM24.9525 24.4396V24.609H26.3355V24.4396V24.2701H24.9525V24.4396ZM26.3355 24.4396H26.166V25.6191H26.3355H26.5049V24.4396H26.3355ZM26.3355 25.6191V25.4497H23.5289V25.6191V25.7886H26.3355V25.6191ZM23.5289 25.6191H23.6984V22.1391H23.5289H23.3594V25.6191H23.5289ZM23.5289 22.1391V22.3086H26.2541V22.1391V21.9697H23.5289V22.1391ZM26.2541 22.1391H26.0846V23.156H26.2541H26.4236V22.1391H26.2541ZM26.2541 23.156V22.9865H24.9525V23.156V23.3255H26.2541V23.156ZM24.9525 23.156H24.783V23.3413H24.9525H25.122V23.156H24.9525ZM24.9525 23.3413V23.5108H26.1321V23.3413V23.1718H24.9525V23.3413ZM26.1321 23.3413H25.9626V24.2543H26.1321H26.3016V23.3413H26.1321ZM26.1321 24.2543V24.0848H24.9525V24.2543V24.4237H26.1321V24.2543Z" fill="white" mask="url(#path-5-outside-2_1091_962)"/>
<path d="M27.6481 7.81091L7.05423 10.6449C6.80808 10.6788 6.63544 10.905 6.66773 11.1514L7.85483 20.2095C7.88531 20.4421 8.08872 20.6127 8.32309 20.6023L27.7299 19.7361C27.9714 19.7254 28.1616 19.5264 28.1616 19.2846V8.25864C28.1616 7.98454 27.9196 7.77354 27.6481 7.81091Z" fill="#7159A1" stroke="white" stroke-width="0.225974"/>
<mask id="path-8-outside-3_1091_962" maskUnits="userSpaceOnUse" x="8.55859" y="11.9043" width="19" height="6" fill="black">
<rect fill="white" x="8.55859" y="11.9043" width="19" height="6"/>
<path d="M10.5489 13.1468V15.4111H12.0421V16.9043H9.01172V13.1468H10.5489ZM16.083 16.9043H14.502L14.4532 16.4554H13.7602L13.7114 16.9043H12.1304L13.0966 13.1468H15.1168L16.083 16.9043ZM13.9749 14.5376L13.9213 15.006H14.2921L14.2384 14.5376H13.9749ZM16.1213 13.1468H17.7024V15.5965C17.7024 15.6063 17.7073 15.6307 17.717 15.6697C17.7301 15.7087 17.7691 15.7283 17.8342 15.7283C17.8992 15.7283 17.9366 15.7087 17.9464 15.6697C17.9594 15.6307 17.9659 15.6063 17.9659 15.5965V13.1468H19.547V15.6648C19.547 15.8437 19.5177 16.0129 19.4591 16.1723C19.4006 16.3285 19.3046 16.4684 19.1712 16.592C19.0379 16.7124 18.8573 16.8083 18.6296 16.8799C18.4051 16.9482 18.1253 16.9824 17.7902 16.9824C17.4942 16.9824 17.2404 16.9466 17.029 16.875C16.8175 16.8034 16.6451 16.7059 16.5117 16.5822C16.3783 16.4586 16.2791 16.3187 16.2141 16.1626C16.1522 16.0064 16.1213 15.8437 16.1213 15.6746V13.1468ZM23.3347 14.1813V14.3277L21.7975 14.5034V14.4156C21.7975 14.2985 21.7389 14.2399 21.6218 14.2399C21.5047 14.2399 21.4462 14.2985 21.4462 14.4156V15.616C21.4462 15.7331 21.5047 15.7917 21.6218 15.7917C21.7389 15.7917 21.7975 15.7331 21.7975 15.616V15.4647H21.6218V14.6352H23.3347V15.8405C23.3347 16.1983 23.1801 16.4781 22.8711 16.6798C22.562 16.8815 22.131 16.9824 21.5779 16.9824C21.0672 16.9824 20.6524 16.8832 20.3336 16.6847C20.018 16.483 19.8326 16.2049 19.7772 15.8503C19.7642 15.7592 19.7528 15.6404 19.7431 15.494C19.7366 15.3476 19.7333 15.185 19.7333 15.006C19.7333 14.8369 19.7366 14.6823 19.7431 14.5425C19.7528 14.3993 19.7642 14.2855 19.7772 14.2009C19.8326 13.843 20.0196 13.5649 20.3384 13.3664C20.6572 13.168 21.0704 13.0687 21.5779 13.0687C22.1179 13.0687 22.5425 13.168 22.8515 13.3664C23.1606 13.5616 23.3216 13.8333 23.3347 14.1813ZM25.518 14.2009V13.1468H27.099V16.9043H25.518V15.6941H25.1227V16.9043H23.5416V13.1468H25.1227V14.2009H25.518Z"/>
</mask>
<path d="M10.5489 13.1468V15.4111H12.0421V16.9043H9.01172V13.1468H10.5489ZM16.083 16.9043H14.502L14.4532 16.4554H13.7602L13.7114 16.9043H12.1304L13.0966 13.1468H15.1168L16.083 16.9043ZM13.9749 14.5376L13.9213 15.006H14.2921L14.2384 14.5376H13.9749ZM16.1213 13.1468H17.7024V15.5965C17.7024 15.6063 17.7073 15.6307 17.717 15.6697C17.7301 15.7087 17.7691 15.7283 17.8342 15.7283C17.8992 15.7283 17.9366 15.7087 17.9464 15.6697C17.9594 15.6307 17.9659 15.6063 17.9659 15.5965V13.1468H19.547V15.6648C19.547 15.8437 19.5177 16.0129 19.4591 16.1723C19.4006 16.3285 19.3046 16.4684 19.1712 16.592C19.0379 16.7124 18.8573 16.8083 18.6296 16.8799C18.4051 16.9482 18.1253 16.9824 17.7902 16.9824C17.4942 16.9824 17.2404 16.9466 17.029 16.875C16.8175 16.8034 16.6451 16.7059 16.5117 16.5822C16.3783 16.4586 16.2791 16.3187 16.2141 16.1626C16.1522 16.0064 16.1213 15.8437 16.1213 15.6746V13.1468ZM23.3347 14.1813V14.3277L21.7975 14.5034V14.4156C21.7975 14.2985 21.7389 14.2399 21.6218 14.2399C21.5047 14.2399 21.4462 14.2985 21.4462 14.4156V15.616C21.4462 15.7331 21.5047 15.7917 21.6218 15.7917C21.7389 15.7917 21.7975 15.7331 21.7975 15.616V15.4647H21.6218V14.6352H23.3347V15.8405C23.3347 16.1983 23.1801 16.4781 22.8711 16.6798C22.562 16.8815 22.131 16.9824 21.5779 16.9824C21.0672 16.9824 20.6524 16.8832 20.3336 16.6847C20.018 16.483 19.8326 16.2049 19.7772 15.8503C19.7642 15.7592 19.7528 15.6404 19.7431 15.494C19.7366 15.3476 19.7333 15.185 19.7333 15.006C19.7333 14.8369 19.7366 14.6823 19.7431 14.5425C19.7528 14.3993 19.7642 14.2855 19.7772 14.2009C19.8326 13.843 20.0196 13.5649 20.3384 13.3664C20.6572 13.168 21.0704 13.0687 21.5779 13.0687C22.1179 13.0687 22.5425 13.168 22.8515 13.3664C23.1606 13.5616 23.3216 13.8333 23.3347 14.1813ZM25.518 14.2009V13.1468H27.099V16.9043H25.518V15.6941H25.1227V16.9043H23.5416V13.1468H25.1227V14.2009H25.518Z" fill="#F6F0F1"/>
<path d="M10.5489 13.1468H10.7319V12.9638H10.5489V13.1468ZM10.5489 15.4111H10.3659V15.5941H10.5489V15.4111ZM12.0421 15.4111H12.2251V15.2281H12.0421V15.4111ZM12.0421 16.9043V17.0873H12.2251V16.9043H12.0421ZM9.01172 16.9043H8.82872V17.0873H9.01172V16.9043ZM9.01172 13.1468V12.9638H8.82872V13.1468H9.01172ZM10.5489 13.1468H10.3659V15.4111H10.5489H10.7319V13.1468H10.5489ZM10.5489 15.4111V15.5941H12.0421V15.4111V15.2281H10.5489V15.4111ZM12.0421 15.4111H11.8591V16.9043H12.0421H12.2251V15.4111H12.0421ZM12.0421 16.9043V16.7213H9.01172V16.9043V17.0873H12.0421V16.9043ZM9.01172 16.9043H9.19471V13.1468H9.01172H8.82872V16.9043H9.01172ZM9.01172 13.1468V13.3298H10.5489V13.1468V12.9638H9.01172V13.1468ZM16.083 16.9043V17.0873H16.319L16.2603 16.8587L16.083 16.9043ZM14.502 16.9043L14.32 16.9241L14.3378 17.0873H14.502V16.9043ZM14.4532 16.4554L14.6351 16.4356L14.6173 16.2724H14.4532V16.4554ZM13.7602 16.4554V16.2724H13.596L13.5783 16.4356L13.7602 16.4554ZM13.7114 16.9043V17.0873H13.8756L13.8933 16.9241L13.7114 16.9043ZM12.1304 16.9043L11.9531 16.8587L11.8944 17.0873H12.1304V16.9043ZM13.0966 13.1468V12.9638H12.9547L12.9193 13.1012L13.0966 13.1468ZM15.1168 13.1468L15.294 13.1012L15.2587 12.9638H15.1168V13.1468ZM13.9749 14.5376V14.3546H13.8117L13.7931 14.5167L13.9749 14.5376ZM13.9213 15.006L13.7394 14.9852L13.7161 15.189H13.9213V15.006ZM14.2921 15.006V15.189H14.4973L14.4739 14.9852L14.2921 15.006ZM14.2384 14.5376L14.4202 14.5167L14.4017 14.3546H14.2384V14.5376ZM16.083 16.9043V16.7213H14.502V16.9043V17.0873H16.083V16.9043ZM14.502 16.9043L14.6839 16.8845L14.6351 16.4356L14.4532 16.4554L14.2712 16.4751L14.32 16.9241L14.502 16.9043ZM14.4532 16.4554V16.2724H13.7602V16.4554V16.6383H14.4532V16.4554ZM13.7602 16.4554L13.5783 16.4356L13.5295 16.8845L13.7114 16.9043L13.8933 16.9241L13.9421 16.4751L13.7602 16.4554ZM13.7114 16.9043V16.7213H12.1304V16.9043V17.0873H13.7114V16.9043ZM12.1304 16.9043L12.3076 16.9499L13.2738 13.1924L13.0966 13.1468L12.9193 13.1012L11.9531 16.8587L12.1304 16.9043ZM13.0966 13.1468V13.3298H15.1168V13.1468V12.9638H13.0966V13.1468ZM15.1168 13.1468L14.9396 13.1924L15.9058 16.9499L16.083 16.9043L16.2603 16.8587L15.294 13.1012L15.1168 13.1468ZM13.9749 14.5376L13.7931 14.5167L13.7394 14.9852L13.9213 15.006L14.1031 15.0269L14.1567 14.5584L13.9749 14.5376ZM13.9213 15.006V15.189H14.2921V15.006V14.823H13.9213V15.006ZM14.2921 15.006L14.4739 14.9852L14.4202 14.5167L14.2384 14.5376L14.0566 14.5584L14.1103 15.0269L14.2921 15.006ZM14.2384 14.5376V14.3546H13.9749V14.5376V14.7206H14.2384V14.5376ZM16.1213 13.1468V12.9638H15.9383V13.1468H16.1213ZM17.7024 13.1468H17.8854V12.9638H17.7024V13.1468ZM17.717 15.6697L17.539 15.7142L17.5434 15.7276L17.717 15.6697ZM17.9464 15.6697L17.7723 15.6117L17.7689 15.6253L17.9464 15.6697ZM17.9659 13.1468V12.9638H17.7829V13.1468H17.9659ZM19.547 13.1468H19.73V12.9638H19.547V13.1468ZM19.4591 16.1723L19.6305 16.2366L19.6309 16.2354L19.4591 16.1723ZM19.1712 16.592L19.2938 16.7279L19.2956 16.7262L19.1712 16.592ZM18.6296 16.8799L18.6829 17.055L18.6844 17.0545L18.6296 16.8799ZM16.5117 16.5822L16.3873 16.7164V16.7164L16.5117 16.5822ZM16.2141 16.1626L16.0439 16.2299L16.0451 16.2329L16.2141 16.1626ZM16.1213 13.1468V13.3298H17.7024V13.1468V12.9638H16.1213V13.1468ZM17.7024 13.1468H17.5194V15.5965H17.7024H17.8854V13.1468H17.7024ZM17.7024 15.5965H17.5194C17.5194 15.6217 17.5243 15.6466 17.5266 15.658C17.5299 15.6742 17.5343 15.6932 17.5395 15.7141L17.717 15.6697L17.8946 15.6253C17.89 15.6071 17.8871 15.5944 17.8855 15.5862C17.8847 15.5821 17.8844 15.5805 17.8845 15.5807C17.8845 15.5808 17.8847 15.5821 17.8849 15.5843C17.885 15.5862 17.8854 15.5906 17.8854 15.5965H17.7024ZM17.717 15.6697L17.5434 15.7276C17.5949 15.8819 17.7439 15.9112 17.8342 15.9112V15.7283V15.5453C17.8172 15.5453 17.8226 15.5423 17.8379 15.5499C17.8466 15.5543 17.8578 15.5618 17.8685 15.5737C17.8792 15.5859 17.8865 15.5993 17.8906 15.6118L17.717 15.6697ZM17.8342 15.7283V15.9112C17.8817 15.9112 17.9404 15.9047 17.9957 15.8759C18.0582 15.8432 18.1057 15.7871 18.1239 15.7141L17.9464 15.6697L17.7689 15.6253C17.7724 15.6112 17.7795 15.5953 17.7914 15.5805C17.8031 15.5659 17.8161 15.5567 17.8264 15.5514C17.8442 15.5421 17.8517 15.5453 17.8342 15.5453V15.7283ZM17.9464 15.6697L18.12 15.7276C18.1271 15.7064 18.1332 15.6866 18.1378 15.6693C18.1407 15.6585 18.1489 15.6284 18.1489 15.5965H17.9659H17.7829C17.7829 15.5882 17.7836 15.5819 17.7839 15.5788C17.7844 15.5754 17.7848 15.5732 17.7849 15.5723C17.7852 15.5708 17.7852 15.5714 17.7842 15.575C17.7823 15.582 17.7788 15.594 17.7728 15.6118L17.9464 15.6697ZM17.9659 15.5965H18.1489V13.1468H17.9659H17.7829V15.5965H17.9659ZM17.9659 13.1468V13.3298H19.547V13.1468V12.9638H17.9659V13.1468ZM19.547 13.1468H19.364V15.6648H19.547H19.73V13.1468H19.547ZM19.547 15.6648H19.364C19.364 15.8234 19.3381 15.9711 19.2874 16.1092L19.4591 16.1723L19.6309 16.2354C19.6973 16.0547 19.73 15.8641 19.73 15.6648H19.547ZM19.4591 16.1723L19.2878 16.1081C19.2401 16.2352 19.1613 16.3517 19.0468 16.4578L19.1712 16.592L19.2956 16.7262C19.448 16.585 19.5611 16.4217 19.6305 16.2366L19.4591 16.1723ZM19.1712 16.592L19.0486 16.4561C18.9401 16.5541 18.7852 16.6392 18.5747 16.7053L18.6296 16.8799L18.6844 17.0545C18.9294 16.9775 19.1356 16.8706 19.2938 16.7278L19.1712 16.592ZM18.6296 16.8799L18.5763 16.7048C18.3747 16.7662 18.1143 16.7994 17.7902 16.7994V16.9824V17.1654C18.1363 17.1654 18.4355 17.1303 18.6829 17.055L18.6296 16.8799ZM17.7902 16.9824V16.7994C17.508 16.7994 17.2752 16.7652 17.0877 16.7017L17.029 16.875L16.9703 17.0484C17.2057 17.128 17.4804 17.1654 17.7902 17.1654V16.9824ZM17.029 16.875L17.0877 16.7017C16.8952 16.6365 16.7468 16.5506 16.6361 16.448L16.5117 16.5822L16.3873 16.7164C16.5434 16.8611 16.7399 16.9704 16.9703 17.0484L17.029 16.875ZM16.5117 16.5822L16.6361 16.448C16.5205 16.3409 16.4372 16.2223 16.383 16.0922L16.2141 16.1626L16.0451 16.2329C16.121 16.4151 16.2362 16.5763 16.3873 16.7164L16.5117 16.5822ZM16.2141 16.1626L16.3842 16.0952C16.3309 15.9607 16.3043 15.8209 16.3043 15.6746H16.1213H15.9383C15.9383 15.8666 15.9735 16.0522 16.0439 16.2299L16.2141 16.1626ZM16.1213 15.6746H16.3043V13.1468H16.1213H15.9383V15.6746H16.1213ZM23.3347 14.1813H23.5178L23.5175 14.1745L23.3347 14.1813ZM23.3347 14.3277L23.3554 14.5096L23.5176 14.491V14.3277H23.3347ZM21.7975 14.5034H21.6145V14.7085L21.8183 14.6852L21.7975 14.5034ZM21.7975 15.4647H21.9805V15.2818H21.7975V15.4647ZM21.6218 15.4647H21.4388V15.6477H21.6218V15.4647ZM21.6218 14.6352V14.4522H21.4388V14.6352H21.6218ZM23.3347 14.6352H23.5176V14.4522H23.3347V14.6352ZM22.8711 16.6798L22.7711 16.5266V16.5266L22.8711 16.6798ZM20.3336 16.6847L20.235 16.8389L20.2368 16.8401L20.3336 16.6847ZM19.7772 15.8503L19.5961 15.8761L19.5964 15.8785L19.7772 15.8503ZM19.7431 15.494L19.5602 15.5022L19.5605 15.5062L19.7431 15.494ZM19.7431 14.5425L19.5605 14.53L19.5603 14.534L19.7431 14.5425ZM19.7772 14.2009L19.5964 14.1729L19.5964 14.173L19.7772 14.2009ZM20.3384 13.3664L20.2417 13.2111L20.3384 13.3664ZM22.8515 13.3664L22.7527 13.5204L22.7538 13.5211L22.8515 13.3664ZM23.3347 14.1813H23.1517V14.3277H23.3347H23.5176V14.1813H23.3347ZM23.3347 14.3277L23.3139 14.1459L21.7767 14.3216L21.7975 14.5034L21.8183 14.6852L23.3554 14.5096L23.3347 14.3277ZM21.7975 14.5034H21.9805V14.4156H21.7975H21.6145V14.5034H21.7975ZM21.7975 14.4156H21.9805C21.9805 14.3288 21.9587 14.2301 21.883 14.1544C21.8073 14.0787 21.7086 14.0569 21.6218 14.0569V14.2399V14.4229C21.6364 14.4229 21.6417 14.4248 21.6408 14.4245C21.6402 14.4243 21.6379 14.4235 21.6347 14.4215C21.6314 14.4196 21.6278 14.4168 21.6242 14.4132C21.6206 14.4096 21.6179 14.406 21.6159 14.4027C21.614 14.3995 21.6131 14.3972 21.6129 14.3966C21.6126 14.3957 21.6145 14.401 21.6145 14.4156H21.7975ZM21.6218 14.2399V14.0569C21.5351 14.0569 21.4364 14.0787 21.3607 14.1544C21.285 14.2301 21.2632 14.3288 21.2632 14.4156H21.4462H21.6291C21.6291 14.401 21.631 14.3957 21.6307 14.3966C21.6305 14.3972 21.6297 14.3995 21.6278 14.4027C21.6258 14.406 21.6231 14.4096 21.6195 14.4132C21.6159 14.4168 21.6122 14.4196 21.6089 14.4215C21.6057 14.4235 21.6035 14.4243 21.6028 14.4245C21.6019 14.4248 21.6073 14.4229 21.6218 14.4229V14.2399ZM21.4462 14.4156H21.2632V15.616H21.4462H21.6291V14.4156H21.4462ZM21.4462 15.616H21.2632C21.2632 15.7028 21.285 15.8015 21.3607 15.8772C21.4364 15.9529 21.5351 15.9747 21.6218 15.9747V15.7917V15.6087C21.6073 15.6087 21.6019 15.6068 21.6028 15.6071C21.6035 15.6073 21.6057 15.6081 21.6089 15.6101C21.6122 15.612 21.6159 15.6148 21.6195 15.6184C21.6231 15.622 21.6258 15.6256 21.6278 15.6289C21.6297 15.6321 21.6305 15.6344 21.6307 15.635C21.631 15.6359 21.6291 15.6306 21.6291 15.616H21.4462ZM21.6218 15.7917V15.9747C21.7086 15.9747 21.8073 15.9529 21.883 15.8772C21.9587 15.8015 21.9805 15.7028 21.9805 15.616H21.7975H21.6145C21.6145 15.6306 21.6126 15.6359 21.6129 15.635C21.6131 15.6344 21.614 15.6321 21.6159 15.6289C21.6179 15.6256 21.6206 15.622 21.6242 15.6184C21.6278 15.6148 21.6314 15.612 21.6347 15.6101C21.6379 15.6081 21.6402 15.6073 21.6408 15.6071C21.6417 15.6068 21.6364 15.6087 21.6218 15.6087V15.7917ZM21.7975 15.616H21.9805V15.4647H21.7975H21.6145V15.616H21.7975ZM21.7975 15.4647V15.2818H21.6218V15.4647V15.6477H21.7975V15.4647ZM21.6218 15.4647H21.8048V14.6352H21.6218H21.4388V15.4647H21.6218ZM21.6218 14.6352V14.8182H23.3347V14.6352V14.4522H21.6218V14.6352ZM23.3347 14.6352H23.1517V15.8405H23.3347H23.5176V14.6352H23.3347ZM23.3347 15.8405H23.1517C23.1517 16.1342 23.0303 16.3574 22.7711 16.5266L22.8711 16.6798L22.9711 16.8331C23.33 16.5989 23.5176 16.2625 23.5176 15.8405H23.3347ZM22.8711 16.6798L22.7711 16.5266C22.5031 16.7014 22.112 16.7994 21.5779 16.7994V16.9824V17.1654C22.1499 17.1654 22.6209 17.0616 22.9711 16.8331L22.8711 16.6798ZM21.5779 16.9824V16.7994C21.0894 16.7994 20.7114 16.7043 20.4303 16.5293L20.3336 16.6847L20.2368 16.8401C20.5934 17.062 21.0449 17.1654 21.5779 17.1654V16.9824ZM20.3336 16.6847L20.4321 16.5305C20.1586 16.3557 20.0049 16.1223 19.9581 15.8221L19.7772 15.8503L19.5964 15.8785C19.6602 16.2874 19.8774 16.6103 20.235 16.8389L20.3336 16.6847ZM19.7772 15.8503L19.9584 15.8244C19.9463 15.7397 19.9353 15.626 19.9257 15.4819L19.7431 15.494L19.5605 15.5062C19.5704 15.6548 19.5822 15.7786 19.5961 15.8761L19.7772 15.8503ZM19.7431 15.494L19.9259 15.4859C19.9195 15.3427 19.9163 15.1828 19.9163 15.006H19.7333H19.5503C19.5503 15.1871 19.5536 15.3525 19.5603 15.5021L19.7431 15.494ZM19.7333 15.006H19.9163C19.9163 14.8391 19.9195 14.6875 19.9259 14.551L19.7431 14.5425L19.5603 14.534C19.5536 14.6772 19.5503 14.8346 19.5503 15.006H19.7333ZM19.7431 14.5425L19.9257 14.5549C19.9353 14.414 19.9462 14.3059 19.9581 14.2287L19.7772 14.2009L19.5964 14.173C19.5822 14.265 19.5704 14.3847 19.5605 14.53L19.7431 14.5425ZM19.7772 14.2009L19.9581 14.2288C20.0049 13.9259 20.1597 13.6932 20.4351 13.5218L20.3384 13.3664L20.2417 13.2111C19.8796 13.4365 19.6602 13.7602 19.5964 14.1729L19.7772 14.2009ZM20.3384 13.3664L20.4351 13.5218C20.7164 13.3467 21.093 13.2517 21.5779 13.2517V13.0687V12.8858C21.0479 12.8858 20.5981 12.9893 20.2417 13.2111L20.3384 13.3664ZM21.5779 13.0687V13.2517C22.0984 13.2517 22.4839 13.3478 22.7527 13.5204L22.8515 13.3664L22.9504 13.2124C22.6011 12.9881 22.1375 12.8858 21.5779 12.8858V13.0687ZM22.8515 13.3664L22.7538 13.5211C23.0148 13.686 23.1412 13.9039 23.1518 14.1882L23.3347 14.1813L23.5175 14.1745C23.5021 13.7626 23.3064 13.4372 22.9493 13.2117L22.8515 13.3664ZM25.518 14.2009V14.3839H25.701V14.2009H25.518ZM25.518 13.1468V12.9638H25.335V13.1468H25.518ZM27.099 13.1468H27.282V12.9638H27.099V13.1468ZM27.099 16.9043V17.0873H27.282V16.9043H27.099ZM25.518 16.9043H25.335V17.0873H25.518V16.9043ZM25.518 15.6941H25.701V15.5111H25.518V15.6941ZM25.1227 15.6941V15.5111H24.9397V15.6941H25.1227ZM25.1227 16.9043V17.0873H25.3057V16.9043H25.1227ZM23.5416 16.9043H23.3586V17.0873H23.5416V16.9043ZM23.5416 13.1468V12.9638H23.3586V13.1468H23.5416ZM25.1227 13.1468H25.3057V12.9638H25.1227V13.1468ZM25.1227 14.2009H24.9397V14.3839H25.1227V14.2009ZM25.518 14.2009H25.701V13.1468H25.518H25.335V14.2009H25.518ZM25.518 13.1468V13.3298H27.099V13.1468V12.9638H25.518V13.1468ZM27.099 13.1468H26.916V16.9043H27.099H27.282V13.1468H27.099ZM27.099 16.9043V16.7213H25.518V16.9043V17.0873H27.099V16.9043ZM25.518 16.9043H25.701V15.6941H25.518H25.335V16.9043H25.518ZM25.518 15.6941V15.5111H25.1227V15.6941V15.8771H25.518V15.6941ZM25.1227 15.6941H24.9397V16.9043H25.1227H25.3057V15.6941H25.1227ZM25.1227 16.9043V16.7213H23.5416V16.9043V17.0873H25.1227V16.9043ZM23.5416 16.9043H23.7246V13.1468H23.5416H23.3586V16.9043H23.5416ZM23.5416 13.1468V13.3298H25.1227V13.1468V12.9638H23.5416V13.1468ZM25.1227 13.1468H24.9397V14.2009H25.1227H25.3057V13.1468H25.1227ZM25.1227 14.2009V14.3839H25.518V14.2009V14.0179H25.1227V14.2009Z" fill="#7255A8" mask="url(#path-8-outside-3_1091_962)"/>
<path d="M10.4262 28.2412L24.5144 31.0218C24.7415 31.0666 24.8981 31.2758 24.877 31.5063L24.0481 40.5773C24.0258 40.8211 23.8135 41.0028 23.5692 40.9872L10.3099 40.1385C10.072 40.1232 9.88679 39.9258 9.88679 39.6874V28.6846C9.88679 28.3999 10.1469 28.1861 10.4262 28.2412Z" fill="#FD587C" stroke="white" stroke-width="0.225974"/>
<mask id="path-11-outside-4_1091_962" maskUnits="userSpaceOnUse" x="11.6953" y="32.4668" width="12" height="6" fill="black">
<rect fill="white" x="11.6953" y="32.4668" width="12" height="6"/>
<path d="M15.8055 36.4518C15.7534 36.7934 15.5729 37.0618 15.2638 37.257C14.9547 37.4489 14.5497 37.5449 14.0487 37.5449C13.5477 37.5449 13.1427 37.4489 12.8336 37.257C12.5278 37.065 12.3473 36.7999 12.292 36.4616C12.279 36.3705 12.2676 36.2485 12.2578 36.0956C12.2513 35.9394 12.2481 35.7719 12.2481 35.5929C12.2481 35.4205 12.2513 35.2611 12.2578 35.1147C12.2676 34.9651 12.279 34.848 12.292 34.7634C12.3473 34.4055 12.5295 34.1274 12.8385 33.9289C13.1476 33.7305 13.551 33.6312 14.0487 33.6312C14.5497 33.6312 14.9547 33.7305 15.2638 33.9289C15.5729 34.1241 15.7534 34.3958 15.8055 34.7438C15.8185 34.8284 15.8282 34.9455 15.8347 35.0952C15.8445 35.2416 15.8494 35.4026 15.8494 35.5783C15.8494 35.7637 15.8445 35.9329 15.8347 36.0858C15.8282 36.2387 15.8185 36.3607 15.8055 36.4518ZM14.1805 36.2273V34.9488C14.1805 34.861 14.1366 34.817 14.0487 34.817C13.9609 34.817 13.917 34.861 13.917 34.9488V36.2273C13.917 36.3152 13.9609 36.3591 14.0487 36.3591C14.1366 36.3591 14.1805 36.3152 14.1805 36.2273ZM16.0368 33.7093H17.6179V36.159C17.6179 36.1688 17.6228 36.1932 17.6325 36.2322C17.6456 36.2712 17.6846 36.2908 17.7497 36.2908C17.8147 36.2908 17.8521 36.2712 17.8619 36.2322C17.8749 36.1932 17.8814 36.1688 17.8814 36.159V33.7093H19.4625V36.2273C19.4625 36.4062 19.4332 36.5754 19.3746 36.7348C19.3161 36.891 19.2201 37.0309 19.0867 37.1545C18.9534 37.2749 18.7728 37.3708 18.5451 37.4424C18.3206 37.5107 18.0408 37.5449 17.7057 37.5449C17.4097 37.5449 17.1559 37.5091 16.9445 37.4375C16.733 37.3659 16.5606 37.2684 16.4272 37.1447C16.2938 37.0211 16.1946 36.8812 16.1296 36.7251C16.0677 36.5689 16.0368 36.4062 16.0368 36.2371V33.7093ZM23.1526 33.7093V35.1586H22.2107V37.4668H20.5858V35.1586H19.6391V33.7093H23.1526Z"/>
</mask>
<path d="M15.8055 36.4518C15.7534 36.7934 15.5729 37.0618 15.2638 37.257C14.9547 37.4489 14.5497 37.5449 14.0487 37.5449C13.5477 37.5449 13.1427 37.4489 12.8336 37.257C12.5278 37.065 12.3473 36.7999 12.292 36.4616C12.279 36.3705 12.2676 36.2485 12.2578 36.0956C12.2513 35.9394 12.2481 35.7719 12.2481 35.5929C12.2481 35.4205 12.2513 35.2611 12.2578 35.1147C12.2676 34.9651 12.279 34.848 12.292 34.7634C12.3473 34.4055 12.5295 34.1274 12.8385 33.9289C13.1476 33.7305 13.551 33.6312 14.0487 33.6312C14.5497 33.6312 14.9547 33.7305 15.2638 33.9289C15.5729 34.1241 15.7534 34.3958 15.8055 34.7438C15.8185 34.8284 15.8282 34.9455 15.8347 35.0952C15.8445 35.2416 15.8494 35.4026 15.8494 35.5783C15.8494 35.7637 15.8445 35.9329 15.8347 36.0858C15.8282 36.2387 15.8185 36.3607 15.8055 36.4518ZM14.1805 36.2273V34.9488C14.1805 34.861 14.1366 34.817 14.0487 34.817C13.9609 34.817 13.917 34.861 13.917 34.9488V36.2273C13.917 36.3152 13.9609 36.3591 14.0487 36.3591C14.1366 36.3591 14.1805 36.3152 14.1805 36.2273ZM16.0368 33.7093H17.6179V36.159C17.6179 36.1688 17.6228 36.1932 17.6325 36.2322C17.6456 36.2712 17.6846 36.2908 17.7497 36.2908C17.8147 36.2908 17.8521 36.2712 17.8619 36.2322C17.8749 36.1932 17.8814 36.1688 17.8814 36.159V33.7093H19.4625V36.2273C19.4625 36.4062 19.4332 36.5754 19.3746 36.7348C19.3161 36.891 19.2201 37.0309 19.0867 37.1545C18.9534 37.2749 18.7728 37.3708 18.5451 37.4424C18.3206 37.5107 18.0408 37.5449 17.7057 37.5449C17.4097 37.5449 17.1559 37.5091 16.9445 37.4375C16.733 37.3659 16.5606 37.2684 16.4272 37.1447C16.2938 37.0211 16.1946 36.8812 16.1296 36.7251C16.0677 36.5689 16.0368 36.4062 16.0368 36.2371V33.7093ZM23.1526 33.7093V35.1586H22.2107V37.4668H20.5858V35.1586H19.6391V33.7093H23.1526Z" fill="#F6F0F1"/>
<path d="M15.8055 36.4518L15.9864 36.4794L15.9866 36.4777L15.8055 36.4518ZM15.2638 37.257L15.3603 37.4124L15.3615 37.4117L15.2638 37.257ZM12.8336 37.257L12.7364 37.412L12.7371 37.4124L12.8336 37.257ZM12.292 36.4616L12.1108 36.4874L12.1114 36.4911L12.292 36.4616ZM12.2578 36.0956L12.0749 36.1032L12.0752 36.1072L12.2578 36.0956ZM12.2578 35.1147L12.0752 35.1028L12.075 35.1066L12.2578 35.1147ZM12.292 34.7634L12.1111 34.7354L12.1111 34.7355L12.292 34.7634ZM12.8385 33.9289L12.9374 34.0829V34.0829L12.8385 33.9289ZM15.2638 33.9289L15.1649 34.0829L15.1661 34.0836L15.2638 33.9289ZM15.8055 34.7438L15.6245 34.7709L15.6246 34.7717L15.8055 34.7438ZM15.8347 35.0952L15.6519 35.1031L15.6522 35.1074L15.8347 35.0952ZM15.8347 36.0858L15.6521 36.0741L15.6519 36.078L15.8347 36.0858ZM15.8055 36.4518L15.6246 36.4242C15.581 36.71 15.4332 36.9335 15.1661 37.1022L15.2638 37.257L15.3615 37.4117C15.7125 37.19 15.9258 36.8767 15.9864 36.4794L15.8055 36.4518ZM15.2638 37.257L15.1673 37.1015C14.8962 37.2699 14.528 37.3619 14.0487 37.3619V37.5449V37.7279C14.5715 37.7279 15.0133 37.6279 15.3603 37.4124L15.2638 37.257ZM14.0487 37.5449V37.3619C13.5695 37.3619 13.2013 37.2699 12.9302 37.1015L12.8336 37.257L12.7371 37.4124C13.0841 37.6279 13.526 37.7279 14.0487 37.7279V37.5449ZM12.8336 37.257L12.9309 37.102C12.6669 36.9363 12.5189 36.7155 12.4726 36.432L12.292 36.4616L12.1114 36.4911C12.1757 36.8843 12.3887 37.1938 12.7364 37.412L12.8336 37.257ZM12.292 36.4616L12.4731 36.4357C12.4611 36.3514 12.4501 36.2347 12.4404 36.0839L12.2578 36.0956L12.0752 36.1072C12.0851 36.2622 12.0968 36.3896 12.1108 36.4874L12.292 36.4616ZM12.2578 36.0956L12.4407 36.0879C12.4343 35.9347 12.4311 35.7697 12.4311 35.5929H12.2481H12.0651C12.0651 35.7741 12.0684 35.9442 12.075 36.1032L12.2578 36.0956ZM12.2481 35.5929H12.4311C12.4311 35.4228 12.4343 35.2661 12.4406 35.1228L12.2578 35.1147L12.075 35.1066C12.0684 35.2561 12.0651 35.4183 12.0651 35.5929H12.2481ZM12.2578 35.1147L12.4404 35.1266C12.4501 34.979 12.461 34.868 12.4728 34.7912L12.292 34.7634L12.1111 34.7355C12.0969 34.8279 12.0851 34.9511 12.0752 35.1028L12.2578 35.1147ZM12.292 34.7634L12.4728 34.7913C12.52 34.4861 12.6717 34.2535 12.9374 34.0829L12.8385 33.9289L12.7396 33.7749C12.3872 34.0012 12.1746 34.3249 12.1111 34.7354L12.292 34.7634ZM12.8385 33.9289L12.9374 34.0829C13.2082 33.909 13.5739 33.8142 14.0487 33.8142V33.6312V33.4483C13.528 33.4483 13.0869 33.5519 12.7396 33.7749L12.8385 33.9289ZM14.0487 33.6312V33.8142C14.527 33.8142 14.8943 33.9091 15.1649 34.0829L15.2638 33.9289L15.3627 33.7749C15.0152 33.5518 14.5724 33.4483 14.0487 33.4483V33.6312ZM15.2638 33.9289L15.1661 34.0836C15.4321 34.2517 15.5806 34.4777 15.6245 34.7709L15.8055 34.7438L15.9864 34.7168C15.9262 34.3138 15.7136 33.9966 15.3615 33.7742L15.2638 33.9289ZM15.8055 34.7438L15.6246 34.7717C15.6361 34.8466 15.6455 34.956 15.6519 35.1031L15.8347 35.0952L16.0176 35.0872C16.0109 34.9351 16.0008 34.8103 15.9863 34.716L15.8055 34.7438ZM15.8347 35.0952L15.6522 35.1074C15.6616 35.249 15.6664 35.4059 15.6664 35.5783H15.8494H16.0324C16.0324 35.3993 16.0274 35.2342 16.0173 35.083L15.8347 35.0952ZM15.8494 35.5783H15.6664C15.6664 35.7606 15.6616 35.9258 15.6521 36.0741L15.8347 36.0858L16.0174 36.0975C16.0274 35.94 16.0324 35.7668 16.0324 35.5783H15.8494ZM15.8347 36.0858L15.6519 36.078C15.6455 36.2283 15.6361 36.3434 15.6243 36.4259L15.8055 36.4518L15.9866 36.4777C16.0009 36.378 16.011 36.2491 16.0176 36.0936L15.8347 36.0858ZM14.1805 36.2273H14.3635V34.9488H14.1805H13.9975V36.2273H14.1805ZM14.1805 34.9488H14.3635C14.3635 34.8767 14.3453 34.789 14.2769 34.7206C14.2086 34.6522 14.1208 34.6341 14.0487 34.6341V34.817V35C14.0644 35 14.0426 35.0038 14.0181 34.9794C13.9937 34.9549 13.9975 34.9331 13.9975 34.9488H14.1805ZM14.0487 34.817V34.6341C13.9766 34.6341 13.8889 34.6522 13.8205 34.7206C13.7521 34.789 13.734 34.8767 13.734 34.9488H13.917H14.1C14.1 34.9331 14.1038 34.9549 14.0793 34.9794C14.0548 35.0038 14.033 35 14.0487 35V34.817ZM13.917 34.9488H13.734V36.2273H13.917H14.1V34.9488H13.917ZM13.917 36.2273H13.734C13.734 36.2994 13.7521 36.3871 13.8205 36.4555C13.8889 36.5239 13.9766 36.5421 14.0487 36.5421V36.3591V36.1761C14.033 36.1761 14.0548 36.1723 14.0793 36.1967C14.1038 36.2212 14.1 36.243 14.1 36.2273H13.917ZM14.0487 36.3591V36.5421C14.1208 36.5421 14.2086 36.5239 14.2769 36.4555C14.3453 36.3871 14.3635 36.2994 14.3635 36.2273H14.1805H13.9975C13.9975 36.243 13.9937 36.2212 14.0181 36.1967C14.0426 36.1723 14.0644 36.1761 14.0487 36.1761V36.3591ZM16.0368 33.7093V33.5263H15.8538V33.7093H16.0368ZM17.6179 33.7093H17.8009V33.5263H17.6179V33.7093ZM17.6325 36.2322L17.4545 36.2767L17.4589 36.2901L17.6325 36.2322ZM17.8619 36.2322L17.6878 36.1742L17.6844 36.1878L17.8619 36.2322ZM17.8814 33.7093V33.5263H17.6984V33.7093H17.8814ZM19.4625 33.7093H19.6455V33.5263H19.4625V33.7093ZM19.3746 36.7348L19.546 36.7991L19.5464 36.7979L19.3746 36.7348ZM19.0867 37.1545L19.2093 37.2904L19.2111 37.2887L19.0867 37.1545ZM18.5451 37.4424L18.5984 37.6175L18.5999 37.617L18.5451 37.4424ZM16.4272 37.1447L16.3028 37.2789V37.2789L16.4272 37.1447ZM16.1296 36.7251L15.9594 36.7924L15.9606 36.7954L16.1296 36.7251ZM16.0368 33.7093V33.8923H17.6179V33.7093V33.5263H16.0368V33.7093ZM17.6179 33.7093H17.4349V36.159H17.6179H17.8009V33.7093H17.6179ZM17.6179 36.159H17.4349C17.4349 36.1842 17.4398 36.2091 17.4421 36.2205C17.4454 36.2367 17.4498 36.2557 17.455 36.2766L17.6325 36.2322L17.8101 36.1878C17.8055 36.1696 17.8026 36.1569 17.801 36.1487C17.8002 36.1446 17.7999 36.143 17.8 36.1432C17.8 36.1433 17.8002 36.1446 17.8004 36.1468C17.8005 36.1487 17.8009 36.1531 17.8009 36.159H17.6179ZM17.6325 36.2322L17.4589 36.2901C17.5104 36.4444 17.6594 36.4737 17.7497 36.4737V36.2908V36.1078C17.7327 36.1078 17.7381 36.1048 17.7534 36.1124C17.7621 36.1168 17.7733 36.1243 17.784 36.1362C17.7947 36.1484 17.802 36.1618 17.8061 36.1743L17.6325 36.2322ZM17.7497 36.2908V36.4737C17.7972 36.4737 17.8559 36.4672 17.9112 36.4384C17.9737 36.4057 18.0212 36.3496 18.0394 36.2766L17.8619 36.2322L17.6844 36.1878C17.6879 36.1737 17.695 36.1578 17.7069 36.143C17.7186 36.1284 17.7316 36.1192 17.7419 36.1139C17.7597 36.1046 17.7672 36.1078 17.7497 36.1078V36.2908ZM17.8619 36.2322L18.0355 36.2901C18.0426 36.2689 18.0487 36.2491 18.0533 36.2318C18.0562 36.221 18.0644 36.1909 18.0644 36.159H17.8814H17.6984C17.6984 36.1507 17.6991 36.1444 17.6994 36.1413C17.6999 36.1379 17.7003 36.1357 17.7004 36.1348C17.7007 36.1333 17.7007 36.1339 17.6997 36.1375C17.6978 36.1445 17.6943 36.1565 17.6883 36.1743L17.8619 36.2322ZM17.8814 36.159H18.0644V33.7093H17.8814H17.6984V36.159H17.8814ZM17.8814 33.7093V33.8923H19.4625V33.7093V33.5263H17.8814V33.7093ZM19.4625 33.7093H19.2795V36.2273H19.4625H19.6455V33.7093H19.4625ZM19.4625 36.2273H19.2795C19.2795 36.3859 19.2536 36.5336 19.2029 36.6717L19.3746 36.7348L19.5464 36.7979C19.6128 36.6172 19.6455 36.4266 19.6455 36.2273H19.4625ZM19.3746 36.7348L19.2033 36.6706C19.1556 36.7977 19.0768 36.9142 18.9623 37.0203L19.0867 37.1545L19.2111 37.2887C19.3635 37.1475 19.4766 36.9842 19.546 36.7991L19.3746 36.7348ZM19.0867 37.1545L18.9641 37.0186C18.8556 37.1166 18.7007 37.2017 18.4902 37.2678L18.5451 37.4424L18.5999 37.617C18.8449 37.54 19.0511 37.4331 19.2093 37.2903L19.0867 37.1545ZM18.5451 37.4424L18.4918 37.2673C18.2902 37.3287 18.0298 37.3619 17.7057 37.3619V37.5449V37.7279C18.0518 37.7279 18.351 37.6928 18.5984 37.6175L18.5451 37.4424ZM17.7057 37.5449V37.3619C17.4235 37.3619 17.1907 37.3277 17.0032 37.2642L16.9445 37.4375L16.8858 37.6109C17.1212 37.6905 17.3959 37.7279 17.7057 37.7279V37.5449ZM16.9445 37.4375L17.0032 37.2642C16.8107 37.199 16.6623 37.1131 16.5516 37.0105L16.4272 37.1447L16.3028 37.2789C16.4589 37.4236 16.6554 37.5329 16.8858 37.6109L16.9445 37.4375ZM16.4272 37.1447L16.5516 37.0105C16.436 36.9034 16.3527 36.7848 16.2985 36.6547L16.1296 36.7251L15.9606 36.7954C16.0365 36.9776 16.1517 37.1388 16.3028 37.2789L16.4272 37.1447ZM16.1296 36.7251L16.2997 36.6577C16.2464 36.5232 16.2198 36.3834 16.2198 36.2371H16.0368H15.8538C15.8538 36.4291 15.889 36.6147 15.9594 36.7924L16.1296 36.7251ZM16.0368 36.2371H16.2198V33.7093H16.0368H15.8538V36.2371H16.0368ZM23.1526 33.7093H23.3355V33.5263H23.1526V33.7093ZM23.1526 35.1586V35.3416H23.3355V35.1586H23.1526ZM22.2107 35.1586V34.9756H22.0278V35.1586H22.2107ZM22.2107 37.4668V37.6498H22.3937V37.4668H22.2107ZM20.5858 37.4668H20.4028V37.6498H20.5858V37.4668ZM20.5858 35.1586H20.7688V34.9756H20.5858V35.1586ZM19.6391 35.1586H19.4561V35.3416H19.6391V35.1586ZM19.6391 33.7093V33.5263H19.4561V33.7093H19.6391ZM23.1526 33.7093H22.9696V35.1586H23.1526H23.3355V33.7093H23.1526ZM23.1526 35.1586V34.9756H22.2107V35.1586V35.3416H23.1526V35.1586ZM22.2107 35.1586H22.0278V37.4668H22.2107H22.3937V35.1586H22.2107ZM22.2107 37.4668V37.2838H20.5858V37.4668V37.6498H22.2107V37.4668ZM20.5858 37.4668H20.7688V35.1586H20.5858H20.4028V37.4668H20.5858ZM20.5858 35.1586V34.9756H19.6391V35.1586V35.3416H20.5858V35.1586ZM19.6391 35.1586H19.8221V33.7093H19.6391H19.4561V35.1586H19.6391ZM19.6391 33.7093V33.8923H23.1526V33.7093V33.5263H19.6391V33.7093Z" fill="#FE547C" mask="url(#path-11-outside-4_1091_962)"/>
</g>
<defs>
<clipPath id="clip0_1091_962">
<rect width="34.7435" height="43.5" rx="1.12987" fill="white"/>
</clipPath>
</defs>
</svg>
