<svg width="27" height="33" viewBox="0 0 27 33" fill="none" xmlns="http://www.w3.org/2000/svg" xmlns:xlink="http://www.w3.org/1999/xlink">
<g clip-path="url(#clip0_1091_962)">
<rect width="26.0576" height="32.625" rx="0.847403" fill="#36A6BB"/>
<rect x="-0.890625" y="-1.73828" width="26.9474" height="39.0229"/>
<mask id="path-3-outside-1_1091_962" maskUnits="userSpaceOnUse" x="9.2793" y="2.48438" width="8" height="4" fill="black">
<rect fill="white" x="9.2793" y="2.48438" width="8" height="4"/>
<path d="M10.8453 4.00312L10.947 2.87437H12.0791L11.3944 4.82679V5.48438H10.2657V4.82679L9.57759 2.87437H10.7097L10.8148 4.00312H10.8453ZM14.4029 4.77934C14.3667 5.01661 14.2413 5.20304 14.0266 5.33862C13.8119 5.47195 13.5306 5.53861 13.1826 5.53861C12.8346 5.53861 12.5533 5.47195 12.3386 5.33862C12.1262 5.2053 12.0008 5.02113 11.9623 4.78612C11.9533 4.72284 11.9454 4.6381 11.9386 4.53189C11.9341 4.42343 11.9318 4.30705 11.9318 4.18276C11.9318 4.063 11.9341 3.95227 11.9386 3.85058C11.9454 3.74663 11.9533 3.66528 11.9623 3.60653C12.0008 3.35796 12.1273 3.16475 12.342 3.02691C12.5567 2.88906 12.8369 2.82014 13.1826 2.82014C13.5306 2.82014 13.8119 2.88906 14.0266 3.02691C14.2413 3.16249 14.3667 3.35118 14.4029 3.59297C14.4119 3.65173 14.4187 3.73308 14.4232 3.83702C14.43 3.93871 14.4334 4.05057 14.4334 4.1726C14.4334 4.3014 14.43 4.41891 14.4232 4.52512C14.4187 4.63132 14.4119 4.71606 14.4029 4.77934ZM13.2741 4.62341V3.73534C13.2741 3.67432 13.2436 3.64382 13.1826 3.64382C13.1216 3.64382 13.0911 3.67432 13.0911 3.73534V4.62341C13.0911 4.68443 13.1216 4.71493 13.1826 4.71493C13.2436 4.71493 13.2741 4.68443 13.2741 4.62341ZM14.5636 2.87437H15.6618V4.57596C15.6618 4.58274 15.6652 4.59969 15.672 4.6268C15.681 4.65392 15.7081 4.66748 15.7533 4.66748C15.7985 4.66748 15.8245 4.65392 15.8313 4.6268C15.8403 4.59969 15.8448 4.58274 15.8448 4.57596V2.87437H16.9431V4.62341C16.9431 4.7477 16.9227 4.86521 16.8821 4.97593C16.8414 5.0844 16.7747 5.18157 16.6821 5.26744C16.5894 5.35105 16.464 5.41771 16.3058 5.46743C16.1499 5.51488 15.9556 5.53861 15.7228 5.53861C15.5172 5.53861 15.3409 5.51375 15.194 5.46404C15.0472 5.41432 14.9274 5.34653 14.8347 5.26066C14.7421 5.17479 14.6732 5.07762 14.628 4.96915C14.585 4.86069 14.5636 4.7477 14.5636 4.63019V2.87437Z"/>
</mask>
<path d="M10.8453 4.00312L10.947 2.87437H12.0791L11.3944 4.82679V5.48438H10.2657V4.82679L9.57759 2.87437H10.7097L10.8148 4.00312H10.8453ZM14.4029 4.77934C14.3667 5.01661 14.2413 5.20304 14.0266 5.33862C13.8119 5.47195 13.5306 5.53861 13.1826 5.53861C12.8346 5.53861 12.5533 5.47195 12.3386 5.33862C12.1262 5.2053 12.0008 5.02113 11.9623 4.78612C11.9533 4.72284 11.9454 4.6381 11.9386 4.53189C11.9341 4.42343 11.9318 4.30705 11.9318 4.18276C11.9318 4.063 11.9341 3.95227 11.9386 3.85058C11.9454 3.74663 11.9533 3.66528 11.9623 3.60653C12.0008 3.35796 12.1273 3.16475 12.342 3.02691C12.5567 2.88906 12.8369 2.82014 13.1826 2.82014C13.5306 2.82014 13.8119 2.88906 14.0266 3.02691C14.2413 3.16249 14.3667 3.35118 14.4029 3.59297C14.4119 3.65173 14.4187 3.73308 14.4232 3.83702C14.43 3.93871 14.4334 4.05057 14.4334 4.1726C14.4334 4.3014 14.43 4.41891 14.4232 4.52512C14.4187 4.63132 14.4119 4.71606 14.4029 4.77934ZM13.2741 4.62341V3.73534C13.2741 3.67432 13.2436 3.64382 13.1826 3.64382C13.1216 3.64382 13.0911 3.67432 13.0911 3.73534V4.62341C13.0911 4.68443 13.1216 4.71493 13.1826 4.71493C13.2436 4.71493 13.2741 4.68443 13.2741 4.62341ZM14.5636 2.87437H15.6618V4.57596C15.6618 4.58274 15.6652 4.59969 15.672 4.6268C15.681 4.65392 15.7081 4.66748 15.7533 4.66748C15.7985 4.66748 15.8245 4.65392 15.8313 4.6268C15.8403 4.59969 15.8448 4.58274 15.8448 4.57596V2.87437H16.9431V4.62341C16.9431 4.7477 16.9227 4.86521 16.8821 4.97593C16.8414 5.0844 16.7747 5.18157 16.6821 5.26744C16.5894 5.35105 16.464 5.41771 16.3058 5.46743C16.1499 5.51488 15.9556 5.53861 15.7228 5.53861C15.5172 5.53861 15.3409 5.51375 15.194 5.46404C15.0472 5.41432 14.9274 5.34653 14.8347 5.26066C14.7421 5.17479 14.6732 5.07762 14.628 4.96915C14.585 4.86069 14.5636 4.7477 14.5636 4.63019V2.87437Z" fill="#755AA7"/>
<path d="M10.8453 4.00312V4.13023H10.9615L10.9719 4.01452L10.8453 4.00312ZM10.947 2.87437V2.74726H10.8308L10.8204 2.86297L10.947 2.87437ZM12.0791 2.87437L12.1991 2.91644L12.2584 2.74726H12.0791V2.87437ZM11.3944 4.82679L11.2745 4.78473L11.2673 4.80515V4.82679H11.3944ZM11.3944 5.48438V5.61149H11.5215V5.48438H11.3944ZM10.2657 5.48438H10.1386V5.61149H10.2657V5.48438ZM10.2657 4.82679H10.3928V4.80505L10.3856 4.78454L10.2657 4.82679ZM9.57759 2.87437V2.74726H9.39802L9.45771 2.91663L9.57759 2.87437ZM10.7097 2.87437L10.8363 2.86259L10.8255 2.74726H10.7097V2.87437ZM10.8148 4.00312L10.6882 4.0149L10.699 4.13023H10.8148V4.00312ZM10.8453 4.00312L10.9719 4.01452L11.0736 2.88578L10.947 2.87437L10.8204 2.86297L10.7187 3.99171L10.8453 4.00312ZM10.947 2.87437V3.00149H12.0791V2.87437V2.74726H10.947V2.87437ZM12.0791 2.87437L11.9592 2.83231L11.2745 4.78473L11.3944 4.82679L11.5144 4.86886L12.1991 2.91644L12.0791 2.87437ZM11.3944 4.82679H11.2673V5.48438H11.3944H11.5215V4.82679H11.3944ZM11.3944 5.48438V5.35726H10.2657V5.48438V5.61149H11.3944V5.48438ZM10.2657 5.48438H10.3928V4.82679H10.2657H10.1386V5.48438H10.2657ZM10.2657 4.82679L10.3856 4.78454L9.69747 2.83212L9.57759 2.87437L9.45771 2.91663L10.1458 4.86904L10.2657 4.82679ZM9.57759 2.87437V3.00149H10.7097V2.87437V2.74726H9.57759V2.87437ZM10.7097 2.87437L10.5832 2.88616L10.6882 4.0149L10.8148 4.00312L10.9414 3.99133L10.8363 2.86259L10.7097 2.87437ZM10.8148 4.00312V4.13023H10.8453V4.00312V3.876H10.8148V4.00312ZM14.4029 4.77934L14.5285 4.79849L14.5287 4.79731L14.4029 4.77934ZM14.0266 5.33862L14.0937 5.44661L14.0945 5.44609L14.0266 5.33862ZM12.3386 5.33862L12.271 5.44628L12.2715 5.4466L12.3386 5.33862ZM11.9623 4.78612L11.8365 4.8041L11.8369 4.80662L11.9623 4.78612ZM11.9386 4.53189L11.8116 4.53719L11.8118 4.53999L11.9386 4.53189ZM11.9386 3.85058L11.8117 3.84231L11.8116 3.84494L11.9386 3.85058ZM11.9623 3.60653L11.8367 3.58712L11.8367 3.5872L11.9623 3.60653ZM12.342 3.02691L12.4107 3.13387V3.13387L12.342 3.02691ZM14.0266 3.02691L13.9579 3.13387L13.9587 3.13438L14.0266 3.02691ZM14.4029 3.59297L14.2771 3.61177L14.2772 3.6123L14.4029 3.59297ZM14.4232 3.83702L14.2962 3.84255L14.2964 3.84548L14.4232 3.83702ZM14.4232 4.52512L14.2963 4.51702L14.2962 4.51971L14.4232 4.52512ZM14.4029 4.77934L14.2772 4.76019C14.247 4.95871 14.1443 5.11395 13.9587 5.23115L14.0266 5.33862L14.0945 5.44609C14.3383 5.29213 14.4865 5.07451 14.5285 4.79848L14.4029 4.77934ZM14.0266 5.33862L13.9596 5.23064C13.7712 5.34759 13.5155 5.4115 13.1826 5.4115V5.53861V5.66572C13.5457 5.66572 13.8526 5.5963 14.0937 5.4466L14.0266 5.33862ZM13.1826 5.53861V5.4115C12.8497 5.4115 12.594 5.34759 12.4056 5.23064L12.3386 5.33862L12.2715 5.4466C12.5126 5.5963 12.8195 5.66572 13.1826 5.66572V5.53861ZM12.3386 5.33862L12.4062 5.23096C12.2228 5.11586 12.12 4.96249 12.0878 4.76561L11.9623 4.78612L11.8369 4.80662C11.8815 5.07976 12.0296 5.29473 12.271 5.44628L12.3386 5.33862ZM11.9623 4.78612L12.0882 4.76814C12.0798 4.70958 12.0722 4.62856 12.0655 4.5238L11.9386 4.53189L11.8118 4.53999C11.8186 4.64765 11.8268 4.73611 11.8365 4.80409L11.9623 4.78612ZM11.9386 4.53189L12.0656 4.5266C12.0612 4.42013 12.0589 4.30553 12.0589 4.18276H11.9318H11.8047C11.8047 4.30857 11.807 4.42673 11.8116 4.53719L11.9386 4.53189ZM11.9318 4.18276H12.0589C12.0589 4.06456 12.0612 3.95574 12.0656 3.85623L11.9386 3.85058L11.8116 3.84494C11.807 3.9488 11.8047 4.06143 11.8047 4.18276H11.9318ZM11.9386 3.85058L12.0655 3.85885C12.0721 3.7563 12.0798 3.67921 12.088 3.62586L11.9623 3.60653L11.8367 3.5872C11.8268 3.65135 11.8186 3.73696 11.8118 3.84231L11.9386 3.85058ZM11.9623 3.60653L12.088 3.62594C12.1207 3.41395 12.2261 3.25236 12.4107 3.13387L12.342 3.02691L12.2733 2.91995C12.0285 3.07715 11.8808 3.30197 11.8367 3.58712L11.9623 3.60653ZM12.342 3.02691L12.4107 3.13387C12.5988 3.01308 12.8528 2.94725 13.1826 2.94725V2.82014V2.69303C12.8209 2.69303 12.5145 2.76505 12.2733 2.91995L12.342 3.02691ZM13.1826 2.82014V2.94725C13.5148 2.94725 13.7699 3.01316 13.9579 3.13387L14.0266 3.02691L14.0953 2.91995C13.8539 2.76497 13.5464 2.69303 13.1826 2.69303V2.82014ZM14.0266 3.02691L13.9587 3.13438C14.1435 3.25109 14.2467 3.40812 14.2771 3.61177L14.4029 3.59297L14.5286 3.57417C14.4867 3.29424 14.339 3.07389 14.0945 2.91944L14.0266 3.02691ZM14.4029 3.59297L14.2772 3.6123C14.2852 3.66432 14.2918 3.74035 14.2962 3.84255L14.4232 3.83702L14.5502 3.8315C14.5456 3.7258 14.5386 3.63913 14.5285 3.57364L14.4029 3.59297ZM14.4232 3.83702L14.2964 3.84548C14.3029 3.94387 14.3063 4.05286 14.3063 4.1726H14.4334H14.5605C14.5605 4.04828 14.557 3.93356 14.55 3.82857L14.4232 3.83702ZM14.4334 4.1726H14.3063C14.3063 4.29924 14.3029 4.41399 14.2963 4.51702L14.4232 4.52512L14.55 4.53321C14.557 4.42382 14.5605 4.30356 14.5605 4.1726H14.4334ZM14.4232 4.52512L14.2962 4.51971C14.2918 4.62407 14.2852 4.70408 14.277 4.76136L14.4029 4.77934L14.5287 4.79731C14.5386 4.72805 14.5456 4.63857 14.5502 4.53052L14.4232 4.52512ZM13.2741 4.62341H13.4012V3.73534H13.2741H13.147V4.62341H13.2741ZM13.2741 3.73534H13.4012C13.4012 3.68524 13.3886 3.62431 13.3411 3.57682C13.2936 3.52932 13.2327 3.51671 13.1826 3.51671V3.64382V3.77093C13.1935 3.77093 13.1784 3.77357 13.1614 3.75658C13.1444 3.73958 13.147 3.72442 13.147 3.73534H13.2741ZM13.1826 3.64382V3.51671C13.1325 3.51671 13.0716 3.52932 13.0241 3.57682C12.9766 3.62431 12.964 3.68524 12.964 3.73534H13.0911H13.2182C13.2182 3.72442 13.2208 3.73958 13.2038 3.75658C13.1868 3.77357 13.1717 3.77093 13.1826 3.77093V3.64382ZM13.0911 3.73534H12.964V4.62341H13.0911H13.2182V3.73534H13.0911ZM13.0911 4.62341H12.964C12.964 4.67351 12.9766 4.73444 13.0241 4.78193C13.0716 4.82943 13.1325 4.84204 13.1826 4.84204V4.71493V4.58782C13.1717 4.58782 13.1868 4.58518 13.2038 4.60217C13.2208 4.61916 13.2182 4.63433 13.2182 4.62341H13.0911ZM13.1826 4.71493V4.84204C13.2327 4.84204 13.2936 4.82943 13.3411 4.78193C13.3886 4.73444 13.4012 4.67351 13.4012 4.62341H13.2741H13.147C13.147 4.63433 13.1444 4.61916 13.1614 4.60217C13.1784 4.58518 13.1935 4.58782 13.1826 4.58782V4.71493ZM14.5636 2.87437V2.74726H14.4365V2.87437H14.5636ZM15.6618 2.87437H15.7889V2.74726H15.6618V2.87437ZM15.672 4.6268L15.5483 4.65772L15.5514 4.667L15.672 4.6268ZM15.8313 4.6268L15.7103 4.58649L15.708 4.59597L15.8313 4.6268ZM15.8448 2.87437V2.74726H15.7177V2.87437H15.8448ZM16.9431 2.87437H17.0702V2.74726H16.9431V2.87437ZM16.8821 4.97593L17.0011 5.02057L17.0014 5.01976L16.8821 4.97593ZM16.6821 5.26744L16.7672 5.36181L16.7685 5.36067L16.6821 5.26744ZM16.3058 5.46743L16.3428 5.58904L16.3439 5.58869L16.3058 5.46743ZM14.8347 5.26066L14.7483 5.35389V5.35389L14.8347 5.26066ZM14.628 4.96915L14.5098 5.01594L14.5106 5.01804L14.628 4.96915ZM14.5636 2.87437V3.00149H15.6618V2.87437V2.74726H14.5636V2.87437ZM15.6618 2.87437H15.5347V4.57596H15.6618H15.7889V2.87437H15.6618ZM15.6618 4.57596H15.5347C15.5347 4.59347 15.5381 4.61079 15.5397 4.61868C15.542 4.62996 15.545 4.64315 15.5487 4.65763L15.672 4.6268L15.7953 4.59597C15.7921 4.58334 15.7901 4.5745 15.789 4.56883C15.7884 4.56598 15.7883 4.56485 15.7883 4.56497C15.7883 4.56508 15.7884 4.56597 15.7886 4.56747C15.7887 4.56881 15.7889 4.57183 15.7889 4.57596H15.6618ZM15.672 4.6268L15.5514 4.667C15.5871 4.77422 15.6906 4.79459 15.7533 4.79459V4.66748V4.54037C15.7416 4.54037 15.7453 4.53831 15.7559 4.54362C15.762 4.54664 15.7698 4.55184 15.7772 4.56015C15.7846 4.56858 15.7897 4.5779 15.7926 4.58661L15.672 4.6268ZM15.7533 4.66748V4.79459C15.7863 4.79459 15.8272 4.79002 15.8655 4.77C15.9089 4.74734 15.9419 4.70835 15.9546 4.65763L15.8313 4.6268L15.708 4.59597C15.7104 4.58616 15.7154 4.57511 15.7236 4.56486C15.7318 4.55473 15.7408 4.54833 15.7479 4.54462C15.7603 4.53816 15.7655 4.54037 15.7533 4.54037V4.66748ZM15.8313 4.6268L15.9519 4.667C15.9568 4.6523 15.9611 4.63854 15.9643 4.62651C15.9663 4.61902 15.972 4.59811 15.972 4.57596H15.8448H15.7177C15.7177 4.57017 15.7182 4.56582 15.7184 4.56368C15.7187 4.56134 15.719 4.55975 15.7191 4.55917C15.7193 4.55811 15.7193 4.55853 15.7186 4.561C15.7173 4.56592 15.7148 4.57419 15.7107 4.58661L15.8313 4.6268ZM15.8448 4.57596H15.972V2.87437H15.8448H15.7177V4.57596H15.8448ZM15.8448 2.87437V3.00149H16.9431V2.87437V2.74726H15.8448V2.87437ZM16.9431 2.87437H16.816V4.62341H16.9431H17.0702V2.87437H16.9431ZM16.9431 4.62341H16.816C16.816 4.73355 16.798 4.83615 16.7628 4.9321L16.8821 4.97593L17.0014 5.01976C17.0475 4.89426 17.0702 4.76184 17.0702 4.62341H16.9431ZM16.8821 4.97593L16.7631 4.9313C16.7299 5.01962 16.6752 5.10055 16.5957 5.17421L16.6821 5.26744L16.7685 5.36067C16.8743 5.26259 16.9529 5.14918 17.0011 5.02056L16.8821 4.97593ZM16.6821 5.26744L16.5969 5.17307C16.5215 5.24112 16.4139 5.30022 16.2677 5.34616L16.3058 5.46743L16.3439 5.58869C16.5141 5.53521 16.6573 5.46098 16.7672 5.36181L16.6821 5.26744ZM16.3058 5.46743L16.2688 5.34582C16.1288 5.38843 15.9479 5.4115 15.7228 5.4115V5.53861V5.66572C15.9632 5.66572 16.171 5.64133 16.3428 5.58903L16.3058 5.46743ZM15.7228 5.53861V5.4115C15.5268 5.4115 15.3651 5.38773 15.2348 5.34364L15.194 5.46404L15.1533 5.58444C15.3168 5.63978 15.5076 5.66572 15.7228 5.66572V5.53861ZM15.194 5.46404L15.2348 5.34364C15.1011 5.29839 14.998 5.23869 14.9211 5.16743L14.8347 5.26066L14.7483 5.35389C14.8568 5.45437 14.9932 5.53026 15.1533 5.58444L15.194 5.46404ZM14.8347 5.26066L14.9211 5.16743C14.8408 5.09301 14.783 5.01067 14.7453 4.92027L14.628 4.96915L14.5106 5.01804C14.5634 5.14457 14.6433 5.25657 14.7483 5.35389L14.8347 5.26066ZM14.628 4.96915L14.7462 4.92237C14.7092 4.82891 14.6907 4.7318 14.6907 4.63019H14.5636H14.4365C14.4365 4.7636 14.4609 4.89247 14.5098 5.01594L14.628 4.96915ZM14.5636 4.63019H14.6907V2.87437H14.5636H14.4365V4.63019H14.5636Z" fill="white" mask="url(#path-3-outside-1_1091_962)"/>
<mask id="path-5-outside-2_1091_962" maskUnits="userSpaceOnUse" x="6.43945" y="16.4648" width="14" height="4" fill="black">
<rect fill="white" x="6.43945" y="16.4648" width="14" height="4"/>
<path d="M8.12893 17.9836L8.23061 16.8548H9.36274L8.67804 18.8073V19.4648H7.5493V18.8073L6.86121 16.8548H7.99334L8.09842 17.9836H8.12893ZM11.6865 18.7598C11.6503 18.9971 11.5249 19.1835 11.3102 19.3191C11.0956 19.4524 10.8142 19.5191 10.4662 19.5191C10.1182 19.5191 9.83688 19.4524 9.62221 19.3191C9.40979 19.1858 9.28438 19.0016 9.24596 18.7666C9.23692 18.7033 9.22901 18.6186 9.22223 18.5124C9.21772 18.4039 9.21546 18.2875 9.21546 18.1632C9.21546 18.0435 9.21772 17.9327 9.22223 17.8311C9.22901 17.7271 9.23692 17.6458 9.24596 17.587C9.28438 17.3384 9.41092 17.1452 9.6256 17.0074C9.84027 16.8695 10.1205 16.8006 10.4662 16.8006C10.8142 16.8006 11.0956 16.8695 11.3102 17.0074C11.5249 17.143 11.6503 17.3316 11.6865 17.5734C11.6955 17.6322 11.7023 17.7135 11.7068 17.8175C11.7136 17.9192 11.717 18.031 11.717 18.1531C11.717 18.2819 11.7136 18.3994 11.7068 18.5056C11.7023 18.6118 11.6955 18.6965 11.6865 18.7598ZM10.5577 18.6039V17.7158C10.5577 17.6548 10.5272 17.6243 10.4662 17.6243C10.4052 17.6243 10.3747 17.6548 10.3747 17.7158V18.6039C10.3747 18.6649 10.4052 18.6954 10.4662 18.6954C10.5272 18.6954 10.5577 18.6649 10.5577 18.6039ZM11.8472 16.8548H12.9454V18.5564C12.9454 18.5632 12.9488 18.5802 12.9556 18.6073C12.9646 18.6344 12.9918 18.6479 13.037 18.6479C13.0821 18.6479 13.1081 18.6344 13.1149 18.6073C13.124 18.5802 13.1285 18.5632 13.1285 18.5564V16.8548H14.2267V18.6039C14.2267 18.7282 14.2064 18.8457 14.1657 18.9564C14.125 19.0649 14.0584 19.162 13.9657 19.2479C13.8731 19.3315 13.7476 19.3982 13.5895 19.4479C13.4335 19.4954 13.2392 19.5191 13.0064 19.5191C12.8008 19.5191 12.6245 19.4942 12.4777 19.4445C12.3308 19.3948 12.211 19.327 12.1184 19.2411C12.0257 19.1553 11.9568 19.0581 11.9116 18.9496C11.8687 18.8412 11.8472 18.7282 11.8472 18.6107V16.8548ZM14.3319 17.6921V17.6853C14.3658 17.5723 14.3873 17.439 14.3963 17.2853C14.4054 17.1294 14.4031 16.9678 14.3896 16.8006L14.393 16.7972L15.2166 16.7667V16.7735C15.2166 16.9226 15.2019 17.0605 15.1726 17.187C15.1432 17.3113 15.1059 17.4209 15.0607 17.5158C15.0155 17.6107 14.9681 17.6853 14.9183 17.7395L14.3319 17.6921ZM16.4108 19.4648H15.3431V16.8548H16.8955C17.0401 16.8548 17.1723 16.8808 17.2921 16.9328C17.4141 16.9848 17.5113 17.0684 17.5836 17.1836C17.6559 17.2989 17.6921 17.4525 17.6921 17.6446C17.6921 17.6989 17.6875 17.7576 17.6785 17.8209C17.6717 17.8842 17.6548 17.9474 17.6276 18.0107C17.6005 18.0717 17.5587 18.1271 17.5022 18.1768C17.448 18.2242 17.3734 18.2615 17.2785 18.2886L17.8141 19.4648H16.6243L16.4413 18.7666H16.4108V19.4648ZM16.6447 17.6887H16.3193V17.8717H16.6548C16.6729 17.8717 16.6921 17.8661 16.7125 17.8548C16.7351 17.8435 16.7463 17.8198 16.7463 17.7836C16.7463 17.7452 16.7339 17.7203 16.7091 17.709C16.6842 17.6955 16.6627 17.6887 16.6447 17.6887ZM18.9629 18.4412V18.5802H20.0001V19.4648H17.8952V16.8548H19.9391V17.6175H18.9629V17.7565H19.8476V18.4412H18.9629Z"/>
</mask>
<path d="M8.12893 17.9836L8.23061 16.8548H9.36274L8.67804 18.8073V19.4648H7.5493V18.8073L6.86121 16.8548H7.99334L8.09842 17.9836H8.12893ZM11.6865 18.7598C11.6503 18.9971 11.5249 19.1835 11.3102 19.3191C11.0956 19.4524 10.8142 19.5191 10.4662 19.5191C10.1182 19.5191 9.83688 19.4524 9.62221 19.3191C9.40979 19.1858 9.28438 19.0016 9.24596 18.7666C9.23692 18.7033 9.22901 18.6186 9.22223 18.5124C9.21772 18.4039 9.21546 18.2875 9.21546 18.1632C9.21546 18.0435 9.21772 17.9327 9.22223 17.8311C9.22901 17.7271 9.23692 17.6458 9.24596 17.587C9.28438 17.3384 9.41092 17.1452 9.6256 17.0074C9.84027 16.8695 10.1205 16.8006 10.4662 16.8006C10.8142 16.8006 11.0956 16.8695 11.3102 17.0074C11.5249 17.143 11.6503 17.3316 11.6865 17.5734C11.6955 17.6322 11.7023 17.7135 11.7068 17.8175C11.7136 17.9192 11.717 18.031 11.717 18.1531C11.717 18.2819 11.7136 18.3994 11.7068 18.5056C11.7023 18.6118 11.6955 18.6965 11.6865 18.7598ZM10.5577 18.6039V17.7158C10.5577 17.6548 10.5272 17.6243 10.4662 17.6243C10.4052 17.6243 10.3747 17.6548 10.3747 17.7158V18.6039C10.3747 18.6649 10.4052 18.6954 10.4662 18.6954C10.5272 18.6954 10.5577 18.6649 10.5577 18.6039ZM11.8472 16.8548H12.9454V18.5564C12.9454 18.5632 12.9488 18.5802 12.9556 18.6073C12.9646 18.6344 12.9918 18.6479 13.037 18.6479C13.0821 18.6479 13.1081 18.6344 13.1149 18.6073C13.124 18.5802 13.1285 18.5632 13.1285 18.5564V16.8548H14.2267V18.6039C14.2267 18.7282 14.2064 18.8457 14.1657 18.9564C14.125 19.0649 14.0584 19.162 13.9657 19.2479C13.8731 19.3315 13.7476 19.3982 13.5895 19.4479C13.4335 19.4954 13.2392 19.5191 13.0064 19.5191C12.8008 19.5191 12.6245 19.4942 12.4777 19.4445C12.3308 19.3948 12.211 19.327 12.1184 19.2411C12.0257 19.1553 11.9568 19.0581 11.9116 18.9496C11.8687 18.8412 11.8472 18.7282 11.8472 18.6107V16.8548ZM14.3319 17.6921V17.6853C14.3658 17.5723 14.3873 17.439 14.3963 17.2853C14.4054 17.1294 14.4031 16.9678 14.3896 16.8006L14.393 16.7972L15.2166 16.7667V16.7735C15.2166 16.9226 15.2019 17.0605 15.1726 17.187C15.1432 17.3113 15.1059 17.4209 15.0607 17.5158C15.0155 17.6107 14.9681 17.6853 14.9183 17.7395L14.3319 17.6921ZM16.4108 19.4648H15.3431V16.8548H16.8955C17.0401 16.8548 17.1723 16.8808 17.2921 16.9328C17.4141 16.9848 17.5113 17.0684 17.5836 17.1836C17.6559 17.2989 17.6921 17.4525 17.6921 17.6446C17.6921 17.6989 17.6875 17.7576 17.6785 17.8209C17.6717 17.8842 17.6548 17.9474 17.6276 18.0107C17.6005 18.0717 17.5587 18.1271 17.5022 18.1768C17.448 18.2242 17.3734 18.2615 17.2785 18.2886L17.8141 19.4648H16.6243L16.4413 18.7666H16.4108V19.4648ZM16.6447 17.6887H16.3193V17.8717H16.6548C16.6729 17.8717 16.6921 17.8661 16.7125 17.8548C16.7351 17.8435 16.7463 17.8198 16.7463 17.7836C16.7463 17.7452 16.7339 17.7203 16.7091 17.709C16.6842 17.6955 16.6627 17.6887 16.6447 17.6887ZM18.9629 18.4412V18.5802H20.0001V19.4648H17.8952V16.8548H19.9391V17.6175H18.9629V17.7565H19.8476V18.4412H18.9629Z" fill="#FD587C"/>
<path d="M8.12893 17.9836V18.1107H8.2451L8.25552 17.995L8.12893 17.9836ZM8.23061 16.8548V16.7277H8.11444L8.10402 16.8434L8.23061 16.8548ZM9.36274 16.8548L9.48269 16.8969L9.54202 16.7277H9.36274V16.8548ZM8.67804 18.8073L8.5581 18.7652L8.55093 18.7856V18.8073H8.67804ZM8.67804 19.4648V19.592H8.80515V19.4648H8.67804ZM7.5493 19.4648H7.42219V19.592H7.5493V19.4648ZM7.5493 18.8073H7.67641V18.7855L7.66919 18.765L7.5493 18.8073ZM6.86121 16.8548V16.7277H6.68164L6.74133 16.8971L6.86121 16.8548ZM7.99334 16.8548L8.11991 16.8431L8.10917 16.7277H7.99334V16.8548ZM8.09842 17.9836L7.97186 17.9954L7.98259 18.1107H8.09842V17.9836ZM8.12893 17.9836L8.25552 17.995L8.35721 16.8662L8.23061 16.8548L8.10402 16.8434L8.00233 17.9722L8.12893 17.9836ZM8.23061 16.8548V16.982H9.36274V16.8548V16.7277H8.23061V16.8548ZM9.36274 16.8548L9.2428 16.8128L8.5581 18.7652L8.67804 18.8073L8.79799 18.8493L9.48269 16.8969L9.36274 16.8548ZM8.67804 18.8073H8.55093V19.4648H8.67804H8.80515V18.8073H8.67804ZM8.67804 19.4648V19.3377H7.5493V19.4648V19.592H8.67804V19.4648ZM7.5493 19.4648H7.67641V18.8073H7.5493H7.42219V19.4648H7.5493ZM7.5493 18.8073L7.66919 18.765L6.9811 16.8126L6.86121 16.8548L6.74133 16.8971L7.42942 18.8495L7.5493 18.8073ZM6.86121 16.8548V16.982H7.99334V16.8548V16.7277H6.86121V16.8548ZM7.99334 16.8548L7.86678 16.8666L7.97186 17.9954L8.09842 17.9836L8.22498 17.9718L8.11991 16.8431L7.99334 16.8548ZM8.09842 17.9836V18.1107H8.12893V17.9836V17.8565H8.09842V17.9836ZM11.6865 18.7598L11.8121 18.779L11.8123 18.7778L11.6865 18.7598ZM11.3102 19.3191L11.3773 19.4271L11.3781 19.4266L11.3102 19.3191ZM9.62221 19.3191L9.55463 19.4268L9.55515 19.4271L9.62221 19.3191ZM9.24596 18.7666L9.1201 18.7846L9.12052 18.7871L9.24596 18.7666ZM9.22223 18.5124L9.0952 18.5177L9.09538 18.5205L9.22223 18.5124ZM9.22223 17.8311L9.09537 17.8228L9.09525 17.8254L9.22223 17.8311ZM9.24596 17.587L9.12034 17.5676L9.12033 17.5677L9.24596 17.587ZM9.6256 17.0074L9.69428 17.1143V17.1143L9.6256 17.0074ZM11.3102 17.0074L11.2416 17.1143L11.2424 17.1148L11.3102 17.0074ZM11.6865 17.5734L11.5608 17.5922L11.5608 17.5928L11.6865 17.5734ZM11.7068 17.8175L11.5798 17.823L11.58 17.8259L11.7068 17.8175ZM11.7068 18.5056L11.5799 18.4975L11.5798 18.5002L11.7068 18.5056ZM11.6865 18.7598L11.5608 18.7407C11.5306 18.9392 11.4279 19.0944 11.2424 19.2116L11.3102 19.3191L11.3781 19.4266C11.6219 19.2726 11.7701 19.055 11.8121 18.779L11.6865 18.7598ZM11.3102 19.3191L11.2432 19.2111C11.0549 19.3281 10.7991 19.392 10.4662 19.392V19.5191V19.6462C10.8293 19.6462 11.1363 19.5768 11.3773 19.4271L11.3102 19.3191ZM10.4662 19.5191V19.392C10.1333 19.392 9.87758 19.3281 9.68927 19.2111L9.62221 19.3191L9.55515 19.4271C9.79619 19.5768 10.1031 19.6462 10.4662 19.6462V19.5191ZM9.62221 19.3191L9.68978 19.2114C9.50641 19.0963 9.40359 18.943 9.37141 18.7461L9.24596 18.7666L9.12052 18.7871C9.16516 19.0602 9.31318 19.2752 9.55463 19.4268L9.62221 19.3191ZM9.24596 18.7666L9.37179 18.7486C9.36343 18.69 9.35577 18.609 9.34909 18.5043L9.22223 18.5124L9.09538 18.5205C9.10225 18.6281 9.11042 18.7166 9.12013 18.7846L9.24596 18.7666ZM9.22223 18.5124L9.34924 18.5071C9.3448 18.4006 9.34257 18.286 9.34257 18.1632H9.21546H9.08835C9.08835 18.289 9.09063 18.4072 9.09523 18.5177L9.22223 18.5124ZM9.21546 18.1632H9.34257C9.34257 18.045 9.3448 17.9362 9.34922 17.8367L9.22223 17.8311L9.09525 17.8254C9.09063 17.9293 9.08835 18.0419 9.08835 18.1632H9.21546ZM9.22223 17.8311L9.34908 17.8393C9.35576 17.7368 9.36339 17.6597 9.37159 17.6063L9.24596 17.587L9.12033 17.5677C9.11046 17.6318 9.10226 17.7174 9.09539 17.8228L9.22223 17.8311ZM9.24596 17.587L9.37158 17.6064C9.40434 17.3944 9.50974 17.2328 9.69428 17.1143L9.6256 17.0074L9.55692 16.9004C9.3121 17.0576 9.16441 17.2824 9.12034 17.5676L9.24596 17.587ZM9.6256 17.0074L9.69428 17.1143C9.88239 16.9935 10.1364 16.9277 10.4662 16.9277V16.8006V16.6735C10.1045 16.6735 9.79816 16.7455 9.55692 16.9004L9.6256 17.0074ZM10.4662 16.8006V16.9277C10.7985 16.9277 11.0536 16.9936 11.2416 17.1143L11.3102 17.0074L11.3789 16.9004C11.1376 16.7454 10.83 16.6735 10.4662 16.6735V16.8006ZM11.3102 17.0074L11.2424 17.1148C11.4272 17.2316 11.5303 17.3886 11.5608 17.5922L11.6865 17.5734L11.8122 17.5546C11.7703 17.2747 11.6227 17.0544 11.3781 16.8999L11.3102 17.0074ZM11.6865 17.5734L11.5608 17.5928C11.5689 17.6448 11.5754 17.7208 11.5798 17.823L11.7068 17.8175L11.8338 17.812C11.8292 17.7063 11.8222 17.6196 11.8121 17.5541L11.6865 17.5734ZM11.7068 17.8175L11.58 17.8259C11.5865 17.9243 11.5899 18.0333 11.5899 18.1531H11.717H11.8441C11.8441 18.0287 11.8406 17.914 11.8336 17.809L11.7068 17.8175ZM11.717 18.1531H11.5899C11.5899 18.2797 11.5865 18.3945 11.58 18.4975L11.7068 18.5056L11.8337 18.5137C11.8407 18.4043 11.8441 18.284 11.8441 18.1531H11.717ZM11.7068 18.5056L11.5798 18.5002C11.5754 18.6045 11.5688 18.6845 11.5606 18.7418L11.6865 18.7598L11.8123 18.7778C11.8222 18.7085 11.8292 18.619 11.8338 18.511L11.7068 18.5056ZM10.5577 18.6039H10.6849V17.7158H10.5577H10.4306V18.6039H10.5577ZM10.5577 17.7158H10.6849C10.6849 17.6657 10.6722 17.6048 10.6247 17.5573C10.5772 17.5098 10.5163 17.4972 10.4662 17.4972V17.6243V17.7514C10.4771 17.7514 10.462 17.754 10.445 17.737C10.428 17.7201 10.4306 17.7049 10.4306 17.7158H10.5577ZM10.4662 17.6243V17.4972C10.4161 17.4972 10.3552 17.5098 10.3077 17.5573C10.2602 17.6048 10.2476 17.6657 10.2476 17.7158H10.3747H10.5018C10.5018 17.7049 10.5045 17.7201 10.4875 17.737C10.4705 17.754 10.4553 17.7514 10.4662 17.7514V17.6243ZM10.3747 17.7158H10.2476V18.6039H10.3747H10.5018V17.7158H10.3747ZM10.3747 18.6039H10.2476C10.2476 18.654 10.2602 18.7149 10.3077 18.7624C10.3552 18.8099 10.4161 18.8225 10.4662 18.8225V18.6954V18.5683C10.4553 18.5683 10.4705 18.5656 10.4875 18.5826C10.5045 18.5996 10.5018 18.6148 10.5018 18.6039H10.3747ZM10.4662 18.6954V18.8225C10.5163 18.8225 10.5772 18.8099 10.6247 18.7624C10.6722 18.7149 10.6849 18.654 10.6849 18.6039H10.5577H10.4306C10.4306 18.6148 10.428 18.5996 10.445 18.5826C10.462 18.5656 10.4771 18.5683 10.4662 18.5683V18.6954ZM11.8472 16.8548V16.7277H11.7201V16.8548H11.8472ZM12.9454 16.8548H13.0725V16.7277H12.9454V16.8548ZM12.9556 18.6073L12.8319 18.6382L12.835 18.6475L12.9556 18.6073ZM13.1149 18.6073L12.994 18.567L12.9916 18.5764L13.1149 18.6073ZM13.1285 16.8548V16.7277H13.0014V16.8548H13.1285ZM14.2267 16.8548H14.3538V16.7277H14.2267V16.8548ZM14.1657 18.9564L14.2847 19.001L14.285 19.0002L14.1657 18.9564ZM13.9657 19.2479L14.0509 19.3423L14.0521 19.3411L13.9657 19.2479ZM13.5895 19.4479L13.6265 19.5695L13.6276 19.5692L13.5895 19.4479ZM12.1184 19.2411L12.032 19.3344V19.3344L12.1184 19.2411ZM11.9116 18.9496L11.7934 18.9964L11.7943 18.9985L11.9116 18.9496ZM11.8472 16.8548V16.982H12.9454V16.8548V16.7277H11.8472V16.8548ZM12.9454 16.8548H12.8183V18.5564H12.9454H13.0725V16.8548H12.9454ZM12.9454 18.5564H12.8183C12.8183 18.5739 12.8218 18.5913 12.8233 18.5992C12.8256 18.6104 12.8287 18.6236 12.8323 18.6381L12.9556 18.6073L13.0789 18.5764C13.0758 18.5638 13.0737 18.555 13.0726 18.5493C13.072 18.5465 13.0719 18.5453 13.0719 18.5454C13.0719 18.5455 13.072 18.5464 13.0722 18.5479C13.0723 18.5493 13.0725 18.5523 13.0725 18.5564H12.9454ZM12.9556 18.6073L12.835 18.6475C12.8708 18.7547 12.9743 18.7751 13.037 18.7751V18.6479V18.5208C13.0252 18.5208 13.0289 18.5188 13.0396 18.5241C13.0456 18.5271 13.0534 18.5323 13.0608 18.5406C13.0683 18.549 13.0733 18.5584 13.0762 18.5671L12.9556 18.6073ZM13.037 18.6479V18.7751C13.0699 18.7751 13.1108 18.7705 13.1491 18.7505C13.1926 18.7278 13.2255 18.6888 13.2382 18.6381L13.1149 18.6073L12.9916 18.5764C12.9941 18.5666 12.999 18.5556 13.0072 18.5453C13.0154 18.5352 13.0244 18.5288 13.0315 18.5251C13.0439 18.5186 13.0492 18.5208 13.037 18.5208V18.6479ZM13.1149 18.6073L13.2355 18.6475C13.2404 18.6328 13.2447 18.619 13.2479 18.607C13.2499 18.5995 13.2556 18.5786 13.2556 18.5564H13.1285H13.0014C13.0014 18.5506 13.0018 18.5463 13.0021 18.5442C13.0024 18.5418 13.0026 18.5402 13.0028 18.5396C13.003 18.5386 13.0029 18.539 13.0023 18.5415C13.001 18.5464 12.9985 18.5547 12.9943 18.5671L13.1149 18.6073ZM13.1285 18.5564H13.2556V16.8548H13.1285H13.0014V18.5564H13.1285ZM13.1285 16.8548V16.982H14.2267V16.8548V16.7277H13.1285V16.8548ZM14.2267 16.8548H14.0996V18.6039H14.2267H14.3538V16.8548H14.2267ZM14.2267 18.6039H14.0996C14.0996 18.714 14.0816 18.8166 14.0464 18.9126L14.1657 18.9564L14.285 19.0002C14.3311 18.8747 14.3538 18.7423 14.3538 18.6039H14.2267ZM14.1657 18.9564L14.0467 18.9118C14.0136 19.0001 13.9588 19.081 13.8793 19.1547L13.9657 19.2479L14.0521 19.3411C14.1579 19.2431 14.2365 19.1296 14.2847 19.001L14.1657 18.9564ZM13.9657 19.2479L13.8805 19.1535C13.8051 19.2216 13.6975 19.2807 13.5513 19.3266L13.5895 19.4479L13.6276 19.5692C13.7977 19.5157 13.941 19.4415 14.0509 19.3423L13.9657 19.2479ZM13.5895 19.4479L13.5524 19.3263C13.4124 19.3689 13.2315 19.392 13.0064 19.392V19.5191V19.6462C13.2468 19.6462 13.4546 19.6218 13.6265 19.5695L13.5895 19.4479ZM13.0064 19.5191V19.392C12.8104 19.392 12.6487 19.3682 12.5184 19.3241L12.4777 19.4445L12.4369 19.5649C12.6004 19.6202 12.7912 19.6462 13.0064 19.6462V19.5191ZM12.4777 19.4445L12.5184 19.3241C12.3847 19.2789 12.2817 19.2192 12.2048 19.1479L12.1184 19.2411L12.032 19.3344C12.1404 19.4348 12.2768 19.5107 12.4369 19.5649L12.4777 19.4445ZM12.1184 19.2411L12.2048 19.1479C12.1245 19.0735 12.0666 18.9911 12.0289 18.9007L11.9116 18.9496L11.7943 18.9985C11.847 19.125 11.927 19.237 12.032 19.3344L12.1184 19.2411ZM11.9116 18.9496L12.0298 18.9028C11.9928 18.8094 11.9743 18.7123 11.9743 18.6107H11.8472H11.7201C11.7201 18.7441 11.7445 18.8729 11.7934 18.9964L11.9116 18.9496ZM11.8472 18.6107H11.9743V16.8548H11.8472H11.7201V18.6107H11.8472ZM14.3319 17.6921H14.2048V17.8093L14.3217 17.8188L14.3319 17.6921ZM14.3319 17.6853L14.2102 17.6488L14.2048 17.6666V17.6853H14.3319ZM14.3963 17.2853L14.5232 17.2928L14.5232 17.2927L14.3963 17.2853ZM14.3896 16.8006L14.2997 16.7107L14.2581 16.7523L14.2629 16.8109L14.3896 16.8006ZM14.393 16.7972L14.3882 16.6702L14.3384 16.672L14.3031 16.7073L14.393 16.7972ZM15.2166 16.7667H15.3437V16.6348L15.2119 16.6397L15.2166 16.7667ZM15.1726 17.187L15.2963 17.2163L15.2964 17.2158L15.1726 17.187ZM15.0607 17.5158L15.1755 17.5705V17.5705L15.0607 17.5158ZM14.9183 17.7395L14.9081 17.8662L14.97 17.8712L15.012 17.8254L14.9183 17.7395ZM14.3319 17.6921H14.4591V17.6853H14.3319H14.2048V17.6921H14.3319ZM14.3319 17.6853L14.4537 17.7218C14.4911 17.597 14.5138 17.4535 14.5232 17.2928L14.3963 17.2853L14.2695 17.2779C14.2608 17.4245 14.2405 17.5476 14.2102 17.6488L14.3319 17.6853ZM14.3963 17.2853L14.5232 17.2927C14.5326 17.1305 14.5303 16.963 14.5163 16.7903L14.3896 16.8006L14.2629 16.8109C14.276 16.9727 14.2781 17.1283 14.2694 17.278L14.3963 17.2853ZM14.3896 16.8006L14.4794 16.8905L14.4828 16.8871L14.393 16.7972L14.3031 16.7073L14.2997 16.7107L14.3896 16.8006ZM14.393 16.7972L14.3977 16.9242L15.2213 16.8937L15.2166 16.7667L15.2119 16.6397L14.3882 16.6702L14.393 16.7972ZM15.2166 16.7667H15.0895V16.7735H15.2166H15.3437V16.7667H15.2166ZM15.2166 16.7735H15.0895C15.0895 16.9144 15.0756 17.0424 15.0487 17.1583L15.1726 17.187L15.2964 17.2158C15.3282 17.0785 15.3437 16.9309 15.3437 16.7735H15.2166ZM15.1726 17.187L15.0489 17.1578C15.0211 17.2751 14.9865 17.3759 14.9459 17.4612L15.0607 17.5158L15.1755 17.5705C15.2253 17.4659 15.2652 17.3475 15.2963 17.2163L15.1726 17.187ZM15.0607 17.5158L14.9459 17.4612C14.9041 17.5491 14.863 17.6118 14.8246 17.6536L14.9183 17.7395L15.012 17.8254C15.0731 17.7588 15.127 17.6723 15.1755 17.5705L15.0607 17.5158ZM14.9183 17.7395L14.9286 17.6128L14.3422 17.5654L14.3319 17.6921L14.3217 17.8188L14.9081 17.8662L14.9183 17.7395ZM16.4108 19.4648V19.592H16.5379V19.4648H16.4108ZM15.3431 19.4648H15.2159V19.592H15.3431V19.4648ZM15.3431 16.8548V16.7277H15.2159V16.8548H15.3431ZM17.2921 16.9328L17.2415 17.0494L17.2423 17.0497L17.2921 16.9328ZM17.5836 17.1836L17.6913 17.1161V17.1161L17.5836 17.1836ZM17.6785 17.8209L17.5526 17.8029L17.5521 17.8073L17.6785 17.8209ZM17.6276 18.0107L17.7438 18.0623L17.7445 18.0608L17.6276 18.0107ZM17.5022 18.1768L17.5859 18.2725L17.5862 18.2722L17.5022 18.1768ZM17.2785 18.2886L17.2436 18.1664L17.1017 18.207L17.1628 18.3413L17.2785 18.2886ZM17.8141 19.4648V19.592H18.0116L17.9298 19.4122L17.8141 19.4648ZM16.6243 19.4648L16.5014 19.4971L16.5262 19.592H16.6243V19.4648ZM16.4413 18.7666L16.5642 18.7344L16.5394 18.6395H16.4413V18.7666ZM16.4108 18.7666V18.6395H16.2837V18.7666H16.4108ZM16.3193 17.6887V17.5616H16.1921V17.6887H16.3193ZM16.3193 17.8717H16.1921V17.9988H16.3193V17.8717ZM16.7125 17.8548L16.6556 17.741L16.6507 17.7437L16.7125 17.8548ZM16.7091 17.709L16.648 17.8209L16.6565 17.8247L16.7091 17.709ZM16.4108 19.4648V19.3377H15.3431V19.4648V19.592H16.4108V19.4648ZM15.3431 19.4648H15.4702V16.8548H15.3431H15.2159V19.4648H15.3431ZM15.3431 16.8548V16.982H16.8955V16.8548V16.7277H15.3431V16.8548ZM16.8955 16.8548V16.982C17.0246 16.982 17.1393 17.0051 17.2415 17.0494L17.2921 16.9328L17.3427 16.8162C17.2053 16.7566 17.0556 16.7277 16.8955 16.7277V16.8548ZM17.2921 16.9328L17.2423 17.0497C17.3398 17.0913 17.417 17.1573 17.4759 17.2512L17.5836 17.1836L17.6913 17.1161C17.6055 16.9795 17.4884 16.8783 17.3419 16.8159L17.2921 16.9328ZM17.5836 17.1836L17.4759 17.2512C17.5313 17.3395 17.5649 17.4671 17.5649 17.6446H17.6921H17.8192C17.8192 17.438 17.7805 17.2583 17.6913 17.1161L17.5836 17.1836ZM17.6921 17.6446H17.5649C17.5649 17.6919 17.561 17.7446 17.5527 17.8029L17.6785 17.8209L17.8043 17.8389C17.8141 17.7707 17.8192 17.7058 17.8192 17.6446H17.6921ZM17.6785 17.8209L17.5521 17.8073C17.5468 17.857 17.5334 17.908 17.5108 17.9606L17.6276 18.0107L17.7445 18.0608C17.7762 17.9868 17.7966 17.9113 17.8049 17.8344L17.6785 17.8209ZM17.6276 18.0107L17.5115 17.9591C17.4927 18.0013 17.4627 18.0422 17.4183 18.0814L17.5022 18.1768L17.5862 18.2722C17.6547 18.2119 17.7083 18.1421 17.7438 18.0623L17.6276 18.0107ZM17.5022 18.1768L17.4185 18.0811C17.3826 18.1126 17.3268 18.1427 17.2436 18.1664L17.2785 18.2886L17.3134 18.4109C17.4201 18.3804 17.5134 18.3359 17.5859 18.2725L17.5022 18.1768ZM17.2785 18.2886L17.1628 18.3413L17.6984 19.5175L17.8141 19.4648L17.9298 19.4122L17.3942 18.236L17.2785 18.2886ZM17.8141 19.4648V19.3377H16.6243V19.4648V19.592H17.8141V19.4648ZM16.6243 19.4648L16.7473 19.4326L16.5642 18.7344L16.4413 18.7666L16.3183 18.7988L16.5014 19.4971L16.6243 19.4648ZM16.4413 18.7666V18.6395H16.4108V18.7666V18.8937H16.4413V18.7666ZM16.4108 18.7666H16.2837V19.4648H16.4108H16.5379V18.7666H16.4108ZM16.6447 17.6887V17.5616H16.3193V17.6887V17.8158H16.6447V17.6887ZM16.3193 17.6887H16.1921V17.8717H16.3193H16.4464V17.6887H16.3193ZM16.3193 17.8717V17.9988H16.6548V17.8717V17.7446H16.3193V17.8717ZM16.6548 17.8717V17.9988C16.6998 17.9988 16.7402 17.9847 16.7742 17.9659L16.7125 17.8548L16.6507 17.7437C16.644 17.7474 16.646 17.7446 16.6548 17.7446V17.8717ZM16.7125 17.8548L16.7693 17.9685C16.8527 17.9268 16.8735 17.8443 16.8735 17.7836H16.7463H16.6192C16.6192 17.7895 16.6182 17.7842 16.6231 17.7739C16.6257 17.7683 16.6299 17.7619 16.6359 17.7556C16.6421 17.7493 16.6489 17.7444 16.6556 17.7411L16.7125 17.8548ZM16.7463 17.7836H16.8735C16.8735 17.719 16.8501 17.6335 16.7617 17.5933L16.7091 17.709L16.6565 17.8247C16.6501 17.8218 16.6432 17.8174 16.6369 17.8113C16.6306 17.8052 16.6262 17.7987 16.6233 17.793C16.618 17.7823 16.6192 17.777 16.6192 17.7836H16.7463ZM16.7091 17.709L16.7699 17.5974C16.736 17.5789 16.6927 17.5616 16.6447 17.5616V17.6887V17.8158C16.638 17.8158 16.6348 17.8146 16.636 17.815C16.6373 17.8154 16.6412 17.8168 16.6482 17.8206L16.7091 17.709ZM18.9629 18.4412V18.3141H18.8358V18.4412H18.9629ZM18.9629 18.5802H18.8358V18.7073H18.9629V18.5802ZM20.0001 18.5802H20.1272V18.453H20.0001V18.5802ZM20.0001 19.4648V19.592H20.1272V19.4648H20.0001ZM17.8952 19.4648H17.7681V19.592H17.8952V19.4648ZM17.8952 16.8548V16.7277H17.7681V16.8548H17.8952ZM19.9391 16.8548H20.0662V16.7277H19.9391V16.8548ZM19.9391 17.6175V17.7446H20.0662V17.6175H19.9391ZM18.9629 17.6175V17.4904H18.8358V17.6175H18.9629ZM18.9629 17.7565H18.8358V17.8836H18.9629V17.7565ZM19.8476 17.7565H19.9747V17.6294H19.8476V17.7565ZM19.8476 18.4412V18.5683H19.9747V18.4412H19.8476ZM18.9629 18.4412H18.8358V18.5802H18.9629H19.09V18.4412H18.9629ZM18.9629 18.5802V18.7073H20.0001V18.5802V18.453H18.9629V18.5802ZM20.0001 18.5802H19.873V19.4648H20.0001H20.1272V18.5802H20.0001ZM20.0001 19.4648V19.3377H17.8952V19.4648V19.592H20.0001V19.4648ZM17.8952 19.4648H18.0223V16.8548H17.8952H17.7681V19.4648H17.8952ZM17.8952 16.8548V16.982H19.9391V16.8548V16.7277H17.8952V16.8548ZM19.9391 16.8548H19.812V17.6175H19.9391H20.0662V16.8548H19.9391ZM19.9391 17.6175V17.4904H18.9629V17.6175V17.7446H19.9391V17.6175ZM18.9629 17.6175H18.8358V17.7565H18.9629H19.09V17.6175H18.9629ZM18.9629 17.7565V17.8836H19.8476V17.7565V17.6294H18.9629V17.7565ZM19.8476 17.7565H19.7205V18.4412H19.8476H19.9747V17.7565H19.8476ZM19.8476 18.4412V18.3141H18.9629V18.4412V18.5683H19.8476V18.4412Z" fill="white" mask="url(#path-5-outside-2_1091_962)"/>
<path d="M20.7361 5.85769L5.29067 7.98321C5.10606 8.00861 4.97658 8.17828 5.00079 8.36305L5.89112 15.1566C5.91398 15.3311 6.06654 15.4591 6.24232 15.4512L20.7974 14.8016C20.9785 14.7935 21.1212 14.6443 21.1212 14.463V6.19349C21.1212 5.98792 20.9397 5.82967 20.7361 5.85769Z" fill="#7159A1" stroke="white" stroke-width="0.169481"/>
<mask id="path-8-outside-3_1091_962" maskUnits="userSpaceOnUse" x="6.41797" y="8.17773" width="14" height="5" fill="black">
<rect fill="white" x="6.41797" y="8.17773" width="14" height="5"/>
<path d="M7.78567 9.35963V11.0578H8.9056V12.1777H6.63281V9.35963H7.78567ZM11.9363 12.1777H10.7505L10.7139 11.841H10.1942L10.1576 12.1777H8.97179L9.69644 9.35963H11.2116L11.9363 12.1777ZM10.3552 10.4027L10.315 10.754H10.5931L10.5529 10.4027H10.3552ZM11.965 9.35963H13.1508V11.1969C13.1508 11.2042 13.1545 11.2225 13.1618 11.2518C13.1716 11.2811 13.2008 11.2957 13.2496 11.2957C13.2984 11.2957 13.3265 11.2811 13.3338 11.2518C13.3436 11.2225 13.3485 11.2042 13.3485 11.1969V9.35963H14.5343V11.2481C14.5343 11.3823 14.5123 11.5092 14.4684 11.6288C14.4245 11.7459 14.3525 11.8508 14.2525 11.9435C14.1524 12.0338 14.017 12.1058 13.8462 12.1594C13.6778 12.2107 13.468 12.2363 13.2167 12.2363C12.9947 12.2363 12.8044 12.2095 12.6458 12.1558C12.4872 12.1021 12.3579 12.0289 12.2578 11.9362C12.1578 11.8435 12.0834 11.7385 12.0346 11.6214C11.9882 11.5043 11.965 11.3823 11.965 11.2554V9.35963ZM17.375 10.1355V10.2453L16.2222 10.3771V10.3112C16.2222 10.2234 16.1782 10.1794 16.0904 10.1794C16.0026 10.1794 15.9586 10.2234 15.9586 10.3112V11.2115C15.9586 11.2994 16.0026 11.3433 16.0904 11.3433C16.1782 11.3433 16.2222 11.2994 16.2222 11.2115V11.0981H16.0904V10.4759H17.375V11.3799C17.375 11.6483 17.2591 11.8581 17.0273 12.0094C16.7955 12.1607 16.4722 12.2363 16.0575 12.2363C15.6744 12.2363 15.3633 12.1619 15.1242 12.013C14.8875 11.8618 14.7484 11.6532 14.707 11.3872C14.6972 11.3189 14.6887 11.2298 14.6813 11.12C14.6765 11.0102 14.674 10.8882 14.674 10.754C14.674 10.6272 14.6765 10.5113 14.6813 10.4064C14.6887 10.299 14.6972 10.2136 14.707 10.1502C14.7484 9.88177 14.8887 9.67316 15.1278 9.52432C15.367 9.37549 15.6768 9.30107 16.0575 9.30107C16.4625 9.30107 16.7809 9.37549 17.0127 9.52432C17.2445 9.67072 17.3653 9.87445 17.375 10.1355ZM19.0125 10.1502V9.35963H20.1983V12.1777H19.0125V11.2701H18.716V12.1777H17.5302V9.35963H18.716V10.1502H19.0125Z"/>
</mask>
<path d="M7.78567 9.35963V11.0578H8.9056V12.1777H6.63281V9.35963H7.78567ZM11.9363 12.1777H10.7505L10.7139 11.841H10.1942L10.1576 12.1777H8.97179L9.69644 9.35963H11.2116L11.9363 12.1777ZM10.3552 10.4027L10.315 10.754H10.5931L10.5529 10.4027H10.3552ZM11.965 9.35963H13.1508V11.1969C13.1508 11.2042 13.1545 11.2225 13.1618 11.2518C13.1716 11.2811 13.2008 11.2957 13.2496 11.2957C13.2984 11.2957 13.3265 11.2811 13.3338 11.2518C13.3436 11.2225 13.3485 11.2042 13.3485 11.1969V9.35963H14.5343V11.2481C14.5343 11.3823 14.5123 11.5092 14.4684 11.6288C14.4245 11.7459 14.3525 11.8508 14.2525 11.9435C14.1524 12.0338 14.017 12.1058 13.8462 12.1594C13.6778 12.2107 13.468 12.2363 13.2167 12.2363C12.9947 12.2363 12.8044 12.2095 12.6458 12.1558C12.4872 12.1021 12.3579 12.0289 12.2578 11.9362C12.1578 11.8435 12.0834 11.7385 12.0346 11.6214C11.9882 11.5043 11.965 11.3823 11.965 11.2554V9.35963ZM17.375 10.1355V10.2453L16.2222 10.3771V10.3112C16.2222 10.2234 16.1782 10.1794 16.0904 10.1794C16.0026 10.1794 15.9586 10.2234 15.9586 10.3112V11.2115C15.9586 11.2994 16.0026 11.3433 16.0904 11.3433C16.1782 11.3433 16.2222 11.2994 16.2222 11.2115V11.0981H16.0904V10.4759H17.375V11.3799C17.375 11.6483 17.2591 11.8581 17.0273 12.0094C16.7955 12.1607 16.4722 12.2363 16.0575 12.2363C15.6744 12.2363 15.3633 12.1619 15.1242 12.013C14.8875 11.8618 14.7484 11.6532 14.707 11.3872C14.6972 11.3189 14.6887 11.2298 14.6813 11.12C14.6765 11.0102 14.674 10.8882 14.674 10.754C14.674 10.6272 14.6765 10.5113 14.6813 10.4064C14.6887 10.299 14.6972 10.2136 14.707 10.1502C14.7484 9.88177 14.8887 9.67316 15.1278 9.52432C15.367 9.37549 15.6768 9.30107 16.0575 9.30107C16.4625 9.30107 16.7809 9.37549 17.0127 9.52432C17.2445 9.67072 17.3653 9.87445 17.375 10.1355ZM19.0125 10.1502V9.35963H20.1983V12.1777H19.0125V11.2701H18.716V12.1777H17.5302V9.35963H18.716V10.1502H19.0125Z" fill="#F6F0F1"/>
<path d="M7.78567 9.35963H7.92292V9.22238H7.78567V9.35963ZM7.78567 11.0578H7.64843V11.1951H7.78567V11.0578ZM8.9056 11.0578H9.04284V10.9206H8.9056V11.0578ZM8.9056 12.1777V12.315H9.04284V12.1777H8.9056ZM6.63281 12.1777H6.49557V12.315H6.63281V12.1777ZM6.63281 9.35963V9.22238H6.49557V9.35963H6.63281ZM7.78567 9.35963H7.64843V11.0578H7.78567H7.92292V9.35963H7.78567ZM7.78567 11.0578V11.1951H8.9056V11.0578V10.9206H7.78567V11.0578ZM8.9056 11.0578H8.76835V12.1777H8.9056H9.04284V11.0578H8.9056ZM8.9056 12.1777V12.0405H6.63281V12.1777V12.315H8.9056V12.1777ZM6.63281 12.1777H6.77006V9.35963H6.63281H6.49557V12.1777H6.63281ZM6.63281 9.35963V9.49687H7.78567V9.35963V9.22238H6.63281V9.35963ZM11.9363 12.1777V12.315H12.1133L12.0692 12.1436L11.9363 12.1777ZM10.7505 12.1777L10.614 12.1926L10.6274 12.315H10.7505V12.1777ZM10.7139 11.841L10.8503 11.8262L10.837 11.7038H10.7139V11.841ZM10.1942 11.841V11.7038H10.0711L10.0577 11.8262L10.1942 11.841ZM10.1576 12.1777V12.315H10.2807L10.294 12.1926L10.1576 12.1777ZM8.97179 12.1777L8.83887 12.1436L8.79479 12.315H8.97179V12.1777ZM9.69644 9.35963V9.22238H9.59003L9.56352 9.32545L9.69644 9.35963ZM11.2116 9.35963L11.3446 9.32545L11.3181 9.22238H11.2116V9.35963ZM10.3552 10.4027V10.2654H10.2328L10.2189 10.3871L10.3552 10.4027ZM10.315 10.754L10.1786 10.7384L10.1611 10.8913H10.315V10.754ZM10.5931 10.754V10.8913H10.747L10.7295 10.7384L10.5931 10.754ZM10.5529 10.4027L10.6892 10.3871L10.6753 10.2654H10.5529V10.4027ZM11.9363 12.1777V12.0405H10.7505V12.1777V12.315H11.9363V12.1777ZM10.7505 12.1777L10.8869 12.1629L10.8503 11.8262L10.7139 11.841L10.5774 11.8559L10.614 12.1926L10.7505 12.1777ZM10.7139 11.841V11.7038H10.1942V11.841V11.9783H10.7139V11.841ZM10.1942 11.841L10.0577 11.8262L10.0211 12.1629L10.1576 12.1777L10.294 12.1926L10.3306 11.8559L10.1942 11.841ZM10.1576 12.1777V12.0405H8.97179V12.1777V12.315H10.1576V12.1777ZM8.97179 12.1777L9.10471 12.2119L9.82937 9.39381L9.69644 9.35963L9.56352 9.32545L8.83887 12.1436L8.97179 12.1777ZM9.69644 9.35963V9.49687H11.2116V9.35963V9.22238H9.69644V9.35963ZM11.2116 9.35963L11.0787 9.39381L11.8034 12.2119L11.9363 12.1777L12.0692 12.1436L11.3446 9.32545L11.2116 9.35963ZM10.3552 10.4027L10.2189 10.3871L10.1786 10.7384L10.315 10.754L10.4513 10.7697L10.4916 10.4183L10.3552 10.4027ZM10.315 10.754V10.8913H10.5931V10.754V10.6168H10.315V10.754ZM10.5931 10.754L10.7295 10.7384L10.6892 10.3871L10.5529 10.4027L10.4165 10.4183L10.4568 10.7697L10.5931 10.754ZM10.5529 10.4027V10.2654H10.3552V10.4027V10.5399H10.5529V10.4027ZM11.965 9.35963V9.22238H11.8278V9.35963H11.965ZM13.1508 9.35963H13.2881V9.22238H13.1508V9.35963ZM13.1618 11.2518L13.0283 11.2852L13.0316 11.2952L13.1618 11.2518ZM13.3338 11.2518L13.2032 11.2083L13.2007 11.2185L13.3338 11.2518ZM13.3485 9.35963V9.22238H13.2112V9.35963H13.3485ZM14.5343 9.35963H14.6715V9.22238H14.5343V9.35963ZM14.4684 11.6288L14.5969 11.6769L14.5972 11.6761L14.4684 11.6288ZM14.2524 11.9435L14.3444 12.0454L14.3457 12.0442L14.2524 11.9435ZM13.8462 12.1594L13.8862 12.2907L13.8874 12.2904L13.8462 12.1594ZM12.2578 11.9362L12.1645 12.0368V12.0368L12.2578 11.9362ZM12.0346 11.6214L11.9069 11.672L11.9079 11.6742L12.0346 11.6214ZM11.965 9.35963V9.49687H13.1508V9.35963V9.22238H11.965V9.35963ZM13.1508 9.35963H13.0136V11.1969H13.1508H13.2881V9.35963H13.1508ZM13.1508 11.1969H13.0136C13.0136 11.2158 13.0173 11.2345 13.019 11.243C13.0214 11.2552 13.0247 11.2694 13.0287 11.2851L13.1618 11.2518L13.295 11.2185C13.2915 11.2049 13.2894 11.1953 13.2882 11.1892C13.2875 11.1861 13.2874 11.1849 13.2874 11.185C13.2874 11.1851 13.2875 11.1861 13.2877 11.1877C13.2878 11.1892 13.2881 11.1924 13.2881 11.1969H13.1508ZM13.1618 11.2518L13.0316 11.2952C13.0702 11.411 13.1819 11.4329 13.2496 11.4329V11.2957V11.1585C13.237 11.1585 13.241 11.1562 13.2525 11.162C13.259 11.1652 13.2674 11.1708 13.2754 11.1798C13.2835 11.1889 13.2889 11.199 13.292 11.2084L13.1618 11.2518ZM13.2496 11.2957V11.4329C13.2853 11.4329 13.3294 11.428 13.3708 11.4064C13.4177 11.3819 13.4533 11.3398 13.467 11.2851L13.3338 11.2518L13.2007 11.2185C13.2033 11.2079 13.2086 11.196 13.2176 11.1849C13.2264 11.174 13.2361 11.1671 13.2438 11.163C13.2572 11.1561 13.2628 11.1585 13.2496 11.1585V11.2957ZM13.3338 11.2518L13.464 11.2952C13.4693 11.2793 13.4739 11.2645 13.4774 11.2515C13.4796 11.2434 13.4857 11.2208 13.4857 11.1969H13.3485H13.2112C13.2112 11.1906 13.2117 11.1859 13.212 11.1836C13.2123 11.1811 13.2126 11.1794 13.2127 11.1788C13.2129 11.1776 13.2129 11.1781 13.2122 11.1807C13.2108 11.186 13.2081 11.195 13.2036 11.2084L13.3338 11.2518ZM13.3485 11.1969H13.4857V9.35963H13.3485H13.2112V11.1969H13.3485ZM13.3485 9.35963V9.49687H14.5343V9.35963V9.22238H13.3485V9.35963ZM14.5343 9.35963H14.397V11.2481H14.5343H14.6715V9.35963H14.5343ZM14.5343 11.2481H14.397C14.397 11.367 14.3776 11.4778 14.3396 11.5814L14.4684 11.6288L14.5972 11.6761C14.647 11.5406 14.6715 11.3976 14.6715 11.2481H14.5343ZM14.4684 11.6288L14.3399 11.5806C14.3041 11.6759 14.245 11.7633 14.1592 11.8428L14.2524 11.9435L14.3457 12.0442C14.46 11.9383 14.5448 11.8158 14.5969 11.6769L14.4684 11.6288ZM14.2524 11.9435L14.1605 11.8416C14.0791 11.9151 13.9629 11.9789 13.8051 12.0285L13.8462 12.1594L13.8874 12.2904C14.0711 12.2326 14.2257 12.1525 14.3444 12.0454L14.2524 11.9435ZM13.8462 12.1594L13.8062 12.0281C13.6551 12.0741 13.4598 12.099 13.2167 12.099V12.2363V12.3735C13.4763 12.3735 13.7006 12.3472 13.8862 12.2907L13.8462 12.1594ZM13.2167 12.2363V12.099C13.0051 12.099 12.8304 12.0734 12.6898 12.0258L12.6458 12.1558L12.6018 12.2858C12.7783 12.3455 12.9843 12.3735 13.2167 12.3735V12.2363ZM12.6458 12.1558L12.6898 12.0258C12.5454 11.9769 12.4341 11.9125 12.3511 11.8355L12.2578 11.9362L12.1645 12.0368C12.2816 12.1453 12.4289 12.2273 12.6018 12.2858L12.6458 12.1558ZM12.2578 11.9362L12.3511 11.8355C12.2644 11.7552 12.2019 11.6663 12.1613 11.5686L12.0346 11.6214L11.9079 11.6742C11.9648 11.8108 12.0512 11.9318 12.1645 12.0368L12.2578 11.9362ZM12.0346 11.6214L12.1622 11.5709C12.1222 11.47 12.1023 11.3652 12.1023 11.2554H11.965H11.8278C11.8278 11.3995 11.8542 11.5386 11.907 11.6719L12.0346 11.6214ZM11.965 11.2554H12.1023V9.35963H11.965H11.8278V11.2554H11.965ZM17.375 10.1355H17.5124L17.5122 10.1304L17.375 10.1355ZM17.375 10.2453L17.3906 10.3817L17.5123 10.3678V10.2453H17.375ZM16.2222 10.3771H16.0849V10.5309L16.2377 10.5134L16.2222 10.3771ZM16.2222 11.0981H16.3594V10.9608H16.2222V11.0981ZM16.0904 11.0981H15.9531V11.2353H16.0904V11.0981ZM16.0904 10.4759V10.3386H15.9531V10.4759H16.0904ZM17.375 10.4759H17.5123V10.3386H17.375V10.4759ZM17.0273 12.0094L16.9523 11.8944V11.8944L17.0273 12.0094ZM15.1242 12.013L15.0503 12.1287L15.0517 12.1296L15.1242 12.013ZM14.707 11.3872L14.5711 11.4066L14.5714 11.4084L14.707 11.3872ZM14.6813 11.12L14.5442 11.1261L14.5444 11.1292L14.6813 11.12ZM14.6813 10.4064L14.5444 10.397L14.5442 10.4L14.6813 10.4064ZM14.707 10.1502L14.5713 10.1292L14.5713 10.1293L14.707 10.1502ZM15.1278 9.52432L15.0553 9.4078L15.1278 9.52432ZM17.0127 9.52432L16.9385 9.63981L16.9394 9.64036L17.0127 9.52432ZM17.375 10.1355H17.2378V10.2453H17.375H17.5123V10.1355H17.375ZM17.375 10.2453L17.3594 10.109L16.2066 10.2407L16.2222 10.3771L16.2377 10.5134L17.3906 10.3817L17.375 10.2453ZM16.2222 10.3771H16.3594V10.3112H16.2222H16.0849V10.3771H16.2222ZM16.2222 10.3112H16.3594C16.3594 10.2461 16.343 10.1721 16.2863 10.1153C16.2295 10.0586 16.1555 10.0422 16.0904 10.0422V10.1794V10.3167C16.1013 10.3167 16.1053 10.3181 16.1046 10.3179C16.1033 10.3174 16.098 10.3152 16.0922 10.3094C16.0864 10.3036 16.0842 10.2983 16.0837 10.297C16.0835 10.2963 16.0849 10.3003 16.0849 10.3112H16.2222ZM16.0904 10.1794V10.0422C16.0253 10.0422 15.9513 10.0586 15.8945 10.1153C15.8378 10.1721 15.8214 10.2461 15.8214 10.3112H15.9586H16.0959C16.0959 10.3003 16.0973 10.2963 16.0971 10.297C16.0966 10.2983 16.0944 10.3036 16.0886 10.3094C16.0828 10.3152 16.0775 10.3174 16.0762 10.3179C16.0755 10.3181 16.0795 10.3167 16.0904 10.3167V10.1794ZM15.9586 10.3112H15.8214V11.2115H15.9586H16.0959V10.3112H15.9586ZM15.9586 11.2115H15.8214C15.8214 11.2766 15.8378 11.3506 15.8945 11.4074C15.9513 11.4642 16.0253 11.4805 16.0904 11.4805V11.3433V11.206C16.0795 11.206 16.0755 11.2046 16.0762 11.2048C16.0775 11.2053 16.0828 11.2075 16.0886 11.2133C16.0944 11.2191 16.0966 11.2244 16.0971 11.2258C16.0973 11.2264 16.0959 11.2225 16.0959 11.2115H15.9586ZM16.0904 11.3433V11.4805C16.1555 11.4805 16.2295 11.4642 16.2863 11.4074C16.343 11.3506 16.3594 11.2766 16.3594 11.2115H16.2222H16.0849C16.0849 11.2225 16.0835 11.2264 16.0837 11.2258C16.0842 11.2244 16.0864 11.2191 16.0922 11.2133C16.098 11.2075 16.1033 11.2053 16.1046 11.2048C16.1053 11.2046 16.1013 11.206 16.0904 11.206V11.3433ZM16.2222 11.2115H16.3594V11.0981H16.2222H16.0849V11.2115H16.2222ZM16.2222 11.0981V10.9608H16.0904V11.0981V11.2353H16.2222V11.0981ZM16.0904 11.0981H16.2276V10.4759H16.0904H15.9531V11.0981H16.0904ZM16.0904 10.4759V10.6131H17.375V10.4759V10.3386H16.0904V10.4759ZM17.375 10.4759H17.2378V11.3799H17.375H17.5123V10.4759H17.375ZM17.375 11.3799H17.2378C17.2378 11.6002 17.1467 11.7676 16.9523 11.8944L17.0273 12.0094L17.1023 12.1243C17.3715 11.9487 17.5123 11.6964 17.5123 11.3799H17.375ZM17.0273 12.0094L16.9523 11.8944C16.7514 12.0256 16.458 12.099 16.0575 12.099V12.2363V12.3735C16.4864 12.3735 16.8397 12.2957 17.1023 12.1243L17.0273 12.0094ZM16.0575 12.2363V12.099C15.6911 12.099 15.4076 12.0278 15.1967 11.8965L15.1242 12.013L15.0517 12.1296C15.319 12.296 15.6577 12.3735 16.0575 12.3735V12.2363ZM15.1242 12.013L15.1981 11.8974C14.9929 11.7663 14.8777 11.5912 14.8426 11.3661L14.707 11.3872L14.5714 11.4084C14.6192 11.7151 14.7821 11.9573 15.0503 12.1287L15.1242 12.013ZM14.707 11.3872L14.8428 11.3678C14.8338 11.3043 14.8255 11.219 14.8183 11.1109L14.6813 11.12L14.5444 11.1292C14.5518 11.2406 14.5606 11.3335 14.5711 11.4066L14.707 11.3872ZM14.6813 11.12L14.8185 11.1139C14.8137 11.0066 14.8113 10.8866 14.8113 10.754H14.674H14.5368C14.5368 10.8898 14.5392 11.0139 14.5442 11.1261L14.6813 11.12ZM14.674 10.754H14.8113C14.8113 10.6289 14.8137 10.5151 14.8184 10.4127L14.6813 10.4064L14.5442 10.4C14.5392 10.5074 14.5368 10.6255 14.5368 10.754H14.674ZM14.6813 10.4064L14.8183 10.4157C14.8255 10.31 14.8337 10.229 14.8426 10.171L14.707 10.1502L14.5713 10.1293C14.5607 10.1982 14.5518 10.288 14.5444 10.397L14.6813 10.4064ZM14.707 10.1502L14.8426 10.1711C14.8777 9.94391 14.9938 9.76944 15.2004 9.64084L15.1278 9.52432L15.0553 9.4078C14.7837 9.57688 14.6192 9.81964 14.5713 10.1292L14.707 10.1502ZM15.1278 9.52432L15.2004 9.64084C15.4113 9.50952 15.6937 9.43832 16.0575 9.43832V9.30107V9.16382C15.6599 9.16382 15.3226 9.24145 15.0553 9.4078L15.1278 9.52432ZM16.0575 9.30107V9.43832C16.4478 9.43832 16.737 9.51038 16.9385 9.63981L17.0127 9.52432L17.0868 9.40883C16.8248 9.24059 16.4771 9.16382 16.0575 9.16382V9.30107ZM17.0127 9.52432L16.9394 9.64036C17.1352 9.764 17.2299 9.92741 17.2379 10.1406L17.375 10.1355L17.5122 10.1304C17.5006 9.82149 17.3538 9.57743 17.086 9.40828L17.0127 9.52432ZM19.0125 10.1502V10.2874H19.1497V10.1502H19.0125ZM19.0125 9.35963V9.22238H18.8752V9.35963H19.0125ZM20.1983 9.35963H20.3355V9.22238H20.1983V9.35963ZM20.1983 12.1777V12.315H20.3355V12.1777H20.1983ZM19.0125 12.1777H18.8752V12.315H19.0125V12.1777ZM19.0125 11.2701H19.1497V11.1328H19.0125V11.2701ZM18.716 11.2701V11.1328H18.5788V11.2701H18.716ZM18.716 12.1777V12.315H18.8533V12.1777H18.716ZM17.5302 12.1777H17.393V12.315H17.5302V12.1777ZM17.5302 9.35963V9.22238H17.393V9.35963H17.5302ZM18.716 9.35963H18.8533V9.22238H18.716V9.35963ZM18.716 10.1502H18.5788V10.2874H18.716V10.1502ZM19.0125 10.1502H19.1497V9.35963H19.0125H18.8752V10.1502H19.0125ZM19.0125 9.35963V9.49687H20.1983V9.35963V9.22238H19.0125V9.35963ZM20.1983 9.35963H20.061V12.1777H20.1983H20.3355V9.35963H20.1983ZM20.1983 12.1777V12.0405H19.0125V12.1777V12.315H20.1983V12.1777ZM19.0125 12.1777H19.1497V11.2701H19.0125H18.8752V12.1777H19.0125ZM19.0125 11.2701V11.1328H18.716V11.2701V11.4073H19.0125V11.2701ZM18.716 11.2701H18.5788V12.1777H18.716H18.8533V11.2701H18.716ZM18.716 12.1777V12.0405H17.5302V12.1777V12.315H18.716V12.1777ZM17.5302 12.1777H17.6675V9.35963H17.5302H17.393V12.1777H17.5302ZM17.5302 9.35963V9.49687H18.716V9.35963V9.22238H17.5302V9.35963ZM18.716 9.35963H18.5788V10.1502H18.716H18.8533V9.35963H18.716ZM18.716 10.1502V10.2874H19.0125V10.1502V10.0129H18.716V10.1502Z" fill="#7255A8" mask="url(#path-8-outside-3_1091_962)"/>
<path d="M7.81969 21.1814L18.3858 23.2668C18.5562 23.3005 18.6735 23.4573 18.6577 23.6302L18.0361 30.4335C18.0194 30.6163 17.8601 30.7526 17.6769 30.7409L7.7324 30.1043C7.55397 30.0929 7.41509 29.9449 7.41509 29.7661V21.514C7.41509 21.3004 7.61018 21.1401 7.81969 21.1814Z" fill="#FD587C" stroke="white" stroke-width="0.169481"/>
<mask id="path-11-outside-4_1091_962" maskUnits="userSpaceOnUse" x="8.77148" y="23.5996" width="9" height="5" fill="black">
<rect fill="white" x="8.77148" y="23.5996" width="9" height="5"/>
<path d="M11.8541 26.8384C11.8151 27.0945 11.6796 27.2958 11.4479 27.4422C11.2161 27.5862 10.9123 27.6582 10.5365 27.6582C10.1608 27.6582 9.85702 27.5862 9.62523 27.4422C9.39588 27.2983 9.26046 27.0994 9.21898 26.8457C9.20922 26.7774 9.20068 26.6859 9.19336 26.5712C9.18848 26.4541 9.18605 26.3284 9.18605 26.1942C9.18605 26.0649 9.18848 25.9453 9.19336 25.8355C9.20068 25.7233 9.20922 25.6355 9.21898 25.572C9.26046 25.3036 9.3971 25.095 9.62889 24.9462C9.86068 24.7974 10.1632 24.7229 10.5365 24.7229C10.9123 24.7229 11.2161 24.7974 11.4479 24.9462C11.6796 25.0926 11.8151 25.2963 11.8541 25.5574C11.8639 25.6208 11.8712 25.7087 11.8761 25.8209C11.8834 25.9307 11.887 26.0515 11.887 26.1832C11.887 26.3223 11.8834 26.4492 11.8761 26.5639C11.8712 26.6785 11.8639 26.77 11.8541 26.8384ZM10.6354 26.67V25.7111C10.6354 25.6452 10.6024 25.6123 10.5365 25.6123C10.4707 25.6123 10.4377 25.6452 10.4377 25.7111V26.67C10.4377 26.7359 10.4707 26.7688 10.5365 26.7688C10.6024 26.7688 10.6354 26.7359 10.6354 26.67ZM12.0276 24.7815H13.2134V26.6188C13.2134 26.6261 13.2171 26.6444 13.2244 26.6737C13.2342 26.7029 13.2634 26.7176 13.3122 26.7176C13.361 26.7176 13.3891 26.7029 13.3964 26.6737C13.4062 26.6444 13.4111 26.6261 13.4111 26.6188V24.7815H14.5969V26.67C14.5969 26.8042 14.5749 26.9311 14.531 27.0506C14.4871 27.1677 14.4151 27.2727 14.3151 27.3654C14.215 27.4557 14.0796 27.5276 13.9088 27.5813C13.7404 27.6325 13.5306 27.6582 13.2793 27.6582C13.0573 27.6582 12.867 27.6313 12.7084 27.5777C12.5498 27.524 12.4205 27.4508 12.3204 27.3581C12.2204 27.2653 12.146 27.1604 12.0972 27.0433C12.0508 26.9262 12.0276 26.8042 12.0276 26.6773V24.7815ZM17.3644 24.7815V25.8685H16.6581V27.5996H15.4393V25.8685H14.7293V24.7815H17.3644Z"/>
</mask>
<path d="M11.8541 26.8384C11.8151 27.0945 11.6796 27.2958 11.4479 27.4422C11.2161 27.5862 10.9123 27.6582 10.5365 27.6582C10.1608 27.6582 9.85702 27.5862 9.62523 27.4422C9.39588 27.2983 9.26046 27.0994 9.21898 26.8457C9.20922 26.7774 9.20068 26.6859 9.19336 26.5712C9.18848 26.4541 9.18605 26.3284 9.18605 26.1942C9.18605 26.0649 9.18848 25.9453 9.19336 25.8355C9.20068 25.7233 9.20922 25.6355 9.21898 25.572C9.26046 25.3036 9.3971 25.095 9.62889 24.9462C9.86068 24.7974 10.1632 24.7229 10.5365 24.7229C10.9123 24.7229 11.2161 24.7974 11.4479 24.9462C11.6796 25.0926 11.8151 25.2963 11.8541 25.5574C11.8639 25.6208 11.8712 25.7087 11.8761 25.8209C11.8834 25.9307 11.887 26.0515 11.887 26.1832C11.887 26.3223 11.8834 26.4492 11.8761 26.5639C11.8712 26.6785 11.8639 26.77 11.8541 26.8384ZM10.6354 26.67V25.7111C10.6354 25.6452 10.6024 25.6123 10.5365 25.6123C10.4707 25.6123 10.4377 25.6452 10.4377 25.7111V26.67C10.4377 26.7359 10.4707 26.7688 10.5365 26.7688C10.6024 26.7688 10.6354 26.7359 10.6354 26.67ZM12.0276 24.7815H13.2134V26.6188C13.2134 26.6261 13.2171 26.6444 13.2244 26.6737C13.2342 26.7029 13.2634 26.7176 13.3122 26.7176C13.361 26.7176 13.3891 26.7029 13.3964 26.6737C13.4062 26.6444 13.4111 26.6261 13.4111 26.6188V24.7815H14.5969V26.67C14.5969 26.8042 14.5749 26.9311 14.531 27.0506C14.4871 27.1677 14.4151 27.2727 14.3151 27.3654C14.215 27.4557 14.0796 27.5276 13.9088 27.5813C13.7404 27.6325 13.5306 27.6582 13.2793 27.6582C13.0573 27.6582 12.867 27.6313 12.7084 27.5777C12.5498 27.524 12.4205 27.4508 12.3204 27.3581C12.2204 27.2653 12.146 27.1604 12.0972 27.0433C12.0508 26.9262 12.0276 26.8042 12.0276 26.6773V24.7815ZM17.3644 24.7815V25.8685H16.6581V27.5996H15.4393V25.8685H14.7293V24.7815H17.3644Z" fill="#F6F0F1"/>
<path d="M11.8541 26.8384L11.9898 26.859L11.99 26.8578L11.8541 26.8384ZM11.4479 27.4422L11.5203 27.5588L11.5211 27.5583L11.4479 27.4422ZM9.62523 27.4422L9.55227 27.5585L9.55282 27.5588L9.62523 27.4422ZM9.21898 26.8457L9.08309 26.8651L9.08354 26.8678L9.21898 26.8457ZM9.19336 26.5712L9.0562 26.5769L9.0564 26.5799L9.19336 26.5712ZM9.19336 25.8355L9.05638 25.8266L9.05625 25.8295L9.19336 25.8355ZM9.21898 25.572L9.08335 25.5511L9.08333 25.5512L9.21898 25.572ZM9.62889 24.9462L9.70305 25.0617V25.0617L9.62889 24.9462ZM11.4479 24.9462L11.3737 25.0617L11.3746 25.0622L11.4479 24.9462ZM11.8541 25.5574L11.7184 25.5777L11.7184 25.5783L11.8541 25.5574ZM11.8761 25.8209L11.7389 25.8269L11.7391 25.83L11.8761 25.8209ZM11.8761 26.5639L11.7391 26.5551L11.7389 26.558L11.8761 26.5639ZM11.8541 26.8384L11.7184 26.8177C11.6858 27.032 11.5749 27.1996 11.3746 27.3262L11.4479 27.4422L11.5211 27.5583C11.7844 27.392 11.9444 27.1571 11.9898 26.859L11.8541 26.8384ZM11.4479 27.4422L11.3754 27.3256C11.1721 27.4519 10.896 27.5209 10.5365 27.5209V27.6582V27.7954C10.9286 27.7954 11.26 27.7205 11.5203 27.5588L11.4479 27.4422ZM10.5365 27.6582V27.5209C10.1771 27.5209 9.90096 27.4519 9.69764 27.3256L9.62523 27.4422L9.55282 27.5588C9.81308 27.7205 10.1445 27.7954 10.5365 27.7954V27.6582ZM9.62523 27.4422L9.69819 27.326C9.5002 27.2017 9.38918 27.0361 9.35443 26.8235L9.21898 26.8457L9.08354 26.8678C9.13174 27.1627 9.29156 27.3948 9.55227 27.5585L9.62523 27.4422ZM9.21898 26.8457L9.35485 26.8263C9.34582 26.763 9.33755 26.6756 9.33033 26.5624L9.19336 26.5712L9.0564 26.5799C9.06382 26.6962 9.07263 26.7917 9.08312 26.8651L9.21898 26.8457ZM9.19336 26.5712L9.33049 26.5655C9.3257 26.4505 9.32329 26.3268 9.32329 26.1942H9.18605H9.0488C9.0488 26.3301 9.05127 26.4576 9.05624 26.5769L9.19336 26.5712ZM9.18605 26.1942H9.32329C9.32329 26.0666 9.3257 25.9491 9.33047 25.8416L9.19336 25.8355L9.05625 25.8295C9.05127 25.9416 9.0488 26.0632 9.0488 26.1942H9.18605ZM9.19336 25.8355L9.33032 25.8445C9.33754 25.7338 9.34577 25.6505 9.35463 25.5929L9.21898 25.572L9.08333 25.5512C9.07268 25.6204 9.06383 25.7129 9.05641 25.8266L9.19336 25.8355ZM9.21898 25.572L9.35462 25.593C9.38999 25.3641 9.5038 25.1896 9.70305 25.0617L9.62889 24.9462L9.55474 24.8307C9.2904 25.0004 9.13093 25.2432 9.08335 25.5511L9.21898 25.572ZM9.62889 24.9462L9.70305 25.0617C9.90615 24.9313 10.1805 24.8602 10.5365 24.8602V24.7229V24.5857C10.146 24.5857 9.81521 24.6635 9.55474 24.8307L9.62889 24.9462ZM10.5365 24.7229V24.8602C10.8953 24.8602 11.1707 24.9313 11.3737 25.0617L11.4479 24.9462L11.522 24.8307C11.2614 24.6634 10.9293 24.5857 10.5365 24.5857V24.7229ZM11.4479 24.9462L11.3746 25.0622C11.5741 25.1883 11.6855 25.3578 11.7184 25.5777L11.8541 25.5574L11.9898 25.5371C11.9446 25.2348 11.7852 24.9969 11.5211 24.8302L11.4479 24.9462ZM11.8541 25.5574L11.7184 25.5783C11.7271 25.6344 11.7341 25.7165 11.7389 25.8269L11.8761 25.8209L12.0132 25.8149C12.0082 25.7008 12.0006 25.6072 11.9897 25.5365L11.8541 25.5574ZM11.8761 25.8209L11.7391 25.83C11.7462 25.9363 11.7498 26.054 11.7498 26.1832H11.887H12.0243C12.0243 26.049 12.0206 25.9251 12.013 25.8118L11.8761 25.8209ZM11.887 26.1832H11.7498C11.7498 26.32 11.7462 26.4439 11.7391 26.5551L11.8761 26.5639L12.013 26.5726C12.0206 26.4545 12.0243 26.3246 12.0243 26.1832H11.887ZM11.8761 26.5639L11.7389 26.558C11.7341 26.6707 11.7271 26.7571 11.7182 26.8189L11.8541 26.8384L11.99 26.8578C12.0006 26.783 12.0082 26.6864 12.0132 26.5697L11.8761 26.5639ZM10.6354 26.67H10.7726V25.7111H10.6354H10.4981V26.67H10.6354ZM10.6354 25.7111H10.7726C10.7726 25.657 10.759 25.5912 10.7077 25.54C10.6564 25.4887 10.5906 25.475 10.5365 25.475V25.6123V25.7495C10.5483 25.7495 10.532 25.7524 10.5136 25.734C10.4953 25.7157 10.4981 25.6993 10.4981 25.7111H10.6354ZM10.5365 25.6123V25.475C10.4824 25.475 10.4167 25.4887 10.3654 25.54C10.3141 25.5912 10.3005 25.657 10.3005 25.7111H10.4377H10.575C10.575 25.6993 10.5778 25.7157 10.5595 25.734C10.5411 25.7524 10.5248 25.7495 10.5365 25.7495V25.6123ZM10.4377 25.7111H10.3005V26.67H10.4377H10.575V25.7111H10.4377ZM10.4377 26.67H10.3005C10.3005 26.7241 10.3141 26.7899 10.3654 26.8412C10.4167 26.8924 10.4824 26.9061 10.5365 26.9061V26.7688V26.6316C10.5248 26.6316 10.5411 26.6287 10.5595 26.6471C10.5778 26.6654 10.575 26.6818 10.575 26.67H10.4377ZM10.5365 26.7688V26.9061C10.5906 26.9061 10.6564 26.8924 10.7077 26.8412C10.759 26.7899 10.7726 26.7241 10.7726 26.67H10.6354H10.4981C10.4981 26.6818 10.4953 26.6654 10.5136 26.6471C10.532 26.6287 10.5483 26.6316 10.5365 26.6316V26.7688ZM12.0276 24.7815V24.6443H11.8904V24.7815H12.0276ZM13.2134 24.7815H13.3507V24.6443H13.2134V24.7815ZM13.2244 26.6737L13.0909 26.707L13.0942 26.7171L13.2244 26.6737ZM13.3964 26.6737L13.2658 26.6301L13.2633 26.6404L13.3964 26.6737ZM13.4111 24.7815V24.6443H13.2738V24.7815H13.4111ZM14.5969 24.7815H14.7341V24.6443H14.5969V24.7815ZM14.531 27.0506L14.6595 27.0988L14.6598 27.098L14.531 27.0506ZM14.3151 27.3654L14.407 27.4673L14.4083 27.466L14.3151 27.3654ZM13.9088 27.5813L13.9488 27.7126L13.95 27.7122L13.9088 27.5813ZM12.3204 27.3581L12.2271 27.4587V27.4587L12.3204 27.3581ZM12.0972 27.0433L11.9695 27.0938L11.9705 27.0961L12.0972 27.0433ZM12.0276 24.7815V24.9187H13.2134V24.7815V24.6443H12.0276V24.7815ZM13.2134 24.7815H13.0762V26.6188H13.2134H13.3507V24.7815H13.2134ZM13.2134 26.6188H13.0762C13.0762 26.6377 13.0799 26.6564 13.0816 26.6649C13.084 26.6771 13.0873 26.6913 13.0913 26.7069L13.2244 26.6737L13.3576 26.6404C13.3541 26.6267 13.352 26.6172 13.3508 26.6111C13.3501 26.608 13.35 26.6068 13.35 26.6069C13.35 26.607 13.3501 26.608 13.3503 26.6096C13.3504 26.611 13.3507 26.6143 13.3507 26.6188H13.2134ZM13.2244 26.6737L13.0942 26.7171C13.1328 26.8328 13.2445 26.8548 13.3122 26.8548V26.7176V26.5803C13.2996 26.5803 13.3036 26.5781 13.3151 26.5838C13.3216 26.5871 13.33 26.5927 13.338 26.6017C13.3461 26.6108 13.3515 26.6209 13.3546 26.6303L13.2244 26.6737ZM13.3122 26.7176V26.8548C13.3479 26.8548 13.392 26.8499 13.4334 26.8283C13.4803 26.8038 13.5159 26.7617 13.5296 26.7069L13.3964 26.6737L13.2633 26.6404C13.2659 26.6298 13.2712 26.6179 13.2802 26.6068C13.289 26.5958 13.2987 26.5889 13.3064 26.5849C13.3198 26.5779 13.3254 26.5803 13.3122 26.5803V26.7176ZM13.3964 26.6737L13.5266 26.7171C13.5319 26.7012 13.5365 26.6863 13.54 26.6733C13.5422 26.6653 13.5483 26.6427 13.5483 26.6188H13.4111H13.2738C13.2738 26.6125 13.2743 26.6078 13.2746 26.6055C13.2749 26.603 13.2752 26.6013 13.2753 26.6006C13.2755 26.5995 13.2755 26.5999 13.2748 26.6026C13.2734 26.6079 13.2707 26.6168 13.2662 26.6303L13.3964 26.6737ZM13.4111 26.6188H13.5483V24.7815H13.4111H13.2738V26.6188H13.4111ZM13.4111 24.7815V24.9187H14.5969V24.7815V24.6443H13.4111V24.7815ZM14.5969 24.7815H14.4596V26.67H14.5969H14.7341V24.7815H14.5969ZM14.5969 26.67H14.4596C14.4596 26.7889 14.4402 26.8997 14.4022 27.0033L14.531 27.0506L14.6598 27.098C14.7096 26.9624 14.7341 26.8195 14.7341 26.67H14.5969ZM14.531 27.0506L14.4025 27.0024C14.3667 27.0978 14.3076 27.1852 14.2218 27.2647L14.3151 27.3654L14.4083 27.466C14.5226 27.3601 14.6074 27.2377 14.6595 27.0988L14.531 27.0506ZM14.3151 27.3654L14.2231 27.2635C14.1417 27.337 14.0255 27.4008 13.8677 27.4504L13.9088 27.5813L13.95 27.7122C14.1337 27.6545 14.2883 27.5744 14.407 27.4673L14.3151 27.3654ZM13.9088 27.5813L13.8688 27.45C13.7177 27.496 13.5224 27.5209 13.2793 27.5209V27.6582V27.7954C13.5389 27.7954 13.7632 27.7691 13.9488 27.7126L13.9088 27.5813ZM13.2793 27.6582V27.5209C13.0677 27.5209 12.893 27.4953 12.7524 27.4476L12.7084 27.5777L12.6644 27.7077C12.8409 27.7674 13.0469 27.7954 13.2793 27.7954V27.6582ZM12.7084 27.5777L12.7524 27.4476C12.608 27.3988 12.4967 27.3343 12.4137 27.2574L12.3204 27.3581L12.2271 27.4587C12.3442 27.5672 12.4915 27.6492 12.6644 27.7077L12.7084 27.5777ZM12.3204 27.3581L12.4137 27.2574C12.327 27.177 12.2645 27.0881 12.2239 26.9905L12.0972 27.0433L11.9705 27.0961C12.0274 27.2327 12.1138 27.3536 12.2271 27.4587L12.3204 27.3581ZM12.0972 27.0433L12.2248 26.9928C12.1848 26.8919 12.1649 26.787 12.1649 26.6773H12.0276H11.8904C11.8904 26.8214 11.9168 26.9605 11.9696 27.0938L12.0972 27.0433ZM12.0276 26.6773H12.1649V24.7815H12.0276H11.8904V26.6773H12.0276ZM17.3644 24.7815H17.5017V24.6443H17.3644V24.7815ZM17.3644 25.8685V26.0057H17.5017V25.8685H17.3644ZM16.6581 25.8685V25.7312H16.5208V25.8685H16.6581ZM16.6581 27.5996V27.7369H16.7953V27.5996H16.6581ZM15.4393 27.5996H15.3021V27.7369H15.4393V27.5996ZM15.4393 25.8685H15.5766V25.7312H15.4393V25.8685ZM14.7293 25.8685H14.5921V26.0057H14.7293V25.8685ZM14.7293 24.7815V24.6443H14.5921V24.7815H14.7293ZM17.3644 24.7815H17.2272V25.8685H17.3644H17.5017V24.7815H17.3644ZM17.3644 25.8685V25.7312H16.6581V25.8685V26.0057H17.3644V25.8685ZM16.6581 25.8685H16.5208V27.5996H16.6581H16.7953V25.8685H16.6581ZM16.6581 27.5996V27.4624H15.4393V27.5996V27.7369H16.6581V27.5996ZM15.4393 27.5996H15.5766V25.8685H15.4393H15.3021V27.5996H15.4393ZM15.4393 25.8685V25.7312H14.7293V25.8685V26.0057H15.4393V25.8685ZM14.7293 25.8685H14.8665V24.7815H14.7293H14.5921V25.8685H14.7293ZM14.7293 24.7815V24.9187H17.3644V24.7815V24.6443H14.7293V24.7815Z" fill="#FE547C" mask="url(#path-11-outside-4_1091_962)"/>
</g>
<defs>
<clipPath id="clip0_1091_962">
<rect width="26.0576" height="32.625" rx="0.847403" fill="white"/>
</clipPath>
</defs>
</svg>
