<svg width="24" height="24" viewBox="0 0 24 24" fill="none" xmlns="http://www.w3.org/2000/svg">
<path d="M21.3647 6.5769L18.3623 8.32468L17.2868 8.95208L15.0462 10.2068L12.4918 11.6856L11.9989 11.9994L2.63281 6.5769L5.63526 4.82912L8.23446 3.39503L10.4303 2.09557L11.5058 1.46811L11.9989 1.19922L21.3647 6.5769Z" fill="#DADFFF"/>
<path d="M11.9989 12.0006V22.8004L2.63281 17.4228V6.57812L11.9989 12.0006Z" fill="#B1B7F5"/>
<path d="M21.3658 6.57812V17.4228L12 22.8004V12.0006L21.3658 6.57812Z" fill="#8B8FC1"/>
<path opacity="0.6" d="M12.3528 12.2202L19.4494 7.71289L11.9981 11.6043L4.54688 7.71289L11.6434 12.2202L11.9981 20.1123L12.3528 12.2202Z" fill="white"/>
<g opacity="0.4">
<path d="M18.3617 8.32531L17.2862 8.95272L10.4297 2.09621L11.5052 1.46875L18.3617 8.32531Z" fill="white"/>
<path d="M15.0476 10.2082L12.4932 11.6871L5.63672 4.83058L8.23592 3.39648L15.0476 10.2082Z" fill="white"/>
</g>
<g opacity="0.2">
<path d="M11.9989 18.7229V19.5295L2.63281 15.6757V14.8242L11.9989 18.7229Z" fill="white"/>
<path d="M11.9989 14.9124V16.9739L2.63281 13.0752V11.0137L11.9989 14.9124Z" fill="white"/>
</g>
<g opacity="0.1">
<path d="M21.3658 15.6758V16.4375L12 18.1404V17.3338L21.3658 15.6758Z" fill="white"/>
</g>
</svg>
