<svg width="43" height="43" viewBox="0 0 43 43" fill="none" xmlns="http://www.w3.org/2000/svg">
<g id="Section 2">
<path d="M-15321 -783C-15321 -784.105 -15320.1 -785 -15319 -785H8933C8934.11 -785 8935 -784.105 8935 -783V214C8935 215.105 8934.11 216 8933 216H-15319C-15320.1 216 -15321 215.105 -15321 214V-783Z" fill="#444444"/>
<path d="M-15319 -785V-784H8933V-785V-786H-15319V-785ZM8935 -783H8934V214H8935H8936V-783H8935ZM8933 216V215H-15319V216V217H8933V216ZM-15321 214H-15320V-783H-15321H-15322V214H-15321ZM-15319 216V215C-15319.6 215 -15320 214.553 -15320 214H-15321H-15322C-15322 215.657 -15320.7 217 -15319 217V216ZM8935 214H8934C8934 214.552 8933.55 215 8933 215V216V217C8934.66 217 8936 215.657 8936 214H8935ZM8933 -785V-784C8933.55 -784 8934 -783.553 8934 -783H8935H8936C8936 -784.657 8934.66 -786 8933 -786V-785ZM-15319 -785V-786C-15320.7 -786 -15322 -784.657 -15322 -783H-15321H-15320C-15320 -783.552 -15319.6 -784 -15319 -784V-785Z" fill="white" fill-opacity="0.1"/>
<g id="Frame 19">
<rect x="-243" y="-655" width="615" height="770" rx="20" fill="#E9B1BA"/>
<g id="Frame 20">
<g id="heart_filled">
<path id="Vector" fill-rule="evenodd" clip-rule="evenodd" d="M13.796 5.45258C11.8945 5.73456 10.0987 6.50498 8.58404 7.68858C7.64475 8.46277 6.80252 9.34771 6.07571 10.3241C3.93646 13.3395 3.10333 17.3851 3.88271 20.9989C4.88783 25.6733 8.75962 30.5287 14.5485 34.3772C17.2252 36.1582 20.366 37.6255 21.5002 37.6255C22.6343 37.6255 25.7858 36.1528 28.4518 34.3772C32.8808 31.4264 36.1255 27.9846 37.9172 24.3314C39.1105 21.8983 39.562 19.6766 39.3595 17.2256C39.1965 15.2548 38.7933 13.7892 37.9423 12.0764C37.2435 10.6699 36.6505 9.84575 35.5128 8.70267C33.8609 7.04537 32.0567 6.03308 29.9371 5.578C28.8836 5.35225 27.0812 5.35404 26.0187 5.58158C24.6177 5.88258 23.4513 6.39679 22.1631 7.28367L21.5002 7.74054L20.8372 7.28367C19.0169 6.03129 17.331 5.46333 15.2652 5.40958C14.775 5.39369 14.2844 5.40805 13.796 5.45258Z" fill="white"/>
</g>
</g>
</g>
</g>
</svg>
