<svg width="160" height="201" viewBox="0 0 160 201" fill="none" xmlns="http://www.w3.org/2000/svg">
<rect width="160" height="200.325" rx="5.20325" fill="#E9B1BA"/>
<path fill-rule="evenodd" clip-rule="evenodd" d="M66.81 171.827C66.3153 171.901 65.8481 172.101 65.454 172.409C65.2097 172.61 64.9905 172.841 64.8015 173.095C64.2449 173.879 64.0282 174.932 64.2309 175.872C64.4924 177.088 65.4997 178.351 67.0058 179.352C67.7021 179.816 68.5193 180.197 68.8143 180.197C69.1094 180.197 69.9293 179.814 70.6229 179.352C71.7751 178.585 72.6193 177.689 73.0854 176.739C73.3959 176.106 73.5133 175.528 73.4607 174.89C73.4182 174.377 73.3134 173.996 73.0919 173.551C72.9102 173.185 72.7559 172.97 72.4599 172.673C72.0301 172.242 71.5607 171.978 71.0093 171.86C70.7352 171.801 70.2663 171.802 69.9899 171.861C69.6254 171.939 69.3219 172.073 68.9868 172.304L68.8143 172.423L68.6419 172.304C68.1683 171.978 67.7296 171.83 67.1922 171.816C67.0647 171.812 66.937 171.816 66.81 171.827Z" fill="white"/>
<path fill-rule="evenodd" clip-rule="evenodd" d="M77.9975 171.827C77.5028 171.901 77.0356 172.101 76.6415 172.409C76.3972 172.61 76.178 172.841 75.989 173.095C75.4324 173.879 75.2157 174.932 75.4184 175.872C75.6799 177.088 76.6872 178.351 78.1933 179.352C78.8896 179.816 79.7068 180.197 80.0018 180.197C80.2969 180.197 81.1168 179.814 81.8104 179.352C82.9626 178.585 83.8068 177.689 84.2729 176.739C84.5834 176.106 84.7008 175.528 84.6482 174.89C84.6057 174.377 84.5009 173.996 84.2794 173.551C84.0977 173.185 83.9434 172.97 83.6474 172.673C83.2176 172.242 82.7482 171.978 82.1968 171.86C81.9227 171.801 81.4538 171.802 81.1774 171.861C80.8129 171.939 80.5094 172.073 80.1743 172.304L80.0018 172.423L79.8294 172.304C79.3558 171.978 78.9171 171.83 78.3797 171.816C78.2522 171.812 78.1245 171.816 77.9975 171.827Z" fill="white"/>
<path fill-rule="evenodd" clip-rule="evenodd" d="M89.183 171.827C88.6883 171.901 88.2211 172.101 87.8271 172.409C87.5827 172.61 87.3636 172.841 87.1745 173.095C86.6179 173.879 86.4012 174.932 86.604 175.872C86.8655 177.088 87.8728 178.351 89.3788 179.352C90.0752 179.816 90.8923 180.197 91.1874 180.197C91.4824 180.197 92.3023 179.814 92.9959 179.352C94.1482 178.585 94.9923 177.689 95.4585 176.739C95.7689 176.106 95.8864 175.528 95.8337 174.89C95.7913 174.377 95.6864 173.996 95.465 173.551C95.2832 173.185 95.1289 172.97 94.8329 172.673C94.4032 172.242 93.9338 171.978 93.3823 171.86C93.1083 171.801 92.6393 171.802 92.3629 171.861C91.9984 171.939 91.695 172.073 91.3598 172.304L91.1874 172.423L91.0149 172.304C90.5413 171.978 90.1027 171.83 89.5653 171.816C89.4377 171.812 89.3101 171.816 89.183 171.827Z" fill="white"/>
</svg>
