<svg width="615" height="770" viewBox="0 0 615 770" fill="none" xmlns="http://www.w3.org/2000/svg">
<rect width="615" height="770" rx="20" fill="#E9B1BA"/>
<path fill-rule="evenodd" clip-rule="evenodd" d="M256.796 660.453C254.895 660.735 253.099 661.505 251.584 662.689C250.645 663.463 249.803 664.348 249.076 665.324C246.936 668.339 246.103 672.385 246.883 675.999C247.888 680.673 251.76 685.529 257.548 689.377C260.225 691.158 263.366 692.626 264.5 692.626C265.634 692.626 268.786 691.153 271.452 689.377C275.881 686.426 279.126 682.985 280.917 679.331C282.11 676.898 282.562 674.677 282.36 672.226C282.196 670.255 281.793 668.789 280.942 667.076C280.244 665.67 279.65 664.846 278.513 663.703C276.861 662.045 275.057 661.033 272.937 660.578C271.884 660.352 270.081 660.354 269.019 660.582C267.618 660.883 266.451 661.397 265.163 662.284L264.5 662.741L263.837 662.284C262.017 661.031 260.331 660.463 258.265 660.41C257.775 660.394 257.284 660.408 256.796 660.453Z" fill="white"/>
<path fill-rule="evenodd" clip-rule="evenodd" d="M299.796 660.453C297.895 660.735 296.099 661.505 294.584 662.689C293.645 663.463 292.803 664.348 292.076 665.324C289.936 668.339 289.103 672.385 289.883 675.999C290.888 680.673 294.76 685.529 300.548 689.377C303.225 691.158 306.366 692.626 307.5 692.626C308.634 692.626 311.786 691.153 314.452 689.377C318.881 686.426 322.126 682.985 323.917 679.331C325.11 676.898 325.562 674.677 325.36 672.226C325.196 670.255 324.793 668.789 323.942 667.076C323.244 665.67 322.65 664.846 321.513 663.703C319.861 662.045 318.057 661.033 315.937 660.578C314.884 660.352 313.081 660.354 312.019 660.582C310.618 660.883 309.451 661.397 308.163 662.284L307.5 662.741L306.837 662.284C305.017 661.031 303.331 660.463 301.265 660.41C300.775 660.394 300.284 660.408 299.796 660.453Z" fill="white"/>
<path fill-rule="evenodd" clip-rule="evenodd" d="M342.796 660.453C340.895 660.735 339.099 661.505 337.584 662.689C336.645 663.463 335.803 664.348 335.076 665.324C332.936 668.339 332.103 672.385 332.883 675.999C333.888 680.673 337.76 685.529 343.548 689.377C346.225 691.158 349.366 692.626 350.5 692.626C351.634 692.626 354.786 691.153 357.452 689.377C361.881 686.426 365.126 682.985 366.917 679.331C368.11 676.898 368.562 674.677 368.36 672.226C368.196 670.255 367.793 668.789 366.942 667.076C366.244 665.67 365.65 664.846 364.513 663.703C362.861 662.045 361.057 661.033 358.937 660.578C357.884 660.352 356.081 660.354 355.019 660.582C353.618 660.883 352.451 661.397 351.163 662.284L350.5 662.741L349.837 662.284C348.017 661.031 346.331 660.463 344.265 660.41C343.775 660.394 343.284 660.408 342.796 660.453Z" fill="white"/>
</svg>
