<svg width="151" height="196" viewBox="0 0 151 196" fill="none" xmlns="http://www.w3.org/2000/svg">
<rect x="0.140625" y="0.140625" width="150" height="195" rx="4.87805" fill="black"/>
<rect x="0.140625" y="0.140625" width="150" height="195" rx="4.87805" stroke="#666666" stroke-width="0.280172"/>
<path d="M38.1201 89.8274C38.3095 90.9578 39.3037 91.5338 40.3298 91.1075C40.3298 91.1075 51.084 86.6391 57.9294 85.8263C63.9397 85.5878 69.6365 86.2529 75.7162 86.4254C85.1648 87.2599 100.74 81.045 100.74 81.045C101.772 80.6334 102.461 79.3719 102.271 78.2415L96.1254 41.5545C95.936 40.4241 94.9373 39.8358 93.9058 40.2474C93.9058 40.2474 78.3303 46.4623 68.8817 45.6278C62.8021 45.4553 57.1053 44.7902 51.0949 45.0287C44.2496 45.8415 33.4954 50.3099 33.4954 50.3099C32.4696 50.7361 31.7849 52.01 31.9742 53.1404L38.1201 89.8274Z" fill="#DA2E2B"/>
<path d="M50.0009 161.203C48.4279 161.49 46.9315 160.391 46.6588 158.751L28.447 49.1996C28.1743 47.5587 29.2283 45.9964 30.8013 45.7102C32.3744 45.4239 33.8707 46.522 34.1435 48.1628L52.3553 157.714C52.628 159.354 51.574 160.917 50.0009 161.203Z" fill="#E8E8E8"/>
<path d="M123.952 97.3562C123.763 96.2258 122.769 95.6498 121.742 96.0761C121.742 96.0761 110.988 100.545 104.143 101.357C98.1325 101.596 92.4357 100.931 86.3561 100.758C76.9075 99.9237 61.332 106.139 61.332 106.139C60.3005 106.55 59.6117 107.812 59.8011 108.942L65.9469 145.629C66.1363 146.76 67.135 147.348 68.1665 146.936C68.1665 146.936 83.7419 140.721 93.1906 141.556C99.2702 141.728 104.967 142.393 110.977 142.155C117.823 141.342 128.577 136.874 128.577 136.874C129.603 136.448 130.287 135.174 130.098 134.043L123.952 97.3562Z" fill="#08AD68"/>
<path d="M112.077 25.9782C113.65 25.6919 115.147 26.7904 115.419 28.4309L133.631 137.982C133.904 139.623 132.85 141.185 131.277 141.471C129.704 141.758 128.207 140.66 127.935 139.019L109.723 29.4676C109.45 27.8272 110.504 26.2645 112.077 25.9782Z" fill="#E8E8E8"/>
</svg>
