<svg id="Layer_1" enable-background="new 0 0 512 512" height="512" viewBox="0 0 512 512" width="512" xmlns="http://www.w3.org/2000/svg"><g><path d="m215.149 413.779c-9.666 5.58-16.91 10.25-16.91 10.25s0 12.104 0 13.323c0 8.529 5.638 17.062 16.91 23.569 22.547 13.019 59.106 13.019 81.657 0 11.274-6.51 16.909-15.044 16.909-23.575 0-1.199 0-12.268 0-12.268s-7.223-5.706-16.909-11.3c-22.55-13.02-59.109-13.02-81.657.001z" fill="#4a4a4a"/><g><path d="m325.017 394.587c-.199.329-.372.711-.575 1.032-3.944 6.245-9.702 12.327-17.043 14.078-2.068 4.731-6.624 9.349-13.898 13.551-20.322 11.731-53.269 9.113-73.591-2.62-5.728-3.306-9.636-6.665-12.131-10.043-.432-.044-.856-.062-1.287-.108-3.378-.368-7.756-1.107-10.055-3.991-3.087-3.872-5.649-9.306-8.521-14.44-.118-.037-.239-.064-.357-.101-2.828-.891-4.705-3.963-7.434-5.112-1.265 6.562-2.559 17.226.615 26.565.791 2.813 2.053 5.588 3.784 8.288.048.084.089.168.139.25.092.144.206.285.301.426.319.473.656.943 1.004 1.412.174.235.349.471.53.706.485.62.996 1.234 1.531 1.843.059.067.115.137.175.205 3.564 4.009 8.244 7.773 14.059 11.132 30.067 17.359 78.813 17.359 108.879 0 7.991-4.614 13.859-9.99 17.603-15.724 6.007-10.181 5.515-26.037 4.721-34.111-3.293.182-5.195 6.234-8.449 6.762z" fill="#b4b4b4"/><path d="m328.565 374.955c-3.751-5.631-9.557-10.91-17.422-15.451-30.065-17.358-78.812-17.358-108.879 0-14.108 8.146-21.529 18.663-22.381 29.329-.009.067-.032.107-.039.176-.047.769.037 1.537.057 2.306.011.694-.05 1.387.016 2.08.012.004.024.008.036.012 1.13 10.414 8.525 20.639 22.31 28.596 30.067 17.359 78.813 17.359 108.879 0 10.266-5.927 17.026-13.111 20.282-20.694.616-1.435 1.059-2.886 1.411-4.344.036-.004.063-.014.099-.019.123-.522.109-1.05.2-1.573.107-.588.262-1.174.332-1.764.009-.309-.009-.518-.004-.811.452-6.043-1.086-12.121-4.897-17.843z" fill="#e8e8e8"/></g><g><path d="m327.456 367.62c-.207.34-.386.736-.596 1.068-4.085 6.467-10.048 12.765-17.649 14.578-2.142 4.9-6.859 9.682-14.392 14.032-21.044 12.148-55.16 9.437-76.204-2.712-5.931-3.424-9.978-6.901-12.561-10.399-.447-.046-.886-.065-1.333-.112-3.498-.381-8.031-1.146-10.412-4.132-3.197-4.009-5.851-9.636-8.824-14.953-.123-.038-.248-.066-.37-.104-2.928-.923-4.871-4.104-7.697-5.294-1.31 6.795-2.65 17.838.637 27.509.819 2.914 2.125 5.787 3.919 8.583.05.087.093.173.144.259.095.149.213.295.312.441.331.49.679.977 1.04 1.462.181.245.362.488.55.731.502.642 1.031 1.277 1.585 1.909.061.07.118.142.181.213 3.691 4.151 8.537 8.049 14.559 11.527 31.134 17.975 81.612 17.975 112.746 0 8.275-4.778 14.351-10.345 18.227-16.282 6.22-10.542 5.711-26.961 4.888-35.322-3.411.185-5.38 6.451-8.75 6.998z" fill="#b4b4b4"/><path d="m331.129 347.291c-3.884-5.831-9.896-11.297-18.04-16-31.134-17.974-81.611-17.974-112.745 0-14.61 8.436-22.294 19.327-23.177 30.371-.009.07-.033.11-.04.182-.049.796.037 1.591.06 2.388.011.718-.052 1.437.016 2.154.013.004.025.008.038.012 1.17 10.783 8.828 21.371 23.103 29.612 31.134 17.976 81.612 17.976 112.745 0 10.63-6.138 17.631-13.577 21.002-21.428.638-1.486 1.097-2.989 1.461-4.499.037-.005.066-.015.103-.019.127-.541.113-1.087.207-1.63.11-.609.271-1.215.343-1.826.01-.321-.009-.538-.004-.841.467-6.257-1.126-12.551-5.072-18.476z" fill="#f0f0f0"/></g><path d="m330.099 272.269c-20.226-11.676-46.831-17.395-73.34-17.216-26.508-.179-53.113 5.54-73.339 17.216-17.662 10.199-27.495 23.206-29.497 36.53-.255 1.702-1.634 16.056 4.207 32.496 3.299 9.544 8.774 27.652 31.025 40.194 19.298 10.878 43.362 16.605 67.604 16.509 24.242.095 48.306-5.632 67.604-16.509 22.251-12.542 26.179-27.196 30.137-41.389 1.078-3.868 2.513-11.606 3.477-17.895 1.063-9.434-.095-15.452-1.092-18.416-4.055-12.06-12.928-23.518-26.786-31.52z" fill="#cbe9ed"/><path d="m326.725 272.44c-38.79-22.395-101.68-22.395-140.469 0-38.79 22.395-38.79 58.704 0 81.1 38.789 22.395 101.679 22.395 140.469 0 38.789-22.395 38.789-58.705 0-81.1z" fill="#e5f2f4"/><g><path d="m286.263 288.395c-41.057 6.357-43.707 34.142-43.707 46.687s31.898 12.366 31.898 0c0-24.372 55.517-46.687 55.517-46.687s-2.651-6.357-43.708 0z" fill="#ffffe6"/><g><path d="m194.518 193.212c-.192.107-2.758 14.837-4.118 15.719-6.329 4.094-10.958 5.737-14.405 6.244 3.109 4.085 5.634 8.784 8.652 13.219 3.667 5.388 6.629 8.94 10.965 10.935 1.298-6.096 5.873-12.266 14.204-18.1l-.003-.006c.698-.482 1.42-.966 2.167-1.449 23.45-15.176 68.519-5.381 90.661 11.646 9.038 6.95 13.776 13.98 14.724 20.623 6.851-2.212 12.43-9.516 15.874-14.991 2.66-4.227 5.514-8.717 8.142-13.335-3.255-2.431-7.996-6.019-15.017-11.418-31.303-24.075-96.803-38.883-131.846-19.087z" fill="#fff093"/><path d="m337.461 249.01c-5.633 6.751-13.38 13.026-22.318 13.944-3.18 5.258-9.28 9.996-18.52 13.812-25.817 10.662-57.61-1.7-82.478-14.42-7.009-3.586-11.858-7.341-15.028-11.205-.514-.028-1.021-.024-1.536-.053-4.038-.233-9.286-.846-12.194-4.135-6.703-7.581-11.813-20.76-19.883-27.974-2.105 7.731-4.387 21.985 1.638 37.139 1.111 3.297 2.779 6.519 5 9.624.063.096.117.193.18.289.119.164.262.324.385.487.408.543.836 1.082 1.278 1.618.223.27.443.539.674.807.613.708 1.258 1.407 1.931 2.098.075.077.143.156.221.233 4.48 4.551 10.27 8.744 17.388 12.385 36.79 18.82 82.79 28.652 120.986 12.877 10.152-4.192 17.918-9.617 23.233-15.796 14.594-18.612 12.179-39.507 10.259-48.259-3.417 5.988-7.2 11.715-11.216 16.529z" fill="#fff5b5"/><path d="m327.673 202.44c-32.759-25.192-103.6-36.033-138.293-13.58-34.694 22.452-32.994 55.909 3.797 74.729 36.792 18.82 86.455 28.801 124.651 13.026 13.042-5.386 22.145-12.805 27.174-21.243 5.846-9.811 6.186-20.999.81-31.973-3.544-7.231-9.57-14.369-18.139-20.959zm-28.919 59.507c-25.914 10.702-60.416 1.337-85.376-11.431-24.96-12.767-26.114-35.466-2.577-50.699 23.537-15.232 72.407-5.284 94.633 11.807 22.223 17.091 19.232 39.622-6.68 50.323z" fill="#ffffe6"/></g><g><path d="m194.518 148.101c-.192.108-2.758 14.838-4.118 15.719-6.329 4.095-10.958 5.737-14.405 6.244 3.109 4.084 5.634 8.785 8.652 13.218 3.667 5.389 6.629 8.941 10.965 10.936 1.298-6.096 5.873-12.266 14.204-18.101l-.003-.007c.698-.482 1.42-.965 2.167-1.449 23.45-15.176 68.519-5.381 90.661 11.646 9.038 6.95 13.776 13.981 14.724 20.622 6.851-2.211 12.43-9.515 15.874-14.99 2.66-4.227 5.514-8.717 8.142-13.335-3.255-2.432-7.996-6.018-15.017-11.418-31.303-24.072-96.803-38.88-131.846-19.085z" fill="#fff093"/><path d="m337.461 203.899c-5.633 6.751-13.38 13.026-22.318 13.944-3.18 5.259-9.28 9.996-18.52 13.812-25.817 10.662-57.61-1.7-82.478-14.421-7.009-3.585-11.858-7.34-15.028-11.204-.514-.028-1.021-.024-1.536-.053-4.038-.233-9.286-.847-12.194-4.135-6.703-7.581-11.813-20.76-19.883-27.974-2.105 7.73-4.387 21.984 1.638 37.139 1.111 3.297 2.779 6.519 5 9.625.063.095.117.193.18.289.119.164.262.324.385.487.408.543.836 1.082 1.278 1.618.223.27.443.54.674.807.613.707 1.258 1.406 1.931 2.098.075.077.143.155.221.232 4.48 4.551 10.27 8.743 17.388 12.385 36.79 18.819 82.79 28.652 120.986 12.877 10.152-4.192 17.918-9.618 23.233-15.796 14.594-18.612 12.179-39.508 10.259-48.26-3.417 5.989-7.2 11.716-11.216 16.53z" fill="#fff5b5"/><path d="m327.673 157.329c-32.759-25.192-103.6-36.033-138.293-13.58-34.694 22.452-32.994 55.909 3.797 74.729 36.792 18.82 86.455 28.801 124.651 13.026 13.042-5.386 22.145-12.805 27.174-21.242 5.846-9.811 6.186-20.999.81-31.973-3.544-7.232-9.57-14.37-18.139-20.96zm-28.919 59.508c-25.914 10.701-60.416 1.336-85.376-11.431-24.96-12.768-26.114-35.467-2.577-50.699s72.407-5.283 94.633 11.808c22.223 17.09 19.232 39.62-6.68 50.322z" fill="#ffffe6"/></g><g><path d="m194.518 102.991c-.192.108-2.758 14.838-4.118 15.719-6.329 4.095-10.958 5.737-14.405 6.244 3.109 4.085 5.634 8.784 8.652 13.219 3.667 5.389 6.629 8.94 10.965 10.935 1.298-6.096 5.873-12.265 14.204-18.1l-.003-.006c.698-.482 1.42-.966 2.167-1.449 23.45-15.176 68.519-5.382 90.661 11.646 9.038 6.95 13.776 13.981 14.724 20.622 6.851-2.211 12.43-9.515 15.874-14.99 2.66-4.228 5.514-8.717 8.142-13.335-3.255-2.432-7.996-6.019-15.017-11.419-31.303-24.074-96.803-38.881-131.846-19.086z" fill="#fff093"/><path d="m337.461 158.789c-5.633 6.751-13.38 13.025-22.318 13.944-3.18 5.258-9.28 9.996-18.52 13.812-25.817 10.663-57.61-1.7-82.478-14.42-7.009-3.585-11.858-7.341-15.028-11.205-.514-.028-1.021-.023-1.536-.053-4.038-.233-9.286-.847-12.194-4.135-6.703-7.581-11.813-20.76-19.883-27.973-2.105 7.73-4.387 21.984 1.638 37.139 1.111 3.297 2.779 6.519 5 9.625.063.096.117.193.18.289.119.165.262.325.385.488.408.542.836 1.082 1.278 1.617.223.27.443.54.674.807.613.708 1.258 1.407 1.931 2.098.075.077.143.156.221.233 4.48 4.551 10.27 8.744 17.388 12.385 36.79 18.82 82.79 28.652 120.986 12.878 10.152-4.193 17.918-9.618 23.233-15.796 14.594-18.612 12.179-39.508 10.259-48.26-3.417 5.985-7.2 11.712-11.216 16.527z" fill="#fff5b5"/><path d="m327.673 112.219c-32.759-25.192-103.6-36.033-138.293-13.58-34.694 22.452-32.994 55.909 3.797 74.729 36.792 18.82 86.455 28.801 124.651 13.026 13.042-5.386 22.145-12.805 27.174-21.243 5.846-9.81 6.186-20.998.81-31.972-3.544-7.232-9.57-14.371-18.139-20.96zm-28.919 59.507c-25.914 10.701-60.416 1.336-85.376-11.432-24.96-12.767-26.114-35.466-2.577-50.699 23.537-15.232 72.407-5.283 94.633 11.807 22.223 17.092 19.232 39.622-6.68 50.324z" fill="#ffffe6"/></g><g><path d="m194.518 57.88c-.192.107-2.758 14.838-4.118 15.719-6.329 4.095-10.958 5.737-14.405 6.244 3.109 4.085 5.634 8.784 8.652 13.219 3.667 5.389 6.629 8.94 10.965 10.935 1.298-6.096 5.873-12.266 14.204-18.1l-.003-.007c.698-.482 1.42-.965 2.167-1.449 23.45-15.176 68.519-5.382 90.661 11.646 9.038 6.95 13.776 13.981 14.724 20.623 6.851-2.212 12.43-9.516 15.874-14.99 2.66-4.227 5.514-8.717 8.142-13.336-3.255-2.431-7.996-6.018-15.017-11.418-31.303-24.073-96.803-38.881-131.846-19.086z" fill="#fff093"/><path d="m337.461 113.678c-5.633 6.751-13.38 13.026-22.318 13.944-3.18 5.258-9.28 9.996-18.52 13.812-25.817 10.662-57.61-1.7-82.478-14.42-7.009-3.585-11.858-7.341-15.028-11.205-.514-.028-1.021-.024-1.536-.053-4.038-.233-9.286-.846-12.194-4.135-6.703-7.581-11.813-20.76-19.883-27.974-2.105 7.73-4.387 21.985 1.638 37.139 1.111 3.296 2.779 6.519 5 9.624.063.096.117.194.18.29.119.164.262.324.385.487.408.543.836 1.082 1.278 1.618.223.27.443.54.674.807.613.707 1.258 1.407 1.931 2.098.075.077.143.156.221.233 4.48 4.551 10.27 8.743 17.388 12.385 36.79 18.819 82.79 28.652 120.986 12.878 10.152-4.192 17.918-9.618 23.233-15.796 14.594-18.612 12.179-39.508 10.259-48.259-3.417 5.986-7.2 11.713-11.216 16.527z" fill="#fff5b5"/><path d="m327.673 67.109c-32.759-25.192-103.6-36.034-138.293-13.581-34.694 22.452-32.994 55.909 3.797 74.729 36.792 18.82 86.455 28.801 124.651 13.026 13.042-5.386 22.145-12.804 27.174-21.242 5.846-9.811 6.186-20.999.81-31.973-3.544-7.232-9.57-14.37-18.139-20.959zm-28.919 59.506c-25.914 10.702-60.416 1.337-85.376-11.431s-26.114-35.467-2.577-50.699 72.407-5.283 94.633 11.807c22.223 17.092 19.232 39.622-6.68 50.323z" fill="#ffffe6"/></g></g></g></svg>