<svg width="454" height="591" viewBox="0 0 454 591" fill="none" xmlns="http://www.w3.org/2000/svg">
<mask id="mask0_1104_2980" style="mask-type:luminance" maskUnits="userSpaceOnUse" x="0" y="0" width="454" height="591">
<path d="M428.803 590.199H25.1967C11.2818 590.199 0 578.917 0 565.002V25.1967C0 11.2818 11.2818 0 25.1967 0H428.803C442.718 0 454 11.2818 454 25.1967V565.002C453.995 578.917 442.718 590.199 428.803 590.199Z" fill="white"/>
</mask>
<g mask="url(#mask0_1104_2980)">
<path d="M428.803 590.199H25.1967C11.2818 590.199 0 578.917 0 565.002V25.1967C0 11.2818 11.2818 0 25.1967 0H428.803C442.718 0 454 11.2818 454 25.1967V565.002C453.995 578.917 442.718 590.199 428.803 590.199Z" fill="#C7C7C7"/>
</g>
<mask id="mask1_1104_2980" style="mask-type:luminance" maskUnits="userSpaceOnUse" x="0" y="0" width="454" height="591">
<path d="M428.803 590.199H25.1967C11.2818 590.199 0 578.917 0 565.002V25.1967C0 11.2818 11.2818 0 25.1967 0H428.803C442.718 0 454 11.2818 454 25.1967V565.002C453.995 578.917 442.718 590.199 428.803 590.199Z" fill="white"/>
</mask>
<g mask="url(#mask1_1104_2980)">
<path d="M428.803 4.54386C440.194 4.54386 449.46 13.8099 449.46 25.2007V565.006C449.46 576.397 440.194 585.663 428.803 585.663H25.1967C13.806 585.663 4.53996 576.397 4.53996 565.006V25.1961C4.53996 13.8054 13.806 4.53932 25.1967 4.53932L428.803 4.54386ZM428.803 0.00390625H25.1967C11.2818 0.00390625 0 11.2857 0 25.2007V565.006C0 578.921 11.2818 590.203 25.1967 590.203H428.803C442.718 590.203 454 578.921 454 565.006V25.1961C453.995 11.2812 442.718 0.00390625 428.803 0.00390625Z" fill="black"/>
<path d="M429.656 606.082L-13.8203 162.605V195.992L396.269 606.082H429.656Z" fill="black"/>
<path d="M-13.8203 37.0332V70.42L470.193 554.434V521.047L-13.8203 37.0332Z" fill="black"/>
<path d="M304.081 606.084L-13.8203 288.178V321.565L270.694 606.084H304.081Z" fill="black"/>
<path d="M178.506 606.083L-13.8203 413.752V447.139L145.123 606.083H178.506Z" fill="black"/>
<path d="M470.197 144.32L311.93 -13.9473H278.543L470.197 177.707V144.32Z" fill="black"/>
<path d="M470.194 269.895L186.352 -13.9473H152.965L470.194 303.282V269.895Z" fill="black"/>
<path d="M470.192 215.647L240.597 -13.9473H224.285L470.192 231.959V215.647Z" fill="black"/>
<path d="M470.197 18.7495L437.5 -13.9473H404.113L470.197 52.1363V18.7495Z" fill="black"/>
<path d="M470.195 90.0722L366.175 -13.9473H349.863L470.195 106.384V90.0722Z" fill="black"/>
<path d="M470.196 341.222L115.026 -13.9473H98.7188L470.196 357.53V341.222Z" fill="black"/>
<path d="M-10.5515 -13.9473H-13.8203V-0.908516L470.193 483.105V466.798L-10.5515 -13.9473Z" fill="black"/>
<path d="M470.193 606.084V592.369L-13.8203 108.355V124.668L467.596 606.084H470.193Z" fill="black"/>
<path d="M358.333 606.083L-13.8203 233.93V250.242L342.021 606.083H358.333Z" fill="black"/>
<path d="M232.758 606.084L-13.8203 359.506V375.818L216.446 606.084H232.758Z" fill="black"/>
<path d="M26.3174 606.084H52.9352L-13.8203 539.328V572.715L19.7708 606.306C21.95 606.17 24.1292 606.084 26.3174 606.084Z" fill="black"/>
<path d="M107.183 606.084L-13.8203 485.08V501.388L90.871 606.084H107.183Z" fill="black"/>
<path d="M470.195 395.47L60.7775 -13.9473H27.3906L470.195 428.857V395.47Z" fill="black"/>
<path d="M47.0612 21.1556C47.0612 23.1305 45.4586 24.7331 43.4837 24.7331C41.5089 24.7331 39.9062 23.1305 39.9062 21.1556C39.9062 19.1807 41.5089 17.5781 43.4837 17.5781C45.4586 17.5781 47.0612 19.1762 47.0612 21.1556Z" fill="black"/>
<path d="M117.464 21.1556C117.464 23.1305 115.861 24.7331 113.886 24.7331C111.911 24.7331 110.309 23.1305 110.309 21.1556C110.309 19.1807 111.911 17.5781 113.886 17.5781C115.865 17.5781 117.464 19.1762 117.464 21.1556Z" fill="black"/>
<path d="M173.495 21.1556C173.495 23.1305 171.892 24.7331 169.917 24.7331C167.942 24.7331 166.34 23.1305 166.34 21.1556C166.34 19.1807 167.942 17.5781 169.917 17.5781C171.892 17.5781 173.495 19.1762 173.495 21.1556Z" fill="black"/>
<path d="M243.182 21.1556C243.182 23.1305 241.58 24.7331 239.605 24.7331C237.63 24.7331 236.027 23.1305 236.027 21.1556C236.027 19.1807 237.63 17.5781 239.605 17.5781C241.58 17.5781 243.182 19.1762 243.182 21.1556Z" fill="black"/>
<path d="M299.932 21.1556C299.932 23.1305 298.33 24.7331 296.355 24.7331C294.38 24.7331 292.777 23.1305 292.777 21.1556C292.777 19.1807 294.38 17.5781 296.355 17.5781C298.33 17.5781 299.932 19.1762 299.932 21.1556Z" fill="black"/>
<path d="M369.3 21.1556C369.3 23.1305 367.697 24.7331 365.722 24.7331C363.747 24.7331 362.145 23.1305 362.145 21.1556C362.145 19.1807 363.747 17.5781 365.722 17.5781C367.697 17.5781 369.3 19.1762 369.3 21.1556Z" fill="black"/>
<path d="M431.639 24.7318C431.639 26.7067 430.037 28.3093 428.062 28.3093C426.087 28.3093 424.484 26.7067 424.484 24.7318C424.484 22.7569 426.087 21.1543 428.062 21.1543C430.037 21.1543 431.639 22.7569 431.639 24.7318Z" fill="black"/>
<path d="M24.9173 570.717C26.8931 570.717 28.4948 569.116 28.4948 567.14C28.4948 565.164 26.8931 563.562 24.9173 563.562C22.9415 563.562 21.3398 565.164 21.3398 567.14C21.3398 569.116 22.9415 570.717 24.9173 570.717Z" fill="black"/>
<path d="M93.7331 570.716C93.7331 572.691 92.1305 574.294 90.1556 574.294C88.1807 574.294 86.5781 572.691 86.5781 570.716C86.5781 568.741 88.1807 567.139 90.1556 567.139C92.1305 567.139 93.7331 568.741 93.7331 570.716Z" fill="black"/>
<path d="M165.21 570.716C165.21 572.691 163.607 574.294 161.632 574.294C159.657 574.294 158.055 572.691 158.055 570.716C158.055 568.741 159.657 567.139 161.632 567.139C163.612 567.139 165.21 568.741 165.21 570.716Z" fill="black"/>
<path d="M219.467 570.716C219.467 572.691 217.865 574.294 215.89 574.294C213.915 574.294 212.312 572.691 212.312 570.716C212.312 568.741 213.915 567.139 215.89 567.139C217.865 567.139 219.467 568.741 219.467 570.716Z" fill="black"/>
<path d="M292.022 570.716C292.022 572.691 290.42 574.294 288.445 574.294C286.47 574.294 284.867 572.691 284.867 570.716C284.867 568.741 286.47 567.139 288.445 567.139C290.42 567.139 292.022 568.741 292.022 570.716Z" fill="black"/>
<path d="M343.573 570.716C343.573 572.691 341.97 574.294 339.995 574.294C338.021 574.294 336.418 572.691 336.418 570.716C336.418 568.741 338.021 567.139 339.995 567.139C341.97 567.139 343.573 568.741 343.573 570.716Z" fill="black"/>
<path d="M416.581 570.716C416.581 572.691 414.978 574.294 413.003 574.294C411.028 574.294 409.426 572.691 409.426 570.716C409.426 568.741 411.028 567.139 413.003 567.139C414.978 567.139 416.581 568.741 416.581 570.716Z" fill="black"/>
<path d="M431.644 90.112C429.669 90.112 428.066 88.5094 428.066 86.5345C428.066 84.5596 429.669 82.957 431.644 82.957C433.619 82.957 435.221 84.5596 435.221 86.5345C435.226 88.5139 433.623 90.112 431.644 90.112Z" fill="black"/>
<path d="M431.644 160.518C429.669 160.518 428.066 158.916 428.066 156.941C428.066 154.966 429.669 153.363 431.644 153.363C433.619 153.363 435.221 154.966 435.221 156.941C435.226 158.916 433.623 160.518 431.644 160.518Z" fill="black"/>
<path d="M431.644 216.55C429.669 216.55 428.066 214.947 428.066 212.972C428.066 210.997 429.669 209.395 431.644 209.395C433.619 209.395 435.221 210.997 435.221 212.972C435.226 214.947 433.623 216.55 431.644 216.55Z" fill="black"/>
<path d="M431.644 286.235C429.669 286.235 428.066 284.632 428.066 282.658C428.066 280.683 429.669 279.08 431.644 279.08C433.619 279.08 435.221 280.683 435.221 282.658C435.226 284.632 433.623 286.235 431.644 286.235Z" fill="black"/>
<path d="M431.644 342.983C429.669 342.983 428.066 341.38 428.066 339.406C428.066 337.431 429.669 335.828 431.644 335.828C433.619 335.828 435.221 337.431 435.221 339.406C435.226 341.38 433.623 342.983 431.644 342.983Z" fill="black"/>
<path d="M431.644 412.352C429.669 412.352 428.066 410.75 428.066 408.775C428.066 406.8 429.669 405.197 431.644 405.197C433.619 405.197 435.221 406.8 435.221 408.775C435.226 410.75 433.623 412.352 431.644 412.352Z" fill="black"/>
<path d="M431.644 469.423C429.669 469.423 428.066 467.82 428.066 465.845C428.066 463.87 429.669 462.268 431.644 462.268C433.619 462.268 435.221 463.87 435.221 465.845C435.226 467.82 433.623 469.423 431.644 469.423Z" fill="black"/>
<path d="M431.644 537.987C429.669 537.987 428.066 536.384 428.066 534.41C428.066 532.435 429.669 530.832 431.644 530.832C433.619 530.832 435.221 532.435 435.221 534.41C435.226 536.384 433.623 537.987 431.644 537.987Z" fill="black"/>
<path d="M22.9212 58.7194C20.9464 58.7194 19.3438 57.1168 19.3438 55.1419C19.3438 53.1671 20.9464 51.5645 22.9212 51.5645C24.8961 51.5645 26.4987 53.1671 26.4987 55.1419C26.4987 57.1168 24.8961 58.7194 22.9212 58.7194Z" fill="black"/>
<path d="M22.9212 129.126C20.9464 129.126 19.3438 127.523 19.3438 125.548C19.3438 123.573 20.9464 121.971 22.9212 121.971C24.8961 121.971 26.4987 123.573 26.4987 125.548C26.4987 127.523 24.8961 129.126 22.9212 129.126Z" fill="black"/>
<path d="M22.9212 185.153C20.9464 185.153 19.3438 183.55 19.3438 181.576C19.3438 179.601 20.9464 177.998 22.9212 177.998C24.8961 177.998 26.4987 179.601 26.4987 181.576C26.4987 183.555 24.8961 185.153 22.9212 185.153Z" fill="black"/>
<path d="M22.9212 254.842C20.9464 254.842 19.3438 253.24 19.3438 251.265C19.3438 249.29 20.9464 247.688 22.9212 247.688C24.8961 247.688 26.4987 249.29 26.4987 251.265C26.4987 253.24 24.8961 254.842 22.9212 254.842Z" fill="black"/>
<path d="M22.9212 311.591C20.9464 311.591 19.3438 309.988 19.3438 308.013C19.3438 306.038 20.9464 304.436 22.9212 304.436C24.8961 304.436 26.4987 306.038 26.4987 308.013C26.4987 309.988 24.8961 311.591 22.9212 311.591Z" fill="black"/>
<path d="M22.9212 380.956C20.9464 380.956 19.3438 379.353 19.3438 377.378C19.3438 375.403 20.9464 373.801 22.9212 373.801C24.8961 373.801 26.4987 375.403 26.4987 377.378C26.4987 379.353 24.8961 380.956 22.9212 380.956Z" fill="black"/>
<path d="M22.9212 438.024C20.9464 438.024 19.3438 436.422 19.3438 434.447C19.3438 432.472 20.9464 430.869 22.9212 430.869C24.8961 430.869 26.4987 432.472 26.4987 434.447C26.4987 436.422 24.8961 438.024 22.9212 438.024Z" fill="black"/>
<path d="M22.9212 506.594C20.9464 506.594 19.3438 504.992 19.3438 503.017C19.3438 501.042 20.9464 499.439 22.9212 499.439C24.8961 499.439 26.4987 501.042 26.4987 503.017C26.4987 504.992 24.8961 506.594 22.9212 506.594Z" fill="black"/>
</g>
<mask id="mask2_1104_2980" style="mask-type:luminance" maskUnits="userSpaceOnUse" x="0" y="0" width="454" height="591">
<path d="M428.803 590.199H25.1967C11.2818 590.199 0 578.917 0 565.002V25.1967C0 11.2818 11.2818 0 25.1967 0H428.803C442.718 0 454 11.2818 454 25.1967V565.002C453.995 578.917 442.718 590.199 428.803 590.199Z" fill="white"/>
</mask>
<g mask="url(#mask2_1104_2980)">
<path d="M391.608 554.753H62.3844C50.5715 554.753 40.9922 545.174 40.9922 533.361V56.8337C40.9922 45.0207 50.5715 35.4414 62.3844 35.4414H391.604C403.421 35.4414 412.996 45.0207 412.996 56.8337V533.356C413.001 545.174 403.421 554.753 391.608 554.753Z" fill="white"/>
</g>
<mask id="mask3_1104_2980" style="mask-type:luminance" maskUnits="userSpaceOnUse" x="0" y="0" width="454" height="591">
<path d="M428.803 590.199H25.1967C11.2818 590.199 0 578.917 0 565.002V25.1967C0 11.2818 11.2818 0 25.1967 0H428.803C442.718 0 454 11.2818 454 25.1967V565.002C453.995 578.917 442.718 590.199 428.803 590.199Z" fill="white"/>
</mask>
<g mask="url(#mask3_1104_2980)">
<path d="M391.608 39.9814C400.902 39.9814 408.461 47.5404 408.461 56.8337V533.356C408.461 542.65 400.902 550.209 391.608 550.209H62.3844C53.0912 550.209 45.5321 542.65 45.5321 533.356V56.8337C45.5321 47.5404 53.0912 39.9814 62.3844 39.9814H391.608ZM391.608 35.4414H62.3844C50.5715 35.4414 40.9922 45.0207 40.9922 56.8337V533.356C40.9922 545.169 50.5715 554.749 62.3844 554.749H391.604C403.421 554.749 412.996 545.169 412.996 533.356V56.8337C413.001 45.0207 403.421 35.4414 391.608 35.4414Z" fill="black"/>
</g>
<path d="M194.045 454.491C194.191 455.33 194.958 455.758 195.749 455.441C195.749 455.441 204.037 452.124 209.313 451.521C213.946 451.344 218.337 451.838 223.022 451.966C230.305 452.585 242.31 447.972 242.31 447.972C243.105 447.666 243.636 446.73 243.49 445.891L238.753 418.658C238.607 417.819 237.837 417.382 237.042 417.688C237.042 417.688 225.037 422.301 217.755 421.681C213.069 421.553 208.678 421.06 204.046 421.237C198.77 421.84 190.481 425.157 190.481 425.157C189.69 425.473 189.163 426.419 189.309 427.258L194.045 454.491Z" fill="#DA2E2B"/>
<path d="M203.264 507.486C202.084 507.691 200.956 506.87 200.744 505.651L186.595 424.306C186.383 423.087 187.167 421.933 188.347 421.728C189.527 421.523 190.655 422.344 190.867 423.563L205.016 504.908C205.228 506.126 204.443 507.281 203.264 507.486Z" fill="black"/>
<path d="M213.717 431.615C213.508 431.633 213.312 431.653 213.13 431.676C212.951 431.702 212.786 431.728 212.633 431.752C212.334 431.801 212.086 431.85 211.888 431.898C211.691 431.95 211.531 431.996 211.407 432.036C211.261 432.082 211.146 432.127 211.062 432.17C211.058 432.07 211.056 431.976 211.055 431.888C211.053 431.8 211.049 431.716 211.043 431.635C211.039 431.551 211.032 431.469 211.022 431.389C211.015 431.305 211.004 431.219 210.99 431.13C210.933 430.78 210.871 430.492 210.804 430.264C210.741 430.036 210.671 429.849 210.595 429.701C210.519 429.554 210.436 429.438 210.347 429.355C210.259 429.271 210.164 429.199 210.062 429.137C210.079 429.281 210.097 429.42 210.116 429.554C210.134 429.688 210.156 429.83 210.18 429.979C210.204 430.126 210.232 430.278 210.264 430.436C210.297 430.593 210.335 430.76 210.38 430.936C210.425 431.111 210.48 431.298 210.545 431.496C210.61 431.691 210.685 431.902 210.771 432.13C210.766 432.118 210.722 432.11 210.64 432.107C210.558 432.104 210.449 432.107 210.314 432.116C210.178 432.125 210.022 432.141 209.846 432.163C209.673 432.182 209.493 432.206 209.305 432.237C209.06 432.277 208.817 432.325 208.575 432.38C208.333 432.44 208.118 432.511 207.929 432.594C207.989 432.483 208.038 432.347 208.074 432.188C208.112 432.025 208.141 431.849 208.159 431.66C208.177 431.471 208.185 431.274 208.185 431.069C208.187 430.863 208.185 430.661 208.179 430.463C208.162 429.999 208.121 429.508 208.056 428.99C208.035 428.863 208.009 428.702 207.977 428.508C207.949 428.314 207.911 428.103 207.864 427.876C207.82 427.648 207.769 427.415 207.711 427.176C207.656 426.937 207.589 426.71 207.511 426.494C207.437 426.278 207.353 426.083 207.259 425.909C207.166 425.735 207.06 425.6 206.944 425.505C207.178 425.503 207.405 425.49 207.623 425.467C207.841 425.442 208.026 425.416 208.178 425.392C208.312 425.37 208.434 425.347 208.544 425.322C208.657 425.297 208.769 425.272 208.879 425.248C208.99 425.223 209.104 425.198 209.224 425.172C209.344 425.146 209.477 425.121 209.623 425.097C209.823 425.064 210.027 425.042 210.234 425.032C210.441 425.017 210.641 425.022 210.834 425.046C211.03 425.067 211.215 425.11 211.388 425.176C211.565 425.239 211.724 425.33 211.864 425.451C212.007 425.568 212.128 425.718 212.226 425.901C212.328 426.083 212.4 426.303 212.442 426.561C212.465 426.704 212.469 426.85 212.455 426.999C212.443 427.148 212.407 427.299 212.347 427.452C212.287 427.602 212.201 427.752 212.088 427.901C211.978 428.046 211.836 428.187 211.662 428.323C211.903 428.378 212.092 428.465 212.228 428.583C212.368 428.7 212.478 428.842 212.557 429.009C212.637 429.175 212.695 429.362 212.732 429.568C212.771 429.77 212.812 429.982 212.855 430.204C212.907 430.44 212.973 430.656 213.054 430.852C213.087 430.934 213.125 431.018 213.168 431.102C213.215 431.186 213.265 431.263 213.318 431.332C213.375 431.401 213.436 431.462 213.5 431.513C213.567 431.564 213.639 431.598 213.717 431.615ZM209.88 428.021C209.942 427.959 210.009 427.883 210.083 427.793C210.159 427.699 210.226 427.6 210.284 427.495C210.345 427.388 210.392 427.277 210.426 427.164C210.459 427.051 210.468 426.942 210.45 426.837C210.434 426.735 210.39 426.657 210.319 426.604C210.252 426.549 210.181 426.528 210.108 426.54C210.007 426.557 209.933 426.618 209.889 426.723C209.843 426.825 209.813 426.942 209.799 427.075C209.788 427.208 209.787 427.34 209.795 427.472C209.807 427.601 209.818 427.7 209.829 427.77C209.836 427.808 209.842 427.85 209.85 427.894C209.856 427.936 209.867 427.978 209.88 428.021ZM217.253 426.407C217.292 426.645 217.295 426.883 217.262 427.12C217.232 427.357 217.145 427.577 217.002 427.779C216.859 427.982 216.65 428.16 216.374 428.313C216.102 428.465 215.742 428.577 215.294 428.65C215.332 428.804 215.385 428.929 215.453 429.026C215.524 429.122 215.602 429.196 215.685 429.247C215.769 429.299 215.854 429.334 215.942 429.352C216.03 429.371 216.11 429.38 216.182 429.382C216.254 429.383 216.314 429.38 216.361 429.372C216.409 429.364 216.433 429.36 216.433 429.36C216.626 429.306 216.794 429.226 216.937 429.121C216.999 429.079 217.057 429.028 217.113 428.97C217.168 428.909 217.216 428.841 217.256 428.766C217.299 428.687 217.329 428.602 217.347 428.511C217.367 428.416 217.371 428.311 217.359 428.196C217.475 428.389 217.564 428.574 217.625 428.75C217.689 428.922 217.734 429.086 217.76 429.242C217.806 429.528 217.797 429.8 217.731 430.059C217.669 430.314 217.561 430.544 217.408 430.748C217.256 430.952 217.061 431.123 216.826 431.259C216.594 431.398 216.332 431.491 216.039 431.539C215.753 431.586 215.469 431.582 215.186 431.527C214.906 431.471 214.645 431.354 214.404 431.175C214.165 430.992 213.956 430.739 213.776 430.416C213.599 430.092 213.471 429.686 213.391 429.196C213.304 428.665 213.304 428.182 213.389 427.747C213.475 427.312 213.624 426.936 213.836 426.617C214.048 426.295 214.311 426.035 214.624 425.837C214.941 425.636 215.285 425.504 215.657 425.444C215.841 425.414 216.021 425.406 216.196 425.419C216.374 425.433 216.535 425.477 216.678 425.551C216.823 425.625 216.947 425.732 217.048 425.873C217.149 426.01 217.217 426.188 217.253 426.407ZM215.146 427.867C215.235 427.849 215.335 427.815 215.448 427.764C215.56 427.71 215.663 427.644 215.758 427.566C215.853 427.489 215.928 427.4 215.984 427.299C216.042 427.198 216.062 427.091 216.044 426.976C216.032 426.903 215.997 426.849 215.939 426.812C215.881 426.776 215.812 426.765 215.732 426.778C215.621 426.796 215.526 426.844 215.447 426.922C215.372 426.999 215.31 427.091 215.262 427.197C215.217 427.302 215.185 427.415 215.166 427.536C215.146 427.656 215.14 427.767 215.146 427.867ZM223.318 430.038C223.244 430.044 223.16 430.051 223.067 430.059C222.987 430.066 222.892 430.077 222.783 430.091C222.678 430.105 222.562 430.122 222.435 430.143C222.253 430.173 222.062 430.21 221.861 430.256C221.659 430.302 221.461 430.359 221.267 430.427C221.28 430.385 221.287 430.302 221.29 430.178C221.292 430.054 221.291 429.917 221.287 429.767C221.285 429.618 221.28 429.47 221.273 429.324C221.269 429.178 221.265 429.064 221.261 428.983C221.249 429.23 221.213 429.46 221.153 429.672C221.096 429.88 221.018 430.064 220.92 430.224C220.822 430.38 220.704 430.509 220.567 430.609C220.43 430.71 220.279 430.774 220.114 430.801C220.038 430.813 219.943 430.824 219.83 430.832C219.718 430.841 219.593 430.829 219.457 430.795C219.324 430.762 219.185 430.699 219.04 430.609C218.897 430.515 218.759 430.374 218.624 430.187C218.491 429.997 218.368 429.749 218.253 429.445C218.141 429.14 218.048 428.761 217.974 428.306C217.912 427.925 217.883 427.58 217.889 427.272C217.896 426.961 217.928 426.684 217.983 426.44C218.041 426.195 218.119 425.983 218.217 425.804C218.317 425.621 218.428 425.468 218.548 425.344C218.671 425.219 218.801 425.123 218.936 425.055C219.075 424.984 219.211 424.937 219.344 424.915C219.494 424.891 219.633 424.894 219.762 424.925C219.891 424.953 220.011 424.999 220.122 425.062C220.233 425.123 220.334 425.198 220.423 425.287C220.512 425.374 220.592 425.462 220.662 425.552C220.632 425.407 220.6 425.249 220.565 425.078C220.531 424.908 220.495 424.736 220.457 424.562C220.419 424.389 220.378 424.22 220.334 424.054C220.294 423.884 220.252 423.728 220.209 423.585C220.169 423.441 220.129 423.315 220.089 423.208C220.048 423.1 220.009 423.02 219.971 422.968C220.233 422.971 220.475 422.962 220.696 422.942C220.918 422.922 221.118 422.898 221.296 422.869C221.411 422.85 221.514 422.832 221.605 422.813C221.697 422.792 221.773 422.773 221.836 422.756C221.911 422.737 221.977 422.719 222.032 422.7C222.023 422.864 222.026 423.078 222.039 423.34C222.052 423.599 222.073 423.891 222.103 424.215C222.137 424.54 222.177 424.887 222.225 425.258C222.275 425.625 222.331 425.999 222.393 426.381C222.451 426.733 222.513 427.084 222.58 427.432C222.649 427.78 222.723 428.113 222.802 428.433C222.88 428.75 222.962 429.047 223.05 429.323C223.137 429.596 223.226 429.834 223.318 430.038ZM220.913 427.626L220.786 426.853C220.772 426.768 220.753 426.681 220.729 426.593C220.705 426.506 220.67 426.429 220.623 426.361C220.579 426.293 220.522 426.242 220.451 426.208C220.38 426.171 220.29 426.161 220.182 426.179C220.106 426.191 220.045 426.232 220.001 426.301C219.957 426.37 219.925 426.455 219.906 426.556C219.887 426.658 219.875 426.769 219.872 426.89C219.869 427.011 219.872 427.131 219.882 427.251C219.891 427.367 219.903 427.476 219.916 427.578C219.929 427.677 219.94 427.755 219.949 427.812C219.963 427.898 219.984 428.004 220.011 428.13C220.041 428.253 220.08 428.37 220.127 428.483C220.175 428.593 220.234 428.685 220.304 428.758C220.378 428.831 220.466 428.859 220.568 428.842C220.682 428.823 220.768 428.769 220.825 428.678C220.882 428.587 220.918 428.48 220.934 428.357C220.953 428.233 220.958 428.106 220.95 427.977C220.942 427.845 220.929 427.727 220.913 427.626ZM216.343 445.274C216.288 445.279 216.224 445.285 216.15 445.29C216.085 445.298 216.009 445.307 215.919 445.318C215.833 445.329 215.734 445.343 215.623 445.362C215.416 445.395 215.179 445.444 214.912 445.507C214.648 445.566 214.362 445.646 214.055 445.745C214.085 445.648 214.105 445.52 214.114 445.358C214.123 445.194 214.125 445.011 214.118 444.809C214.111 444.605 214.097 444.39 214.076 444.165C214.059 443.936 214.036 443.708 214.009 443.481C213.985 443.253 213.957 443.034 213.926 442.824C213.898 442.61 213.871 442.418 213.847 442.249C213.822 442.077 213.8 441.932 213.781 441.815C213.762 441.697 213.749 441.621 213.744 441.586C213.707 441.38 213.667 441.164 213.623 440.94C213.585 440.747 213.544 440.532 213.499 440.294C213.453 440.057 213.403 439.821 213.348 439.585C213.319 439.567 213.282 439.547 213.236 439.525C213.189 439.5 213.131 439.48 213.06 439.465C212.988 439.448 212.902 439.437 212.8 439.434C212.702 439.431 212.587 439.44 212.457 439.461C212.377 439.474 212.297 439.503 212.217 439.549C212.139 439.594 212.071 439.655 212.011 439.73C211.952 439.804 211.907 439.893 211.879 439.996C211.85 440.099 211.845 440.213 211.866 440.341L213.05 440.098C213.039 440.25 213.04 440.404 213.052 440.558C213.067 440.709 213.088 440.866 213.114 441.028C213.129 441.117 213.145 441.206 213.162 441.294C213.18 441.383 213.2 441.472 213.221 441.563C213.017 441.571 212.822 441.58 212.638 441.59C212.453 441.597 212.261 441.617 212.06 441.65C212.091 441.88 212.125 442.114 212.16 442.353C212.196 442.589 212.232 442.825 212.271 443.06C212.353 443.562 212.447 444.057 212.553 444.546C212.662 445.034 212.799 445.504 212.964 445.957C212.596 445.942 212.22 445.966 211.835 446.029C211.635 446.061 211.438 446.103 211.244 446.155C211.053 446.205 210.865 446.264 210.68 446.33C210.702 446.003 210.704 445.655 210.686 445.286C210.668 444.917 210.638 444.543 210.596 444.165C210.557 443.787 210.512 443.412 210.462 443.042C210.411 442.671 210.362 442.324 210.316 441.998C210.215 442.021 210.106 442.049 209.987 442.082C209.868 442.111 209.758 442.142 209.659 442.174C209.652 442.032 209.643 441.895 209.631 441.763C209.619 441.628 209.602 441.492 209.579 441.355C209.56 441.234 209.537 441.116 209.512 440.999C209.485 440.879 209.451 440.756 209.407 440.629L210.138 440.549C210.084 440.219 210.089 439.908 210.152 439.617C210.215 439.323 210.329 439.061 210.494 438.832C210.662 438.599 210.875 438.406 211.134 438.252C211.392 438.096 211.69 437.99 212.027 437.935C212.329 437.886 212.607 437.854 212.863 437.838C213.121 437.822 213.367 437.821 213.601 437.835C213.835 437.846 214.064 437.869 214.288 437.904C214.516 437.939 214.75 437.982 214.99 438.034C214.985 438.182 214.987 438.368 214.997 438.591C215.011 438.814 215.031 439.064 215.056 439.34C215.085 439.616 215.12 439.912 215.162 440.229C215.204 440.545 215.252 440.87 215.306 441.204C215.369 441.585 215.438 441.969 215.514 442.354C215.59 442.74 215.672 443.112 215.759 443.469C215.847 443.827 215.939 444.161 216.036 444.472C216.135 444.779 216.237 445.046 216.343 445.274ZM221.625 444.499C221.564 444.503 221.493 444.508 221.412 444.515C221.345 444.519 221.263 444.528 221.167 444.54C221.074 444.552 220.972 444.567 220.861 444.585C220.702 444.611 220.528 444.646 220.34 444.69C220.154 444.733 219.964 444.789 219.769 444.856L219.57 443.513C219.526 444.007 219.408 444.401 219.215 444.697C219.025 444.992 218.772 445.166 218.458 445.217C218.359 445.233 218.246 445.239 218.118 445.233C217.99 445.228 217.854 445.2 217.712 445.148C217.574 445.099 217.432 445.021 217.287 444.914C217.146 444.806 217.011 444.66 216.883 444.476C216.754 444.288 216.638 444.055 216.534 443.779C216.43 443.499 216.345 443.162 216.281 442.768C216.194 442.234 216.174 441.769 216.22 441.373C216.266 440.974 216.353 440.64 216.482 440.37C216.611 440.101 216.768 439.895 216.954 439.75C217.139 439.606 217.329 439.518 217.522 439.486C217.688 439.459 217.841 439.458 217.982 439.484C218.126 439.507 218.257 439.546 218.373 439.602C218.49 439.654 218.593 439.719 218.684 439.796C218.775 439.872 218.851 439.951 218.914 440.032C218.887 439.926 218.854 439.814 218.815 439.696C218.775 439.575 218.732 439.452 218.686 439.326C218.899 439.333 219.113 439.326 219.328 439.304C219.543 439.282 219.742 439.256 219.923 439.226C220.139 439.191 220.313 439.158 220.445 439.127C220.521 439.111 220.59 439.095 220.652 439.078C220.643 439.243 220.641 439.426 220.644 439.628C220.648 439.829 220.657 440.045 220.671 440.274C220.689 440.5 220.711 440.738 220.739 440.988C220.769 441.234 220.805 441.486 220.847 441.743C220.926 442.223 221.028 442.701 221.155 443.176C221.281 443.652 221.438 444.093 221.625 444.499ZM219.22 442.087L219.094 441.315C219.08 441.229 219.061 441.142 219.037 441.055C219.012 440.967 218.977 440.89 218.93 440.823C218.886 440.755 218.829 440.704 218.758 440.67C218.687 440.632 218.597 440.622 218.489 440.64C218.375 440.659 218.286 440.714 218.222 440.806C218.162 440.897 218.12 441.017 218.095 441.165C218.073 441.308 218.068 441.477 218.08 441.671C218.094 441.861 218.12 442.068 218.156 442.29C218.177 442.417 218.206 442.545 218.243 442.672C218.284 442.8 218.333 442.914 218.392 443.015C218.451 443.113 218.52 443.19 218.601 443.246C218.682 443.301 218.773 443.32 218.875 443.304C218.989 443.285 219.075 443.23 219.132 443.139C219.189 443.048 219.225 442.941 219.241 442.818C219.26 442.694 219.265 442.568 219.257 442.438C219.249 442.306 219.236 442.189 219.22 442.087ZM225.975 438.097C225.961 438.236 225.958 438.405 225.964 438.603C225.973 438.797 225.987 439.01 226.005 439.242C226.023 439.471 226.045 439.709 226.072 439.956C226.103 440.202 226.132 440.443 226.161 440.68C226.232 441.236 226.317 441.825 226.415 442.445C226.468 442.769 226.499 443.091 226.509 443.409C226.521 443.723 226.505 444.025 226.46 444.312C226.419 444.6 226.347 444.871 226.245 445.126C226.144 445.381 226.006 445.607 225.833 445.805C225.662 446.003 225.455 446.169 225.209 446.303C224.964 446.441 224.676 446.537 224.346 446.591C224.037 446.641 223.765 446.653 223.529 446.626C223.293 446.6 223.091 446.54 222.922 446.447C222.757 446.356 222.625 446.236 222.525 446.085C222.429 445.938 222.365 445.766 222.333 445.569C222.302 445.375 222.306 445.194 222.348 445.028C222.389 444.861 222.455 444.713 222.545 444.584C222.635 444.459 222.742 444.356 222.867 444.277C222.994 444.198 223.127 444.147 223.267 444.124C223.449 444.094 223.627 444.117 223.802 444.193C223.978 444.269 224.125 444.41 224.243 444.616C224.201 444.596 224.153 444.591 224.099 444.6C224.026 444.612 223.962 444.652 223.908 444.719C223.854 444.79 223.834 444.867 223.848 444.949C223.855 444.997 223.87 445.035 223.891 445.065C223.916 445.097 223.944 445.12 223.976 445.134C224.007 445.148 224.04 445.156 224.072 445.157C224.109 445.161 224.141 445.161 224.17 445.156C224.205 445.15 224.252 445.136 224.31 445.114C224.372 445.094 224.435 445.052 224.5 444.99C224.565 444.927 224.625 444.837 224.681 444.72C224.737 444.603 224.781 444.448 224.811 444.254C224.841 444.059 224.851 443.818 224.84 443.529C224.832 443.24 224.795 442.894 224.729 442.49C224.711 442.784 224.668 443.019 224.599 443.197C224.53 443.374 224.449 443.513 224.354 443.614C224.259 443.711 224.156 443.778 224.044 443.816C223.936 443.853 223.833 443.88 223.734 443.896C223.658 443.908 223.559 443.911 223.437 443.905C223.315 443.896 223.182 443.869 223.037 443.824C222.895 443.775 222.747 443.703 222.591 443.608C222.438 443.509 222.292 443.377 222.155 443.214C222.016 443.047 221.892 442.842 221.78 442.599C221.671 442.353 221.589 442.056 221.532 441.71C221.445 441.176 221.425 440.716 221.473 440.329C221.524 439.942 221.617 439.622 221.752 439.368C221.89 439.111 222.055 438.916 222.249 438.783C222.442 438.647 222.639 438.563 222.839 438.53C222.982 438.507 223.116 438.509 223.242 438.538C223.367 438.563 223.483 438.606 223.591 438.667C223.699 438.728 223.797 438.8 223.885 438.883C223.974 438.963 224.054 439.047 224.127 439.133C224.085 438.996 224.038 438.86 223.987 438.725C223.939 438.589 223.885 438.452 223.827 438.315C223.912 438.337 224.016 438.353 224.138 438.362C224.244 438.371 224.375 438.373 224.531 438.367C224.686 438.358 224.871 438.336 225.087 438.3C225.342 438.259 225.637 438.191 225.975 438.097ZM224.334 440.822C224.319 440.733 224.296 440.627 224.263 440.505C224.229 440.38 224.186 440.264 224.132 440.155C224.078 440.043 224.012 439.951 223.935 439.879C223.861 439.806 223.775 439.777 223.677 439.793C223.604 439.805 223.544 439.859 223.497 439.955C223.451 440.047 223.415 440.158 223.39 440.286C223.368 440.41 223.354 440.538 223.35 440.669C223.348 440.8 223.355 440.91 223.369 440.999C223.394 441.151 223.427 441.306 223.469 441.462C223.511 441.619 223.56 441.759 223.616 441.884C223.675 442.005 223.739 442.102 223.806 442.176C223.877 442.249 223.95 442.28 224.027 442.267C224.109 442.254 224.179 442.223 224.237 442.174C224.297 442.122 224.343 442.059 224.377 441.985C224.413 441.907 224.435 441.822 224.443 441.729C224.454 441.636 224.451 441.539 224.434 441.437L224.334 440.822Z" fill="#E7F0FF"/>
<path d="M260.201 457.905C260.055 457.066 259.288 456.639 258.497 456.955C258.497 456.955 250.209 460.272 244.933 460.875C240.3 461.052 235.909 460.559 231.224 460.431C223.941 459.811 211.936 464.425 211.936 464.425C211.141 464.73 210.611 465.667 210.756 466.506L215.493 493.739C215.639 494.578 216.409 495.014 217.204 494.709C217.204 494.709 229.209 490.096 236.491 490.715C241.177 490.843 245.568 491.337 250.2 491.16C255.476 490.556 263.765 487.239 263.765 487.239C264.556 486.923 265.083 485.977 264.938 485.138L260.201 457.905Z" fill="#08AD68"/>
<path d="M250.983 404.91C252.162 404.705 253.29 405.527 253.502 406.745L267.651 488.091C267.863 489.309 267.079 490.463 265.899 490.668C264.72 490.874 263.592 490.052 263.38 488.834L249.23 407.488C249.019 406.27 249.803 405.116 250.983 404.91Z" fill="black"/>
<path d="M227.2 469.106C227.045 469.794 227.016 470.441 227.115 471.048C227.163 471.341 227.238 471.632 227.341 471.922C227.444 472.209 227.577 472.497 227.742 472.787C227.553 472.772 227.379 472.766 227.22 472.769C227.061 472.772 226.905 472.786 226.752 472.811C226.59 472.838 226.427 472.879 226.263 472.935C226.099 472.991 225.924 473.065 225.737 473.158L225.808 472.363C225.761 472.475 225.702 472.593 225.63 472.715C225.558 472.835 225.467 472.947 225.357 473.054C225.251 473.159 225.122 473.252 224.972 473.332C224.826 473.414 224.651 473.472 224.447 473.506C224.142 473.555 223.849 473.528 223.568 473.424C223.289 473.319 223.036 473.144 222.806 472.897C222.577 472.651 222.377 472.336 222.207 471.952C222.039 471.565 221.913 471.116 221.83 470.604C221.774 470.264 221.751 469.922 221.76 469.578C221.769 469.23 221.809 468.896 221.88 468.574C221.951 468.249 222.055 467.944 222.191 467.657C222.326 467.367 222.492 467.11 222.687 466.886C222.881 466.659 223.107 466.47 223.363 466.32C223.622 466.167 223.91 466.065 224.228 466.013C224.517 465.966 224.775 465.955 225.001 465.98C225.226 466.002 225.427 466.049 225.602 466.122C225.776 466.191 225.925 466.281 226.047 466.391C226.172 466.498 226.276 466.615 226.359 466.742C226.442 466.869 226.507 466.998 226.554 467.131C226.602 467.26 226.635 467.384 226.654 467.501C226.682 467.67 226.678 467.837 226.643 468.003C226.611 468.168 226.552 468.318 226.467 468.452C226.381 468.587 226.272 468.701 226.141 468.794C226.009 468.888 225.857 468.948 225.686 468.976C225.508 469.005 225.349 469.003 225.21 468.971C225.071 468.938 224.951 468.886 224.852 468.814C224.751 468.739 224.67 468.651 224.608 468.55C224.549 468.449 224.511 468.344 224.493 468.236C224.478 468.144 224.478 468.047 224.495 467.947C224.511 467.846 224.541 467.75 224.585 467.658C224.615 467.722 224.65 467.77 224.691 467.802C224.732 467.831 224.771 467.851 224.809 467.861C224.85 467.874 224.895 467.878 224.943 467.874C225.051 467.856 225.123 467.817 225.159 467.755C225.197 467.694 225.211 467.628 225.2 467.558C225.194 467.526 225.181 467.495 225.16 467.466C225.142 467.433 225.116 467.405 225.083 467.381C225.049 467.357 225.007 467.339 224.957 467.328C224.909 467.316 224.852 467.316 224.785 467.327C224.741 467.334 224.68 467.354 224.604 467.386C224.53 467.414 224.451 467.461 224.367 467.527C224.287 467.592 224.208 467.68 224.131 467.791C224.054 467.898 223.99 468.036 223.939 468.204C223.889 468.372 223.858 468.573 223.847 468.806C223.836 469.04 223.856 469.312 223.907 469.624C223.949 469.881 224.006 470.104 224.079 470.291C224.155 470.477 224.242 470.63 224.34 470.748C224.437 470.865 224.544 470.949 224.66 470.999C224.775 471.045 224.895 471.058 225.019 471.038C225.136 471.019 225.228 470.973 225.295 470.9C225.361 470.827 225.41 470.744 225.44 470.651C225.471 470.558 225.486 470.464 225.487 470.369C225.488 470.275 225.483 470.196 225.473 470.132C225.472 470.129 225.466 470.107 225.453 470.067C225.443 470.026 225.421 469.981 225.386 469.931C225.352 469.881 225.302 469.832 225.235 469.784C225.169 469.736 225.08 469.702 224.969 469.681C225.344 469.619 225.718 469.542 226.091 469.449C226.463 469.352 226.833 469.238 227.2 469.106ZM229.969 467.895C229.87 467.912 229.786 467.955 229.716 468.025C229.645 468.092 229.586 468.181 229.539 468.294C229.495 468.402 229.46 468.53 229.435 468.678C229.414 468.825 229.402 468.985 229.401 469.158C229.445 469.428 229.496 469.7 229.554 469.975C229.612 470.249 229.677 470.519 229.75 470.785C229.823 471.05 229.902 471.308 229.989 471.559C230.079 471.808 230.176 472.044 230.28 472.265C230.229 472.27 230.169 472.275 230.102 472.279C230.044 472.285 229.973 472.294 229.89 472.304C229.81 472.314 229.718 472.327 229.613 472.344C229.416 472.376 229.189 472.423 228.931 472.485C228.676 472.543 228.395 472.621 228.088 472.72C228.097 472.536 228.095 472.313 228.082 472.051C228.068 471.789 228.047 471.505 228.016 471.2C227.986 470.895 227.949 470.578 227.905 470.249C227.864 469.916 227.817 469.589 227.765 469.268C227.726 469.03 227.685 468.797 227.641 468.569C227.597 468.341 227.552 468.127 227.506 467.925C227.464 467.723 227.419 467.538 227.372 467.37C227.325 467.201 227.278 467.057 227.233 466.937C227.497 466.94 227.736 466.933 227.949 466.918C228.165 466.899 228.357 466.876 228.525 466.849C228.633 466.831 228.728 466.814 228.81 466.797C228.892 466.777 228.963 466.759 229.022 466.743C229.087 466.723 229.146 466.703 229.198 466.685C229.186 466.85 229.186 467.031 229.199 467.228C229.332 467.001 229.487 466.824 229.665 466.697C229.847 466.569 230.023 466.491 230.195 466.463C230.481 466.417 230.731 466.43 230.945 466.502C231.159 466.572 231.34 466.681 231.488 466.83C231.636 466.976 231.754 467.15 231.843 467.355C231.932 467.559 231.994 467.77 232.03 467.99C232.065 468.203 232.069 468.416 232.042 468.629C232.014 468.842 231.957 469.039 231.869 469.22C231.78 469.398 231.66 469.55 231.507 469.676C231.355 469.802 231.172 469.882 230.959 469.917C230.772 469.948 230.606 469.942 230.462 469.9C230.322 469.858 230.2 469.793 230.098 469.705C229.995 469.617 229.913 469.517 229.852 469.403C229.794 469.285 229.755 469.166 229.735 469.045C229.715 468.918 229.712 468.791 229.727 468.664C229.745 468.537 229.782 468.419 229.835 468.309C229.869 468.375 229.905 468.425 229.943 468.458C229.984 468.487 230.023 468.507 230.06 468.517C230.102 468.53 230.145 468.534 230.19 468.53C230.307 468.511 230.39 468.47 230.439 468.406C230.49 468.342 230.51 468.274 230.498 468.201C230.492 468.166 230.48 468.127 230.46 468.085C230.44 468.042 230.409 468.005 230.368 467.972C230.33 467.939 230.279 467.915 230.214 467.899C230.149 467.881 230.067 467.879 229.969 467.895ZM236.335 466.744C236.374 466.982 236.377 467.22 236.344 467.457C236.314 467.694 236.227 467.913 236.084 468.116C235.941 468.319 235.732 468.497 235.457 468.649C235.184 468.802 234.824 468.914 234.376 468.987C234.414 469.141 234.467 469.266 234.535 469.363C234.606 469.459 234.684 469.533 234.767 469.584C234.851 469.636 234.936 469.671 235.024 469.689C235.112 469.707 235.192 469.717 235.264 469.719C235.336 469.72 235.396 469.717 235.444 469.709C235.491 469.701 235.515 469.697 235.515 469.697C235.708 469.643 235.877 469.563 236.019 469.458C236.081 469.416 236.14 469.365 236.195 469.307C236.251 469.246 236.298 469.178 236.338 469.103C236.381 469.024 236.411 468.939 236.429 468.848C236.449 468.753 236.453 468.648 236.441 468.533C236.557 468.726 236.646 468.91 236.708 469.086C236.772 469.259 236.816 469.423 236.842 469.579C236.888 469.865 236.879 470.137 236.814 470.396C236.751 470.651 236.643 470.88 236.49 471.085C236.338 471.289 236.144 471.46 235.908 471.596C235.676 471.735 235.414 471.828 235.122 471.876C234.836 471.923 234.551 471.919 234.268 471.864C233.988 471.808 233.727 471.691 233.486 471.512C233.247 471.329 233.038 471.076 232.858 470.753C232.681 470.429 232.553 470.022 232.473 469.533C232.386 469.002 232.386 468.519 232.471 468.084C232.557 467.649 232.706 467.272 232.918 466.954C233.13 466.632 233.393 466.372 233.707 466.174C234.023 465.973 234.367 465.841 234.739 465.781C234.923 465.751 235.103 465.742 235.278 465.756C235.457 465.77 235.617 465.814 235.76 465.888C235.906 465.962 236.029 466.069 236.13 466.209C236.231 466.346 236.299 466.525 236.335 466.744ZM234.229 468.204C234.317 468.186 234.418 468.152 234.53 468.101C234.642 468.046 234.745 467.981 234.84 467.903C234.935 467.826 235.011 467.737 235.066 467.636C235.125 467.535 235.145 467.428 235.126 467.313C235.114 467.24 235.079 467.185 235.021 467.149C234.963 467.113 234.894 467.101 234.815 467.114C234.703 467.133 234.608 467.181 234.53 467.259C234.454 467.336 234.393 467.428 234.344 467.534C234.3 467.639 234.268 467.752 234.248 467.873C234.229 467.993 234.222 468.104 234.229 468.204ZM240.903 465.998C240.942 466.237 240.945 466.475 240.912 466.712C240.882 466.948 240.795 467.168 240.652 467.371C240.509 467.574 240.3 467.751 240.024 467.904C239.752 468.056 239.392 468.169 238.944 468.242C238.982 468.396 239.035 468.521 239.103 468.617C239.174 468.713 239.252 468.787 239.335 468.839C239.418 468.89 239.504 468.925 239.592 468.944C239.68 468.962 239.76 468.972 239.832 468.973C239.904 468.974 239.964 468.971 240.011 468.963C240.059 468.956 240.083 468.952 240.083 468.952C240.276 468.897 240.444 468.818 240.587 468.713C240.649 468.67 240.707 468.62 240.763 468.562C240.818 468.5 240.866 468.432 240.906 468.357C240.949 468.278 240.979 468.194 240.997 468.103C241.017 468.008 241.021 467.903 241.009 467.787C241.125 467.98 241.214 468.165 241.275 468.341C241.339 468.513 241.384 468.677 241.41 468.833C241.456 469.119 241.447 469.392 241.381 469.65C241.319 469.905 241.211 470.135 241.058 470.339C240.906 470.544 240.711 470.714 240.476 470.85C240.244 470.989 239.982 471.083 239.689 471.131C239.403 471.177 239.119 471.173 238.836 471.118C238.556 471.063 238.295 470.945 238.054 470.766C237.815 470.583 237.606 470.33 237.426 470.007C237.249 469.683 237.121 469.277 237.041 468.787C236.954 468.257 236.954 467.774 237.039 467.339C237.125 466.904 237.274 466.527 237.486 466.208C237.698 465.887 237.961 465.627 238.274 465.429C238.591 465.227 238.935 465.096 239.307 465.035C239.491 465.005 239.671 464.997 239.846 465.011C240.024 465.024 240.185 465.068 240.328 465.143C240.473 465.217 240.597 465.324 240.698 465.464C240.799 465.601 240.867 465.779 240.903 465.998ZM238.796 467.458C238.885 467.441 238.985 467.406 239.098 467.355C239.21 467.301 239.313 467.235 239.408 467.158C239.503 467.08 239.578 466.991 239.634 466.891C239.692 466.79 239.712 466.682 239.694 466.568C239.682 466.495 239.647 466.44 239.589 466.404C239.53 466.368 239.462 466.356 239.382 466.369C239.271 466.387 239.176 466.435 239.097 466.513C239.022 466.591 238.96 466.683 238.912 466.788C238.867 466.893 238.835 467.006 238.816 467.127C238.796 467.248 238.79 467.358 238.796 467.458ZM247.011 469.652C246.91 469.652 246.8 469.658 246.681 469.671C246.563 469.687 246.44 469.706 246.313 469.726C246.161 469.751 246.005 469.78 245.848 469.812C245.693 469.847 245.543 469.883 245.395 469.92C245.248 469.957 245.109 469.995 244.978 470.032C244.847 470.07 244.733 470.103 244.637 470.132C244.698 469.649 244.723 469.139 244.71 468.603C244.701 468.066 244.644 467.478 244.54 466.839C244.532 466.791 244.52 466.728 244.504 466.649C244.491 466.57 244.474 466.484 244.453 466.393C244.431 466.302 244.405 466.212 244.374 466.122C244.346 466.029 244.311 465.946 244.27 465.875C244.232 465.803 244.189 465.746 244.14 465.705C244.09 465.664 244.036 465.649 243.975 465.658C243.886 465.673 243.804 465.719 243.729 465.797C243.656 465.874 243.595 465.97 243.546 466.086C243.499 466.201 243.467 466.331 243.448 466.474C243.432 466.617 243.436 466.761 243.46 466.908C243.503 467.171 243.553 467.439 243.61 467.71C243.667 467.978 243.731 468.244 243.804 468.506C243.876 468.768 243.955 469.025 244.042 469.275C244.128 469.522 244.223 469.754 244.327 469.972C244.272 469.978 244.208 469.984 244.134 469.989C244.07 469.996 243.995 470.005 243.908 470.016C243.822 470.027 243.723 470.042 243.612 470.06C243.405 470.093 243.168 470.142 242.901 470.205C242.634 470.265 242.346 470.344 242.039 470.444C242.049 470.259 242.046 470.036 242.033 469.774C242.02 469.512 241.998 469.228 241.968 468.923C241.937 468.618 241.9 468.301 241.856 467.972C241.815 467.639 241.768 467.313 241.716 466.992C241.677 466.753 241.636 466.52 241.592 466.292C241.548 466.064 241.504 465.85 241.458 465.648C241.415 465.447 241.37 465.261 241.323 465.093C241.276 464.924 241.229 464.78 241.184 464.66C241.448 464.663 241.692 464.656 241.915 464.639C242.136 464.619 242.336 464.595 242.514 464.565C242.629 464.547 242.73 464.529 242.819 464.511C242.91 464.489 242.987 464.47 243.049 464.454C243.124 464.432 243.189 464.411 243.245 464.392C243.242 464.494 243.24 464.602 243.239 464.716C243.241 464.83 243.245 464.954 243.25 465.087C243.334 464.936 243.426 464.802 243.527 464.684C243.628 464.563 243.732 464.46 243.839 464.374C243.949 464.287 244.06 464.219 244.173 464.168C244.284 464.113 244.393 464.078 244.498 464.061C244.727 464.023 244.931 464.039 245.112 464.107C245.296 464.172 245.458 464.296 245.599 464.478C245.743 464.66 245.867 464.903 245.972 465.205C246.077 465.508 246.165 465.877 246.236 466.313C246.285 466.611 246.334 466.915 246.384 467.223C246.438 467.531 246.495 467.832 246.556 468.125C246.617 468.419 246.685 468.697 246.761 468.958C246.835 469.217 246.919 469.448 247.011 469.652ZM234.581 485.748C234.526 485.754 234.462 485.759 234.388 485.765C234.324 485.772 234.247 485.781 234.157 485.793C234.071 485.804 233.972 485.818 233.861 485.836C233.654 485.87 233.418 485.918 233.15 485.982C232.886 486.041 232.6 486.12 232.293 486.219C232.323 486.123 232.343 485.994 232.353 485.833C232.362 485.668 232.363 485.485 232.356 485.284C232.349 485.08 232.335 484.865 232.315 484.64C232.297 484.411 232.274 484.183 232.247 483.956C232.223 483.728 232.195 483.509 232.164 483.299C232.136 483.085 232.11 482.893 232.085 482.724C232.06 482.552 232.038 482.407 232.019 482.289C232 482.172 231.988 482.095 231.982 482.061C231.945 481.854 231.905 481.639 231.862 481.414C231.824 481.222 231.782 481.006 231.737 480.769C231.692 480.532 231.642 480.295 231.587 480.059C231.558 480.041 231.52 480.021 231.474 479.999C231.428 479.974 231.369 479.955 231.298 479.94C231.227 479.922 231.14 479.912 231.038 479.909C230.94 479.905 230.826 479.914 230.695 479.936C230.616 479.949 230.536 479.978 230.455 480.024C230.378 480.069 230.309 480.129 230.25 480.204C230.19 480.279 230.146 480.368 230.117 480.471C230.088 480.573 230.084 480.688 230.105 480.815L231.289 480.573C231.278 480.725 231.278 480.878 231.29 481.033C231.305 481.184 231.326 481.34 231.352 481.502C231.367 481.591 231.383 481.68 231.401 481.769C231.418 481.857 231.438 481.947 231.459 482.038C231.255 482.045 231.061 482.054 230.876 482.065C230.691 482.072 230.499 482.092 230.299 482.125C230.33 482.355 230.363 482.589 230.399 482.828C230.434 483.064 230.471 483.299 230.509 483.534C230.591 484.037 230.685 484.532 230.791 485.021C230.9 485.509 231.037 485.979 231.202 486.432C230.834 486.417 230.458 486.441 230.073 486.503C229.873 486.536 229.676 486.578 229.482 486.629C229.291 486.68 229.103 486.738 228.918 486.804C228.94 486.478 228.942 486.13 228.924 485.761C228.906 485.392 228.877 485.018 228.834 484.64C228.795 484.261 228.751 483.887 228.7 483.516C228.649 483.146 228.601 482.798 228.554 482.473C228.453 482.496 228.344 482.524 228.225 482.556C228.106 482.585 227.997 482.616 227.898 482.649C227.891 482.506 227.881 482.369 227.87 482.237C227.857 482.102 227.84 481.966 227.818 481.83C227.798 481.709 227.775 481.59 227.75 481.474C227.724 481.354 227.689 481.231 227.645 481.104L228.376 481.024C228.322 480.693 228.327 480.382 228.391 480.091C228.454 479.797 228.568 479.536 228.732 479.306C228.9 479.073 229.113 478.88 229.372 478.727C229.631 478.571 229.928 478.465 230.265 478.41C230.567 478.361 230.846 478.328 231.101 478.313C231.359 478.297 231.606 478.296 231.84 478.31C232.073 478.321 232.302 478.344 232.526 478.379C232.754 478.413 232.988 478.457 233.228 478.509C233.223 478.657 233.225 478.842 233.236 479.066C233.249 479.289 233.269 479.538 233.294 479.815C233.323 480.091 233.358 480.387 233.4 480.703C233.442 481.019 233.49 481.344 233.545 481.678C233.607 482.06 233.676 482.443 233.752 482.829C233.828 483.215 233.91 483.586 233.998 483.944C234.085 484.302 234.177 484.636 234.274 484.947C234.373 485.253 234.475 485.521 234.581 485.748ZM239.863 484.974C239.802 484.978 239.731 484.983 239.651 484.989C239.583 484.994 239.501 485.002 239.405 485.015C239.312 485.027 239.21 485.042 239.099 485.06C238.94 485.086 238.766 485.121 238.578 485.164C238.392 485.208 238.202 485.263 238.008 485.331L237.808 483.988C237.765 484.481 237.646 484.876 237.453 485.172C237.263 485.467 237.011 485.64 236.696 485.692C236.598 485.708 236.484 485.713 236.356 485.708C236.228 485.703 236.093 485.674 235.951 485.622C235.812 485.573 235.67 485.495 235.526 485.388C235.384 485.281 235.249 485.135 235.121 484.95C234.993 484.762 234.876 484.53 234.773 484.253C234.668 483.973 234.584 483.636 234.519 483.242C234.432 482.708 234.412 482.243 234.458 481.847C234.504 481.448 234.591 481.114 234.72 480.845C234.85 480.576 235.007 480.369 235.192 480.225C235.377 480.08 235.567 479.992 235.761 479.961C235.926 479.934 236.079 479.933 236.221 479.959C236.365 479.981 236.495 480.02 236.612 480.076C236.728 480.129 236.832 480.194 236.922 480.27C237.013 480.347 237.09 480.426 237.152 480.507C237.125 480.4 237.092 480.288 237.053 480.171C237.014 480.05 236.971 479.926 236.924 479.8C237.137 479.808 237.352 479.8 237.567 479.778C237.782 479.756 237.98 479.731 238.161 479.701C238.377 479.666 238.551 479.632 238.683 479.601C238.759 479.586 238.828 479.569 238.891 479.553C238.882 479.717 238.879 479.9 238.882 480.102C238.886 480.304 238.895 480.519 238.91 480.749C238.927 480.974 238.949 481.212 238.977 481.462C239.007 481.709 239.044 481.96 239.086 482.218C239.164 482.698 239.266 483.176 239.393 483.651C239.52 484.126 239.676 484.567 239.863 484.974ZM237.458 482.562L237.332 481.789C237.318 481.704 237.299 481.617 237.275 481.53C237.251 481.442 237.215 481.365 237.168 481.297C237.125 481.229 237.067 481.178 236.997 481.144C236.925 481.107 236.835 481.097 236.727 481.115C236.613 481.133 236.524 481.189 236.461 481.281C236.401 481.372 236.358 481.492 236.333 481.639C236.311 481.783 236.306 481.952 236.318 482.146C236.333 482.336 236.358 482.542 236.395 482.765C236.415 482.892 236.444 483.019 236.481 483.147C236.522 483.274 236.571 483.389 236.63 483.49C236.689 483.588 236.758 483.665 236.839 483.72C236.92 483.775 237.011 483.795 237.113 483.778C237.228 483.76 237.313 483.705 237.37 483.614C237.427 483.523 237.464 483.416 237.479 483.293C237.498 483.169 237.504 483.042 237.496 482.913C237.487 482.781 237.475 482.664 237.458 482.562ZM244.213 478.571C244.2 478.711 244.196 478.879 244.202 479.077C244.211 479.272 244.225 479.485 244.243 479.717C244.261 479.946 244.283 480.183 244.311 480.43C244.341 480.677 244.371 480.918 244.399 481.155C244.471 481.711 244.555 482.299 244.653 482.92C244.706 483.244 244.737 483.565 244.747 483.883C244.759 484.198 244.743 484.499 244.699 484.787C244.657 485.074 244.586 485.346 244.484 485.6C244.382 485.855 244.244 486.082 244.071 486.28C243.901 486.477 243.693 486.643 243.447 486.778C243.202 486.916 242.914 487.012 242.584 487.066C242.275 487.116 242.003 487.128 241.767 487.101C241.531 487.074 241.329 487.014 241.16 486.921C240.995 486.831 240.863 486.71 240.764 486.56C240.668 486.413 240.604 486.24 240.572 486.043C240.54 485.849 240.545 485.669 240.586 485.502C240.627 485.336 240.693 485.188 240.783 485.059C240.873 484.933 240.981 484.831 241.105 484.752C241.232 484.672 241.366 484.621 241.506 484.598C241.687 484.569 241.865 484.592 242.041 484.668C242.216 484.743 242.363 484.884 242.482 485.09C242.439 485.071 242.391 485.066 242.337 485.075C242.264 485.086 242.2 485.126 242.146 485.194C242.092 485.265 242.072 485.341 242.086 485.424C242.094 485.472 242.108 485.51 242.129 485.539C242.154 485.571 242.182 485.594 242.214 485.609C242.246 485.623 242.278 485.631 242.311 485.632C242.347 485.636 242.38 485.635 242.408 485.631C242.443 485.625 242.49 485.611 242.548 485.588C242.61 485.568 242.674 485.527 242.739 485.464C242.803 485.402 242.864 485.312 242.92 485.195C242.976 485.078 243.019 484.923 243.049 484.728C243.079 484.534 243.089 484.293 243.078 484.004C243.07 483.715 243.033 483.369 242.967 482.965C242.95 483.258 242.906 483.494 242.837 483.671C242.769 483.849 242.687 483.988 242.592 484.088C242.497 484.185 242.394 484.253 242.283 484.29C242.174 484.328 242.071 484.354 241.973 484.37C241.896 484.383 241.797 484.386 241.676 484.38C241.553 484.37 241.42 484.343 241.276 484.298C241.134 484.25 240.985 484.178 240.829 484.082C240.676 483.983 240.53 483.852 240.393 483.688C240.255 483.522 240.13 483.317 240.018 483.074C239.91 482.827 239.827 482.531 239.77 482.184C239.683 481.65 239.664 481.19 239.712 480.804C239.763 480.417 239.856 480.097 239.99 479.843C240.128 479.586 240.293 479.391 240.487 479.258C240.68 479.122 240.877 479.037 241.077 479.005C241.22 478.981 241.355 478.984 241.48 479.013C241.605 479.038 241.721 479.081 241.829 479.142C241.937 479.202 242.035 479.274 242.124 479.358C242.212 479.438 242.292 479.521 242.365 479.607C242.323 479.47 242.277 479.334 242.225 479.199C242.177 479.064 242.124 478.927 242.065 478.79C242.15 478.812 242.254 478.827 242.376 478.837C242.482 478.846 242.613 478.847 242.769 478.841C242.924 478.832 243.11 478.81 243.326 478.775C243.58 478.733 243.876 478.666 244.213 478.571ZM242.572 481.296C242.558 481.207 242.534 481.102 242.501 480.98C242.468 480.855 242.424 480.738 242.37 480.629C242.316 480.517 242.251 480.425 242.174 480.353C242.1 480.28 242.013 480.252 241.915 480.268C241.842 480.28 241.782 480.334 241.736 480.429C241.689 480.522 241.653 480.632 241.628 480.76C241.606 480.885 241.593 481.012 241.588 481.144C241.586 481.275 241.593 481.384 241.607 481.473C241.632 481.626 241.666 481.78 241.708 481.937C241.749 482.093 241.798 482.234 241.855 482.358C241.914 482.479 241.977 482.577 242.044 482.65C242.115 482.724 242.189 482.754 242.265 482.742C242.347 482.728 242.417 482.697 242.475 482.649C242.535 482.596 242.582 482.533 242.615 482.459C242.651 482.382 242.673 482.296 242.681 482.204C242.692 482.111 242.689 482.013 242.673 481.911L242.572 481.296Z" fill="#E7F0FF"/>
</svg>
