<svg width="20" height="20" viewBox="0 0 20 20" fill="none" xmlns="http://www.w3.org/2000/svg">
  <path d="M10.02 1.67c-4.6 0-8.33 3.73-8.33 8.33 0 1.47.39 2.9 1.12 4.17L1.67 18.33l4.28-1.12a8.3 8.3 0 0 0 4.07 1.06h.01c4.6 0 8.33-3.73 8.33-8.33 0-2.22-.87-4.32-2.44-5.89A8.28 8.28 0 0 0 10.02 1.67Zm0 15.24h-.01a6.9 6.9 0 0 1-3.53-.97l-.25-.15-2.54.67.68-2.48-.16-.25a6.91 6.91 0 1 1 12.81-3.65 6.9 6.9 0 0 1-6.99 6.83Zm3.79-5.17c-.21-.1-1.23-.6-1.42-.68-.19-.07-.33-.1-.47.1-.14.21-.54.68-.66.82-.12.14-.24.15-.45.05-.21-.1-.87-.32-1.66-1.02a6.2 6.2 0 0 1-1.15-1.43c-.12-.21-.01-.32.09-.42.09-.09.21-.24.31-.36.1-.12.14-.21.21-.34.07-.14.03-.26-.02-.36-.05-.1-.47-1.13-.64-1.55-.17-.4-.34-.35-.47-.35h-.4c-.14 0-.36.05-.55.26-.19.21-.72.71-.72 1.72s.74 2 .84 2.14c.1.14 1.45 2.22 3.52 3.11.49.21.87.34 1.17.43.49.16.94.13 1.29.08.4-.06 1.23-.5 1.4-.99.17-.48.17-.9.12-.98-.05-.09-.19-.14-.4-.24Z" fill="#fff"/>
</svg>
