<svg width="150" height="188" viewBox="0 0 150 188" fill="none" xmlns="http://www.w3.org/2000/svg">
<g clip-path="url(#clip0_1061_41048)">
<rect width="150" height="187.805" rx="4.87805" fill="#DF91B5"/>
<g clip-path="url(#clip1_1061_41048)">
<path d="M149.94 0H-37.8047V187.745H149.94V0Z" fill="#DF91B5"/>
<path d="M12.2605 12.5166H-0.255859V25.0329H12.2605V12.5166Z" fill="#B70012"/>
<path d="M24.7761 0H12.2598V12.5163H24.7761V0Z" fill="#B70012"/>
<path d="M37.2936 12.5166H24.7773V25.0329H37.2936V12.5166Z" fill="#B70012"/>
<path d="M49.8093 0H37.293V12.5163H49.8093V0Z" fill="#B70012"/>
<path d="M62.3249 12.5166H49.8086V25.0329H62.3249V12.5166Z" fill="#B70012"/>
<path d="M74.8405 0H62.3242V12.5163H74.8405V0Z" fill="#B70012"/>
<path d="M87.3582 12.5166H74.8418V25.0329H87.3582V12.5166Z" fill="#B70012"/>
<path d="M99.8737 0H87.3574V12.5163H99.8737V0Z" fill="#B70012"/>
<path d="M112.391 12.5166H99.875V25.0329H112.391V12.5166Z" fill="#B70012"/>
<path d="M124.907 0H112.391V12.5163H124.907V0Z" fill="#B70012"/>
<path d="M137.423 12.5166H124.906V25.0329H137.423V12.5166Z" fill="#B70012"/>
<path d="M149.94 0H137.424V12.5163H149.94V0Z" fill="#B70012"/>
<path d="M12.2605 37.5488H-0.255859V50.0651H12.2605V37.5488Z" fill="#B70012"/>
<path d="M24.7761 25.0322H12.2598V37.5485H24.7761V25.0322Z" fill="#B70012"/>
<path d="M37.2936 37.5488H24.7773V50.0651H37.2936V37.5488Z" fill="#B70012"/>
<path d="M49.8093 25.0322H37.293V37.5485H49.8093V25.0322Z" fill="#B70012"/>
<path d="M62.3249 37.5488H49.8086V50.0651H62.3249V37.5488Z" fill="#B70012"/>
<path d="M74.8405 25.0322H62.3242V37.5485H74.8405V25.0322Z" fill="#B70012"/>
<path d="M87.3582 37.5488H74.8418V50.0651H87.3582V37.5488Z" fill="#B70012"/>
<path d="M99.8737 25.0322H87.3574V37.5485H99.8737V25.0322Z" fill="#B70012"/>
<path d="M112.391 37.5488H99.875V50.0651H112.391V37.5488Z" fill="#B70012"/>
<path d="M124.907 25.0322H112.391V37.5485H124.907V25.0322Z" fill="#B70012"/>
<path d="M137.423 37.5488H124.906V50.0651H137.423V37.5488Z" fill="#B70012"/>
<path d="M149.94 25.0322H137.424V37.5485H149.94V25.0322Z" fill="#B70012"/>
<path d="M12.2605 62.5811H-0.255859V75.0973H12.2605V62.5811Z" fill="#B70012"/>
<path d="M24.7761 50.0645H12.2598V62.5807H24.7761V50.0645Z" fill="#B70012"/>
<path d="M37.2936 62.5811H24.7773V75.0973H37.2936V62.5811Z" fill="#B70012"/>
<path d="M49.8093 50.0645H37.293V62.5807H49.8093V50.0645Z" fill="#B70012"/>
<path d="M62.3249 62.5811H49.8086V75.0973H62.3249V62.5811Z" fill="#B70012"/>
<path d="M74.8405 50.0645H62.3242V62.5807H74.8405V50.0645Z" fill="#B70012"/>
<path d="M87.3582 62.5811H74.8418V75.0973H87.3582V62.5811Z" fill="#B70012"/>
<path d="M99.8737 50.0645H87.3574V62.5807H99.8737V50.0645Z" fill="#B70012"/>
<path d="M112.391 62.5811H99.875V75.0973H112.391V62.5811Z" fill="#B70012"/>
<path d="M124.907 50.0645H112.391V62.5807H124.907V50.0645Z" fill="#B70012"/>
<path d="M137.423 62.5811H124.906V75.0973H137.423V62.5811Z" fill="#B70012"/>
<path d="M149.94 50.0645H137.424V62.5807H149.94V50.0645Z" fill="#B70012"/>
<path d="M12.2605 87.6143H-0.255859V100.131H12.2605V87.6143Z" fill="#B70012"/>
<path d="M24.7761 75.0986H12.2598V87.6149H24.7761V75.0986Z" fill="#B70012"/>
<path d="M37.2936 87.6143H24.7773V100.131H37.2936V87.6143Z" fill="#B70012"/>
<path d="M49.8093 75.0986H37.293V87.6149H49.8093V75.0986Z" fill="#B70012"/>
<path d="M62.3249 87.6143H49.8086V100.131H62.3249V87.6143Z" fill="#B70012"/>
<path d="M74.8405 75.0986H62.3242V87.6149H74.8405V75.0986Z" fill="#B70012"/>
<path d="M87.3582 87.6143H74.8418V100.131H87.3582V87.6143Z" fill="#B70012"/>
<path d="M99.8737 75.0986H87.3574V87.6149H99.8737V75.0986Z" fill="#B70012"/>
<path d="M112.391 87.6143H99.875V100.131H112.391V87.6143Z" fill="#B70012"/>
<path d="M124.907 75.0986H112.391V87.6149H124.907V75.0986Z" fill="#B70012"/>
<path d="M137.423 87.6143H124.906V100.131H137.423V87.6143Z" fill="#B70012"/>
<path d="M149.94 75.0986H137.424V87.6149H149.94V75.0986Z" fill="#B70012"/>
<path d="M12.2605 112.646H-0.255859V125.163H12.2605V112.646Z" fill="#B70012"/>
<path d="M24.7761 100.131H12.2598V112.647H24.7761V100.131Z" fill="#B70012"/>
<path d="M37.2936 112.646H24.7773V125.163H37.2936V112.646Z" fill="#B70012"/>
<path d="M49.8093 100.131H37.293V112.647H49.8093V100.131Z" fill="#B70012"/>
<path d="M62.3249 112.646H49.8086V125.163H62.3249V112.646Z" fill="#B70012"/>
<path d="M74.8405 100.131H62.3242V112.647H74.8405V100.131Z" fill="#B70012"/>
<path d="M87.3582 112.646H74.8418V125.163H87.3582V112.646Z" fill="#B70012"/>
<path d="M99.8737 100.131H87.3574V112.647H99.8737V100.131Z" fill="#B70012"/>
<path d="M112.391 112.646H99.875V125.163H112.391V112.646Z" fill="#B70012"/>
<path d="M124.907 100.131H112.391V112.647H124.907V100.131Z" fill="#B70012"/>
<path d="M137.423 112.646H124.906V125.163H137.423V112.646Z" fill="#B70012"/>
<path d="M149.94 100.131H137.424V112.647H149.94V100.131Z" fill="#B70012"/>
<path d="M12.2605 137.68H-0.255859V150.196H12.2605V137.68Z" fill="#B70012"/>
<path d="M24.7761 125.163H12.2598V137.679H24.7761V125.163Z" fill="#B70012"/>
<path d="M37.2936 137.68H24.7773V150.196H37.2936V137.68Z" fill="#B70012"/>
<path d="M49.8093 125.163H37.293V137.679H49.8093V125.163Z" fill="#B70012"/>
<path d="M62.3249 137.68H49.8086V150.196H62.3249V137.68Z" fill="#B70012"/>
<path d="M74.8405 125.163H62.3242V137.679H74.8405V125.163Z" fill="#B70012"/>
<path d="M87.3582 137.68H74.8418V150.196H87.3582V137.68Z" fill="#B70012"/>
<path d="M99.8737 125.163H87.3574V137.679H99.8737V125.163Z" fill="#B70012"/>
<path d="M112.391 137.68H99.875V150.196H112.391V137.68Z" fill="#B70012"/>
<path d="M124.907 125.163H112.391V137.679H124.907V125.163Z" fill="#B70012"/>
<path d="M137.423 137.68H124.906V150.196H137.423V137.68Z" fill="#B70012"/>
<path d="M149.94 125.163H137.424V137.679H149.94V125.163Z" fill="#B70012"/>
<path d="M12.2605 162.713H-0.255859V175.229H12.2605V162.713Z" fill="#B70012"/>
<path d="M24.7761 150.195H12.2598V162.712H24.7761V150.195Z" fill="#B70012"/>
<path d="M37.2936 162.713H24.7773V175.229H37.2936V162.713Z" fill="#B70012"/>
<path d="M49.8093 150.195H37.293V162.712H49.8093V150.195Z" fill="#B70012"/>
<path d="M62.3249 162.713H49.8086V175.229H62.3249V162.713Z" fill="#B70012"/>
<path d="M74.8405 150.195H62.3242V162.712H74.8405V150.195Z" fill="#B70012"/>
<path d="M87.3582 162.713H74.8418V175.229H87.3582V162.713Z" fill="#B70012"/>
<path d="M99.8737 150.195H87.3574V162.712H99.8737V150.195Z" fill="#B70012"/>
<path d="M112.391 162.713H99.875V175.229H112.391V162.713Z" fill="#B70012"/>
<path d="M124.907 150.195H112.391V162.712H124.907V150.195Z" fill="#B70012"/>
<path d="M137.423 162.713H124.906V175.229H137.423V162.713Z" fill="#B70012"/>
<path d="M149.94 150.195H137.424V162.712H149.94V150.195Z" fill="#B70012"/>
<path d="M24.7761 175.229H12.2598V187.745H24.7761V175.229Z" fill="#B70012"/>
<path d="M49.8093 175.229H37.293V187.745H49.8093V175.229Z" fill="#B70012"/>
<path d="M74.8405 175.229H62.3242V187.745H74.8405V175.229Z" fill="#B70012"/>
<path d="M99.8737 175.229H87.3574V187.745H99.8737V175.229Z" fill="#B70012"/>
<path d="M124.907 175.229H112.391V187.745H124.907V175.229Z" fill="#B70012"/>
<path d="M149.94 175.229H137.424V187.745H149.94V175.229Z" fill="#B70012"/>
<rect width="127.439" height="163.902" transform="translate(10 12.4395)" fill="#B70012"/>
</g>
<path d="M55.5761 155.325C55.2197 155.325 54.9025 155.235 54.6243 155.056C54.3461 154.877 54.1279 154.624 53.9697 154.299C53.8135 153.971 53.7354 153.585 53.7354 153.141C53.7354 152.695 53.8135 152.308 53.9697 151.981C54.1279 151.653 54.3461 151.399 54.6243 151.22C54.9025 151.041 55.2197 150.952 55.5761 150.952C55.8028 150.952 56.0105 150.987 56.1992 151.057C56.3897 151.128 56.5584 151.226 56.7051 151.352C56.8518 151.478 56.9718 151.625 57.0652 151.795C57.1605 151.963 57.2253 152.144 57.2596 152.341H56.868C56.8394 152.194 56.787 152.059 56.7108 151.935C56.6346 151.811 56.5393 151.702 56.425 151.609C56.3125 151.516 56.1849 151.443 56.042 151.392C55.8991 151.34 55.7438 151.315 55.5761 151.315C55.3074 151.315 55.0616 151.385 54.8387 151.526C54.6176 151.665 54.4404 151.871 54.307 152.144C54.1755 152.414 54.1098 152.747 54.1098 153.141C54.1098 153.535 54.1755 153.868 54.307 154.139C54.4404 154.409 54.6176 154.614 54.8387 154.753C55.0616 154.892 55.3074 154.962 55.5761 154.962C55.7438 154.962 55.8991 154.936 56.042 154.885C56.1849 154.833 56.3125 154.761 56.425 154.667C56.5393 154.574 56.6346 154.465 56.7108 154.342C56.787 154.218 56.8394 154.082 56.868 153.936H57.2596C57.2253 154.132 57.1605 154.315 57.0652 154.484C56.9718 154.652 56.8518 154.799 56.7051 154.925C56.5584 155.05 56.3897 155.148 56.1992 155.219C56.0105 155.289 55.8028 155.325 55.5761 155.325ZM59.6491 155.325C59.2908 155.325 58.9726 155.235 58.6944 155.056C58.4162 154.877 58.198 154.624 58.0399 154.296C57.8836 153.968 57.8055 153.583 57.8055 153.141C57.8055 152.697 57.8846 152.311 58.0427 151.983C58.2009 151.654 58.4181 151.399 58.6944 151.22C58.9726 151.041 59.2908 150.952 59.6491 150.952C60.0073 150.952 60.3246 151.041 60.6008 151.22C60.8771 151.399 61.0934 151.654 61.2497 151.983C61.4078 152.311 61.4869 152.697 61.4869 153.141C61.4869 153.583 61.4078 153.968 61.2497 154.296C61.0934 154.624 60.8771 154.877 60.6008 155.056C60.3246 155.235 60.0073 155.325 59.6491 155.325ZM59.6491 154.962C59.9273 154.962 60.1769 154.889 60.3979 154.745C60.6189 154.6 60.7933 154.392 60.921 154.121C61.0486 153.849 61.1125 153.522 61.1125 153.141C61.1125 152.758 61.0486 152.43 60.921 152.158C60.7933 151.885 60.6189 151.677 60.3979 151.532C60.1769 151.387 59.9273 151.315 59.6491 151.315C59.3709 151.315 59.1203 151.387 58.8973 151.532C58.6763 151.677 58.501 151.885 58.3714 152.158C58.2438 152.43 58.1799 152.758 58.1799 153.141C58.1799 153.52 58.2438 153.846 58.3714 154.119C58.4991 154.391 58.6734 154.6 58.8945 154.745C59.1174 154.889 59.3689 154.962 59.6491 154.962ZM65.5627 151.009V155.268H65.1797L62.6673 151.703H62.6302V155.268H62.2415V151.009H62.6188L65.1454 154.579H65.1769V151.009H65.5627ZM66.5202 151.009L67.8493 154.762H67.8893L69.2213 151.009H69.6271L68.078 155.268H67.6635L66.1115 151.009H66.5202ZM70.1702 155.268V151.009H72.6426V151.36H70.5589V152.95H72.5111V153.298H70.5589V154.919H72.6826V155.268H70.1702ZM73.4629 155.268V151.009H74.8406C75.1435 151.009 75.396 151.064 75.598 151.175C75.8 151.283 75.9524 151.434 76.0553 151.626C76.1601 151.819 76.2125 152.039 76.2125 152.286C76.2125 152.534 76.1611 152.753 76.0582 152.944C75.9553 153.132 75.8019 153.28 75.598 153.387C75.396 153.494 75.1454 153.547 74.8463 153.547H73.6773V153.193H74.8348C75.0578 153.193 75.2426 153.155 75.3893 153.081C75.5361 153.007 75.6456 152.902 75.718 152.767C75.7923 152.631 75.8295 152.471 75.8295 152.286C75.8295 152.1 75.7923 151.937 75.718 151.798C75.6437 151.659 75.5332 151.551 75.3865 151.475C75.2398 151.398 75.054 151.36 74.8291 151.36H73.8516V155.268H73.4629ZM75.9381 155.268L74.9034 153.344H75.3436L76.3897 155.268H75.9381ZM78.2504 155.339C77.9608 155.339 77.7093 155.291 77.4959 155.196C77.2824 155.101 77.1148 154.967 76.9928 154.796C76.8709 154.624 76.8023 154.426 76.787 154.201H77.1843C77.1995 154.371 77.2548 154.514 77.3501 154.63C77.4473 154.746 77.574 154.835 77.7302 154.896C77.8865 154.955 78.0599 154.985 78.2504 154.985C78.4638 154.985 78.6534 154.949 78.8192 154.879C78.985 154.806 79.1146 154.706 79.2079 154.579C79.3032 154.451 79.3508 154.301 79.3508 154.13C79.3508 153.985 79.3127 153.864 79.2365 153.767C79.1622 153.67 79.0584 153.588 78.925 153.521C78.7916 153.455 78.6363 153.395 78.4591 153.344L77.9532 153.195C77.6197 153.098 77.3606 152.961 77.1757 152.784C76.9909 152.607 76.8985 152.382 76.8985 152.109C76.8985 151.881 76.9595 151.68 77.0814 151.506C77.2053 151.331 77.372 151.195 77.5816 151.097C77.7912 150.998 78.0265 150.949 78.2876 150.949C78.5524 150.949 78.7868 150.998 78.9907 151.097C79.1946 151.195 79.3566 151.328 79.4766 151.498C79.5967 151.665 79.6614 151.857 79.671 152.072H79.2908C79.268 151.836 79.1641 151.648 78.9793 151.509C78.7944 151.368 78.5601 151.297 78.2761 151.297C78.0799 151.297 77.9065 151.332 77.756 151.4C77.6054 151.469 77.4873 151.563 77.4015 151.683C77.3177 151.803 77.2758 151.94 77.2758 152.092C77.2758 152.241 77.3177 152.366 77.4015 152.467C77.4854 152.566 77.5921 152.647 77.7217 152.709C77.8512 152.772 77.9846 152.825 78.1218 152.867L78.5705 152.995C78.7058 153.035 78.8411 153.085 78.9764 153.144C79.1117 153.201 79.2356 153.273 79.348 153.361C79.4623 153.449 79.5538 153.556 79.6224 153.684C79.6929 153.81 79.7281 153.961 79.7281 154.139C79.7281 154.363 79.6691 154.567 79.5509 154.75C79.4328 154.931 79.2632 155.075 79.0422 155.182C78.823 155.287 78.5591 155.339 78.2504 155.339ZM80.4913 155.268H80.0826L81.6346 151.009H82.049L83.5982 155.268H83.1923L81.8547 151.515H81.8261L80.4913 155.268ZM80.7857 153.636H82.8979V153.984H80.7857V153.636ZM83.3867 151.36V151.009H86.4764V151.36H85.1273V155.268H84.7415V151.36H83.3867ZM87.554 151.009V155.268H87.1652V151.009H87.554ZM90.1578 155.325C89.7996 155.325 89.4814 155.235 89.2032 155.056C88.925 154.877 88.7068 154.624 88.5486 154.296C88.3924 153.968 88.3143 153.583 88.3143 153.141C88.3143 152.697 88.3933 152.311 88.5515 151.983C88.7096 151.654 88.9269 151.399 89.2032 151.22C89.4814 151.041 89.7996 150.952 90.1578 150.952C90.5161 150.952 90.8333 151.041 91.1096 151.22C91.3859 151.399 91.6022 151.654 91.7584 151.983C91.9166 152.311 91.9957 152.697 91.9957 153.141C91.9957 153.583 91.9166 153.968 91.7584 154.296C91.6022 154.624 91.3859 154.877 91.1096 155.056C90.8333 155.235 90.5161 155.325 90.1578 155.325ZM90.1578 154.962C90.436 154.962 90.6856 154.889 90.9067 154.745C91.1277 154.6 91.3021 154.392 91.4297 154.121C91.5574 153.849 91.6212 153.522 91.6212 153.141C91.6212 152.758 91.5574 152.43 91.4297 152.158C91.3021 151.885 91.1277 151.677 90.9067 151.532C90.6856 151.387 90.436 151.315 90.1578 151.315C89.8796 151.315 89.629 151.387 89.4061 151.532C89.1851 151.677 89.0098 151.885 88.8802 152.158C88.7525 152.43 88.6887 152.758 88.6887 153.141C88.6887 153.52 88.7525 153.846 88.8802 154.119C89.0079 154.391 89.1822 154.6 89.4032 154.745C89.6262 154.889 89.8777 154.962 90.1578 154.962ZM96.0715 151.009V155.268H95.6885L93.1761 151.703H93.139V155.268H92.7502V151.009H93.1275L95.6542 154.579H95.6856V151.009H96.0715ZM53.4238 162.325C53.0675 162.325 52.7502 162.235 52.472 162.056C52.1938 161.877 51.9757 161.624 51.8175 161.299C51.6613 160.971 51.5831 160.585 51.5831 160.141C51.5831 159.695 51.6613 159.308 51.8175 158.981C51.9757 158.653 52.1938 158.399 52.472 158.22C52.7502 158.041 53.0675 157.952 53.4238 157.952C53.6506 157.952 53.8583 157.987 54.0469 158.057C54.2375 158.128 54.4061 158.226 54.5528 158.352C54.6996 158.478 54.8196 158.625 54.913 158.795C55.0082 158.963 55.073 159.144 55.1073 159.341H54.7157C54.6872 159.194 54.6348 159.059 54.5585 158.935C54.4823 158.811 54.3871 158.702 54.2727 158.609C54.1603 158.516 54.0326 158.443 53.8897 158.392C53.7468 158.34 53.5915 158.315 53.4238 158.315C53.1552 158.315 52.9093 158.385 52.6864 158.526C52.4654 158.665 52.2882 158.871 52.1548 159.144C52.0233 159.414 51.9576 159.747 51.9576 160.141C51.9576 160.535 52.0233 160.868 52.1548 161.139C52.2882 161.409 52.4654 161.614 52.6864 161.753C52.9093 161.892 53.1552 161.962 53.4238 161.962C53.5915 161.962 53.7468 161.936 53.8897 161.885C54.0326 161.833 54.1603 161.761 54.2727 161.667C54.3871 161.574 54.4823 161.465 54.5585 161.342C54.6348 161.218 54.6872 161.082 54.7157 160.936H55.1073C55.073 161.132 55.0082 161.315 54.913 161.484C54.8196 161.652 54.6996 161.799 54.5528 161.925C54.4061 162.05 54.2375 162.148 54.0469 162.219C53.8583 162.289 53.6506 162.325 53.4238 162.325ZM55.8505 162.268H55.4417L56.9938 158.009H57.4082L58.9574 162.268H58.5515L57.2138 158.515H57.1853L55.8505 162.268ZM56.1449 160.636H58.2571V160.984H56.1449V160.636ZM59.5004 162.268V158.009H60.8781C61.1811 158.009 61.4335 158.064 61.6355 158.175C61.8375 158.283 61.9899 158.434 62.0928 158.626C62.1976 158.819 62.25 159.039 62.25 159.286C62.25 159.534 62.1986 159.753 62.0957 159.944C61.9928 160.132 61.8394 160.28 61.6355 160.387C61.4335 160.494 61.183 160.547 60.8838 160.547H59.7148V160.193H60.8724C61.0953 160.193 61.2802 160.155 61.4269 160.081C61.5736 160.007 61.6832 159.902 61.7556 159.767C61.8299 159.631 61.867 159.471 61.867 159.286C61.867 159.1 61.8299 158.937 61.7556 158.798C61.6813 158.659 61.5707 158.551 61.424 158.475C61.2773 158.398 61.0915 158.36 60.8667 158.36H59.8891V162.268H59.5004ZM61.9757 162.268L60.941 160.344H61.3811L62.4273 162.268H61.9757ZM64.2651 162.268H63.2333V161.919H64.2422C64.6081 161.919 64.9139 161.847 65.1597 161.705C65.4074 161.56 65.5932 161.354 65.7171 161.087C65.8409 160.818 65.9029 160.498 65.9029 160.127C65.9029 159.761 65.8419 159.447 65.7199 159.184C65.5999 158.919 65.4217 158.716 65.1855 158.575C64.9511 158.432 64.6614 158.36 64.3165 158.36H63.219V158.009H64.3394C64.7453 158.009 65.093 158.094 65.3827 158.263C65.6723 158.433 65.8933 158.676 66.0458 158.992C66.2001 159.308 66.2773 159.687 66.2773 160.127C66.2773 160.575 66.1982 160.959 66.0401 161.279C65.8838 161.597 65.6552 161.842 65.3541 162.013C65.0549 162.183 64.6919 162.268 64.2651 162.268ZM63.4048 158.009V162.268H63.0161V158.009H63.4048ZM68.3066 162.339C68.017 162.339 67.7655 162.291 67.5521 162.196C67.3387 162.101 67.171 161.967 67.049 161.796C66.9271 161.624 66.8585 161.426 66.8432 161.201H67.2405C67.2558 161.371 67.311 161.514 67.4063 161.63C67.5035 161.746 67.6302 161.835 67.7864 161.896C67.9427 161.955 68.1161 161.985 68.3066 161.985C68.5201 161.985 68.7096 161.949 68.8754 161.879C69.0412 161.806 69.1708 161.706 69.2641 161.579C69.3594 161.451 69.4071 161.301 69.4071 161.13C69.4071 160.985 69.3689 160.864 69.2927 160.767C69.2184 160.67 69.1146 160.588 68.9812 160.521C68.8478 160.455 68.6925 160.395 68.5153 160.344L68.0094 160.195C67.6759 160.098 67.4168 159.961 67.2319 159.784C67.0471 159.607 66.9547 159.382 66.9547 159.109C66.9547 158.881 67.0157 158.68 67.1376 158.506C67.2615 158.331 67.4282 158.195 67.6378 158.097C67.8474 157.998 68.0827 157.949 68.3438 157.949C68.6087 157.949 68.843 157.998 69.0469 158.097C69.2508 158.195 69.4128 158.328 69.5328 158.498C69.6529 158.665 69.7177 158.857 69.7272 159.072H69.347C69.3242 158.836 69.2203 158.648 69.0355 158.509C68.8507 158.368 68.6163 158.297 68.3324 158.297C68.1361 158.297 67.9627 158.332 67.8122 158.4C67.6616 158.469 67.5435 158.563 67.4577 158.683C67.3739 158.803 67.332 158.94 67.332 159.092C67.332 159.241 67.3739 159.366 67.4577 159.467C67.5416 159.566 67.6483 159.647 67.7779 159.709C67.9074 159.772 68.0408 159.825 68.178 159.867L68.6268 159.995C68.7621 160.035 68.8973 160.085 69.0326 160.144C69.1679 160.201 69.2918 160.273 69.4042 160.361C69.5185 160.449 69.61 160.556 69.6786 160.684C69.7491 160.81 69.7843 160.961 69.7843 161.139C69.7843 161.363 69.7253 161.567 69.6071 161.75C69.489 161.931 69.3194 162.075 69.0984 162.182C68.8792 162.287 68.6153 162.339 68.3066 162.339ZM71.7451 158.36V158.009H74.8348V158.36H73.4858V162.268H73.0999V158.36H71.7451ZM77.0071 162.325C76.6489 162.325 76.3306 162.235 76.0524 162.056C75.7742 161.877 75.5561 161.624 75.3979 161.296C75.2417 160.968 75.1635 160.583 75.1635 160.141C75.1635 159.697 75.2426 159.311 75.4008 158.983C75.5589 158.654 75.7762 158.399 76.0524 158.22C76.3306 158.041 76.6489 157.952 77.0071 157.952C77.3653 157.952 77.6826 158.041 77.9589 158.22C78.2352 158.399 78.4515 158.654 78.6077 158.983C78.7659 159.311 78.8449 159.697 78.8449 160.141C78.8449 160.583 78.7659 160.968 78.6077 161.296C78.4515 161.624 78.2352 161.877 77.9589 162.056C77.6826 162.235 77.3653 162.325 77.0071 162.325ZM77.0071 161.962C77.2853 161.962 77.5349 161.889 77.756 161.745C77.977 161.6 78.1513 161.392 78.279 161.121C78.4067 160.849 78.4705 160.522 78.4705 160.141C78.4705 159.758 78.4067 159.43 78.279 159.158C78.1513 158.885 77.977 158.677 77.756 158.532C77.5349 158.387 77.2853 158.315 77.0071 158.315C76.7289 158.315 76.4783 158.387 76.2554 158.532C76.0343 158.677 75.859 158.885 75.7295 159.158C75.6018 159.43 75.538 159.758 75.538 160.141C75.538 160.52 75.6018 160.846 75.7295 161.119C75.8571 161.391 76.0315 161.6 76.2525 161.745C76.4755 161.889 76.727 161.962 77.0071 161.962ZM82.3348 162.339C82.0452 162.339 81.7937 162.291 81.5803 162.196C81.3668 162.101 81.1992 161.967 81.0772 161.796C80.9553 161.624 80.8867 161.426 80.8714 161.201H81.2687C81.284 161.371 81.3392 161.514 81.4345 161.63C81.5317 161.746 81.6584 161.835 81.8146 161.896C81.9709 161.955 82.1443 161.985 82.3348 161.985C82.5483 161.985 82.7378 161.949 82.9036 161.879C83.0694 161.806 83.199 161.706 83.2923 161.579C83.3876 161.451 83.4353 161.301 83.4353 161.13C83.4353 160.985 83.3971 160.864 83.3209 160.767C83.2466 160.67 83.1428 160.588 83.0094 160.521C82.876 160.455 82.7207 160.395 82.5435 160.344L82.0376 160.195C81.7041 160.098 81.445 159.961 81.2601 159.784C81.0753 159.607 80.9829 159.382 80.9829 159.109C80.9829 158.881 81.0439 158.68 81.1658 158.506C81.2897 158.331 81.4564 158.195 81.666 158.097C81.8756 157.998 82.1109 157.949 82.372 157.949C82.6369 157.949 82.8712 157.998 83.0751 158.097C83.279 158.195 83.441 158.328 83.561 158.498C83.6811 158.665 83.7459 158.857 83.7554 159.072H83.3752C83.3524 158.836 83.2485 158.648 83.0637 158.509C82.8789 158.368 82.6445 158.297 82.3606 158.297C82.1643 158.297 81.9909 158.332 81.8404 158.4C81.6898 158.469 81.5717 158.563 81.4859 158.683C81.4021 158.803 81.3602 158.94 81.3602 159.092C81.3602 159.241 81.4021 159.366 81.4859 159.467C81.5698 159.566 81.6765 159.647 81.8061 159.709C81.9356 159.772 82.069 159.825 82.2062 159.867L82.655 159.995C82.7902 160.035 82.9255 160.085 83.0608 160.144C83.1961 160.201 83.32 160.273 83.4324 160.361C83.5467 160.449 83.6382 160.556 83.7068 160.684C83.7773 160.81 83.8125 160.961 83.8125 161.139C83.8125 161.363 83.7535 161.567 83.6353 161.75C83.5172 161.931 83.3476 162.075 83.1266 162.182C82.9074 162.287 82.6435 162.339 82.3348 162.339ZM84.5671 162.268V158.009H84.9558V159.961H87.3739V158.009H87.7598V162.268H87.3739V160.31H84.9558V162.268H84.5671ZM88.7144 162.268H88.3057L89.8577 158.009H90.2721L91.8213 162.268H91.4154L90.0778 158.515H90.0492L88.7144 162.268ZM89.0088 160.636H91.121V160.984H89.0088V160.636ZM92.3644 162.268V158.009H93.742C94.045 158.009 94.2975 158.064 94.4995 158.175C94.7015 158.283 94.8539 158.434 94.9568 158.626C95.0616 158.819 95.114 159.039 95.114 159.286C95.114 159.534 95.0625 159.753 94.9597 159.944C94.8568 160.132 94.7034 160.28 94.4995 160.387C94.2975 160.494 94.0469 160.547 93.7478 160.547H92.5787V160.193H93.7363C93.9593 160.193 94.1441 160.155 94.2908 160.081C94.4375 160.007 94.5471 159.902 94.6195 159.767C94.6938 159.631 94.731 159.471 94.731 159.286C94.731 159.1 94.6938 158.937 94.6195 158.798C94.5452 158.659 94.4347 158.551 94.288 158.475C94.1412 158.398 93.9555 158.36 93.7306 158.36H92.7531V162.268H92.3644ZM94.8396 162.268L93.8049 160.344H94.2451L95.2912 162.268H94.8396ZM95.88 162.268V158.009H98.3524V158.36H96.2687V159.95H98.2209V160.298H96.2687V161.919H98.3924V162.268H95.88Z" fill="#DF91B5"/>
</g>
<defs>
<clipPath id="clip0_1061_41048">
<rect width="150" height="187.805" rx="4.87805" fill="white"/>
</clipPath>
<clipPath id="clip1_1061_41048">
<rect width="187.805" height="187.805" fill="white" transform="translate(-37.8047)"/>
</clipPath>
</defs>
</svg>
