<svg width="365" height="457" viewBox="0 0 365 457" fill="none" xmlns="http://www.w3.org/2000/svg">
<g clip-path="url(#clip0_1100_2662)">
<rect width="365.007" height="457" rx="11.8701" fill="#DF91B5"/>
<g clip-path="url(#clip1_1100_2662)">
<path d="M364.861 0H-91.9922V456.854H364.861V0Z" fill="#DF91B5"/>
<path d="M29.834 30.457H-0.623047V60.9139H29.834V30.457Z" fill="#B70012"/>
<path d="M60.2928 0H29.8359V30.4568H60.2928V0Z" fill="#B70012"/>
<path d="M90.7498 30.457H60.293V60.9139H90.7498V30.457Z" fill="#B70012"/>
<path d="M121.207 0H90.75V30.4568H121.207V0Z" fill="#B70012"/>
<path d="M151.662 30.457H121.205V60.9139H151.662V30.457Z" fill="#B70012"/>
<path d="M182.119 0H151.662V30.4568H182.119V0Z" fill="#B70012"/>
<path d="M212.576 30.457H182.119V60.9139H212.576V30.457Z" fill="#B70012"/>
<path d="M243.033 0H212.576V30.4568H243.033V0Z" fill="#B70012"/>
<path d="M273.49 30.457H243.033V60.9139H273.49V30.457Z" fill="#B70012"/>
<path d="M303.945 0H273.488V30.4568H303.945V0Z" fill="#B70012"/>
<path d="M334.404 30.457H303.947V60.9139H334.404V30.457Z" fill="#B70012"/>
<path d="M364.861 0H334.404V30.4568H364.861V0Z" fill="#B70012"/>
<path d="M29.834 91.3711H-0.623047V121.828H29.834V91.3711Z" fill="#B70012"/>
<path d="M60.2928 60.9141H29.8359V91.3709H60.2928V60.9141Z" fill="#B70012"/>
<path d="M90.7498 91.3711H60.293V121.828H90.7498V91.3711Z" fill="#B70012"/>
<path d="M121.207 60.9141H90.75V91.3709H121.207V60.9141Z" fill="#B70012"/>
<path d="M151.662 91.3711H121.205V121.828H151.662V91.3711Z" fill="#B70012"/>
<path d="M182.119 60.9141H151.662V91.3709H182.119V60.9141Z" fill="#B70012"/>
<path d="M212.576 91.3711H182.119V121.828H212.576V91.3711Z" fill="#B70012"/>
<path d="M243.033 60.9141H212.576V91.3709H243.033V60.9141Z" fill="#B70012"/>
<path d="M273.49 91.3711H243.033V121.828H273.49V91.3711Z" fill="#B70012"/>
<path d="M303.945 60.9141H273.488V91.3709H303.945V60.9141Z" fill="#B70012"/>
<path d="M334.404 91.3711H303.947V121.828H334.404V91.3711Z" fill="#B70012"/>
<path d="M364.861 60.9141H334.404V91.3709H364.861V60.9141Z" fill="#B70012"/>
<path d="M29.834 152.285H-0.623047V182.742H29.834V152.285Z" fill="#B70012"/>
<path d="M60.2928 121.828H29.8359V152.285H60.2928V121.828Z" fill="#B70012"/>
<path d="M90.7498 152.285H60.293V182.742H90.7498V152.285Z" fill="#B70012"/>
<path d="M121.207 121.828H90.75V152.285H121.207V121.828Z" fill="#B70012"/>
<path d="M151.662 152.285H121.205V182.742H151.662V152.285Z" fill="#B70012"/>
<path d="M182.119 121.828H151.662V152.285H182.119V121.828Z" fill="#B70012"/>
<path d="M212.576 152.285H182.119V182.742H212.576V152.285Z" fill="#B70012"/>
<path d="M243.033 121.828H212.576V152.285H243.033V121.828Z" fill="#B70012"/>
<path d="M273.49 152.285H243.033V182.742H273.49V152.285Z" fill="#B70012"/>
<path d="M303.945 121.828H273.488V152.285H303.945V121.828Z" fill="#B70012"/>
<path d="M334.404 152.285H303.947V182.742H334.404V152.285Z" fill="#B70012"/>
<path d="M364.861 121.828H334.404V152.285H364.861V121.828Z" fill="#B70012"/>
<path d="M29.834 213.199H-0.623047V243.656H29.834V213.199Z" fill="#B70012"/>
<path d="M60.2928 182.742H29.8359V213.199H60.2928V182.742Z" fill="#B70012"/>
<path d="M90.7498 213.199H60.293V243.656H90.7498V213.199Z" fill="#B70012"/>
<path d="M121.207 182.742H90.75V213.199H121.207V182.742Z" fill="#B70012"/>
<path d="M151.662 213.199H121.205V243.656H151.662V213.199Z" fill="#B70012"/>
<path d="M182.119 182.742H151.662V213.199H182.119V182.742Z" fill="#B70012"/>
<path d="M212.576 213.199H182.119V243.656H212.576V213.199Z" fill="#B70012"/>
<path d="M243.033 182.742H212.576V213.199H243.033V182.742Z" fill="#B70012"/>
<path d="M273.49 213.199H243.033V243.656H273.49V213.199Z" fill="#B70012"/>
<path d="M303.945 182.742H273.488V213.199H303.945V182.742Z" fill="#B70012"/>
<path d="M334.404 213.199H303.947V243.656H334.404V213.199Z" fill="#B70012"/>
<path d="M364.861 182.742H334.404V213.199H364.861V182.742Z" fill="#B70012"/>
<path d="M29.834 274.111H-0.623047V304.568H29.834V274.111Z" fill="#B70012"/>
<path d="M60.2928 243.656H29.8359V274.113H60.2928V243.656Z" fill="#B70012"/>
<path d="M90.7498 274.111H60.293V304.568H90.7498V274.111Z" fill="#B70012"/>
<path d="M121.207 243.656H90.75V274.113H121.207V243.656Z" fill="#B70012"/>
<path d="M151.662 274.111H121.205V304.568H151.662V274.111Z" fill="#B70012"/>
<path d="M182.119 243.656H151.662V274.113H182.119V243.656Z" fill="#B70012"/>
<path d="M212.576 274.111H182.119V304.568H212.576V274.111Z" fill="#B70012"/>
<path d="M243.033 243.656H212.576V274.113H243.033V243.656Z" fill="#B70012"/>
<path d="M273.49 274.111H243.033V304.568H273.49V274.111Z" fill="#B70012"/>
<path d="M303.945 243.656H273.488V274.113H303.945V243.656Z" fill="#B70012"/>
<path d="M334.404 274.111H303.947V304.568H334.404V274.111Z" fill="#B70012"/>
<path d="M364.861 243.656H334.404V274.113H364.861V243.656Z" fill="#B70012"/>
<path d="M29.834 335.025H-0.623047V365.482H29.834V335.025Z" fill="#B70012"/>
<path d="M60.2928 304.568H29.8359V335.025H60.2928V304.568Z" fill="#B70012"/>
<path d="M90.7498 335.025H60.293V365.482H90.7498V335.025Z" fill="#B70012"/>
<path d="M121.207 304.568H90.75V335.025H121.207V304.568Z" fill="#B70012"/>
<path d="M151.662 335.025H121.205V365.482H151.662V335.025Z" fill="#B70012"/>
<path d="M182.119 304.568H151.662V335.025H182.119V304.568Z" fill="#B70012"/>
<path d="M212.576 335.025H182.119V365.482H212.576V335.025Z" fill="#B70012"/>
<path d="M243.033 304.568H212.576V335.025H243.033V304.568Z" fill="#B70012"/>
<path d="M273.49 335.025H243.033V365.482H273.49V335.025Z" fill="#B70012"/>
<path d="M303.945 304.568H273.488V335.025H303.945V304.568Z" fill="#B70012"/>
<path d="M334.404 335.025H303.947V365.482H334.404V335.025Z" fill="#B70012"/>
<path d="M364.861 304.568H334.404V335.025H364.861V304.568Z" fill="#B70012"/>
<path d="M29.834 395.939H-0.623047V426.396H29.834V395.939Z" fill="#B70012"/>
<path d="M60.2928 365.482H29.8359V395.939H60.2928V365.482Z" fill="#B70012"/>
<path d="M90.7498 395.939H60.293V426.396H90.7498V395.939Z" fill="#B70012"/>
<path d="M121.207 365.482H90.75V395.939H121.207V365.482Z" fill="#B70012"/>
<path d="M151.662 395.939H121.205V426.396H151.662V395.939Z" fill="#B70012"/>
<path d="M182.119 365.482H151.662V395.939H182.119V365.482Z" fill="#B70012"/>
<path d="M212.576 395.939H182.119V426.396H212.576V395.939Z" fill="#B70012"/>
<path d="M243.033 365.482H212.576V395.939H243.033V365.482Z" fill="#B70012"/>
<path d="M273.49 395.939H243.033V426.396H273.49V395.939Z" fill="#B70012"/>
<path d="M303.945 365.482H273.488V395.939H303.945V365.482Z" fill="#B70012"/>
<path d="M334.404 395.939H303.947V426.396H334.404V395.939Z" fill="#B70012"/>
<path d="M364.861 365.482H334.404V395.939H364.861V365.482Z" fill="#B70012"/>
<path d="M60.2928 426.396H29.8359V456.853H60.2928V426.396Z" fill="#B70012"/>
<path d="M121.207 426.396H90.75V456.853H121.207V426.396Z" fill="#B70012"/>
<path d="M182.119 426.396H151.662V456.853H182.119V426.396Z" fill="#B70012"/>
<path d="M243.033 426.396H212.576V456.853H243.033V426.396Z" fill="#B70012"/>
<path d="M303.945 426.396H273.488V456.853H303.945V426.396Z" fill="#B70012"/>
<path d="M364.861 426.396H334.404V456.853H364.861V426.396Z" fill="#B70012"/>
<rect width="310.107" height="398.836" transform="translate(24.334 30.2695)" fill="#DF91B5"/>
</g>
</g>
<defs>
<clipPath id="clip0_1100_2662">
<rect width="365.007" height="457" rx="11.8701" fill="white"/>
</clipPath>
<clipPath id="clip1_1100_2662">
<rect width="366" height="457" fill="white" transform="translate(-0.496094 0.5)"/>
</clipPath>
</defs>
</svg>
