<svg width="615" height="770" viewBox="0 0 615 770" fill="none" xmlns="http://www.w3.org/2000/svg">
<g clip-path="url(#clip0_996_394)">
<rect width="615" height="770" rx="20" fill="#DF91B5"/>
<g clip-path="url(#clip1_996_394)">
<path d="M614.753 0H-155V769.753H614.753V0Z" fill="#DF91B5"/>
<path d="M50.2678 51.3164H-1.04932V102.633H50.2678V51.3164Z" fill="#B70012"/>
<path d="M101.585 0H50.2678V51.3168H101.585V0Z" fill="#B70012"/>
<path d="M152.901 51.3164H101.584V102.633H152.901V51.3164Z" fill="#B70012"/>
<path d="M204.218 0H152.901V51.3168H204.218V0Z" fill="#B70012"/>
<path d="M255.535 51.3164H204.219V102.633H255.535V51.3164Z" fill="#B70012"/>
<path d="M306.852 0H255.535V51.3168H306.852V0Z" fill="#B70012"/>
<path d="M358.169 51.3164H306.852V102.633H358.169V51.3164Z" fill="#B70012"/>
<path d="M409.486 0H358.169V51.3168H409.486V0Z" fill="#B70012"/>
<path d="M460.803 51.3164H409.486V102.633H460.803V51.3164Z" fill="#B70012"/>
<path d="M512.12 0H460.803V51.3168H512.12V0Z" fill="#B70012"/>
<path d="M563.436 51.3164H512.12V102.633H563.436V51.3164Z" fill="#B70012"/>
<path d="M614.753 0H563.437V51.3168H614.753V0Z" fill="#B70012"/>
<path d="M50.2678 153.95H-1.04932V205.267H50.2678V153.95Z" fill="#B70012"/>
<path d="M101.585 102.634H50.2678V153.951H101.585V102.634Z" fill="#B70012"/>
<path d="M152.901 153.95H101.584V205.267H152.901V153.95Z" fill="#B70012"/>
<path d="M204.218 102.634H152.901V153.951H204.218V102.634Z" fill="#B70012"/>
<path d="M255.535 153.95H204.219V205.267H255.535V153.95Z" fill="#B70012"/>
<path d="M306.852 102.634H255.535V153.951H306.852V102.634Z" fill="#B70012"/>
<path d="M358.169 153.95H306.852V205.267H358.169V153.95Z" fill="#B70012"/>
<path d="M409.486 102.634H358.169V153.951H409.486V102.634Z" fill="#B70012"/>
<path d="M460.803 153.95H409.486V205.267H460.803V153.95Z" fill="#B70012"/>
<path d="M512.12 102.634H460.803V153.951H512.12V102.634Z" fill="#B70012"/>
<path d="M563.436 153.95H512.12V205.267H563.436V153.95Z" fill="#B70012"/>
<path d="M614.753 102.634H563.437V153.951H614.753V102.634Z" fill="#B70012"/>
<path d="M50.2678 256.585H-1.04932V307.902H50.2678V256.585Z" fill="#B70012"/>
<path d="M101.585 205.268H50.2678V256.584H101.585V205.268Z" fill="#B70012"/>
<path d="M152.901 256.585H101.584V307.902H152.901V256.585Z" fill="#B70012"/>
<path d="M204.218 205.268H152.901V256.584H204.218V205.268Z" fill="#B70012"/>
<path d="M255.535 256.585H204.219V307.902H255.535V256.585Z" fill="#B70012"/>
<path d="M306.852 205.268H255.535V256.584H306.852V205.268Z" fill="#B70012"/>
<path d="M358.169 256.585H306.852V307.902H358.169V256.585Z" fill="#B70012"/>
<path d="M409.486 205.268H358.169V256.584H409.486V205.268Z" fill="#B70012"/>
<path d="M460.803 256.585H409.486V307.902H460.803V256.585Z" fill="#B70012"/>
<path d="M512.12 205.268H460.803V256.584H512.12V205.268Z" fill="#B70012"/>
<path d="M563.436 256.585H512.12V307.902H563.436V256.585Z" fill="#B70012"/>
<path d="M614.753 205.268H563.437V256.584H614.753V205.268Z" fill="#B70012"/>
<path d="M50.2678 359.219H-1.04932V410.535H50.2678V359.219Z" fill="#B70012"/>
<path d="M101.585 307.901H50.2678V359.218H101.585V307.901Z" fill="#B70012"/>
<path d="M152.901 359.219H101.584V410.535H152.901V359.219Z" fill="#B70012"/>
<path d="M204.218 307.901H152.901V359.218H204.218V307.901Z" fill="#B70012"/>
<path d="M255.535 359.219H204.219V410.535H255.535V359.219Z" fill="#B70012"/>
<path d="M306.852 307.901H255.535V359.218H306.852V307.901Z" fill="#B70012"/>
<path d="M358.169 359.219H306.852V410.535H358.169V359.219Z" fill="#B70012"/>
<path d="M409.486 307.901H358.169V359.218H409.486V307.901Z" fill="#B70012"/>
<path d="M460.803 359.219H409.486V410.535H460.803V359.219Z" fill="#B70012"/>
<path d="M512.12 307.901H460.803V359.218H512.12V307.901Z" fill="#B70012"/>
<path d="M563.436 359.219H512.12V410.535H563.436V359.219Z" fill="#B70012"/>
<path d="M614.753 307.901H563.437V359.218H614.753V307.901Z" fill="#B70012"/>
<path d="M50.2678 461.852H-1.04932V513.168H50.2678V461.852Z" fill="#B70012"/>
<path d="M101.585 410.535H50.2678V461.852H101.585V410.535Z" fill="#B70012"/>
<path d="M152.901 461.852H101.584V513.168H152.901V461.852Z" fill="#B70012"/>
<path d="M204.218 410.535H152.901V461.852H204.218V410.535Z" fill="#B70012"/>
<path d="M255.535 461.852H204.219V513.168H255.535V461.852Z" fill="#B70012"/>
<path d="M306.852 410.535H255.535V461.852H306.852V410.535Z" fill="#B70012"/>
<path d="M358.169 461.852H306.852V513.168H358.169V461.852Z" fill="#B70012"/>
<path d="M409.486 410.535H358.169V461.852H409.486V410.535Z" fill="#B70012"/>
<path d="M460.803 461.852H409.486V513.168H460.803V461.852Z" fill="#B70012"/>
<path d="M512.12 410.535H460.803V461.852H512.12V410.535Z" fill="#B70012"/>
<path d="M563.436 461.852H512.12V513.168H563.436V461.852Z" fill="#B70012"/>
<path d="M614.753 410.535H563.437V461.852H614.753V410.535Z" fill="#B70012"/>
<path d="M50.2678 564.486H-1.04932V615.803H50.2678V564.486Z" fill="#B70012"/>
<path d="M101.585 513.169H50.2678V564.486H101.585V513.169Z" fill="#B70012"/>
<path d="M152.901 564.486H101.584V615.803H152.901V564.486Z" fill="#B70012"/>
<path d="M204.218 513.169H152.901V564.486H204.218V513.169Z" fill="#B70012"/>
<path d="M255.535 564.486H204.219V615.803H255.535V564.486Z" fill="#B70012"/>
<path d="M306.852 513.169H255.535V564.486H306.852V513.169Z" fill="#B70012"/>
<path d="M358.169 564.486H306.852V615.803H358.169V564.486Z" fill="#B70012"/>
<path d="M409.486 513.169H358.169V564.486H409.486V513.169Z" fill="#B70012"/>
<path d="M460.803 564.486H409.486V615.803H460.803V564.486Z" fill="#B70012"/>
<path d="M512.12 513.169H460.803V564.486H512.12V513.169Z" fill="#B70012"/>
<path d="M563.436 564.486H512.12V615.803H563.436V564.486Z" fill="#B70012"/>
<path d="M614.753 513.169H563.437V564.486H614.753V513.169Z" fill="#B70012"/>
<path d="M50.2678 667.12H-1.04932V718.437H50.2678V667.12Z" fill="#B70012"/>
<path d="M101.585 615.803H50.2678V667.12H101.585V615.803Z" fill="#B70012"/>
<path d="M152.901 667.12H101.584V718.437H152.901V667.12Z" fill="#B70012"/>
<path d="M204.218 615.803H152.901V667.12H204.218V615.803Z" fill="#B70012"/>
<path d="M255.535 667.12H204.219V718.437H255.535V667.12Z" fill="#B70012"/>
<path d="M306.852 615.803H255.535V667.12H306.852V615.803Z" fill="#B70012"/>
<path d="M358.169 667.12H306.852V718.437H358.169V667.12Z" fill="#B70012"/>
<path d="M409.486 615.803H358.169V667.12H409.486V615.803Z" fill="#B70012"/>
<path d="M460.803 667.12H409.486V718.437H460.803V667.12Z" fill="#B70012"/>
<path d="M512.12 615.803H460.803V667.12H512.12V615.803Z" fill="#B70012"/>
<path d="M563.436 667.12H512.12V718.437H563.436V667.12Z" fill="#B70012"/>
<path d="M614.753 615.803H563.437V667.12H614.753V615.803Z" fill="#B70012"/>
<path d="M101.585 718.437H50.2678V769.753H101.585V718.437Z" fill="#B70012"/>
<path d="M204.218 718.437H152.901V769.753H204.218V718.437Z" fill="#B70012"/>
<path d="M306.852 718.437H255.535V769.753H306.852V718.437Z" fill="#B70012"/>
<path d="M409.486 718.437H358.169V769.753H409.486V718.437Z" fill="#B70012"/>
<path d="M512.12 718.437H460.803V769.753H512.12V718.437Z" fill="#B70012"/>
<path d="M614.753 718.437H563.437V769.753H614.753V718.437Z" fill="#B70012"/>
<rect width="522.5" height="672" transform="translate(41 51)" fill="#B70012"/>
</g>
</g>
<defs>
<clipPath id="clip0_996_394">
<rect width="615" height="770" rx="20" fill="white"/>
</clipPath>
<clipPath id="clip1_996_394">
<rect width="770" height="770" fill="white" transform="translate(-155)"/>
</clipPath>
</defs>
</svg>
