<svg width="365" height="457" viewBox="0 0 365 457" fill="none" xmlns="http://www.w3.org/2000/svg">
<g clip-path="url(#clip0_797_51800)">
<rect width="365.007" height="457" rx="11.8701" fill="#DF91B5"/>
<g clip-path="url(#clip1_797_51800)">
<path d="M364.861 0H-91.9922V456.854H364.861V0Z" fill="#DF91B5"/>
<path d="M29.8359 30.457H-0.621094V60.9139H29.8359V30.457Z" fill="#B70012"/>
<path d="M60.2928 0H29.8359V30.4568H60.2928V0Z" fill="#B70012"/>
<path d="M90.7498 30.457H60.293V60.9139H90.7498V30.457Z" fill="#B70012"/>
<path d="M121.207 0H90.75V30.4568H121.207V0Z" fill="#B70012"/>
<path d="M151.664 30.457H121.207V60.9139H151.664V30.457Z" fill="#B70012"/>
<path d="M182.121 0H151.664V30.4568H182.121V0Z" fill="#B70012"/>
<path d="M212.574 30.457H182.117V60.9139H212.574V30.457Z" fill="#B70012"/>
<path d="M243.031 0H212.574V30.4568H243.031V0Z" fill="#B70012"/>
<path d="M273.488 30.457H243.031V60.9139H273.488V30.457Z" fill="#B70012"/>
<path d="M303.945 0H273.488V30.4568H303.945V0Z" fill="#B70012"/>
<path d="M334.406 30.457H303.949V60.9139H334.406V30.457Z" fill="#B70012"/>
<path d="M364.863 0H334.406V30.4568H364.863V0Z" fill="#B70012"/>
<path d="M29.8359 91.3711H-0.621094V121.828H29.8359V91.3711Z" fill="#B70012"/>
<path d="M60.2928 60.9141H29.8359V91.3709H60.2928V60.9141Z" fill="#B70012"/>
<path d="M90.7498 91.3711H60.293V121.828H90.7498V91.3711Z" fill="#B70012"/>
<path d="M121.207 60.9141H90.75V91.3709H121.207V60.9141Z" fill="#B70012"/>
<path d="M151.664 91.3711H121.207V121.828H151.664V91.3711Z" fill="#B70012"/>
<path d="M182.121 60.9141H151.664V91.3709H182.121V60.9141Z" fill="#B70012"/>
<path d="M212.574 91.3711H182.117V121.828H212.574V91.3711Z" fill="#B70012"/>
<path d="M243.031 60.9141H212.574V91.3709H243.031V60.9141Z" fill="#B70012"/>
<path d="M273.488 91.3711H243.031V121.828H273.488V91.3711Z" fill="#B70012"/>
<path d="M303.945 60.9141H273.488V91.3709H303.945V60.9141Z" fill="#B70012"/>
<path d="M334.406 91.3711H303.949V121.828H334.406V91.3711Z" fill="#B70012"/>
<path d="M364.863 60.9141H334.406V91.3709H364.863V60.9141Z" fill="#B70012"/>
<path d="M29.8359 152.285H-0.621094V182.742H29.8359V152.285Z" fill="#B70012"/>
<path d="M60.2928 121.828H29.8359V152.285H60.2928V121.828Z" fill="#B70012"/>
<path d="M90.7498 152.285H60.293V182.742H90.7498V152.285Z" fill="#B70012"/>
<path d="M121.207 121.828H90.75V152.285H121.207V121.828Z" fill="#B70012"/>
<path d="M151.664 152.285H121.207V182.742H151.664V152.285Z" fill="#B70012"/>
<path d="M182.121 121.828H151.664V152.285H182.121V121.828Z" fill="#B70012"/>
<path d="M212.574 152.285H182.117V182.742H212.574V152.285Z" fill="#B70012"/>
<path d="M243.031 121.828H212.574V152.285H243.031V121.828Z" fill="#B70012"/>
<path d="M273.488 152.285H243.031V182.742H273.488V152.285Z" fill="#B70012"/>
<path d="M303.945 121.828H273.488V152.285H303.945V121.828Z" fill="#B70012"/>
<path d="M334.406 152.285H303.949V182.742H334.406V152.285Z" fill="#B70012"/>
<path d="M364.863 121.828H334.406V152.285H364.863V121.828Z" fill="#B70012"/>
<path d="M29.8359 213.199H-0.621094V243.656H29.8359V213.199Z" fill="#B70012"/>
<path d="M60.2928 182.74H29.8359V213.197H60.2928V182.74Z" fill="#B70012"/>
<path d="M90.7498 213.199H60.293V243.656H90.7498V213.199Z" fill="#B70012"/>
<path d="M121.207 182.74H90.75V213.197H121.207V182.74Z" fill="#B70012"/>
<path d="M151.664 213.199H121.207V243.656H151.664V213.199Z" fill="#B70012"/>
<path d="M182.121 182.74H151.664V213.197H182.121V182.74Z" fill="#B70012"/>
<path d="M212.574 213.199H182.117V243.656H212.574V213.199Z" fill="#B70012"/>
<path d="M243.031 182.74H212.574V213.197H243.031V182.74Z" fill="#B70012"/>
<path d="M273.488 213.199H243.031V243.656H273.488V213.199Z" fill="#B70012"/>
<path d="M303.945 182.74H273.488V213.197H303.945V182.74Z" fill="#B70012"/>
<path d="M334.406 213.199H303.949V243.656H334.406V213.199Z" fill="#B70012"/>
<path d="M364.863 182.74H334.406V213.197H364.863V182.74Z" fill="#B70012"/>
<path d="M29.8359 274.111H-0.621094V304.568H29.8359V274.111Z" fill="#B70012"/>
<path d="M60.2928 243.656H29.8359V274.113H60.2928V243.656Z" fill="#B70012"/>
<path d="M90.7498 274.111H60.293V304.568H90.7498V274.111Z" fill="#B70012"/>
<path d="M121.207 243.656H90.75V274.113H121.207V243.656Z" fill="#B70012"/>
<path d="M151.664 274.111H121.207V304.568H151.664V274.111Z" fill="#B70012"/>
<path d="M182.121 243.656H151.664V274.113H182.121V243.656Z" fill="#B70012"/>
<path d="M212.574 274.111H182.117V304.568H212.574V274.111Z" fill="#B70012"/>
<path d="M243.031 243.656H212.574V274.113H243.031V243.656Z" fill="#B70012"/>
<path d="M273.488 274.111H243.031V304.568H273.488V274.111Z" fill="#B70012"/>
<path d="M303.945 243.656H273.488V274.113H303.945V243.656Z" fill="#B70012"/>
<path d="M334.406 274.111H303.949V304.568H334.406V274.111Z" fill="#B70012"/>
<path d="M364.863 243.656H334.406V274.113H364.863V243.656Z" fill="#B70012"/>
<path d="M29.8359 335.025H-0.621094V365.482H29.8359V335.025Z" fill="#B70012"/>
<path d="M60.2928 304.57H29.8359V335.027H60.2928V304.57Z" fill="#B70012"/>
<path d="M90.7498 335.025H60.293V365.482H90.7498V335.025Z" fill="#B70012"/>
<path d="M121.207 304.57H90.75V335.027H121.207V304.57Z" fill="#B70012"/>
<path d="M151.664 335.025H121.207V365.482H151.664V335.025Z" fill="#B70012"/>
<path d="M182.121 304.57H151.664V335.027H182.121V304.57Z" fill="#B70012"/>
<path d="M212.574 335.025H182.117V365.482H212.574V335.025Z" fill="#B70012"/>
<path d="M243.031 304.57H212.574V335.027H243.031V304.57Z" fill="#B70012"/>
<path d="M273.488 335.025H243.031V365.482H273.488V335.025Z" fill="#B70012"/>
<path d="M303.945 304.57H273.488V335.027H303.945V304.57Z" fill="#B70012"/>
<path d="M334.406 335.025H303.949V365.482H334.406V335.025Z" fill="#B70012"/>
<path d="M364.863 304.57H334.406V335.027H364.863V304.57Z" fill="#B70012"/>
<path d="M29.8359 395.939H-0.621094V426.396H29.8359V395.939Z" fill="#B70012"/>
<path d="M60.2928 365.482H29.8359V395.939H60.2928V365.482Z" fill="#B70012"/>
<path d="M90.7498 395.939H60.293V426.396H90.7498V395.939Z" fill="#B70012"/>
<path d="M121.207 365.482H90.75V395.939H121.207V365.482Z" fill="#B70012"/>
<path d="M151.664 395.939H121.207V426.396H151.664V395.939Z" fill="#B70012"/>
<path d="M182.121 365.482H151.664V395.939H182.121V365.482Z" fill="#B70012"/>
<path d="M212.574 395.939H182.117V426.396H212.574V395.939Z" fill="#B70012"/>
<path d="M243.031 365.482H212.574V395.939H243.031V365.482Z" fill="#B70012"/>
<path d="M273.488 395.939H243.031V426.396H273.488V395.939Z" fill="#B70012"/>
<path d="M303.945 365.482H273.488V395.939H303.945V365.482Z" fill="#B70012"/>
<path d="M334.406 395.939H303.949V426.396H334.406V395.939Z" fill="#B70012"/>
<path d="M364.863 365.482H334.406V395.939H364.863V365.482Z" fill="#B70012"/>
<path d="M60.2928 426.396H29.8359V456.853H60.2928V426.396Z" fill="#B70012"/>
<path d="M121.207 426.396H90.75V456.853H121.207V426.396Z" fill="#B70012"/>
<path d="M182.121 426.396H151.664V456.853H182.121V426.396Z" fill="#B70012"/>
<path d="M243.031 426.396H212.574V456.853H243.031V426.396Z" fill="#B70012"/>
<path d="M303.945 426.396H273.488V456.853H303.945V426.396Z" fill="#B70012"/>
<path d="M364.863 426.396H334.406V456.853H364.863V426.396Z" fill="#B70012"/>
<rect width="310.107" height="398.836" transform="translate(24.3359 30.2695)" fill="#B70012"/>
</g>
<path d="M130.761 140.092L143.713 138.241L143.578 134.541L130.174 124.657L131.528 121.498L147.685 118.564L148.272 122.22L135.68 124.431L147.279 132.645L147.595 141.31L131.302 143.612L130.761 140.092ZM160.704 138.286L166.977 139.054L168.286 123.799L157.906 122.897L158.673 154.579H154.746L153.844 118.88L172.573 120.595L170.588 143.07L160.252 142.032L160.704 138.286ZM178.126 109.854H183.361V115.089H178.126V109.854ZM178.758 119.196H182.684V143.161H178.758V119.196ZM189.762 119.692L208.311 118.429L203.527 130.659L199.736 129.441L202.489 122.4L193.823 123.077L194.636 139.415L208.446 137.248L208.807 140.949L190.845 143.522L189.762 119.692ZM231.248 118.835L234.949 120.369L219.514 154.579L215.814 153.135L231.248 118.835ZM211.255 120.505L214.956 118.88L222.628 136.752L218.973 138.467L211.255 120.505ZM104.515 205.092L117.468 203.241L117.332 199.541L103.928 189.657L105.282 186.498L121.439 183.564L122.026 187.22L109.434 189.431L121.033 197.645L121.349 206.31L105.056 208.612L104.515 205.092ZM130.261 188.754L125.251 189.206L124.935 185.55L130.261 185.053V176.117H134.187V184.738L140.19 184.196L140.506 187.852L134.187 188.393V204.234L139.738 203.467L140.054 207.213L130.261 208.386V188.754ZM158.434 204.099L145.752 208.296L142.052 195.795L152.928 191.372L154.237 194.666L146.565 197.735L148.37 203.512L157.622 200.579L154.779 187.897L143.361 190.108L142.503 186.543L157.848 183.7L163.173 207.213L159.337 208.296L158.434 204.099ZM171.733 188.709L179.315 183.745L181.436 186.994L173.945 191.959L171.733 188.709ZM167.265 183.97L171.192 183.835L172.049 208.161L168.123 208.296L167.265 183.97ZM187.865 188.754L182.855 189.206L182.539 185.55L187.865 185.053V176.117H191.791V184.738L197.794 184.196L198.11 187.852L191.791 188.393V204.234L197.342 203.467L197.658 207.213L187.865 208.386V188.754ZM201.19 185.279L219.288 183.519L218.16 197.69H208.501V194.125H214.369L214.955 187.4L205.342 188.393L206.561 204.324L221.003 202.068L221.274 205.769L202.95 208.431L201.19 185.279ZM230.087 188.709L237.669 183.745L239.79 186.994L232.298 191.959L230.087 188.709ZM225.619 183.97L229.545 183.835L230.402 208.161L226.476 208.296L225.619 183.97ZM242.156 205.092L255.109 203.241L254.974 199.541L241.57 189.657L242.924 186.498L259.081 183.564L259.667 187.22L247.076 189.431L258.674 197.645L258.99 206.31L242.698 208.612L242.156 205.092Z" fill="#DF91B5"/>
<path d="M135.238 377.366C134.371 377.366 133.599 377.148 132.922 376.712C132.245 376.276 131.714 375.662 131.329 374.869C130.949 374.071 130.758 373.132 130.758 372.052C130.758 370.967 130.949 370.026 131.329 369.228C131.714 368.431 132.245 367.814 132.922 367.378C133.599 366.942 134.371 366.724 135.238 366.724C135.789 366.724 136.295 366.81 136.754 366.982C137.218 367.153 137.628 367.392 137.985 367.698C138.342 368.004 138.634 368.363 138.861 368.776C139.093 369.184 139.251 369.627 139.334 370.104H138.381C138.312 369.747 138.184 369.418 137.999 369.117C137.813 368.815 137.581 368.551 137.303 368.324C137.03 368.097 136.719 367.921 136.371 367.795C136.024 367.67 135.646 367.608 135.238 367.608C134.584 367.608 133.986 367.779 133.443 368.122C132.905 368.461 132.474 368.962 132.15 369.625C131.83 370.283 131.67 371.092 131.67 372.052C131.67 373.012 131.83 373.821 132.15 374.479C132.474 375.138 132.905 375.636 133.443 375.975C133.986 376.313 134.584 376.482 135.238 376.482C135.646 376.482 136.024 376.42 136.371 376.295C136.719 376.169 137.03 375.993 137.303 375.766C137.581 375.539 137.813 375.274 137.999 374.973C138.184 374.672 138.312 374.342 138.381 373.985H139.334C139.251 374.463 139.093 374.908 138.861 375.321C138.634 375.729 138.342 376.086 137.985 376.392C137.628 376.698 137.218 376.937 136.754 377.108C136.295 377.28 135.789 377.366 135.238 377.366ZM145.149 377.366C144.277 377.366 143.503 377.148 142.826 376.712C142.149 376.276 141.618 375.659 141.233 374.862C140.853 374.064 140.663 373.128 140.663 372.052C140.663 370.972 140.855 370.033 141.24 369.235C141.625 368.433 142.153 367.814 142.826 367.378C143.503 366.942 144.277 366.724 145.149 366.724C146.02 366.724 146.792 366.942 147.465 367.378C148.137 367.814 148.663 368.433 149.044 369.235C149.428 370.033 149.621 370.972 149.621 372.052C149.621 373.128 149.428 374.064 149.044 374.862C148.663 375.659 148.137 376.276 147.465 376.712C146.792 377.148 146.02 377.366 145.149 377.366ZM145.149 376.482C145.826 376.482 146.433 376.306 146.971 375.954C147.509 375.601 147.933 375.096 148.244 374.438C148.554 373.774 148.71 372.979 148.71 372.052C148.71 371.12 148.554 370.322 148.244 369.659C147.933 368.996 147.509 368.489 146.971 368.136C146.433 367.784 145.826 367.608 145.149 367.608C144.472 367.608 143.862 367.784 143.319 368.136C142.782 368.489 142.355 368.996 142.04 369.659C141.729 370.322 141.574 371.12 141.574 372.052C141.574 372.975 141.729 373.768 142.04 374.431C142.35 375.094 142.775 375.601 143.313 375.954C143.855 376.306 144.467 376.482 145.149 376.482ZM159.539 366.863V377.227H158.607L152.493 368.553H152.403V377.227H151.457V366.863H152.375L158.523 375.55H158.6V366.863H159.539ZM161.869 366.863L165.103 375.996H165.2L168.442 366.863H169.429L165.659 377.227H164.651L160.874 366.863H161.869ZM170.751 377.227V366.863H176.767V367.719H171.697V371.586H176.447V372.434H171.697V376.378H176.864V377.227H170.751ZM178.763 377.227V366.863H182.115C182.853 366.863 183.467 366.998 183.958 367.267C184.45 367.531 184.821 367.897 185.071 368.366C185.326 368.834 185.454 369.37 185.454 369.972C185.454 370.575 185.329 371.108 185.078 371.572C184.828 372.031 184.455 372.39 183.958 372.65C183.467 372.91 182.857 373.04 182.129 373.04H179.285V372.177H182.101C182.644 372.177 183.094 372.087 183.451 371.906C183.808 371.725 184.074 371.47 184.251 371.141C184.431 370.812 184.522 370.422 184.522 369.972C184.522 369.518 184.431 369.121 184.251 368.783C184.07 368.445 183.801 368.183 183.444 367.997C183.087 367.812 182.635 367.719 182.088 367.719H179.709V377.227H178.763ZM184.786 377.227L182.268 372.546H183.339L185.885 377.227H184.786ZM190.413 377.4C189.708 377.4 189.096 377.285 188.577 377.053C188.057 376.821 187.649 376.496 187.353 376.079C187.056 375.662 186.889 375.179 186.852 374.632H187.819C187.856 375.045 187.99 375.393 188.222 375.676C188.458 375.958 188.767 376.174 189.147 376.322C189.527 376.466 189.949 376.538 190.413 376.538C190.932 376.538 191.394 376.452 191.797 376.281C192.2 376.104 192.516 375.861 192.743 375.55C192.975 375.24 193.091 374.876 193.091 374.458C193.091 374.106 192.998 373.812 192.812 373.575C192.632 373.339 192.379 373.139 192.054 372.977C191.73 372.815 191.352 372.671 190.921 372.546L189.69 372.184C188.878 371.948 188.247 371.614 187.798 371.183C187.348 370.751 187.123 370.204 187.123 369.541C187.123 368.985 187.271 368.496 187.568 368.074C187.87 367.647 188.275 367.315 188.785 367.079C189.295 366.838 189.868 366.717 190.503 366.717C191.148 366.717 191.718 366.838 192.214 367.079C192.71 367.315 193.104 367.64 193.397 368.053C193.689 368.461 193.846 368.927 193.87 369.451H192.945C192.889 368.876 192.636 368.419 192.186 368.081C191.737 367.737 191.166 367.566 190.475 367.566C189.998 367.566 189.576 367.649 189.21 367.816C188.843 367.983 188.556 368.213 188.347 368.505C188.143 368.797 188.041 369.128 188.041 369.499C188.041 369.861 188.143 370.165 188.347 370.411C188.551 370.652 188.811 370.849 189.126 371.002C189.441 371.155 189.766 371.282 190.1 371.384L191.192 371.697C191.521 371.795 191.85 371.915 192.179 372.059C192.509 372.198 192.81 372.374 193.084 372.587C193.362 372.801 193.584 373.063 193.751 373.373C193.923 373.679 194.009 374.048 194.009 374.479C194.009 375.026 193.865 375.523 193.577 375.968C193.29 376.408 192.877 376.758 192.339 377.018C191.806 377.273 191.164 377.4 190.413 377.4ZM195.866 377.227H194.871L198.648 366.863H199.656L203.426 377.227H202.438L199.183 368.094H199.114L195.866 377.227ZM196.582 373.255H201.722V374.104H196.582V373.255ZM202.911 367.719V366.863H210.43V367.719H207.147V377.227H206.208V367.719H202.911ZM213.052 366.863V377.227H212.106V366.863H213.052ZM219.388 377.366C218.516 377.366 217.742 377.148 217.065 376.712C216.388 376.276 215.857 375.659 215.472 374.862C215.092 374.064 214.902 373.128 214.902 372.052C214.902 370.972 215.094 370.033 215.479 369.235C215.864 368.433 216.393 367.814 217.065 367.378C217.742 366.942 218.516 366.724 219.388 366.724C220.26 366.724 221.032 366.942 221.704 367.378C222.376 367.814 222.903 368.433 223.283 369.235C223.668 370.033 223.86 370.972 223.86 372.052C223.86 373.128 223.668 374.064 223.283 374.862C222.903 375.659 222.376 376.276 221.704 376.712C221.032 377.148 220.26 377.366 219.388 377.366ZM219.388 376.482C220.065 376.482 220.672 376.306 221.21 375.954C221.748 375.601 222.172 375.096 222.483 374.438C222.794 373.774 222.949 372.979 222.949 372.052C222.949 371.12 222.794 370.322 222.483 369.659C222.172 368.996 221.748 368.489 221.21 368.136C220.672 367.784 220.065 367.608 219.388 367.608C218.711 367.608 218.101 367.784 217.559 368.136C217.021 368.489 216.594 368.996 216.279 369.659C215.968 370.322 215.813 371.12 215.813 372.052C215.813 372.975 215.968 373.768 216.279 374.431C216.59 375.094 217.014 375.601 217.552 375.954C218.094 376.306 218.706 376.482 219.388 376.482ZM233.778 366.863V377.227H232.846L226.733 368.553H226.642V377.227H225.696V366.863H226.614L232.763 375.55H232.839V366.863H233.778ZM130 394.366C129.133 394.366 128.361 394.148 127.684 393.712C127.007 393.276 126.476 392.662 126.092 391.869C125.711 391.071 125.521 390.132 125.521 389.052C125.521 387.967 125.711 387.026 126.092 386.228C126.476 385.431 127.007 384.814 127.684 384.378C128.361 383.942 129.133 383.724 130 383.724C130.552 383.724 131.058 383.81 131.517 383.982C131.98 384.153 132.391 384.392 132.748 384.698C133.105 385.004 133.397 385.363 133.624 385.776C133.856 386.184 134.014 386.627 134.097 387.104H133.144C133.075 386.747 132.947 386.418 132.762 386.117C132.576 385.815 132.344 385.551 132.066 385.324C131.792 385.097 131.482 384.921 131.134 384.795C130.786 384.67 130.408 384.608 130 384.608C129.347 384.608 128.748 384.779 128.206 385.122C127.668 385.461 127.237 385.962 126.912 386.625C126.592 387.283 126.432 388.092 126.432 389.052C126.432 390.012 126.592 390.821 126.912 391.479C127.237 392.138 127.668 392.636 128.206 392.975C128.748 393.313 129.347 393.482 130 393.482C130.408 393.482 130.786 393.42 131.134 393.295C131.482 393.169 131.792 392.993 132.066 392.766C132.344 392.539 132.576 392.274 132.762 391.973C132.947 391.672 133.075 391.342 133.144 390.985H134.097C134.014 391.463 133.856 391.908 133.624 392.321C133.397 392.729 133.105 393.086 132.748 393.392C132.391 393.698 131.98 393.937 131.517 394.108C131.058 394.28 130.552 394.366 130 394.366ZM135.905 394.227H134.911L138.687 383.863H139.696L143.466 394.227H142.478L139.223 385.094H139.153L135.905 394.227ZM136.622 390.255H141.762V391.104H136.622V390.255ZM144.787 394.227V383.863H148.139C148.877 383.863 149.491 383.998 149.983 384.267C150.474 384.531 150.845 384.897 151.095 385.366C151.35 385.834 151.478 386.37 151.478 386.972C151.478 387.575 151.353 388.108 151.102 388.572C150.852 389.031 150.479 389.39 149.983 389.65C149.491 389.91 148.881 390.04 148.153 390.04H145.309V389.177H148.126C148.668 389.177 149.118 389.087 149.475 388.906C149.832 388.725 150.098 388.47 150.275 388.141C150.455 387.812 150.546 387.422 150.546 386.972C150.546 386.518 150.455 386.121 150.275 385.783C150.094 385.445 149.825 385.183 149.468 384.997C149.111 384.812 148.659 384.719 148.112 384.719H145.733V394.227H144.787ZM150.81 394.227L148.292 389.546H149.364L151.909 394.227H150.81ZM156.381 394.227H153.87V393.378H156.326C157.216 393.378 157.96 393.204 158.558 392.856C159.161 392.504 159.613 392.003 159.914 391.354C160.216 390.7 160.367 389.921 160.367 389.017C160.367 388.127 160.218 387.362 159.921 386.722C159.629 386.077 159.196 385.584 158.621 385.241C158.051 384.893 157.346 384.719 156.506 384.719H153.836V383.863H156.562C157.55 383.863 158.396 384.07 159.101 384.482C159.806 384.895 160.343 385.486 160.714 386.256C161.09 387.026 161.278 387.946 161.278 389.017C161.278 390.107 161.085 391.041 160.7 391.82C160.32 392.594 159.764 393.19 159.031 393.608C158.303 394.02 157.42 394.227 156.381 394.227ZM154.288 383.863V394.227H153.342V383.863H154.288ZM166.216 394.4C165.511 394.4 164.899 394.285 164.38 394.053C163.86 393.821 163.452 393.496 163.156 393.079C162.859 392.662 162.692 392.179 162.655 391.632H163.622C163.659 392.045 163.793 392.393 164.025 392.676C164.261 392.958 164.57 393.174 164.95 393.322C165.33 393.466 165.752 393.538 166.216 393.538C166.735 393.538 167.197 393.452 167.6 393.281C168.003 393.104 168.319 392.861 168.546 392.55C168.778 392.24 168.894 391.876 168.894 391.458C168.894 391.106 168.801 390.812 168.615 390.575C168.435 390.339 168.182 390.139 167.857 389.977C167.533 389.815 167.155 389.671 166.724 389.546L165.493 389.184C164.681 388.948 164.05 388.614 163.601 388.183C163.151 387.751 162.926 387.204 162.926 386.541C162.926 385.985 163.074 385.496 163.371 385.074C163.673 384.647 164.078 384.315 164.588 384.079C165.098 383.838 165.671 383.717 166.306 383.717C166.951 383.717 167.521 383.838 168.017 384.079C168.513 384.315 168.908 384.64 169.2 385.053C169.492 385.461 169.649 385.927 169.673 386.451H168.748C168.692 385.876 168.439 385.419 167.989 385.081C167.54 384.737 166.969 384.566 166.278 384.566C165.801 384.566 165.379 384.649 165.013 384.816C164.646 384.983 164.359 385.213 164.15 385.505C163.946 385.797 163.844 386.128 163.844 386.499C163.844 386.861 163.946 387.165 164.15 387.411C164.354 387.652 164.614 387.849 164.929 388.002C165.244 388.155 165.569 388.282 165.903 388.384L166.995 388.697C167.324 388.795 167.653 388.915 167.982 389.059C168.312 389.198 168.613 389.374 168.887 389.587C169.165 389.801 169.387 390.063 169.554 390.373C169.726 390.679 169.812 391.048 169.812 391.479C169.812 392.026 169.668 392.523 169.38 392.968C169.093 393.408 168.68 393.758 168.142 394.018C167.609 394.273 166.967 394.4 166.216 394.4ZM174.583 384.719V383.863H182.101V384.719H178.819V394.227H177.88V384.719H174.583ZM187.387 394.366C186.516 394.366 185.741 394.148 185.064 393.712C184.387 393.276 183.856 392.659 183.472 391.862C183.091 391.064 182.901 390.128 182.901 389.052C182.901 387.972 183.094 387.033 183.479 386.235C183.863 385.433 184.392 384.814 185.064 384.378C185.741 383.942 186.516 383.724 187.387 383.724C188.259 383.724 189.031 383.942 189.703 384.378C190.376 384.814 190.902 385.433 191.282 386.235C191.667 387.033 191.86 387.972 191.86 389.052C191.86 390.128 191.667 391.064 191.282 391.862C190.902 392.659 190.376 393.276 189.703 393.712C189.031 394.148 188.259 394.366 187.387 394.366ZM187.387 393.482C188.064 393.482 188.672 393.306 189.21 392.954C189.747 392.601 190.172 392.096 190.482 391.438C190.793 390.774 190.948 389.979 190.948 389.052C190.948 388.12 190.793 387.322 190.482 386.659C190.172 385.996 189.747 385.489 189.21 385.136C188.672 384.784 188.064 384.608 187.387 384.608C186.71 384.608 186.101 384.784 185.558 385.136C185.02 385.489 184.594 385.996 184.278 386.659C183.968 387.322 183.812 388.12 183.812 389.052C183.812 389.975 183.968 390.768 184.278 391.431C184.589 392.094 185.013 392.601 185.551 392.954C186.094 393.306 186.706 393.482 187.387 393.482ZM200.352 394.4C199.647 394.4 199.035 394.285 198.516 394.053C197.996 393.821 197.588 393.496 197.291 393.079C196.995 392.662 196.828 392.179 196.791 391.632H197.757C197.795 392.045 197.929 392.393 198.161 392.676C198.397 392.958 198.706 393.174 199.086 393.322C199.466 393.466 199.888 393.538 200.352 393.538C200.871 393.538 201.332 393.452 201.736 393.281C202.139 393.104 202.455 392.861 202.682 392.55C202.914 392.24 203.029 391.876 203.029 391.458C203.029 391.106 202.937 390.812 202.751 390.575C202.57 390.339 202.318 390.139 201.993 389.977C201.669 389.815 201.291 389.671 200.859 389.546L199.628 389.184C198.817 388.948 198.186 388.614 197.737 388.183C197.287 387.751 197.062 387.204 197.062 386.541C197.062 385.985 197.21 385.496 197.507 385.074C197.808 384.647 198.214 384.315 198.724 384.079C199.234 383.838 199.807 383.717 200.442 383.717C201.087 383.717 201.657 383.838 202.153 384.079C202.649 384.315 203.043 384.64 203.336 385.053C203.628 385.461 203.785 385.927 203.808 386.451H202.883C202.828 385.876 202.575 385.419 202.125 385.081C201.676 384.737 201.105 384.566 200.414 384.566C199.937 384.566 199.515 384.649 199.149 384.816C198.782 384.983 198.495 385.213 198.286 385.505C198.082 385.797 197.98 386.128 197.98 386.499C197.98 386.861 198.082 387.165 198.286 387.411C198.49 387.652 198.75 387.849 199.065 388.002C199.38 388.155 199.705 388.282 200.039 388.384L201.131 388.697C201.46 388.795 201.789 388.915 202.118 389.059C202.448 389.198 202.749 389.374 203.023 389.587C203.301 389.801 203.523 390.063 203.69 390.373C203.862 390.679 203.948 391.048 203.948 391.479C203.948 392.026 203.804 392.523 203.516 392.968C203.229 393.408 202.816 393.758 202.278 394.018C201.745 394.273 201.103 394.4 200.352 394.4ZM205.784 394.227V383.863H206.73V388.614H212.614V383.863H213.553V394.227H212.614V389.462H206.73V394.227H205.784ZM215.876 394.227H214.881L218.658 383.863H219.666L223.436 394.227H222.448L219.193 385.094H219.124L215.876 394.227ZM216.592 390.255H221.732V391.104H216.592V390.255ZM224.757 394.227V383.863H228.11C228.847 383.863 229.461 383.998 229.953 384.267C230.444 384.531 230.815 384.897 231.066 385.366C231.321 385.834 231.448 386.37 231.448 386.972C231.448 387.575 231.323 388.108 231.073 388.572C230.822 389.031 230.449 389.39 229.953 389.65C229.461 389.91 228.852 390.04 228.124 390.04H225.279V389.177H228.096C228.638 389.177 229.088 389.087 229.445 388.906C229.802 388.725 230.069 388.47 230.245 388.141C230.426 387.812 230.516 387.422 230.516 386.972C230.516 386.518 230.426 386.121 230.245 385.783C230.064 385.445 229.795 385.183 229.438 384.997C229.081 384.812 228.629 384.719 228.082 384.719H225.703V394.227H224.757ZM230.781 394.227L228.263 389.546H229.334L231.879 394.227H230.781ZM233.312 394.227V383.863H239.328V384.719H234.258V388.586H239.009V389.434H234.258V393.378H239.426V394.227H233.312Z" fill="#DF91B5"/>
</g>
<defs>
<clipPath id="clip0_797_51800">
<rect width="365.007" height="457" rx="11.8701" fill="white"/>
</clipPath>
<clipPath id="clip1_797_51800">
<rect width="457" height="457" fill="white" transform="translate(-91.9922)"/>
</clipPath>
</defs>
</svg>
