<svg width="462" height="578" viewBox="0 0 462 578" fill="none" xmlns="http://www.w3.org/2000/svg">
<g clip-path="url(#clip0_1100_2524)">
<rect width="461.649" height="578" rx="15.013" fill="#DF91B5"/>
<g clip-path="url(#clip1_1100_2524)">
<path d="M461.463 0H-116.352V577.815H461.463V0Z" fill="#DF91B5"/>
<path d="M37.7321 38.5215H-0.789062V77.0424H37.7321V38.5215Z" fill="#B70012"/>
<path d="M76.2553 0H37.7344V38.5209H76.2553V0Z" fill="#B70012"/>
<path d="M114.777 38.5215H76.2559V77.0424H114.777V38.5215Z" fill="#B70012"/>
<path d="M153.297 0H114.775V38.5209H153.297V0Z" fill="#B70012"/>
<path d="M191.818 38.5215H153.297V77.0424H191.818V38.5215Z" fill="#B70012"/>
<path d="M230.337 0H191.816V38.5209H230.337V0Z" fill="#B70012"/>
<path d="M268.859 38.5215H230.338V77.0424H268.859V38.5215Z" fill="#B70012"/>
<path d="M307.378 0H268.857V38.5209H307.378V0Z" fill="#B70012"/>
<path d="M345.9 38.5215H307.379V77.0424H345.9V38.5215Z" fill="#B70012"/>
<path d="M384.42 0H345.898V38.5209H384.42V0Z" fill="#B70012"/>
<path d="M422.945 38.5215H384.424V77.0424H422.945V38.5215Z" fill="#B70012"/>
<path d="M461.464 0H422.943V38.5209H461.464V0Z" fill="#B70012"/>
<path d="M37.7321 115.562H-0.789062V154.083H37.7321V115.562Z" fill="#B70012"/>
<path d="M76.2553 77.043H37.7344V115.564H76.2553V77.043Z" fill="#B70012"/>
<path d="M114.777 115.562H76.2559V154.083H114.777V115.562Z" fill="#B70012"/>
<path d="M153.297 77.043H114.775V115.564H153.297V77.043Z" fill="#B70012"/>
<path d="M191.818 115.562H153.297V154.083H191.818V115.562Z" fill="#B70012"/>
<path d="M230.337 77.043H191.816V115.564H230.337V77.043Z" fill="#B70012"/>
<path d="M268.859 115.562H230.338V154.083H268.859V115.562Z" fill="#B70012"/>
<path d="M307.378 77.043H268.857V115.564H307.378V77.043Z" fill="#B70012"/>
<path d="M345.9 115.562H307.379V154.083H345.9V115.562Z" fill="#B70012"/>
<path d="M384.42 77.043H345.898V115.564H384.42V77.043Z" fill="#B70012"/>
<path d="M422.945 115.562H384.424V154.083H422.945V115.562Z" fill="#B70012"/>
<path d="M461.464 77.043H422.943V115.564H461.464V77.043Z" fill="#B70012"/>
<path d="M37.7321 192.605H-0.789062V231.126H37.7321V192.605Z" fill="#B70012"/>
<path d="M76.2553 154.084H37.7344V192.605H76.2553V154.084Z" fill="#B70012"/>
<path d="M114.777 192.605H76.2559V231.126H114.777V192.605Z" fill="#B70012"/>
<path d="M153.297 154.084H114.775V192.605H153.297V154.084Z" fill="#B70012"/>
<path d="M191.818 192.605H153.297V231.126H191.818V192.605Z" fill="#B70012"/>
<path d="M230.337 154.084H191.816V192.605H230.337V154.084Z" fill="#B70012"/>
<path d="M268.859 192.605H230.338V231.126H268.859V192.605Z" fill="#B70012"/>
<path d="M307.378 154.084H268.857V192.605H307.378V154.084Z" fill="#B70012"/>
<path d="M345.9 192.605H307.379V231.126H345.9V192.605Z" fill="#B70012"/>
<path d="M384.42 154.084H345.898V192.605H384.42V154.084Z" fill="#B70012"/>
<path d="M422.945 192.605H384.424V231.126H422.945V192.605Z" fill="#B70012"/>
<path d="M461.464 154.084H422.943V192.605H461.464V154.084Z" fill="#B70012"/>
<path d="M37.7321 269.646H-0.789062V308.167H37.7321V269.646Z" fill="#B70012"/>
<path d="M76.2553 231.125H37.7344V269.646H76.2553V231.125Z" fill="#B70012"/>
<path d="M114.777 269.646H76.2559V308.167H114.777V269.646Z" fill="#B70012"/>
<path d="M153.297 231.125H114.775V269.646H153.297V231.125Z" fill="#B70012"/>
<path d="M191.818 269.646H153.297V308.167H191.818V269.646Z" fill="#B70012"/>
<path d="M230.337 231.125H191.816V269.646H230.337V231.125Z" fill="#B70012"/>
<path d="M268.859 269.646H230.338V308.167H268.859V269.646Z" fill="#B70012"/>
<path d="M307.378 231.125H268.857V269.646H307.378V231.125Z" fill="#B70012"/>
<path d="M345.9 269.646H307.379V308.167H345.9V269.646Z" fill="#B70012"/>
<path d="M384.42 231.125H345.898V269.646H384.42V231.125Z" fill="#B70012"/>
<path d="M422.945 269.646H384.424V308.167H422.945V269.646Z" fill="#B70012"/>
<path d="M461.464 231.125H422.943V269.646H461.464V231.125Z" fill="#B70012"/>
<path d="M37.7321 346.689H-0.789062V385.21H37.7321V346.689Z" fill="#B70012"/>
<path d="M76.2553 308.168H37.7344V346.689H76.2553V308.168Z" fill="#B70012"/>
<path d="M114.777 346.689H76.2559V385.21H114.777V346.689Z" fill="#B70012"/>
<path d="M153.297 308.168H114.775V346.689H153.297V308.168Z" fill="#B70012"/>
<path d="M191.818 346.689H153.297V385.21H191.818V346.689Z" fill="#B70012"/>
<path d="M230.337 308.168H191.816V346.689H230.337V308.168Z" fill="#B70012"/>
<path d="M268.859 346.689H230.338V385.21H268.859V346.689Z" fill="#B70012"/>
<path d="M307.378 308.168H268.857V346.689H307.378V308.168Z" fill="#B70012"/>
<path d="M345.9 346.689H307.379V385.21H345.9V346.689Z" fill="#B70012"/>
<path d="M384.42 308.168H345.898V346.689H384.42V308.168Z" fill="#B70012"/>
<path d="M422.945 346.689H384.424V385.21H422.945V346.689Z" fill="#B70012"/>
<path d="M461.464 308.168H422.943V346.689H461.464V308.168Z" fill="#B70012"/>
<path d="M37.7321 423.73H-0.789062V462.251H37.7321V423.73Z" fill="#B70012"/>
<path d="M76.2553 385.211H37.7344V423.732H76.2553V385.211Z" fill="#B70012"/>
<path d="M114.777 423.73H76.2559V462.251H114.777V423.73Z" fill="#B70012"/>
<path d="M153.297 385.211H114.775V423.732H153.297V385.211Z" fill="#B70012"/>
<path d="M191.818 423.73H153.297V462.251H191.818V423.73Z" fill="#B70012"/>
<path d="M230.337 385.211H191.816V423.732H230.337V385.211Z" fill="#B70012"/>
<path d="M268.859 423.73H230.338V462.251H268.859V423.73Z" fill="#B70012"/>
<path d="M307.378 385.211H268.857V423.732H307.378V385.211Z" fill="#B70012"/>
<path d="M345.9 423.73H307.379V462.251H345.9V423.73Z" fill="#B70012"/>
<path d="M384.42 385.211H345.898V423.732H384.42V385.211Z" fill="#B70012"/>
<path d="M422.945 423.73H384.424V462.251H422.945V423.73Z" fill="#B70012"/>
<path d="M461.464 385.211H422.943V423.732H461.464V385.211Z" fill="#B70012"/>
<path d="M37.7321 500.773H-0.789062V539.294H37.7321V500.773Z" fill="#B70012"/>
<path d="M76.2553 462.252H37.7344V500.773H76.2553V462.252Z" fill="#B70012"/>
<path d="M114.777 500.773H76.2559V539.294H114.777V500.773Z" fill="#B70012"/>
<path d="M153.297 462.252H114.775V500.773H153.297V462.252Z" fill="#B70012"/>
<path d="M191.818 500.773H153.297V539.294H191.818V500.773Z" fill="#B70012"/>
<path d="M230.337 462.252H191.816V500.773H230.337V462.252Z" fill="#B70012"/>
<path d="M268.859 500.773H230.338V539.294H268.859V500.773Z" fill="#B70012"/>
<path d="M307.378 462.252H268.857V500.773H307.378V462.252Z" fill="#B70012"/>
<path d="M345.9 500.773H307.379V539.294H345.9V500.773Z" fill="#B70012"/>
<path d="M384.42 462.252H345.898V500.773H384.42V462.252Z" fill="#B70012"/>
<path d="M422.945 500.773H384.424V539.294H422.945V500.773Z" fill="#B70012"/>
<path d="M461.464 462.252H422.943V500.773H461.464V462.252Z" fill="#B70012"/>
<path d="M76.2553 539.293H37.7344V577.814H76.2553V539.293Z" fill="#B70012"/>
<path d="M153.297 539.293H114.775V577.814H153.297V539.293Z" fill="#B70012"/>
<path d="M230.337 539.293H191.816V577.814H230.337V539.293Z" fill="#B70012"/>
<path d="M307.378 539.293H268.857V577.814H307.378V539.293Z" fill="#B70012"/>
<path d="M384.42 539.293H345.898V577.814H384.42V539.293Z" fill="#B70012"/>
<path d="M461.464 539.293H422.943V577.814H461.464V539.293Z" fill="#B70012"/>
<rect width="392.214" height="504.436" transform="translate(30.7754 38.2832)" fill="#B70012"/>
</g>
</g>
<defs>
<clipPath id="clip0_1100_2524">
<rect width="461.649" height="578" rx="15.013" fill="white"/>
</clipPath>
<clipPath id="clip1_1100_2524">
<rect width="463" height="578" fill="white" transform="translate(-1)"/>
</clipPath>
</defs>
</svg>
