<svg width="24" height="24" viewBox="0 0 24 24" fill="none" xmlns="http://www.w3.org/2000/svg">
<path d="M21.0295 11.5508L19.1484 12.5089H18.0257L16.1445 11.5508C17.2538 11.1999 17.1271 9.68359 17.1271 9.68359H20.0469C20.0469 9.68359 19.9207 11.1999 21.0295 11.5508Z" fill="#CEA472"/>
<path d="M23.4867 14.1576V17.653C23.4867 17.9319 23.2611 18.1579 22.9822 18.1579H14.1925C13.9136 18.1579 13.6875 17.9319 13.6875 17.653V14.1576C13.6875 13.5523 13.9481 12.9451 14.4953 12.5237C14.6801 12.3869 14.8981 12.2554 15.151 12.1541C15.8456 11.8819 16.2003 11.4183 16.2003 11.4183C16.2094 11.4063 16.2181 11.3971 16.2305 11.3909C16.2608 11.364 16.2963 11.3482 16.3342 11.3424C16.3928 11.3328 16.4557 11.3501 16.5046 11.3938C16.7221 11.5824 17.1329 11.9055 17.6048 12.121C17.9091 12.2602 18.2389 12.3543 18.5585 12.3389H18.5859C18.9161 12.36 19.2565 12.264 19.5694 12.1205C20.0427 11.904 20.4526 11.5805 20.6696 11.3938C20.7181 11.3501 20.7805 11.3338 20.84 11.3429C20.8904 11.3496 20.9384 11.3755 20.9739 11.4178V11.4207C21.2571 11.7485 21.6209 11.9957 22.0232 12.1536C22.2766 12.2549 22.4945 12.3864 22.6789 12.5232C22.7955 12.6125 22.8992 12.7114 22.9923 12.8184C23.3105 13.189 23.4867 13.6632 23.4867 14.1576Z" fill="#C2523C"/>
<path d="M20.8391 11.3429C20.7796 11.3338 20.7172 11.3501 20.6687 11.3938C20.4513 11.5805 20.0414 11.904 19.5686 12.1205C19.2556 12.2635 18.9153 12.36 18.585 12.3389H18.5577C18.238 12.3543 17.9082 12.2602 17.6039 12.121C17.1321 11.9055 16.7212 11.5824 16.5038 11.3938C16.4548 11.3501 16.3919 11.3328 16.3334 11.3424C16.2954 11.3477 16.2599 11.364 16.2297 11.3909C16.2177 11.3971 16.209 11.4058 16.1994 11.4183C16.2167 11.4183 15.9465 11.6741 15.9297 11.688C16.1394 11.8306 16.259 12.1075 16.3626 12.3346C16.593 12.8395 16.9343 13.3037 17.2185 13.7799C17.5022 14.2555 17.783 14.7331 17.997 15.2448C18.1094 15.5127 18.2049 15.7843 18.2586 16.0704C18.2663 16.1103 18.2716 16.1506 18.2783 16.1909C18.4276 16.1266 18.599 16.0896 18.7953 16.0896C18.8097 16.0896 18.8231 16.0915 18.837 16.0915C18.8692 15.9807 18.9062 15.8717 18.9575 15.7632C19.1812 15.2875 19.3943 14.8143 19.5906 14.3266C19.7908 13.8293 19.9914 13.332 20.1993 12.8381C20.4162 12.3226 20.8694 11.4403 20.9159 11.3717C20.8924 11.3563 20.866 11.3463 20.8391 11.3429Z" fill="#D7DADC"/>
<path d="M18.586 15.6244C18.586 15.6244 17.9438 13.9387 17.4479 12.37C17.2622 11.7825 17.0985 11.2156 17.0034 10.7812C16.9228 10.8595 16.8575 10.9972 16.7908 11.0668C16.6838 11.1792 16.5618 11.2507 16.425 11.3212C16.1985 11.4379 16.2042 11.5771 16.1294 11.7873C16.1807 11.8569 16.1702 11.9621 16.1097 12.024C16.0218 12.1137 15.9546 12.2208 15.8452 12.2865C15.8284 12.5054 15.959 12.478 16.1706 12.478C16.2887 12.478 16.3583 12.611 16.2825 12.6907L15.946 13.0464C15.9095 13.0848 15.9057 13.1429 15.9374 13.1889C16.1342 13.4774 16.8191 14.4969 17.4086 15.562C17.5578 15.8318 17.6903 16.1016 17.805 16.3704C17.9394 16.6843 18.2447 16.8883 18.5855 16.8883L18.586 15.6244Z" fill="#E46047"/>
<path d="M21.1506 11.7792C21.2043 11.1984 20.5261 11.0193 20.1925 10.6684L20.192 10.668C20.1018 11.1144 19.9261 11.7297 19.724 12.3691C19.2287 13.9382 18.5859 15.624 18.5859 15.624V16.8873C18.9272 16.8873 19.2325 16.6828 19.3669 16.3689C19.4816 16.1001 19.6136 15.8308 19.7629 15.5611C20.3523 14.496 21.0368 13.4769 21.2341 13.188C21.2658 13.1414 21.2624 13.0838 21.2259 13.0454L20.889 12.6897C20.8136 12.61 20.8827 12.4771 21.0008 12.4771C21.4141 12.4771 21.3335 12.3854 21.3008 11.9539C21.2159 11.9472 21.1405 11.8891 21.1506 11.7792Z" fill="#E46047"/>
<path d="M15.6953 14.8459V18.1584H14.192C13.9136 18.1584 13.6875 17.9328 13.6875 17.6539V14.1576C13.6875 13.6627 13.8641 13.188 14.1809 12.8203C14.5088 12.875 15.0181 13.0642 15.3872 13.6877C15.5945 14.0371 15.6953 14.4394 15.6953 14.8459Z" fill="#E46047"/>
<path d="M23.4873 14.1581V17.6544C23.4873 17.9333 23.2617 18.1589 22.9829 18.1589H21.4805V14.8464C21.4805 14.4403 21.5817 14.0376 21.7881 13.6877C22.1573 13.0646 22.6665 12.875 22.9944 12.8203C23.3112 13.1885 23.4873 13.6632 23.4873 14.1581Z" fill="#E46047"/>
<path d="M20.8085 9.13595C20.7105 9.42923 20.4009 9.31547 20.4009 9.31547C20.2901 10.262 19.8893 10.5976 19.8643 10.6177C19.8633 10.6182 19.8629 10.6187 19.8629 10.6187C19.2677 11.2806 18.5237 11.2408 18.5237 11.2408C17.7355 11.3339 17.2229 10.7329 17.2229 10.7329C16.799 10.5534 16.5221 9.20123 16.5221 9.20123C16.2072 8.54267 16.211 8.18027 16.2681 7.99307C16.2907 7.91771 16.4001 7.92251 16.4174 7.99979L16.4443 8.11883C16.4563 8.17163 16.5326 8.16827 16.5413 8.11451C16.8701 5.93483 18.1305 5.50859 19.1947 6.15419C19.8465 6.46379 20.303 7.88171 20.303 7.88171C20.2387 7.06379 19.5585 6.27707 19.5374 6.25259C20.6126 6.88811 20.5963 7.99547 20.5963 7.99547C21.1181 7.70171 20.8085 9.13595 20.8085 9.13595Z" fill="#EAC18B"/>
<path d="M20.2493 9.99073C20.0904 10.4314 19.8825 10.6056 19.8643 10.62C19.8633 10.6205 19.8629 10.621 19.8629 10.621C19.2677 11.2829 18.5237 11.243 18.5237 11.243C17.7355 11.3362 17.2229 10.7352 17.2229 10.7352C16.799 10.5557 16.5221 9.20353 16.5221 9.20353C16.2072 8.54497 16.211 8.18257 16.2681 7.99537C16.2907 7.92001 16.4001 7.92481 16.4174 8.00209L16.4443 8.12113C16.4515 8.15329 16.4837 8.16481 16.5086 8.15665C16.5518 8.32417 16.6243 8.52625 16.74 8.76769C16.74 8.76769 17.0169 10.1203 17.4408 10.2994C17.4408 10.2994 17.9534 10.9008 18.7416 10.8072C18.7416 10.8072 19.4856 10.847 20.0808 10.1851C20.0808 10.1851 20.0813 10.1846 20.0822 10.1842C20.0923 10.1755 20.1619 10.117 20.2493 9.99073Z" fill="#D2AD7D"/>
<path d="M14.9099 14.5154C14.9099 14.5154 14.4371 13.2118 15.4964 12.3482C15.4964 12.3482 16.1319 11.7617 16.0503 10.458L16.1972 6.75912C16.1972 6.75912 16.4905 4.95048 17.9569 4.78728C17.9569 4.78728 19.9451 4.05384 20.7107 6.41688C20.7107 6.41688 21.1019 9.138 21.2156 9.74088C21.2156 9.74088 21.5579 11.5495 21.3947 12.283C21.3947 12.283 22.5678 13.049 22.6167 14.5154C22.6167 14.5154 22.0955 13.1628 21.5737 12.9348C21.5737 12.9348 22.7468 14.6134 22.095 15.6396C22.095 15.6396 22.1603 15.3463 21.9807 15.151C21.9807 15.151 21.4105 16.0634 20.6771 16.1614C20.6771 16.1614 21.1009 15.0694 20.5465 14.3201C20.5465 14.3201 19.911 13.7335 20.0415 12.6578C20.0415 12.6578 19.5692 11.0119 19.8625 10.6207C19.8625 10.6207 20.2863 10.2948 20.4001 9.31704C20.4001 9.31704 20.7097 9.43128 20.8076 9.138C20.8076 9.138 21.1172 7.70376 20.5959 7.99752C20.5959 7.99752 20.6123 6.8892 19.5366 6.25368C19.5366 6.25368 20.2374 7.05192 20.3027 7.88328C20.3027 7.88328 19.8462 6.46584 19.1943 6.15624C18.1667 5.53272 16.8779 5.88216 16.5409 8.11656C16.5327 8.17032 16.4564 8.17416 16.4444 8.12088L16.4171 8.00184C16.3993 7.92504 16.2908 7.92024 16.2678 7.9956C16.2107 8.1828 16.2068 8.5452 16.5222 9.20376C16.5222 9.20376 16.7991 10.5564 17.223 10.7354C17.223 10.7354 17.3862 11.3546 16.946 12.0718C16.946 12.0718 16.6691 12.5767 16.8971 13.962C16.8971 13.962 16.946 14.5649 16.1636 14.7118C16.1636 14.7118 16.6686 13.9783 16.4895 13.4081C16.4895 13.4081 15.6097 14.2553 15.8051 15.2004C15.8051 15.2004 15.3164 15.1678 15.2348 14.5322C15.2348 14.5322 15.1859 13.4729 15.6423 12.642C15.6428 12.6415 14.9583 13.049 14.9099 14.5154Z" fill="#555555"/>
<path d="M6.08831 11.3359V18.1615H3.80303C3.55535 18.1615 3.35183 17.9729 3.32687 17.7267C3.23087 16.7844 3.13103 16.3942 2.91071 15.3391C2.67791 16.1225 2.52191 16.9236 2.42735 17.7329C2.39903 17.9763 2.19695 18.1615 1.95215 18.1615H0.998866C0.723346 18.1615 0.500147 17.9297 0.516467 17.6547C0.669107 15.0723 1.14143 13.3947 1.38911 12.4351C1.55231 11.7919 2.15231 11.3359 2.84351 11.3359H6.08831Z" fill="#4FB7E4"/>
<path d="M8.3717 18.1582C8.61986 18.1582 8.82338 17.9686 8.84786 17.7219C8.93426 16.8535 9.02258 16.5017 9.2621 15.3358C9.49442 16.1206 9.65282 16.9212 9.74786 17.73C9.77666 17.9734 9.97826 18.1582 10.2231 18.1582H11.1749C11.4509 18.1582 11.6741 17.9259 11.6573 17.6508C11.5661 16.1379 11.3463 14.634 10.9714 13.159L10.7866 12.4337C10.6229 11.7895 10.02 11.3359 9.32834 11.3359H6.08594V18.1587H8.3717V18.1582Z" fill="#4FB7E4"/>
<path d="M8.058 11.3359L6.14664 14.4958H6.02232L3.97656 11.3359H8.058Z" fill="white"/>
<path d="M6.02344 14.4961H6.14776V18.159H6.02344V14.4961Z" fill="#5591C8"/>
<path d="M8.56284 11.029L8.53884 10.9944C8.34924 10.7227 8.04348 10.5552 7.71228 10.5413L6.7206 10.5C6.7206 10.5 7.39308 10.7621 7.55532 11.7072C7.57404 11.8152 7.55436 11.9266 7.50156 12.023L6.14844 14.496L8.53788 11.6237C8.679 11.4533 8.68956 11.2099 8.56284 11.029Z" fill="#9FD7ED"/>
<path d="M3.60793 11.0294L3.63193 10.9949C3.82153 10.7232 4.12729 10.5557 4.45849 10.5418L5.45017 10.5C5.45017 10.5 4.77769 10.7621 4.61545 11.7072C4.59721 11.8157 4.61641 11.927 4.66921 12.023L6.02233 14.496L3.63289 11.6237C3.49177 11.4538 3.48121 11.2104 3.60793 11.0294Z" fill="#9FD7ED"/>
<path d="M7.20661 8.47266H4.96597L4.72501 11.0018C4.64869 11.8048 5.27989 12.4989 6.08629 12.4989C6.89269 12.4989 7.52389 11.8043 7.44757 11.0018L7.20661 8.47266Z" fill="#CEA472"/>
<path d="M4.2958 8.92657C4.2958 8.92657 3.8638 6.90337 4.26316 6.34417C4.37308 6.19009 4.4686 6.02017 4.54252 5.84593C4.70284 5.46865 5.11948 4.94017 6.1942 4.97425C6.1942 4.97425 7.61788 4.73713 7.93708 6.26449C7.93708 6.26449 8.1742 7.64401 8.03356 8.71153L7.72972 9.01537L4.2958 8.92657Z" fill="#555555"/>
<path d="M8.22926 8.5557C8.21678 8.6445 8.21007 8.73426 8.20767 8.82402C8.20095 9.10818 8.01086 9.71058 7.71998 9.33714C7.71998 9.33714 7.7915 10.0442 7.2179 10.5275C7.16174 10.5746 7.09982 10.6144 7.03502 10.648L6.57231 10.888C6.30255 11.0277 6.03614 11.0066 6.08606 11.0066C5.73326 11.0066 5.12078 10.6677 4.95374 10.5275C4.38014 10.0447 4.45167 9.33714 4.45167 9.33714C4.16127 9.71058 3.97119 9.10818 3.96399 8.82402C3.96159 8.73426 3.95486 8.64498 3.94286 8.5557C3.88574 8.14578 4.10895 8.18946 4.16559 8.25714C4.19535 8.29266 4.21358 8.33634 4.21886 8.38242L4.26446 8.79666L4.33694 8.75058C4.16798 8.1645 4.29231 7.13442 4.29231 7.13442C4.57647 5.90034 5.07567 6.1845 5.07567 6.1845C5.50383 6.46866 6.66783 6.46866 7.09647 6.1845C7.09647 6.1845 7.59567 5.90034 7.87983 7.13442C7.87983 7.13442 8.00414 8.1645 7.83518 8.75058L7.90767 8.79666L7.95326 8.38242C7.95854 8.33634 7.97679 8.29266 8.00655 8.25714C8.06319 8.18946 8.28686 8.1453 8.22926 8.5557Z" fill="#EAC18B"/>
<path d="M7.33586 10.3491C7.37474 10.328 7.41362 10.3073 7.44914 10.2804C7.38626 10.3668 7.31186 10.4508 7.21922 10.5281C7.16258 10.5761 7.0997 10.6145 7.0373 10.6476L6.57458 10.8867C6.42242 10.9673 6.25538 11.0062 6.08786 11.0062C5.73026 11.0062 5.1101 10.6649 4.9565 10.5286C4.3805 10.0448 4.45202 9.33725 4.45202 9.33725C4.16258 9.71021 3.9725 9.10733 3.96674 8.82365C3.96386 8.73389 3.95762 8.64461 3.94274 8.55485C3.8861 8.14589 4.10882 8.19053 4.16546 8.25629C4.19522 8.29229 4.21634 8.33693 4.21922 8.38157L4.26386 8.79677L4.33826 8.75213C4.16786 8.16413 4.29362 7.13405 4.29362 7.13405C4.3685 6.80861 4.45778 6.58781 4.55042 6.44141C4.61906 7.41149 4.71746 8.74589 4.75058 9.03869C4.70306 9.51005 4.98194 10.1216 5.43746 10.3491C5.77826 10.5272 6.03554 10.7072 6.3869 10.7072C6.55394 10.7072 6.72146 10.6683 6.87362 10.5876L7.33586 10.3491Z" fill="#D2AD7D"/>
<path d="M2.91071 15.3391C2.67791 16.1225 2.52191 16.9236 2.42735 17.7329C2.39903 17.9763 2.19695 18.1615 1.95215 18.1615H0.998866C0.723346 18.1615 0.500147 17.9297 0.516467 17.6547C0.669107 15.0723 1.14143 13.3947 1.38911 12.4351C1.55231 11.7919 2.15231 11.3359 2.84351 11.3359C3.60191 12.4687 2.91071 15.3391 2.91071 15.3391Z" fill="#9FD7ED"/>
<path d="M9.26478 15.3391C9.49758 16.1225 9.65358 16.9236 9.74862 17.7329C9.77694 17.9763 9.97854 18.1615 10.2238 18.1615H11.1766C11.4521 18.1615 11.6753 17.9297 11.659 17.6547C11.5697 16.1407 11.3494 14.6369 10.9736 13.1599L10.7864 12.4351C10.6232 11.7919 10.0232 11.3359 9.33198 11.3359C8.57358 12.4687 9.26478 15.3391 9.26478 15.3391Z" fill="#9FD7ED"/>
<path d="M14.6478 12.7941L12.9673 13.8261H11.9344L10.2539 12.7941C11.4073 12.1668 11.1654 11.418 11.1654 11.418H13.7363C13.7363 11.418 13.4949 12.1668 14.6478 12.7941Z" fill="#CEA472"/>
<path d="M10.754 10.1624C10.754 10.1624 10.2408 7.75756 10.8946 7.58908C10.8946 7.58908 10.9791 6.36556 12.554 6.415C12.554 6.415 13.9037 6.18988 14.2061 7.63852C14.2061 7.63852 14.4312 8.94652 14.2973 9.95884L14.0088 10.2473L10.754 10.1624Z" fill="#555555"/>
<path d="M17.3391 19.3192H7.50441C7.11897 19.3192 6.81369 18.9942 6.83721 18.6097L7.00185 15.9184C7.06425 13.4949 8.10441 13.1305 8.10441 13.1305C9.39225 12.8209 10.1343 12.4917 10.5582 12.2325C11.0171 11.9517 11.1721 11.7539 11.1721 11.7539C11.1932 12.4273 11.6252 12.7936 12.422 12.9707C13.2188 12.7931 13.7127 12.4273 13.7338 11.7539C13.7338 11.7539 13.827 11.9517 14.2863 12.2325C14.7097 12.4917 15.4518 12.8209 16.7401 13.1305C16.7401 13.1305 17.7802 13.4949 17.8426 15.9184L18.0073 18.6097C18.0303 18.9942 17.7246 19.3192 17.3391 19.3192Z" fill="#555555"/>
<path d="M14.1159 12.8438L13.3993 16.5556L12.4234 19.3213L11.6842 16.9094L10.7305 12.8438L12.4532 12.9734L14.1159 12.8438Z" fill="#D7DADC"/>
<path d="M8.86233 19.3215H7.50441C7.11897 19.3215 6.81369 18.9965 6.83721 18.612L7.00185 15.9207C7.06425 13.4971 8.10441 13.1328 8.10441 13.1328L8.61609 14.5503C8.92617 15.4095 8.86233 15.6605 8.86233 19.3215Z" fill="#747474"/>
<path d="M15.9805 15.9576V19.3215H17.3384C17.7238 19.3215 18.0291 18.9965 18.0056 18.612L17.8409 15.9207C17.7785 13.4971 16.7384 13.1328 16.7384 13.1328L16.2267 14.5503C16.064 15.0015 15.9805 15.4776 15.9805 15.9576Z" fill="#747474"/>
<path d="M14.3476 9.81022C14.3361 9.8947 14.3294 9.97966 14.3275 10.0646C14.3207 10.3339 14.2751 10.9051 13.9996 10.5509C14.1057 11.5997 12.6263 12.731 11.3774 11.6793C10.8335 11.2214 10.9012 10.5509 10.9012 10.5509C10.6257 10.9051 10.5801 10.3339 10.5739 10.0646C10.5719 9.97966 10.5652 9.8947 10.5537 9.81022C10.4995 9.42142 10.5763 9.4627 10.63 9.5275C10.6583 9.5611 10.6756 9.60286 10.6804 9.64606L10.7236 10.0387L10.7923 9.99502C10.6324 9.43918 10.75 8.46286 10.75 8.46286C11.0198 7.29262 11.4931 7.5619 11.4931 7.5619C11.8991 7.83118 13.0027 7.83118 13.4087 7.5619C13.4087 7.5619 13.882 7.29262 14.1518 8.46286C14.1518 8.46286 14.2699 9.43966 14.1095 9.99502L14.1782 10.0387L14.2214 9.64606C14.2262 9.60238 14.2439 9.5611 14.2718 9.5275C14.3251 9.46318 14.4023 9.42142 14.3476 9.81022Z" fill="#EAC18B"/>
<path d="M13.6361 11.5103C13.673 11.4906 13.7095 11.4704 13.7436 11.445C13.6346 11.5957 13.5074 11.7124 13.3529 11.793C12.5129 12.2264 12.5023 12.2893 11.5529 11.793C11.4905 11.7618 11.4309 11.7248 11.3801 11.6797C10.8338 11.2213 10.9015 10.5503 10.9015 10.5503C10.6269 10.904 10.5818 10.3324 10.5761 10.0636C10.5732 9.97861 10.5674 9.89365 10.5535 9.80869C10.4997 9.42085 10.5761 9.46309 10.6298 9.52549C10.6581 9.55957 10.6778 9.60181 10.6807 9.64453L10.7234 10.0381L10.794 9.99541C10.6327 9.43765 10.7513 8.46133 10.7513 8.46133C10.8218 8.15269 10.9068 7.94341 10.9946 7.80469C11.0599 8.72485 11.153 9.98965 11.1842 10.2671C11.1391 10.7125 11.4031 11.2933 11.8351 11.5098C12.7855 12.0066 12.7956 11.9442 13.6361 11.5103Z" fill="#D2AD7D"/>
<path d="M12.5898 14.0303C12.5898 14.0303 12.6182 14.2838 12.7655 14.6049C13.0002 15.1166 13.2018 15.6427 13.3214 16.1927L13.3996 16.5537L13.0526 18.0244L12.4238 19.3195L11.6673 18.0244L11.543 15.7118C11.543 15.7118 12.2342 14.3035 12.1679 14.0894L12.1977 13.7731L12.538 13.7227L12.5898 14.0303Z" fill="#C2523C"/>
<path d="M11.8041 13.2175L12.4223 12.9727L13.2806 13.2175L13.2302 13.4791C13.2302 13.4791 12.5889 13.6562 12.5889 14.032C12.5889 14.032 12.2558 13.8885 12.167 14.0911C12.167 14.0911 12.1367 13.696 11.6836 13.4752L11.8041 13.2175Z" fill="#E46047"/>
<path d="M13.7294 11.7539L14.0246 12.6203L13.3632 13.7541C13.3161 13.8347 13.2019 13.84 13.1481 13.7641C12.97 13.5117 12.624 13.0504 12.4219 12.9712C12.4219 12.9712 13.7246 12.0918 13.7294 11.7539Z" fill="white"/>
<path d="M11.1897 11.7539L10.8945 12.6203L11.5531 13.7493C11.6006 13.8309 11.7168 13.8352 11.7696 13.7569C11.94 13.503 12.2664 13.0489 12.467 12.9707C12.4675 12.9712 11.1945 12.0918 11.1897 11.7539Z" fill="white"/>
<path d="M12.422 19.3192H12.0457C11.6497 17.7793 10.3537 14.5288 10.0983 14.0166C10.0729 13.9657 10.0878 13.9038 10.1329 13.8697L10.4458 13.635C10.5217 13.5779 10.5025 13.4593 10.4127 13.4291L10.215 13.3629C10.1497 13.3408 10.117 13.2683 10.1439 13.2049L10.5577 12.2325C11.0166 11.9517 11.1716 11.7539 11.1716 11.7539L12.422 19.3192Z" fill="#747474"/>
<path d="M12.4219 19.3192H12.7982C13.1942 17.7793 14.4902 14.5288 14.7456 14.0166C14.771 13.9657 14.7561 13.9038 14.7105 13.8697L14.3976 13.635C14.3217 13.5779 14.3409 13.4593 14.4307 13.4291C14.579 13.3792 14.7604 13.3489 14.6995 13.2049L14.2857 12.2325C13.8268 11.9517 13.7332 11.7539 13.7332 11.7539L12.4219 19.3192Z" fill="#747474"/>
</svg>
