<svg width="180" height="182" viewBox="0 0 180 182" fill="none" xmlns="http://www.w3.org/2000/svg">
<g clip-path="url(#clip0_1061_40989)">
<rect width="180" height="181.189" rx="7.92952" fill="white"/>
<rect width="180" height="34.4934" transform="translate(0 146.697)" fill="#DC2827"/>
<rect width="180" height="1.5859" transform="translate(0 151.853)" fill="#ECC1C9"/>
<rect width="180" height="2.77533" transform="translate(0 153.834)" fill="#ECC1C9"/>
<path fill-rule="evenodd" clip-rule="evenodd" d="M14.3788 164.165C13.8177 164.248 13.2879 164.475 12.841 164.825C12.5638 165.053 12.3153 165.314 12.1009 165.602C11.4697 166.492 11.2239 167.686 11.4538 168.752C11.7504 170.131 12.8928 171.564 14.6008 172.699C15.3906 173.225 16.3173 173.658 16.6519 173.658C16.9865 173.658 17.9164 173.223 18.703 172.699C20.0098 171.829 20.9671 170.813 21.4958 169.735C21.8478 169.017 21.981 168.362 21.9213 167.639C21.8732 167.057 21.7543 166.625 21.5032 166.119C21.297 165.704 21.122 165.461 20.7863 165.124C20.2989 164.635 19.7666 164.336 19.1412 164.202C18.8304 164.135 18.2986 164.136 17.9851 164.203C17.5717 164.292 17.2276 164.444 16.8475 164.705L16.6519 164.84L16.4563 164.705C15.9192 164.336 15.4218 164.168 14.8122 164.152C14.6676 164.148 14.5229 164.152 14.3788 164.165Z" fill="#F2D4D9"/>
<path fill-rule="evenodd" clip-rule="evenodd" d="M29.0487 173.636C28.4876 173.553 27.9578 173.325 27.5109 172.976C27.2337 172.748 26.9852 172.487 26.7708 172.198C26.1396 171.309 25.8938 170.115 26.1237 169.049C26.4203 167.67 27.5627 166.237 29.2707 165.102C30.0605 164.576 30.9872 164.143 31.3218 164.143C31.6564 164.143 32.5863 164.578 33.3729 165.102C34.6797 165.972 35.637 166.988 36.1657 168.066C36.5178 168.784 36.651 169.439 36.5912 170.162C36.5431 170.744 36.4242 171.176 36.1731 171.681C35.9669 172.096 35.7919 172.34 35.4563 172.677C34.9689 173.166 34.4365 173.465 33.8111 173.599C33.5003 173.665 32.9685 173.665 32.655 173.598C32.2416 173.509 31.8975 173.357 31.5174 173.096L31.3218 172.961L31.1262 173.096C30.5891 173.465 30.0917 173.633 29.4822 173.649C29.3375 173.653 29.1928 173.649 29.0487 173.636Z" fill="#F2D4D9"/>
<path fill-rule="evenodd" clip-rule="evenodd" d="M43.7206 164.165C43.1595 164.248 42.6297 164.475 42.1828 164.825C41.9056 165.053 41.6571 165.314 41.4427 165.602C40.8115 166.492 40.5657 167.686 40.7956 168.752C41.0922 170.131 42.2346 171.564 43.9426 172.699C44.7324 173.225 45.6591 173.658 45.9937 173.658C46.3283 173.658 47.2582 173.223 48.0448 172.699C49.3516 171.829 50.3089 170.813 50.8376 169.735C51.1896 169.017 51.3228 168.362 51.2631 167.639C51.215 167.057 51.0961 166.625 50.845 166.119C50.6388 165.704 50.4638 165.461 50.1281 165.124C49.6407 164.635 49.1084 164.336 48.483 164.202C48.1722 164.135 47.6404 164.136 47.3269 164.203C46.9135 164.292 46.5694 164.444 46.1893 164.705L45.9937 164.84L45.7981 164.705C45.261 164.336 44.7635 164.168 44.154 164.152C44.0094 164.148 43.8646 164.152 43.7206 164.165Z" fill="#F2D4D9"/>
<path fill-rule="evenodd" clip-rule="evenodd" d="M58.3866 173.636C57.8255 173.553 57.2957 173.325 56.8488 172.976C56.5716 172.748 56.3231 172.487 56.1087 172.198C55.4775 171.309 55.2317 170.115 55.4616 169.049C55.7582 167.67 56.9006 166.237 58.6086 165.102C59.3984 164.576 60.3251 164.143 60.6597 164.143C60.9943 164.143 61.9242 164.578 62.7108 165.102C64.0176 165.972 64.9749 166.988 65.5036 168.066C65.8556 168.784 65.9889 169.439 65.9291 170.162C65.881 170.744 65.7621 171.176 65.511 171.681C65.3048 172.096 65.1298 172.34 64.7941 172.677C64.3067 173.166 63.7744 173.465 63.149 173.599C62.8382 173.665 62.3064 173.665 61.9929 173.598C61.5795 173.509 61.2354 173.357 60.8553 173.096L60.6597 172.961L60.4641 173.096C59.927 173.465 59.4296 173.633 58.82 173.649C58.6754 173.653 58.5307 173.649 58.3866 173.636Z" fill="#F2D4D9"/>
<path fill-rule="evenodd" clip-rule="evenodd" d="M73.0565 164.165C72.4955 164.248 71.9656 164.475 71.5187 164.825C71.2416 165.053 70.9931 165.314 70.7786 165.602C70.1474 166.492 69.9016 167.686 70.1316 168.752C70.4281 170.131 71.5705 171.564 73.2785 172.699C74.0683 173.225 74.995 173.658 75.3296 173.658C75.6642 173.658 76.5941 173.223 77.3807 172.699C78.6875 171.829 79.6449 170.813 80.1735 169.735C80.5256 169.017 80.6588 168.362 80.599 167.639C80.5509 167.057 80.432 166.625 80.1809 166.119C79.9747 165.704 79.7997 165.461 79.4641 165.124C78.9767 164.635 78.4443 164.336 77.819 164.202C77.5081 164.135 76.9763 164.136 76.6628 164.203C76.2494 164.292 75.9053 164.444 75.5252 164.705L75.3296 164.84L75.134 164.705C74.5969 164.336 74.0995 164.168 73.49 164.152C73.3454 164.148 73.2006 164.152 73.0565 164.165Z" fill="#F2D4D9"/>
<path fill-rule="evenodd" clip-rule="evenodd" d="M87.7245 173.636C87.1634 173.553 86.6336 173.325 86.1867 172.976C85.9095 172.748 85.661 172.487 85.4466 172.198C84.8154 171.309 84.5696 170.115 84.7995 169.049C85.0961 167.67 86.2385 166.237 87.9465 165.102C88.7363 164.576 89.663 164.143 89.9976 164.143C90.3322 164.143 91.2621 164.578 92.0487 165.102C93.3555 165.972 94.3128 166.988 94.8415 168.066C95.1935 168.784 95.3268 169.439 95.267 170.162C95.2189 170.744 95.1 171.176 94.8489 171.681C94.6427 172.096 94.4677 172.34 94.132 172.677C93.6446 173.166 93.1123 173.465 92.4869 173.599C92.1761 173.665 91.6443 173.665 91.3308 173.598C90.9174 173.509 90.5733 173.357 90.1932 173.096L89.9976 172.961L89.802 173.096C89.2649 173.465 88.7675 173.633 88.1579 173.649C88.0133 173.653 87.8686 173.649 87.7245 173.636Z" fill="#F2D4D9"/>
<path fill-rule="evenodd" clip-rule="evenodd" d="M102.396 164.165C101.835 164.248 101.305 164.475 100.859 164.825C100.581 165.053 100.333 165.314 100.118 165.602C99.4873 166.492 99.2414 167.686 99.4714 168.752C99.768 170.131 100.91 171.564 102.618 172.699C103.408 173.225 104.335 173.658 104.669 173.658C105.004 173.658 105.934 173.223 106.721 172.699C108.027 171.829 108.985 170.813 109.513 169.735C109.865 169.017 109.999 168.362 109.939 167.639C109.891 167.057 109.772 166.625 109.521 166.119C109.315 165.704 109.14 165.461 108.804 165.124C108.317 164.635 107.784 164.336 107.159 164.202C106.848 164.135 106.316 164.136 106.003 164.203C105.589 164.292 105.245 164.444 104.865 164.705L104.669 164.84L104.474 164.705C103.937 164.336 103.439 164.168 102.83 164.152C102.685 164.148 102.54 164.152 102.396 164.165Z" fill="#F2D4D9"/>
<path fill-rule="evenodd" clip-rule="evenodd" d="M117.068 173.636C116.507 173.553 115.977 173.325 115.53 172.976C115.253 172.748 115.005 172.487 114.79 172.198C114.159 171.309 113.913 170.115 114.143 169.049C114.44 167.67 115.582 166.237 117.29 165.102C118.08 164.576 119.007 164.143 119.341 164.143C119.676 164.143 120.606 164.578 121.392 165.102C122.699 165.972 123.657 166.988 124.185 168.066C124.537 168.784 124.671 169.439 124.611 170.162C124.563 170.744 124.444 171.176 124.193 171.681C123.986 172.096 123.811 172.34 123.476 172.677C122.988 173.166 122.456 173.465 121.831 173.599C121.52 173.665 120.988 173.665 120.675 173.598C120.261 173.509 119.917 173.357 119.537 173.096L119.341 172.961L119.146 173.096C118.609 173.465 118.111 173.633 117.502 173.649C117.357 173.653 117.212 173.649 117.068 173.636Z" fill="#F2D4D9"/>
<path fill-rule="evenodd" clip-rule="evenodd" d="M131.734 164.165C131.173 164.248 130.643 164.475 130.196 164.825C129.919 165.053 129.671 165.314 129.456 165.602C128.825 166.492 128.579 167.686 128.809 168.752C129.106 170.131 130.248 171.564 131.956 172.699C132.746 173.225 133.673 173.658 134.007 173.658C134.342 173.658 135.272 173.223 136.058 172.699C137.365 171.829 138.323 170.813 138.851 169.735C139.203 169.017 139.337 168.362 139.277 167.639C139.229 167.057 139.11 166.625 138.859 166.119C138.652 165.704 138.477 165.461 138.142 165.124C137.654 164.635 137.122 164.336 136.497 164.202C136.186 164.135 135.654 164.136 135.341 164.203C134.927 164.292 134.583 164.444 134.203 164.705L134.007 164.84L133.812 164.705C133.275 164.336 132.777 164.168 132.168 164.152C132.023 164.148 131.878 164.152 131.734 164.165Z" fill="#F2D4D9"/>
<path fill-rule="evenodd" clip-rule="evenodd" d="M146.404 173.636C145.843 173.553 145.313 173.325 144.866 172.976C144.589 172.748 144.341 172.487 144.126 172.198C143.495 171.309 143.249 170.115 143.479 169.049C143.776 167.67 144.918 166.237 146.626 165.102C147.416 164.576 148.343 164.143 148.677 164.143C149.012 164.143 149.942 164.578 150.728 165.102C152.035 165.972 152.993 166.988 153.521 168.066C153.873 168.784 154.006 169.439 153.947 170.162C153.899 170.744 153.78 171.176 153.529 171.681C153.322 172.096 153.147 172.34 152.812 172.677C152.324 173.166 151.792 173.465 151.167 173.599C150.856 173.665 150.324 173.665 150.01 173.598C149.597 173.509 149.253 173.357 148.873 173.096L148.677 172.961L148.482 173.096C147.945 173.465 147.447 173.633 146.838 173.649C146.693 173.653 146.548 173.649 146.404 173.636Z" fill="#F2D4D9"/>
<path fill-rule="evenodd" clip-rule="evenodd" d="M161.072 164.165C160.511 164.248 159.981 164.475 159.534 164.825C159.257 165.053 159.009 165.314 158.794 165.602C158.163 166.492 157.917 167.686 158.147 168.752C158.444 170.131 159.586 171.564 161.294 172.699C162.084 173.225 163.011 173.658 163.345 173.658C163.68 173.658 164.61 173.223 165.396 172.699C166.703 171.829 167.66 170.813 168.189 169.735C168.541 169.017 168.674 168.362 168.615 167.639C168.567 167.057 168.448 166.625 168.197 166.119C167.99 165.704 167.815 165.461 167.48 165.124C166.992 164.635 166.46 164.336 165.835 164.202C165.524 164.135 164.992 164.136 164.678 164.203C164.265 164.292 163.921 164.444 163.541 164.705L163.345 164.84L163.15 164.705C162.613 164.336 162.115 164.168 161.506 164.152C161.361 164.148 161.216 164.152 161.072 164.165Z" fill="#F2D4D9"/>
<rect width="180" height="34.4934" transform="translate(0 0.00195312)" fill="#DC2827"/>
<rect width="180" height="2.77533" transform="translate(0 24.583)" fill="#ECC1C9"/>
<rect width="180" height="1.5859" transform="translate(0 27.7549)" fill="#ECC1C9"/>
<path fill-rule="evenodd" clip-rule="evenodd" d="M14.3788 7.55653C13.8177 7.63972 13.2879 7.86704 12.841 8.21626C12.5638 8.44469 12.3153 8.70579 12.1009 8.99388C11.4697 9.88358 11.2239 11.0772 11.4538 12.1435C11.7504 13.5227 12.8928 14.9553 14.6008 16.0908C15.3906 16.6163 16.3173 17.0492 16.6519 17.0492C16.9865 17.0492 17.9164 16.6147 18.703 16.0908C20.0098 15.2201 20.9671 14.2046 21.4958 13.1267C21.8478 12.4089 21.981 11.7534 21.9213 11.0302C21.8732 10.4487 21.7543 10.0163 21.5032 9.51089C21.297 9.09591 21.122 8.85274 20.7863 8.51547C20.2989 8.02648 19.7666 7.7278 19.1412 7.59353C18.8304 7.52692 18.2986 7.52745 17.9851 7.59459C17.5717 7.6834 17.2276 7.83512 16.8475 8.09679L16.6519 8.23159L16.4563 8.09679C15.9192 7.72728 15.4218 7.5597 14.8122 7.54384C14.6676 7.53915 14.5229 7.54339 14.3788 7.55653Z" fill="#F2D4D9"/>
<path fill-rule="evenodd" clip-rule="evenodd" d="M29.0487 17.0275C28.4876 16.9443 27.9578 16.7169 27.5109 16.3677C27.2337 16.1393 26.9852 15.8782 26.7708 15.5901C26.1396 14.7004 25.8938 13.5068 26.1237 12.4405C26.4203 11.0613 27.5627 9.62869 29.2707 8.49318C30.0605 7.96772 30.9872 7.53477 31.3218 7.53477C31.6564 7.53477 32.5863 7.96931 33.3729 8.49318C34.6797 9.36385 35.637 10.3794 36.1657 11.4572C36.5178 12.1751 36.651 12.8306 36.5912 13.5538C36.5431 14.1353 36.4242 14.5677 36.1731 15.0731C35.9669 15.4881 35.7919 15.7312 35.4563 16.0685C34.9689 16.5575 34.4365 16.8562 33.8111 16.9905C33.5003 17.0571 32.9685 17.0565 32.655 16.9894C32.2416 16.9006 31.8975 16.7489 31.5174 16.4872L31.3218 16.3524L31.1262 16.4872C30.5891 16.8567 30.0917 17.0243 29.4822 17.0401C29.3375 17.0448 29.1928 17.0406 29.0487 17.0275Z" fill="#F2D4D9"/>
<path fill-rule="evenodd" clip-rule="evenodd" d="M43.7206 7.55653C43.1595 7.63972 42.6297 7.86704 42.1828 8.21626C41.9056 8.44469 41.6571 8.70579 41.4427 8.99388C40.8115 9.88358 40.5657 11.0772 40.7956 12.1435C41.0922 13.5227 42.2346 14.9553 43.9426 16.0908C44.7324 16.6163 45.6591 17.0492 45.9937 17.0492C46.3283 17.0492 47.2582 16.6147 48.0448 16.0908C49.3516 15.2201 50.3089 14.2046 50.8376 13.1267C51.1896 12.4089 51.3228 11.7534 51.2631 11.0302C51.215 10.4487 51.0961 10.0163 50.845 9.51089C50.6388 9.09591 50.4638 8.85274 50.1281 8.51547C49.6407 8.02648 49.1084 7.7278 48.483 7.59353C48.1722 7.52692 47.6404 7.52745 47.3269 7.59459C46.9135 7.6834 46.5694 7.83512 46.1893 8.09679L45.9937 8.23159L45.7981 8.09679C45.261 7.72728 44.7635 7.5597 44.154 7.54384C44.0094 7.53915 43.8646 7.54339 43.7206 7.55653Z" fill="#F2D4D9"/>
<path fill-rule="evenodd" clip-rule="evenodd" d="M58.3866 17.0275C57.8255 16.9443 57.2957 16.7169 56.8488 16.3677C56.5716 16.1393 56.3231 15.8782 56.1087 15.5901C55.4775 14.7004 55.2317 13.5068 55.4616 12.4405C55.7582 11.0613 56.9006 9.62869 58.6086 8.49318C59.3984 7.96772 60.3251 7.53477 60.6597 7.53477C60.9943 7.53477 61.9242 7.96931 62.7108 8.49318C64.0176 9.36385 64.9749 10.3794 65.5036 11.4572C65.8556 12.1751 65.9889 12.8306 65.9291 13.5538C65.881 14.1353 65.7621 14.5677 65.511 15.0731C65.3048 15.4881 65.1298 15.7312 64.7941 16.0685C64.3067 16.5575 63.7744 16.8562 63.149 16.9905C62.8382 17.0571 62.3064 17.0565 61.9929 16.9894C61.5795 16.9006 61.2354 16.7489 60.8553 16.4872L60.6597 16.3524L60.4641 16.4872C59.927 16.8567 59.4296 17.0243 58.82 17.0401C58.6754 17.0448 58.5307 17.0406 58.3866 17.0275Z" fill="#F2D4D9"/>
<path fill-rule="evenodd" clip-rule="evenodd" d="M73.0565 7.55653C72.4955 7.63972 71.9656 7.86704 71.5187 8.21626C71.2416 8.44469 70.9931 8.70579 70.7786 8.99388C70.1474 9.88358 69.9016 11.0772 70.1316 12.1435C70.4281 13.5227 71.5705 14.9553 73.2785 16.0908C74.0683 16.6163 74.995 17.0492 75.3296 17.0492C75.6642 17.0492 76.5941 16.6147 77.3807 16.0908C78.6875 15.2201 79.6449 14.2046 80.1735 13.1267C80.5256 12.4089 80.6588 11.7534 80.599 11.0302C80.5509 10.4487 80.432 10.0163 80.1809 9.51089C79.9747 9.09591 79.7997 8.85274 79.4641 8.51547C78.9767 8.02648 78.4443 7.7278 77.819 7.59353C77.5081 7.52692 76.9763 7.52745 76.6628 7.59459C76.2494 7.6834 75.9053 7.83512 75.5252 8.09679L75.3296 8.23159L75.134 8.09679C74.5969 7.72728 74.0995 7.5597 73.49 7.54384C73.3454 7.53915 73.2006 7.54339 73.0565 7.55653Z" fill="#F2D4D9"/>
<path fill-rule="evenodd" clip-rule="evenodd" d="M87.7245 17.0275C87.1634 16.9443 86.6336 16.7169 86.1867 16.3677C85.9095 16.1393 85.661 15.8782 85.4466 15.5901C84.8154 14.7004 84.5696 13.5068 84.7995 12.4405C85.0961 11.0613 86.2385 9.62869 87.9465 8.49318C88.7363 7.96772 89.663 7.53477 89.9976 7.53477C90.3322 7.53477 91.2621 7.96931 92.0487 8.49318C93.3555 9.36385 94.3128 10.3794 94.8415 11.4572C95.1935 12.1751 95.3268 12.8306 95.267 13.5538C95.2189 14.1353 95.1 14.5677 94.8489 15.0731C94.6427 15.4881 94.4677 15.7312 94.132 16.0685C93.6446 16.5575 93.1123 16.8562 92.4869 16.9905C92.1761 17.0571 91.6443 17.0565 91.3308 16.9894C90.9174 16.9006 90.5733 16.7489 90.1932 16.4872L89.9976 16.3524L89.802 16.4872C89.2649 16.8567 88.7675 17.0243 88.1579 17.0401C88.0133 17.0448 87.8686 17.0406 87.7245 17.0275Z" fill="#F2D4D9"/>
<path fill-rule="evenodd" clip-rule="evenodd" d="M102.396 7.55653C101.835 7.63972 101.305 7.86704 100.859 8.21626C100.581 8.44469 100.333 8.70579 100.118 8.99388C99.4873 9.88358 99.2414 11.0772 99.4714 12.1435C99.768 13.5227 100.91 14.9553 102.618 16.0908C103.408 16.6163 104.335 17.0492 104.669 17.0492C105.004 17.0492 105.934 16.6147 106.721 16.0908C108.027 15.2201 108.985 14.2046 109.513 13.1267C109.865 12.4089 109.999 11.7534 109.939 11.0302C109.891 10.4487 109.772 10.0163 109.521 9.51089C109.315 9.09591 109.14 8.85274 108.804 8.51547C108.317 8.02648 107.784 7.7278 107.159 7.59353C106.848 7.52692 106.316 7.52745 106.003 7.59459C105.589 7.6834 105.245 7.83512 104.865 8.09679L104.669 8.23159L104.474 8.09679C103.937 7.72728 103.439 7.5597 102.83 7.54384C102.685 7.53915 102.54 7.54339 102.396 7.55653Z" fill="#F2D4D9"/>
<path fill-rule="evenodd" clip-rule="evenodd" d="M117.068 17.0275C116.507 16.9443 115.977 16.7169 115.53 16.3677C115.253 16.1393 115.005 15.8782 114.79 15.5901C114.159 14.7004 113.913 13.5068 114.143 12.4405C114.44 11.0613 115.582 9.62869 117.29 8.49318C118.08 7.96772 119.007 7.53477 119.341 7.53477C119.676 7.53477 120.606 7.96931 121.392 8.49318C122.699 9.36385 123.657 10.3794 124.185 11.4572C124.537 12.1751 124.671 12.8306 124.611 13.5538C124.563 14.1353 124.444 14.5677 124.193 15.0731C123.986 15.4881 123.811 15.7312 123.476 16.0685C122.988 16.5575 122.456 16.8562 121.831 16.9905C121.52 17.0571 120.988 17.0565 120.675 16.9894C120.261 16.9006 119.917 16.7489 119.537 16.4872L119.341 16.3524L119.146 16.4872C118.609 16.8567 118.111 17.0243 117.502 17.0401C117.357 17.0448 117.212 17.0406 117.068 17.0275Z" fill="#F2D4D9"/>
<path fill-rule="evenodd" clip-rule="evenodd" d="M131.734 7.55653C131.173 7.63972 130.643 7.86704 130.196 8.21626C129.919 8.44469 129.671 8.70579 129.456 8.99388C128.825 9.88358 128.579 11.0772 128.809 12.1435C129.106 13.5227 130.248 14.9553 131.956 16.0908C132.746 16.6163 133.673 17.0492 134.007 17.0492C134.342 17.0492 135.272 16.6147 136.058 16.0908C137.365 15.2201 138.323 14.2046 138.851 13.1267C139.203 12.4089 139.337 11.7534 139.277 11.0302C139.229 10.4487 139.11 10.0163 138.859 9.51089C138.652 9.09591 138.477 8.85274 138.142 8.51547C137.654 8.02648 137.122 7.7278 136.497 7.59353C136.186 7.52692 135.654 7.52745 135.341 7.59459C134.927 7.6834 134.583 7.83512 134.203 8.09679L134.007 8.23159L133.812 8.09679C133.275 7.72728 132.777 7.5597 132.168 7.54384C132.023 7.53915 131.878 7.54339 131.734 7.55653Z" fill="#F2D4D9"/>
<path fill-rule="evenodd" clip-rule="evenodd" d="M146.404 17.0275C145.843 16.9443 145.313 16.7169 144.866 16.3677C144.589 16.1393 144.341 15.8782 144.126 15.5901C143.495 14.7004 143.249 13.5068 143.479 12.4405C143.776 11.0613 144.918 9.62869 146.626 8.49318C147.416 7.96772 148.343 7.53477 148.677 7.53477C149.012 7.53477 149.942 7.96931 150.728 8.49318C152.035 9.36385 152.993 10.3794 153.521 11.4572C153.873 12.1751 154.006 12.8306 153.947 13.5538C153.899 14.1353 153.78 14.5677 153.529 15.0731C153.322 15.4881 153.147 15.7312 152.812 16.0685C152.324 16.5575 151.792 16.8562 151.167 16.9905C150.856 17.0571 150.324 17.0565 150.01 16.9894C149.597 16.9006 149.253 16.7489 148.873 16.4872L148.677 16.3524L148.482 16.4872C147.945 16.8567 147.447 17.0243 146.838 17.0401C146.693 17.0448 146.548 17.0406 146.404 17.0275Z" fill="#F2D4D9"/>
<path fill-rule="evenodd" clip-rule="evenodd" d="M161.072 7.55653C160.511 7.63972 159.981 7.86704 159.534 8.21626C159.257 8.44469 159.009 8.70579 158.794 8.99388C158.163 9.88358 157.917 11.0772 158.147 12.1435C158.444 13.5227 159.586 14.9553 161.294 16.0908C162.084 16.6163 163.011 17.0492 163.345 17.0492C163.68 17.0492 164.61 16.6147 165.396 16.0908C166.703 15.2201 167.66 14.2046 168.189 13.1267C168.541 12.4089 168.674 11.7534 168.615 11.0302C168.567 10.4487 168.448 10.0163 168.197 9.51089C167.99 9.09591 167.815 8.85274 167.48 8.51547C166.992 8.02648 166.46 7.7278 165.835 7.59353C165.524 7.52692 164.992 7.52745 164.678 7.59459C164.265 7.6834 163.921 7.83512 163.541 8.09679L163.345 8.23159L163.15 8.09679C162.613 7.72728 162.115 7.5597 161.506 7.54384C161.361 7.53915 161.216 7.54339 161.072 7.55653Z" fill="#F2D4D9"/>
</g>
<defs>
<clipPath id="clip0_1061_40989">
<rect width="180" height="181.189" rx="7.92952" fill="white"/>
</clipPath>
</defs>
</svg>
