<svg id="Layer_1" enable-background="new 0 0 500 500" viewBox="0 0 500 500" xmlns="http://www.w3.org/2000/svg"><g><path d="m158.518 274.221c-8.718 6.37-16.64 6.966-22.133 4.897-4.498-1.672-7.404-5.096-7.762-8.599-.836-7.922 2.826-14.172 7.842-18.71 1.075-.995 2.229-1.911 3.384-2.747 15.365-10.986 29.735 17.078 18.669 25.159z" fill="#fdb28b"/><path d="m317.033 251.491c-7.643 1.791-25.716-4.021-45.54-14.291-2.508-1.314-5.055-2.667-7.563-4.1-16.521-9.235-33.479-21.218-46.297-34.235-11.624-11.823-19.785-24.481-20.979-36.743-.04-.119-.04-.199-.04-.319 1.075.319 2.11.637 3.145.955.518.16 1.035.319 1.513.478 5.374 1.553 9.872 2.826 13.773 3.902h.04c13.973 3.742 20.462 4.657 32.444 7.404 13.694 3.264 17.914 5.772 28.542 13.654 7.803 6.21 11.266 11.982 22.332 18.192.876.438 1.672.916 2.428 1.393.04.04.04.04.04.04s.04.04.08.08c5.971 4.1 8.32 10.749 13.535 15.247 12.857 10.708 21.495 19.625 2.547 28.343z" fill="#ffc898"/><path d="m317.033 251.491c-7.643 1.791-25.716-4.021-45.54-14.291-2.508-1.314-5.055-2.667-7.563-4.1-1.035-3.862-1.513-7.683-1.752-11.664l10.589-24.084c9.673 3.742 27.189 18.113 32.125 19.347 4.737 1.154-3.185-7.922-3.941-8.798 5.971 4.1 8.32 10.749 13.535 15.247 12.857 10.708 21.495 19.625 2.547 28.343z" fill="#fdb28b"/><path d="m40.813 212.715c11.011 6.935 22.622 13.061 33.893 19.568 6.47 3.735 12.824 5.538 20.358 4.522 8.475-1.143 16.408-5.101 23.371-9.927 24.517-16.993 42.297-47.51 45.517-77.11 1.48-13.602-.132-30.406-11.811-39.422-4.971-3.838-11.038-6.608-16.471-9.745-5.649-3.261-11.289-6.538-16.937-9.799-5.921-3.419-11.363-6.778-18.394-7.114-8.534-.409-16.913 2.715-24.202 6.918-13.191 7.606-23.941 19.231-32.263 31.854-9.536 14.465-16.547 31.227-18.431 48.543-1.612 14.821.672 33.964 15.37 41.712z" fill="#6b4e4a"/><ellipse cx="113.258" cy="171.101" fill="#4d2e2a" rx="72.338" ry="41.765" transform="matrix(.5 -.866 .866 .5 -91.549 183.635)"/><path d="m82.039 227.096c10.223 6.531 21.116 12.192 31.623 18.257 5.772 3.332 11.281 5.088 18.037 4.263 7.525-.919 14.588-4.385 20.781-8.627 21.978-15.05 37.917-42.385 40.725-68.817 1.281-12.056-.2-26.916-10.587-34.853-4.499-3.438-9.943-5.931-14.841-8.758-5.271-3.043-10.53-6.105-15.801-9.148-5.364-3.097-10.366-6.385-16.723-6.819-7.742-.528-15.384 2.293-21.996 6.104-11.811 6.807-21.419 17.25-28.829 28.574-8.292 12.67-14.396 27.301-16.109 42.424-1.503 13.271.47 30.519 13.72 37.4z" fill="#e3e3e5"/><path d="m88.078 229.091c-13.251-6.88-15.224-24.128-13.72-37.4 1.713-15.123 7.817-29.754 16.109-42.424 7.41-11.324 17.019-21.766 28.829-28.574 6.612-3.811 14.254-6.632 21.996-6.104.858.059 1.688.177 2.5.332-2.657-1.218-5.435-2.116-8.538-2.328-7.742-.528-15.384 2.293-21.996 6.104-11.811 6.807-21.419 17.25-28.829 28.574-8.292 12.67-14.396 27.302-16.109 42.424-1.503 13.272.469 30.52 13.72 37.401 10.223 6.53 21.115 12.191 31.622 18.257 3.261 1.883-15.36-9.732-25.584-16.262z" fill="#d4d4de"/><path d="m102.825 217.482c0-28.942 20.318-64.135 45.383-78.605 25.065-14.471 45.384-2.74 45.384 26.202s-20.318 64.135-45.383 78.605c-25.065 14.471-45.384 2.739-45.384-26.202z" fill="#d4d4de"/><path d="m218.747 192.257c-.239 2.189-.597 4.419-1.114 6.608-4.538 22.093-18.949 44.346-39.808 57.244-6.688 3.543-14.092 4.697-21.138 1.393-5.773-2.747-9.673-7.165-13.734-11.106-1.553-1.513-3.144-2.866-4.777-4.1-1.433-1.115-2.866-2.07-4.378-2.946-1.752-1.075-3.543-2.03-5.335-2.826-2.428-1.075-4.856-1.95-7.324-2.667-12.699-.955-14.968-14.172-13.535-26.153 1.712-14.331 7.763-28.184 15.923-40.007 7.086-10.31 16.76-19.704 29.657-24.68 7.125-2.508 14.808-3.543 20.899-.956 3.901 2.03 6.886 5.932 10.031 9.076.518.517 1.075 1.035 1.632 1.513.04.04.08.04.12.08 4.06 3.662 8.877 6.966 13.893 10.031.995.637 2.03 1.234 3.025 1.791 1.035.637 2.03 1.194 3.065 1.791 10.311 5.851 13.575 16.121 12.898 25.914z" fill="#ffc898"/><path d="m193.588 322.866c-6.13-8.36-39.091-52.666-50.755-73.326-1.791-2.468-3.304-4.857-4.658-7.245-27.228-48.526 32.444-83.876 43.948-90.125 1.195-.637 1.871-.955 1.871-.955s.637.557 1.751 1.433c.04.04.08.04.12.08 2.786 2.229 8.479 6.488 15.406 10.509 1.154.637 2.309 1.314 3.543 1.911.478.279.955.518 1.433.756 12.38 6.21 35.628 16.918 60.985 57.641 2.668 4.339 4.021 8.877 4.259 13.654 2.43 40.446-72.369 93.112-77.903 85.667z" fill="#ffc898"/><path d="m169.296 268.21c13.719 51.201 29.183 60.959 49.984 78.474 8.494 7.153 11.859 7.865 22.321 5.525 9.889 3.229 17.807 1.744 23.632-.786 6.609 1.918 16.507.052 22.74-2.243 15.287-.043 20.022-5.239 23.882-9.58 0 0-36.72-101.51-60.631-109.444-23.912-7.934-70.193-19.745-81.928 38.054z" fill="#ffc898"/><g><path d="m392.389 292.254c-1.712 14.331-7.723 28.145-15.087 39.29-5.056 8.559-11.146 14.809-19.984 16.281-4.737.756-11.385.557-19.267-.876-5.653-1.035-11.346-2.428-16.401-3.304-3.862-.637-9.355-2.986-15.247-6.369l-.04-.04c-8.439-4.817-17.595-11.862-23.526-19.227-.677-.876-1.314-1.791-1.792-2.747v-.04c-11.266-15.724-16.082-32.204-18.431-45.381-2.468-13.774-12.778-24.84-26.313-28.423-8.519-2.269-14.928-4.021-14.928-4.021s-17.994 13.535-31.966 11.743c-10.469-1.354-15.167-7.325-15.923-13.415-.119-1.115-.159-2.269 0-3.344.04-.518.12-1.035.239-1.552 0-.04 0-.04 0-.08.796-3.702 2.946-6.966 5.931-8.598 9.315-5.016 9.076-3.862 18.152-9.913 6.21-5.095 7.683-10.27 15.047-13.137 6.688-3.503 11.664-3.423 17.396-2.468 6.569 1.035 14.291 2.229 20.66 1.393 1.752-.199 3.384-.597 4.857-1.154 5.812-2.269 12.898-1.353 16.998.478 1.155.478 2.11 1.075 2.667 1.672 6.25 6.409 53.661 34.991 73.565 54.855.04.04.119.12.159.159.677.518 1.354.956 2.03 1.434 7.683 5.135 16.6 8.041 25.636 10.111 14.016 1.714 16.881 14.771 15.568 26.673z" fill="#ffc898"/><path d="m417.945 272.872c-10.223-6.53-21.115-12.191-31.622-18.257-5.772-3.332-11.281-5.088-18.037-4.263-7.526.919-14.588 4.385-20.782 8.627-21.978 15.05-37.917 42.385-40.725 68.817-1.281 12.056.2 26.916 10.587 34.854 4.499 3.438 9.943 5.931 14.841 8.758 5.271 3.043 10.53 6.105 15.801 9.147 5.364 3.097 10.365 6.385 16.723 6.819 7.742.528 15.384-2.293 21.996-6.104 11.811-6.807 21.419-17.25 28.829-28.574 8.292-12.67 14.396-27.301 16.109-42.424 1.504-13.271-.468-30.52-13.72-37.4z" fill="#e3e3e5"/><path d="m459.172 287.253c-11.011-6.935-22.622-13.061-33.893-19.568-6.47-3.735-12.823-5.538-20.358-4.522-8.475 1.143-16.408 5.101-23.37 9.927-24.517 16.994-42.297 47.51-45.517 77.11-1.48 13.603.132 30.406 11.811 39.422 4.971 3.837 11.038 6.608 16.471 9.745 5.649 3.261 11.289 6.538 16.938 9.799 5.921 3.419 11.363 6.777 18.394 7.114 8.534.408 16.913-2.715 24.202-6.918 13.191-7.606 23.941-19.231 32.263-31.854 9.536-14.465 16.547-31.227 18.431-48.544 1.61-14.819-.674-33.963-15.372-41.711z" fill="#6b4e4a"/><ellipse cx="423.849" cy="350.298" fill="#4d2e2a" rx="72.338" ry="41.765" transform="matrix(.5 -.866 .866 .5 -91.443 542.214)"/></g><path d="m176.55 298.106c-4.777 3.463-8.758 5.095-12.141 5.294-6.688.478-10.947-4.617-13.973-11.664-3.384-8.041 5.255-14.052 7.882-15.604.438-.279.916-.518 1.433-.677 16.202-5.135 26.752 15.367 16.799 22.651z" fill="#ffc898"/><path d="m194.703 320.399c-2.468 1.791-4.737 3.105-6.807 3.941l-.04.04c-9.872 4.1-15.565-1.593-19.267-10.35-1.791-4.18-.279-7.842 1.951-10.589 2.747-3.423 6.608-5.454 6.608-5.454 16.64-5.972 27.626 15.047 17.555 22.412z" fill="#ffc898"/><path d="m197.11 318.82c13.965-5.033 23.225 12.639 14.738 18.841-11.965 8.742-18.166 3.565-21.965-5.364-3.362-7.9 7.227-13.477 7.227-13.477z" fill="#ffc898"/><path d="m197.11 318.82s-2.319 1.234-4.443 3.345c.912-.655 1.567-1.014 1.567-1.014 12.907-4.806 21.465 12.071 13.621 17.994-1.501 1.133-2.896 2.003-4.209 2.67 2.387-.572 5.097-1.887 8.201-4.155 8.488-6.201-.772-23.873-14.737-18.84z" fill="#fdb28b"/><path d="m176.55 298.106c-4.777 3.463-8.758 5.095-12.141 5.294 7.842-3.144 11.704-6.528 12.42-11.823.716-5.334-7.962-19.307-18.511-15.445.438-.279.916-.518 1.433-.677 16.202-5.135 26.752 15.367 16.799 22.651z" fill="#fdb28b"/><path d="m194.703 320.399c-2.468 1.791-4.737 3.105-6.807 3.941 6.051-5.931 8.081-9.355 5.693-15.207-2.389-5.812-12.38-13.734-23.049-5.692 2.747-3.423 6.608-5.454 6.608-5.454 16.64-5.972 27.626 15.047 17.555 22.412z" fill="#fdb28b"/><path d="m136.464 279.118c-.04 0-.04 0-.08 0-4.498-1.672-7.404-5.096-7.762-8.599-.836-7.922 2.826-14.172 7.842-18.71 3.384-2.747 9.514 4.578 11.744 11.544 2.229 6.967-.638 15.605-11.744 15.765z" fill="#ffc898"/><g fill="#fdb28b"><path d="m306.364 337.237c-8.439-4.817-17.595-11.862-23.526-19.227-.677-.876-1.314-1.791-1.792-2.747v-.04c-11.266-15.724-16.082-32.204-18.431-45.381-2.468-13.774-12.778-24.84-26.313-28.423-8.519-2.269-14.928-4.021-14.928-4.021s-17.994 13.535-31.966 11.743c-10.469-1.354-15.167-7.325-15.923-13.415h.04c3.384 7.564 17.197 14.57 33.24 5.294 11.584-6.728 13.933-12.699 14.331-15.525.159 2.786 1.752 8.479 11.186 11.584 18.391 6.05 25.756.796 26.313.358-.318.716-4.18 9.235 2.03 16.52 6.449 7.643 8.997 24.999 13.495 35.071 1.592 3.543 2.826 8.161 4.896 13.495 2.03 5.294 4.936 11.345 9.912 17.794 4.14 5.416 9.713 11.108 17.436 16.92z"/><path d="m215.045 167.139c-3.981-.518-7.324-1.155-10.231-1.99-.717-.16-1.393-.359-2.03-.597-2.349-.717-4.379-1.553-6.13-2.428-6.688-3.304-9.912-7.285-14.53-9.952-2.349-1.354-5.055-2.388-8.757-2.786-15.684-1.791-43.67 20.024-53.9 46.138-8.718 22.411-1.274 34.553 8.997 41.002-2.428-1.075-4.856-1.95-7.324-2.667-12.699-.955-14.968-14.172-13.535-26.153 1.712-14.331 7.763-28.184 15.923-40.007 7.086-10.31 16.76-19.704 29.657-24.68 7.125-2.508 14.808-3.543 20.899-.956 3.901 2.03 6.886 5.932 10.031 9.076.518.517 1.075 1.035 1.632 1.513.04.04.08.04.12.08 2.786 2.229 8.479 6.488 15.406 10.509 5.372 1.548 9.87 2.822 13.772 3.898z"/><path d="m307.151 344.139c-6.489 1.672-13.724 1.976-18.063-.254-6.926-3.543-33.837-43.112-36.544-46.934 0 0 18.312 41.002 35.429 52.228 10.021 2.725 19.178-5.04 19.178-5.04z"/><path d="m287.979 349.182c-8.321 2.697-22.661-.853-26.391-2.885-3.73-2.031-24.849-26.759-33.159-44.488 0 0 13.188 36.835 33.159 48.365 13.967 5.837 26.391-.992 26.391-.992z"/><path d="m265.233 351.423c-7.451 2.137-20.292-.676-23.632-2.285-3.339-1.609-28.527-28.16-35.969-42.202 0 0 18.086 36.14 35.969 45.272 12.506 4.623 23.632-.785 23.632-.785z"/></g><path d="m272.766 197.352c-5.414-1.672-9.196-1.791-17.037 1.075-7.882 2.906-26.87 0-30.493-1.075-3.662-1.074-12.38 1.752-14.968 4.339-2.627 2.627-9.991 12.858-17.475 15.565-7.444 2.667-17.556 7.046-19.068 13.495.796-3.702 2.946-6.966 5.931-8.598 9.315-5.016 9.076-3.862 18.152-9.913 6.21-5.095 7.683-10.27 15.047-13.137 6.688-3.503 11.664-3.423 17.396-2.468 6.569 1.035 14.291 2.229 20.66 1.393 1.752-.199 3.384-.597 4.857-1.154 5.812-2.268 12.898-1.352 16.998.478z" fill="#ffd598"/></g></svg>