<svg id="Layer_1" enable-background="new 0 0 130 130" height="130" viewBox="0 0 130 130" width="130" xmlns="http://www.w3.org/2000/svg"><g><path d="m41.861 73.395v-24.924l17.27-9.971v-14.979l38.849-22.406-25.74 24.924v29.908z" fill="#0eaa72"/><path d="m59.131 33.771v4.729 10.25l-17.27 9.971v14.674l30.379-17.448v-19.658-10.078z" fill="#078259"/><g><g><path d="m40.43 128.885-6.715-3.883 6.715-3.885 6.726 3.885z" fill="#7c949b"/><path d="m40.43 121.117 6.726 3.885-6.726 3.883" fill="#637e84"/><g><path d="m37.574 45.656 2.858 1.649v79.037l-2.858-1.65z" fill="#8cadb5"/><path d="m43.291 45.656-2.859 1.649v79.037l2.859-1.65z" fill="#7c949b"/><path d="m37.574 45.656v5.385l2.85 1.648v-3.239-.007-2.143z" fill="#7c949b"/><path d="m40.436 49.443v.007 3.239l2.855-1.652v-5.381l-2.855 1.647z" fill="#547277"/></g></g><g><g><path d="m32.02 40.363v-3.24l8.404 4.859" fill="#444738"/><path d="" fill="#a2ce02"/></g><g><path d="m32.02 37.123v3.24 3.239l8.404 4.867v-3.24-.006-3.241z" fill="#8cadb5"/><path d="m40.424 48.469v-3.24-.006-3.241l-8.404-4.859" fill="#779aa0"/><path d="" fill="#c49427"/><path d="m40.436 41.982v3.241.006 3.24l8.404-4.867v-3.239-3.24z" fill="#7c949b"/><path d="m48.84 40.363v-3.24l-8.404 4.859v3.241.006 3.24" fill="#6b878e"/></g><g><path d="" fill="#c49427"/></g><path d="m32.02 37.123 8.404 4.859 3.377-1.947 5.053-2.912-8.418-4.859z" fill="#9ec6cc"/></g></g></g></svg>