<svg id="Layer_1" enable-background="new 0 0 500 500" viewBox="0 0 500 500" xmlns="http://www.w3.org/2000/svg"><g><path d="m344.286 123.196c-48.068-14.861-96.138 98.118-144.206 83.257 0-32.281 0-64.565 0-96.844 48.068 14.86 96.138-98.118 144.206-83.258z" fill="#f80202"/><g><path d="m231.485 467.547c-17.388 9.937-45.422 9.937-62.811 0-8.694-5.057-13.041-11.62-12.952-18.187v-17.388h88.537v14.992c1.243 7.365-3.016 14.907-12.774 20.583z" fill="#b1b7f5"/><ellipse cx="200.08" cy="431.98" fill="#dadfff" rx="44.366" ry="25.615"/></g><g><path d="m206.609 434.217c-3.609 2.063-9.429 2.063-13.038 0-1.805-1.05-2.707-2.412-2.689-3.775v-333.678h18.379v333.181c.257 1.528-.627 3.094-2.652 4.272z" fill="#b1b7f5"/><path d="m206.602 100.525c-3.596 2.077-9.427 2.077-13.024 0-3.596-2.077-3.596-5.443 0-7.519 3.596-2.077 9.427-2.077 13.024 0 3.596 2.076 3.596 5.442 0 7.519z" fill="#dadfff"/></g></g></svg>