<svg width="176" height="220" viewBox="0 0 176 220" fill="none" xmlns="http://www.w3.org/2000/svg" xmlns:xlink="http://www.w3.org/1999/xlink">
<g clip-path="url(#clip0_1063_41585)">
<rect width="175.714" height="220" rx="5.71429" fill="#36A6BB"/>
<rect x="-6" y="-11.7129" width="181.714" height="263.143"/>
<mask id="path-3-outside-1_1063_41585" maskUnits="userSpaceOnUse" x="61.5703" y="17" width="53" height="21" fill="black">
<rect fill="white" x="61.5703" y="17" width="53" height="21"/>
<path d="M71.6572 26.0114L72.3429 18.4H79.9772L75.36 31.5657V36H67.7486V31.5657L63.1086 18.4H70.7429L71.4515 26.0114H71.6572ZM95.6468 31.2457C95.403 32.8457 94.5573 34.1029 93.1097 35.0171C91.6621 35.9162 89.7649 36.3657 87.4183 36.3657C85.0716 36.3657 83.1744 35.9162 81.7268 35.0171C80.2944 34.1181 79.4487 32.8762 79.1897 31.2914C79.1287 30.8648 79.0754 30.2933 79.0297 29.5771C78.9992 28.8457 78.984 28.061 78.984 27.2229C78.984 26.4152 78.9992 25.6686 79.0297 24.9829C79.0754 24.2819 79.1287 23.7333 79.1897 23.3371C79.4487 21.661 80.3021 20.3581 81.7497 19.4286C83.1973 18.499 85.0868 18.0343 87.4183 18.0343C89.7649 18.0343 91.6621 18.499 93.1097 19.4286C94.5573 20.3429 95.403 21.6152 95.6468 23.2457C95.7078 23.6419 95.7535 24.1905 95.784 24.8914C95.8297 25.5771 95.8525 26.3314 95.8525 27.1543C95.8525 28.0229 95.8297 28.8152 95.784 29.5314C95.7535 30.2476 95.7078 30.819 95.6468 31.2457ZM88.0354 30.1943V24.2057C88.0354 23.7943 87.8297 23.5886 87.4183 23.5886C87.0068 23.5886 86.8011 23.7943 86.8011 24.2057V30.1943C86.8011 30.6057 87.0068 30.8114 87.4183 30.8114C87.8297 30.8114 88.0354 30.6057 88.0354 30.1943ZM96.7306 18.4H104.136V29.8743C104.136 29.92 104.159 30.0343 104.205 30.2171C104.266 30.4 104.449 30.4914 104.753 30.4914C105.058 30.4914 105.233 30.4 105.279 30.2171C105.34 30.0343 105.371 29.92 105.371 29.8743V18.4H112.776V30.1943C112.776 31.0324 112.639 31.8248 112.365 32.5714C112.091 33.3029 111.641 33.9581 111.016 34.5371C110.392 35.101 109.546 35.5505 108.479 35.8857C107.428 36.2057 106.117 36.3657 104.548 36.3657C103.161 36.3657 101.972 36.1981 100.982 35.8629C99.9915 35.5276 99.1839 35.0705 98.5592 34.4914C97.9344 33.9124 97.4696 33.2571 97.1649 32.5257C96.8753 31.7943 96.7306 31.0324 96.7306 30.24V18.4Z"/>
</mask>
<path d="M71.6572 26.0114L72.3429 18.4H79.9772L75.36 31.5657V36H67.7486V31.5657L63.1086 18.4H70.7429L71.4515 26.0114H71.6572ZM95.6468 31.2457C95.403 32.8457 94.5573 34.1029 93.1097 35.0171C91.6621 35.9162 89.7649 36.3657 87.4183 36.3657C85.0716 36.3657 83.1744 35.9162 81.7268 35.0171C80.2944 34.1181 79.4487 32.8762 79.1897 31.2914C79.1287 30.8648 79.0754 30.2933 79.0297 29.5771C78.9992 28.8457 78.984 28.061 78.984 27.2229C78.984 26.4152 78.9992 25.6686 79.0297 24.9829C79.0754 24.2819 79.1287 23.7333 79.1897 23.3371C79.4487 21.661 80.3021 20.3581 81.7497 19.4286C83.1973 18.499 85.0868 18.0343 87.4183 18.0343C89.7649 18.0343 91.6621 18.499 93.1097 19.4286C94.5573 20.3429 95.403 21.6152 95.6468 23.2457C95.7078 23.6419 95.7535 24.1905 95.784 24.8914C95.8297 25.5771 95.8525 26.3314 95.8525 27.1543C95.8525 28.0229 95.8297 28.8152 95.784 29.5314C95.7535 30.2476 95.7078 30.819 95.6468 31.2457ZM88.0354 30.1943V24.2057C88.0354 23.7943 87.8297 23.5886 87.4183 23.5886C87.0068 23.5886 86.8011 23.7943 86.8011 24.2057V30.1943C86.8011 30.6057 87.0068 30.8114 87.4183 30.8114C87.8297 30.8114 88.0354 30.6057 88.0354 30.1943ZM96.7306 18.4H104.136V29.8743C104.136 29.92 104.159 30.0343 104.205 30.2171C104.266 30.4 104.449 30.4914 104.753 30.4914C105.058 30.4914 105.233 30.4 105.279 30.2171C105.34 30.0343 105.371 29.92 105.371 29.8743V18.4H112.776V30.1943C112.776 31.0324 112.639 31.8248 112.365 32.5714C112.091 33.3029 111.641 33.9581 111.016 34.5371C110.392 35.101 109.546 35.5505 108.479 35.8857C107.428 36.2057 106.117 36.3657 104.548 36.3657C103.161 36.3657 101.972 36.1981 100.982 35.8629C99.9915 35.5276 99.1839 35.0705 98.5592 34.4914C97.9344 33.9124 97.4696 33.2571 97.1649 32.5257C96.8753 31.7943 96.7306 31.0324 96.7306 30.24V18.4Z" fill="#755AA7"/>
<path d="M71.6572 26.0114V26.8686H72.4406L72.5109 26.0883L71.6572 26.0114ZM72.3429 18.4V17.5429H71.5595L71.4892 18.3231L72.3429 18.4ZM79.9772 18.4L80.786 18.6837L81.1861 17.5429H79.9772V18.4ZM75.36 31.5657L74.5512 31.2821L74.5029 31.4198V31.5657H75.36ZM75.36 36V36.8571H76.2172V36H75.36ZM67.7486 36H66.8915V36.8571H67.7486V36ZM67.7486 31.5657H68.6058V31.4191L68.557 31.2808L67.7486 31.5657ZM63.1086 18.4V17.5429H61.8977L62.3002 18.6849L63.1086 18.4ZM70.7429 18.4L71.5964 18.3205L71.524 17.5429H70.7429V18.4ZM71.4515 26.0114L70.598 26.0909L70.6704 26.8686H71.4515V26.0114ZM71.6572 26.0114L72.5109 26.0883L73.1966 18.4769L72.3429 18.4L71.4892 18.3231L70.8035 25.9345L71.6572 26.0114ZM72.3429 18.4V19.2571H79.9772V18.4V17.5429H72.3429V18.4ZM79.9772 18.4L79.1683 18.1163L74.5512 31.2821L75.36 31.5657L76.1689 31.8494L80.786 18.6837L79.9772 18.4ZM75.36 31.5657H74.5029V36H75.36H76.2172V31.5657H75.36ZM75.36 36V35.1429H67.7486V36V36.8571H75.36V36ZM67.7486 36H68.6058V31.5657H67.7486H66.8915V36H67.7486ZM67.7486 31.5657L68.557 31.2808L63.917 18.1151L63.1086 18.4L62.3002 18.6849L66.9402 31.8506L67.7486 31.5657ZM63.1086 18.4V19.2571H70.7429V18.4V17.5429H63.1086V18.4ZM70.7429 18.4L69.8894 18.4794L70.598 26.0909L71.4515 26.0114L72.3049 25.932L71.5964 18.3205L70.7429 18.4ZM71.4515 26.0114V26.8686H71.6572V26.0114V25.1543H71.4515V26.0114ZM95.6468 31.2457L96.4942 31.3748L96.4954 31.3669L95.6468 31.2457ZM93.1097 35.0171L93.5619 35.7453L93.5674 35.7418L93.1097 35.0171ZM81.7268 35.0171L81.2712 35.7431L81.2746 35.7453L81.7268 35.0171ZM79.1897 31.2914L78.3412 31.4126L78.3424 31.4212L78.3438 31.4297L79.1897 31.2914ZM79.0297 29.5771L78.1733 29.6128L78.1737 29.6223L78.1743 29.6317L79.0297 29.5771ZM79.0297 24.9829L78.1744 24.9271L78.1738 24.9359L78.1734 24.9448L79.0297 24.9829ZM79.1897 23.3371L78.3426 23.2062L78.3425 23.2068L79.1897 23.3371ZM81.7497 19.4286L82.2128 20.1498V20.1498L81.7497 19.4286ZM93.1097 19.4286L92.6466 20.1498L92.652 20.1533L93.1097 19.4286ZM95.6468 23.2457L94.7991 23.3725L94.7997 23.376L95.6468 23.2457ZM95.784 24.8914L94.9276 24.9287L94.9281 24.9386L94.9287 24.9484L95.784 24.8914ZM95.784 29.5314L94.9286 29.4768L94.928 29.4859L94.9276 29.495L95.784 29.5314ZM95.6468 31.2457L94.7995 31.1166C94.5955 32.4553 93.9034 33.5021 92.652 34.2924L93.1097 35.0171L93.5674 35.7418C95.2113 34.7036 96.2106 33.2362 96.4942 31.3748L95.6468 31.2457ZM93.1097 35.0171L92.6575 34.289C91.3876 35.0776 89.6631 35.5086 87.4183 35.5086V36.3657V37.2229C89.8668 37.2229 91.9365 36.7547 93.5619 35.7453L93.1097 35.0171ZM87.4183 36.3657V35.5086C85.1734 35.5086 83.4489 35.0776 82.179 34.289L81.7268 35.0171L81.2746 35.7453C82.9 36.7547 84.9698 37.2229 87.4183 37.2229V36.3657ZM81.7268 35.0171L82.1825 34.2912C80.946 33.515 80.2526 32.4808 80.0356 31.1532L79.1897 31.2914L78.3438 31.4297C78.6448 33.2716 79.6429 34.7212 81.2712 35.7431L81.7268 35.0171ZM79.1897 31.2914L80.0382 31.1702C79.9818 30.7753 79.9302 30.229 79.8851 29.5225L79.0297 29.5771L78.1743 29.6317C78.2206 30.3577 78.2757 30.9542 78.3412 31.4126L79.1897 31.2914ZM79.0297 29.5771L79.8861 29.5415C79.8562 28.8235 79.8411 28.0507 79.8411 27.2229H78.984H78.1268C78.1268 28.0712 78.1423 28.868 78.1733 29.6128L79.0297 29.5771ZM78.984 27.2229H79.8411C79.8411 26.4258 79.8562 25.692 79.886 25.0209L79.0297 24.9829L78.1734 24.9448C78.1423 25.6452 78.1268 26.4047 78.1268 27.2229H78.984ZM79.0297 24.9829L79.885 25.0386C79.9301 24.3471 79.9815 23.8273 80.0369 23.4675L79.1897 23.3371L78.3425 23.2068C78.276 23.6394 78.2207 24.2167 78.1744 24.9271L79.0297 24.9829ZM79.1897 23.3371L80.0368 23.4681C80.2577 22.0385 80.9685 20.9488 82.2128 20.1498L81.7497 19.4286L81.2866 18.7073C79.6357 19.7674 78.6398 21.2834 78.3426 23.2062L79.1897 23.3371ZM81.7497 19.4286L82.2128 20.1498C83.4813 19.3353 85.1944 18.8914 87.4183 18.8914V18.0343V17.1771C84.9792 17.1771 82.9133 17.6628 81.2866 18.7073L81.7497 19.4286ZM87.4183 18.0343V18.8914C89.6586 18.8914 91.3789 19.3358 92.6466 20.1498L93.1097 19.4286L93.5728 18.7073C91.9453 17.6623 89.8712 17.1771 87.4183 17.1771V18.0343ZM93.1097 19.4286L92.652 20.1533C93.8981 20.9403 94.5938 21.9992 94.7991 23.3725L95.6468 23.2457L96.4945 23.119C96.2123 21.2313 95.2165 19.7454 93.5674 18.7039L93.1097 19.4286ZM95.6468 23.2457L94.7997 23.376C94.8536 23.7268 94.8977 24.2395 94.9276 24.9287L95.784 24.8914L96.6403 24.8542C96.6093 24.1414 96.5619 23.557 96.494 23.1154L95.6468 23.2457ZM95.784 24.8914L94.9287 24.9484C94.973 25.6119 94.9954 26.3469 94.9954 27.1543H95.8525H96.7097C96.7097 26.316 96.6864 25.5424 96.6392 24.8344L95.784 24.8914ZM95.8525 27.1543H94.9954C94.9954 28.0083 94.9729 28.7821 94.9286 29.4768L95.784 29.5314L96.6394 29.586C96.6865 28.8484 96.7097 28.0374 96.7097 27.1543H95.8525ZM95.784 29.5314L94.9276 29.495C94.8977 30.1987 94.8535 30.7382 94.7983 31.1245L95.6468 31.2457L96.4954 31.3669C96.5621 30.8999 96.6093 30.2965 96.6403 29.5679L95.784 29.5314ZM88.0354 30.1943H88.8925V24.2057H88.0354H87.1783V30.1943H88.0354ZM88.0354 24.2057H88.8925C88.8925 23.8679 88.8075 23.4571 88.4872 23.1368C88.1669 22.8165 87.7561 22.7314 87.4183 22.7314V23.5886V24.4457C87.4918 24.4457 87.3896 24.4635 87.275 24.3489C87.1604 24.2344 87.1783 24.1321 87.1783 24.2057H88.0354ZM87.4183 23.5886V22.7314C87.0804 22.7314 86.6696 22.8165 86.3493 23.1368C86.029 23.4571 85.944 23.8679 85.944 24.2057H86.8011H87.6583C87.6583 24.1321 87.6761 24.2344 87.5615 24.3489C87.4469 24.4635 87.3447 24.4457 87.4183 24.4457V23.5886ZM86.8011 24.2057H85.944V30.1943H86.8011H87.6583V24.2057H86.8011ZM86.8011 30.1943H85.944C85.944 30.5321 86.029 30.9429 86.3493 31.2632C86.6696 31.5835 87.0804 31.6686 87.4183 31.6686V30.8114V29.9543C87.3447 29.9543 87.4469 29.9365 87.5615 30.0511C87.6761 30.1656 87.6583 30.2679 87.6583 30.1943H86.8011ZM87.4183 30.8114V31.6686C87.7561 31.6686 88.1669 31.5835 88.4872 31.2632C88.8075 30.9429 88.8925 30.5321 88.8925 30.1943H88.0354H87.1783C87.1783 30.2679 87.1604 30.1656 87.275 30.0511C87.3896 29.9365 87.4918 29.9543 87.4183 29.9543V30.8114ZM96.7306 18.4V17.5429H95.8734V18.4H96.7306ZM104.136 18.4H104.993V17.5429H104.136V18.4ZM104.205 30.2171L103.373 30.425L103.381 30.457L103.392 30.4882L104.205 30.2171ZM105.279 30.2171L104.466 29.9461L104.456 29.9773L104.448 30.0093L105.279 30.2171ZM105.371 18.4V17.5429H104.513V18.4H105.371ZM112.776 18.4H113.633V17.5429H112.776V18.4ZM112.365 32.5714L113.167 32.8724L113.169 32.867L112.365 32.5714ZM111.016 34.5371L111.591 35.1735L111.599 35.1658L111.016 34.5371ZM108.479 35.8857L108.729 36.7058L108.736 36.7034L108.479 35.8857ZM98.5592 34.4914L97.9765 35.1201V35.1201L98.5592 34.4914ZM97.1649 32.5257L96.3679 32.8412L96.3707 32.8483L96.3737 32.8554L97.1649 32.5257ZM96.7306 18.4V19.2571H104.136V18.4V17.5429H96.7306V18.4ZM104.136 18.4H103.279V29.8743H104.136H104.993V18.4H104.136ZM104.136 29.8743H103.279C103.279 29.9924 103.302 30.1091 103.313 30.1624C103.328 30.2384 103.349 30.3274 103.373 30.425L104.205 30.2171L105.036 30.0093C105.015 29.9241 105.002 29.8644 104.994 29.8262C104.99 29.807 104.989 29.7993 104.989 29.8002C104.989 29.8009 104.99 29.807 104.991 29.817C104.992 29.8261 104.993 29.8465 104.993 29.8743H104.136ZM104.205 30.2171L103.392 30.4882C103.633 31.2112 104.331 31.3486 104.753 31.3486V30.4914V29.6343C104.674 29.6343 104.699 29.6204 104.771 29.6562C104.812 29.6766 104.864 29.7117 104.914 29.7677C104.965 29.8245 104.998 29.8873 105.018 29.9461L104.205 30.2171ZM104.753 30.4914V31.3486C104.976 31.3486 105.251 31.3177 105.51 31.1828C105.803 31.03 106.025 30.767 106.111 30.425L105.279 30.2171L104.448 30.0093C104.464 29.9431 104.497 29.8686 104.553 29.7994C104.608 29.7311 104.669 29.688 104.717 29.6629C104.8 29.6194 104.836 29.6343 104.753 29.6343V30.4914ZM105.279 30.2171L106.092 30.4882C106.125 30.3891 106.154 30.2963 106.176 30.2151C106.189 30.1647 106.228 30.0237 106.228 29.8743H105.371H104.513C104.513 29.8353 104.516 29.8059 104.518 29.7915C104.52 29.7757 104.522 29.765 104.523 29.761C104.524 29.7539 104.524 29.7568 104.52 29.7734C104.511 29.8066 104.494 29.8623 104.466 29.9461L105.279 30.2171ZM105.371 29.8743H106.228V18.4H105.371H104.513V29.8743H105.371ZM105.371 18.4V19.2571H112.776V18.4V17.5429H105.371V18.4ZM112.776 18.4H111.919V30.1943H112.776H113.633V18.4H112.776ZM112.776 30.1943H111.919C111.919 30.937 111.798 31.6289 111.56 32.2759L112.365 32.5714L113.169 32.867C113.48 32.0207 113.633 31.1278 113.633 30.1943H112.776ZM112.365 32.5714L111.562 32.2705C111.339 32.866 110.97 33.4117 110.434 33.9085L111.016 34.5371L111.599 35.1658C112.312 34.5045 112.842 33.7397 113.167 32.8724L112.365 32.5714ZM111.016 34.5371L110.442 33.9008C109.934 34.3596 109.208 34.7582 108.222 35.068L108.479 35.8857L108.736 36.7034C109.884 36.3428 110.849 35.8423 111.591 35.1735L111.016 34.5371ZM108.479 35.8857L108.23 35.0657C107.285 35.353 106.066 35.5086 104.548 35.5086V36.3657V37.2229C106.169 37.2229 107.57 37.0584 108.729 36.7057L108.479 35.8857ZM104.548 36.3657V35.5086C103.226 35.5086 102.135 35.3483 101.257 35.051L100.982 35.8629L100.707 36.6748C101.81 37.0479 103.096 37.2229 104.548 37.2229V36.3657ZM100.982 35.8629L101.257 35.051C100.355 34.7458 99.6603 34.3433 99.1418 33.8628L98.5592 34.4914L97.9765 35.1201C98.7076 35.7977 99.6278 36.3094 100.707 36.6748L100.982 35.8629ZM98.5592 34.4914L99.1418 33.8628C98.6003 33.3609 98.2101 32.8057 97.9561 32.196L97.1649 32.5257L96.3737 32.8554C96.7292 33.7086 97.2685 34.4639 97.9765 35.1201L98.5592 34.4914ZM97.1649 32.5257L97.9618 32.2102C97.7124 31.58 97.5877 30.9252 97.5877 30.24H96.7306H95.8734C95.8734 31.1396 96.0383 32.0086 96.3679 32.8412L97.1649 32.5257ZM96.7306 30.24H97.5877V18.4H96.7306H95.8734V30.24H96.7306Z" fill="white" mask="url(#path-3-outside-1_1063_41585)"/>
<mask id="path-5-outside-2_1063_41585" maskUnits="userSpaceOnUse" x="42.4297" y="110.285" width="92" height="22" fill="black">
<rect fill="white" x="42.4297" y="110.285" width="92" height="22"/>
<path d="M52.6192 120.297L53.305 112.685H60.9392L56.3221 125.851V130.285H48.7107V125.851L44.0707 112.685H51.705L52.4135 120.297H52.6192ZM76.6089 125.531C76.3651 127.131 75.5194 128.388 74.0717 129.302C72.6241 130.201 70.727 130.651 68.3803 130.651C66.0336 130.651 64.1365 130.201 62.6889 129.302C61.2565 128.403 60.4108 127.161 60.1517 125.577C60.0908 125.15 60.0375 124.578 59.9917 123.862C59.9613 123.131 59.946 122.346 59.946 121.508C59.946 120.7 59.9613 119.954 59.9917 119.268C60.0375 118.567 60.0908 118.018 60.1517 117.622C60.4108 115.946 61.2641 114.643 62.7117 113.714C64.1594 112.784 66.0489 112.319 68.3803 112.319C70.727 112.319 72.6241 112.784 74.0717 113.714C75.5194 114.628 76.3651 115.9 76.6089 117.531C76.6698 117.927 76.7155 118.476 76.746 119.177C76.7917 119.862 76.8146 120.617 76.8146 121.439C76.8146 122.308 76.7917 123.1 76.746 123.817C76.7155 124.533 76.6698 125.104 76.6089 125.531ZM68.9975 124.479V118.491C68.9975 118.079 68.7917 117.874 68.3803 117.874C67.9689 117.874 67.7632 118.079 67.7632 118.491V124.479C67.7632 124.891 67.9689 125.097 68.3803 125.097C68.7917 125.097 68.9975 124.891 68.9975 124.479ZM77.6926 112.685H85.0983V124.159C85.0983 124.205 85.1212 124.319 85.1669 124.502C85.2279 124.685 85.4107 124.777 85.7155 124.777C86.0203 124.777 86.1955 124.685 86.2412 124.502C86.3022 124.319 86.3326 124.205 86.3326 124.159V112.685H93.7383V124.479C93.7383 125.318 93.6012 126.11 93.3269 126.857C93.0526 127.588 92.6031 128.243 91.9783 128.822C91.3536 129.386 90.5079 129.836 89.4412 130.171C88.3898 130.491 87.0793 130.651 85.5098 130.651C84.1231 130.651 82.9345 130.483 81.9441 130.148C80.9536 129.813 80.146 129.356 79.5212 128.777C78.8964 128.198 78.4317 127.542 78.1269 126.811C77.8374 126.079 77.6926 125.318 77.6926 124.525V112.685ZM94.448 118.331V118.285C94.6766 117.523 94.8213 116.624 94.8823 115.588C94.9432 114.537 94.928 113.447 94.8366 112.319L94.8594 112.297L100.414 112.091V112.137C100.414 113.142 100.315 114.072 100.117 114.925C99.9185 115.763 99.667 116.502 99.3623 117.142C99.0575 117.782 98.7375 118.285 98.4023 118.651L94.448 118.331ZM108.466 130.285H101.266V112.685H111.735C112.71 112.685 113.601 112.86 114.409 113.211C115.232 113.561 115.887 114.125 116.375 114.902C116.862 115.679 117.106 116.716 117.106 118.011C117.106 118.377 117.076 118.773 117.015 119.199C116.969 119.626 116.855 120.053 116.672 120.479C116.489 120.891 116.207 121.264 115.826 121.599C115.46 121.919 114.958 122.171 114.318 122.354L117.929 130.285H109.906L108.672 125.577H108.466V130.285ZM110.043 118.308H107.849V119.542H110.112C110.234 119.542 110.363 119.504 110.5 119.428C110.653 119.352 110.729 119.192 110.729 118.948C110.729 118.689 110.645 118.521 110.478 118.445C110.31 118.354 110.165 118.308 110.043 118.308ZM125.676 123.382V124.319H132.67V130.285H118.476V112.685H132.259V117.828H125.676V118.765H131.642V123.382H125.676Z"/>
</mask>
<path d="M52.6192 120.297L53.305 112.685H60.9392L56.3221 125.851V130.285H48.7107V125.851L44.0707 112.685H51.705L52.4135 120.297H52.6192ZM76.6089 125.531C76.3651 127.131 75.5194 128.388 74.0717 129.302C72.6241 130.201 70.727 130.651 68.3803 130.651C66.0336 130.651 64.1365 130.201 62.6889 129.302C61.2565 128.403 60.4108 127.161 60.1517 125.577C60.0908 125.15 60.0375 124.578 59.9917 123.862C59.9613 123.131 59.946 122.346 59.946 121.508C59.946 120.7 59.9613 119.954 59.9917 119.268C60.0375 118.567 60.0908 118.018 60.1517 117.622C60.4108 115.946 61.2641 114.643 62.7117 113.714C64.1594 112.784 66.0489 112.319 68.3803 112.319C70.727 112.319 72.6241 112.784 74.0717 113.714C75.5194 114.628 76.3651 115.9 76.6089 117.531C76.6698 117.927 76.7155 118.476 76.746 119.177C76.7917 119.862 76.8146 120.617 76.8146 121.439C76.8146 122.308 76.7917 123.1 76.746 123.817C76.7155 124.533 76.6698 125.104 76.6089 125.531ZM68.9975 124.479V118.491C68.9975 118.079 68.7917 117.874 68.3803 117.874C67.9689 117.874 67.7632 118.079 67.7632 118.491V124.479C67.7632 124.891 67.9689 125.097 68.3803 125.097C68.7917 125.097 68.9975 124.891 68.9975 124.479ZM77.6926 112.685H85.0983V124.159C85.0983 124.205 85.1212 124.319 85.1669 124.502C85.2279 124.685 85.4107 124.777 85.7155 124.777C86.0203 124.777 86.1955 124.685 86.2412 124.502C86.3022 124.319 86.3326 124.205 86.3326 124.159V112.685H93.7383V124.479C93.7383 125.318 93.6012 126.11 93.3269 126.857C93.0526 127.588 92.6031 128.243 91.9783 128.822C91.3536 129.386 90.5079 129.836 89.4412 130.171C88.3898 130.491 87.0793 130.651 85.5098 130.651C84.1231 130.651 82.9345 130.483 81.9441 130.148C80.9536 129.813 80.146 129.356 79.5212 128.777C78.8964 128.198 78.4317 127.542 78.1269 126.811C77.8374 126.079 77.6926 125.318 77.6926 124.525V112.685ZM94.448 118.331V118.285C94.6766 117.523 94.8213 116.624 94.8823 115.588C94.9432 114.537 94.928 113.447 94.8366 112.319L94.8594 112.297L100.414 112.091V112.137C100.414 113.142 100.315 114.072 100.117 114.925C99.9185 115.763 99.667 116.502 99.3623 117.142C99.0575 117.782 98.7375 118.285 98.4023 118.651L94.448 118.331ZM108.466 130.285H101.266V112.685H111.735C112.71 112.685 113.601 112.86 114.409 113.211C115.232 113.561 115.887 114.125 116.375 114.902C116.862 115.679 117.106 116.716 117.106 118.011C117.106 118.377 117.076 118.773 117.015 119.199C116.969 119.626 116.855 120.053 116.672 120.479C116.489 120.891 116.207 121.264 115.826 121.599C115.46 121.919 114.958 122.171 114.318 122.354L117.929 130.285H109.906L108.672 125.577H108.466V130.285ZM110.043 118.308H107.849V119.542H110.112C110.234 119.542 110.363 119.504 110.5 119.428C110.653 119.352 110.729 119.192 110.729 118.948C110.729 118.689 110.645 118.521 110.478 118.445C110.31 118.354 110.165 118.308 110.043 118.308ZM125.676 123.382V124.319H132.67V130.285H118.476V112.685H132.259V117.828H125.676V118.765H131.642V123.382H125.676Z" fill="#FD587C"/>
<path d="M52.6192 120.297V121.154H53.4026L53.4729 120.373L52.6192 120.297ZM53.305 112.685V111.828H52.5216L52.4513 112.608L53.305 112.685ZM60.9392 112.685L61.7481 112.969L62.1482 111.828H60.9392V112.685ZM56.3221 125.851L55.5132 125.567L55.465 125.705V125.851H56.3221ZM56.3221 130.285V131.142H57.1792V130.285H56.3221ZM48.7107 130.285H47.8535V131.142H48.7107V130.285ZM48.7107 125.851H49.5678V125.704L49.5191 125.566L48.7107 125.851ZM44.0707 112.685V111.828H42.8598L43.2623 112.97L44.0707 112.685ZM51.705 112.685L52.5584 112.606L52.486 111.828H51.705V112.685ZM52.4135 120.297L51.5601 120.376L51.6325 121.154H52.4135V120.297ZM52.6192 120.297L53.4729 120.373L54.1586 112.762L53.305 112.685L52.4513 112.608L51.7656 120.22L52.6192 120.297ZM53.305 112.685V113.542H60.9392V112.685V111.828H53.305V112.685ZM60.9392 112.685L60.1304 112.401L55.5132 125.567L56.3221 125.851L57.1309 126.135L61.7481 112.969L60.9392 112.685ZM56.3221 125.851H55.465V130.285H56.3221H57.1792V125.851H56.3221ZM56.3221 130.285V129.428H48.7107V130.285V131.142H56.3221V130.285ZM48.7107 130.285H49.5678V125.851H48.7107H47.8535V130.285H48.7107ZM48.7107 125.851L49.5191 125.566L44.8791 112.4L44.0707 112.685L43.2623 112.97L47.9023 126.136L48.7107 125.851ZM44.0707 112.685V113.542H51.705V112.685V111.828H44.0707V112.685ZM51.705 112.685L50.8515 112.765L51.5601 120.376L52.4135 120.297L53.267 120.217L52.5584 112.606L51.705 112.685ZM52.4135 120.297V121.154H52.6192V120.297V119.439H52.4135V120.297ZM76.6089 125.531L77.4563 125.66L77.4574 125.652L76.6089 125.531ZM74.0717 129.302L74.524 130.03L74.5294 130.027L74.0717 129.302ZM62.6889 129.302L62.2332 130.028L62.2367 130.03L62.6889 129.302ZM60.1517 125.577L59.3032 125.698L59.3044 125.706L59.3058 125.715L60.1517 125.577ZM59.9917 123.862L59.1353 123.898L59.1357 123.907L59.1363 123.917L59.9917 123.862ZM59.9917 119.268L59.1364 119.212L59.1358 119.221L59.1354 119.23L59.9917 119.268ZM60.1517 117.622L59.3047 117.491L59.3046 117.492L60.1517 117.622ZM62.7117 113.714L63.1749 114.435V114.435L62.7117 113.714ZM74.0717 113.714L73.6086 114.435L73.614 114.438L74.0717 113.714ZM76.6089 117.531L75.7612 117.658L75.7617 117.661L76.6089 117.531ZM76.746 119.177L75.8897 119.214L75.8901 119.224L75.8908 119.234L76.746 119.177ZM76.746 123.817L75.8906 123.762L75.89 123.771L75.8897 123.78L76.746 123.817ZM76.6089 125.531L75.7615 125.402C75.5575 126.74 74.8654 127.787 73.614 128.578L74.0717 129.302L74.5294 130.027C76.1733 128.989 77.1726 127.521 77.4562 125.66L76.6089 125.531ZM74.0717 129.302L73.6195 128.574C72.3497 129.363 70.6251 129.794 68.3803 129.794V130.651V131.508C70.8288 131.508 72.8986 131.04 74.524 130.03L74.0717 129.302ZM68.3803 130.651V129.794C66.1355 129.794 64.4109 129.363 63.1411 128.574L62.6889 129.302L62.2367 130.03C63.8621 131.04 65.9318 131.508 68.3803 131.508V130.651ZM62.6889 129.302L63.1446 128.576C61.908 127.8 61.2147 126.766 60.9977 125.438L60.1517 125.577L59.3058 125.715C59.6069 127.557 60.605 129.006 62.2332 130.028L62.6889 129.302ZM60.1517 125.577L61.0003 125.455C60.9439 125.06 60.8922 124.514 60.8471 123.808L59.9917 123.862L59.1363 123.917C59.1827 124.643 59.2377 125.239 59.3032 125.698L60.1517 125.577ZM59.9917 123.862L60.8481 123.827C60.8182 123.109 60.8032 122.336 60.8032 121.508H59.946H59.0889C59.0889 122.356 59.1043 123.153 59.1353 123.898L59.9917 123.862ZM59.946 121.508H60.8032C60.8032 120.711 60.8182 119.977 60.848 119.306L59.9917 119.268L59.1354 119.23C59.1043 119.93 59.0889 120.69 59.0889 121.508H59.946ZM59.9917 119.268L60.8471 119.324C60.8922 118.632 60.9436 118.112 60.9989 117.753L60.1517 117.622L59.3046 117.492C59.238 117.925 59.1827 118.502 59.1364 119.212L59.9917 119.268ZM60.1517 117.622L60.9988 117.753C61.2198 116.324 61.9305 115.234 63.1749 114.435L62.7117 113.714L62.2486 112.992C60.5977 114.053 59.6018 115.569 59.3047 117.491L60.1517 117.622ZM62.7117 113.714L63.1749 114.435C64.4433 113.62 66.1565 113.177 68.3803 113.177V112.319V111.462C65.9413 111.462 63.8754 111.948 62.2486 112.992L62.7117 113.714ZM68.3803 112.319V113.177C70.6207 113.177 72.3409 113.621 73.6086 114.435L74.0717 113.714L74.5349 112.992C72.9073 111.947 70.8333 111.462 68.3803 111.462V112.319ZM74.0717 113.714L73.614 114.438C74.8602 115.225 75.5558 116.284 75.7612 117.658L76.6089 117.531L77.4566 117.404C77.1743 115.516 76.1785 114.031 74.5294 112.989L74.0717 113.714ZM76.6089 117.531L75.7617 117.661C75.8157 118.012 75.8597 118.525 75.8897 119.214L76.746 119.177L77.6024 119.139C77.5714 118.427 77.524 117.842 77.4561 117.401L76.6089 117.531ZM76.746 119.177L75.8908 119.234C75.935 119.897 75.9575 120.632 75.9575 121.439H76.8146H77.6717C77.6717 120.601 77.6485 119.828 77.6013 119.12L76.746 119.177ZM76.8146 121.439H75.9575C75.9575 122.293 75.935 123.067 75.8906 123.762L76.746 123.817L77.6014 123.871C77.6485 123.134 77.6717 122.323 77.6717 121.439H76.8146ZM76.746 123.817L75.8897 123.78C75.8597 124.484 75.8155 125.023 75.7604 125.41L76.6089 125.531L77.4574 125.652C77.5241 125.185 77.5714 124.582 77.6024 123.853L76.746 123.817ZM68.9975 124.479H69.8546V118.491H68.9975H68.1403V124.479H68.9975ZM68.9975 118.491H69.8546C69.8546 118.153 69.7696 117.742 69.4493 117.422C69.129 117.102 68.7181 117.017 68.3803 117.017V117.874V118.731C68.4539 118.731 68.3517 118.749 68.2371 118.634C68.1225 118.52 68.1403 118.417 68.1403 118.491H68.9975ZM68.3803 117.874V117.017C68.0425 117.017 67.6317 117.102 67.3114 117.422C66.9911 117.742 66.906 118.153 66.906 118.491H67.7632H68.6203C68.6203 118.417 68.6381 118.52 68.5235 118.634C68.409 118.749 68.3067 118.731 68.3803 118.731V117.874ZM67.7632 118.491H66.906V124.479H67.7632H68.6203V118.491H67.7632ZM67.7632 124.479H66.906C66.906 124.817 66.9911 125.228 67.3114 125.548C67.6317 125.869 68.0425 125.954 68.3803 125.954V125.097V124.239C68.3067 124.239 68.409 124.222 68.5235 124.336C68.6381 124.451 68.6203 124.553 68.6203 124.479H67.7632ZM68.3803 125.097V125.954C68.7181 125.954 69.129 125.869 69.4493 125.548C69.7696 125.228 69.8546 124.817 69.8546 124.479H68.9975H68.1403C68.1403 124.553 68.1225 124.451 68.2371 124.336C68.3517 124.222 68.4539 124.239 68.3803 124.239V125.097ZM77.6926 112.685V111.828H76.8355V112.685H77.6926ZM85.0983 112.685H85.9555V111.828H85.0983V112.685ZM85.1669 124.502L84.3354 124.71L84.3433 124.742L84.3538 124.773L85.1669 124.502ZM86.2412 124.502L85.428 124.231L85.4176 124.262L85.4097 124.294L86.2412 124.502ZM86.3326 112.685V111.828H85.4755V112.685H86.3326ZM93.7383 112.685H94.5955V111.828H93.7383V112.685ZM93.3269 126.857L94.1295 127.158L94.1315 127.152L93.3269 126.857ZM91.9783 128.822L92.5527 129.459L92.561 129.451L91.9783 128.822ZM89.4412 130.171L89.6908 130.991L89.6982 130.989L89.4412 130.171ZM79.5212 128.777L78.9385 129.405V129.405L79.5212 128.777ZM78.1269 126.811L77.3299 127.126L77.3328 127.133L77.3357 127.141L78.1269 126.811ZM77.6926 112.685V113.542H85.0983V112.685V111.828H77.6926V112.685ZM85.0983 112.685H84.2412V124.159H85.0983H85.9555V112.685H85.0983ZM85.0983 124.159H84.2412C84.2412 124.278 84.2643 124.394 84.275 124.448C84.2902 124.524 84.311 124.613 84.3354 124.71L85.1669 124.502L85.9985 124.294C85.9772 124.209 85.9636 124.15 85.956 124.111C85.9522 124.092 85.951 124.084 85.9512 124.085C85.9513 124.086 85.9521 124.092 85.953 124.102C85.9539 124.111 85.9555 124.132 85.9555 124.159H85.0983ZM85.1669 124.502L84.3538 124.773C84.5948 125.496 85.2927 125.634 85.7155 125.634V124.777V123.919C85.6362 123.919 85.6615 123.906 85.7331 123.941C85.7738 123.962 85.8263 123.997 85.8761 124.053C85.9266 124.11 85.9605 124.172 85.9801 124.231L85.1669 124.502ZM85.7155 124.777V125.634C85.938 125.634 86.2133 125.603 86.472 125.468C86.7649 125.315 86.9873 125.052 87.0728 124.71L86.2412 124.502L85.4097 124.294C85.4262 124.228 85.4594 124.154 85.5151 124.085C85.5701 124.016 85.631 123.973 85.679 123.948C85.7624 123.905 85.7978 123.919 85.7155 123.919V124.777ZM86.2412 124.502L87.0544 124.773C87.0874 124.674 87.1163 124.581 87.138 124.5C87.1514 124.45 87.1898 124.309 87.1898 124.159H86.3326H85.4755C85.4755 124.12 85.4785 124.091 85.4803 124.077C85.4822 124.061 85.4842 124.05 85.4849 124.046C85.4863 124.039 85.486 124.042 85.4816 124.059C85.4727 124.092 85.456 124.147 85.428 124.231L86.2412 124.502ZM86.3326 124.159H87.1898V112.685H86.3326H85.4755V124.159H86.3326ZM86.3326 112.685V113.542H93.7383V112.685V111.828H86.3326V112.685ZM93.7383 112.685H92.8812V124.479H93.7383H94.5955V112.685H93.7383ZM93.7383 124.479H92.8812C92.8812 125.222 92.76 125.914 92.5223 126.561L93.3269 126.857L94.1315 127.152C94.4424 126.306 94.5955 125.413 94.5955 124.479H93.7383ZM93.3269 126.857L92.5244 126.556C92.301 127.151 91.9317 127.697 91.3957 128.194L91.9783 128.822L92.561 129.451C93.2746 128.79 93.8043 128.025 94.1295 127.158L93.3269 126.857ZM91.9783 128.822L91.4041 128.186C90.8957 128.645 90.1701 129.043 89.1842 129.353L89.4412 130.171L89.6982 130.989C90.8457 130.628 91.8115 130.127 92.5526 129.459L91.9783 128.822ZM89.4412 130.171L89.1916 129.351C88.2475 129.638 87.0277 129.794 85.5098 129.794V130.651V131.508C87.1309 131.508 88.532 131.344 89.6908 130.991L89.4412 130.171ZM85.5098 130.651V129.794C84.188 129.794 83.0973 129.633 82.2189 129.336L81.9441 130.148L81.6693 130.96C82.7718 131.333 84.0583 131.508 85.5098 131.508V130.651ZM81.9441 130.148L82.2189 129.336C81.3174 129.031 80.6223 128.628 80.1039 128.148L79.5212 128.777L78.9385 129.405C79.6696 130.083 80.5898 130.595 81.6693 130.96L81.9441 130.148ZM79.5212 128.777L80.1039 128.148C79.5624 127.646 79.1721 127.091 78.9181 126.481L78.1269 126.811L77.3357 127.141C77.6912 127.994 78.2305 128.749 78.9385 129.405L79.5212 128.777ZM78.1269 126.811L78.9239 126.495C78.6744 125.865 78.5498 125.21 78.5498 124.525H77.6926H76.8355C76.8355 125.425 77.0004 126.294 77.3299 127.126L78.1269 126.811ZM77.6926 124.525H78.5498V112.685H77.6926H76.8355V124.525H77.6926ZM94.448 118.331H93.5908V119.121L94.3788 119.185L94.448 118.331ZM94.448 118.285L93.627 118.039L93.5908 118.159V118.285H94.448ZM94.8823 115.588L95.7379 115.638L95.738 115.638L94.8823 115.588ZM94.8366 112.319L94.2305 111.713L93.9502 111.994L93.9822 112.389L94.8366 112.319ZM94.8594 112.297L94.8277 111.44L94.4913 111.452L94.2533 111.691L94.8594 112.297ZM100.414 112.091H101.271V111.201L100.382 111.234L100.414 112.091ZM100.117 114.925L100.951 115.122L100.951 115.119L100.117 114.925ZM99.3623 117.142L100.136 117.511V117.511L99.3623 117.142ZM98.4023 118.651L98.3331 119.505L98.7509 119.539L99.0341 119.23L98.4023 118.651ZM94.448 118.331H95.3051V118.285H94.448H93.5908V118.331H94.448ZM94.448 118.285L95.269 118.531C95.5215 117.69 95.6742 116.722 95.7379 115.638L94.8823 115.588L94.0266 115.538C93.9685 116.526 93.8317 117.357 93.627 118.039L94.448 118.285ZM94.8823 115.588L95.738 115.638C95.8014 114.544 95.7853 113.414 95.6909 112.25L94.8366 112.319L93.9822 112.389C94.0707 113.48 94.0851 114.529 94.0266 115.538L94.8823 115.588ZM94.8366 112.319L95.4427 112.926L95.4655 112.903L94.8594 112.297L94.2533 111.691L94.2305 111.713L94.8366 112.319ZM94.8594 112.297L94.8911 113.153L100.445 112.947L100.414 112.091L100.382 111.234L94.8277 111.44L94.8594 112.297ZM100.414 112.091H99.5566V112.137H100.414H101.271V112.091H100.414ZM100.414 112.137H99.5566C99.5566 113.086 99.463 113.95 99.2816 114.731L100.117 114.925L100.951 115.119C101.166 114.194 101.271 113.198 101.271 112.137H100.414ZM100.117 114.925L99.2824 114.728C99.0954 115.519 98.8622 116.199 98.5884 116.774L99.3623 117.142L100.136 117.511C100.472 116.806 100.742 116.007 100.951 115.122L100.117 114.925ZM99.3623 117.142L98.5884 116.774C98.3059 117.367 98.0293 117.789 97.7704 118.072L98.4023 118.651L99.0341 119.23C99.4457 118.781 99.8091 118.198 100.136 117.511L99.3623 117.142ZM98.4023 118.651L98.4714 117.797L94.5171 117.477L94.448 118.331L94.3788 119.185L98.3331 119.505L98.4023 118.651ZM108.466 130.285V131.142H109.323V130.285H108.466ZM101.266 130.285H100.409V131.142H101.266V130.285ZM101.266 112.685V111.828H100.409V112.685H101.266ZM114.409 113.211L114.068 113.997L114.073 113.999L114.409 113.211ZM116.375 114.902L117.101 114.447V114.447L116.375 114.902ZM117.015 119.199L116.166 119.078L116.164 119.093L116.163 119.108L117.015 119.199ZM116.672 120.479L117.455 120.828L117.46 120.817L116.672 120.479ZM115.826 121.599L116.391 122.245L116.392 122.243L115.826 121.599ZM114.318 122.354L114.082 121.53L113.125 121.803L113.538 122.709L114.318 122.354ZM117.929 130.285V131.142H119.261L118.709 129.93L117.929 130.285ZM109.906 130.285L109.077 130.503L109.245 131.142H109.906V130.285ZM108.672 125.577L109.501 125.359L109.333 124.719H108.672V125.577ZM108.466 125.577V124.719H107.609V125.577H108.466ZM107.849 118.308V117.451H106.992V118.308H107.849ZM107.849 119.542H106.992V120.399H107.849V119.542ZM110.5 119.428L110.117 118.661L110.101 118.67L110.084 118.679L110.5 119.428ZM110.478 118.445L110.067 119.198L110.095 119.213L110.123 119.225L110.478 118.445ZM108.466 130.285V129.428H101.266V130.285V131.142H108.466V130.285ZM101.266 130.285H102.123V112.685H101.266H100.409V130.285H101.266ZM101.266 112.685V113.542H111.735V112.685V111.828H101.266V112.685ZM111.735 112.685V113.542C112.605 113.542 113.379 113.698 114.068 113.997L114.409 113.211L114.75 112.425C113.824 112.023 112.815 111.828 111.735 111.828V112.685ZM114.409 113.211L114.073 113.999C114.731 114.279 115.252 114.725 115.649 115.358L116.375 114.902L117.101 114.447C116.523 113.525 115.733 112.843 114.745 112.422L114.409 113.211ZM116.375 114.902L115.649 115.358C116.022 115.953 116.249 116.813 116.249 118.011H117.106H117.963C117.963 116.618 117.702 115.406 117.101 114.447L116.375 114.902ZM117.106 118.011H116.249C116.249 118.33 116.222 118.685 116.166 119.078L117.015 119.199L117.863 119.321C117.929 118.861 117.963 118.424 117.963 118.011H117.106ZM117.015 119.199L116.163 119.108C116.127 119.443 116.036 119.787 115.884 120.142L116.672 120.479L117.46 120.817C117.673 120.318 117.812 119.809 117.867 119.291L117.015 119.199ZM116.672 120.479L115.889 120.131C115.762 120.416 115.56 120.692 115.26 120.956L115.826 121.599L116.392 122.243C116.854 121.836 117.216 121.365 117.455 120.828L116.672 120.479ZM115.826 121.599L115.262 120.954C115.02 121.166 114.643 121.369 114.082 121.53L114.318 122.354L114.553 123.178C115.272 122.972 115.901 122.673 116.391 122.245L115.826 121.599ZM114.318 122.354L113.538 122.709L117.149 130.64L117.929 130.285L118.709 129.93L115.098 121.999L114.318 122.354ZM117.929 130.285V129.428H109.906V130.285V131.142H117.929V130.285ZM109.906 130.285L110.735 130.068L109.501 125.359L108.672 125.577L107.843 125.794L109.077 130.503L109.906 130.285ZM108.672 125.577V124.719H108.466V125.577V126.434H108.672V125.577ZM108.466 125.577H107.609V130.285H108.466H109.323V125.577H108.466ZM110.043 118.308V117.451H107.849V118.308V119.165H110.043V118.308ZM107.849 118.308H106.992V119.542H107.849H108.706V118.308H107.849ZM107.849 119.542V120.399H110.112V119.542V118.685H107.849V119.542ZM110.112 119.542V120.399C110.415 120.399 110.688 120.304 110.917 120.177L110.5 119.428L110.084 118.679C110.062 118.691 110.054 118.693 110.059 118.691C110.064 118.69 110.083 118.685 110.112 118.685V119.542ZM110.5 119.428L110.884 120.195C111.446 119.914 111.586 119.357 111.586 118.948H110.729H109.872C109.872 118.988 109.865 118.952 109.898 118.882C109.916 118.845 109.944 118.801 109.985 118.759C110.026 118.716 110.072 118.684 110.117 118.661L110.5 119.428ZM110.729 118.948H111.586C111.586 118.512 111.429 117.936 110.832 117.665L110.478 118.445L110.123 119.225C110.08 119.206 110.034 119.176 109.991 119.135C109.948 119.093 109.919 119.05 109.9 119.011C109.864 118.94 109.872 118.904 109.872 118.948H110.729ZM110.478 118.445L110.888 117.693C110.659 117.568 110.368 117.451 110.043 117.451V118.308V119.165C110.02 119.165 110.004 119.163 109.994 119.161C109.985 119.16 109.982 119.159 109.985 119.16C109.989 119.161 109.997 119.164 110.012 119.17C110.026 119.176 110.044 119.185 110.067 119.198L110.478 118.445ZM125.676 123.382V122.525H124.819V123.382H125.676ZM125.676 124.319H124.819V125.177H125.676V124.319ZM132.67 124.319H133.527V123.462H132.67V124.319ZM132.67 130.285V131.142H133.527V130.285H132.67ZM118.476 130.285H117.619V131.142H118.476V130.285ZM118.476 112.685V111.828H117.619V112.685H118.476ZM132.259 112.685H133.116V111.828H132.259V112.685ZM132.259 117.828V118.685H133.116V117.828H132.259ZM125.676 117.828V116.971H124.819V117.828H125.676ZM125.676 118.765H124.819V119.622H125.676V118.765ZM131.642 118.765H132.499V117.908H131.642V118.765ZM131.642 123.382V124.239H132.499V123.382H131.642ZM125.676 123.382H124.819V124.319H125.676H126.533V123.382H125.676ZM125.676 124.319V125.177H132.67V124.319V123.462H125.676V124.319ZM132.67 124.319H131.813V130.285H132.67H133.527V124.319H132.67ZM132.67 130.285V129.428H118.476V130.285V131.142H132.67V130.285ZM118.476 130.285H119.333V112.685H118.476H117.619V130.285H118.476ZM118.476 112.685V113.542H132.259V112.685V111.828H118.476V112.685ZM132.259 112.685H131.402V117.828H132.259H133.116V112.685H132.259ZM132.259 117.828V116.971H125.676V117.828V118.685H132.259V117.828ZM125.676 117.828H124.819V118.765H125.676H126.533V117.828H125.676ZM125.676 118.765V119.622H131.642V118.765V117.908H125.676V118.765ZM131.642 118.765H130.785V123.382H131.642H132.499V118.765H131.642ZM131.642 123.382V122.525H125.676V123.382V124.239H131.642V123.382Z" fill="white" mask="url(#path-5-outside-2_1063_41585)"/>
<path d="M139.832 39.5L35.6795 53.833C34.4346 54.0043 33.5615 55.1484 33.7248 56.3944L39.7285 102.205C39.8827 103.382 40.9114 104.245 42.0968 104.192L140.246 99.8115C141.467 99.757 142.43 98.7508 142.43 97.528V41.7644C142.43 40.3781 141.206 39.311 139.832 39.5Z" fill="#7159A1" stroke="white" stroke-width="1.14286"/>
<mask id="path-8-outside-3_1063_41585" maskUnits="userSpaceOnUse" x="42.2852" y="63.1426" width="95" height="23" fill="black">
<rect fill="white" x="42.2852" y="63.1426" width="95" height="23"/>
<path d="M51.8049 65.1393V76.5906H59.3569V84.1426H44.0308V65.1393H51.8049ZM79.7938 84.1426H71.7976L71.5508 81.8721H68.0463L67.7995 84.1426H59.8032L64.6898 65.1393H74.9072L79.7938 84.1426ZM69.1322 72.173L68.8607 74.5422H70.7363L70.4649 72.173H69.1322ZM79.9875 65.1393H87.9837V77.5284C87.9837 77.5778 88.0084 77.7012 88.0578 77.8986C88.1236 78.0961 88.321 78.1948 88.6501 78.1948C88.9791 78.1948 89.1684 78.0961 89.2177 77.8986C89.2835 77.7012 89.3164 77.5778 89.3164 77.5284V65.1393H97.3126V77.8739C97.3126 78.7789 97.1646 79.6344 96.8684 80.4406C96.5723 81.2304 96.0869 81.9379 95.4123 82.5631C94.7377 83.1718 93.8246 83.6572 92.6729 84.0192C91.5376 84.3647 90.1226 84.5375 88.428 84.5375C86.9307 84.5375 85.6474 84.3565 84.5779 83.9945C83.5085 83.6325 82.6365 83.1389 81.9619 82.5137C81.2873 81.8885 80.7855 81.181 80.4564 80.3913C80.1438 79.6015 79.9875 78.7789 79.9875 77.9233V65.1393ZM116.469 70.3713V71.1117L108.695 72.0002V71.556C108.695 70.9636 108.398 70.6675 107.806 70.6675C107.214 70.6675 106.918 70.9636 106.918 71.556V77.6272C106.918 78.2195 107.214 78.5156 107.806 78.5156C108.398 78.5156 108.695 78.2195 108.695 77.6272V76.8621H107.806V72.6665H116.469V78.7624C116.469 80.5723 115.687 81.9872 114.124 83.0073C112.561 84.0274 110.381 84.5375 107.584 84.5375C105.001 84.5375 102.903 84.0356 101.291 83.032C99.6947 82.0119 98.7569 80.6052 98.4772 78.8118C98.4114 78.3511 98.3538 77.7506 98.3045 77.0102C98.2716 76.2698 98.2551 75.4471 98.2551 74.5422C98.2551 73.6866 98.2716 72.9051 98.3045 72.1976C98.3538 71.4737 98.4114 70.8978 98.4772 70.4701C98.7569 68.6602 99.703 67.2535 101.315 66.2498C102.928 65.2462 105.017 64.7444 107.584 64.7444C110.315 64.7444 112.462 65.2462 114.025 66.2498C115.588 67.237 116.403 68.6109 116.469 70.3713ZM127.511 70.4701V65.1393H135.507V84.1426H127.511V78.022H125.512V84.1426H117.515V65.1393H125.512V70.4701H127.511Z"/>
</mask>
<path d="M51.8049 65.1393V76.5906H59.3569V84.1426H44.0308V65.1393H51.8049ZM79.7938 84.1426H71.7976L71.5508 81.8721H68.0463L67.7995 84.1426H59.8032L64.6898 65.1393H74.9072L79.7938 84.1426ZM69.1322 72.173L68.8607 74.5422H70.7363L70.4649 72.173H69.1322ZM79.9875 65.1393H87.9837V77.5284C87.9837 77.5778 88.0084 77.7012 88.0578 77.8986C88.1236 78.0961 88.321 78.1948 88.6501 78.1948C88.9791 78.1948 89.1684 78.0961 89.2177 77.8986C89.2835 77.7012 89.3164 77.5778 89.3164 77.5284V65.1393H97.3126V77.8739C97.3126 78.7789 97.1646 79.6344 96.8684 80.4406C96.5723 81.2304 96.0869 81.9379 95.4123 82.5631C94.7377 83.1718 93.8246 83.6572 92.6729 84.0192C91.5376 84.3647 90.1226 84.5375 88.428 84.5375C86.9307 84.5375 85.6474 84.3565 84.5779 83.9945C83.5085 83.6325 82.6365 83.1389 81.9619 82.5137C81.2873 81.8885 80.7855 81.181 80.4564 80.3913C80.1438 79.6015 79.9875 78.7789 79.9875 77.9233V65.1393ZM116.469 70.3713V71.1117L108.695 72.0002V71.556C108.695 70.9636 108.398 70.6675 107.806 70.6675C107.214 70.6675 106.918 70.9636 106.918 71.556V77.6272C106.918 78.2195 107.214 78.5156 107.806 78.5156C108.398 78.5156 108.695 78.2195 108.695 77.6272V76.8621H107.806V72.6665H116.469V78.7624C116.469 80.5723 115.687 81.9872 114.124 83.0073C112.561 84.0274 110.381 84.5375 107.584 84.5375C105.001 84.5375 102.903 84.0356 101.291 83.032C99.6947 82.0119 98.7569 80.6052 98.4772 78.8118C98.4114 78.3511 98.3538 77.7506 98.3045 77.0102C98.2716 76.2698 98.2551 75.4471 98.2551 74.5422C98.2551 73.6866 98.2716 72.9051 98.3045 72.1976C98.3538 71.4737 98.4114 70.8978 98.4772 70.4701C98.7569 68.6602 99.703 67.2535 101.315 66.2498C102.928 65.2462 105.017 64.7444 107.584 64.7444C110.315 64.7444 112.462 65.2462 114.025 66.2498C115.588 67.237 116.403 68.6109 116.469 70.3713ZM127.511 70.4701V65.1393H135.507V84.1426H127.511V78.022H125.512V84.1426H117.515V65.1393H125.512V70.4701H127.511Z" fill="#F6F0F1"/>
<path d="M51.8049 65.1393H52.7304V64.2138H51.8049V65.1393ZM51.8049 76.5906H50.8794V77.5161H51.8049V76.5906ZM59.3569 76.5906H60.2824V75.6651H59.3569V76.5906ZM59.3569 84.1426V85.0681H60.2824V84.1426H59.3569ZM44.0308 84.1426H43.1054V85.0681H44.0308V84.1426ZM44.0308 65.1393V64.2138H43.1054V65.1393H44.0308ZM51.8049 65.1393H50.8794V76.5906H51.8049H52.7304V65.1393H51.8049ZM51.8049 76.5906V77.5161H59.3569V76.5906V75.6651H51.8049V76.5906ZM59.3569 76.5906H58.4314V84.1426H59.3569H60.2824V76.5906H59.3569ZM59.3569 84.1426V83.2171H44.0308V84.1426V85.0681H59.3569V84.1426ZM44.0308 84.1426H44.9563V65.1393H44.0308H43.1054V84.1426H44.0308ZM44.0308 65.1393V66.0647H51.8049V65.1393V64.2138H44.0308V65.1393ZM79.7938 84.1426V85.0681H80.9873L80.6901 83.9121L79.7938 84.1426ZM71.7976 84.1426L70.8775 84.2426L70.9672 85.0681H71.7976V84.1426ZM71.5508 81.8721L72.4708 81.772L72.3811 80.9466H71.5508V81.8721ZM68.0462 81.8721V80.9466H67.2159L67.1262 81.772L68.0462 81.8721ZM67.7995 84.1426V85.0681H68.6298L68.7195 84.2426L67.7995 84.1426ZM59.8032 84.1426L58.9069 83.9121L58.6097 85.0681H59.8032V84.1426ZM64.6898 65.1393V64.2138H63.9722L63.7935 64.9088L64.6898 65.1393ZM74.9072 65.1393L75.8035 64.9088L75.6248 64.2138H74.9072V65.1393ZM69.1322 72.173V71.2475H68.3067L68.2127 72.0676L69.1322 72.173ZM68.8607 74.5422L67.9412 74.4368L67.8231 75.4677H68.8607V74.5422ZM70.7363 74.5422V75.4677H71.7739L71.6558 74.4368L70.7363 74.5422ZM70.4649 72.173L71.3843 72.0676L71.2904 71.2475H70.4649V72.173ZM79.7938 84.1426V83.2171H71.7976V84.1426V85.0681H79.7938V84.1426ZM71.7976 84.1426L72.7176 84.0426L72.4708 81.772L71.5508 81.8721L70.6307 81.9721L70.8775 84.2426L71.7976 84.1426ZM71.5508 81.8721V80.9466H68.0462V81.8721V82.7975H71.5508V81.8721ZM68.0462 81.8721L67.1262 81.772L66.8794 84.0426L67.7995 84.1426L68.7195 84.2426L68.9663 81.9721L68.0462 81.8721ZM67.7995 84.1426V83.2171H59.8032V84.1426V85.0681H67.7995V84.1426ZM59.8032 84.1426L60.6996 84.3731L65.5861 65.3697L64.6898 65.1393L63.7935 64.9088L58.9069 83.9121L59.8032 84.1426ZM64.6898 65.1393V66.0647H74.9072V65.1393V64.2138H64.6898V65.1393ZM74.9072 65.1393L74.0109 65.3697L78.8974 84.3731L79.7938 84.1426L80.6901 83.9121L75.8035 64.9088L74.9072 65.1393ZM69.1322 72.173L68.2127 72.0676L67.9412 74.4368L68.8607 74.5422L69.7801 74.6476L70.0516 72.2783L69.1322 72.173ZM68.8607 74.5422V75.4677H70.7363V74.5422V73.6167H68.8607V74.5422ZM70.7363 74.5422L71.6558 74.4368L71.3843 72.0676L70.4649 72.173L69.5454 72.2783L69.8169 74.6476L70.7363 74.5422ZM70.4649 72.173V71.2475H69.1322V72.173V73.0984H70.4649V72.173ZM79.9875 65.1393V64.2138H79.062V65.1393H79.9875ZM87.9837 65.1393H88.9092V64.2138H87.9837V65.1393ZM88.0578 77.8986L87.1599 78.1231L87.1685 78.1576L87.1798 78.1913L88.0578 77.8986ZM89.2177 77.8986L88.3397 77.606L88.3285 77.6397L88.3199 77.6742L89.2177 77.8986ZM89.3164 65.1393V64.2138H88.3909V65.1393H89.3164ZM97.3126 65.1393H98.2381V64.2138H97.3126V65.1393ZM96.8684 80.4406L97.735 80.7656L97.7371 80.7598L96.8684 80.4406ZM95.4123 82.5631L96.0324 83.2502L96.0414 83.2419L95.4123 82.5631ZM92.6729 84.0192L92.9423 84.9046L92.9504 84.9021L92.6729 84.0192ZM81.9619 82.5137L81.3328 83.1925V83.1925L81.9619 82.5137ZM80.4564 80.3913L79.5959 80.7319L79.599 80.7396L79.6021 80.7472L80.4564 80.3913ZM79.9875 65.1393V66.0647H87.9837V65.1393V64.2138H79.9875V65.1393ZM87.9837 65.1393H87.0583V77.5284H87.9837H88.9092V65.1393H87.9837ZM87.9837 77.5284H87.0583C87.0583 77.6559 87.0832 77.782 87.0947 77.8395C87.1111 77.9216 87.1336 78.0176 87.1599 78.1231L88.0578 77.8986L88.9556 77.6742C88.9326 77.5822 88.918 77.5178 88.9098 77.4765C88.9056 77.4558 88.9044 77.4475 88.9045 77.4485C88.9047 77.4492 88.9056 77.4557 88.9066 77.4666C88.9075 77.4764 88.9092 77.4984 88.9092 77.5284H87.9837ZM88.0578 77.8986L87.1798 78.1913C87.44 78.9719 88.1936 79.1203 88.6501 79.1203V78.1948V77.2693C88.5645 77.2693 88.5918 77.2543 88.6691 77.293C88.713 77.3149 88.7698 77.3529 88.8235 77.4133C88.8781 77.4747 88.9146 77.5425 88.9358 77.606L88.0578 77.8986ZM88.6501 78.1948V79.1203C88.8903 79.1203 89.1876 79.087 89.4669 78.9413C89.7831 78.7763 90.0233 78.4924 90.1156 78.1231L89.2177 77.8986L88.3199 77.6742C88.3377 77.6027 88.3736 77.5223 88.4338 77.4476C88.4932 77.3739 88.5588 77.3273 88.6107 77.3002C88.7008 77.2532 88.7389 77.2693 88.6501 77.2693V78.1948ZM89.2177 77.8986L90.0957 78.1913C90.1314 78.0843 90.1626 77.9841 90.186 77.8965C90.2005 77.842 90.2419 77.6897 90.2419 77.5284H89.3164H88.3909C88.3909 77.4863 88.3942 77.4546 88.3961 77.439C88.3982 77.422 88.4003 77.4104 88.4011 77.4062C88.4026 77.3985 88.4023 77.4016 88.3975 77.4195C88.388 77.4553 88.3699 77.5155 88.3397 77.606L89.2177 77.8986ZM89.3164 77.5284H90.2419V65.1393H89.3164H88.3909V77.5284H89.3164ZM89.3164 65.1393V66.0647H97.3126V65.1393V64.2138H89.3164V65.1393ZM97.3126 65.1393H96.3872V77.8739H97.3126H98.2381V65.1393H97.3126ZM97.3126 77.8739H96.3872C96.3872 78.6759 96.2563 79.4229 95.9997 80.1215L96.8684 80.4406L97.7371 80.7598C98.0728 79.846 98.2381 78.8819 98.2381 77.8739H97.3126ZM96.8684 80.4406L96.0018 80.1157C95.7607 80.7587 95.3619 81.3479 94.7832 81.8843L95.4123 82.5631L96.0414 83.2419C96.8119 82.5278 97.3838 81.702 97.735 80.7656L96.8684 80.4406ZM95.4123 82.5631L94.7923 81.876C94.2433 82.3714 93.4599 82.8017 92.3954 83.1363L92.6729 84.0192L92.9504 84.9021C94.1893 84.5127 95.2322 83.9723 96.0323 83.2502L95.4123 82.5631ZM92.6729 84.0192L92.4034 83.1338C91.384 83.444 90.0669 83.612 88.428 83.612V84.5375V85.4629C90.1783 85.4629 91.6912 85.2854 92.9423 84.9046L92.6729 84.0192ZM88.428 84.5375V83.612C87.0008 83.612 85.8231 83.4389 84.8747 83.1179L84.5779 83.9945L84.2812 84.8711C85.4717 85.2741 86.8607 85.4629 88.428 85.4629V84.5375ZM84.5779 83.9945L84.8747 83.1179C83.9013 82.7884 83.1508 82.3538 82.591 81.8349L81.9619 82.5137L81.3328 83.1925C82.1222 83.9241 83.1157 84.4766 84.2812 84.8711L84.5779 83.9945ZM81.9619 82.5137L82.591 81.8349C82.0064 81.2931 81.585 80.6935 81.3107 80.0353L80.4564 80.3913L79.6021 80.7472C79.986 81.6685 80.5683 82.4839 81.3328 83.1925L81.9619 82.5137ZM80.4564 80.3913L81.317 80.0506C81.0476 79.3701 80.913 78.6631 80.913 77.9233H79.9875H79.062C79.062 78.8946 79.2401 79.8329 79.5959 80.7319L80.4564 80.3913ZM79.9875 77.9233H80.913V65.1393H79.9875H79.062V77.9233H79.9875ZM116.469 70.3713H117.394V70.354L117.394 70.3368L116.469 70.3713ZM116.469 71.1117L116.574 72.0312L117.394 71.9375V71.1117H116.469ZM108.695 72.0002H107.769V73.0375L108.8 72.9197L108.695 72.0002ZM108.695 76.8621H109.62V75.9366H108.695V76.8621ZM107.806 76.8621H106.881V77.7876H107.806V76.8621ZM107.806 72.6665V71.7411H106.881V72.6665H107.806ZM116.469 72.6665H117.394V71.7411H116.469V72.6665ZM114.124 83.0073L113.618 82.2323V82.2323L114.124 83.0073ZM101.291 83.032L100.792 83.8119L100.802 83.8177L101.291 83.032ZM98.4772 78.8118L97.561 78.9427L97.5628 78.9544L98.4772 78.8118ZM98.3045 77.0102L97.3799 77.0513L97.3803 77.0615L97.381 77.0717L98.3045 77.0102ZM98.3045 72.1976L97.3811 72.1347L97.3804 72.1446L97.38 72.1546L98.3045 72.1976ZM98.4772 70.4701L97.5626 70.3287L97.5625 70.3293L98.4772 70.4701ZM101.315 66.2498L100.826 65.4641V65.4641L101.315 66.2498ZM114.025 66.2498L113.525 67.0286L113.531 67.0323L114.025 66.2498ZM116.469 70.3713H115.543V71.1117H116.469H117.394V70.3713H116.469ZM116.469 71.1117L116.364 70.1922L108.59 71.0807L108.695 72.0002L108.8 72.9197L116.574 72.0312L116.469 71.1117ZM108.695 72.0002H109.62V71.556H108.695H107.769V72.0002H108.695ZM108.695 71.556H109.62C109.62 71.1171 109.51 70.618 109.127 70.2352C108.744 69.8523 108.245 69.742 107.806 69.742V70.6675V71.593C107.842 71.593 107.867 71.5952 107.883 71.5976C107.9 71.5999 107.905 71.602 107.902 71.601C107.899 71.6 107.888 71.5958 107.871 71.586C107.855 71.5761 107.836 71.5621 107.818 71.544C107.8 71.5259 107.786 71.5073 107.776 71.4907C107.766 71.4744 107.762 71.4631 107.761 71.4599C107.76 71.457 107.762 71.4625 107.765 71.4786C107.767 71.4948 107.769 71.5201 107.769 71.556H108.695ZM107.806 70.6675V69.742C107.367 69.742 106.868 69.8523 106.485 70.2352C106.102 70.618 105.992 71.1171 105.992 71.556H106.918H107.843C107.843 71.5201 107.845 71.4948 107.848 71.4786C107.85 71.4625 107.852 71.457 107.851 71.4599C107.85 71.4631 107.846 71.4744 107.836 71.4907C107.826 71.5073 107.812 71.5259 107.794 71.544C107.776 71.5621 107.757 71.5761 107.741 71.586C107.725 71.5958 107.713 71.6 107.71 71.601C107.707 71.602 107.713 71.5999 107.729 71.5976C107.745 71.5952 107.77 71.593 107.806 71.593V70.6675ZM106.918 71.556H105.992V77.6272H106.918H107.843V71.556H106.918ZM106.918 77.6272H105.992C105.992 78.066 106.102 78.5651 106.485 78.9479C106.868 79.3308 107.367 79.4411 107.806 79.4411V78.5156V77.5901C107.77 77.5901 107.745 77.5879 107.729 77.5856C107.713 77.5832 107.707 77.5811 107.71 77.5821C107.713 77.5832 107.725 77.5873 107.741 77.5971C107.757 77.607 107.776 77.621 107.794 77.6391C107.812 77.6572 107.826 77.6758 107.836 77.6924C107.846 77.7087 107.85 77.72 107.851 77.7232C107.852 77.7261 107.85 77.7207 107.848 77.7045C107.845 77.6883 107.843 77.663 107.843 77.6272H106.918ZM107.806 78.5156V79.4411C108.245 79.4411 108.744 79.3308 109.127 78.9479C109.51 78.5651 109.62 78.066 109.62 77.6272H108.695H107.769C107.769 77.663 107.767 77.6883 107.765 77.7045C107.762 77.7207 107.76 77.7261 107.761 77.7232C107.762 77.72 107.766 77.7087 107.776 77.6924C107.786 77.6758 107.8 77.6572 107.818 77.6391C107.836 77.621 107.855 77.607 107.871 77.5971C107.888 77.5873 107.899 77.5832 107.902 77.5821C107.905 77.5811 107.9 77.5832 107.883 77.5856C107.867 77.5879 107.842 77.5901 107.806 77.5901V78.5156ZM108.695 77.6272H109.62V76.8621H108.695H107.769V77.6272H108.695ZM108.695 76.8621V75.9366H107.806V76.8621V77.7876H108.695V76.8621ZM107.806 76.8621H108.732V72.6665H107.806H106.881V76.8621H107.806ZM107.806 72.6665V73.592H116.469V72.6665V71.7411H107.806V72.6665ZM116.469 72.6665H115.543V78.7624H116.469H117.394V72.6665H116.469ZM116.469 78.7624H115.543C115.543 80.248 114.929 81.3766 113.618 82.2323L114.124 83.0073L114.63 83.7823C116.445 82.5978 117.394 80.8965 117.394 78.7624H116.469ZM114.124 83.0073L113.618 82.2323C112.263 83.1167 110.285 83.612 107.584 83.612V84.5375V85.4629C110.477 85.4629 112.859 84.9382 114.63 83.7823L114.124 83.0073ZM107.584 84.5375V83.612C105.114 83.612 103.202 83.1313 101.78 82.2463L101.291 83.032L100.802 83.8177C102.605 84.94 104.888 85.4629 107.584 85.4629V84.5375ZM101.291 83.032L101.789 82.2522C100.406 81.3679 99.6285 80.1876 99.3916 78.6692L98.4772 78.8118L97.5628 78.9544C97.8854 81.0227 98.9838 82.6559 100.792 83.8118L101.291 83.032ZM98.4772 78.8118L99.3934 78.6809C99.3322 78.2526 99.2765 77.6777 99.2279 76.9486L98.3045 77.0102L97.381 77.0717C97.4311 77.8234 97.4906 78.4496 97.561 78.9427L98.4772 78.8118ZM98.3045 77.0102L99.229 76.9691C99.1968 76.245 99.1806 75.4363 99.1806 74.5422H98.2551H97.3296C97.3296 75.458 97.3463 76.2946 97.3799 77.0513L98.3045 77.0102ZM98.2551 74.5422H99.1806C99.1806 73.6981 99.1968 72.9312 99.2289 72.2406L98.3045 72.1976L97.38 72.1546C97.3463 72.879 97.3296 73.6751 97.3296 74.5422H98.2551ZM98.3045 72.1976L99.2278 72.2606C99.2764 71.5478 99.3318 71.0014 99.3919 70.6108L98.4772 70.4701L97.5625 70.3293C97.491 70.7943 97.4312 71.3995 97.3811 72.1347L98.3045 72.1976ZM98.4772 70.4701L99.3918 70.6114C99.6286 69.0792 100.411 67.9027 101.804 67.0355L101.315 66.2498L100.826 65.4641C98.9947 66.6042 97.8852 68.2412 97.5626 70.3287L98.4772 70.4701ZM101.315 66.2498L101.804 67.0355C103.227 66.15 105.131 65.6699 107.584 65.6699V64.7444V63.8189C104.903 63.8189 102.629 64.3424 100.826 65.4641L101.315 66.2498ZM107.584 64.7444V65.6699C110.216 65.6699 112.166 66.1558 113.525 67.0286L114.025 66.2498L114.525 65.4711C112.759 64.3366 110.414 63.8189 107.584 63.8189V64.7444ZM114.025 66.2498L113.531 67.0323C114.851 67.8661 115.49 68.968 115.544 70.4059L116.469 70.3713L117.394 70.3368C117.316 68.2537 116.326 66.608 114.52 65.4673L114.025 66.2498ZM127.511 70.4701V71.3955H128.436V70.4701H127.511ZM127.511 65.1393V64.2138H126.585V65.1393H127.511ZM135.507 65.1393H136.432V64.2138H135.507V65.1393ZM135.507 84.1426V85.0681H136.432V84.1426H135.507ZM127.511 84.1426H126.585V85.0681H127.511V84.1426ZM127.511 78.022H128.436V77.0965H127.511V78.022ZM125.512 78.022V77.0965H124.586V78.022H125.512ZM125.512 84.1426V85.0681H126.437V84.1426H125.512ZM117.515 84.1426H116.59V85.0681H117.515V84.1426ZM117.515 65.1393V64.2138H116.59V65.1393H117.515ZM125.512 65.1393H126.437V64.2138H125.512V65.1393ZM125.512 70.4701H124.586V71.3955H125.512V70.4701ZM127.511 70.4701H128.436V65.1393H127.511H126.585V70.4701H127.511ZM127.511 65.1393V66.0647H135.507V65.1393V64.2138H127.511V65.1393ZM135.507 65.1393H134.581V84.1426H135.507H136.432V65.1393H135.507ZM135.507 84.1426V83.2171H127.511V84.1426V85.0681H135.507V84.1426ZM127.511 84.1426H128.436V78.022H127.511H126.585V84.1426H127.511ZM127.511 78.022V77.0965H125.512V78.022V78.9475H127.511V78.022ZM125.512 78.022H124.586V84.1426H125.512H126.437V78.022H125.512ZM125.512 84.1426V83.2171H117.515V84.1426V85.0681H125.512V84.1426ZM117.515 84.1426H118.441V65.1393H117.515H116.59V84.1426H117.515ZM117.515 65.1393V66.0647H125.512V65.1393V64.2138H117.515V65.1393ZM125.512 65.1393H124.586V70.4701H125.512H126.437V65.1393H125.512ZM125.512 70.4701V71.3955H127.511V70.4701V69.5446H125.512V70.4701Z" fill="#7255A8" mask="url(#path-8-outside-3_1063_41585)"/>
<path d="M52.7283 142.826L123.979 156.888C125.127 157.115 125.919 158.173 125.813 159.339L121.621 205.215C121.508 206.448 120.434 207.367 119.198 207.288L52.1397 202.996C50.9365 202.918 50 201.92 50 200.714V145.068C50 143.628 51.3155 142.547 52.7283 142.826Z" fill="#FD587C" stroke="white" stroke-width="1.14286"/>
<mask id="path-11-outside-4_1063_41585" maskUnits="userSpaceOnUse" x="58.1445" y="167.143" width="58" height="23" fill="black">
<rect fill="white" x="58.1445" y="167.143" width="58" height="23"/>
<path d="M77.5867 183.009C77.3234 184.737 76.4103 186.094 74.8472 187.081C73.2842 188.052 71.2358 188.537 68.702 188.537C66.1682 188.537 64.1198 188.052 62.5568 187.081C61.0102 186.111 60.097 184.77 59.8173 183.059C59.7515 182.598 59.6939 181.981 59.6446 181.208C59.6117 180.418 59.5952 179.571 59.5952 178.666C59.5952 177.794 59.6117 176.987 59.6446 176.247C59.6939 175.49 59.7515 174.898 59.8173 174.47C60.097 172.66 61.0184 171.253 62.5814 170.25C64.1445 169.246 66.1847 168.744 68.702 168.744C71.2358 168.744 73.2842 169.246 74.8472 170.25C76.4103 171.237 77.3234 172.611 77.5867 174.371C77.6525 174.799 77.7018 175.391 77.7347 176.148C77.7841 176.889 77.8088 177.703 77.8088 178.592C77.8088 179.529 77.7841 180.385 77.7347 181.158C77.7018 181.932 77.6525 182.549 77.5867 183.009ZM69.3683 181.874V175.408C69.3683 174.964 69.1462 174.742 68.702 174.742C68.2578 174.742 68.0356 174.964 68.0356 175.408V181.874C68.0356 182.318 68.2578 182.54 68.702 182.54C69.1462 182.54 69.3683 182.318 69.3683 181.874ZM78.7568 169.139H86.753V181.528C86.753 181.578 86.7777 181.701 86.8271 181.899C86.8929 182.096 87.0903 182.195 87.4194 182.195C87.7484 182.195 87.9377 182.096 87.987 181.899C88.0528 181.701 88.0857 181.578 88.0857 181.528V169.139H96.0819V181.874C96.0819 182.779 95.9339 183.634 95.6377 184.441C95.3415 185.23 94.8562 185.938 94.1816 186.563C93.507 187.172 92.5939 187.657 91.4422 188.019C90.3069 188.365 88.8919 188.537 87.1973 188.537C85.7 188.537 84.4167 188.356 83.3472 187.995C82.2778 187.633 81.4058 187.139 80.7312 186.514C80.0566 185.889 79.5548 185.181 79.2257 184.391C78.9131 183.602 78.7568 182.779 78.7568 181.923V169.139ZM114.744 169.139V176.469H109.981V188.143H101.763V176.469H96.975V169.139H114.744Z"/>
</mask>
<path d="M77.5867 183.009C77.3234 184.737 76.4103 186.094 74.8472 187.081C73.2842 188.052 71.2358 188.537 68.702 188.537C66.1682 188.537 64.1198 188.052 62.5568 187.081C61.0102 186.111 60.097 184.77 59.8173 183.059C59.7515 182.598 59.6939 181.981 59.6446 181.208C59.6117 180.418 59.5952 179.571 59.5952 178.666C59.5952 177.794 59.6117 176.987 59.6446 176.247C59.6939 175.49 59.7515 174.898 59.8173 174.47C60.097 172.66 61.0184 171.253 62.5814 170.25C64.1445 169.246 66.1847 168.744 68.702 168.744C71.2358 168.744 73.2842 169.246 74.8472 170.25C76.4103 171.237 77.3234 172.611 77.5867 174.371C77.6525 174.799 77.7018 175.391 77.7347 176.148C77.7841 176.889 77.8088 177.703 77.8088 178.592C77.8088 179.529 77.7841 180.385 77.7347 181.158C77.7018 181.932 77.6525 182.549 77.5867 183.009ZM69.3683 181.874V175.408C69.3683 174.964 69.1462 174.742 68.702 174.742C68.2578 174.742 68.0356 174.964 68.0356 175.408V181.874C68.0356 182.318 68.2578 182.54 68.702 182.54C69.1462 182.54 69.3683 182.318 69.3683 181.874ZM78.7568 169.139H86.753V181.528C86.753 181.578 86.7777 181.701 86.8271 181.899C86.8929 182.096 87.0903 182.195 87.4194 182.195C87.7484 182.195 87.9377 182.096 87.987 181.899C88.0528 181.701 88.0857 181.578 88.0857 181.528V169.139H96.0819V181.874C96.0819 182.779 95.9339 183.634 95.6377 184.441C95.3415 185.23 94.8562 185.938 94.1816 186.563C93.507 187.172 92.5939 187.657 91.4422 188.019C90.3069 188.365 88.8919 188.537 87.1973 188.537C85.7 188.537 84.4167 188.356 83.3472 187.995C82.2778 187.633 81.4058 187.139 80.7312 186.514C80.0566 185.889 79.5548 185.181 79.2257 184.391C78.9131 183.602 78.7568 182.779 78.7568 181.923V169.139ZM114.744 169.139V176.469H109.981V188.143H101.763V176.469H96.975V169.139H114.744Z" fill="#F6F0F1"/>
<path d="M77.5867 183.009L78.5016 183.149L78.5029 183.14L77.5867 183.009ZM74.8472 187.081L75.3355 187.868L75.3414 187.864L74.8472 187.081ZM62.5568 187.081L62.0648 187.865L62.0685 187.868L62.5568 187.081ZM59.8173 183.059L58.9011 183.189L58.9025 183.199L58.904 183.208L59.8173 183.059ZM59.6446 181.208L58.7199 181.246L58.7203 181.256L58.721 181.267L59.6446 181.208ZM59.6446 176.247L58.721 176.187L58.7204 176.196L58.72 176.206L59.6446 176.247ZM59.8173 174.47L58.9027 174.329L58.9026 174.329L59.8173 174.47ZM62.5814 170.25L63.0815 171.029H63.0815L62.5814 170.25ZM74.8472 170.25L74.3472 171.029L74.353 171.032L74.8472 170.25ZM77.5867 174.371L76.6714 174.508L76.6719 174.512L77.5867 174.371ZM77.7347 176.148L76.8101 176.188L76.8106 176.199L76.8113 176.21L77.7347 176.148ZM77.7347 181.158L76.8111 181.099L76.8105 181.109L76.8101 181.119L77.7347 181.158ZM77.5867 183.009L76.6717 182.87C76.4515 184.315 75.7042 185.446 74.353 186.299L74.8472 187.081L75.3414 187.864C77.1164 186.743 78.1953 185.158 78.5016 183.149L77.5867 183.009ZM74.8472 187.081L74.359 186.295C72.9879 187.147 71.1258 187.612 68.702 187.612V188.537V189.463C71.3457 189.463 73.5805 188.958 75.3355 187.868L74.8472 187.081ZM68.702 188.537V187.612C66.2782 187.612 64.4161 187.147 63.045 186.295L62.5568 187.081L62.0685 187.868C63.8235 188.958 66.0583 189.463 68.702 189.463V188.537ZM62.5568 187.081L63.0488 186.297C61.7136 185.459 60.965 184.343 60.7307 182.909L59.8173 183.059L58.904 183.208C59.229 185.197 60.3067 186.762 62.0648 187.865L62.5568 187.081ZM59.8173 183.059L60.7335 182.928C60.6726 182.501 60.6169 181.911 60.5682 181.149L59.6446 181.208L58.721 181.267C58.771 182.05 58.8304 182.694 58.9011 183.189L59.8173 183.059ZM59.6446 181.208L60.5693 181.169C60.5369 180.394 60.5207 179.559 60.5207 178.666H59.5952H58.6697C58.6697 179.582 58.6864 180.442 58.7199 181.246L59.6446 181.208ZM59.5952 178.666H60.5207C60.5207 177.805 60.5369 177.013 60.5691 176.288L59.6446 176.247L58.72 176.206C58.6864 176.962 58.6697 177.782 58.6697 178.666H59.5952ZM59.6446 176.247L60.5681 176.307C60.6168 175.561 60.6723 174.999 60.732 174.611L59.8173 174.47L58.9026 174.329C58.8307 174.796 58.7711 175.42 58.721 176.187L59.6446 176.247ZM59.8173 174.47L60.732 174.611C60.9705 173.068 61.7379 171.891 63.0815 171.029L62.5814 170.25L62.0814 169.471C60.2989 170.616 59.2236 172.253 58.9027 174.329L59.8173 174.47ZM62.5814 170.25L63.0815 171.029C64.4511 170.149 66.3008 169.67 68.702 169.67V168.744V167.819C66.0685 167.819 63.8379 168.343 62.0814 169.471L62.5814 170.25ZM68.702 168.744V169.67C71.121 169.67 72.9784 170.15 74.3472 171.029L74.8472 170.25L75.3473 169.471C73.59 168.343 71.3506 167.819 68.702 167.819V168.744ZM74.8472 170.25L74.353 171.032C75.6985 171.882 76.4496 173.025 76.6714 174.508L77.5867 174.371L78.502 174.234C78.1972 172.196 77.122 170.592 75.3414 169.467L74.8472 170.25ZM77.5867 174.371L76.6719 174.512C76.7302 174.891 76.7778 175.444 76.8101 176.188L77.7347 176.148L78.6594 176.108C78.6259 175.338 78.5747 174.707 78.5014 174.231L77.5867 174.371ZM77.7347 176.148L76.8113 176.21C76.8591 176.926 76.8833 177.72 76.8833 178.592H77.8088H78.7343C78.7343 177.686 78.7091 176.851 78.6582 176.087L77.7347 176.148ZM77.8088 178.592H76.8833C76.8833 179.514 76.859 180.349 76.8111 181.099L77.7347 181.158L78.6584 181.217C78.7092 180.421 78.7343 179.545 78.7343 178.592H77.8088ZM77.7347 181.158L76.8101 181.119C76.7778 181.879 76.7301 182.461 76.6705 182.878L77.5867 183.009L78.5029 183.14C78.5749 182.636 78.6259 181.984 78.6594 181.198L77.7347 181.158ZM69.3683 181.874H70.2938V175.408H69.3683H68.4429V181.874H69.3683ZM69.3683 175.408H70.2938C70.2938 175.043 70.202 174.6 69.8562 174.254C69.5103 173.908 69.0668 173.816 68.702 173.816V174.742V175.667C68.7815 175.667 68.6711 175.686 68.5473 175.563C68.4236 175.439 68.4429 175.328 68.4429 175.408H69.3683ZM68.702 174.742V173.816C68.3372 173.816 67.8937 173.908 67.5478 174.254C67.202 174.6 67.1102 175.043 67.1102 175.408H68.0356H68.9611C68.9611 175.328 68.9804 175.439 68.8567 175.563C68.7329 175.686 68.6225 175.667 68.702 175.667V174.742ZM68.0356 175.408H67.1102V181.874H68.0356H68.9611V175.408H68.0356ZM68.0356 181.874H67.1102C67.1102 182.239 67.202 182.682 67.5478 183.028C67.8937 183.374 68.3372 183.466 68.702 183.466V182.54V181.615C68.6225 181.615 68.7329 181.596 68.8567 181.719C68.9804 181.843 68.9611 181.953 68.9611 181.874H68.0356ZM68.702 182.54V183.466C69.0668 183.466 69.5103 183.374 69.8562 183.028C70.202 182.682 70.2938 182.239 70.2938 181.874H69.3683H68.4429C68.4429 181.953 68.4236 181.843 68.5473 181.719C68.6711 181.596 68.7815 181.615 68.702 181.615V182.54ZM78.7568 169.139V168.214H77.8313V169.139H78.7568ZM86.753 169.139H87.6785V168.214H86.753V169.139ZM86.8271 181.899L85.9292 182.123L85.9378 182.158L85.9491 182.191L86.8271 181.899ZM87.987 181.899L87.109 181.606L87.0978 181.64L87.0892 181.674L87.987 181.899ZM88.0857 169.139V168.214H87.1602V169.139H88.0857ZM96.0819 169.139H97.0074V168.214H96.0819V169.139ZM95.6377 184.441L96.5043 184.766L96.5064 184.76L95.6377 184.441ZM94.1816 186.563L94.8017 187.25L94.8107 187.242L94.1816 186.563ZM91.4422 188.019L91.7116 188.905L91.7197 188.902L91.4422 188.019ZM80.7312 186.514L80.1021 187.193V187.193L80.7312 186.514ZM79.2257 184.391L78.3652 184.732L78.3683 184.74L78.3714 184.747L79.2257 184.391ZM78.7568 169.139V170.065H86.753V169.139V168.214H78.7568V169.139ZM86.753 169.139H85.8275V181.528H86.753H87.6785V169.139H86.753ZM86.753 181.528H85.8275C85.8275 181.656 85.8525 181.782 85.864 181.84C85.8804 181.922 85.9029 182.018 85.9292 182.123L86.8271 181.899L87.7249 181.674C87.7019 181.582 87.6873 181.518 87.6791 181.476C87.6749 181.456 87.6737 181.448 87.6738 181.448C87.674 181.449 87.6749 181.456 87.6759 181.467C87.6768 181.476 87.6785 181.498 87.6785 181.528H86.753ZM86.8271 181.899L85.9491 182.191C86.2093 182.972 86.9629 183.12 87.4194 183.12V182.195V181.269C87.3338 181.269 87.3611 181.254 87.4384 181.293C87.4823 181.315 87.5391 181.353 87.5928 181.413C87.6474 181.475 87.6839 181.543 87.7051 181.606L86.8271 181.899ZM87.4194 182.195V183.12C87.6596 183.12 87.9569 183.087 88.2362 182.941C88.5524 182.776 88.7926 182.492 88.8849 182.123L87.987 181.899L87.0892 181.674C87.107 181.603 87.1429 181.522 87.203 181.448C87.2624 181.374 87.3281 181.327 87.38 181.3C87.4701 181.253 87.5082 181.269 87.4194 181.269V182.195ZM87.987 181.899L88.865 182.191C88.9007 182.084 88.9319 181.984 88.9553 181.896C88.9698 181.842 89.0112 181.69 89.0112 181.528H88.0857H87.1602C87.1602 181.486 87.1635 181.455 87.1654 181.439C87.1675 181.422 87.1696 181.41 87.1704 181.406C87.1719 181.398 87.1716 181.402 87.1668 181.42C87.1573 181.455 87.1392 181.516 87.109 181.606L87.987 181.899ZM88.0857 181.528H89.0112V169.139H88.0857H87.1602V181.528H88.0857ZM88.0857 169.139V170.065H96.0819V169.139V168.214H88.0857V169.139ZM96.0819 169.139H95.1565V181.874H96.0819H97.0074V169.139H96.0819ZM96.0819 181.874H95.1565C95.1565 182.676 95.0256 183.423 94.769 184.122L95.6377 184.441L96.5064 184.76C96.8421 183.846 97.0074 182.882 97.0074 181.874H96.0819ZM95.6377 184.441L94.7711 184.116C94.53 184.759 94.1312 185.348 93.5525 185.884L94.1816 186.563L94.8107 187.242C95.5812 186.528 96.1531 185.702 96.5043 184.766L95.6377 184.441ZM94.1816 186.563L93.5616 185.876C93.0126 186.371 92.2292 186.802 91.1647 187.136L91.4422 188.019L91.7197 188.902C92.9586 188.513 94.0015 187.972 94.8016 187.25L94.1816 186.563ZM91.4422 188.019L91.1727 187.134C90.1533 187.444 88.8362 187.612 87.1973 187.612V188.537V189.463C88.9476 189.463 90.4605 189.285 91.7116 188.905L91.4422 188.019ZM87.1973 188.537V187.612C85.7701 187.612 84.5924 187.439 83.6439 187.118L83.3472 187.995L83.0505 188.871C84.241 189.274 85.63 189.463 87.1973 189.463V188.537ZM83.3472 187.995L83.6439 187.118C82.6706 186.788 81.9201 186.354 81.3603 185.835L80.7312 186.514L80.1021 187.193C80.8915 187.924 81.885 188.477 83.0505 188.871L83.3472 187.995ZM80.7312 186.514L81.3603 185.835C80.7757 185.293 80.3543 184.694 80.08 184.035L79.2257 184.391L78.3714 184.747C78.7553 185.668 79.3376 186.484 80.1021 187.193L80.7312 186.514ZM79.2257 184.391L80.0863 184.051C79.8169 183.37 79.6823 182.663 79.6823 181.923H78.7568H77.8313C77.8313 182.895 78.0094 183.833 78.3652 184.732L79.2257 184.391ZM78.7568 181.923H79.6823V169.139H78.7568H77.8313V181.923H78.7568ZM114.744 169.139H115.67V168.214H114.744V169.139ZM114.744 176.469V177.395H115.67V176.469H114.744ZM109.981 176.469V175.544H109.056V176.469H109.981ZM109.981 188.143V189.068H110.907V188.143H109.981ZM101.763 188.143H100.837V189.068H101.763V188.143ZM101.763 176.469H102.688V175.544H101.763V176.469ZM96.975 176.469H96.0495V177.395H96.975V176.469ZM96.975 169.139V168.214H96.0495V169.139H96.975ZM114.744 169.139H113.819V176.469H114.744H115.67V169.139H114.744ZM114.744 176.469V175.544H109.981V176.469V177.395H114.744V176.469ZM109.981 176.469H109.056V188.143H109.981H110.907V176.469H109.981ZM109.981 188.143V187.217H101.763V188.143V189.068H109.981V188.143ZM101.763 188.143H102.688V176.469H101.763H100.837V188.143H101.763ZM101.763 176.469V175.544H96.975V176.469V177.395H101.763V176.469ZM96.975 176.469H97.9005V169.139H96.975H96.0495V176.469H96.975ZM96.975 169.139V170.065H114.744V169.139V168.214H96.975V169.139Z" fill="#FE547C" mask="url(#path-11-outside-4_1063_41585)"/>
</g>
<defs>
<clipPath id="clip0_1063_41585">
<rect width="175.714" height="220" rx="5.71429" fill="white"/>
</clipPath>
</defs>
</svg>
