<svg width="270" height="230" viewBox="0 0 270 230" fill="none" xmlns="http://www.w3.org/2000/svg">
<g id="Section 2">
<path d="M-21801 -625.729C-21801 -626.834 -21800.1 -627.729 -21799 -627.729H2453C2454.11 -627.729 2455 -626.834 2455 -625.729V371.271C2455 372.375 2454.11 373.271 2453 373.271H-21799C-21800.1 373.271 -21801 372.375 -21801 371.271V-625.729Z" fill="#444444"/>
<path d="M-21799 -627.729V-626.729H2453V-627.729V-628.729H-21799V-627.729ZM2455 -625.729H2454V371.271H2455H2456V-625.729H2455ZM2453 373.271V372.271H-21799V373.271V374.271H2453V373.271ZM-21801 371.271H-21800V-625.729H-21801H-21802V371.271H-21801ZM-21799 373.271V372.271C-21799.6 372.271 -21800 371.823 -21800 371.271H-21801H-21802C-21802 372.927 -21800.7 374.271 -21799 374.271V373.271ZM2455 371.271H2454C2454 371.823 2453.55 372.271 2453 372.271V373.271V374.271C2454.66 374.271 2456 372.927 2456 371.271H2455ZM2453 -627.729V-626.729C2453.55 -626.729 2454 -626.282 2454 -625.729H2455H2456C2456 -627.386 2454.66 -628.729 2453 -628.729V-627.729ZM-21799 -627.729V-628.729C-21800.7 -628.729 -21802 -627.386 -21802 -625.729H-21801H-21800C-21800 -626.282 -21799.6 -626.729 -21799 -626.729V-627.729Z" fill="white" fill-opacity="0.1"/>
<g id="Frame 29">
<rect x="-173" y="-497.729" width="615" height="770" rx="20" fill="#36A6BB"/>
<g id="Group 10">
<g id="Group 9">
<path id="Vector 3" d="M11.5491 2.15519L260.926 51.3743C264.946 52.1678 267.717 55.8704 267.344 59.9509L252.672 220.518C252.277 224.833 248.519 228.05 244.194 227.773L9.48898 212.75C5.27774 212.48 2 208.986 2 204.766V10.0038C2 4.96367 6.60434 1.17926 11.5491 2.15519Z" fill="#FD587C" stroke="white" stroke-width="4"/>
</g>
</g>
</g>
</g>
</svg>
