<svg width="385" height="231" viewBox="0 0 385 231" fill="none" xmlns="http://www.w3.org/2000/svg">
<g id="Section 2">
<path d="M-21744 -264.175C-21744 -265.279 -21743.1 -266.175 -21742 -266.175H2510.04C2511.14 -266.175 2512.04 -265.279 2512.04 -264.175V732.825C2512.04 733.93 2511.14 734.825 2510.04 734.825H-21742C-21743.1 734.825 -21744 733.93 -21744 732.825V-264.175Z" fill="#444444"/>
<path d="M-21742 -266.175V-265.175H2510.04V-266.175V-267.175H-21742V-266.175ZM2512.04 -264.175H2511.04V732.825H2512.04H2513.04V-264.175H2512.04ZM2510.04 734.825V733.825H-21742V734.825V735.825H2510.04V734.825ZM-21744 732.825H-21743V-264.175H-21744H-21745V732.825H-21744ZM-21742 734.825V733.825C-21742.5 733.825 -21743 733.378 -21743 732.825H-21744H-21745C-21745 734.482 -21743.6 735.825 -21742 735.825V734.825ZM2512.04 732.825H2511.04C2511.04 733.378 2510.59 733.825 2510.04 733.825V734.825V735.825C2511.69 735.825 2513.04 734.482 2513.04 732.825H2512.04ZM2510.04 -266.175V-265.175C2510.59 -265.175 2511.04 -264.727 2511.04 -264.175H2512.04H2513.04C2513.04 -265.831 2511.69 -267.175 2510.04 -267.175V-266.175ZM-21742 -266.175V-267.175C-21743.6 -267.175 -21745 -265.832 -21745 -264.175H-21744H-21743C-21743 -264.727 -21742.5 -265.175 -21742 -265.175V-266.175Z" fill="white" fill-opacity="0.1"/>
<g id="Frame 29">
<rect x="-115.965" y="-136.175" width="615" height="770" rx="20" fill="#36A6BB"/>
<g id="Group 10">
<g id="Group 8">
<path id="Vector 3" d="M373.445 2.0762L8.90956 52.2416C4.55246 52.8412 1.49651 56.8456 2.06802 61.2064L23.0811 221.545C23.6207 225.663 27.2213 228.683 31.37 228.498L374.892 213.166C379.167 212.976 382.535 209.454 382.535 205.174V10.0015C382.535 5.14967 378.251 1.41475 373.445 2.0762Z" fill="#7159A1" stroke="white" stroke-width="4"/>
</g>
</g>
</g>
</g>
</svg>
