<svg width="615" height="770" viewBox="0 0 615 770" fill="none" xmlns="http://www.w3.org/2000/svg" xmlns:xlink="http://www.w3.org/1999/xlink">
<g clip-path="url(#clip0_1005_384)">
<rect width="615" height="770" rx="20" fill="#36A6BB"/>
<rect x="-21" y="-41" width="636" height="921"/>
<mask id="path-3-outside-1_1005_384" maskUnits="userSpaceOnUse" x="215" y="62" width="182" height="71" fill="black">
<rect fill="white" x="215" y="62" width="182" height="71"/>
<path d="M250.054 93.04L252.454 66.4H279.174L263.014 112.48V128H236.374V112.48L220.134 66.4H246.854L249.334 93.04H250.054ZM334.018 111.36C333.164 116.96 330.204 121.36 325.138 124.56C320.071 127.707 313.431 129.28 305.218 129.28C297.004 129.28 290.364 127.707 285.298 124.56C280.284 121.413 277.324 117.067 276.418 111.52C276.204 110.027 276.018 108.027 275.858 105.52C275.751 102.96 275.698 100.213 275.698 97.28C275.698 94.4533 275.751 91.84 275.858 89.44C276.018 86.9867 276.204 85.0667 276.418 83.68C277.324 77.8133 280.311 73.2533 285.378 70C290.444 66.7467 297.058 65.12 305.218 65.12C313.431 65.12 320.071 66.7467 325.138 70C330.204 73.2 333.164 77.6533 334.018 83.36C334.231 84.7467 334.391 86.6667 334.498 89.12C334.658 91.52 334.738 94.16 334.738 97.04C334.738 100.08 334.658 102.853 334.498 105.36C334.391 107.867 334.231 109.867 334.018 111.36ZM307.378 107.68V86.72C307.378 85.28 306.658 84.56 305.218 84.56C303.778 84.56 303.058 85.28 303.058 86.72V107.68C303.058 109.12 303.778 109.84 305.218 109.84C306.658 109.84 307.378 109.12 307.378 107.68ZM337.811 66.4H363.731V106.56C363.731 106.72 363.811 107.12 363.971 107.76C364.184 108.4 364.824 108.72 365.891 108.72C366.958 108.72 367.571 108.4 367.731 107.76C367.944 107.12 368.051 106.72 368.051 106.56V66.4H393.971V107.68C393.971 110.613 393.491 113.387 392.531 116C391.571 118.56 389.998 120.853 387.811 122.88C385.624 124.853 382.664 126.427 378.931 127.6C375.251 128.72 370.664 129.28 365.171 129.28C360.318 129.28 356.158 128.693 352.691 127.52C349.224 126.347 346.398 124.747 344.211 122.72C342.024 120.693 340.398 118.4 339.331 115.84C338.318 113.28 337.811 110.613 337.811 107.84V66.4Z"/>
</mask>
<path d="M250.054 93.04L252.454 66.4H279.174L263.014 112.48V128H236.374V112.48L220.134 66.4H246.854L249.334 93.04H250.054ZM334.018 111.36C333.164 116.96 330.204 121.36 325.138 124.56C320.071 127.707 313.431 129.28 305.218 129.28C297.004 129.28 290.364 127.707 285.298 124.56C280.284 121.413 277.324 117.067 276.418 111.52C276.204 110.027 276.018 108.027 275.858 105.52C275.751 102.96 275.698 100.213 275.698 97.28C275.698 94.4533 275.751 91.84 275.858 89.44C276.018 86.9867 276.204 85.0667 276.418 83.68C277.324 77.8133 280.311 73.2533 285.378 70C290.444 66.7467 297.058 65.12 305.218 65.12C313.431 65.12 320.071 66.7467 325.138 70C330.204 73.2 333.164 77.6533 334.018 83.36C334.231 84.7467 334.391 86.6667 334.498 89.12C334.658 91.52 334.738 94.16 334.738 97.04C334.738 100.08 334.658 102.853 334.498 105.36C334.391 107.867 334.231 109.867 334.018 111.36ZM307.378 107.68V86.72C307.378 85.28 306.658 84.56 305.218 84.56C303.778 84.56 303.058 85.28 303.058 86.72V107.68C303.058 109.12 303.778 109.84 305.218 109.84C306.658 109.84 307.378 109.12 307.378 107.68ZM337.811 66.4H363.731V106.56C363.731 106.72 363.811 107.12 363.971 107.76C364.184 108.4 364.824 108.72 365.891 108.72C366.958 108.72 367.571 108.4 367.731 107.76C367.944 107.12 368.051 106.72 368.051 106.56V66.4H393.971V107.68C393.971 110.613 393.491 113.387 392.531 116C391.571 118.56 389.998 120.853 387.811 122.88C385.624 124.853 382.664 126.427 378.931 127.6C375.251 128.72 370.664 129.28 365.171 129.28C360.318 129.28 356.158 128.693 352.691 127.52C349.224 126.347 346.398 124.747 344.211 122.72C342.024 120.693 340.398 118.4 339.331 115.84C338.318 113.28 337.811 110.613 337.811 107.84V66.4Z" fill="#755AA7"/>
<path d="M250.054 93.04V96.04H252.796L253.042 93.3092L250.054 93.04ZM252.454 66.4V63.4H249.712L249.466 66.1308L252.454 66.4ZM279.174 66.4L282.005 67.3928L283.405 63.4H279.174V66.4ZM263.014 112.48L260.183 111.487L260.014 111.969V112.48H263.014ZM263.014 128V131H266.014V128H263.014ZM236.374 128H233.374V131H236.374V128ZM236.374 112.48H239.374V111.967L239.203 111.483L236.374 112.48ZM220.134 66.4V63.4H215.896L217.305 67.3972L220.134 66.4ZM246.854 66.4L249.841 66.1219L249.588 63.4H246.854V66.4ZM249.334 93.04L246.347 93.3181L246.6 96.04H249.334V93.04ZM250.054 93.04L253.042 93.3092L255.442 66.6692L252.454 66.4L249.466 66.1308L247.066 92.7708L250.054 93.04ZM252.454 66.4V69.4H279.174V66.4V63.4H252.454V66.4ZM279.174 66.4L276.343 65.4072L260.183 111.487L263.014 112.48L265.845 113.473L282.005 67.3928L279.174 66.4ZM263.014 112.48H260.014V128H263.014H266.014V112.48H263.014ZM263.014 128V125H236.374V128V131H263.014V128ZM236.374 128H239.374V112.48H236.374H233.374V128H236.374ZM236.374 112.48L239.203 111.483L222.963 65.4028L220.134 66.4L217.305 67.3972L233.545 113.477L236.374 112.48ZM220.134 66.4V69.4H246.854V66.4V63.4H220.134V66.4ZM246.854 66.4L243.867 66.6781L246.347 93.3181L249.334 93.04L252.321 92.7619L249.841 66.1219L246.854 66.4ZM249.334 93.04V96.04H250.054V93.04V90.04H249.334V93.04ZM334.018 111.36L336.984 111.812L336.986 111.798L336.988 111.784L334.018 111.36ZM325.138 124.56L326.721 127.109L326.73 127.103L326.74 127.096L325.138 124.56ZM285.298 124.56L283.703 127.101L283.709 127.105L283.715 127.109L285.298 124.56ZM276.418 111.52L273.448 111.944L273.452 111.974L273.457 112.004L276.418 111.52ZM275.858 105.52L272.86 105.645L272.862 105.678L272.864 105.711L275.858 105.52ZM275.858 89.44L272.864 89.2448L272.862 89.2758L272.861 89.3068L275.858 89.44ZM276.418 83.68L273.453 83.2218L273.453 83.2238L276.418 83.68ZM285.378 70L286.999 72.5244V72.5244L285.378 70ZM325.138 70L323.517 72.5244L323.526 72.5305L323.536 72.5365L325.138 70ZM334.018 83.36L331.051 83.8037L331.053 83.8162L334.018 83.36ZM334.498 89.12L331.501 89.2503L331.502 89.285L331.504 89.3196L334.498 89.12ZM334.498 105.36L331.504 105.169L331.502 105.201L331.501 105.232L334.498 105.36ZM334.018 111.36L331.052 110.908C330.338 115.593 327.916 119.257 323.536 122.024L325.138 124.56L326.74 127.096C332.493 123.463 335.991 118.327 336.984 111.812L334.018 111.36ZM325.138 124.56L323.555 122.011C319.111 124.772 313.075 126.28 305.218 126.28V129.28V132.28C313.788 132.28 321.032 130.642 326.721 127.109L325.138 124.56ZM305.218 129.28V126.28C297.361 126.28 291.325 124.772 286.881 122.011L285.298 124.56L283.715 127.109C289.404 130.642 296.648 132.28 305.218 132.28V129.28ZM285.298 124.56L286.893 122.019C282.565 119.303 280.138 115.683 279.379 111.036L276.418 111.52L273.457 112.004C274.511 118.451 278.004 123.524 283.703 127.101L285.298 124.56ZM276.418 111.52L279.388 111.096C279.19 109.714 279.01 107.801 278.852 105.329L275.858 105.52L272.864 105.711C273.026 108.252 273.219 110.34 273.448 111.944L276.418 111.52ZM275.858 105.52L278.855 105.395C278.751 102.882 278.698 100.178 278.698 97.28H275.698H272.698C272.698 100.249 272.752 103.038 272.86 105.645L275.858 105.52ZM275.698 97.28H278.698C278.698 94.4902 278.75 91.9219 278.855 89.5732L275.858 89.44L272.861 89.3068C272.752 91.7581 272.698 94.4164 272.698 97.28H275.698ZM275.858 89.44L278.851 89.6352C279.009 87.2149 279.189 85.3954 279.383 84.1362L276.418 83.68L273.453 83.2238C273.22 84.7379 273.026 86.7584 272.864 89.2448L275.858 89.44ZM276.418 83.68L279.383 84.1382C280.156 79.1348 282.643 75.3209 286.999 72.5244L285.378 70L283.757 67.4756C277.979 71.1857 274.493 76.4919 273.453 83.2218L276.418 83.68ZM285.378 70L286.999 72.5244C291.438 69.6737 297.434 68.12 305.218 68.12V65.12V62.12C296.681 62.12 289.451 63.8197 283.757 67.4756L285.378 70ZM305.218 65.12V68.12C313.059 68.12 319.08 69.6754 323.517 72.5244L325.138 70L326.759 67.4756C321.062 63.8179 313.803 62.12 305.218 62.12V65.12ZM325.138 70L323.536 72.5365C327.897 75.2911 330.332 78.9972 331.051 83.8037L334.018 83.36L336.985 82.9163C335.997 76.3094 332.512 71.1089 326.74 67.4635L325.138 70ZM334.018 83.36L331.053 83.8162C331.242 85.0439 331.396 86.8383 331.501 89.2503L334.498 89.12L337.495 88.9897C337.387 86.495 337.221 84.4494 336.983 82.9038L334.018 83.36ZM334.498 89.12L331.504 89.3196C331.659 91.6417 331.738 94.2141 331.738 97.04H334.738H337.738C337.738 94.1059 337.656 91.3983 337.491 88.9204L334.498 89.12ZM334.738 97.04H331.738C331.738 100.029 331.659 102.737 331.504 105.169L334.498 105.36L337.492 105.551C337.657 102.969 337.738 100.131 337.738 97.04H334.738ZM334.498 105.36L331.501 105.232C331.396 107.696 331.241 109.584 331.048 110.936L334.018 111.36L336.988 111.784C337.221 110.15 337.387 108.038 337.495 105.488L334.498 105.36ZM307.378 107.68H310.378V86.72H307.378H304.378V107.68H307.378ZM307.378 86.72H310.378C310.378 85.5376 310.08 84.0997 308.959 82.9787C307.838 81.8576 306.4 81.56 305.218 81.56V84.56V87.56C305.475 87.56 305.118 87.6224 304.716 87.2213C304.315 86.8203 304.378 86.4624 304.378 86.72H307.378ZM305.218 84.56V81.56C304.035 81.56 302.598 81.8576 301.476 82.9787C300.355 84.0997 300.058 85.5376 300.058 86.72H303.058H306.058C306.058 86.4624 306.12 86.8203 305.719 87.2213C305.318 87.6224 304.96 87.56 305.218 87.56V84.56ZM303.058 86.72H300.058V107.68H303.058H306.058V86.72H303.058ZM303.058 107.68H300.058C300.058 108.862 300.355 110.3 301.476 111.421C302.598 112.542 304.035 112.84 305.218 112.84V109.84V106.84C304.96 106.84 305.318 106.778 305.719 107.179C306.12 107.58 306.058 107.938 306.058 107.68H303.058ZM305.218 109.84V112.84C306.4 112.84 307.838 112.542 308.959 111.421C310.08 110.3 310.378 108.862 310.378 107.68H307.378H304.378C304.378 107.938 304.315 107.58 304.716 107.179C305.118 106.778 305.475 106.84 305.218 106.84V109.84ZM337.811 66.4V63.4H334.811V66.4H337.811ZM363.731 66.4H366.731V63.4H363.731V66.4ZM363.971 107.76L361.061 108.488L361.088 108.599L361.125 108.709L363.971 107.76ZM367.731 107.76L364.885 106.811L364.848 106.921L364.821 107.032L367.731 107.76ZM368.051 66.4V63.4H365.051V66.4H368.051ZM393.971 66.4H396.971V63.4H393.971V66.4ZM392.531 116L395.34 117.053L395.343 117.044L395.347 117.034L392.531 116ZM387.811 122.88L389.821 125.107L389.836 125.094L389.85 125.08L387.811 122.88ZM378.931 127.6L379.804 130.47L379.817 130.466L379.83 130.462L378.931 127.6ZM344.211 122.72L342.172 124.92V124.92L344.211 122.72ZM339.331 115.84L336.542 116.944L336.551 116.969L336.562 116.994L339.331 115.84ZM337.811 66.4V69.4H363.731V66.4V63.4H337.811V66.4ZM363.731 66.4H360.731V106.56H363.731H366.731V66.4H363.731ZM363.731 106.56H360.731C360.731 106.973 360.812 107.382 360.849 107.568C360.902 107.834 360.975 108.146 361.061 108.488L363.971 107.76L366.881 107.032C366.807 106.734 366.759 106.526 366.733 106.392C366.719 106.325 366.715 106.298 366.716 106.301C366.716 106.303 366.719 106.324 366.722 106.36C366.725 106.391 366.731 106.463 366.731 106.56H363.731ZM363.971 107.76L361.125 108.709C361.968 111.239 364.411 111.72 365.891 111.72V108.72V105.72C365.614 105.72 365.702 105.671 365.953 105.797C366.095 105.868 366.279 105.991 366.453 106.187C366.63 106.386 366.748 106.606 366.817 106.811L363.971 107.76ZM365.891 108.72V111.72C366.67 111.72 367.633 111.612 368.539 111.14C369.564 110.605 370.342 109.685 370.641 108.488L367.731 107.76L364.821 107.032C364.878 106.801 364.995 106.54 365.19 106.298C365.382 106.059 365.595 105.908 365.763 105.82C366.055 105.668 366.179 105.72 365.891 105.72V108.72ZM367.731 107.76L370.577 108.709C370.693 108.362 370.794 108.037 370.87 107.753C370.917 107.576 371.051 107.083 371.051 106.56H368.051H365.051C365.051 106.423 365.062 106.321 365.068 106.27C365.074 106.215 365.081 106.177 365.084 106.164C365.089 106.139 365.088 106.149 365.072 106.207C365.041 106.323 364.983 106.518 364.885 106.811L367.731 107.76ZM368.051 106.56H371.051V66.4H368.051H365.051V106.56H368.051ZM368.051 66.4V69.4H393.971V66.4V63.4H368.051V66.4ZM393.971 66.4H390.971V107.68H393.971H396.971V66.4H393.971ZM393.971 107.68H390.971C390.971 110.279 390.547 112.701 389.715 114.966L392.531 116L395.347 117.034C396.435 114.072 396.971 110.947 396.971 107.68H393.971ZM392.531 116L389.722 114.947C388.94 117.031 387.648 118.941 385.772 120.68L387.811 122.88L389.85 125.08C392.348 122.766 394.202 120.089 395.34 117.053L392.531 116ZM387.811 122.88L385.801 120.653C384.022 122.259 381.482 123.654 378.031 124.738L378.931 127.6L379.83 130.462C383.847 129.2 387.227 127.448 389.821 125.107L387.811 122.88ZM378.931 127.6L378.057 124.73C374.753 125.736 370.484 126.28 365.171 126.28V129.28V132.28C370.845 132.28 375.749 131.704 379.804 130.47L378.931 127.6ZM365.171 129.28V126.28C360.545 126.28 356.727 125.719 353.653 124.678L352.691 127.52L351.729 130.362C355.588 131.668 360.091 132.28 365.171 132.28V129.28ZM352.691 127.52L353.653 124.678C350.498 123.61 348.065 122.201 346.25 120.52L344.211 122.72L342.172 124.92C344.73 127.292 347.951 129.083 351.729 130.362L352.691 127.52ZM344.211 122.72L346.25 120.52C344.355 118.763 342.989 116.82 342.1 114.686L339.331 115.84L336.562 116.994C337.806 119.98 339.693 122.623 342.172 124.92L344.211 122.72ZM339.331 115.84L342.12 114.736C341.247 112.53 340.811 110.238 340.811 107.84H337.811H334.811C334.811 110.989 335.388 114.03 336.542 116.944L339.331 115.84ZM337.811 107.84H340.811V66.4H337.811H334.811V107.84H337.811Z" fill="white" mask="url(#path-3-outside-1_1005_384)"/>
<mask id="path-5-outside-2_1005_384" maskUnits="userSpaceOnUse" x="148" y="391" width="318" height="72" fill="black">
<rect fill="white" x="148" y="391" width="318" height="72"/>
<path d="M182.663 423.04L185.063 396.4H211.783L195.623 442.48V458H168.983V442.48L152.743 396.4H179.463L181.943 423.04H182.663ZM266.627 441.36C265.774 446.96 262.814 451.36 257.747 454.56C252.681 457.707 246.041 459.28 237.827 459.28C229.614 459.28 222.974 457.707 217.907 454.56C212.894 451.413 209.934 447.067 209.027 441.52C208.814 440.027 208.627 438.027 208.467 435.52C208.361 432.96 208.307 430.213 208.307 427.28C208.307 424.453 208.361 421.84 208.467 419.44C208.627 416.987 208.814 415.067 209.027 413.68C209.934 407.813 212.921 403.253 217.987 400C223.054 396.747 229.667 395.12 237.827 395.12C246.041 395.12 252.681 396.747 257.747 400C262.814 403.2 265.774 407.653 266.627 413.36C266.841 414.747 267.001 416.667 267.107 419.12C267.267 421.52 267.347 424.16 267.347 427.04C267.347 430.08 267.267 432.853 267.107 435.36C267.001 437.867 266.841 439.867 266.627 441.36ZM239.987 437.68V416.72C239.987 415.28 239.267 414.56 237.827 414.56C236.387 414.56 235.667 415.28 235.667 416.72V437.68C235.667 439.12 236.387 439.84 237.827 439.84C239.267 439.84 239.987 439.12 239.987 437.68ZM270.42 396.4H296.34V436.56C296.34 436.72 296.42 437.12 296.58 437.76C296.794 438.4 297.434 438.72 298.5 438.72C299.567 438.72 300.18 438.4 300.34 437.76C300.554 437.12 300.66 436.72 300.66 436.56V396.4H326.58V437.68C326.58 440.613 326.1 443.387 325.14 446C324.18 448.56 322.607 450.853 320.42 452.88C318.234 454.853 315.274 456.427 311.54 457.6C307.86 458.72 303.274 459.28 297.78 459.28C292.927 459.28 288.767 458.693 285.3 457.52C281.834 456.347 279.007 454.747 276.82 452.72C274.634 450.693 273.007 448.4 271.94 445.84C270.927 443.28 270.42 440.613 270.42 437.84V396.4ZM329.064 416.16V416C329.864 413.333 330.371 410.187 330.584 406.56C330.797 402.88 330.744 399.067 330.424 395.12L330.504 395.04L349.944 394.32V394.48C349.944 398 349.597 401.253 348.904 404.24C348.211 407.173 347.331 409.76 346.264 412C345.197 414.24 344.077 416 342.904 417.28L329.064 416.16ZM378.128 458H352.928V396.4H389.568C392.981 396.4 396.101 397.013 398.928 398.24C401.808 399.467 404.101 401.44 405.808 404.16C407.514 406.88 408.368 410.507 408.368 415.04C408.368 416.32 408.261 417.707 408.048 419.2C407.888 420.693 407.488 422.187 406.848 423.68C406.208 425.12 405.221 426.427 403.888 427.6C402.608 428.72 400.848 429.6 398.608 430.24L411.248 458H383.168L378.848 441.52H378.128V458ZM383.648 416.08H375.968V420.4H383.888C384.314 420.4 384.768 420.267 385.248 420C385.781 419.733 386.048 419.173 386.048 418.32C386.048 417.413 385.754 416.827 385.168 416.56C384.581 416.24 384.074 416.08 383.648 416.08ZM438.362 433.84V437.12H462.842V458H413.162V396.4H461.402V414.4H438.362V417.68H459.242V433.84H438.362Z"/>
</mask>
<path d="M182.663 423.04L185.063 396.4H211.783L195.623 442.48V458H168.983V442.48L152.743 396.4H179.463L181.943 423.04H182.663ZM266.627 441.36C265.774 446.96 262.814 451.36 257.747 454.56C252.681 457.707 246.041 459.28 237.827 459.28C229.614 459.28 222.974 457.707 217.907 454.56C212.894 451.413 209.934 447.067 209.027 441.52C208.814 440.027 208.627 438.027 208.467 435.52C208.361 432.96 208.307 430.213 208.307 427.28C208.307 424.453 208.361 421.84 208.467 419.44C208.627 416.987 208.814 415.067 209.027 413.68C209.934 407.813 212.921 403.253 217.987 400C223.054 396.747 229.667 395.12 237.827 395.12C246.041 395.12 252.681 396.747 257.747 400C262.814 403.2 265.774 407.653 266.627 413.36C266.841 414.747 267.001 416.667 267.107 419.12C267.267 421.52 267.347 424.16 267.347 427.04C267.347 430.08 267.267 432.853 267.107 435.36C267.001 437.867 266.841 439.867 266.627 441.36ZM239.987 437.68V416.72C239.987 415.28 239.267 414.56 237.827 414.56C236.387 414.56 235.667 415.28 235.667 416.72V437.68C235.667 439.12 236.387 439.84 237.827 439.84C239.267 439.84 239.987 439.12 239.987 437.68ZM270.42 396.4H296.34V436.56C296.34 436.72 296.42 437.12 296.58 437.76C296.794 438.4 297.434 438.72 298.5 438.72C299.567 438.72 300.18 438.4 300.34 437.76C300.554 437.12 300.66 436.72 300.66 436.56V396.4H326.58V437.68C326.58 440.613 326.1 443.387 325.14 446C324.18 448.56 322.607 450.853 320.42 452.88C318.234 454.853 315.274 456.427 311.54 457.6C307.86 458.72 303.274 459.28 297.78 459.28C292.927 459.28 288.767 458.693 285.3 457.52C281.834 456.347 279.007 454.747 276.82 452.72C274.634 450.693 273.007 448.4 271.94 445.84C270.927 443.28 270.42 440.613 270.42 437.84V396.4ZM329.064 416.16V416C329.864 413.333 330.371 410.187 330.584 406.56C330.797 402.88 330.744 399.067 330.424 395.12L330.504 395.04L349.944 394.32V394.48C349.944 398 349.597 401.253 348.904 404.24C348.211 407.173 347.331 409.76 346.264 412C345.197 414.24 344.077 416 342.904 417.28L329.064 416.16ZM378.128 458H352.928V396.4H389.568C392.981 396.4 396.101 397.013 398.928 398.24C401.808 399.467 404.101 401.44 405.808 404.16C407.514 406.88 408.368 410.507 408.368 415.04C408.368 416.32 408.261 417.707 408.048 419.2C407.888 420.693 407.488 422.187 406.848 423.68C406.208 425.12 405.221 426.427 403.888 427.6C402.608 428.72 400.848 429.6 398.608 430.24L411.248 458H383.168L378.848 441.52H378.128V458ZM383.648 416.08H375.968V420.4H383.888C384.314 420.4 384.768 420.267 385.248 420C385.781 419.733 386.048 419.173 386.048 418.32C386.048 417.413 385.754 416.827 385.168 416.56C384.581 416.24 384.074 416.08 383.648 416.08ZM438.362 433.84V437.12H462.842V458H413.162V396.4H461.402V414.4H438.362V417.68H459.242V433.84H438.362Z" fill="#FD587C"/>
<path d="M182.663 423.04V426.04H185.405L185.651 423.309L182.663 423.04ZM185.063 396.4V393.4H182.322L182.076 396.131L185.063 396.4ZM211.783 396.4L214.614 397.393L216.015 393.4H211.783V396.4ZM195.623 442.48L192.792 441.487L192.623 441.969V442.48H195.623ZM195.623 458V461H198.623V458H195.623ZM168.983 458H165.983V461H168.983V458ZM168.983 442.48H171.983V441.967L171.813 441.483L168.983 442.48ZM152.743 396.4V393.4H148.505L149.914 397.397L152.743 396.4ZM179.463 396.4L182.451 396.122L182.197 393.4H179.463V396.4ZM181.943 423.04L178.956 423.318L179.21 426.04H181.943V423.04ZM182.663 423.04L185.651 423.309L188.051 396.669L185.063 396.4L182.076 396.131L179.676 422.771L182.663 423.04ZM185.063 396.4V399.4H211.783V396.4V393.4H185.063V396.4ZM211.783 396.4L208.952 395.407L192.792 441.487L195.623 442.48L198.454 443.473L214.614 397.393L211.783 396.4ZM195.623 442.48H192.623V458H195.623H198.623V442.48H195.623ZM195.623 458V455H168.983V458V461H195.623V458ZM168.983 458H171.983V442.48H168.983H165.983V458H168.983ZM168.983 442.48L171.813 441.483L155.573 395.403L152.743 396.4L149.914 397.397L166.154 443.477L168.983 442.48ZM152.743 396.4V399.4H179.463V396.4V393.4H152.743V396.4ZM179.463 396.4L176.476 396.678L178.956 423.318L181.943 423.04L184.931 422.762L182.451 396.122L179.463 396.4ZM181.943 423.04V426.04H182.663V423.04V420.04H181.943V423.04ZM266.627 441.36L269.593 441.812L269.595 441.798L269.597 441.784L266.627 441.36ZM257.747 454.56L259.33 457.109L259.34 457.103L259.349 457.096L257.747 454.56ZM217.907 454.56L216.312 457.101L216.318 457.105L216.324 457.109L217.907 454.56ZM209.027 441.52L206.057 441.944L206.062 441.974L206.066 442.004L209.027 441.52ZM208.467 435.52L205.47 435.645L205.471 435.678L205.473 435.711L208.467 435.52ZM208.467 419.44L205.474 419.245L205.472 419.276L205.47 419.307L208.467 419.44ZM209.027 413.68L206.062 413.222L206.062 413.224L209.027 413.68ZM217.987 400L219.608 402.524V402.524L217.987 400ZM257.747 400L256.126 402.524L256.136 402.53L256.145 402.536L257.747 400ZM266.627 413.36L263.66 413.804L263.662 413.816L266.627 413.36ZM267.107 419.12L264.11 419.25L264.112 419.285L264.114 419.32L267.107 419.12ZM267.107 435.36L264.113 435.169L264.111 435.201L264.11 435.232L267.107 435.36ZM266.627 441.36L263.661 440.908C262.947 445.593 260.525 449.257 256.145 452.024L257.747 454.56L259.349 457.096C265.103 453.463 268.6 448.327 269.593 441.812L266.627 441.36ZM257.747 454.56L256.164 452.011C251.72 454.772 245.684 456.28 237.827 456.28V459.28V462.28C246.397 462.28 253.641 460.642 259.33 457.109L257.747 454.56ZM237.827 459.28V456.28C229.97 456.28 223.934 454.772 219.49 452.011L217.907 454.56L216.324 457.109C222.013 460.642 229.257 462.28 237.827 462.28V459.28ZM217.907 454.56L219.502 452.019C215.174 449.303 212.747 445.683 211.988 441.036L209.027 441.52L206.066 442.004C207.12 448.451 210.614 453.524 216.312 457.101L217.907 454.56ZM209.027 441.52L211.997 441.096C211.8 439.714 211.619 437.801 211.461 435.329L208.467 435.52L205.473 435.711C205.635 438.252 205.828 440.34 206.057 441.944L209.027 441.52ZM208.467 435.52L211.465 435.395C211.36 432.882 211.307 430.178 211.307 427.28H208.307H205.307C205.307 430.249 205.361 433.038 205.47 435.645L208.467 435.52ZM208.307 427.28H211.307C211.307 424.49 211.36 421.922 211.464 419.573L208.467 419.44L205.47 419.307C205.361 421.758 205.307 424.416 205.307 427.28H208.307ZM208.467 419.44L211.461 419.635C211.619 417.215 211.799 415.395 211.992 414.136L209.027 413.68L206.062 413.224C205.829 414.738 205.636 416.758 205.474 419.245L208.467 419.44ZM209.027 413.68L211.992 414.138C212.765 409.135 215.253 405.321 219.608 402.524L217.987 400L216.366 397.476C210.588 401.186 207.102 406.492 206.062 413.222L209.027 413.68ZM217.987 400L219.608 402.524C224.048 399.674 230.044 398.12 237.827 398.12V395.12V392.12C229.291 392.12 222.06 393.82 216.366 397.476L217.987 400ZM237.827 395.12V398.12C245.668 398.12 251.689 399.675 256.126 402.524L257.747 400L259.368 397.476C253.672 393.818 246.413 392.12 237.827 392.12V395.12ZM257.747 400L256.145 402.536C260.507 405.291 262.941 408.997 263.66 413.804L266.627 413.36L269.594 412.916C268.606 406.309 265.121 401.109 259.349 397.464L257.747 400ZM266.627 413.36L263.662 413.816C263.851 415.044 264.005 416.838 264.11 419.25L267.107 419.12L270.104 418.99C269.996 416.495 269.83 414.449 269.592 412.904L266.627 413.36ZM267.107 419.12L264.114 419.32C264.269 421.642 264.347 424.214 264.347 427.04H267.347H270.347C270.347 424.106 270.266 421.398 270.101 418.92L267.107 419.12ZM267.347 427.04H264.347C264.347 430.029 264.268 432.737 264.113 435.169L267.107 435.36L270.101 435.551C270.266 432.969 270.347 430.131 270.347 427.04H267.347ZM267.107 435.36L264.11 435.232C264.005 437.696 263.85 439.584 263.657 440.936L266.627 441.36L269.597 441.784C269.831 440.15 269.996 438.038 270.104 435.488L267.107 435.36ZM239.987 437.68H242.987V416.72H239.987H236.987V437.68H239.987ZM239.987 416.72H242.987C242.987 415.538 242.69 414.1 241.569 412.979C240.447 411.858 239.01 411.56 237.827 411.56V414.56V417.56C238.085 417.56 237.727 417.622 237.326 417.221C236.925 416.82 236.987 416.462 236.987 416.72H239.987ZM237.827 414.56V411.56C236.645 411.56 235.207 411.858 234.086 412.979C232.965 414.1 232.667 415.538 232.667 416.72H235.667H238.667C238.667 416.462 238.73 416.82 238.329 417.221C237.927 417.622 237.57 417.56 237.827 417.56V414.56ZM235.667 416.72H232.667V437.68H235.667H238.667V416.72H235.667ZM235.667 437.68H232.667C232.667 438.862 232.965 440.3 234.086 441.421C235.207 442.542 236.645 442.84 237.827 442.84V439.84V436.84C237.57 436.84 237.927 436.778 238.329 437.179C238.73 437.58 238.667 437.938 238.667 437.68H235.667ZM237.827 439.84V442.84C239.01 442.84 240.447 442.542 241.569 441.421C242.69 440.3 242.987 438.862 242.987 437.68H239.987H236.987C236.987 437.938 236.925 437.58 237.326 437.179C237.727 436.778 238.085 436.84 237.827 436.84V439.84ZM270.42 396.4V393.4H267.42V396.4H270.42ZM296.34 396.4H299.34V393.4H296.34V396.4ZM296.58 437.76L293.67 438.488L293.698 438.599L293.734 438.709L296.58 437.76ZM300.34 437.76L297.494 436.811L297.458 436.921L297.43 437.032L300.34 437.76ZM300.66 396.4V393.4H297.66V396.4H300.66ZM326.58 396.4H329.58V393.4H326.58V396.4ZM325.14 446L327.949 447.053L327.953 447.044L327.956 447.034L325.14 446ZM320.42 452.88L322.43 455.107L322.445 455.094L322.46 455.08L320.42 452.88ZM311.54 457.6L312.414 460.47L312.427 460.466L312.44 460.462L311.54 457.6ZM276.82 452.72L274.781 454.92V454.92L276.82 452.72ZM271.94 445.84L269.151 446.944L269.161 446.969L269.171 446.994L271.94 445.84ZM270.42 396.4V399.4H296.34V396.4V393.4H270.42V396.4ZM296.34 396.4H293.34V436.56H296.34H299.34V396.4H296.34ZM296.34 436.56H293.34C293.34 436.973 293.421 437.382 293.459 437.568C293.512 437.834 293.584 438.146 293.67 438.488L296.58 437.76L299.491 437.032C299.416 436.734 299.369 436.526 299.342 436.392C299.329 436.325 299.325 436.298 299.325 436.301C299.326 436.303 299.329 436.324 299.332 436.36C299.335 436.391 299.34 436.463 299.34 436.56H296.34ZM296.58 437.76L293.734 438.709C294.578 441.239 297.021 441.72 298.5 441.72V438.72V435.72C298.223 435.72 298.311 435.671 298.562 435.797C298.704 435.868 298.888 435.991 299.063 436.187C299.239 436.386 299.358 436.606 299.426 436.811L296.58 437.76ZM298.5 438.72V441.72C299.279 441.72 300.243 441.612 301.148 441.14C302.173 440.605 302.951 439.685 303.251 438.488L300.34 437.76L297.43 437.032C297.488 436.801 297.604 436.54 297.799 436.298C297.992 436.059 298.204 435.908 298.373 435.82C298.665 435.668 298.788 435.72 298.5 435.72V438.72ZM300.34 437.76L303.186 438.709C303.302 438.362 303.403 438.037 303.479 437.753C303.526 437.576 303.66 437.083 303.66 436.56H300.66H297.66C297.66 436.423 297.671 436.321 297.677 436.27C297.684 436.215 297.691 436.177 297.693 436.164C297.698 436.139 297.697 436.149 297.682 436.207C297.651 436.323 297.592 436.518 297.494 436.811L300.34 437.76ZM300.66 436.56H303.66V396.4H300.66H297.66V436.56H300.66ZM300.66 396.4V399.4H326.58V396.4V393.4H300.66V396.4ZM326.58 396.4H323.58V437.68H326.58H329.58V396.4H326.58ZM326.58 437.68H323.58C323.58 440.279 323.156 442.701 322.324 444.966L325.14 446L327.956 447.034C329.044 444.072 329.58 440.947 329.58 437.68H326.58ZM325.14 446L322.331 444.947C321.55 447.031 320.257 448.941 318.381 450.68L320.42 452.88L322.46 455.08C324.957 452.766 326.811 450.089 327.949 447.053L325.14 446ZM320.42 452.88L318.41 450.653C316.631 452.259 314.091 453.654 310.641 454.738L311.54 457.6L312.44 460.462C316.456 459.2 319.836 457.448 322.43 455.107L320.42 452.88ZM311.54 457.6L310.667 454.73C307.363 455.736 303.093 456.28 297.78 456.28V459.28V462.28C303.454 462.28 308.358 461.704 312.414 460.47L311.54 457.6ZM297.78 459.28V456.28C293.154 456.28 289.337 455.719 286.262 454.678L285.3 457.52L284.339 460.362C288.197 461.668 292.7 462.28 297.78 462.28V459.28ZM285.3 457.52L286.262 454.678C283.107 453.61 280.674 452.201 278.86 450.52L276.82 452.72L274.781 454.92C277.34 457.292 280.56 459.083 284.339 460.362L285.3 457.52ZM276.82 452.72L278.86 450.52C276.964 448.763 275.599 446.82 274.71 444.686L271.94 445.84L269.171 446.994C270.415 449.98 272.303 452.623 274.781 454.92L276.82 452.72ZM271.94 445.84L274.73 444.736C273.857 442.53 273.42 440.238 273.42 437.84H270.42H267.42C267.42 440.989 267.997 444.03 269.151 446.944L271.94 445.84ZM270.42 437.84H273.42V396.4H270.42H267.42V437.84H270.42ZM329.064 416.16H326.064V418.927L328.822 419.15L329.064 416.16ZM329.064 416L326.191 415.138L326.064 415.56V416H329.064ZM330.584 406.56L333.579 406.736L333.579 406.734L330.584 406.56ZM330.424 395.12L328.303 392.999L327.322 393.98L327.434 395.362L330.424 395.12ZM330.504 395.04L330.393 392.042L329.216 392.086L328.383 392.919L330.504 395.04ZM349.944 394.32H352.944V391.207L349.833 391.322L349.944 394.32ZM348.904 404.24L351.824 404.93L351.826 404.918L348.904 404.24ZM346.264 412L348.973 413.29V413.29L346.264 412ZM342.904 417.28L342.662 420.27L344.124 420.389L345.116 419.307L342.904 417.28ZM329.064 416.16H332.064V416H329.064H326.064V416.16H329.064ZM329.064 416L331.938 416.862C332.821 413.917 333.356 410.529 333.579 406.736L330.584 406.56L327.589 406.384C327.386 409.844 326.907 412.75 326.191 415.138L329.064 416ZM330.584 406.56L333.579 406.734C333.801 402.905 333.745 398.953 333.414 394.878L330.424 395.12L327.434 395.362C327.743 399.181 327.794 402.855 327.589 406.386L330.584 406.56ZM330.424 395.12L332.545 397.241L332.625 397.161L330.504 395.04L328.383 392.919L328.303 392.999L330.424 395.12ZM330.504 395.04L330.615 398.038L350.055 397.318L349.944 394.32L349.833 391.322L330.393 392.042L330.504 395.04ZM349.944 394.32H346.944V394.48H349.944H352.944V394.32H349.944ZM349.944 394.48H346.944C346.944 397.805 346.617 400.827 345.982 403.562L348.904 404.24L351.826 404.918C352.578 401.679 352.944 398.195 352.944 394.48H349.944ZM348.904 404.24L345.985 403.55C345.33 406.319 344.514 408.698 343.555 410.71L346.264 412L348.973 413.29C350.148 410.822 351.091 408.028 351.824 404.93L348.904 404.24ZM346.264 412L343.555 410.71C342.567 412.786 341.599 414.264 340.693 415.253L342.904 417.28L345.116 419.307C346.556 417.736 347.828 415.694 348.973 413.29L346.264 412ZM342.904 417.28L343.146 414.29L329.306 413.17L329.064 416.16L328.822 419.15L342.662 420.27L342.904 417.28ZM378.128 458V461H381.128V458H378.128ZM352.928 458H349.928V461H352.928V458ZM352.928 396.4V393.4H349.928V396.4H352.928ZM398.928 398.24L397.734 400.992L397.743 400.996L397.752 401L398.928 398.24ZM405.808 404.16L408.349 402.566V402.566L405.808 404.16ZM408.048 419.2L405.078 418.776L405.071 418.828L405.065 418.88L408.048 419.2ZM406.848 423.68L409.589 424.898L409.597 424.88L409.605 424.862L406.848 423.68ZM403.888 427.6L405.863 429.858L405.87 429.852L403.888 427.6ZM398.608 430.24L397.784 427.355L394.434 428.313L395.878 431.483L398.608 430.24ZM411.248 458V461H415.91L413.978 456.757L411.248 458ZM383.168 458L380.266 458.761L380.853 461H383.168V458ZM378.848 441.52L381.75 440.759L381.163 438.52H378.848V441.52ZM378.128 441.52V438.52H375.128V441.52H378.128ZM375.968 416.08V413.08H372.968V416.08H375.968ZM375.968 420.4H372.968V423.4H375.968V420.4ZM385.248 420L383.906 417.317L383.848 417.346L383.791 417.378L385.248 420ZM385.168 416.56L383.731 419.194L383.827 419.246L383.926 419.291L385.168 416.56ZM378.128 458V455H352.928V458V461H378.128V458ZM352.928 458H355.928V396.4H352.928H349.928V458H352.928ZM352.928 396.4V399.4H389.568V396.4V393.4H352.928V396.4ZM389.568 396.4V399.4C392.615 399.4 395.323 399.946 397.734 400.992L398.928 398.24L400.122 395.488C396.88 394.081 393.348 393.4 389.568 393.4V396.4ZM398.928 398.24L397.752 401C400.053 401.98 401.877 403.539 403.267 405.754L405.808 404.16L408.349 402.566C406.326 399.341 403.562 396.953 400.103 395.48L398.928 398.24ZM405.808 404.16L403.267 405.754C404.574 407.838 405.368 410.849 405.368 415.04H408.368H411.368C411.368 410.164 410.455 405.922 408.349 402.566L405.808 404.16ZM408.368 415.04H405.368C405.368 416.156 405.275 417.399 405.078 418.776L408.048 419.2L411.018 419.624C411.248 418.014 411.368 416.484 411.368 415.04H408.368ZM408.048 419.2L405.065 418.88C404.939 420.053 404.622 421.257 404.09 422.498L406.848 423.68L409.605 424.862C410.353 423.116 410.836 421.333 411.031 419.52L408.048 419.2ZM406.848 423.68L404.106 422.462C403.663 423.459 402.956 424.424 401.906 425.348L403.888 427.6L405.87 429.852C407.486 428.429 408.752 426.781 409.589 424.898L406.848 423.68ZM403.888 427.6L401.912 425.342C401.064 426.084 399.747 426.795 397.784 427.355L398.608 430.24L399.432 433.125C401.949 432.405 404.151 431.356 405.863 429.858L403.888 427.6ZM398.608 430.24L395.878 431.483L408.518 459.243L411.248 458L413.978 456.757L401.338 428.997L398.608 430.24ZM411.248 458V455H383.168V458V461H411.248V458ZM383.168 458L386.07 457.239L381.75 440.759L378.848 441.52L375.946 442.281L380.266 458.761L383.168 458ZM378.848 441.52V438.52H378.128V441.52V444.52H378.848V441.52ZM378.128 441.52H375.128V458H378.128H381.128V441.52H378.128ZM383.648 416.08V413.08H375.968V416.08V419.08H383.648V416.08ZM375.968 416.08H372.968V420.4H375.968H378.968V416.08H375.968ZM375.968 420.4V423.4H383.888V420.4V417.4H375.968V420.4ZM383.888 420.4V423.4C384.95 423.4 385.904 423.067 386.705 422.622L385.248 420L383.791 417.378C383.714 417.42 383.685 417.427 383.701 417.422C383.72 417.416 383.786 417.4 383.888 417.4V420.4ZM385.248 420L386.589 422.683C388.557 421.7 389.048 419.752 389.048 418.32H386.048H383.048C383.048 418.458 383.023 418.335 383.139 418.09C383.201 417.96 383.299 417.807 383.442 417.659C383.586 417.51 383.748 417.396 383.906 417.317L385.248 420ZM386.048 418.32H389.048C389.048 416.795 388.496 414.777 386.409 413.829L385.168 416.56L383.926 419.291C383.776 419.223 383.614 419.119 383.464 418.974C383.315 418.829 383.212 418.676 383.145 418.542C383.019 418.29 383.048 418.164 383.048 418.32H386.048ZM385.168 416.56L386.604 413.926C385.803 413.489 384.783 413.08 383.648 413.08V416.08V419.08C383.567 419.08 383.509 419.072 383.476 419.067C383.443 419.061 383.432 419.057 383.444 419.061C383.457 419.065 383.487 419.075 383.537 419.097C383.586 419.119 383.651 419.15 383.731 419.194L385.168 416.56ZM438.362 433.84V430.84H435.362V433.84H438.362ZM438.362 437.12H435.362V440.12H438.362V437.12ZM462.842 437.12H465.842V434.12H462.842V437.12ZM462.842 458V461H465.842V458H462.842ZM413.162 458H410.162V461H413.162V458ZM413.162 396.4V393.4H410.162V396.4H413.162ZM461.402 396.4H464.402V393.4H461.402V396.4ZM461.402 414.4V417.4H464.402V414.4H461.402ZM438.362 414.4V411.4H435.362V414.4H438.362ZM438.362 417.68H435.362V420.68H438.362V417.68ZM459.242 417.68H462.242V414.68H459.242V417.68ZM459.242 433.84V436.84H462.242V433.84H459.242ZM438.362 433.84H435.362V437.12H438.362H441.362V433.84H438.362ZM438.362 437.12V440.12H462.842V437.12V434.12H438.362V437.12ZM462.842 437.12H459.842V458H462.842H465.842V437.12H462.842ZM462.842 458V455H413.162V458V461H462.842V458ZM413.162 458H416.162V396.4H413.162H410.162V458H413.162ZM413.162 396.4V399.4H461.402V396.4V393.4H413.162V396.4ZM461.402 396.4H458.402V414.4H461.402H464.402V396.4H461.402ZM461.402 414.4V411.4H438.362V414.4V417.4H461.402V414.4ZM438.362 414.4H435.362V417.68H438.362H441.362V414.4H438.362ZM438.362 417.68V420.68H459.242V417.68V414.68H438.362V417.68ZM459.242 417.68H456.242V433.84H459.242H462.242V417.68H459.242ZM459.242 433.84V430.84H438.362V433.84V436.84H459.242V433.84Z" fill="white" mask="url(#path-5-outside-2_1005_384)"/>
<path d="M489.409 138.251L124.874 188.416C120.517 189.016 117.461 193.02 118.033 197.381L139.046 357.72C139.586 361.838 143.186 364.858 147.335 364.673L490.857 349.341C495.132 349.15 498.5 345.629 498.5 341.349V146.176C498.5 141.324 494.216 137.59 489.409 138.251Z" fill="#7159A1" stroke="white" stroke-width="4"/>
<mask id="path-8-outside-3_1005_384" maskUnits="userSpaceOnUse" x="150.5" y="221" width="327" height="77" fill="black">
<rect fill="white" x="150.5" y="221" width="327" height="77"/>
<path d="M181.069 226.488V266.568H207.501V293H153.86V226.488H181.069ZM279.03 293H251.043L250.18 285.053H237.914L237.05 293H209.063L226.166 226.488H261.927L279.03 293ZM241.714 251.106L240.764 259.399H247.329L246.379 251.106H241.714ZM279.708 226.488H307.695V269.85C307.695 270.023 307.781 270.455 307.954 271.146C308.185 271.837 308.876 272.183 310.027 272.183C311.179 272.183 311.841 271.837 312.014 271.146C312.244 270.455 312.359 270.023 312.359 269.85V226.488H340.346V271.06C340.346 274.227 339.828 277.221 338.791 280.043C337.755 282.807 336.056 285.283 333.695 287.472C331.334 289.602 328.138 291.301 324.107 292.568C320.134 293.777 315.181 294.382 309.25 294.382C304.01 294.382 299.518 293.749 295.775 292.482C292.032 291.215 288.98 289.487 286.619 287.299C284.258 285.111 282.501 282.635 281.35 279.87C280.255 277.106 279.708 274.227 279.708 271.233V226.488ZM407.392 244.801V247.392L380.183 250.502V248.947C380.183 246.874 379.146 245.837 377.073 245.837C375 245.837 373.964 246.874 373.964 248.947V270.196C373.964 272.269 375 273.306 377.073 273.306C379.146 273.306 380.183 272.269 380.183 270.196V267.518H377.073V252.834H407.392V274.169C407.392 280.504 404.657 285.456 399.186 289.027C393.716 292.597 386.086 294.382 376.296 294.382C367.255 294.382 359.913 292.626 354.269 289.113C348.684 285.543 345.401 280.619 344.422 274.342C344.192 272.73 343.99 270.628 343.818 268.037C343.702 265.445 343.645 262.566 343.645 259.399C343.645 256.404 343.702 253.669 343.818 251.193C343.99 248.659 344.192 246.643 344.422 245.146C345.401 238.812 348.712 233.888 354.356 230.375C359.999 226.863 367.313 225.106 376.296 225.106C385.855 225.106 393.37 226.863 398.841 230.375C404.311 233.831 407.162 238.639 407.392 244.801ZM446.039 245.146V226.488H474.026V293H446.039V271.578H439.043V293H411.056V226.488H439.043V245.146H446.039Z"/>
</mask>
<path d="M181.069 226.488V266.568H207.501V293H153.86V226.488H181.069ZM279.03 293H251.043L250.18 285.053H237.914L237.05 293H209.063L226.166 226.488H261.927L279.03 293ZM241.714 251.106L240.764 259.399H247.329L246.379 251.106H241.714ZM279.708 226.488H307.695V269.85C307.695 270.023 307.781 270.455 307.954 271.146C308.185 271.837 308.876 272.183 310.027 272.183C311.179 272.183 311.841 271.837 312.014 271.146C312.244 270.455 312.359 270.023 312.359 269.85V226.488H340.346V271.06C340.346 274.227 339.828 277.221 338.791 280.043C337.755 282.807 336.056 285.283 333.695 287.472C331.334 289.602 328.138 291.301 324.107 292.568C320.134 293.777 315.181 294.382 309.25 294.382C304.01 294.382 299.518 293.749 295.775 292.482C292.032 291.215 288.98 289.487 286.619 287.299C284.258 285.111 282.501 282.635 281.35 279.87C280.255 277.106 279.708 274.227 279.708 271.233V226.488ZM407.392 244.801V247.392L380.183 250.502V248.947C380.183 246.874 379.146 245.837 377.073 245.837C375 245.837 373.964 246.874 373.964 248.947V270.196C373.964 272.269 375 273.306 377.073 273.306C379.146 273.306 380.183 272.269 380.183 270.196V267.518H377.073V252.834H407.392V274.169C407.392 280.504 404.657 285.456 399.186 289.027C393.716 292.597 386.086 294.382 376.296 294.382C367.255 294.382 359.913 292.626 354.269 289.113C348.684 285.543 345.401 280.619 344.422 274.342C344.192 272.73 343.99 270.628 343.818 268.037C343.702 265.445 343.645 262.566 343.645 259.399C343.645 256.404 343.702 253.669 343.818 251.193C343.99 248.659 344.192 246.643 344.422 245.146C345.401 238.812 348.712 233.888 354.356 230.375C359.999 226.863 367.313 225.106 376.296 225.106C385.855 225.106 393.37 226.863 398.841 230.375C404.311 233.831 407.162 238.639 407.392 244.801ZM446.039 245.146V226.488H474.026V293H446.039V271.578H439.043V293H411.056V226.488H439.043V245.146H446.039Z" fill="#F6F0F1"/>
<path d="M181.069 226.488H184.308V223.249H181.069V226.488ZM181.069 266.568H177.83V269.807H181.069V266.568ZM207.501 266.568H210.74V263.329H207.501V266.568ZM207.501 293V296.239H210.74V293H207.501ZM153.86 293H150.621V296.239H153.86V293ZM153.86 226.488V223.249H150.621V226.488H153.86ZM181.069 226.488H177.83V266.568H181.069H184.308V226.488H181.069ZM181.069 266.568V269.807H207.501V266.568V263.329H181.069V266.568ZM207.501 266.568H204.262V293H207.501H210.74V266.568H207.501ZM207.501 293V289.761H153.86V293V296.239H207.501V293ZM153.86 293H157.099V226.488H153.86H150.621V293H153.86ZM153.86 226.488V229.728H181.069V226.488V223.249H153.86V226.488ZM279.03 293V296.239H283.208L282.167 292.193L279.03 293ZM251.043 293L247.823 293.35L248.137 296.239H251.043V293ZM250.18 285.053L253.4 284.703L253.086 281.814H250.18V285.053ZM237.914 285.053V281.814H235.008L234.694 284.703L237.914 285.053ZM237.05 293V296.239H239.956L240.27 293.35L237.05 293ZM209.063 293L205.926 292.193L204.886 296.239H209.063V293ZM226.166 226.488V223.249H223.655L223.029 225.682L226.166 226.488ZM261.927 226.488L265.064 225.682L264.439 223.249H261.927V226.488ZM241.714 251.106V247.867H238.825L238.496 250.738L241.714 251.106ZM240.764 259.399L237.546 259.03L237.133 262.638H240.764V259.399ZM247.329 259.399V262.638H250.961L250.547 259.03L247.329 259.399ZM246.379 251.106L249.597 250.738L249.268 247.867H246.379V251.106ZM279.03 293V289.761H251.043V293V296.239H279.03V293ZM251.043 293L254.264 292.65L253.4 284.703L250.18 285.053L246.959 285.403L247.823 293.35L251.043 293ZM250.18 285.053V281.814H237.914V285.053V288.292H250.18V285.053ZM237.914 285.053L234.694 284.703L233.83 292.65L237.05 293L240.27 293.35L241.134 285.403L237.914 285.053ZM237.05 293V289.761H209.063V293V296.239H237.05V293ZM209.063 293L212.2 293.807L229.303 227.295L226.166 226.488L223.029 225.682L205.926 292.193L209.063 293ZM226.166 226.488V229.728H261.927V226.488V223.249H226.166V226.488ZM261.927 226.488L258.79 227.295L275.893 293.807L279.03 293L282.167 292.193L265.064 225.682L261.927 226.488ZM241.714 251.106L238.496 250.738L237.546 259.03L240.764 259.399L243.982 259.767L244.933 251.475L241.714 251.106ZM240.764 259.399V262.638H247.329V259.399V256.159H240.764V259.399ZM247.329 259.399L250.547 259.03L249.597 250.738L246.379 251.106L243.161 251.475L244.111 259.767L247.329 259.399ZM246.379 251.106V247.867H241.714V251.106V254.346H246.379V251.106ZM279.708 226.488V223.249H276.469V226.488H279.708ZM307.695 226.488H310.934V223.249H307.695V226.488ZM307.954 271.146L304.812 271.932L304.842 272.052L304.881 272.171L307.954 271.146ZM312.014 271.146L308.941 270.122L308.902 270.24L308.871 270.361L312.014 271.146ZM312.359 226.488V223.249H309.12V226.488H312.359ZM340.346 226.488H343.585V223.249H340.346V226.488ZM338.791 280.043L341.824 281.181L341.828 281.17L341.832 281.16L338.791 280.043ZM333.695 287.472L335.865 289.877L335.881 289.862L335.897 289.847L333.695 287.472ZM324.107 292.568L325.05 295.667L325.064 295.663L325.078 295.658L324.107 292.568ZM286.619 287.299L284.417 289.675V289.675L286.619 287.299ZM281.35 279.87L278.338 281.063L278.348 281.09L278.359 281.116L281.35 279.87ZM279.708 226.488V229.728H307.695V226.488V223.249H279.708V226.488ZM307.695 226.488H304.456V269.85H307.695H310.934V226.488H307.695ZM307.695 269.85H304.456C304.456 270.297 304.543 270.738 304.584 270.939C304.641 271.227 304.719 271.563 304.812 271.932L307.954 271.146L311.097 270.361C311.016 270.039 310.965 269.813 310.936 269.669C310.922 269.596 310.917 269.567 310.918 269.571C310.918 269.573 310.922 269.596 310.925 269.634C310.928 269.668 310.934 269.745 310.934 269.85H307.695ZM307.954 271.146L304.881 272.171C305.792 274.903 308.429 275.422 310.027 275.422V272.183V268.944C309.728 268.944 309.823 268.891 310.094 269.026C310.248 269.103 310.446 269.236 310.634 269.448C310.825 269.662 310.953 269.9 311.027 270.122L307.954 271.146ZM310.027 272.183V275.422C310.868 275.422 311.909 275.305 312.886 274.795C313.993 274.218 314.833 273.224 315.156 271.932L312.014 271.146L308.871 270.361C308.934 270.11 309.06 269.829 309.27 269.568C309.478 269.31 309.708 269.146 309.889 269.052C310.205 268.887 310.338 268.944 310.027 268.944V272.183ZM312.014 271.146L315.087 272.171C315.212 271.796 315.321 271.445 315.403 271.139C315.454 270.948 315.599 270.415 315.599 269.85H312.359H309.12C309.12 269.703 309.132 269.592 309.138 269.538C309.146 269.478 309.153 269.437 309.156 269.423C309.161 269.396 309.16 269.406 309.143 269.469C309.11 269.595 309.046 269.805 308.941 270.122L312.014 271.146ZM312.359 269.85H315.599V226.488H312.359H309.12V269.85H312.359ZM312.359 226.488V229.728H340.346V226.488V223.249H312.359V226.488ZM340.346 226.488H337.107V271.06H340.346H343.585V226.488H340.346ZM340.346 271.06H337.107C337.107 273.867 336.649 276.481 335.751 278.926L338.791 280.043L341.832 281.16C343.007 277.962 343.585 274.587 343.585 271.06H340.346ZM338.791 280.043L335.758 278.906C334.914 281.157 333.519 283.219 331.493 285.096L333.695 287.472L335.897 289.847C338.593 287.348 340.595 284.458 341.824 281.181L338.791 280.043ZM333.695 287.472L331.525 285.067C329.603 286.801 326.861 288.307 323.136 289.478L324.107 292.568L325.078 295.658C329.415 294.295 333.065 292.404 335.865 289.877L333.695 287.472ZM324.107 292.568L323.164 289.469C319.596 290.555 314.986 291.143 309.25 291.143V294.382V297.621C315.376 297.621 320.671 297 325.05 295.667L324.107 292.568ZM309.25 294.382V291.143C304.255 291.143 300.133 290.537 296.813 289.414L295.775 292.482L294.736 295.55C298.903 296.96 303.764 297.621 309.25 297.621V294.382ZM295.775 292.482L296.813 289.414C293.406 288.26 290.78 286.739 288.821 284.923L286.619 287.299L284.417 289.675C287.18 292.235 290.657 294.169 294.736 295.55L295.775 292.482ZM286.619 287.299L288.821 284.923C286.774 283.027 285.299 280.928 284.34 278.625L281.35 279.87L278.359 281.116C279.703 284.341 281.741 287.195 284.417 289.675L286.619 287.299ZM281.35 279.87L284.361 278.678C283.419 276.296 282.948 273.822 282.948 271.233H279.708H276.469C276.469 274.632 277.092 277.916 278.338 281.063L281.35 279.87ZM279.708 271.233H282.948V226.488H279.708H276.469V271.233H279.708ZM407.392 244.801H410.632V244.74L410.629 244.68L407.392 244.801ZM407.392 247.392L407.76 250.61L410.632 250.282V247.392H407.392ZM380.183 250.502H376.944V254.132L380.551 253.72L380.183 250.502ZM380.183 267.518H383.422V264.279H380.183V267.518ZM377.073 267.518H373.834V270.757H377.073V267.518ZM377.073 252.834V249.595H373.834V252.834H377.073ZM407.392 252.834H410.632V249.595H407.392V252.834ZM399.186 289.027L397.416 286.314V286.314L399.186 289.027ZM354.269 289.113L352.525 291.842L352.541 291.853L352.558 291.863L354.269 289.113ZM344.422 274.342L341.216 274.8L341.218 274.821L341.222 274.841L344.422 274.342ZM343.818 268.037L340.582 268.18L340.583 268.216L340.586 268.252L343.818 268.037ZM343.818 251.193L340.586 250.972L340.583 251.007L340.582 251.042L343.818 251.193ZM344.422 245.146L341.221 244.651L341.221 244.654L344.422 245.146ZM354.356 230.375L352.644 227.625V227.625L354.356 230.375ZM398.841 230.375L397.091 233.101L397.101 233.108L397.111 233.114L398.841 230.375ZM407.392 244.801H404.153V247.392H407.392H410.632V244.801H407.392ZM407.392 247.392L407.025 244.174L379.815 247.283L380.183 250.502L380.551 253.72L407.76 250.61L407.392 247.392ZM380.183 250.502H383.422V248.947H380.183H376.944V250.502H380.183ZM380.183 248.947H383.422C383.422 247.411 383.036 245.664 381.696 244.324C380.356 242.984 378.609 242.598 377.073 242.598V245.837V249.076C377.199 249.076 377.287 249.084 377.344 249.092C377.401 249.101 377.42 249.108 377.41 249.105C377.398 249.101 377.359 249.086 377.302 249.052C377.244 249.017 377.179 248.968 377.115 248.905C377.052 248.842 377.003 248.777 376.968 248.718C376.934 248.661 376.919 248.622 376.916 248.611C376.912 248.601 376.92 248.62 376.928 248.676C376.936 248.733 376.944 248.821 376.944 248.947H380.183ZM377.073 245.837V242.598C375.538 242.598 373.791 242.984 372.451 244.324C371.111 245.664 370.725 247.411 370.725 248.947H373.964H377.203C377.203 248.821 377.211 248.733 377.219 248.676C377.227 248.62 377.234 248.601 377.231 248.611C377.227 248.622 377.213 248.661 377.179 248.718C377.144 248.777 377.095 248.842 377.032 248.905C376.968 248.968 376.903 249.017 376.845 249.052C376.788 249.086 376.748 249.101 376.737 249.105C376.727 249.108 376.746 249.101 376.803 249.092C376.859 249.084 376.948 249.076 377.073 249.076V245.837ZM373.964 248.947H370.725V270.196H373.964H377.203V248.947H373.964ZM373.964 270.196H370.725C370.725 271.732 371.111 273.479 372.451 274.819C373.791 276.159 375.538 276.545 377.073 276.545V273.306V270.066C376.948 270.066 376.859 270.059 376.803 270.05C376.746 270.042 376.727 270.035 376.737 270.038C376.748 270.042 376.788 270.057 376.845 270.091C376.903 270.126 376.968 270.174 377.032 270.238C377.095 270.301 377.144 270.366 377.179 270.424C377.213 270.481 377.227 270.521 377.231 270.532C377.234 270.542 377.227 270.523 377.219 270.467C377.211 270.41 377.203 270.321 377.203 270.196H373.964ZM377.073 273.306V276.545C378.609 276.545 380.356 276.159 381.696 274.819C383.036 273.479 383.422 271.732 383.422 270.196H380.183H376.944C376.944 270.321 376.936 270.41 376.928 270.467C376.92 270.523 376.912 270.542 376.916 270.532C376.919 270.521 376.934 270.481 376.968 270.424C377.003 270.366 377.052 270.301 377.115 270.238C377.179 270.174 377.244 270.126 377.302 270.091C377.359 270.057 377.398 270.042 377.41 270.038C377.42 270.035 377.401 270.042 377.344 270.05C377.287 270.059 377.199 270.066 377.073 270.066V273.306ZM380.183 270.196H383.422V267.518H380.183H376.944V270.196H380.183ZM380.183 267.518V264.279H377.073V267.518V270.757H380.183V267.518ZM377.073 267.518H380.313V252.834H377.073H373.834V267.518H377.073ZM377.073 252.834V256.073H407.392V252.834V249.595H377.073V252.834ZM407.392 252.834H404.153V274.169H407.392H410.632V252.834H407.392ZM407.392 274.169H404.153C404.153 279.369 402.005 283.319 397.416 286.314L399.186 289.027L400.957 291.739C407.309 287.593 410.632 281.639 410.632 274.169H407.392ZM399.186 289.027L397.416 286.314C392.673 289.409 385.75 291.143 376.296 291.143V294.382V297.621C386.421 297.621 394.758 295.785 400.957 291.739L399.186 289.027ZM376.296 294.382V291.143C367.649 291.143 360.957 289.46 355.981 286.363L354.269 289.113L352.558 291.863C358.868 295.791 366.861 297.621 376.296 297.621V294.382ZM354.269 289.113L356.014 286.384C351.172 283.289 348.452 279.158 347.623 273.843L344.422 274.342L341.222 274.841C342.351 282.08 346.195 287.796 352.525 291.842L354.269 289.113ZM344.422 274.342L347.629 273.884C347.415 272.385 347.22 270.373 347.05 267.821L343.818 268.037L340.586 268.252C340.761 270.883 340.969 273.075 341.216 274.8L344.422 274.342ZM343.818 268.037L347.054 267.893C346.941 265.358 346.884 262.528 346.884 259.399H343.645H340.406C340.406 262.604 340.464 265.532 340.582 268.18L343.818 268.037ZM343.645 259.399H346.884C346.884 256.444 346.941 253.76 347.053 251.343L343.818 251.193L340.582 251.042C340.464 253.578 340.406 256.364 340.406 259.399H343.645ZM343.818 251.193L347.049 251.413C347.219 248.918 347.413 247.006 347.624 245.639L344.422 245.146L341.221 244.654C340.97 246.281 340.761 248.399 340.586 250.972L343.818 251.193ZM344.422 245.146L347.623 245.641C348.452 240.278 351.191 236.16 356.067 233.125L354.356 230.375L352.644 227.625C346.233 231.616 342.35 237.345 341.221 244.651L344.422 245.146ZM354.356 230.375L356.067 233.125C361.047 230.026 367.712 228.346 376.296 228.346V225.106V221.867C366.913 221.867 358.952 223.699 352.644 227.625L354.356 230.375ZM376.296 225.106V228.346C385.51 228.346 392.333 230.046 397.091 233.101L398.841 230.375L400.591 227.65C394.407 223.679 386.201 221.867 376.296 221.867V225.106ZM398.841 230.375L397.111 233.114C401.731 236.032 403.967 239.889 404.155 244.922L407.392 244.801L410.629 244.68C410.357 237.389 406.892 231.629 400.571 227.637L398.841 230.375ZM446.039 245.146V248.385H449.279V245.146H446.039ZM446.039 226.488V223.249H442.8V226.488H446.039ZM474.026 226.488H477.265V223.249H474.026V226.488ZM474.026 293V296.239H477.265V293H474.026ZM446.039 293H442.8V296.239H446.039V293ZM446.039 271.578H449.279V268.339H446.039V271.578ZM439.043 271.578V268.339H435.803V271.578H439.043ZM439.043 293V296.239H442.282V293H439.043ZM411.056 293H407.817V296.239H411.056V293ZM411.056 226.488V223.249H407.817V226.488H411.056ZM439.043 226.488H442.282V223.249H439.043V226.488ZM439.043 245.146H435.803V248.385H439.043V245.146ZM446.039 245.146H449.279V226.488H446.039H442.8V245.146H446.039ZM446.039 226.488V229.728H474.026V226.488V223.249H446.039V226.488ZM474.026 226.488H470.787V293H474.026H477.265V226.488H474.026ZM474.026 293V289.761H446.039V293V296.239H474.026V293ZM446.039 293H449.279V271.578H446.039H442.8V293H446.039ZM446.039 271.578V268.339H439.043V271.578V274.817H446.039V271.578ZM439.043 271.578H435.803V293H439.043H442.282V271.578H439.043ZM439.043 293V289.761H411.056V293V296.239H439.043V293ZM411.056 293H414.295V226.488H411.056H407.817V293H411.056ZM411.056 226.488V229.728H439.043V226.488V223.249H411.056V226.488ZM439.043 226.488H435.803V245.146H439.043H442.282V226.488H439.043ZM439.043 245.146V248.385H446.039V245.146V241.907H439.043V245.146Z" fill="#7255A8" mask="url(#path-8-outside-3_1005_384)"/>
<path d="M184.549 499.885L433.926 549.104C437.946 549.897 440.717 553.6 440.344 557.68L425.672 718.247C425.277 722.563 421.519 725.78 417.194 725.503L182.489 710.479C178.278 710.21 175 706.716 175 702.496V507.733C175 502.693 179.604 498.909 184.549 499.885Z" fill="#FD587C" stroke="white" stroke-width="4"/>
<mask id="path-11-outside-4_1005_384" maskUnits="userSpaceOnUse" x="205" y="585" width="200" height="77" fill="black">
<rect fill="white" x="205" y="585" width="200" height="77"/>
<path d="M271.547 639.033C270.626 645.08 267.43 649.831 261.959 653.286C256.489 656.683 249.319 658.382 240.451 658.382C231.583 658.382 224.413 656.683 218.943 653.286C213.53 649.888 210.334 645.195 209.355 639.206C209.124 637.594 208.923 635.434 208.75 632.728C208.635 629.963 208.577 626.998 208.577 623.831C208.577 620.779 208.635 617.957 208.75 615.365C208.923 612.716 209.124 610.643 209.355 609.146C210.334 602.812 213.559 597.888 219.029 594.375C224.5 590.863 231.64 589.106 240.451 589.106C249.319 589.106 256.489 590.863 261.959 594.375C267.43 597.831 270.626 602.639 271.547 608.801C271.778 610.298 271.951 612.371 272.066 615.02C272.239 617.611 272.325 620.462 272.325 623.571C272.325 626.854 272.239 629.848 272.066 632.555C271.951 635.261 271.778 637.421 271.547 639.033ZM242.783 635.06V612.429C242.783 610.874 242.006 610.096 240.451 610.096C238.896 610.096 238.119 610.874 238.119 612.429V635.06C238.119 636.615 238.896 637.392 240.451 637.392C242.006 637.392 242.783 636.615 242.783 635.06ZM275.643 590.488H303.63V633.85C303.63 634.023 303.716 634.455 303.889 635.146C304.119 635.837 304.81 636.183 305.962 636.183C307.114 636.183 307.776 635.837 307.949 635.146C308.179 634.455 308.294 634.023 308.294 633.85V590.488H336.281V635.06C336.281 638.227 335.763 641.221 334.726 644.043C333.69 646.807 331.991 649.283 329.63 651.472C327.269 653.602 324.073 655.301 320.042 656.568C316.068 657.777 311.116 658.382 305.185 658.382C299.944 658.382 295.453 657.749 291.709 656.482C287.966 655.215 284.914 653.487 282.553 651.299C280.192 649.111 278.436 646.635 277.284 643.87C276.19 641.106 275.643 638.227 275.643 635.233V590.488ZM401.599 590.488V616.143H384.928V657H356.164V616.143H339.407V590.488H401.599Z"/>
</mask>
<path d="M271.547 639.033C270.626 645.08 267.43 649.831 261.959 653.286C256.489 656.683 249.319 658.382 240.451 658.382C231.583 658.382 224.413 656.683 218.943 653.286C213.53 649.888 210.334 645.195 209.355 639.206C209.124 637.594 208.923 635.434 208.75 632.728C208.635 629.963 208.577 626.998 208.577 623.831C208.577 620.779 208.635 617.957 208.75 615.365C208.923 612.716 209.124 610.643 209.355 609.146C210.334 602.812 213.559 597.888 219.029 594.375C224.5 590.863 231.64 589.106 240.451 589.106C249.319 589.106 256.489 590.863 261.959 594.375C267.43 597.831 270.626 602.639 271.547 608.801C271.778 610.298 271.951 612.371 272.066 615.02C272.239 617.611 272.325 620.462 272.325 623.571C272.325 626.854 272.239 629.848 272.066 632.555C271.951 635.261 271.778 637.421 271.547 639.033ZM242.783 635.06V612.429C242.783 610.874 242.006 610.096 240.451 610.096C238.896 610.096 238.119 610.874 238.119 612.429V635.06C238.119 636.615 238.896 637.392 240.451 637.392C242.006 637.392 242.783 636.615 242.783 635.06ZM275.643 590.488H303.63V633.85C303.63 634.023 303.716 634.455 303.889 635.146C304.119 635.837 304.81 636.183 305.962 636.183C307.114 636.183 307.776 635.837 307.949 635.146C308.179 634.455 308.294 634.023 308.294 633.85V590.488H336.281V635.06C336.281 638.227 335.763 641.221 334.726 644.043C333.69 646.807 331.991 649.283 329.63 651.472C327.269 653.602 324.073 655.301 320.042 656.568C316.068 657.777 311.116 658.382 305.185 658.382C299.944 658.382 295.453 657.749 291.709 656.482C287.966 655.215 284.914 653.487 282.553 651.299C280.192 649.111 278.436 646.635 277.284 643.87C276.19 641.106 275.643 638.227 275.643 635.233V590.488ZM401.599 590.488V616.143H384.928V657H356.164V616.143H339.407V590.488H401.599Z" fill="#F6F0F1"/>
<path d="M271.547 639.033L274.75 639.521L274.752 639.506L274.754 639.491L271.547 639.033ZM261.959 653.286L263.668 656.037L263.679 656.031L263.689 656.024L261.959 653.286ZM218.943 653.286L217.221 656.029L217.227 656.033L217.234 656.037L218.943 653.286ZM209.355 639.206L206.148 639.664L206.153 639.696L206.158 639.729L209.355 639.206ZM208.75 632.728L205.514 632.862L205.515 632.898L205.518 632.934L208.75 632.728ZM208.75 615.365L205.518 615.155L205.516 615.188L205.514 615.222L208.75 615.365ZM209.355 609.146L206.154 608.651L206.153 608.654L209.355 609.146ZM219.029 594.375L220.779 597.101V597.101L219.029 594.375ZM261.959 594.375L260.209 597.101L260.219 597.108L260.23 597.114L261.959 594.375ZM271.547 608.801L268.344 609.28L268.346 609.293L271.547 608.801ZM272.066 615.02L268.83 615.161L268.831 615.198L268.834 615.235L272.066 615.02ZM272.066 632.555L268.833 632.348L268.831 632.383L268.829 632.417L272.066 632.555ZM271.547 639.033L268.345 638.545C267.574 643.604 264.959 647.56 260.23 650.547L261.959 653.286L263.689 656.024C269.901 652.101 273.678 646.555 274.75 639.521L271.547 639.033ZM261.959 653.286L260.25 650.534C255.452 653.514 248.935 655.143 240.451 655.143V658.382V661.621C249.704 661.621 257.526 659.852 263.668 656.037L261.959 653.286ZM240.451 658.382V655.143C231.968 655.143 225.451 653.514 220.652 650.534L218.943 653.286L217.234 656.037C223.376 659.852 231.198 661.621 240.451 661.621V658.382ZM218.943 653.286L220.665 650.542C215.992 647.609 213.372 643.701 212.552 638.683L209.355 639.206L206.158 639.729C207.296 646.689 211.068 652.167 217.221 656.029L218.943 653.286ZM209.355 639.206L212.561 638.748C212.348 637.256 212.153 635.191 211.983 632.521L208.75 632.728L205.518 632.934C205.693 635.677 205.901 637.932 206.148 639.664L209.355 639.206ZM208.75 632.728L211.987 632.593C211.873 629.879 211.817 626.959 211.817 623.831H208.577H205.338C205.338 627.036 205.396 630.048 205.514 632.862L208.75 632.728ZM208.577 623.831H211.817C211.817 620.818 211.873 618.045 211.986 615.509L208.75 615.365L205.514 615.222C205.396 617.868 205.338 620.739 205.338 623.831H208.577ZM208.75 615.365L211.982 615.576C212.153 612.963 212.347 610.998 212.556 609.639L209.355 609.146L206.153 608.654C205.902 610.288 205.693 612.47 205.518 615.155L208.75 615.365ZM209.355 609.146L212.556 609.641C213.391 604.239 216.077 600.121 220.779 597.101L219.029 594.375L217.279 591.65C211.04 595.656 207.277 601.385 206.154 608.651L209.355 609.146ZM219.029 594.375L220.779 597.101C225.573 594.023 232.047 592.346 240.451 592.346V589.106V585.867C231.234 585.867 223.427 587.702 217.279 591.65L219.029 594.375ZM240.451 589.106V592.346C248.918 592.346 255.419 594.025 260.209 597.101L261.959 594.375L263.71 591.65C257.559 587.7 249.721 585.867 240.451 585.867V589.106ZM261.959 594.375L260.23 597.114C264.939 600.088 267.568 604.09 268.344 609.28L271.547 608.801L274.751 608.322C273.684 601.188 269.921 595.573 263.689 591.637L261.959 594.375ZM271.547 608.801L268.346 609.293C268.55 610.619 268.716 612.556 268.83 615.161L272.066 615.02L275.302 614.879C275.185 612.186 275.006 609.977 274.749 608.308L271.547 608.801ZM272.066 615.02L268.834 615.235C269.001 617.743 269.086 620.52 269.086 623.571H272.325H275.564C275.564 620.403 275.476 617.48 275.298 614.804L272.066 615.02ZM272.325 623.571H269.086C269.086 626.799 269.001 629.723 268.833 632.348L272.066 632.555L275.298 632.761C275.476 629.973 275.564 626.909 275.564 623.571H272.325ZM272.066 632.555L268.829 632.417C268.716 635.077 268.549 637.115 268.341 638.575L271.547 639.033L274.754 639.491C275.006 637.726 275.185 635.446 275.302 632.693L272.066 632.555ZM242.783 635.06H246.023V612.429H242.783H239.544V635.06H242.783ZM242.783 612.429H246.023C246.023 611.152 245.701 609.599 244.491 608.389C243.28 607.179 241.728 606.857 240.451 606.857V610.096V613.336C240.729 613.336 240.343 613.403 239.91 612.97C239.477 612.537 239.544 612.15 239.544 612.429H242.783ZM240.451 610.096V606.857C239.174 606.857 237.622 607.179 236.411 608.389C235.201 609.599 234.88 611.152 234.88 612.429H238.119H241.358C241.358 612.15 241.425 612.537 240.992 612.97C240.559 613.403 240.173 613.336 240.451 613.336V610.096ZM238.119 612.429H234.88V635.06H238.119H241.358V612.429H238.119ZM238.119 635.06H234.88C234.88 636.337 235.201 637.889 236.411 639.099C237.622 640.31 239.174 640.631 240.451 640.631V637.392V634.153C240.173 634.153 240.559 634.085 240.992 634.519C241.425 634.952 241.358 635.338 241.358 635.06H238.119ZM240.451 637.392V640.631C241.728 640.631 243.28 640.31 244.491 639.099C245.701 637.889 246.023 636.337 246.023 635.06H242.783H239.544C239.544 635.338 239.477 634.952 239.91 634.519C240.343 634.085 240.729 634.153 240.451 634.153V637.392ZM275.643 590.488V587.249H272.404V590.488H275.643ZM303.63 590.488H306.869V587.249H303.63V590.488ZM303.889 635.146L300.746 635.932L300.777 636.052L300.816 636.171L303.889 635.146ZM307.949 635.146L304.876 634.122L304.836 634.24L304.806 634.361L307.949 635.146ZM308.294 590.488V587.249H305.055V590.488H308.294ZM336.281 590.488H339.52V587.249H336.281V590.488ZM334.726 644.043L337.759 645.181L337.763 645.17L337.767 645.16L334.726 644.043ZM329.63 651.472L331.8 653.877L331.816 653.862L331.832 653.847L329.63 651.472ZM320.042 656.568L320.985 659.667L320.999 659.663L321.013 659.658L320.042 656.568ZM282.553 651.299L280.351 653.675V653.675L282.553 651.299ZM277.284 643.87L274.272 645.063L274.283 645.09L274.294 645.116L277.284 643.87ZM275.643 590.488V593.728H303.63V590.488V587.249H275.643V590.488ZM303.63 590.488H300.391V633.85H303.63H306.869V590.488H303.63ZM303.63 633.85H300.391C300.391 634.297 300.478 634.738 300.518 634.939C300.576 635.227 300.654 635.563 300.746 635.932L303.889 635.146L307.031 634.361C306.951 634.039 306.9 633.813 306.871 633.669C306.856 633.596 306.852 633.567 306.853 633.571C306.853 633.573 306.856 633.596 306.86 633.634C306.863 633.668 306.869 633.745 306.869 633.85H303.63ZM303.889 635.146L300.816 636.171C301.727 638.903 304.364 639.422 305.962 639.422V636.183V632.944C305.663 632.944 305.758 632.891 306.029 633.026C306.182 633.103 306.381 633.236 306.569 633.448C306.76 633.662 306.888 633.9 306.962 634.122L303.889 635.146ZM305.962 636.183V639.422C306.803 639.422 307.843 639.305 308.821 638.795C309.928 638.218 310.768 637.224 311.091 635.932L307.949 635.146L304.806 634.361C304.869 634.11 304.994 633.829 305.205 633.568C305.413 633.31 305.643 633.146 305.824 633.052C306.139 632.887 306.273 632.944 305.962 632.944V636.183ZM307.949 635.146L311.022 636.171C311.147 635.796 311.256 635.445 311.338 635.139C311.389 634.948 311.533 634.415 311.533 633.85H308.294H305.055C305.055 633.703 305.067 633.592 305.073 633.538C305.08 633.478 305.088 633.437 305.091 633.423C305.096 633.396 305.095 633.406 305.078 633.469C305.045 633.595 304.981 633.805 304.876 634.122L307.949 635.146ZM308.294 633.85H311.533V590.488H308.294H305.055V633.85H308.294ZM308.294 590.488V593.728H336.281V590.488V587.249H308.294V590.488ZM336.281 590.488H333.042V635.06H336.281H339.52V590.488H336.281ZM336.281 635.06H333.042C333.042 637.867 332.584 640.481 331.686 642.926L334.726 644.043L337.767 645.16C338.942 641.962 339.52 638.587 339.52 635.06H336.281ZM334.726 644.043L331.693 642.906C330.849 645.157 329.453 647.219 327.428 649.096L329.63 651.472L331.832 653.847C334.528 651.348 336.53 648.458 337.759 645.181L334.726 644.043ZM329.63 651.472L327.46 649.067C325.538 650.801 322.796 652.307 319.071 653.478L320.042 656.568L321.013 659.658C325.349 658.295 328.999 656.404 331.8 653.877L329.63 651.472ZM320.042 656.568L319.099 653.469C315.531 654.555 310.921 655.143 305.185 655.143V658.382V661.621C311.311 661.621 316.606 661 320.985 659.667L320.042 656.568ZM305.185 658.382V655.143C300.189 655.143 296.068 654.537 292.748 653.414L291.709 656.482L290.671 659.55C294.838 660.96 299.699 661.621 305.185 661.621V658.382ZM291.709 656.482L292.748 653.414C289.341 652.26 286.714 650.739 284.755 648.923L282.553 651.299L280.351 653.675C283.114 656.235 286.592 658.169 290.671 659.55L291.709 656.482ZM282.553 651.299L284.755 648.923C282.709 647.027 281.234 644.928 280.274 642.625L277.284 643.87L274.294 645.116C275.638 648.341 277.676 651.195 280.351 653.675L282.553 651.299ZM277.284 643.87L280.296 642.678C279.353 640.296 278.882 637.822 278.882 635.233H275.643H272.404C272.404 638.632 273.027 641.916 274.272 645.063L277.284 643.87ZM275.643 635.233H278.882V590.488H275.643H272.404V635.233H275.643ZM401.599 590.488H404.839V587.249H401.599V590.488ZM401.599 616.143V619.382H404.839V616.143H401.599ZM384.928 616.143V612.904H381.689V616.143H384.928ZM384.928 657V660.239H388.168V657H384.928ZM356.164 657H352.925V660.239H356.164V657ZM356.164 616.143H359.403V612.904H356.164V616.143ZM339.407 616.143H336.168V619.382H339.407V616.143ZM339.407 590.488V587.249H336.168V590.488H339.407ZM401.599 590.488H398.36V616.143H401.599H404.839V590.488H401.599ZM401.599 616.143V612.904H384.928V616.143V619.382H401.599V616.143ZM384.928 616.143H381.689V657H384.928H388.168V616.143H384.928ZM384.928 657V653.761H356.164V657V660.239H384.928V657ZM356.164 657H359.403V616.143H356.164H352.925V657H356.164ZM356.164 616.143V612.904H339.407V616.143V619.382H356.164V616.143ZM339.407 616.143H342.646V590.488H339.407H336.168V616.143H339.407ZM339.407 590.488V593.728H401.599V590.488V587.249H339.407V590.488Z" fill="#FE547C" mask="url(#path-11-outside-4_1005_384)"/>
</g>
<defs>
<clipPath id="clip0_1005_384">
<rect width="615" height="770" rx="20" fill="white"/>
</clipPath>
</defs>
</svg>
